<?xml version="1.0" encoding="UTF-8"?>
<svg width="1113" height="850" version="1.1" viewBox="0 0 294.48 224.9" xmlns="http://www.w3.org/2000/svg" xmlns:cc="http://creativecommons.org/ns#" xmlns:dc="http://purl.org/dc/elements/1.1/" xmlns:rdf="http://www.w3.org/1999/02/22-rdf-syntax-ns#">

 <path d="m138.83 223.69 15.256-0.16202s-0.60582-8.908 0-13.3c0.59231-4.2937 2.2401-8.3765 3.5205-12.517 1.2747-4.1223 3-8.1031 4.1408-12.264 1.7746-6.4735 3.2476-13.051 4.1883-19.697 0.74997-5.299 0.97722-10.665 1.1498-16.014 0.13602-4.2165 0.0482-8.4393-0.0908-12.656-0.0732-2.2192-0.39117-6.6498-0.39117-6.6498 0.31001 0.31001 12.486-8.9331 18.776-12.909 2.1287-1.3454 4.5351-2.4889 7.041-2.7382 6.531-0.64971 12.637-0.57314 18.776-1.9558 4.5863-1.033 9.0854-2.6103 13.3-4.694 3.6309-1.7952 7.0265-4.0959 10.17-6.6498 2.8625-2.3254 5.4474-5.0027 7.8234-7.8233 1.748-2.0751 4.694-6.6498 4.694-6.6498s-7.0393 7.7058-11.115 10.929c-2.814 2.2255-5.8877 4.1547-9.1114 5.7292-4.273 2.0869-8.7739 3.8164-13.414 4.856-4.0894 0.91619-8.3303 0.99847-12.517 1.1735-3.0504 0.12752-6.119-0.37491-9.1589-0.0909-5.5123 0.51509-8.8386 2.5798-12.976 4.8086-3.8478 2.0729-13.853 7.7996-13.853 7.7996s-1.2495-8.6861-2.3233-12.932c-0.69272-2.7393-1.6896-5.3942-2.6473-8.0525-2.8179-7.8215-6.2325-15.418-9.1114-23.217-1.2423-3.3655-2.8218-6.6516-3.5205-10.17-0.99065-4.9886-1.1435-10.152-0.8969-15.232 0.25633-5.2813 1.2758-10.518 2.4616-15.67 1.1007-4.7832 4.3028-14.082 4.3028-14.082s-2.7863 6.4896-4.0025 9.8029c-1.557 4.2419-3.1634 8.4896-4.212 12.885-0.85534 3.5851-1.5154 7.2469-1.6792 10.929-0.20949 4.7067 0.11349 9.4599 0.8969 14.106 0.63 3.736 1.9817 7.3143 3.0385 10.953 1.4063 4.8417 3.1348 9.5911 4.3937 14.473 2.0209 7.837 4.022 15.72 5.0614 23.747 0.72578 5.6045 0.67169 11.285 0.80607 16.935 0.0527 2.216 0 6.6498 0 6.6498s-9.1156-2.9062-13.691-4.3028c-7.0236-2.1441-14.166-3.9067-21.123-6.2587-2.7758-0.93844-5.5906-1.8251-8.2145-3.1293-2.203-1.095-4.4095-2.289-6.2587-3.9117-2.1584-1.8939-3.8137-4.3086-5.4763-6.6498-1.0601-1.4928-1.9827-3.083-2.8527-4.694-2.2644-4.193-3.6612-8.841-6.1441-12.909-1.2318-2.018-2.6764-3.9225-4.3028-5.6384-2.7097-2.8588-5.5927-5.6796-8.9968-7.6613-4.1473-2.4144-8.8289-3.9536-13.529-4.9232-3.1229-0.64421-6.3691-0.77548-9.55-0.55319-3.3162 0.23174-9.7792 1.9558-9.7792 1.9558s8.0674-1.3072 12.126-1.1735c3.5108 0.11562 7.056 0.62609 10.399 1.703 2.413 0.77718 4.6266 2.0972 6.8119 3.3822 2.1824 1.2833 4.3713 2.6155 6.2587 4.3028 1.9295 1.725 3.5885 3.756 5.0852 5.8675 1.8237 2.5729 3.3272 5.3724 4.694 8.2145 1.0193 2.1195 1.6697 4.3989 2.5999 6.559 1.2647 2.937 2.3139 6.011 4.05 8.6965 1.9635 3.0373 4.367 5.8324 7.0885 8.2145 2.3304 2.0398 5.0429 3.6285 7.7759 5.0852 3.2484 1.7314 6.7322 2.988 10.17 4.3028 4.5061 1.7233 9.15 3.0645 13.691 4.694 3.1457 1.1288 6.2448 2.3847 9.388 3.5205 2.9862 1.0791 8.9968 3.1293 8.9968 3.1293s-2.2665 12.339-3.9117 18.385c-1.624 5.9679-3.7145 11.804-5.8675 17.603-2.0606 5.5491-5.0543 10.755-6.7407 16.429-0.94542 3.181-1.6153 6.4701-1.865 9.7792-0.2593 3.4368 0.39117 10.332 0.39117 10.332z"
   fill="brown"/>
 <g fill="green" stroke="none">
  <path d="m33.249 55.177a13.924 10.795 0 0 0-13.924 10.795 13.924 10.795 0 0 0 0.08372 1.0754 14.137 9.052 0 0 0-2.4572-0.14625 14.137 9.052 0 0 0-14.138 9.0522 14.137 9.052 0 0 0 14.138 9.0522 14.137 9.052 0 0 0 2.5709-0.15607 14.692 11.563 0 0 0-0.57464 3.1657 14.692 11.563 0 0 0 14.693 11.563 14.692 11.563 0 0 0 14.692-11.563 14.692 11.563 0 0 0-0.64389-3.3502 14.526 9.0492 0 0 0 1.7937 0.0775 14.526 9.0492 0 0 0 14.526-9.049 14.526 9.0492 0 0 0-14.526-9.0491 14.526 9.0492 0 0 0-2.3606 0.12351 13.924 10.795 0 0 0 0.05168-0.79582 13.924 10.795 0 0 0-13.924-10.795zm-2.2128 21.44a13.924 10.795 0 0 0 0.077 9e-3 14.692 11.563 0 0 0-0.07855 0.014 14.137 9.052 0 0 0 0.0015-0.0227z"/>
  <path d="m155.44 1.4119a13.924 10.795 0 0 0-13.924 10.795 13.924 10.795 0 0 0 0.0837 1.0754 14.137 9.052 0 0 0-2.4572-0.14625 14.137 9.052 0 0 0-14.138 9.0522 14.137 9.052 0 0 0 14.138 9.0522 14.137 9.052 0 0 0 2.5709-0.15607 14.692 11.563 0 0 0-0.57464 3.1657 14.692 11.563 0 0 0 14.693 11.563 14.692 11.563 0 0 0 14.692-11.563 14.692 11.563 0 0 0-0.64389-3.3502 14.526 9.0492 0 0 0 1.7937 0.0775 14.526 9.0492 0 0 0 14.526-9.049 14.526 9.0492 0 0 0-14.526-9.0491 14.526 9.0492 0 0 0-2.3606 0.12351 13.924 10.795 0 0 0 0.0517-0.79582 13.924 10.795 0 0 0-13.924-10.795zm-2.2128 21.44a13.924 10.795 0 0 0 0.077 9e-3 14.692 11.563 0 0 0-0.0785 0.014 14.137 9.052 0 0 0 2e-3 -0.0227z"/>
  <path d="m260.91 57.34a13.924 10.795 0 0 0-13.924 10.795 13.924 10.795 0 0 0 0.0837 1.0754 14.137 9.052 0 0 0-2.4572-0.14625 14.137 9.052 0 0 0-14.138 9.0522 14.137 9.052 0 0 0 14.138 9.0522 14.137 9.052 0 0 0 2.5709-0.15607 14.692 11.563 0 0 0-0.57464 3.1657 14.692 11.563 0 0 0 14.693 11.563 14.692 11.563 0 0 0 14.692-11.563 14.692 11.563 0 0 0-0.64389-3.3502 14.526 9.0492 0 0 0 1.7937 0.0775 14.526 9.0492 0 0 0 14.526-9.049 14.526 9.0492 0 0 0-14.526-9.0491 14.526 9.0492 0 0 0-2.3606 0.12351 13.924 10.795 0 0 0 0.0517-0.79582 13.924 10.795 0 0 0-13.924-10.795zm-2.2128 21.44a13.924 10.795 0 0 0 0.077 9e-3 14.692 11.563 0 0 0-0.0786 0.014 14.137 9.052 0 0 0 2e-3 -0.0227z"/>
 </g>
</svg>
