<?xml version="1.0" encoding="UTF-8" standalone="no"?>
<svg
   xmlns:dc="http://purl.org/dc/elements/1.1/"
   xmlns:cc="http://creativecommons.org/ns#"
   xmlns:rdf="http://www.w3.org/1999/02/22-rdf-syntax-ns#"
   xmlns:svg="http://www.w3.org/2000/svg"
   xmlns="http://www.w3.org/2000/svg"
   xmlns:sodipodi="http://sodipodi.sourceforge.net/DTD/sodipodi-0.dtd"
   xmlns:inkscape="http://www.inkscape.org/namespaces/inkscape"
   width="508"
   height="178"
   version="1.1"
   viewBox="0 0 134.41 47.096"
   id="svg1081"
   sodipodi:docname="control-superior.svg"
   inkscape:version="0.92.4 (5da689c313, 2019-01-14)">
  <defs
     id="defs1085" />
  <sodipodi:namedview
     pagecolor="#ffffff"
     bordercolor="#666666"
     borderopacity="1"
     objecttolerance="10"
     gridtolerance="10"
     guidetolerance="10"
     inkscape:pageopacity="0"
     inkscape:pageshadow="2"
     inkscape:window-width="1856"
     inkscape:window-height="1017"
     id="namedview1083"
     showgrid="false"
     inkscape:zoom="2.742126"
     inkscape:cx="254"
     inkscape:cy="89"
     inkscape:window-x="-8"
     inkscape:window-y="-8"
     inkscape:window-maximized="1"
     inkscape:current-layer="svg1081" />
  <metadata
     id="metadata951">
    <rdf:RDF>
      <cc:Work
         rdf:about="">
        <dc:format>image/svg+xml</dc:format>
        <dc:type
           rdf:resource="http://purl.org/dc/dcmitype/StillImage" />
        <dc:title />
      </cc:Work>
    </rdf:RDF>
  </metadata>
  <rect
     x="13.529"
     y="4.677"
     width="107.06"
     height="28.088"
     fill="#161650"
     id="rect953" />
  <path
     d="m13.529 4.687 10.069-3.3838h86.811l10.179 3.3838"
     fill="#5f8dd3"
     id="path955" />
  <path
     d="m1.2412 45.797 12.408-13.016h106.98l12.543 13.016"
     fill="#5f8dd3"
     id="path957" />
  <circle
     cx="17.177"
     cy="8.447"
     r="2.7781"
     fill="#ff0"
     id="circle959" />
  <circle
     cx="117.01"
     cy="8.317"
     r="2.7781"
     fill="#ff0"
     id="circle961" />
  <rect
     x="22.248"
     y="8.117"
     width="89.959"
     height="20.108"
     fill="#ac9393"
     stroke-width="1.5584"
     id="rect963" />
  <rect
     x="24.221"
     y="9.9473"
     width="85.99"
     height="16.14"
     stroke-width="1.6125"
     id="rect965" />
  <path
     d="m24.552 44.397 8.0365-10.528h69.287l8.124 10.528"
     id="path985" />
  <path
     d="m56.26 40.657 2.3668-3.5646 9.6643 0.16203 1.9723 3.4026z"
     fill="none"
     stroke="#fff"
     stroke-width=".3287px"
     id="path1007" />
  <g
     transform="matrix(1.1509 0 0 1.1509 -57.56 -206.41)"
     id="g1013">
    <ellipse
       cx="116.78"
       cy="213.35"
       rx="1.4155"
       ry="1.2493"
       fill="#0f0"
       id="ellipse1009" />
    <path
       d="m116.62 213.55 0.93543-1.0979"
       fill="none"
       stroke="#000"
       stroke-width=".35573px"
       id="path1011" />
  </g>
  <g
     transform="translate(-31.442 -121.24)"
     id="g1023">
    <rect
       x="114.15"
       y="160.24"
       width="6.4859"
       height="1.9609"
       fill="#2aabe2"
       id="rect1015" />
    <ellipse
       cx="114.79"
       cy="159.19"
       rx=".71646"
       ry=".67876"
       fill="#29abe2"
       id="ellipse1017" />
    <ellipse
       cx="116.9"
       cy="159.08"
       rx=".79188"
       ry=".56563"
       fill="#ff0"
       id="ellipse1019" />
    <ellipse
       cx="119.73"
       cy="159.08"
       rx=".67876"
       ry=".64105"
       fill="#f0f"
       id="ellipse1021" />
  </g>
  <g
     transform="translate(-41.355 -117.17)"
     stroke="#f00"
     stroke-linecap="round"
     id="g1067">
    <path
       d="m88.424 154.16h3.5493"
       fill="none"
       stroke-width=".2984"
       id="path1025" />
    <g
       fill="#f00"
       stroke-width=".2376"
       id="g1065">
      <circle
         cx="88.56"
         cy="154.81"
         r=".18547"
         id="circle1027" />
      <circle
         cx="89.445"
         cy="154.84"
         r=".18547"
         id="circle1029" />
      <circle
         cx="90.425"
         cy="154.84"
         r=".18547"
         id="circle1031" />
      <circle
         cx="91.255"
         cy="154.84"
         r=".18547"
         id="circle1033" />
      <g
         transform="translate(-.53787 .84202)"
         id="g1043">
        <circle
           cx="88.56"
           cy="154.81"
           r=".18547"
           id="circle1035" />
        <circle
           cx="89.445"
           cy="154.84"
           r=".18547"
           id="circle1037" />
        <circle
           cx="90.425"
           cy="154.84"
           r=".18547"
           id="circle1039" />
        <circle
           cx="91.255"
           cy="154.84"
           r=".18547"
           id="circle1041" />
      </g>
      <g
         transform="translate(-1.0658,1.6716)"
         id="g1053">
        <circle
           cx="88.56"
           cy="154.81"
           r=".18547"
           id="circle1045" />
        <circle
           cx="89.445"
           cy="154.84"
           r=".18547"
           id="circle1047" />
        <circle
           cx="90.425"
           cy="154.84"
           r=".18547"
           id="circle1049" />
        <circle
           cx="91.255"
           cy="154.84"
           r=".18547"
           id="circle1051" />
      </g>
      <g
         transform="translate(-1.5937,2.5012)"
         id="g1063">
        <circle
           cx="88.56"
           cy="154.81"
           r=".18547"
           id="circle1055" />
        <circle
           cx="89.445"
           cy="154.84"
           r=".18547"
           id="circle1057" />
        <circle
           cx="90.425"
           cy="154.84"
           r=".18547"
           id="circle1059" />
        <circle
           cx="91.255"
           cy="154.84"
           r=".18547"
           id="circle1061" />
      </g>
    </g>
  </g>
  <path
     d="m59.427 38.157s0.41319 0.23324 0.53328 0.42663c0.15359 0.24733 0.06686 0.58789 0.18665 0.85325 0.06802 0.15068 0.14442 0.32808 0.2933 0.39996 0.20826 0.10054 0.47737 0.0562 0.69326-0.0267 0.19442-0.0746 0.37637-0.2193 0.47996-0.39996 0.16135-0.28141 0.0277-0.6637 0.15998-0.9599 0.0696-0.1559 0.15778-0.34662 0.31997-0.39996 0.13107-0.0431 0.28514 0.0301 0.39996 0.10665 0.12131 0.0808 0.21423 0.21061 0.26664 0.34664 0.0801 0.20801-0.0436 0.46587 0.0533 0.6666 0.0793 0.16422 0.23425 0.29714 0.39996 0.37329 0.14626 0.0672 0.32324 0.0901 0.47996 0.0533 0.14401-0.0338 0.26936-0.13471 0.37329-0.23997 0.11782-0.11933 0.18864-0.27817 0.26664-0.42663 0.13516-0.25725 0.1324-0.60358 0.34664-0.79992 0.16577-0.15191 0.41956-0.25797 0.63993-0.21331 0.29009 0.0588 0.48205 0.35521 0.66661 0.58661 0.2207 0.27673 0.28815 0.65474 0.50661 0.93324 0.0816 0.10396 0.1613 0.27223 0.29331 0.26664 0.16965-7e-3 0.19966-0.28825 0.34663-0.3733 0.10263-0.0594 0.36005 0.0378 0.34663-0.08-1e-3 -9e-3 -0.0267 0-0.0267 0"
     fill="none"
     stroke="#00e400"
     stroke-width=".13229"
     id="path1069" />
  <g
     transform="translate(-36.538 -175.42)"
     id="g1079">
    <ellipse
       cx="74.32"
       cy="214.34"
       rx="3.2183"
       ry="1.9931"
       fill="#95f"
       id="ellipse1071" />
    <ellipse
       cx="74.306"
       cy="214.2"
       rx="2.5783"
       ry="1.5967"
       fill="#5500d4"
       id="ellipse1073" />
    <ellipse
       cx="133.63"
       cy="214.5"
       rx="3.2183"
       ry="1.9931"
       fill="#95f"
       id="ellipse1075" />
    <ellipse
       cx="133.62"
       cy="214.36"
       rx="2.5783"
       ry="1.5967"
       fill="#5500d4"
       id="ellipse1077" />
  </g>
</svg>
