<?xml version="1.0" encoding="UTF-8"?>
<svg width="673" height="892" version="1.1" viewBox="0 0 178 236" xmlns="http://www.w3.org/2000/svg">

<path d="m89.035 6.371s1.844-1.5553 2.928-2.0496c1.2815-0.58439 2.6907-1.016 4.0991-1.0248 22.602-0.14105 44.666-0.0172 68.954-0.1464 1.9762-0.0105 3.8985 0.98448 5.5632 2.0496 1.5114 0.96707 2.863 2.28 3.8064 3.8064 0.97356 1.5752 1.7476 3.4186 1.7568 5.2704 0.10863 21.847-0.0259 43.878 0.2928 67.051 0.0134 0.97712 0.0413 1.969-0.1464 2.928-0.19866 1.0148-0.56824 2.0002-1.0248 2.928-0.59163 1.2023-2.196 3.3672-2.196 3.3672s1.5161 2.0655 2.0496 3.2208c0.55654 1.2052 1.1543 2.479 1.1712 3.8064 0.29036 22.791 0.0176 46.393 0 68.515-1e-3 1.34-0.25445 2.7008-0.73199 3.9528-0.56967 1.4936-1.4151 2.9149-2.4888 4.0992-0.81944 0.90382-1.8498 1.6252-2.928 2.196-1.5958 0.84481-3.3184 1.7693-5.124 1.7568-22.316-0.1551-44.832-0.43003-68.515 0.1464-1.5147 0.0369-3.0112-0.54743-4.3919-1.1712-1.1224-0.50705-3.0744-2.0496-3.0744-2.0496s-2.224 1.7782-3.5136 2.3424c-1.3338 0.58354-2.7898 1.0382-4.2456 1.0248-23.765-0.21873-43.862-8e-3 -68.661-0.1464-1.822-0.0102-3.5792-0.93707-5.124-1.9032-1.2584-0.78698-2.3869-1.8466-3.2208-3.0744-1.2423-1.8291-2.4775-3.9377-2.4888-6.1488-0.11027-21.654-0.24098-46.304 0-69.979 0.0099-0.97228 0.47108-1.8987 0.87839-2.7816 0.57856-1.2541 2.196-3.5136 2.196-3.5136s-0.79393-1.359-1.1712-2.0496c-0.60696-1.111-1.4159-2.148-1.7568-3.3672-0.40823-1.4599-0.28737-3.0224-0.2928-4.5384-0.07906-22.072 0.20034-43.88 0.1464-67.49-0.0039-1.7246 1.2211-3.2621 2.196-4.6848 0.87796-1.2812 1.9477-2.4774 3.2208-3.3672 1.3971-0.97647 2.9803-2.0427 4.6848-2.0496 22.764-0.0923 64.708-0.1464 64.708-0.1464s4.6298-0.15824 6.8807 0.2928c0.96886 0.19413 1.9035 0.57155 2.7816 1.0248 0.9983 0.51531 2.7816 1.9032 2.7816 1.9032z" fill="#fff" stroke="#038f72"/>

</svg>
