<?xml version="1.0" encoding="UTF-8"?>
<svg width="238" height="228" version="1.1" viewBox="0 0 62.971 60.325" xmlns="http://www.w3.org/2000/svg">

  <path class="contorno" d="m19.048 38.01s-0.88325-3.1495-1.9079-4.361c-0.91132-1.0774-2.1909-1.9139-3.5433-2.3168-1.4802-0.44097-3.1451-0.41228-4.6335 0-1.2764 0.35353-2.4925 1.0862-3.407 2.0442-0.92624 0.97032-1.5321 2.2556-1.9079 3.5433-0.34454 1.1806-0.48323 2.4679-0.27256 3.6796 0.22991 1.3224 0.78188 2.6437 1.6354 3.6796 0.7052 0.85592 1.7166 1.4478 2.7256 1.9079 1.1929 0.544 2.5057 1.0043 3.8159 0.95396 1.4355-0.0551 2.8975-0.55942 4.0884-1.3628 1.3357-0.90108 3.1345-3.6796 3.1345-3.6796h3.9521s0.85778 3.1422 1.4991 4.6335c0.67459 1.5687 1.4185 3.1388 2.453 4.4973 1.1484 1.508 2.555 2.8379 4.0884 3.9521 1.3316 0.96763 2.828 1.7172 4.361 2.3168 1.6624 0.65019 3.4034 1.177 5.1787 1.3628 1.8546 0.19412 3.7487 0.0369 5.5875-0.27256 1.9137-0.32208 3.8382-0.79523 5.5875-1.6354 1.4996-0.72017 2.856-1.7446 4.0884-2.8619 1.2411-1.1252 2.3545-2.4133 3.2707-3.8158 0.74451-1.1397 1.6332-2.3254 1.7716-3.6796 0.0381-0.37266-0.27256-1.0902-0.27256-1.0902l-5.9964-3.2707s-0.81811 1.8682-1.3628 2.7256c-0.58968 0.9282-1.2391 1.8403-2.0442 2.5893-1.1254 1.047-2.4045 1.9802-3.8159 2.5893-0.76906 0.33191-1.6204 0.45372-2.453 0.54512-1.3095 0.14375-2.6643 0.27732-3.9521 0-1.5106-0.32528-2.9999-0.96588-4.2247-1.9079-1.2541-0.96457-2.1604-2.3375-2.9982-3.6796-0.68884-1.1035-1.6354-3.5433-1.6354-3.5433l27.938-0.27256s1.3729-0.80775 1.6354-1.4991c0.47013-1.2382-0.21997-2.6413-0.40884-3.9521-0.17789-1.2346-0.28502-2.4969-0.6814-3.6796-0.48418-1.4447-1.2173-2.8087-2.0442-4.0884-0.85867-1.3288-1.8237-2.6195-2.9982-3.6796-1.4123-1.2747-3.0356-2.3521-4.7698-3.1344-1.8885-0.85201-3.934-1.4379-5.9964-1.6354-2.4035-0.23014-7.2229 0.54513-7.2229 0.54513s3.9721-2.5121 6.1326-3.407c0.91661-0.37967 1.8698-0.8277 2.8619-0.81768 1.2357 0.0125 2.3181 0.92914 3.5433 1.0902 1.2169 0.16001 2.4941 0.18157 3.6796-0.13628 0.84399-0.22629 1.698-0.60959 2.3168-1.2265 0.5469-0.54523 1.1615-1.2752 1.0902-2.0442-0.0805-0.8689-1.6354-2.0442-1.6354-2.0442s1.306-1.1378 1.6354-1.9079c0.17952-0.41975 0.24665-0.91981 0.13628-1.3628-0.15838-0.63572-0.52721-1.3004-1.0902-1.6354-0.4312-0.25656-1.4991-0.13628-1.4991-0.13628s0.53069-1.269 0.40884-1.9079c-0.0921-0.48267-0.40941-0.95311-0.81768-1.2265-0.57738-0.38667-1.351-0.45652-2.0442-0.40884-1.1036 0.07591-2.1972 0.50258-3.1344 1.0902-0.76199 0.4778-1.3186 1.2285-1.9079 1.9079-0.74409 0.85795-1.132 2.0492-2.0442 2.7256-1.2813 0.95008-3.0594 0.94474-4.4973 1.6354-2.2051 1.0592-4.3455 2.3042-6.2689 3.8158-2.374 1.8658-4.6397 3.9557-6.4052 6.4052-1.2473 1.7305-2.0378 3.7563-2.8619 5.7238-0.70481 1.6828-1.3978 3.3929-1.7716 5.1787-0.44838 2.1416-0.54512 6.5415-0.54512 6.5415z"/>

  <path class="centro" d="m32.805 37.19s5.4958 0.22647 8.1768-0.27257c1.0875-0.20243 2.1043-0.68723 3.1345-1.0902 1.7998-0.7041 3.423-1.9223 5.3149-2.3168 1.0673-0.22251 3.2707 0 3.2707 0s-0.64693-1.7461-1.2265-2.453c-0.98512-1.2016-2.2772-2.1928-3.6796-2.8619-1.263-0.60256-2.6909-0.88061-4.0884-0.95396-1.463-0.0768-2.988 0.0343-4.361 0.54512-1.0746 0.39979-2.0209 1.1286-2.8619 1.9079-0.97313 0.90181-1.8532 1.951-2.453 3.1344-0.68268 1.3469-1.2265 4.361-1.2265 4.361z" fill="none" stroke="black" stroke-width="1.9844"/>

  <circle cx="12.015" cy="35.42" r="2.3812" fill="white"/>

  <style>
    .contorno, .centro{
      fill:none;
      stroke-width:1.9844;
      stroke:rgb(81, 181, 163);
      stroke-linecap:round;
      stroke-dasharray:40,20;
      stroke-dashoffset:100;
      animation: path 15s linear alternate infinite;
    }
    @keyframes path{
      from{
        stroke-dashoffset:900;
      }
      to{
        stroke-dashoffset:0;
      }
    }
  </style>

</svg>
