<?xml version="1.0" encoding="UTF-8"?>

<svg width="1029" height="535" version="1.1" viewBox="0 0 1029 535" xmlns="http://www.w3.org/2000/svg">

  <rect x="0" y="0" width="1029" height="535" fill="white" stroke="none"/>

 <polyline stroke="none" fill="#27ae60" points="0,0 30,0 514.5,267.5 0,30"/>
 <polyline stroke="none" fill="#27ae60" points="100,0 514.5,267.5 175,0"/>
 <polyline stroke="none" fill="#27ae60" points="240,0 514.5,267.5 300,0"/>
 <polyline stroke="none" fill="#27ae60" points="360,0 514.5,267.5 420,0"/>
 <polyline stroke="none" fill="#27ae60" points="480,0 514.5,267.5 540,0"/>
 <polyline stroke="none" fill="#27ae60" points="600,0 514.5,267.5 670,0"/>
 <polyline stroke="none" fill="#27ae60" points="730,0 514.5,267.5 800,0"/>
 <polyline stroke="none" fill="#27ae60" points="870,0 514.5,267.5 940,0"/>
 <polyline stroke="none" fill="#27ae60" points="1010,0 514.5,267.5 1029,35 1029,0"/>
 <polyline stroke="none" fill="#27ae60" points="1029,85 514.5,267.5 1029,140"/>
 <polyline stroke="none" fill="#27ae60" points="1029,190 514.5,267.5 1029,250"/>
 <polyline stroke="none" fill="#27ae60" points="1029,300 514.5,267.5 1029,360"/>
 <polyline stroke="none" fill="#27ae60" points="1029,410 514.5,267.5 1029,470"/>
 <polyline stroke="none" fill="#27ae60" points="1029,510 514.5,267.5 1000,535 1029,535"/>
 <polyline stroke="none" fill="#27ae60" points="840,535 514.5,267.5 920,535"/>
 <polyline stroke="none" fill="#27ae60" points="690,535 514.5,267.5 770,535"/>
 <polyline stroke="none" fill="#27ae60" points="550,535 514.5,267.5 620,535"/>
 <polyline stroke="none" fill="#27ae60" points="410,535 514.5,267.5 480,535"/>
 <polyline stroke="none" fill="#27ae60" points="350,535 514.5,267.5 270,535"/>
 <polyline stroke="none" fill="#27ae60" points="199,535 514.5,267.5 110,535"/>
 <polyline stroke="none" fill="#27ae60" points="30,535 514.5,267.5 0,500 0,535"/>
 <polyline stroke="none" fill="#27ae60" points="0,390 514.5,267.5 0,450"/>
 <polyline stroke="none" fill="#27ae60" points="0,340 514.5,267.5 0,280"/>
 <polyline stroke="none" fill="#27ae60" points="0,170 514.5,267.5 0,230"/>
 <polyline stroke="none" fill="#27ae60" points="0,70 514.5,267.5 0,120"/>

 <path stroke="brown" stroke-width="7" fill="orange"
   d="M455,300 L390,300 L445,270
           L350,240 L450,245 L400,210
           L468,220 L400,140 L495,200
           L510,160 L530,200 L585,130
           L570,230 L640,230 L580,260
           L690,285 L580,290 L620,340
           L560,320 L570,400 L520,335
           L480,440 L480,325 L420,360 Z"/>        
</svg>
