<?xml version="1.0" encoding="UTF-8"?>

<svg width="1029" height="535" version="1.1" viewBox="0 0 1029 535" xmlns="http://www.w3.org/2000/svg">

  <rect x="0" y="0" width="1029" height="535" fill=" #6bdbff" stroke="none"/>

  <defs>
    <radialGradient id="myGradient">
      <stop offset="90%"   stop-color="#10b7ed" />
      <stop offset="100%" stop-color="black" />
    </radialGradient>
  </defs>

 <polyline stroke="none" fill="url(#myGradient)" opacity=".25" points="0,0 30,0 514.5,267.5 0,30"/>
 <polyline stroke="none" fill="url(#myGradient)" opacity=".25" points="100,0 514.5,267.5 175,0"/>
 <polyline stroke="none" fill="url(#myGradient)" opacity=".25" points="240,0 514.5,267.5 300,0"/>
 <polyline stroke="none" fill="url(#myGradient)" opacity=".25" points="360,0 514.5,267.5 420,0"/>
 <polyline stroke="none" fill="url(#myGradient)" opacity=".25" points="480,0 514.5,267.5 540,0"/>
 <polyline stroke="none" fill="url(#myGradient)" opacity=".25" points="600,0 514.5,267.5 670,0"/>
 <polyline stroke="none" fill="url(#myGradient)" opacity=".25" points="730,0 514.5,267.5 800,0"/>
 <polyline stroke="none" fill="url(#myGradient)" opacity=".25" points="870,0 514.5,267.5 940,0"/>
 <polyline stroke="none" fill="url(#myGradient)" opacity=".25" points="1010,0 514.5,267.5 1029,35 1029,0"/>
 <polyline stroke="none" fill="url(#myGradient)" opacity=".25" points="1029,85 514.5,267.5 1029,140"/>
 <polyline stroke="none" fill="url(#myGradient)" opacity=".25" points="1029,190 514.5,267.5 1029,250"/>
 <polyline stroke="none" fill="url(#myGradient)" opacity=".25" points="1029,300 514.5,267.5 1029,360"/>
 <polyline stroke="none" fill="url(#myGradient)" opacity=".25" points="1029,410 514.5,267.5 1029,470"/>
 <polyline stroke="none" fill="url(#myGradient)" opacity=".25" points="1029,510 514.5,267.5 1000,535 1029,535"/>
 <polyline stroke="none" fill="url(#myGradient)" opacity=".25" points="840,535 514.5,267.5 920,535"/>
 <polyline stroke="none" fill="url(#myGradient)" opacity=".25" points="690,535 514.5,267.5 770,535"/>
 <polyline stroke="none" fill="url(#myGradient)" opacity=".25" points="550,535 514.5,267.5 620,535"/>
 <polyline stroke="none" fill="url(#myGradient)" opacity=".25" points="410,535 514.5,267.5 480,535"/>
 <polyline stroke="none" fill="url(#myGradient)" opacity=".25" points="350,535 514.5,267.5 270,535"/>
 <polyline stroke="none" fill="url(#myGradient)" opacity=".25" points="199,535 514.5,267.5 110,535"/>
 <polyline stroke="none" fill="url(#myGradient)" opacity=".25" points="30,535 514.5,267.5 0,500 0,535"/>
 <polyline stroke="none" fill="url(#myGradient)" opacity=".25" points="0,390 514.5,267.5 0,450"/>
 <polyline stroke="none" fill="url(#myGradient)" opacity=".25" points="0,340 514.5,267.5 0,280"/>
 <polyline stroke="none" fill="url(#myGradient)" opacity=".25" points="0,170 514.5,267.5 0,230"/>
 <polyline stroke="none" fill="url(#myGradient)" opacity=".25" points="0,70 514.5,267.5 0,120"/>

 <mask maskUnits="userSpaceOnUse" id="fade">

    <linearGradient id="gradient" x1="0" y1="0" x2="0" y2="100%">
      <stop offset ="0" style="stop-color: #FFFFFF" />
      <stop offset ="1" style="stop-color: #000000" />
    </linearGradient>

    <rect fill="url(#gradient)" width="100%" height="100%" />
  </mask>

  <pattern id="pattern-circles" x="0" y="0" width="10" height="10" patternUnits="userSpaceOnUse">

    <circle mask="url(#fade)" cx="3" cy="3" r="3" fill="white" />
  </pattern>

 <rect x="454.5" y="207.510" width="120" height="120" fill="url(#pattern-circles)" stroke="none"/>

 <rect x="454.5" y="207.510" width="120" height="120" fill="url(#pattern-circles)" stroke="none" transform="rotate(45 515 270)"/>

</svg>
