<svg version="1.1" viewBox="0 0 3840 2160" preserveAspectRatio="xMidYMid meet" xmlns="http://www.w3.org/2000/svg">

    <style media="screen">
        body{
        margin: 0;
        }

        .luna{
        fill: #90A4AE;
        }
        .crater{
        fill: #000033;
        }
        .ciluetas{
        fill: none;
        stroke: #90A4AE;
        stroke-width: 15;
        opacity:.3;
        }
        .nave{
        transform: scale(2) translate(250px,350px) rotate(45deg);
        }
        .tierra{
        transform: translate(3500px, 1300px);
        }

    </style>

    <defs>
        <linearGradient id="grad1" x1="0%" y1="0%" x2="100%" y2="0%">
            <stop offset="0%" style="stop-color:rgb(0,0,0); stop-opacity:1"/>
            <stop offset="100%" style="stop-color:rgb(0,0,51); stop-opacity:1"/>
        </linearGradient>
    </defs>
    <rect class="principal" width="3840" height="2160" fill="url(#grad1)"/>

    <g class="luna">
        <circle cx="3380" cy="420" r="200" />
        <circle cx="3700" cy="425" r="40">
            <animateTransform
                    attributeName="transform"
                    begin="0s"
                    dur="60s"
                    type="rotate"
                    from="0 3370 425"
                    to="360 3370 425"
                    repeatCount="indefinite"/>
        </circle>
    </g>

    <g class="crater">
        <circle cx="3450" cy="480" r="30"/>
        <circle cx="3510" cy="510" r="15"/>
        <circle cx="3440" cy="380" r="25"/>
        <circle cx="3480" cy="345" r="10"/>
        <circle cx="3390" cy="370" r="15"/>
        <circle cx="3340" cy="340" r="25"/>
        <circle cx="3230" cy="400" r="30"/>
    </g>

    <g class="ciluetas">
        <circle cx="3380" cy="420" r="230"/>
        <circle cx="2700" cy="200" r="95"/>
    </g>

    <g class="nave">

        <defs>
            <linearGradient id="grad2" x1="0%" y1="65%" x2="0%" y2="100%">
                <stop offset="0%" style="stop-color:blue; stop-opacity:1"/>
                <stop offset="50%" style="stop-color:yellow; stop-opacity:1"/>
                <stop offset="100%" style="stop-color:orange; stop-opacity:1"/>
            </linearGradient>
        </defs>
        <ellipse cx="32.5" cy="100" rx="15" ry="20" stroke="red" stroke-width="3" fill="url(#grad2)">
            <animate attributeName="ry"
                     values="20;70;20"
                     begin="0"
                     dur="5s"
                     repeatCount="indefinite"/>
        </ellipse>

        <path d="m60.21 68.94 c0.26785 17.693-10.503 52.991-10.503 52.991s-11.757 3.5095-16.409 3.5095c-4.7434-1e-5 -17.012-3.8767-17.012-3.8767s-9.632-36.475-9.632-52.892c0-34.31 28.518-62.124 28.518-62.124 1.0327 0.14753 24.529 28.855 25.037 62.392z" fill="#fff"/>
        <circle cx="34.14" cy="54.94" r="10.68" fill="#22174c" stroke="#800000"  stroke-width="3"/>
        <circle cx="33.81" cy="82.7" r="5.6163" fill="#22174c" stroke="#800000"  stroke-width="2"/>

        <path d="m49.33 27.96 c-9.0558 3.6803-19.141 4.9406-30.224-0.40977 5.11-8.4589 10.537-15.967 15.81-23.938 5.0969 7.9989 10.189 16 14.414 24.347z" fill="#800000"/>
        <path d="m16.58 32.11 c11.971 3.5064 26.668 2.5891 34.634-0.26778l1.6137 3.7489c-6.258 1.8846-12.336 3.5211-18.934 3.1964-6.3816-0.3141-12.059-1.8375-18.87-3.6535z" fill="#800000"/>
        <path d="m14.82 115.67 c13.478 3.8061 23.341 3.4618 36.819 0.13388l-1.9337 6.1305c-12.019 4.411-19.099 5.3006-33.421-0.36723z" fill="#800000"/>

        <path d="m20.47 122.64 -6.4378-29.538s-2.5291 3.3234-3.5976 5.1124c-1.1579 1.9386-2.1433 3.9822-3.0296 6.0591-0.73652 1.726-1.3561 3.5037-1.8935 5.3017-0.61372 2.0534-1.3551 4.1113-1.5148 6.2484-0.21249 2.8435 0.36048 5.697 0.75738 8.5206 0.51 3.6283 1.2316 7.229 2.0828 10.793 0.64051 2.6815 2.2722 7.9526 2.2722 7.9526z" fill="#800000"/>
        <path d="m44.92 123.7 6.4378-29.538s2.5291 3.3234 3.5976 5.1124c1.1579 1.9386 2.1433 3.9822 3.0296 6.0591 0.73652 1.726 1.3561 3.5037 1.8935 5.3017 0.61372 2.0534 1.3551 4.1113 1.5148 6.2484 0.21249 2.8435-0.36048 5.697-0.75738 8.5206-0.51 3.6283-1.2316 7.229-2.0828 10.793-0.64051 2.6815-2.2722 7.9526-2.2722 7.9526z" fill="#800000"/>
        <path d="m32.22 147.13 s4.7597-23.372 6.025-35.213c0.21834-2.0433 0.39273-4.1078 0.26777-6.1589-0.099-1.6258-0.21041-3.3029-0.80333-4.82-1.1265-2.8823-5.0878-7.7655-5.0878-7.7655s-2.4886 2.92-3.4811 4.5522c-0.87133 1.4329-1.6754 2.9415-2.1422 4.5522-0.40065 1.3824-0.54818 2.8452-0.53556 4.2844 0.0277 3.1557 0.89447 6.2478 1.3389 9.3722 1.479 10.398 4.4183 31.196 4.4183 31.196z" fill="#800000"/>
    </g>

    <g class="tierra">
        <circle cx="140.6" cy="142.26" r="128.24" fill="#0b59b6" stroke="#0b59b6" stroke-width="4"/>
        <circle cx="140.6" cy="141.88" r="131.45" fill="none" stroke="#000600" stroke-width="4"/>
        <g>
            <path d="m24.775 97.84c12.567-48.44 79.357-90.062 134.96-80.265 2.3432 0.41282-3.2922 3.6697-4.7564 5.6483-1.1936 1.6128-2.8091 3.1009-3.2701 5.0537-0.41232 1.7466 0.42093 3.5648 0.59456 5.351 0.11544 1.1876 0.26425 2.3746 0.29728 3.5673 0.0988 3.5673-0.89999 7.1846-0.29728 10.702 0.2331 1.3604 0.2932 3.1709 1.4864 3.8646 2.8592 1.6624 6.5058-1.6272 9.8102-1.4864 2.5454 0.10846 5.0736 0.81982 7.4319 1.7837 1.0697 0.43719 2.4761 0.74023 2.9728 1.7837 0.90341 1.898-0.48774 4.18-0.89183 6.2428-0.31416 1.6038-0.20226 3.4538-1.1891 4.7564-1.4472 1.9104-3.9264 2.9522-6.2428 3.5673-2.107 0.55954-4.6856-1.1461-6.5401 0-1.8849 1.1649-2.9225 3.7303-2.9728 5.9455-0.0443 1.9514 1.0645 3.9074 2.3782 5.351 1.2243 1.3454 3.8381 1.1052 4.7564 2.6755 0.80042 1.3686 0.95477 3.4907 0 4.7564-0.86885 1.1519-2.7652 1.551-4.1619 1.1891-0.94961-0.24607-1.2659-1.5351-2.081-2.081-1.0703-0.71681-2.2894-1.3239-3.5673-1.4864-0.69509-0.0884-1.5649-0.17672-2.0809 0.29727-0.97367 0.89432-1.0765 2.5555-0.89184 3.8646 0.28503 2.0204 2.2612 3.4387 2.9728 5.351 0.84724 2.2768 1.0667 4.7419 1.4864 7.1347 0.48425 2.7606 0.86395 5.5399 1.1891 8.3238 0.12698 1.0871-0.32765 2.3715 0.29727 3.27 1.4425 2.0741 4.5776 2.1406 6.8374 3.2701 2.2995 1.1493 4.7324 2.0917 6.8374 3.5673 1.3209 0.92597 2.6503 1.943 3.5673 3.27 1.2135 1.756 2.1831 3.82 2.3782 5.9456 0.13859 1.5095-0.0484 3.1997-0.89183 4.4592-0.79523 1.1874-2.1382 2.3782-3.5673 2.3782-2.501 0-4.2363-2.669-6.2428-4.1619-2.9927-2.2266-5.9373-4.544-8.6211-7.1346-1.717-1.6574-3.1192-3.6147-4.7564-5.351-0.76911-0.81568-1.3042-2.0569-2.3782-2.3782-2.8114-0.84108-5.8673 0.76968-8.621 1.7837-3.2876 1.2106-6.3265 3.072-9.2156 5.0537-3.4213 2.3468-6.6014 5.0707-9.5129 8.0265-2.9649 3.0101-5.7855 6.2283-8.0265 9.8102-0.75252 1.2028-1.5158 2.4713-1.7837 3.8646-0.3559 1.8515-0.71733 4.0592 0.29728 5.6483 1.0258 1.6065 3.6483 1.3879 5.0537 2.6755 1.4794 1.3554 2.6223 3.1547 3.27 5.0537 0.77043 2.2587 1.0876 4.7997 0.59456 7.1347-0.25652 1.2148-2.5083 2.2618-1.7837 3.27 1.6066 2.2353 1.6836 7.7574 3.5673 8.0265 4.1305 0.5901 11.14 1.9235 16.945 2.6755 1.804 0.23371 3.0407-2.071 4.7564-2.6755 3.9795-1.4022 8.3912-3.0996 12.486-2.081 4.1159 1.024 6.8611 4.9997 10.107 7.7292 2.6837 2.2565 5.2878 4.6181 7.7292 7.1347 3.4726 3.5796 7.0381 7.1507 9.8102 11.297 2.0937 3.1313 3.8888 6.5252 5.0537 10.107 0.93199 2.8661 2.1399 5.9762 1.4864 8.9183-0.41719 1.8782-1.7079 3.6332-3.27 4.7564-0.5857 0.42116-1.5177 0.14382-2.0809 0.59455-1.9389 1.5515-2.025 4.5939-3.5673 6.5401-1.5691 1.98-3.8889 3.2407-5.6483 5.0537-1.7142 1.7664-3.7579 3.3985-4.7564 5.6483-1.7851 4.0221-1.8643 8.6805-1.7837 13.08 0.0424 2.313 3.4577 6.3848 1.1891 6.8374-15.682 3.1286-30.869 3.6344-46.375 2.9728-1.8174-0.0775-1.4715-3.3928-2.6755-4.7564-1.8759-2.1244-4.5682-3.3557-6.8374-5.0537-3.2846-2.4579-6.5401-4.9546-9.8102-7.4319s-7.076-4.3734-9.8102-7.4319c-2.8428-3.1802-5.4097-6.8862-6.5401-10.999-1.2343-4.4908-0.81255-9.3861 0-13.972 0.75477-4.2598 2.0913-8.5677 4.4592-12.188 1.7262-2.6395 4.2863-4.6857 6.8374-6.5401 2.3669-1.7205 6.4682-1.5214 7.7292-4.1619 2.0071-4.2029 1.6338-9.4657 2.0809-13.972 0.45387-4.5744-0.5695-9.2412-1.7837-13.675-0.19933-0.72787-0.37411-1.5319-0.89184-2.0809-3.1922-3.3855-8.4818-3.8721-12.486-6.2428-2.6964-1.5965-5.3676-3.2914-7.7292-5.351-1.2157-1.0603-1.8176-2.8656-3.2701-3.5673-1.2523-0.60506-2.8135-0.63829-4.1619-0.29728-1.2526 0.31678-2.9041 0.84184-3.27 2.081-0.74094 2.509 2.255 4.7235 3.27 7.1347 1.071 2.5441 1.6066 5.3306 2.9728 7.7292 1.1872 2.0844 4.9056 3.2914 4.4592 5.6483-0.25623 1.3526-2.1968 1.9512-3.5673 2.0809-1.7785 0.16837-3.7008-0.61706-5.0537-1.7837-1.4435-1.2448-1.6406-3.4531-2.6755-5.0537-1.2269-1.8976-2.5665-3.7508-4.1619-5.351-2.0434-2.0495-4.4639-3.695-6.8374-5.351-2.0072-1.4004-4.2965-2.3808-6.2428-3.8646-1.5056-1.1477-3.3249-2.1665-4.1619-3.8646-1.408-2.8567-0.0487-6.4416-0.89184-9.5129-0.55151-2.009-1.2548-4.1245-2.6755-5.6483-1.2405-1.3305-2.9536-2.433-4.7564-2.6755-2.0246-0.27233-4.357 2.7708-5.9456 1.4864-6.7848-5.486 2.6362-17.611 0.89183-26.16-0.32792-1.6072-0.662-3.6363-2.0809-4.4592-1.0322-0.59859-2.3783 0.39731-3.5673 0.29728-3.9756-0.33446-9.0222-1.0029-11.594-2.9728z" fill="#a0cd65"/>
            <path d="m21.871 108.01c-1.8428 7.051-3.6699 14.159-4.4592 21.404-0.92298 8.4724-1.2093 17.092-0.29728 25.566 1.0881 10.11 3.3567 20.174 6.8374 29.728 3.3527 9.2024 8.0347 17.952 13.377 26.16 5.1498 7.912 11.146 15.339 17.837 21.999 5.945 5.9171 12.477 11.36 19.62 15.756 9.1778 5.6473 19.227 9.9124 29.43 13.377 5.3942 1.8318 16.648 3.8646 16.648 3.8646s-2.9595-3.5969-4.7564-5.0537c-2.0726-1.6803-4.834-2.3997-6.8374-4.1619-0.95285-0.83812-1.4323-2.1268-2.3782-2.9728-1.6598-1.4845-3.8834-2.2093-5.6483-3.5673-1.5004-1.1545-2.7987-2.5509-4.1619-3.8646-1.8164-1.7504-3.7259-3.4218-5.351-5.351-1.3284-1.577-2.7211-3.1734-3.5673-5.0537-1.4204-3.1563-2.0406-6.6628-2.3782-10.107-0.27081-2.7631 0.0262-5.5607 0.29728-8.3238 0.30385-3.0967 0.28761-6.3442 1.4864-9.2156 1.2294-2.9447 3.5022-5.3676 5.6483-7.7292 2.4074-2.6492 5.0118-5.2044 8.0265-7.1347 1.4574-0.93318 3.6773-0.72804 4.7564-2.0809 1.321-1.6561 0.93467-4.1398 1.1891-6.2428 0.22645-1.8717 0.51475-3.7755 0.29728-5.6483-0.28575-2.4608-1.282-4.7897-2.0809-7.1347-0.78934-2.3166-0.73345-5.348-2.6755-6.8374-0.71204-0.54607-1.8568 0.07-2.6755-0.29728-3.649-1.6372-5.8291-5.4864-8.9183-8.0265-1.5308-1.2587-2.9814-2.6859-4.7564-3.5673-1.2922-0.6417-3.1855-2.2514-4.1619-1.1891-2.0798 2.2629 2.007 5.8191 3.2701 8.621 0.87437 1.9396 1.4755 4.1367 2.9728 5.6483 1.0296 1.0394 3.423 0.68609 3.8646 2.0809 0.60189 1.9012-1.3895 3.8268-2.6755 5.351-1.1886 1.4088-2.6327 3.0218-4.4592 3.2701-3.0455 0.41397-6.2965-1.2594-8.621-3.2701-3.0865-2.6697-3.4881-7.444-5.9456-10.702-1.4346-1.9019-3.0272-3.8012-5.0537-5.0537-2.1325-1.3179-4.8461-1.355-7.1347-2.3782-1.4587-0.65218-3.0504-1.2303-4.1619-2.3782-1.3259-1.3694-2.021-3.2635-2.6755-5.0537-1.6016-4.3811 0.65916-10.748-2.9728-13.675-1.9288-1.5546-4.9546 0-7.4319 0-1.4864 0-3.3845 1.0269-4.4592 0-1.5778-1.5077-0.32692-4.358-0.29727-6.5401 0.0743-5.464 0.42632-10.939 1.1891-16.35 0.26858-1.9052 2.2998-4.0772 1.1891-5.6483-0.86563-1.2245-2.9707-0.41265-4.4592-0.59455-1.7814-0.2177-3.6718 0.0388-5.351-0.59456-1.1317-0.42689-1.8722-1.5791-2.9728-2.0809-0.74348-0.33904-1.6651-0.99344-2.3782-0.59455-1.7232 0.96381-1.2844 3.738-1.7837 5.6483z" fill="#97d5ed"/>
            <path d="m184.53 257.08c32.944-12.228 60.94-37.197 73.152-68.107-2.3533-6.5067-4.5437-11.68-7.5674-18.498-1.0445-2.3552-5.0856-1.3974-7.147-2.9429-2.8718-2.1531-5.0114-5.2554-6.7266-8.4083-1.6942-3.1142-2.7954-6.5905-3.3633-10.09-0.33671-2.0749-0.73469-4.3367 0-6.3062 0.97221-2.6062 4.2526-3.8029 5.4654-6.3062 1.3062-2.6961 1.5148-5.8375 1.6816-8.8287 0.20353-3.6487-2.0075-7.4676-0.84083-10.931 1.0774-3.1984 3.8475-5.8065 6.7266-7.5674 3.3346-2.0395 7.4566-2.61 11.351-2.9429 1.6814-0.14371 5.5041 2.0442 5.045 0.42042-2.0928-7.4016-4.7511-13.435-7.9879-19.759-2.0371-3.9802-4.3853-6.6485-7.147-11.351-2.1664-0.24309-2.515 4.0747-4.6246 4.6246-6.4822 1.6897-14.948-0.40646-19.339-5.4654-3.4297-3.9514-3.1735-10.434-2.1021-15.555 0.77268-3.6934 5.8858-9.6695 5.8858-9.6695-5.537-6.1044-10.196-9.8451-17.657-13.874-2.1816-1.1779-3.3877 3.6214-5.045 5.4654-0.99578 1.108-1.5084 2.9616-2.9429 3.3633-2.6888 0.75296-5.6011-1.0734-7.9879-2.5225-1.8635-1.1314-3.4874-2.7646-4.6246-4.6246-2.3809-3.8946-4.2041-13.033-4.2041-13.033-6.2518-3.4415-16.133-5.961-21.441-5.8858-2.1389 0.0303-1.8423 3.9613-3.3633 5.4654-1.7431 1.7236-5.3475 1.5275-6.3062 3.7837-0.73116 1.7208 1.2338 3.5959 1.2613 5.4654 0.042 2.858-1.8324 5.554-1.6817 8.4083 0.12385 2.3459-0.0734 5.8401 2.1021 6.7266 1.9161 0.78088 3.4052-2.7509 5.4654-2.9429 3.2214-0.30027 6.412 1.3878 9.2491 2.9429 1.9196 1.0522 4.2033 2.1834 5.045 4.2041 1.244 2.9866 0.0992 6.5738-0.84083 9.6695-0.92935 3.0607-2.073 6.4792-4.6246 8.4083-2.9828 2.2552-8.7515-0.51618-10.931 2.5225-0.82079 1.1445-0.2804 2.9825 0.42041 4.2041 0.94848 1.6534 3.6106 1.7493 4.6246 3.3633 0.83349 1.3267 1.0089 3.0668 0.84082 4.6246-0.19541 1.8113-0.71033 3.8694-2.1021 5.045-1.4283 1.2065-3.6203 1.5636-5.4654 1.2612-2.111-0.34593-4.0238-4.9437-5.4654-3.3633-1.4166 1.553 2.8935 3.1407 3.7837 5.045 1.0365 2.2171 1.2896 4.7312 1.6817 7.147 0.49588 3.0558 1.4148 6.207 0.84082 9.2491-0.1743 0.92378-2.1471 2.2078-1.2612 2.5225 5.9012 2.0961 12.407 2.0198 16.396 6.3062 2.2954 2.4662 2.655 6.3127 2.9429 9.6695 0.19306 2.2514 0.0382 4.6449-0.84083 6.7266-0.69812 1.6533-1.6104 3.8192-3.3633 4.2041-3.3667 0.73945-6.3456-2.7668-9.2491-4.6246-3.0234-1.9345-5.6956-4.3763-8.4083-6.7266-2.3229-2.0126-3.8412-5.2477-6.7266-6.3062-2.6346-0.96647-5.7363-0.43739-8.4083 0.42041-4.4414 1.4259-8.1775 4.5939-11.772 7.5674-2.9786 2.4643-5.7678 5.2434-7.9879 8.4083-1.9794 2.8219-4.8633 5.8104-4.6246 9.2491 0.18847 2.7144 2.9266 4.6004 4.6246 6.7266 1.5471 1.9374 4.3836 3.0759 5.045 5.4654 0.9164 3.311-2.9665 6.7649-2.1021 10.09 0.6999 2.6922 3.0028 5.0126 5.4654 6.3062 2.2469 1.1803 5.0366 1.0309 7.5674 0.84083 2.1694-0.16295 4.1917-1.1702 6.3062-1.6817 3.206-0.7755 6.4887-1.2289 9.6695-2.1021 1.282-0.35193 2.469-1.4589 3.7837-1.2612 5.9605 0.89628 10.289 6.4186 14.714 10.51 3.3597 3.106 5.9121 6.985 8.8287 10.51 3.1112 3.7606 6.8975 7.0743 9.2491 11.351 2.1352 3.8832 3.3732 8.2595 4.2041 12.612 0.47372 2.4816 1.4764 5.2724 0.42042 7.5674-1.2536 2.7245-5.1334 3.2428-7.147 5.4654-2.3239 2.565-3.3759 6.0694-5.4654 8.8287-1.3772 1.8187-3.3742 3.1369-4.6246 5.045-1.513 2.3088-2.9592 4.8368-3.3633 7.5674-0.49624 3.353 1.2612 10.09 1.2612 10.09s7.9076-2.3495 11.772-3.7837z" fill="#97d5ed"/>
        </g>
        <g>
            <path d="m263.05 116.44c9.0978 22.556-3.6597 67.482-5.0537 67.482 0 0-1.4477-6.7525-2.9728-9.8102-1.4242-2.8556-3.4417-5.4241-5.6483-7.7292-1.755-1.8334-3.8417-3.3369-5.9456-4.7564-1.5079-1.0175-3.6041-1.2679-4.7564-2.6755-2.4416-2.9825-3.583-7.1449-3.5673-10.999 8e-3 -1.8801 0.99804-3.6429 1.7837-5.351 0.96576-2.0998 2.4967-3.8973 3.5673-5.9455 1.0067-1.926 2.2194-3.8207 2.6755-5.9456 0.66544-3.1004 0.24179-6.3512 0-9.5129-0.0994-1.2996-0.91123-2.6003-0.59455-3.8646 0.48153-1.9225 2.0578-3.4723 3.5673-4.7564 1.7893-1.5222 3.9505-2.7564 6.2428-3.27 2.3227-0.52046 4.8193-0.25495 7.1347 0.29728 1.1647 0.27778 2.5942 0.49806 3.2701 1.4864 1.0084 1.4746-0.37096 3.6943 0.29727 5.351z" fill="#a0cd65"/>
            <path d="m225.19 72.46c5.9934 2.8039 8.2469 3.927 15.555 5.045 1.5646-2.5727 1.9359-3.4446 4.2041-5.4654-3.9797-6.2845-10.333-13.371-16.396-20.18-2.7351 4.4734-4.8841 13.609-3.3633 20.6z" fill="#a0cd65"/>
            <path d="m188.35 25.65c6.7559 1.9358 12.079 5.1201 16.685 8.1034-1.1729 2.4773-2.495 5.253-4.9453 6.3378-1.3138 0.58169-2.9603 0.20194-4.2985-0.32126-1.5614-0.61048-2.9036-1.8084-3.9398-3.1264-1.2611-1.6041-1.9599-3.6092-2.5657-5.5577-0.54587-1.7556-2.405-4.3312-0.93523-5.4358z" fill="#a0cd65"/>
        </g>
        <path d="m243.13 182.25c0.38567 2.5525 2.0864 7.4324-3.3444 6.4658-4.7613-1.5607-6.0013-1.7605-7.7292-6.4658-1.0669-6.194 1.3722-7.2285 5.8712-6.7631 2.5049 1.3237 4.5032 4.1532 5.2024 6.7631z" fill="#1263a7"/>
        <path d="m241.35 183.74c0.12154 1.0652-0.63288 2.197-2.4525 2.0809-1.2594-0.0803-3.4817-4.3549-3.3444-5.7969 0.15558-1.634 1.7225-1.3909 2.2296-1.0405 1.7904 1.2372 3.3426 2.787 3.5673 4.7564z" fill="#a0cd65"/>
        <g>
            <path d="m223.73 123.17c4.083-5.9721 6.5264-13.108 11.351-18.498 0.53281-0.59529 1.1261-1.2438 1.8919-1.4714 0.80876-0.24042 1.7018 0.40606 2.5225 0.21021 1.0403-0.24826 2.1008-0.81872 2.7327-1.6816 0.85343-1.1654 1.0875-2.7601 1.051-4.2041-0.0425-1.684-0.56008-3.418-1.4714-4.8348-0.85942-1.336-2.1076-2.541-3.5735-3.1531-2.8516-1.1906-6.1607-0.52546-9.2491-0.63063-1.3305-0.0453-2.71 0.35186-3.9939 0-2.1209-0.58122-3.9386-2.0147-5.6756-3.3633-2.3482-1.8231-4.7545-3.7705-6.3062-6.3062-1.307-2.1358-1.9221-4.6737-2.3123-7.147-0.38212-2.4225-0.584-4.9754 0-7.3572 0.43287-1.7655 1.4724-3.351 2.5225-4.8348 0.83056-1.1735 2.4157-1.8156 2.9429-3.1531 0.38542-0.97782 0.26148-2.1351 0-3.1531-0.39789-1.5491-1.4241-2.8741-2.3123-4.2041-0.7475-1.1193-1.4095-2.3961-2.5225-3.1531-0.78804-0.53598-1.7909-0.98657-2.7327-0.84083-1.0949 0.16942-1.8821 1.182-2.7327 1.8919-1.2172 1.0159-1.9782 2.5918-3.3633 3.3633-1.069 0.59551-2.3523 0.91889-3.5735 0.84082-2.3898-0.15277-4.3432-2.291-6.7266-2.5225-1.2726-0.12359-2.71-0.0636-3.7837 0.63062-0.84861 0.5487-1.3338 1.5737-1.6816 2.5225-0.63131 1.7218-0.81998 3.6413-0.63063 5.4654 0.0915 0.88157 0.76432 1.6395 0.84083 2.5225 0.12233 1.4118-0.21948 2.848-0.63062 4.2041-0.76391 2.5197-2.1506 4.81-3.3633 7.147-2.4138 4.6517-5.6425 8.8774-7.7776 13.663-0.90274 2.0235-1.8686 4.1028-2.1021 6.3062-0.13369 1.2619-0.0139 2.5914 0.42041 3.7837 0.17294 0.47476 0.85485 0.75616 0.84083 1.2612-0.0292 1.0506-1.3769 1.6062-1.8919 2.5225-0.55459 0.98684-1.4562 2.038-1.2612 3.1531 0.1453 0.83114 1.012 1.3786 1.6817 1.8919 1.1192 0.85775 2.4974 1.3142 3.7837 1.8919 1.0327 0.46373 2.2024 0.64671 3.1531 1.2612 2.2889 1.4796 4.5379 3.3068 5.8858 5.6756 1.2104 2.1271 1.213 4.7449 1.6817 7.147 0.61113 3.132 0.82112 6.3353 1.4714 9.4593 0.61998 2.9783 1.1979 5.998 2.3123 8.8287 0.37897 0.96264 0.6281 2.1335 1.4714 2.7327 1.4461 1.0275 3.4909 0.655 5.2552 0.84083 2.7212 0.28664 5.4627 0.35032 8.1981 0.42041 0.77051 0.0197 1.5545-0.14071 2.3123 0 1.9191 0.35633 3.534 1.8196 5.4654 2.1021 0.90397 0.13219 1.8594 0.058 2.7327-0.21021 1.08-0.33168 2.3196-0.73931 2.9429-1.6816 0.66168-1.0004 0.40221-2.3743 0.42042-3.5735 0.0491-3.235-1.7384-6.5612-0.84083-9.6695 0.70762-2.4504 3.185-3.9905 4.6246-6.096z" fill="#64c7f0"/>
            <path d="m154.821 139.75c1.8148 2.1954 3.4686 4.5431 5.4996 6.5401 0.72832 0.71613 1.5 1.4108 2.3782 1.9323 1.7959 1.0663 3.889 1.5284 5.7969 2.3782 1.3563 0.60409 2.9089 0.93996 4.0132 1.9323 1.2579 1.1303 2.278 2.6668 2.6755 4.3105 0.43235 1.7877 0.0705 3.7344-0.44591 5.4996-0.50411 1.7231-1.1828 3.5661-2.5269 4.7564-1.0332 0.91507-2.489 1.3739-3.8646 1.4864-1.4624 0.11956-2.903-0.47739-4.3105-0.89183-2.2419-0.66013-4.3854-1.6218-6.5401-2.5269-1.6559-0.69553-3.1394-1.9011-4.9051-2.2296-1.659-0.30864-3.381 0.0743-5.0537 0.29727-2.1576 0.28765-4.3131 0.69097-6.3915 1.3378-1.5903 0.4949-2.975 1.6038-4.6078 1.9323-1.2629 0.25408-2.696 0.54201-3.8646 0-0.76543-0.355-1.2821-1.1659-1.635-1.9323-0.77674-1.6869-0.79319-3.6451-0.89183-5.4996-0.14494-2.7252 0.16685-5.4603 0.44591-8.1751 0.16909-1.645 0.4834-3.2719 0.7432-4.9051 0.14204-0.89291 0.37134-1.7744 0.44591-2.6755 0.11034-1.3332-0.15138-2.6841 0-4.0132 0.1496-1.3136 0.0677-2.8309 0.89184-3.8646 1.1327-1.4208 3.1285-1.9969 4.9051-2.3782 1.6962-0.36409 3.4941-0.15368 5.2024 0.14864 0.92569 0.16382 1.7476 0.74125 2.6755 0.89183 1.1248 0.18254 2.3451-0.38202 3.4187 0 1.6258 0.57848 2.7939 2.049 4.0132 3.2701 0.72175 0.72276 1.2815 1.5909 1.9323 2.3782z" fill="#64c7f0"/>
            <path d="m209.82 235.68c2.2312-2.026 4.2497-4.2841 6.5401-6.2428 1.6117-1.3783 3.3991-2.5382 5.0537-3.8646 1.2622-1.0118 2.6076-1.9431 3.716-3.1214 1.1407-1.2126 2.2134-2.5317 2.9728-4.0132 0.59319-1.1574 1.1537-2.4159 1.1891-3.716 0.0321-1.1773-0.59011-2.2803-0.89184-3.4187-0.68358-2.5791-1.2479-5.1944-2.0809-7.7292-0.68083-2.0716-1.1163-4.3158-2.3782-6.0942-0.52868-0.74508-1.2708-1.3613-2.0809-1.7837-1.4066-0.73333-3.1222-0.63314-4.6078-1.1891-0.93385-0.34948-1.8025-0.85599-2.6755-1.3377-1.6739-0.92373-3.0291-2.604-4.9051-2.9728-1.8703-0.36771-3.9152 0.0982-5.6483 0.89183-1.5343 0.70259-2.8151 1.9486-3.8646 3.2701-1.3506 1.7005-2.3296 3.7228-2.9728 5.7969-0.57697 1.8607-0.76546 3.8489-0.74319 5.7969 0.0189 1.6536 0.30235 3.3112 0.74319 4.9051 0.55678 2.013 1.9458 3.7536 2.3782 5.7969 0.36942 1.7457 0.4323 3.5893 0.14864 5.351-0.39366 2.4448-1.4812 4.7413-2.5269 6.986-0.91862 1.9721-2.2182 3.7439-3.27 5.6483-1.0287 1.8624-2.6255 3.5492-2.9728 5.6483-0.15554 0.94026-0.0457 2.0077 0.44592 2.8241 0.51113 0.84893 1.421 1.5275 2.3782 1.7837 1.591 0.4257 3.3561-0.0348 4.9051-0.59455 1.719-0.62126 3.1446-1.8773 4.6078-2.9728 2.3058-1.7264 4.4076-3.7118 6.5401-5.6483z" fill="#64c7f0"/>
            <path d="m46.03 154.67c1.2404 2.0887 2.4993 4.1809 3.9939 6.096 1.5254 1.9545 3.1149 3.9092 5.045 5.4654 2.1517 1.7348 4.8385 2.6843 7.147 4.2041 1.0886 0.71671 2.3495 1.2861 3.1531 2.3123 0.79421 1.0142 0.90032 2.4188 1.4714 3.5735 0.86315 1.7451 1.5964 3.6389 2.9429 5.045 0.80658 0.84226 1.8165 1.5899 2.9429 1.8919 2.8458 0.76276 5.8862-0.56958 8.8287-0.42041 1.4152 0.0718 3.17-0.33821 4.2041 0.63062 1.2036 1.1276 1.1171 3.1869 1.051 4.8348-0.0968 2.4142-0.98742 4.7932-2.1021 6.9368-1.5196 2.9225-4.6337 4.826-6.096 7.7776-0.73937 1.4924-0.93892 3.2007-1.2612 4.8348-0.50628 2.5667-0.87546 5.1674-1.051 7.7777-0.15988 2.377 0.57427 4.8349 0 7.147-0.32489 1.3081-0.8534 2.7144-1.8919 3.5735-0.7343 0.60753-1.7877 0.96442-2.7327 0.84083-1.3109-0.17145-2.3445-1.2595-3.3633-2.1021-3.0185-2.4962-5.4551-5.6305-7.9879-8.6185-1.7762-2.0955-3.2534-4.434-5.045-6.5164-1.3899-1.6155-2.9041-3.1211-4.4144-4.6246-2.5292-2.5178-5.8041-4.3839-7.7776-7.3572-1.9864-2.9928-2.8611-6.6184-3.7837-10.09-0.67461-2.5383-1.0823-5.1573-1.2612-7.7776-0.1958-2.867 0.045-5.7496 0.21021-8.6185 0.0445-0.77266 0.5014-1.5952 0.2102-2.3123-0.7292-1.7956-2.882-2.5972-4.4143-3.7837-2.9048-2.2492-6.564-3.5912-9.0389-6.3062-2.3888-2.6206-4.0516-5.9137-5.2552-9.2491-1.0871-3.0124-1.1037-6.3094-1.6817-9.4593-0.47616-2.5952-1.2704-5.1468-1.4714-7.7776-0.15489-2.0273-0.35774-4.1437 0.2102-6.096 0.38603-1.327 1.0278-2.7041 2.1021-3.5735 1.2056-0.97578 2.9048-1.8278 4.4144-1.4714 1.1573 0.2732 2.0508 1.4309 2.5225 2.5225 0.91755 2.1236 0.06 4.6284 0.21021 6.9368 0.13718 2.1081-0.15367 4.3446 0.63062 6.3062 0.59319 1.4836 1.5443 3.0111 2.9429 3.7837 1.2328 0.68102 2.8404 0.0689 4.2041 0.42042 2.5837 0.666 5.4937 1.2436 7.3572 3.1531 1.0542 1.0802 1.044 2.8361 1.6817 4.2041 0.94028 2.0174 2.0166 3.9721 3.1531 5.8858z" fill="#64c7f0"/>
        </g>
        <g>
            <path d="m165.224 196.88c2.1883 2.7094 4.4491 5.3594 6.6888 8.0265 1.0852 1.2923 2.4259 2.4035 3.27 3.8646 0.65859 1.1399 1.1114 2.4191 1.3378 3.716 0.1874 1.0738 0.0967 2.1843 0 3.27-0.1741 1.9554-0.44949 3.9248-1.0405 5.7969-0.67399 2.1351-1.5876 4.2277-2.8241 6.0942-1.1817 1.7838-2.8894 3.1569-4.3105 4.7564-1.3528 1.5227-2.8158 2.9602-4.0132 4.6078-0.84925 1.1685-1.7278 2.3614-2.2296 3.716-0.71585 1.9325-0.83871 4.0433-1.0405 6.0942-0.17954 1.8251 0.0518 3.6768-0.14864 5.4996-0.19863 1.8062-0.26834 3.7061-1.0405 5.351-0.59846 1.2749-1.5367 2.4414-2.6755 3.27-0.98949 0.71998-2.2125 1.1316-3.4187 1.3378-1.4172 0.24218-2.8821 0.0143-4.3105-0.14864-2.0564-0.23458-4.0771-0.7253-6.0942-1.1891-2.4479-0.56288-4.9968-0.8926-7.2833-1.9323-2.014-0.91581-3.801-2.2984-5.4996-3.716-2.3942-1.9979-4.3476-4.4714-6.5401-6.6887-2.4141-2.4414-4.68-5.0448-7.2833-7.2833-1.7732-1.5248-3.6097-3.0158-5.6483-4.1619-1.8206-1.0236-3.8512-1.619-5.7969-2.3782-1.329-0.51854-2.8257-0.69593-4.0132-1.4864-0.84627-0.5633-1.4561-1.4277-2.0809-2.2296-1.1235-1.4418-2.1224-2.9898-2.9728-4.6078-0.59929-1.1403-1.2865-2.2947-1.4864-3.5673-0.18518-1.1788-0.20478-2.4849 0.29727-3.5673 0.50118-1.0806 1.5557-1.8371 2.5269-2.5269 1.3008-0.9239 2.8785-1.3773 4.3105-2.0809 1.2926-0.63514 2.6733-1.1229 3.8646-1.9323 1.0448-0.70988 2.1163-1.4806 2.8241-2.5268 0.64995-0.96064 0.91167-2.1439 1.1891-3.2701 0.4425-1.7962 0.42661-3.677 0.74319-5.4996 0.40744-2.3457 0.85286-4.6911 1.4864-6.986 0.5712-2.0692 0.91454-4.2922 2.0809-6.0942 0.5524-0.85342 1.3608-1.5531 2.2296-2.0809 1.3928-0.84623 3.0179-1.2768 4.6078-1.635 1.8949-0.42692 3.8545-0.57953 5.7969-0.59455 1.1438-9e-3 2.3362-0.0723 3.4187 0.29728 1.5608 0.53292 2.6959 1.9199 4.1619 2.6755 1.1858 0.61122 2.4118 1.2057 3.716 1.4864 1.1151 0.23999 2.2826 0.25038 3.4187 0.14864 1.5683-0.14045 3.0474-0.82967 4.6078-1.0405 2.1136-0.28553 4.2707-0.52324 6.3915-0.29728 1.7328 0.18462 3.5303 0.49172 5.0537 1.3378 2.0224 1.1231 3.4941 3.0479 5.0537 4.7564 0.97559 1.0687 1.7663 2.293 2.6755 3.4187z" fill="#76bc31"/>
            <path d="m62.787 53.2c4.6856-3.5022 9.5643-6.7465 14.504-9.8797 3.8461-2.4394 7.7104-4.8752 11.772-6.9368 3.9461-2.0032 7.8829-4.2472 12.192-5.2552 3.8943-0.91092 7.9871-0.8261 11.982-0.63063 2.3359 0.1143 4.6001 0.95575 6.9368 1.051 4.0703 0.16599 8.1916-1.6099 12.192-0.84083 2.062 0.39642 4.2102 1.2289 5.6756 2.7327 2.145 2.2012 2.9533 5.4491 3.7837 8.4083 0.76321 2.7195 0.92252 5.5866 1.051 8.4083 0.0957 2.1011-1.2158 4.459-0.21021 6.3062 0.3907 0.71768 1.397 0.8483 2.1021 1.2612 0.97495 0.57095 1.8406 1.4338 2.9429 1.6817 0.89133 0.20043 1.8191-0.2142 2.7327-0.21021 2.4614 0.0107 5.2387-0.62251 7.3572 0.63062 0.86978 0.51448 1.7144 1.5125 1.6816 2.5225-0.0486 1.4988-1.487 2.7386-2.7327 3.5735-1.5672 1.0504-3.817 0.5536-5.4654 1.4714-1.3426 0.74761-2.976 1.666-3.3633 3.1531-0.40773 1.5654 1.578 3.0104 1.4714 4.6246-0.0867 1.3136-0.712 2.6831-1.6817 3.5735-1.486 1.3646-4.0586 0.89564-5.6756 2.1021-0.8424 0.62852-1.5595 1.5254-1.8919 2.5225-0.46531 1.3959-0.28732 2.9712 0 4.4143 0.60727 3.0501 2.4566 5.716 3.5735 8.6185 1.2018 3.1232 3.0094 6.1316 3.3633 9.4593 0.17188 1.6161 0.38812 3.5684-0.63062 4.8348-1.167 1.4506-3.4332 1.5088-5.2552 1.8919-1.9933 0.41903-4.1145-0.0513-6.096 0.42041-1.4052 0.3345-2.7386 0.96702-3.9939 1.6816-6.9664 3.9657-13.308 9.0135-19.339 14.294-2.2742 1.9912-4.9451 3.8175-6.3062 6.5164-0.95957 1.9028-0.67647 4.2083-1.051 6.3062-0.52656 2.9492-0.15003 6.254-1.6816 8.8287-0.50914 0.85588-1.3744 1.5571-2.3123 1.8919-0.98986 0.35334-2.213 0.47004-3.1531 0-0.94008-0.47004-1.23-1.706-1.8919-2.5225-1.4071-1.7359-2.5537-3.8076-4.4143-5.045-2.5831-1.7178-5.7463-2.5942-8.8287-2.9429-2.1685-0.24529-4.3496 0.37114-6.5164 0.63062-1.4758 0.17674-2.9354 0.48175-4.4143 0.63062-1.1872 0.11951-2.3989 0.42011-3.5735 0.21021-1.2046-0.21526-2.5381-0.56784-3.3633-1.4714-2.0919-2.2906-1.7425-5.9683-2.9429-8.8287-1.3096-3.1208-2.433-6.4598-4.6246-9.0389-1.0708-1.2602-2.4229-2.4266-3.9939-2.9429-0.73223-0.24063-1.7814 0.55879-2.3123 0-1.8846-1.9838 0.35032-5.4627 0.42041-8.1981 0.0485-1.8912 0.34163-3.8148 0-5.6756-0.67678-3.6863-3.1762-6.8528-3.9939-10.51-0.39867-1.7832 0.41141-3.8385-0.42042-5.4654-0.54322-1.0624-1.6123-1.9019-2.7327-2.3123-1.3159-0.48201-2.9921 0.70339-4.2041 0-0.9772-0.56709-1.4239-1.8429-1.6817-2.9429-0.27226-1.1618-0.31233-2.5008 0.21021-3.5735 0.69567-1.4282 2.4502-2.0298 3.5735-3.1531s2.1681-2.3272 3.1531-3.5735c0.90407-1.1439 1.8431-2.2834 2.5225-3.5735 0.93999-1.7851 1.2369-3.8531 2.1021-5.6756 0.59265-1.2484 1.2431-2.4909 2.1021-3.5735 1.263-1.5918 2.8912-2.8591 4.4144-4.2041 2.2394-1.9775 4.5438-3.887 6.9368-5.6756z" fill="#76bc31"/>
            <path d="m241.24 144.21c0.82972-1.0435 1.883-1.9008 2.6755-2.9728 1.0305-1.3938 1.9822-2.8704 2.6755-4.4592 0.6397-1.4658 1.131-3.0219 1.3378-4.6078 0.27552-2.1132-0.0613-4.2622-0.14864-6.3915-0.0692-1.6861-0.4777-3.3759-0.29727-5.0537 0.13753-1.2789 0.35876-2.6252 1.0405-3.716 0.63239-1.0119 1.5869-1.8896 2.6755-2.3782 1.5475-0.69455 3.3578-0.56575 5.0537-0.59456 1.1931-0.0203 2.6079-0.41217 3.5673 0.29728 0.6436 0.47591 0.80838 1.4335 0.89183 2.2296 1.9598 18.697 1.4537 37.464-1.3377 54.848-0.14141 0.88056-1.4334 0.40217-2.081 0.14864-1.0118-0.39615-1.7458-1.4052-2.2296-2.3782-0.7834-1.5754-0.0444-3.6605-0.89183-5.2024-0.67585-1.2296-1.963-2.0324-3.1214-2.8241-2.2867-1.5629-5.1096-2.2067-7.4319-3.716-0.91491-0.59458-1.7661-1.2987-2.5269-2.0809-0.78769-0.80997-1.6458-1.6328-2.0809-2.6755-0.44262-1.0606-0.61769-2.2824-0.44592-3.4187 0.19551-1.2934 0.9848-2.4323 1.635-3.5673 0.30064-0.52477 0.66407-1.013 1.0405-1.4864z" fill="#76bc31"/>
            <path d="m229.19 71 c1.8672 1.3594 4.1919 1.971 6.3915 2.6755 1.0646 0.34096 2.1639 0.90411 3.27 0.7432 0.90007-0.13093 1.8484-0.59848 2.3782-1.3378 0.46987-0.65556 0.37128-1.5751 0.44592-2.3782 0.0458-0.49334 0-1.4864 0-1.4864s-7.2626-8.5687-10.999-12.634c-1.3379 0.20345-1.1415 2.4559-1.635 3.716-0.55426 1.4152-1.2352 2.8116-1.4864 4.3105-0.18833 1.1239-0.20804 2.2983 0 3.4187 0.12598 0.6785 0.38963 1.3396 0.74319 1.9323 0.23403 0.39229 0.52254 0.77162 0.89183 1.0405z" fill="#76bc31"/>
            <path d="m191.82 27.68c3.4586 1.3228 6.984 2.4328 9.0389 4.5194 0.17039 1.879-3.2996 4.5225-5.7807 4.7296-1.1259 0.094-2.3556-0.71647-2.9429-1.6816-1.3124-2.1568-1.8042-5.5651-0.31531-7.5674z" fill="#76bc31"/>
        </g>
        <path d="m253.68 136.04c0.44163 1.5562 1.1757 3.0341 1.4714 4.6246 0.42987 2.3119-0.12085 4.7536 0.42041 7.0419 0.0614 0.25965 0.0719 0.62642 0.31531 0.73572 0.20213 0.0908 0.44674-0.0866 0.63062-0.2102 0.26804-0.18023 0.43403-0.47944 0.63062-0.73573 0.4909-0.63996 1.016-1.2704 1.3664-1.997 0.62088-1.2877 1.0744-2.6817 1.2612-4.099 0.25201-1.9116-0.21646-3.8525-0.21021-5.7807 8e-3 -2.4546 0.28779-4.9027 0.31531-7.3572 0.0192-1.7169 0.4019-3.5096-0.1051-5.1501-0.32135-1.0398-0.96777-2.016-1.7868-2.7327-0.67216-0.58823-1.5333-1.2838-2.4174-1.1561-0.93301 0.13468-1.6011 1.0933-2.1021 1.8919-0.60098 0.95801-0.72328 2.1494-0.94593 3.2582-0.24299 1.21-0.38264 2.445-0.42041 3.6786-0.0408 1.3325-0.0573 2.6879 0.2102 3.9939 0.22461 1.0967 0.82723 2.083 1.1561 3.1531 0.0849 0.27615 0.13134 0.5629 0.21021 0.84083z" fill="#63b62f"/>
        <path d="m170.561 125.95c2.7999 4.7056-0.78261 7.2923-4.4688 5.2812-3.1725-1.7308-6.178-4.5723-7.8125-7.3125-3.3561-5.6263-0.2975-6.12 4.625-3.9688 3.2486 1.4197 6.2011 3.5544 7.6562 6z" fill="#76bc31"/>
        <g>
            <path d="m115 68.27c1.8848 2.4288 2.7346 5.6717 5 7.75 1.1812 1.0836 2.6503 2.1474 4.25 2.25 1.4211 0.0912 2.865-0.64002 4-1.5 1.2355-0.93613 2.1525-2.3197 2.75-3.75 0.81325-1.9468 0.87326-4.144 1-6.25 0.13025-2.1644-0.611-4.362-0.25-6.5 0.34267-2.0294 1.65-3.7812 2.25-5.75 0.67195-2.2048 1.6187-4.4482 1.5-6.75-0.14934-2.8949-0.90466-6.0145-2.75-8.25-0.97387-1.1798-2.5041-1.9298-4-2.25-1.8001-0.38531-3.6732 0.27299-5.5 0.5-3.1814 0.39534-6.4718 0.44753-9.5 1.5-1.445 0.50222-2.4759 2.1178-4 2.25-1.4967 0.12986-2.7936-1.1313-4.25-1.5-1.5539-0.39339-3.1741-1.0434-4.75-0.75-1.7986 0.33491-3.363 1.5568-4.75 2.75-2.0226 1.7399-4.1695 3.7146-5 6.25-0.62312 1.9023 0.25378 3.9983 0.25 6-3e-3 1.8352-0.20832 3.6652-0.25 5.5-0.0189 0.83312-0.57058 1.8926 0 2.5 0.91471 0.97367 2.671 0.38592 4 0.25 1.8904-0.19334 3.6667-1 5.5-1.5s3.6308-1.8426 5.5-1.5c1.1149 0.20434 1.9026 1.2472 2.75 2 2.2925 2.0365 4.37 4.3275 6.25 6.75z" fill="#63b62f"/>
            <path d="m135.422 90.2c0.12441 2.4724-0.8768 5.0501-0.17677 7.4246 0.50375 1.7088 2.3258 2.7726 3.0052 4.4194 0.73162 1.7735 1.6277 3.8241 1.0607 5.6569-0.22166 0.7165-0.8412 1.5732-1.591 1.591-0.87574 0.0208-1.3732-1.1037-1.9445-1.7678-0.27714-0.32211-0.34024-0.84628-0.70711-1.0607-2.0408-1.1925-5.1648 0.86711-7.0711-0.53033-1.5355-1.1257-1.6826-3.4506-2.1213-5.3033-0.804-3.3952-2.0529-7.1424-0.88388-10.43 0.79586-2.2381 2.8179-4.0788 4.9498-5.1265 1.4366-0.70607 3.5162-1.5218 4.773-0.53033 1.492 1.1769 0.6116 3.759 0.7071 5.6568z" fill="#63b62f"/>
            <path d="m59.375 89.52c1.2045-0.75961 2.5872-1.3217 4-1.5 1.5384-0.19416 3.1579-2e-3 4.625 0.5 1.2035 0.4118 2.1496 1.3619 3.25 2 0.90328 0.5238 1.8202 1.025 2.75 1.5 1.809 0.92422 4.0642 1.1879 5.5 2.625 0.68498 0.68559 0.9374 1.7077 1.25 2.625 0.70119 2.0577 0.82718 4.2713 1.375 6.375 0.53807 2.0663 0.65223 4.3746 1.875 6.125 0.98787 1.4141 2.8918 1.9188 4.125 3.125 1.1026 1.0784 2.3878 2.1617 2.875 3.625 0.47399 1.4238-0.15582 2.9997-0.125 4.5 0.0249 1.211-0.11874 2.4713 0.25 3.625 0.46122 1.4431 1.9637 2.4169 2.375 3.875 0.65607 2.3259 0.61608 4.9132 0 7.25-0.36627 1.3893-0.73788 3.3757-2.125 3.75-1.1177 0.30163-2.0426-1.0992-3-1.75-1.8406-1.2512-3.378-2.9213-5.25-4.125-2.3669-1.5219-4.9248-2.7406-7.5-3.875-2.3163-1.0204-4.993-1.2609-7.125-2.625-0.94307-0.6034-1.8439-1.3894-2.375-2.375-0.68609-1.2733-0.0723-3.0468-0.875-4.25-0.69909-1.0479-2.0152-1.5291-3.125-2.125-0.87258-0.46851-2.3376-0.22455-2.75-1.125-3.371-7.3601-4.7726-17.039-5.25-23.875-0.0459-0.65721 1.3113-0.28395 1.875-0.625 1.3362-0.80852 2.054-2.4169 3.375-3.25z" fill="#63b62f"/>
            <path d="m128.199 224.48c-0.25336 2.1135 2e-3 4.3018 0.53033 6.364 0.57586 2.2488 1.679 4.3471 2.8284 6.364 1.3601 2.3865 3.2538 4.429 4.773 6.7175 0.8049 1.2125 1.32 2.6346 2.2981 3.7123 1.0455 1.152 2.9812 1.4552 3.7123 2.8284 0.47158 0.88575 0.5495 2.0735 0.17678 3.0052-0.44908 1.1226-1.4916 2.1343-2.6516 2.4749-1.2643 0.37114-2.6579-0.23777-3.8891-0.70711-1.1615-0.44277-2.2511-1.1208-3.182-1.9445-1.6334-1.4454-2.7507-3.3866-4.0659-5.1265-1.0946-1.4481-1.8068-3.2345-3.182-4.4194-1.6571-1.4279-4.0941-1.679-5.8336-3.0052-1.5919-1.2136-3.0341-2.7041-4.0659-4.4194-1.0951-1.8206-0.71526-4.4176-2.1213-6.0104-1.308-1.4817-4.2475-0.98089-5.3033-2.6517-1.5742-2.4911-0.82512-5.9642-0.17678-8.8388 0.46382-2.0565 1.8298-3.8002 2.8284-5.6568 1.6756-3.1155 3.7359-6.0211 5.3033-9.1924 0.67883-1.3735 1.7402-2.7108 1.7678-4.2426 0.0181-1.0068-1.4189-1.8874-1.0607-2.8284 0.45016-1.1824 2.1236-1.4936 3.3588-1.7678 1.2094-0.26847 2.6343-0.43359 3.7123 0.17678 1.4791 0.83743 2.3105 2.6238 2.8284 4.2426 0.57482 1.7968-0.43457 3.8721 0.17678 5.6568 0.51945 1.5164 2.065 2.4796 2.8284 3.8891 0.63065 1.1644 1.3073 2.3924 1.4142 3.7123 0.18941 2.3383-0.80651 4.6284-1.4142 6.8943-0.43444 1.6198-1.3914 3.1078-1.591 4.773z" fill="#63b62f"/>
        </g>
    </g>
</svg>
