<?xml version="1.0" encoding="UTF-8"?>
<svg width="777" height="1017" version="1.1" viewBox="0 0 205.58 269.08" xmlns="http://www.w3.org/2000/svg">

 <rect x="1" y="1" width="777" height="1017" fill="white"/>
   <path d="m3.0993 111.8 93.716-0.2226-17.808 154.93h-75.685z" fill="#fec309" stroke="#000500"/>
   <path d="m96.37 146.3 106.18-23.151-0.2226 143.13-118.87-0.22262z" fill="#ed1285" stroke="#000500"/>
   <path d="m202.55 119.26-105.63 22.706 15.805-138.01h89.82z" fill="#2ab149" stroke="#000"/>
   <path d="m3.9878 3.805 104.83-0.1574-11.963 104.04-93.656 0.15741z" fill="#14abde" stroke="#000"/>

  <path d="m3.9878 3.805h91.609s0.68646 3.0298 0.62962 4.5647c-0.0556 1.5014-0.14241 3.1368-0.94443 4.4073-0.91873 1.4554-2.6016 2.2882-4.0925 3.1481-0.8356 0.48193-2.6759 1.1018-2.6759 1.1018s1.3721 2.9722 1.4166 4.5647c0.0242 0.86499-0.066 1.8619-0.62962 2.5185-1.1488 1.3383-4.8795 2.0463-4.8795 2.0463s0.33678 2.8296 0.31481 4.2499c-0.01551 1.0023 0.0191 2.0455-0.31481 2.9907-0.35389 1.0017-1.0472 1.8632-1.7314 2.6759-0.59789 0.71006-1.2314 1.4442-2.0463 1.8889-1.2846 0.70105-2.7905 0.99305-4.2499 1.1018-0.99963 0.07451-2.0323-0.02105-2.9907-0.31481-0.8528-0.26139-1.5996-0.79473-2.3611-1.2592-0.70822-0.43203-1.2301-1.2679-2.0463-1.4166-0.8513-0.15516-1.6668 0.47655-2.5185 0.62962-0.46763 0.08404-0.9489 0.24083-1.4166 0.15741-1.0395-0.1854-2.8333-1.4166-2.8333-1.4166s-1.7848 1.9698-2.3611 3.1481c-0.26283 0.5374-0.39281 1.1385-0.47221 1.7314-0.22982 1.7161 0.19307 3.4737 0 5.1943-0.13199 1.1764-0.78418 2.2792-0.78702 3.4629-0.0023 0.96746 0.40734 1.8917 0.62962 2.8333 0.29822 1.2633 0.82611 2.4851 0.94442 3.7777 0.15334 1.6753 0.24389 3.4502-0.31481 5.0369-0.3626 1.0298-1.0829 1.9393-1.8889 2.6759-0.85029 0.77712-1.9404 1.2583-2.9907 1.7314-1.2102 0.5452-3.7777 1.2592-3.7777 1.2592l1.4166 3.9351s-2.5346 0.49862-3.3055 1.4166c-0.58925 0.70172-0.36161 1.7996-0.62962 2.6759-0.47597 1.5562-0.94028 3.1426-1.7314 4.5647-0.5459 0.98124-1.2946 1.8417-2.0463 2.6759-0.86959 0.96506-1.7608 1.9428-2.8333 2.6759-0.91066 0.62249-1.9246 1.1335-2.9907 1.4166-0.66118 0.17559-1.3623 0.17368-2.0463 0.15741-1.2687-0.0302-3.7777-0.47222-3.7777-0.47222l-3.6203 3.3055-5.3517 0.94443-4.5647 5.0369-3.7777 0.15741s-2.2231 2.7129-3.3055 4.0925c-0.85502 1.0898-1.3951 2.495-2.5185 3.3055-1.5743 1.1359-3.5942 1.5697-5.5092 1.8888-0.46579 0.0776-1.4166 0-1.4166 0z" fill="#fff" stroke="#010000"/>

</svg>
