<?xml version="1.0" encoding="UTF-8"?>
<svg width="388" height="261" version="1.1" viewBox="0 0 102.62 69.054" xmlns="http://www.w3.org/2000/svg">

 <g transform="translate(-35.413 -.026538)" stroke="#038f72">
  <path d="m94.706 67.351c12.771 0.14063 37.267-8.9027 37.267-8.9027s1.3005-1.189 1.8634-1.8634c0.69918-0.83776 1.5092-1.6594 1.8634-2.6915 0.40377-1.1768 0.54296-2.5288 0.20704-3.7267-0.3618-1.2902-1.2883-2.4086-2.2774-3.3126-0.93519-0.85468-2.1148-1.4506-3.3126-1.8634-1.947-0.67101-6.1076-0.93168-6.1076-0.93168s0.93441-1.682 1.2422-2.588c0.21553-0.63438 0.40308-1.297 0.41408-1.9669 0.0195-1.1912-0.20418-2.4037-0.62112-3.5197-0.4225-1.1309-1.0303-2.2319-1.8634-3.1056-0.68686-0.72034-1.5728-1.2569-2.4845-1.6563-1.0732-0.47019-2.2472-0.74728-3.4162-0.82816-1.0379-0.07181-2.1037 0.03017-3.1056 0.31056-0.84719 0.2371-2.381 1.1387-2.381 1.1387s0.72844-3.1573 0.93167-4.7619c0.0738-0.58297 0.10881-1.1722 0.10352-1.7598-4e-3 -0.44989-0.23604-0.9158-0.10352-1.3458 0.26032-0.84459 0.97639-1.5058 1.6563-2.0704 0.4513-0.37476 1.5528-0.82816 1.5528-0.82816s-0.62909 1.2038-0.72464 1.8634c-0.11915 0.82244-0.0714 1.7015 0.20704 2.4845 0.26612 0.7485 0.78815 1.4011 1.3458 1.9669 0.504 0.51142 1.1095 0.93793 1.7598 1.2422 0.4852 0.22702 1.0189 0.36976 1.5528 0.41408 0.72542 0.06022 1.4763 9.12e-4 2.1739-0.20704 0.71001-0.21166 1.411-0.5454 1.9669-1.0352 0.63206-0.55691 1.1216-1.2943 1.4493-2.0704 0.2869-0.67959 0.40557-1.4363 0.41408-2.1739 7e-3 -0.62964-0.0606-1.2854-0.31056-1.8634-0.36155-0.83618-1.6563-2.1739-1.6563-2.1739s-0.16423-1.145-0.41408-1.6563c-0.44245-0.90549-1.1636-1.6557-1.8634-2.381-0.59512-0.61684-1.2148-1.2451-1.9669-1.6563-0.9193-0.5027-1.9612-0.81165-3.0021-0.93167-0.96227-0.11096-1.9528-0.0021-2.8986 0.20704-0.75714 0.16744-2.1739 0.82816-2.1739 0.82816s-0.21123-1.8308-0.5176-2.6915c-0.3417-0.95997-0.84103-1.874-1.4493-2.6915-0.72825-0.97879-1.5535-1.9413-2.588-2.588-0.89754-0.56113-1.9581-0.86026-3.0021-1.0352-1.055-0.17679-2.1546-0.17986-3.2091 0-1.334 0.22753-3.8302 1.3458-3.8302 1.3458s-1.4666-0.26496-2.1739-0.10352c-0.91823 0.2096-1.7947 0.70448-2.4845 1.3458-0.75013 0.69736-1.3442 1.6125-1.6563 2.588-0.21055 0.65813-0.2084 1.3874-0.10352 2.0704 0.1508 0.98201 0.41527 2.0186 1.0352 2.795 0.59121 0.74044 1.5038 1.1946 2.381 1.5528 0.81447 0.33256 1.7122 0.60145 2.588 0.5176 0.81648-0.07818 1.5944-0.47749 2.2774-0.93168 0.60952-0.40534 1.0971-0.97995 1.5528-1.5528 0.20266-0.25476 0.5176-0.82816 0.5176-0.82816s1.0889-0.78151 1.6563-0.62112c0.3786 0.10702 0.59033 0.56188 0.72464 0.93168 0.33003 0.90872 0.17803 1.9346 0.10352 2.8985-0.0704 0.91089-0.5176 2.6915-0.5176 2.6915l-1.5528 1.2422s-1.096-0.77129-1.6563-1.1387c-0.81665-0.53556-1.6106-1.1167-2.4845-1.5528-0.86009-0.42923-1.7554-0.81707-2.6915-1.0352-1.1136-0.25947-2.2741-0.3656-3.4162-0.31056-1.2979 0.06255-2.599 0.30935-3.8302 0.72464-1.2429 0.41923-2.4499 1.0008-3.5197 1.7598-1.3335 0.94606-2.5637 2.0898-3.5197 3.4161-0.60462 0.83886-0.99424 1.8226-1.3458 2.795-0.38692 1.0704-0.67146 2.1853-0.82816 3.3126-0.15209 1.0942-0.23178 2.2153-0.10352 3.3126 0.15355 1.3136 1.0352 3.8302 1.0352 3.8302s-2.3302-0.68743-3.5197-0.62112c-1.221 0.06807-2.4487 0.44477-3.5197 1.0352-1.0063 0.5548-1.9354 1.3316-2.588 2.2774-0.50229 0.728-0.82408 1.6066-0.93168 2.4845-0.10986 0.89642 0.08397 1.8173 0.31056 2.6915 0.27172 1.0483 0.70937 2.0593 1.2422 3.0021 0.48559 0.85918 1.7598 2.3809 1.7598 2.3809s-1.1035 0.82879-1.5528 1.3458c-0.45835 0.52736-1.1387 1.7598-1.1387 1.7598s-1.9085 0.26751-2.795 0.62112c-0.56066 0.22364-1.0881 0.54639-1.5528 0.93168-0.63972 0.53044-1.2605 1.1326-1.6563 1.8634-0.37479 0.69188-0.63103 1.4906-0.62112 2.2774 0.0045 0.36023 0.31056 1.0352 0.31056 1.0352s20.694 8.1618 31.573 8.2816z" fill="#fff" stroke-width="1.0583"/>
  <ellipse cx="92.481" cy="29.979" rx="8.8259" ry="8.7741" fill="none" stroke-width=".31467"/>
  <ellipse cx="92.377" cy="30.031" rx="3.0317" ry="2.8247" fill="#038f72" stroke-width=".30884"/>
 </g>
 <g fill="none" stroke="#038f72">
  <ellipse cx="61.829" cy="10.956" rx=".58029" ry=".68381" stroke-width=".24272"/>
  <g transform="translate(-36.469 -39.606)" stroke-width=".26458px">
   <path d="m99.917 91.749 0.0732-1.098s-0.92602-1.0775-1.464-1.5372c-1.8936-1.6179-4.0075-2.9733-6.1488-4.2456-2.1858-1.2987-4.4645-2.4531-6.8075-3.4404-1.8061-0.76102-3.6506-1.4752-5.5632-1.9032-1.0781-0.24124-2.1999-0.51888-3.294-0.366-0.5744 0.08026-1.2019 0.24709-1.6104 0.65879-0.27764 0.27982-0.42165 0.70419-0.4392 1.098-0.02268 0.50898 0.20788 1.01 0.4392 1.464 0.58493 1.1479 1.4653 2.1307 2.3424 3.0744 0.57661 0.62042 1.2228 1.1792 1.9032 1.6836 0.89758 0.66543 1.8706 1.2278 2.8548 1.7568 0.66348 0.35659 1.3442 0.6875 2.0496 0.95159 0.90399 0.33843 1.8365 0.60865 2.7816 0.80519 0.74669 0.15529 1.5076 0.25236 2.2692 0.2928 1.0967 0.05824 2.1958-0.061 3.294-0.0732 1.4883-0.01654 2.9805-0.10551 4.4652 0 0.51629 0.03669 1.0431 0.06527 1.5372 0.2196 0.4687 0.14641 1.3176 0.6588 1.3176 0.6588z"/>
   <path d="m105.77 92.627 0.1464-1.3176s3.8898-0.9916 5.856-1.3908c1.7218-0.34958 3.45-0.69315 5.1972-0.87839 2.7687-0.29356 5.5676-0.56442 8.3447-0.366 1.3127 0.09379 2.6133 0.37357 3.8796 0.73199 0.85459 0.2419 1.7627 0.44011 2.4888 0.95159 0.36782 0.2591 0.76202 0.59019 0.8784 1.0248 0.10274 0.38368-0.0486 0.81266-0.2196 1.1712-0.27565 0.57811-0.75155 1.055-1.2444 1.464-0.75688 0.62816-1.6599 1.0719-2.562 1.464-1.3589 0.59069-2.7934 1.0228-4.2456 1.3176-0.96125 0.19515-1.9471 0.28941-2.928 0.2928-1.0537 0.0036-2.106-0.13333-3.1476-0.2928-1.036-0.15861-2.0744-0.34498-3.0744-0.65879-2.3477-0.73677-4.4752-2.0705-6.8076-2.8548-0.83579-0.28104-2.562-0.65879-2.562-0.65879z"/>
   <path d="m99.698 92.92c-0.44333-0.59786-1.4911-0.10174-2.2326-0.0366-0.82944 0.07287-1.6246 0.38395-2.4522 0.4758-0.41244 0.04577-0.82944 0.04104-1.2444 0.0366-0.72068-0.0077-1.441-0.05168-2.1594-0.1098-0.99104-0.08018-1.9789-0.19921-2.9646-0.3294-1.3582-0.17938-2.7098-0.40588-4.0626-0.62219-1.3923-0.22263-2.766-0.59421-4.1724-0.69539-1.1319-0.08144-2.2856-0.12062-3.4038 0.0732-0.53218 0.09224-1.0941 0.20347-1.5372 0.51239-0.25631 0.17872-0.51172 0.42838-0.5856 0.73199-0.07353 0.30222 0.02013 0.65001 0.183 0.91499 0.68244 1.1103 1.9573 1.7443 3.0744 2.4156 1.0862 0.65273 2.2809 1.1187 3.477 1.5372 2.5836 0.90396 5.2435 1.6284 7.9421 2.0862 0.76015 0.12894 1.5407 0.27871 2.3058 0.18299 0.60102-0.0752 1.1613-0.35202 1.7202-0.58559 0.83061-0.34715 1.6443-0.74345 2.4156-1.2078 0.35964-0.21653 0.71013-0.45413 1.0248-0.73199 0.47245-0.41718 0.89882-0.88959 1.281-1.3908 0.34893-0.45761 0.68994-0.93435 0.91499-1.464 0.1377-0.32407 0.16512-0.68466 0.2562-1.0248 0.0689-0.25738 0.3783-0.55457 0.21959-0.76859z"/>
  </g>
  <g transform="translate(-36.469 -39.606)">
   <path d="m122.4 79.814c0.17834-1.4207-0.46199-3.2395-1.5932-4.093-1.1312-0.85345-2.6307-1.0242-3.9274-0.44724-1.2966 0.57699-2.1906 1.8129-2.3414 3.2367 0 0 2.5851 1.1176 3.9613 1.3375 1.284 0.20516 3.9006-0.03406 3.9006-0.03406z" stroke-width=".26458"/>
   <path d="m121.82 81.122c-0.59005 1.2076-2.2498 1.8502-3.994 1.5463-1.7443-0.30386-3.106-1.4728-3.2769-2.813 0 0 2.2296 1.0276 3.4249 1.2415 1.262 0.22591 3.846 0.02509 3.846 0.02509z" stroke-width=".26458"/>
   <path d="m107.9 77.985c-0.19375 1.318-1.2865 2.2626-2.5254 2.1829-1.2389-0.07967-1.4169-1.0799-1.4631-2.4133 0 0 0.97206 0.6381 1.5294 0.7057 0.8288 0.10052 2.4591-0.47526 2.4591-0.47526z" stroke-width=".15265"/>
  </g>
  <path d="m68.297 58.42 0.72464-3.882s1.471 0.75634 2.1739 1.1905c0.69629 0.43005 1.2824 1.0401 2.0186 1.3975 1.0555 0.5125 2.2299 0.73586 3.3644 1.0352 1.4693 0.38766 2.9408 0.81856 4.4513 0.98344 1.2006 0.13104 2.4236 0.13961 3.6232 0 1.5671-0.18238 3.0972-0.62788 4.6066-1.087 1.6924-0.51472 3.431-0.98938 4.9689-1.8634 0.67235-0.38207 1.2593-0.90795 1.8116-1.4493 0.2887-0.28298 0.57418-0.58163 0.7764-0.93168 0.17476-0.3025 0.30736-0.63843 0.36232-0.98344 0.0733-0.46035 0.0828-0.9512-0.0518-1.3975-0.10505-0.34847-0.3334-0.65457-0.56936-0.93168-0.4125-0.48444-0.88087-0.95632-1.4493-1.2422-0.69548-0.34983-1.5147-0.36166-2.2774-0.5176-1.1339-0.23182-2.2647-0.50378-3.4161-0.62112-1.4765-0.15046-2.9678-0.14653-4.4514-0.10352-1.4881 0.04314-2.9696 0.2187-4.4513 0.36232-1.3825 0.134-2.7696 0.24406-4.1408 0.46584-1.4798 0.23935-2.9503 0.54867-4.3996 0.93168-0.7702 0.20354-2.2774 0.72464-2.2774 0.72464s0.84727-4.1096 1.294-6.1594c0.11676-0.53574 0.16681-1.0923 0.36232-1.6046 0.12668-0.33192 0.2481-0.70019 0.5176-0.93168 0.48866-0.41973 1.1776-0.55894 1.8116-0.67288 0.56038-0.10071 1.1403-0.04277 1.7081 0 0.57423 0.04326 1.7081 0.2588 1.7081 0.2588s0.52962 0.87511 0.87992 1.2422c0.48366 0.50689 1.0439 0.95361 1.6563 1.294 0.48186 0.26784 1.0089 0.47945 1.5528 0.56936 0.71514 0.11821 1.4762 0.14458 2.1739-0.05176 0.72925-0.20521 1.3916-0.64579 1.9669-1.1387 0.52176-0.44708 0.98201-0.99236 1.294-1.6046 0.30026-0.58918 0.4558-1.2567 0.5176-1.9151 0.0631-0.67191 0.0428-1.3735-0.15529-2.0186-0.20418-0.66486-0.59813-1.2706-1.0352-1.8116-0.42229-0.52273-0.90462-1.0361-1.501-1.3458-0.81719-0.42425-1.7711-0.64482-2.6915-0.62112-0.75339 0.0194-1.5116 0.26151-2.1739 0.62112-0.62332 0.33844-1.6046 1.3975-1.6046 1.3975s-1.2161-0.4273-1.8116-0.67288c-0.57818-0.23843-1.2107-0.39724-1.7081-0.7764-0.42866-0.32678-0.84328-0.73855-1.0352-1.2422-0.1844-0.48395-0.10746-1.0379-0.0518-1.5528 0.12053-1.115 0.58605-2.1659 0.82816-3.2609 0.20089-0.90861 0.40526-1.8195 0.51759-2.7433 0.0375-0.30876 0.10332-0.62494 0.0518-0.93168-0.0679-0.40444-0.22881-0.80404-0.46584-1.1387-0.12007-0.16954-0.46583-0.41408-0.46583-0.41408s1.4086-1.9951 2.2257-2.8985c0.54036-0.59745 1.1094-1.181 1.7598-1.6563 0.57367-0.41924 1.2059-0.7657 1.8634-1.0352 0.59647-0.2445 1.2203-0.47211 1.8634-0.5176 0.39919-0.02824 0.80864 0.03548 1.1905 0.15528 0.50067 0.15709 1.0067 0.37448 1.3975 0.72464 0.50965 0.45662 0.87159 1.0781 1.1387 1.7081 0.31705 0.74775 0.5176 2.381 0.5176 2.381s-0.64109 0.33116-0.82816 0.62112c-0.17247 0.26732-0.2146 0.61363-0.20703 0.93168 9e-3 0.39332 0.0716 0.82614 0.31055 1.1387 0.20666 0.27035 0.54923 0.43734 0.87992 0.5176 0.30226 0.07336 0.63794 0.05052 0.93168-0.05176 0.33905-0.11806 0.66276-0.33522 0.87991-0.62112 0.15514-0.20425 0.23493-0.46926 0.2588-0.72464 0.0309-0.33043-5e-3 -0.6877-0.15528-0.98344-0.18823-0.36963-0.5142-0.68419-0.87992-0.87992-0.15513-0.08302-0.51759-0.10352-0.51759-0.10352s-0.0189-0.86963-0.10352-1.294c-0.13117-0.65816-0.28986-1.3315-0.62112-1.9151-0.36211-0.63802-0.84664-1.2379-1.4493-1.6563-0.56067-0.38924-1.2368-0.64866-1.9151-0.72464-0.74442-0.08338-1.5082 0.09526-2.2257 0.31056-0.76874 0.23068-1.4994 0.60017-2.1739 1.0352-0.85397 0.55079-1.6231 1.2361-2.3292 1.9669-0.71711 0.74218-1.2958 1.6071-1.9151 2.4327-0.17812 0.23746-0.5176 0.72464-0.5176 0.72464l-0.93168-0.41408s0.55803-1.2269 0.7764-1.8634c0.12768-0.37214 0.21823-0.75627 0.31056-1.1387 0.15723-0.65129 0.33165-1.302 0.41408-1.9669 0.10834-0.8739 0.12095-1.7593 0.10352-2.6397-0.013-0.65754-0.0188-1.3235-0.15528-1.9669-0.12909-0.60853-0.35777-1.1962-0.62112-1.7598-0.22923-0.49057-0.4666-0.99442-0.82816-1.3975-0.46081-0.51375-1.0311-0.94997-1.6563-1.2422-0.54592-0.25521-1.1592-0.36549-1.7598-0.41408-0.74128-0.05996-1.4968 0.0078-2.2257 0.15528-0.67916 0.13742-1.3364 0.38537-1.9669 0.67288-0.56273 0.25661-1.6045 0.93168-1.6045 0.93168s-0.44196-0.42701-0.72464-0.5176c-0.34503-0.11057-0.74192-0.11057-1.087 0-0.28268 0.09059-0.5439 0.28213-0.72464 0.5176-0.17952 0.23387-0.26914 0.53626-0.31056 0.82816-0.0316 0.22272-8e-3 0.45609 0.0518 0.67288 0.0824 0.29743 0.18596 0.62027 0.41408 0.82816 0.24629 0.22444 0.60141 0.31813 0.93168 0.36232 0.32671 0.04371 0.67854 0.02174 0.98343-0.10352 0.30656-0.12594 0.62637-0.3256 0.7764-0.62112 0.17981-0.35417 0.0518-1.1905 0.0518-1.1905s0.62275-0.30733 0.93167-0.46584c0.32959-0.16911 0.64636-0.36395 0.98344-0.5176 0.3032-0.13821 0.61558-0.25688 0.93168-0.36232 0.42491-0.14173 0.84939-0.3079 1.294-0.36232 0.58252-0.07131 1.1853-0.06768 1.7598 0.05176 0.45483 0.09455 0.90616 0.26186 1.294 0.5176 0.52962 0.34923 0.97039 0.83432 1.3458 1.3458 0.26483 0.36083 0.46843 0.76974 0.62112 1.1905 0.1928 0.53126 0.28757 1.0961 0.36232 1.6563 0.0914 0.68492 0.12449 1.3797 0.10352 2.0704-0.0237 0.78082-0.12247 1.56-0.2588 2.3292-0.1519 0.85704-0.35532 1.7074-0.62112 2.5362-0.19861 0.61931-0.72463 1.8116-0.72463 1.8116s-0.91244 0.03994-1.294 0.2588c-0.36043 0.20674-0.59122 0.59034-0.82815 0.93168-0.18924 0.27263-0.35901 0.56571-0.46584 0.87992-0.79438 2.3363-1.2422 7.2981-1.2422 7.2981s-0.26485 0.3213-0.41408 0.46584c-0.0968 0.09375-0.17722 0.23934-0.31056 0.2588-0.13002 0.01897-0.36231-0.15528-0.36231-0.15528s0.20752-0.54352 0.25879-0.82816c0.17151-0.95225 0.25228-1.9359 0.15528-2.8986-0.0894-0.88685-0.31577-1.7713-0.67287-2.588-0.32021-0.73231-0.81083-1.382-1.294-2.0186-0.36609-0.48241-0.75353-0.95706-1.2092-1.3559-0.68748-0.60171-1.4583-1.1163-2.2692-1.5372-0.76422-0.39665-1.5747-0.72987-2.4156-0.91499-1.0034-0.2209-2.0525-0.32574-3.0744-0.2196-0.88341 0.09176-1.7414 0.39211-2.562 0.73199-1.0444 0.4326-2.0944 0.92538-2.9646 1.647-0.79358 0.65809-1.4074 1.5193-1.9764 2.379-0.48484 0.73257-0.9601 1.4995-1.2078 2.3424-0.25226 0.85838-0.22257 1.7777-0.2562 2.6718-0.02247 0.5975-0.06011 1.2033 0.0366 1.7934 0.14479 0.88339 0.42558 1.7513 0.80519 2.562 0.51662 1.1033 1.1233 2.2046 1.9764 3.0744 0.87428 0.89138 1.9663 1.5875 3.111 2.0862 1.172 0.51063 2.4567 0.80846 3.7332 0.87839 1.1045 0.06052 2.2382-0.07248 3.294-0.4026 0.75002-0.23452 2.0862-1.098 2.0862-1.098s1.1836 0.43449 1.7568 0.69539c0.36254 0.16501 0.76074 0.2877 1.0614 0.549 0.35003 0.30421 0.80519 1.1346 0.80519 1.1346l-1.7568 8.8205s-1.3616-1.4034-2.1228-2.013c-1.4341-1.1485-2.9912-2.1431-4.575-3.0744-2.4081-1.416-4.9081-2.6843-7.4663-3.8064-1.4776-0.64811-2.9976-1.2044-4.5384-1.6836-0.99738-0.31019-1.9988-0.66173-3.0378-0.76859-0.85029-0.08745-1.722-0.04847-2.562 0.1098-0.4815 0.09072-0.98932 0.1949-1.3908 0.4758-0.33408 0.23375-0.57629 0.59205-0.76859 0.95159-0.19291 0.36067-0.34878 0.76254-0.366 1.1712-0.03314 0.78664 0.18504 1.5897 0.51239 2.3058 0.44232 0.96753 1.1896 1.7729 1.9032 2.562 0.75302 0.83266 1.5906 1.5957 2.4888 2.2692 1.4061 1.0544 2.9076 2.0049 4.5018 2.745 0.4549 0.2112 1.4274 0.4758 1.4274 0.4758s-2.5054-0.41498-3.7698-0.5124c-1.3018-0.10029-2.6165-0.19726-3.9162-0.0732-0.40969 0.03911-0.83813 0.07528-1.2078 0.2562-0.6454 0.31587-1.3342 0.74389-1.647 1.3908-0.17003 0.35164-0.09143 0.78447-0.0366 1.1712 0.06119 0.43165 0.14242 0.89458 0.4026 1.2444 1.0886 1.4636 2.8784 2.2791 4.5018 3.111 3.1694 1.6241 6.5434 3.0493 10.064 3.5871 1.741 0.26598 3.5882 0.28413 5.2795-0.20704 1.1879-0.34496 2.3034-1.0209 3.2091-1.8633 0.67277-0.62577 1.5528-2.2774 1.5528-2.2774l-0.31056 5.4865z" stroke-width=".26458px"/>
 </g>
 <g transform="translate(-35.413 -.026538)" stroke="#019074" stroke-width=".79375">
  <path d="m70.9 36.968s-1.8864-0.95649-2.7084-1.6104c-0.60773-0.48348-1.2454-0.99811-1.6104-1.6836-0.37564-0.70548-0.5124-2.3424-0.5124-2.3424s2.1211-0.05468 3.1476-0.2928c1.2714-0.29493 2.5351-0.72896 3.66-1.3908 1.4029-0.8254 2.566-2.0131 3.7332-3.1476 1.3135-1.2768 2.588-2.6138 3.66-4.0992 0.77398-1.0724 1.4352-2.2336 1.9764-3.4404 0.41047-0.91524 0.83221-1.8588 0.9516-2.8548 0.10491-0.87517-0.0228-1.776-0.21961-2.6352-0.22763-0.99382-0.57464-1.9798-1.098-2.8548-0.59502-0.99481-1.4132-1.8535-2.2692-2.6352-0.92995-0.84924-1.9872-1.5604-3.0744-2.196-1.0931-0.63904-2.2679-1.1322-3.4404-1.6104-1.4362-0.58572-2.8987-1.1177-4.392-1.5372-1.3453-0.37796-2.7106-0.72125-4.0992-0.87839-1.6973-0.19208-3.4174-0.14717-5.124-0.0732-1.9356 0.0839-3.896 0.14544-5.7828 0.5856-2.1053 0.49113-4.1888 1.2139-6.0756 2.2692-1.3504 0.75524-2.538 1.7893-3.66 2.8548-1.0536 1.0005-2.036 2.0936-2.8548 3.294-0.94709 1.3885-1.7439 2.8946-2.3424 4.4652-0.64478 1.6922-1.0309 3.4823-1.3176 5.2704-0.15883 0.99041-0.26412 1.9991-0.2196 3.0012 0.0538 1.2102 0.10702 2.4739 0.5856 3.5868 0.55717 1.2956 1.4866 2.4547 2.562 3.3672 1.0736 0.91098 2.3925 1.546 3.7332 1.9764 0.86741 0.27844 1.8015 0.27966 2.7084 0.366 1.7516 0.16674 3.5124 0.36721 5.2704 0.2928 1.9203-0.08128 3.8294-0.40603 5.7096-0.80519 0.34752-0.07378 1.0248-0.2928 1.0248-0.2928s1.2524 1.7625 1.9764 2.562c0.7879 0.86997 1.5649 1.7963 2.562 2.4156 0.77387 0.48068 1.6654 0.79045 2.562 0.95159 0.9606 0.17264 1.9719 0.19624 2.928 0 0.72811-0.14945 2.0496-0.87839 2.0496-0.87839z" fill="#fff"/>
  <path d="m65.702 35.796s-1.5296-2.224-1.7568-3.5136c-0.1108-0.62892 0.0772-1.2806 0.2196-1.9032 0.13245-0.57922 0.58559-1.6836 0.58559-1.6836s1.1425 0.52477 1.7568 0.5856c0.78304 0.07754 1.5824-0.08904 2.3424-0.2928 1.1512-0.30863 2.2729-0.77607 3.294-1.3908 1.0252-0.61716 1.9158-1.4432 2.7816-2.2692 0.92515-0.88257 1.7701-1.8509 2.562-2.8548 0.77125-0.97779 1.489-2.0024 2.1228-3.0744 0.47207-0.79839 0.96043-1.6058 1.2444-2.4888 0.18913-0.58809 0.30722-1.2124 0.29278-1.83-0.014-0.598-0.16341-1.194-0.36599-1.7568-0.33638-0.93453-0.77657-1.8546-1.3908-2.6352-0.68419-0.86944-1.6026-1.5336-2.4888-2.196-0.99234-0.74167-2.0323-1.4369-3.1476-1.9764-1.1185-0.54103-2.3221-0.8922-3.5136-1.2444-1.6118-0.47642-3.2425-0.91993-4.9044-1.1712-1.8375-0.27782-3.7053-0.41035-5.5632-0.366-1.9395 0.04631-3.8926 0.22178-5.7828 0.65879-1.564 0.36158-3.113 0.87224-4.5384 1.6104-1.3526 0.70043-2.574 1.647-3.7332 2.6352-1.1161 0.95144-2.2408 1.9408-3.0744 3.1476-0.65765 0.95207-1.0289 2.0754-1.464 3.1476-0.41783 1.0296-0.77725 2.0837-1.098 3.1476-0.34163 1.1332-0.78952 2.2601-0.87839 3.4404-0.0921 1.2226 0.0811 2.4675 0.36599 3.66 0.18846 0.78889 0.41141 1.606 0.8784 2.2692 0.68723 0.97591 1.655 1.781 2.7084 2.3424 0.98204 0.52338 2.1218 0.70319 3.2208 0.87839 1.4475 0.23079 2.9267 0.25927 4.392 0.2196 1.6431-0.04449 3.2793-0.26555 4.9044-0.5124 0.98403-0.14948 1.9511-0.39488 2.928-0.58559 0.51194-0.09995 1.5372-0.2928 1.5372-0.2928s0.89047 1.8573 1.464 2.7084c0.4068 0.60364 0.85642 1.1893 1.3908 1.6836 0.81001 0.74924 2.7084 1.9032 2.7084 1.9032z" fill="none" stroke-linecap="square" stroke-linejoin="round"/>
 </g>
</svg>
