<?xml version="1.0" encoding="UTF-8"?>
<svg width="418" height="514" version="1.1" viewBox="0 0 110.6 136" xmlns="http://www.w3.org/2000/svg">


  <path d="m9.655 43.257c32.42-0.01615 59.822-0.28631 97.261-0.09687 0.72564 0.0037 0.71701-1.311 0.77499-2.0343 0.1528-1.9064-0.51669-3.8184-1.1625-5.6186-1.3803-3.8476-3.3646-7.5057-5.7155-10.85-1.7614-2.5055-3.9394-4.7146-6.1999-6.7811-3.146-2.8761-6.5543-5.4952-10.172-7.7498-2.206-1.3749-4.5494-2.5526-6.9749-3.4874-4.0353-1.5554-8.2357-2.7472-12.497-3.4874-3.9871-0.69267-8.0649-1.0162-12.109-0.87186-3.3909 0.12105-6.7757 0.66046-10.075 1.4531-3.0184 0.72519-5.9683 1.7659-8.8155 3.0031-3.3257 1.4452-6.5654 3.1348-9.5904 5.1343-2.2802 1.5072-4.4082 3.2557-6.3936 5.1343-1.8603 1.7601-3.64 3.6357-5.1343 5.7155-2.337 3.2528-4.4869 6.7181-5.9093 10.462-0.92667 2.4393-1.2846 5.0689-1.6468 7.653-0.06739 0.48074-0.27838 1.0029-0.09687 1.4531 0.17949 0.44522 0.61786 0.79563 1.0656 0.96873 1.0541 0.40754 2.2604 5.61e-4 3.3906-2e-6z" fill="#f9a51a"/>
  <path d="m14.111 32.601c1.3352-1.5681 2.6616-3.1459 4.0687-4.6499 1.4039-1.5006 2.843-2.9723 4.3593-4.3593 1.8945-1.7329 3.9218-3.3151 5.9093-4.9405 1.4405-1.1781 2.8497-2.3994 4.3593-3.4874 0.53043-0.38231 1.0278-0.85521 1.6468-1.0656 1.1349-0.38571 2.4963 0.21251 3.5843-0.29062 0.20724-0.09584 0.52094-0.25898 0.48436-0.48437-0.10409-0.64145-1.6493-0.2289-1.7437-0.87186-0.10947-0.74585 1.0365-1.1075 1.6468-1.55 0.98278-0.71239 2.2249-1.0165 3.1968-1.7437 0.54846-0.41038 1.3856-0.77144 1.4531-1.4531 0.02294-0.23172-0.16678-0.50701-0.38749-0.58124-1.5874-0.53386-3.169 1.0852-4.7468 1.6468-2.0402 0.72629-4.1602 1.2713-6.103 2.2281-2.8128 1.3852-5.5159 3.0532-7.9436 5.0374-2.6701 2.1823-4.9799 4.7943-7.1686 7.4592-1.5749 1.9175-3.0016 3.9658-4.2624 6.103-1.0053 1.704-1.8515 3.5031-2.6156 5.328-0.26425 0.63115-0.96811 1.3177-0.67811 1.9375 0.11693 0.24989 0.5033 0.33863 0.77498 0.29062 0.58633-0.10362 0.93873-0.73795 1.3562-1.1625 1.0291-1.0465 1.8578-2.2731 2.8093-3.3906z" fill="#fdbc54"/>
  <g fill="#fffbdc">
   <path d="m45.486 9.212s0.7662 0.05763 1.1144 0.20096c0.39705 0.16346 0.76701 0.41629 1.0561 0.7288 0.3241 0.35034 0.56878 0.78306 0.71339 1.234 0.12296 0.38339 0.16052 0.80091 0.11485 1.2003-0.0387 0.33778-0.17911 0.66022-0.32407 0.96907-0.0666 0.1419-0.10604 0.32957-0.24812 0.4006-0.25417 0.12707-0.57709 0.0019-0.85339-0.06805-0.32774-0.08302-0.6511-0.21556-0.92515-0.41008-0.36784-0.26109-0.69991-0.59532-0.9203-0.98422-0.23359-0.41218-0.36879-0.89118-0.38773-1.3621-0.01844-0.45875 0.08875-0.92829 0.27002-1.3517 0.08892-0.20771 0.39003-0.55744 0.39003-0.55744z"/>
   <path d="m37.668 14.241s0.27427 0.71776 0.29291 1.0938c0.02126 0.42885-0.04988 0.87127-0.20946 1.266-0.1789 0.44247-0.46615 0.84817-0.81249 1.1711-0.29448 0.27457-0.65622 0.48642-1.037 0.61522-0.32208 0.10888-0.67362 0.11921-1.0148 0.11963-0.15675 1.94e-4 -0.34334 0.04446-0.46814-0.05382-0.22324-0.17582-0.24756-0.5213-0.30198-0.80107-0.06451-0.33188-0.08235-0.68089-0.02311-1.0117 0.07952-0.44401 0.24044-0.88682 0.4984-1.2519 0.2734-0.38692 0.64916-0.7133 1.0672-0.93106 0.40721-0.21208 0.87767-0.31511 1.338-0.33155 0.22579-0.0081 0.67048 0.1154 0.67048 0.1154z"/>
   <path d="m62.67 11.085s0.64135-0.42318 1.0044-0.5228c0.41408-0.11361 0.8614-0.13996 1.2813-0.06962 0.4707 0.07884 0.92898 0.27144 1.3192 0.53964 0.33182 0.22804 0.61696 0.53533 0.82515 0.87916 0.17604 0.29086 0.26224 0.63182 0.33653 0.96482 0.0341 0.15299 0.11775 0.32557 0.0488 0.46868-0.12331 0.25602-0.45532 0.35456-0.71668 0.46827-0.31004 0.13484-0.64691 0.22783-0.9827 0.24163-0.4507 0.01851-0.91784-0.04271-1.3301-0.2155-0.43695-0.18313-0.83694-0.47931-1.1401-0.84027-0.29521-0.35163-0.49767-0.78862-0.61339-1.2344-0.0568-0.21869-0.0325-0.67956-0.0325-0.67957z"/>
   <path d="m75.45 13.832s0.20292 0.7411 0.18478 1.1172c-0.0207 0.42888-0.13466 0.86224-0.33199 1.2395-0.22122 0.4229-0.54669 0.79864-0.92289 1.0862-0.31987 0.24453-0.70055 0.42006-1.092 0.5111-0.33117 0.07693-0.68204 0.05291-1.0216 0.02004-0.15602-0.0151-0.34604 0.01075-0.46065-0.09924-0.20502-0.19676-0.19551-0.54296-0.22237-0.82671-0.0318-0.33659-0.0155-0.68568 0.0757-1.0091 0.12247-0.43413 0.32583-0.85913 0.61818-1.1973 0.30985-0.3584 0.71566-0.64655 1.1529-0.82249 0.42596-0.17133 0.90423-0.22797 1.3639-0.19941 0.2255 0.01402 0.65603 0.18027 0.65603 0.18027z"/>
   <path d="m56.06 13.539s0.42545 0.63984 0.52636 1.0026c0.11509 0.41367 0.14302 0.86089 0.0742 1.281-0.0772 0.47098-0.26814 0.92994-0.53495 1.3211-0.22687 0.33263-0.53314 0.61887-0.87623 0.82828-0.29023 0.17707-0.63088 0.26448-0.96361 0.33996-0.15287 0.03467-0.32515 0.1189-0.46851 0.05048-0.25645-0.1224-0.35618-0.45406-0.47081-0.71501-0.13594-0.30956-0.23013-0.64609-0.24512-0.98184-0.0201-0.45063 0.0395-0.91799 0.21077-1.3309 0.18158-0.43759 0.47634-0.83863 0.83621-1.143 0.35058-0.29646 0.78685-0.50048 1.2323-0.61778 0.21849-0.05753 0.67944-0.03493 0.67945-0.03493z"/>
  </g>
  <path d="m5.187 46.28 100.83-0.274s2.4514 4.9254 3.288 7.535c0.4703 1.467 0.9202 2.9809 0.95899 4.521 0.0291 1.1558 0.0547 2.4383-0.54799 3.425-0.4428 0.7249-1.2814 1.1562-2.055 1.507-0.76689 0.34774-1.6267 0.61605-2.466 0.54799-0.98046-0.0795-1.8804-0.6177-2.74-1.096-0.94179-0.52404-1.694-1.339-2.603-1.918-0.4826-0.30742-0.95253-0.68061-1.507-0.82199-0.79651-0.2031-1.6594-0.1586-2.466 0-1.0651 0.20943-2.0897 0.66375-3.014 1.233-1.1851 0.72993-2.007 1.9471-3.151 2.74-1.0244 0.71004-2.1262 1.3294-3.288 1.781-0.70199 0.27284-1.443 0.46844-2.192 0.54799-1.3631 0.14479-2.7762 0.17932-4.11-0.137-0.6362-0.15088-1.2343-0.46332-1.781-0.82199-1.4332-0.94031-2.426-2.4502-3.836-3.425-0.9745-0.67368-1.9943-1.3881-3.151-1.644-0.98195-0.21725-2.0252-0.0466-3.014 0.13699-0.99388 0.18454-2.0115 0.43673-2.877 0.959-1.2997 0.78429-2.2575 2.0363-3.288 3.151-0.4406 0.47657-0.70133 1.1347-1.233 1.507-0.79265 0.55503-1.7789 0.84624-2.74 0.959-1.3223 0.15515-2.7255 0.0542-3.973-0.411-1.5669-0.58426-2.7645-1.8838-4.11-2.877-1.2567-0.92768-2.2841-2.2151-3.699-2.877-0.9736-0.45544-2.0784-0.61469-3.151-0.685-1.0974-0.0719-2.2795-0.16487-3.288 0.274-1.245 0.54181-1.959 1.8853-3.014 2.74-1.0931 0.88559-2.1519 1.8673-3.425 2.466-0.98227 0.46196-2.0663 0.77942-3.151 0.822-1.2979 0.051-2.6158-0.23961-3.836-0.68499-1.2877-0.47002-2.4092-1.3132-3.562-2.055-1.6518-1.0628-2.9859-2.66-4.795-3.425-0.9405-0.3977-2.0114-0.74189-3.014-0.548-1.4305 0.27665-2.4183 1.6341-3.699 2.329-1.1494 0.62368-2.266 1.4698-3.562 1.644-0.8259 0.11103-1.7141-0.0516-2.466-0.411-0.99226-0.4743-1.9315-1.2308-2.466-2.192-0.65304-1.1745-0.74915-2.6306-0.685-3.973 0.174-3.6406 2.877-10.549 2.877-10.549z" fill="#397136"/>
  <path d="m9.023 73.82 95.762 0.274s0.85032-2.3443 1.096-3.562c0.18153-0.89976 0.88991-2.0594 0.274-2.74-0.36771-0.40631-1.1084 0.11601-1.644 0-0.53928-0.11681-1.0247-0.41691-1.507-0.68499-1.1513-0.63995-2.1278-1.5683-3.288-2.192-0.82921-0.44577-1.662-1.0653-2.603-1.096-1.2558-0.041-2.4602 0.62904-3.562 1.233-1.2258 0.67194-2.1755 1.7566-3.288 2.603-1.1704 0.89039-2.1951 2.0606-3.562 2.603-1.3689 0.54313-2.9176 0.68429-4.384 0.548-1.1936-0.11093-2.3407-0.58487-3.425-1.096-0.68748-0.32409-1.3335-0.74714-1.918-1.233-0.81983-0.68149-1.3275-1.7051-2.192-2.329-1.1431-0.82505-2.447-1.5397-3.836-1.781-0.99392-0.17266-2.0305 0.0492-3.014 0.274-1.1411 0.26083-2.3542 0.52715-3.288 1.233-0.85977 0.64991-1.1591 1.8377-1.918 2.603-0.80385 0.81069-1.7039 1.5754-2.74 2.055-0.93499 0.43276-1.9837 0.68796-3.014 0.68499-1.4068-4e-3 -2.855-0.32322-4.11-0.95899-1.5023-0.76109-2.5026-2.2593-3.836-3.288-1.1434-0.88207-2.2059-1.9694-3.562-2.466-1.3356-0.48904-2.8674-0.75704-4.247-0.411-1.2776 0.32048-2.2522 1.3783-3.288 2.192-1.2199 0.95833-2.0796 2.3786-3.425 3.151-1.0774 0.61847-2.3306 0.93177-3.562 1.096-1.3587 0.18122-2.8017 0.2722-4.11-0.137-1.6079-0.50292-2.8417-1.8108-4.247-2.74-1.4263-0.94305-2.6784-2.1963-4.247-2.877-0.94512-0.41015-1.9901-0.79945-3.014-0.685-1.1571 0.12933-2.1306 0.94641-3.151 1.507-1.1328 0.6223-2.0919 1.5652-3.288 2.055-0.77925 0.31907-2.0728-0.19662-2.466 0.548-0.45931 0.86987 0.68457 1.8465 1.096 2.74 0.45279 0.98336 1.507 2.877 1.507 2.877z" fill="#b66126"/>
  <path d="m10.941 76.83c31.18 0.81048 65.74 0.3306 93.571 0.411 0.7104 2e-3 1.2351 0.85066 1.507 1.507 0.31456 0.75943 0.0137 1.6441 0 2.466-0.0228 1.3706 0.0262 2.749-0.137 4.11-0.13331 1.1116 0.15788 2.5512-0.685 3.288-0.48257 0.42184-1.2785 0.0942-1.918 0.137-1.4609 0.0978-2.92 0.24983-4.384 0.274-1.5531 0.0256-3.1203 0.0833-4.658-0.137-1.0745-0.15394-2.2091-0.28238-3.151-0.822-0.28018-0.16053-0.36244-0.67003-0.685-0.68499-10.674-0.49517-21.433 0.0784-32.88 0-1.9615-0.0134-3.8034 1.0263-5.754 1.233-3.6784 0.38969-7.398-0.0234-11.097 0-7.2157 0.0457-14.43 0.22833-21.646 0.274-3.6532 0.0231-7.1437 0.66529-10.96 0-0.58484-0.10196 0.2925-1.2644 0-1.781-0.1312-0.23172-0.53571-0.1905-0.685-0.411-0.80392-1.1874-0.63737-2.8138-0.685-4.247-0.04875-1.4669-0.09518-3.0063 0.411-4.384 0.19224-0.52323 0.45858-1.1244 0.959-1.37 0.86188-0.42299 1.9172 0.11205 2.877 0.137z" fill="#e92627"/>
  <path d="m32.257 77.16c21.635 0.13869 64.905 0 64.905 0s-0.86525 1.8927-1.3562 2.8093c-0.3896 0.72739-0.7757 1.4626-1.2594 2.1312-0.60358 0.83435-1.4686 1.4645-2.0343 2.325-0.82525 1.2552-1.1812 2.7708-1.9375 4.0687-1.1906 2.0434-2.7733 3.8337-4.0687 5.8124-1.4924 2.2797-4.2624 6.9749-4.2624 6.9749s-6.3612-4.4794-9.6873-6.4905c-3.3014-1.9962-6.7506-3.7386-10.172-5.5218-2.4971-1.3016-4.9587-2.6902-7.5561-3.778-3.5886-1.503-7.3215-2.6451-11.044-3.7781-2.7501-0.83708-5.5398-1.5408-8.3311-2.2281-3.5675-0.87843-10.753-2.4218-10.753-2.4218s5.0372 0.0807 7.5561 0.0969z" fill="#fcbe0e"/>
  <path d="m15.079 92.86c12.206-0.0323 23.513-0.24448 36.618-0.19374 2.1786 8e-3 4.4215-2.282 6.3936-1.3562 4.0278 1.8907 6.9423 3.4445 10.269 5.4249 4.4017 2.6207 12.787 8.5248 12.787 8.5248s5.4953-10.391 8.9123-13.562c0.76471-0.70979 1.8727 1.0191 2.9062 1.1625 1.2221 0.1695 2.4479-0.35147 3.6812-0.38749 2.7788-0.0812 5.9112-0.98089 8.3311 0.38749 0.81077 0.45846 1.4614 1.3978 1.55 2.325 0.4846 5.0761 5e-3 9.7198 0.19375 14.725 0.0426 1.1271-0.22862 3.0752-1.3562 3.0999-34.991 0.76616-66.023-0.55255-97.648 0-0.9534 0.0167-1.4524-1.57-1.3562-2.5187 0.52802-5.2094-0.46296-10.219 0-14.918 0.11273-1.1443 1.097-2.2098 2.1312-2.7124 1.9749-0.95986 4.3916 6e-3 6.5874 0z" fill="#964b21"/>
  <path d="m14.692 115.91c30.289-0.0323 59.264-0.62584 90.867-0.19375 1.1642 0.0159 3.2331-2.1e-4 3.2937 1.1625 0 0 0.77346 8.49-0.58123 12.4-0.36377 1.0499-1.1915 1.889-1.9375 2.7124-0.92186 1.0175-1.7323 2.5911-3.0999 2.7124-16.065 1.4257-29.447 0.72902-44.174 0.77499-11.432 0.0357-22.863-0.17639-34.293-0.38749-5.0382-0.0931-9.6647 0.72433-15.112-0.3875-2.0602-0.42048-3.7035-2.3848-4.6499-4.2624-1.1107-2.2036-0.74031-4.8949-0.77499-7.3624-0.02367-1.6839-0.14506-3.4397 0.38749-5.0374 0.26628-0.79884 0.61808-1.726 1.3562-2.1312 2.5476-1.3985 5.8124 3e-3 8.7186 0z" fill="#f9a51a"/>
 
</svg>
