<?xml version="1.0" encoding="UTF-8"?>
<svg width="708" height="554" version="1.1" viewBox="-.5 0 187.32 146.58" xmlns="http://www.w3.org/2000/svg">

 <g transform="translate(-8.0618 -55.581)">
  <g transform="translate(.74441 -1.2226)">
   <path d="m178.79 188.79-16.482-24.365s-7.0646 5.2836-10.749 7.7035c-2.9105 1.9115-5.8828 3.7403-8.9576 5.3746-2.6186 1.3918-5.3332 2.6009-8.0618 3.7622-4.1226 1.7546-8.2648 3.4986-12.541 4.8371-4.3402 1.3586-8.7785 2.4345-13.257 3.2247-3.7278 0.65769-7.5057 1.0693-11.287 1.2541-4.5931 0.22449-9.2209 0.29825-13.795-0.17916-4.9039-0.51187-9.761-1.5456-14.511-2.8664-3.549-0.98681-7.0519-2.2062-10.391-3.7622-4.7534-2.2152-9.3714-4.8022-13.616-7.8827-3.7647-2.7325-7.1567-5.9723-10.391-9.3159-3.6839-3.8086-7.0783-7.9094-10.212-12.182-2.4295-3.313-4.6544-6.7879-6.6286-10.391-1.7717-3.2334-3.2541-6.6232-4.6579-10.032-0.87027-2.1135-2.329-6.4495-2.329-6.4495s2.968-7.5277 4.8371-11.107c2.1095-4.0402 4.5688-7.8996 7.1661-11.645 2.7161-3.9165 5.6078-7.728 8.7784-11.287 3.062-3.4367 6.3012-6.7469 9.8534-9.6742 3.5792-2.9496 7.4305-5.5962 11.466-7.8827 3.9989-2.266 8.1879-4.2564 12.541-5.7329 5.5698-1.8893 11.351-3.3124 17.199-3.9413 5.4034-0.58117 10.89-0.31138 16.303 0.17915 4.2239 0.38281 8.4063 1.2038 12.541 2.1498 4.4219 1.0118 8.8247 2.1857 13.078 3.7622 4.4349 1.6437 8.6657 3.8024 12.899 5.912 3.8263 1.9068 7.6963 3.7703 11.287 6.0912 2.1466 1.3876 4.1071 3.0465 6.0912 4.658 1.7748 1.4415 3.2728 3.2412 5.1954 4.4788 0.71895 0.46279 1.4808 1.1829 2.329 1.0749 0.84194-0.10722 1.505-0.90278 1.9707-1.6124 5.7072-8.6963 12.439-17.777 18.811-27.41 0.47172-0.71312 0.89149-1.4939 1.0749-2.329 0.14092-0.6416 0.11397-1.3237 0-1.9707-0.12127-0.68837-0.19739-1.5027-0.71661-1.9707-0.5487-0.49452-1.4298-0.70217-2.1498-0.53746-0.90933 0.20801-1.461 1.1625-2.1498 1.7915-0.37417 0.3417-0.78419 0.65988-1.0749 1.0749-5.3222 7.598-16.84 25.081-16.84 25.081s-6.3385-4.705-9.6742-6.8078c-4.2296-2.6663-8.5862-5.1494-13.078-7.3452-2.9095-1.4223-5.9138-2.656-8.9576-3.7622-3.9944-1.4516-8.056-2.7443-12.182-3.7622-6.0156-1.4839-12.093-2.9627-18.273-3.4039-4.2925-0.3064-8.6058 0.24051-12.899 0.53746-3.7109 0.25668-7.4399 0.45347-11.107 1.0749-2.4848 0.42104-4.9481 1.0137-7.3452 1.7915-4.0505 1.3144-8.013 2.937-11.824 4.8371-4.9127 2.4493-9.7643 5.1226-14.153 8.4201-4.0533 3.0456-7.6266 6.7045-11.107 10.391-3.2021 3.3912-6.2803 6.93-8.9576 10.749-1.9049 2.7173-3.4374 5.6805-5.0163 8.5993-2.0331 3.7584-4.0736 7.528-5.7329 11.466-1.2027 2.8542-3.0456 8.7784-3.0456 8.7784s1.4203 5.2318 2.5081 7.7035c1.9066 4.3321 4.508 8.3294 6.9869 12.361 2.1426 3.485 4.3163 6.9669 6.8078 10.212 2.4223 3.1547 5.0918 6.1238 7.8827 8.9576 3.0555 3.1024 6.2349 6.1077 9.6742 8.7784 2.9957 2.3263 6.1608 4.4623 9.4951 6.2703 3.9498 2.1418 8.142 3.8305 12.361 5.3746 3.513 1.2855 7.0792 2.5001 10.749 3.2247 4.7686 0.9416 9.6522 1.3096 14.511 1.4332 3.7652 0.0958 7.5374-0.17692 11.287-0.53745 3.7241-0.35812 7.4545-0.80393 11.107-1.6124 4.8699-1.0778 9.6551-2.5667 14.332-4.2996 3.8606-1.4304 7.5806-3.223 11.287-5.0163 3.7028-1.7918 7.3907-3.6336 10.928-5.7329 2.0368-1.2087 3.9668-2.5901 5.912-3.9413 2.845-1.9763 8.4201-6.0912 8.4201-6.0912z" fill="#00a859"/>
   <path d="m31.352 138.45c2.6272 3.6396 5.5235 7.1206 8.7784 10.212 2.9016 2.7555 6.1211 5.1938 9.495 7.3452 3.4005 2.1684 6.9963 4.0767 10.749 5.5537 1.4426 0.56778 2.9571 1.5506 4.4788 1.2541 1.6297-0.31754 2.8699-1.7772 3.9413-3.0456 0.65512-0.77553 0.991-1.7735 1.4332-2.6873 1.561-3.2257 3.1648-6.4542 4.2996-9.8534 1.1467-3.4348 1.9593-6.9906 2.5081-10.57 0.38109-2.4855 0.51957-5.0099 0.53746-7.5244 0.01489-2.0935-0.20867-4.1822-0.3583-6.2703-0.24848-3.4676-0.28966-6.9676-0.89576-10.391-0.51775-2.9242-1.3577-5.7929-2.329-8.5993-0.84885-2.4527-1.7594-4.9117-3.0456-7.1661-0.69839-1.2242-1.4655-2.4555-2.5081-3.4039-0.77276-0.70291-1.6698-1.3756-2.6873-1.6124-1.4008-0.32597-2.9226-0.05655-4.2996 0.3583-3.3267 1.0022-6.2202 3.128-9.1367 5.0163-2.8273 1.8305-5.4765 3.9325-8.0618 6.0912-2.3682 1.9773-4.6388 4.0763-6.8078 6.2703-2.2593 2.2854-4.5754 4.5554-6.4495 7.1661-1.2786 1.7811-2.3487 3.723-3.2247 5.7329-0.62633 1.4369-1.3102 2.9161-1.4332 4.4788-0.12323 1.5661 0.16965 3.1853 0.71661 4.658 0.58846 1.5844 1.8046 2.8584 2.6873 4.2996 0.54557 0.89083 1.001 1.8403 1.6124 2.6873z" fill="#00a859"/>
   <path d="m32.606 120.54c2.9493-3.9657 6.6092-7.3658 10.212-10.749 2.4412-2.2926 5.0322-4.4297 7.7035-6.4495 2.7085-2.0478 5.4107-4.1604 8.4201-5.7329 1.9266-1.0066 6.0912-2.329 6.0912-2.329s3.7135 6.7721 5.0163 10.391c1.354 3.7612 2.3368 7.6826 2.8664 11.645 0.64892 4.8551 0.76076 9.8088 0.3583 14.69-0.33969 4.1203-1.2464 8.1923-2.329 12.182-1.0287 3.7916-2.3691 7.5071-3.9413 11.107-0.56657 1.2974-1.9707 3.7622-1.9707 3.7622s-5.9154-1.4786-8.5993-2.8664c-3.9467-2.0409-7.4185-4.9417-10.749-7.8827-3.3249-2.9359-6.3072-6.2583-9.1367-9.6742-1.364-1.6466-2.6534-3.3672-3.7622-5.1954-1.108-1.8268-2.5397-3.6215-2.8664-5.7329-0.17566-1.1352 0.15669-2.3201 0.53746-3.4039 0.47878-1.3627 1.2879-2.6032 2.1498-3.7622z" fill="#fff"/>
   <g>
    <path d="m47.296 110.86c1.1972-0.59142 2.6063-0.69127 3.9413-0.71661 1.2666-0.024 2.6097 0.0117 3.7622 0.53745 1.0784 0.49198 2.0617 1.3221 2.6873 2.329 0.74912 1.2057 1.1327 2.7022 1.0749 4.1205-0.05154 1.2643-0.64594 2.4734-1.2541 3.583-0.51098 0.9324-1.0623 1.9555-1.9707 2.5081-1.0907 0.66348-2.4884 0.80178-3.7622 0.71661-1.5074-0.10079-3.0145-0.63897-4.2996-1.4332-1.0776-0.66599-2.0947-1.5676-2.6873-2.6873-0.59721-1.1283-0.82166-2.4899-0.71661-3.7622 0.09951-1.2051 0.57832-2.4011 1.2541-3.4039 0.49612-0.7362 1.1747-1.3983 1.9707-1.7915z" fill="#00a859"/>
    <ellipse cx="52.85" cy="118.65" rx="3.583" ry="3.4935" fill="#fff" style="paint-order:fill markers stroke"/>
    <path d="m75.781 127.34c0.03266-0.97158 1.9707-2.1498 1.9707-2.1498s8.477-0.44786 12.72-0.53746c7.9406-0.16769 15.887-0.16536 23.827 0 2.8683 0.0597 5.731 0.29857 8.5993 0.3583 7.9407 0.16536 15.885 0.0827 23.827 0 2.8669-0.0299 8.5993-0.17915 8.5993-0.17915s2.3573 0.91818 2.5081 1.9707c0.1457 1.017-1.7915 2.5081-1.7915 2.5081s-6.6843-0.5431-10.032-0.71661c-1.8497-0.0959-3.7047-0.28711-5.5537-0.17915-1.2057 0.0704-2.3858 0.37864-3.583 0.53746-1.5494 0.20553-3.0954 0.50088-4.658 0.53745-2.6329 0.0616-5.2523-0.40672-7.8827-0.53745-1.9095-0.0949-3.8228-0.0948-5.7329-0.17916-2.0915-0.0924-4.1784-0.44039-6.2703-0.3583-2.6498 0.10399-5.2369 0.89535-7.8827 1.0749-1.4299 0.0971-2.867 0.039-4.2996 0-3.2881-0.0896-6.5711-0.32172-9.8533-0.53745-1.5539-0.10213-3.1007-0.34817-4.658-0.35831-2.8124-0.0183-5.8478 1.6744-8.4201 0.53746-0.69948-0.30915-1.4589-1.0272-1.4332-1.7915z" fill="#00a859"/>
    <path d="m157.12 119.28c1.1615-2.8431 2.3384-5.7396 4.1205-8.241 2.2298-3.1298 5.1333-5.7528 8.0618-8.241 2.6135-2.2205 5.5176-4.0854 8.4201-5.912 2.376-1.4952 4.8234-2.8871 7.3452-4.1205 1.1059-0.54089 2.1798-1.3022 3.4039-1.4332 0.96661-0.10342 2.0744-0.0262 2.8664 0.53746 0.78453 0.55831 1.2305 1.5668 1.4332 2.5081 0.26519 1.2315-0.0447 2.5421-0.3583 3.7622-0.59919 2.3315-1.8194 4.461-2.8664 6.6286-3.3002 6.8323-7.101 13.947-10.749 20.065-0.32513 0.54522-1.2157 0.65768-1.4332 1.2541-0.26908 0.73793 0.1075 1.5846 0.3583 2.329 0.75938 2.2537 2.2481 4.1918 3.4039 6.2703 2.4046 4.3243 5.0981 8.4908 7.3452 12.899 1.5779 3.0954 3.6475 6.0824 4.2996 9.495 0.23564 1.2332 0.13829 2.5475-0.17915 3.7622-0.20257 0.77516-0.44542 1.6542-1.0749 2.1498-0.62599 0.49287-1.5325 0.55797-2.329 0.53746-2.6076-0.0672-5.0933-1.2042-7.5244-2.1498-1.7423-0.67772-3.4028-1.5638-5.0162-2.5081-3.8596-2.2589-7.8095-4.504-11.107-7.5244-2.4417-2.2362-4.5912-4.8499-6.2703-7.7035-1.1416-1.9402-1.9793-4.0822-2.5081-6.2703-1.0293-4.2587-0.71661-8.0618-1.4332-12.541-0.30731-1.9207 1.0559-3.753 1.7915-5.5537z" fill="#00a859"/>
   </g>
   <path d="m188.65 95.275s-4.7603 1.9513-6.9869 3.2247c-3.0917 1.7681-6.0624 3.7873-8.7784 6.0912-2.1578 1.8303-4.102 3.9164-5.912 6.0912-1.7808 2.1396-3.6275 4.3005-4.8371 6.8078-1.2154 2.5193-1.904 5.2971-2.329 8.0618-0.38116 2.4797-0.63087 5.0565-0.17915 7.5244 0.37138 2.0289 1.5044 3.8422 2.329 5.7329 0.79032 1.8122 1.3978 3.7388 2.5081 5.3746 1.6133 2.3769 3.6458 4.505 5.912 6.2703 2.805 2.1849 6.152 3.5731 9.3159 5.1954 2.8764 1.4749 5.7082 3.1094 8.7784 4.1205 0.28922 0.0952 0.89576 0.17915 0.89576 0.17915s-1.6241-4.2-2.5081-6.2703c-0.85008-1.9908-1.7368-3.9671-2.6873-5.912-1.2432-2.5438-2.5968-5.0326-3.9413-7.5244-0.87587-1.6233-1.7545-3.2459-2.6873-4.8371-1.2068-2.0588-2.969-3.8404-3.7622-6.0912-0.48008-1.3622-1.0062-2.9335-0.53746-4.2996 0.35631-1.0385 1.6678-1.4525 2.329-2.329 1.481-1.9634 2.4081-4.289 3.583-6.4495 2.0039-3.6846 4.0651-7.3417 5.912-11.107 1.1534-2.3518 2.5066-4.647 3.2247-7.1661 0.24774-0.86906 0.35831-2.6873 0.35831-2.6873z" fill="#fff"/>
   <path d="m86.172 115.52c0.02986-8.3606-0.87247-17.045 0.17915-25.081 0.11827-0.90384 0.60796-1.9418 1.4332-2.329 0.38229-0.17933 0.92987-0.09141 1.2541 0.17915 1.0149 0.847 1.2681 2.4404 1.2541 3.7622-0.10313 9.6804-0.83818 19.949-0.53746 29.918 0.09211 3.0536 0.59708 6.0842 0.71661 9.1368 0.24533 6.2655 0.0475 12.541 0 18.811-0.02986 3.9417 0.45829 7.9341-0.17915 11.824-0.25349 1.5469-0.0637 3.7162-1.4332 4.4788-0.64536 0.35934-1.6522 8e-3 -2.1498-0.53746-1.5875-1.7413-0.91741-4.6358-1.0749-6.9869-0.63478-9.4755 0.44788-18.989 0.53746-28.485 0.04619-4.8966-0.01749-9.7937 0-14.69z" fill="#00a650"/>
   <path d="m100.15 121.25c-0.23231-10.329-0.59615-20.567-0.17915-30.993 0.03705-0.92632 0.0078-2.0897 0.71661-2.6873 0.50431-0.42514 1.3756-0.46372 1.9707-0.17915 0.77698 0.37156 1.1672 1.3307 1.4332 2.1498 0.46147 1.4211 0.17003 2.9847 0.17915 4.4788 0.0262 4.3012-0.34159 8.5977-0.35831 12.899-0.0116 2.9864 0.1172 5.9718 0.17916 8.9576 0.11526 5.5538 0.3704 11.106 0.3583 16.661-0.0151 6.9295-0.44788 13.853-0.53746 20.782-0.0494 3.8216 0.46247 7.535 0 11.466-0.084 0.71416-0.74271 1.4116-1.4332 1.6124-0.41746 0.12137-0.91535-0.0857-1.2541-0.3583-0.68694-0.55275-1.2829-1.4477-1.2541-2.329 0.13916-4.2572 0.44786-8.3575 0.53746-12.541 0.14834-6.9256 0.13575-13.856 0-20.782-0.0597-3.0473-0.28977-6.0896-0.35831-9.1368z" fill="#00a859"/>
   <g fill="#00a650">
    <path d="m114.3 115.16c0.0155-3.764-0.49593-7.525-0.3583-11.287 0.0834-2.2803 0.35762-4.5544 0.71661-6.8078 0.13452-0.84437-0.19168-2.0615 0.53745-2.5081 0.79056-0.48421 2.0952 0.0032 2.6873 0.71661 0 0 0.63273 6.3221 0.71661 9.495 0.14049 5.3143-0.34441 10.628-0.35831 15.945-9e-3 3.4641 0.13544 6.927 0.17916 10.391 0.0942 7.4643 0.74877 14.951 0.17915 22.394-0.17081 2.2319 0.70001 5.2648-1.0749 6.6286-0.47588 0.36567-1.3133 0.18344-1.7915-0.17916-1.1753-0.89111-1.3585-2.6676-1.6124-4.1205-1.1414-6.5321 0.8501-13.262 0.53746-19.886-0.11629-2.4638-0.79543-4.8807-0.89576-7.3452-0.18232-4.4787 0.51898-8.954 0.53745-13.436z"/>
    <path d="m128.27 120.89c0.0363-3.0477 0.43268-6.0897 0.3583-9.1367-0.0497-2.0377-0.53745-6.0912-0.53745-6.0912 0.33638-0.73931 1.1654-1.3273 1.9707-1.4332 0.82466-0.10849 1.848 0.21712 2.329 0.89576 0 0 0.1709 4.0599 0.17916 6.0912 0.0114 2.8073-0.19768 5.6128-0.17916 8.4201 0.0229 3.4656 0.3319 6.9252 0.35831 10.391 0.0237 3.1058-0.0598 6.2123-0.17915 9.3159-0.1195 3.1082 0.27829 5.5919-0.53746 9.3159-0.12123 0.55341-1.061 0.66762-1.6124 0.53746-0.82194-0.19403-1.4075-1.0393-1.7915-1.7915-0.68746-1.3466-0.63577-2.969-0.7166-4.4788-0.18542-3.4633 0.47451-6.9232 0.53745-10.391 0.0704-3.8814-0.22537-7.7631-0.17915-11.645z"/>
    <path d="m141.53 131.28c0.1408 2.4451-0.16866 4.9209 0.17915 7.3452 0.13165 0.91767 0.0501 2.0429 0.71661 2.6873 0.57281 0.55377 1.586 0.82499 2.329 0.53745 0.88058-0.34076 1.3308-1.4277 1.6124-2.329 0.53417-1.71 0.0812-3.5849 0-5.3746-0.0897-1.9768-0.48732-3.9338-0.53746-5.912-0.0379-1.4936 0.12355-2.9857 0.17916-4.4788 0.0645-1.7316 0.19607-3.4626 0.17915-5.1954-0.0216-2.2127-0.35831-6.6286-0.35831-6.6286-0.72385-1.0396-3.506-0.70316-3.7622 0.53745 0 0 0.7208 4.5645 0.35831 6.8078-0.23527 1.456-1.4049 2.6603-1.6124 4.1205-0.37121 2.6122 0.56493 5.2486 0.71661 7.8827z"/>
   </g>
   <g fill="none" stroke-width=".79375">
    <path d="m89.717 88.264-45.614-29.906" stroke="#00a859"/>
    <path d="m117.88 95.275c-13.967-27.553-13.967-27.553-13.967-27.553" stroke="#00a650"/>
    <path d="m145.83 111.94 22.126-51.162" stroke="#00a650"/>
    <path d="m119.32 159.25 33.531 32.927" stroke="#00a859"/>
    <path d="m90.019 164.39 1.2083 37.76" stroke="#00a650"/>
   </g>
  </g>
 </g>
</svg>
