<?xml version="1.0" encoding="UTF-8"?>
<svg width="1029" height="535" version="1.1" viewBox="0 0 1029 535" xmlns="http://www.w3.org/2000/svg">

<defs>
  <pattern id="circulo" viewBox="0,0,5,5" width="2%" height="5%">
    <circle cx="2" cy="2" r="2" fill="red"/>
  </pattern>
</defs>

 <rect x="0" y="0" width="1029" height="535" fill="white" stroke=""/>
 <rect x="0" y="0" width="1029" height="535" fill="url(#circulo)" stroke=""/>

<g class="estrella">
  <path d="m100.19 94.15s-16.968-12.249-25.113-14.362c-4.5289-1.1747-0.44901 14.029-0.44901 14.029s-7.5354-13.081-9.2516-9.108c-4.454 10.31-3.2435 28.747-3.2435 28.747s-3.3907-16.184-7.602-27.913c-1.5707-4.3746-9.2256 10.456-9.2256 10.456s2.4367-16.802-1.1136-13.836c-8.3035 6.9389-22.621 18.034-22.621 18.034s8.7815-13.577 14.362-25.113c1.7857-3.6913-12.257 1.0508-12.257 1.0508s11.617-10.053 7.3355-10.751c-11.109-1.8122-28.747-3.2435-28.747-3.2435s21.309-4.4276 27.913-7.602c3.6018-1.7314-8.4108-8.5438-8.4108-8.5438s13.578 1.7553 11.79-1.7953c-5.3456-10.615-18.034-22.621-18.034-22.621s16.526 13.473 25.113 14.362c4.6163 0.47797-0.91446-13.893-0.91446-13.893s8.8006 13.234 10.615 8.9717c3.7799-8.8799 3.2435-28.747 3.2435-28.747s2.2657 20.973 7.602 27.913c2.8994 3.771 9.0892-11.001 9.0892-11.001s-3.0348 16.57 1.25 14.381c7.4976-3.8312 22.621-18.034 22.621-18.034s-10.628 16.852-14.362 25.113c-1.8689 4.1348 13.484-1.8689 13.484-1.8689s-13.162 10.204-8.5627 11.57c9.5762 2.8422 28.747 3.2435 28.747 3.2435s-18.461 4.0821-27.913 7.602c-4.5044 1.6774 10.729 9.6346 10.729 9.6346s-15.31-3.8481-14.108 0.70457c2.0326 7.6988 18.034 22.621 18.034 22.621z"/>
</g>

<style>
  .estrella{
      fill: yellow;
      stroke: #000;
      stroke-width: 2;
      transform: translate(500px, 1px) scale(5);
  }
</style>

</svg>
