<?xml version="1.0" encoding="UTF-8"?>
<svg width="777" height="1017" version="1.1" viewBox="0 0 75.58 70.08" xmlns="http://www.w3.org/2000/svg">

  <path d="m2.116 29.406s4.3912 9.1133 6.1388 13.852c1.7807 4.8282 4.4073 14.796 4.4073 14.796l7.5554-4.7221s0.0625-2.3103 0-3.4629c-0.13136-2.4242-0.65567-4.8164-0.78703-7.2406-0.0908-1.6765 0-5.0369 0-5.0369l5.1944 14.481 8.3424-4.4073-2.0463-10.861s1.1526 2.0697 1.8888 2.9907c0.7413 0.92735 1.4813 1.9407 2.5185 2.5185 0.80049 0.44592 1.7608 0.67797 2.6759 0.62962 1.1102-0.05867 2.2736-0.41532 3.1481-1.1018 0.98446-0.77283 1.5029-2.0206 2.0463-3.1481 0.64826-1.3452 1.0614-2.7995 1.4166-4.2499 0.31602-1.2902 0.62962-3.9351 0.62962-3.9351l6.1388 16.527 7.398-2.0463-1.2592-17.314 6.611 12.907 6.9258-3.9351s-1.4659-6.3673-1.8888-9.6017c-0.62048-4.7446-0.78694-9.5414-0.94443-14.324-0.095-2.8842 0-8.6572 0-8.6572l-6.611 4.2499 2.2037 19.99-7.398-21.092-3.6203 2.2037 1.8888 18.574-6.1388-14.796-6.7684 4.5647s-1.1904-0.89317-1.8888-1.1018c-0.9565-0.28577-2.0229-0.40243-2.9907-0.1574-1.073 0.27167-2.0354 0.9644-2.8333 1.7314-0.81828 0.78662-1.3296 1.8456-1.8888 2.8333-0.54349 0.9599-1.4166 2.9907-1.4166 2.9907l-0.94443-8.4998-7.5554 4.2499s0.53948 5.4686 0.94443 8.185c0.5584 3.7458 2.0463 11.176 2.0463 11.176l-7.7128-21.879-3.7777 2.9907 2.2037 18.259-6.1388-15.268z" fill="#f5b704" stroke="#000"/>
  <ellipse cx="37.71" cy="29.035" rx="4.1007" ry="5.9109" fill="#800080" stroke="#000"/>

</svg>
