<?xml version="1.0" encoding="UTF-8"?>
<svg width="687" height="656" version="1.1" viewBox="0 0 181.77 173.57" xmlns="http://www.w3.org/2000/svg">

 <g transform="translate(-20.461 -16.358)">
  <g transform="translate(1.3102 -1.2889)">
   <g>
    <path d="m96.052 165.53c1.875-1.7761 3.7766-3.6041 6.0312-4.8639 2.8829-1.6108 6.1199-2.569 9.3386-3.3074 2.8619-0.65659 5.82-1.0619 8.755-0.97278 3.4208 0.10389 6.779 0.99487 10.117 1.751 2.1025 0.47629 4.2064 0.99627 6.2258 1.751 2.4185 0.9039 4.7033 2.1356 7.004 3.3074 2.7672 1.4094 8.1713 4.4748 8.1713 4.4748s-1.8288-6.0392-2.3346-9.1441c-0.42872-2.6313-0.70641-5.3135-0.58367-7.9767 0.10896-2.3644 0.60614-4.7046 1.1673-7.004 0.59811-2.4506 1.0376-5.035 2.3347-7.1985 1.25-2.0849 3.1884-3.6999 5.0584-5.253 2.2693-1.8847 4.7344-3.5859 7.3931-4.8639 2.4584-1.1817 7.7822-2.5292 7.7822-2.5292s6.0575-1.4282 9.1441-1.751c3.3546-0.35087 6.7441-0.16212 10.117-0.19455 2.5291-0.0243 7.5876 0 7.5876 0s-2.8719-1.5236-4.2802-2.3347c-1.8409-1.0601-3.7094-2.0861-5.4475-3.3074-1.7734-1.2462-3.6254-2.4595-5.0584-4.0856-1.7134-1.9444-3.1431-4.2007-4.0856-6.6149-0.74476-1.9075-1.1661-3.9835-1.1673-6.0312-1e-3 -1.717 0.45601-3.421 0.97278-5.0584 0.62029-1.9655 1.4674-3.8756 2.5292-5.6421 1.1428-1.9012 2.7522-3.4803 4.0856-5.253 0.53025-0.70491 1.5564-2.1401 1.5564-2.1401s-3.0104-0.23945-4.4748-0.58366c-1.9366-0.45524-3.9048-0.9763-5.6421-1.9455-1.6098-0.89814-3.0128-2.1634-4.2802-3.502-1.4358-1.5165-2.8357-3.1557-3.6965-5.0584-0.73938-1.6342-1.0402-3.4638-1.1673-5.253-0.17982-2.5303 0.0916-5.0991 0.58366-7.5876 0.48927-2.4746 1.4899-4.8216 2.3347-7.1985 0.72192-2.0313 2.3347-6.0312 2.3347-6.0312s-4.3651 3.7553-6.8094 5.253c-1.1626 0.71232-2.4566 1.1839-3.6965 1.751-2.1917 1.0023-4.3435 2.1126-6.6149 2.9183-1.3938 0.49439-2.8242 0.90857-4.2802 1.1673-2.243 0.39861-4.5316 0.54617-6.8094 0.58367-1.2337 0.02031-2.4757-0.01554-3.6965-0.19456-2.4433-0.35828-4.9239-0.78959-7.1985-1.751-2.4694-1.0437-4.6755-2.6572-6.8094-4.2802-2.375-1.8063-4.6448-3.7901-6.6149-6.0312-1.5679-1.7837-2.8264-3.8232-4.0856-5.8366-0.7081-1.1322-1.4078-2.2796-1.9456-3.502-0.24773-0.56316-0.58366-1.751-0.58366-1.751s-1.0286 3.1722-1.751 4.6693c-1.6434 3.4057-3.5886 6.687-5.8366 9.7277-1.0374 1.4032-2.0672 2.8979-3.502 3.8911-1.317 0.91163-2.8832 1.5705-4.4748 1.751-1.7588 0.19952-3.5582-0.26746-5.253-0.77822-2.1944-0.66133-4.3264-1.6355-6.2258-2.9183-2.1294-1.4382-3.8687-3.3934-5.6421-5.253-1.5243-1.5984-4.2802-5.0584-4.2802-5.0584s-0.17325 6.3761-0.58366 9.5332c-0.25577 1.9675-0.65808 3.919-1.1673 5.8366-0.57901 2.1803-1.1312 4.4026-2.1401 6.4203-0.45857 0.91714-1.0296 1.8005-1.751 2.5292-2.2913 2.3145-4.8425 4.7569-7.9767 5.6421-2.877 0.8125-6.0339 0.07695-8.9495-0.58366-2.3842-0.54021-4.6559-1.5667-6.8094-2.7238-1.8065-0.97062-3.3581-2.3554-5.0584-3.502-4.3098-2.9064-13.035-8.5604-13.035-8.5604s1.9196 4.9391 2.9183 7.3931c0.8218 2.0192 1.929 3.9354 2.5292 6.0312 0.66926 2.3369 1.1397 4.7678 1.1673 7.1985 0.02682 2.3569-0.24823 4.761-0.97278 7.004-0.76691 2.3741-1.8621 4.7347-3.502 6.6149-1.6799 1.926-4.0051 3.2098-6.2258 4.4748-1.9682 1.1212-6.2258 2.7238-6.2258 2.7238s3.75 2.4541 5.253 4.0856c1.365 1.4817 2.3387 3.292 3.3074 5.0584 1.0607 1.9341 2.1354 3.9052 2.7238 6.0312 0.74876 2.7057 0.94232 5.5586 0.97278 8.3658 0.03745 3.4522-0.19474 6.9478-0.97278 10.311-0.95278 4.119-2.9039 7.9427-4.4748 11.868-1.544 3.8581-4.8639 11.479-4.8639 11.479s5.5432-2.0493 8.3659-2.9183c3.5933-1.1063 7.1809-2.3348 10.895-2.9183 2.5658-0.40312 5.1862-0.47116 7.7822-0.38911 2.8704 0.0907 5.771 0.28968 8.5604 0.97277 0.87735 0.21485 1.7048 0.60355 2.5292 0.97277 2.3294 1.0433 4.704 2.0591 6.8094 3.502 1.9325 1.3244 3.8279 2.8098 5.253 4.6693 3.0873 4.0285 4.8487 8.9374 6.8094 13.619 2.0124 4.8048 5.0584 14.786 5.0584 14.786s1.8395-5.0419 3.1129-7.3931c1.3791-2.5464 3.0803-4.917 4.8639-7.1985 1.0747-1.3748 2.2351-2.6911 3.502-3.8911z"/>
    <path d="m81.849 189.85s2.2971-8.4662 4.0856-12.452c1.3207-2.9429 3.0056-5.7292 4.8639-8.3658 2.2005-3.1221 4.519-6.2391 7.3931-8.755 2.0846-1.8248 4.4782-3.3364 7.004-4.4748 2.1522-0.96992 4.4933-1.4894 6.8094-1.9456 1.7286-0.34047 3.4917-0.54234 5.253-0.58366 3.0534-0.0716 6.1511-0.0249 9.1441 0.58366 3.8389 0.78059 7.5139 2.2908 11.09 3.8911 1.9606 0.87744 3.7601 2.0777 5.6421 3.1129 2.009 1.105 6.0312 3.3074 6.0312 3.3074s-1.4543-5.0232-1.9455-7.5876c-0.47971-2.5044-0.9578-5.0378-0.97278-7.5876-0.0165-2.8074 0.2049-5.6655 0.97278-8.3658 0.62688-2.2045 1.6018-4.3496 2.9183-6.2258 1.5277-2.1772 3.5153-4.045 5.6421-5.6421 1.1837-0.88889 2.5956-1.424 3.8911-2.1401 1.7531-0.96905 3.4195-2.1118 5.253-2.9183 1.1263-0.49547 2.306-0.87819 3.502-1.1673 3.3164-0.80175 6.7165-1.2748 10.117-1.5564 5.1062-0.42301 15.37-0.19455 15.37-0.19455s-6.1044-3.4223-8.9495-5.4475c-1.5762-1.122-3.127-2.3085-4.4748-3.6965-1.5453-1.5914-3.17-3.2325-4.0856-5.253-0.70878-1.5639-0.86332-3.3449-0.97277-5.0584-0.13254-2.0751-0.1201-4.2098 0.38911-6.2258 0.68218-2.7008 1.9823-5.2531 3.502-7.5876 1.1782-1.81 4.2802-4.8639 4.2802-4.8639s-4.225-0.33337-6.2258-0.97277c-1.3813-0.44144-2.6871-1.1373-3.8911-1.9455-1.7171-1.1528-3.4049-2.4491-4.6693-4.0857-1.1526-1.4918-1.9863-3.2531-2.5292-5.0584-0.62086-2.0644-0.82057-4.265-0.77822-6.4203 0.04-2.036 0.44229-4.0651 0.97277-6.0312 0.47061-1.7442 1.2424-3.3943 1.9456-5.0584 0.72282-1.7106 2.3347-5.0584 2.3347-5.0584l-3.1129 1.1673 0.97277-2.5292s-4.3727 3.624-6.8094 5.0584c-3.2515 1.9141-6.7559 3.4065-10.311 4.6693-1.2007 0.42642-2.4435 0.74212-3.6965 0.97278-1.7961 0.3306-3.6218 0.62558-5.4475 0.58366-2.5583-0.05874-5.1293-0.45673-7.5876-1.1673-1.5625-0.45165-3.0688-1.1278-4.4748-1.9455-1.1212-0.65212-2.107-1.5158-3.1129-2.3347-1.1402-0.92821-2.2724-1.8741-3.3074-2.9183-0.90618-0.91427-1.7264-1.9121-2.5292-2.9183-1.5047-1.8859-2.9828-3.8026-4.2802-5.8366-0.79605-1.248-2.1401-3.8911-2.1401-3.8911l-1.1673 0.58367-1.751-1.3619s-0.90093 3.2929-1.5564 4.8639c-0.64786 1.5527-1.4455 3.0465-2.3346 4.4748-1.275 2.0482-2.3069 4.4485-4.2802 5.8366-1.4937 1.0508-3.4272 1.5957-5.253 1.5564-2.1939-0.04722-4.259-1.1668-6.2258-2.1401-2.7244-1.3483-5.2928-3.065-7.5876-5.0584-2.4273-2.1085-6.4203-7.1985-6.4203-7.1985s-0.16125 7.4357-0.77822 11.09c-0.53695 3.18-1.3525 6.336-2.5292 9.3386-0.56096 1.4314-1.1519 2.9079-2.1401 4.0856-1.8426 2.196-4.1513 4.1794-6.8094 5.253-1.6336 0.6598-3.4948 0.6963-5.253 0.58367-2.4644-0.15788-4.9115-0.81948-7.1985-1.751-3.77-1.5355-6.9227-4.2942-10.506-6.2258-2.6041-1.4038-7.9767-3.8911-7.9767-3.8911s1.48 6.2459 2.3347 9.3386c0.59562 2.1554 1.6513 4.2035 1.9455 6.4203 0.28174 2.1225 0.18038 4.3123-0.19456 6.4203-0.25139 1.4134-0.73769 2.7929-1.3619 4.0856-0.77429 1.6036-1.7173 3.16-2.9183 4.4748-1.0588 1.1591-2.3858 2.0543-3.6965 2.9183-2.1563 1.4215-6.8094 3.6965-6.8094 3.6965s3.2024 2.7923 4.4748 4.4748c1.5236 2.0146 2.8015 4.2529 3.6965 6.6149 1.2936 3.4139 2.1283 7.0556 2.3347 10.701 0.18058 3.1891-0.36953 6.3964-0.97277 9.5332-0.62414 3.2454-1.5107 6.459-2.7238 9.5332-1.0965 2.7789-2.8963 5.2363-4.0856 7.9767-0.686 1.5807-1.751 4.8639-1.751 4.8639l2.3347-0.77822v1.5564s5.0147-1.9483 7.5876-2.7238c3.6445-1.0985 7.3045-2.3221 11.09-2.7238 4.3872-0.46556 8.8541-0.17452 13.23 0.3891 0.85814 0.11053 1.7131 0.29616 2.5292 0.58367 2.1065 0.74213 4.2663 1.5497 6.0312 2.9183 1.7454 1.3535 2.9339 3.3074 4.2802 5.0584 1.59 2.068 3.3399 4.0715 4.4748 6.4203 1.1782 2.4386 1.787 5.1298 2.3347 7.7822 0.56767 2.7494 0.66558 5.5753 0.97278 8.3658 0.54935 4.9903 1.5564 14.981 1.5564 14.981z"
    fill="#f00"/>
   </g>
   <g transform="translate(71.392 43.995)">
    <path d="m3.3258 22.338-6.3283-13.069s2.3302-0.69387 3.1641-1.5133c1.1702-1.1499 1.7675-2.82 2.2011-4.4023 0.34022-1.2415-0.02061-2.5992 0.27514-3.852 0.33066-1.4007 1.2608-2.6042 1.6509-3.9896 0.23908-0.84906 0.52194-1.7386 0.41271-2.6138-0.08649-0.6931-0.36287-1.4026-0.82543-1.926-0.84378-0.95469-2.1033-1.4932-3.3017-1.926-1.3117-0.47379-4.1271-0.68785-4.1271-0.68785s-0.8742-2.3473-1.6509-3.3017c-0.70066-0.86102-1.6085-1.5929-2.6138-2.0636-0.80637-0.37755-1.724-0.5818-2.6138-0.55028-1.0009 0.03545-2.0049 0.35488-2.889 0.82543-1.0055 0.53516-1.9948 1.245-2.6138 2.2011-0.18144 0.28023-0.27514 0.963-0.27514 0.963s-2.1463-0.99638-3.3017-1.1006c-0.96884-0.08736-2.0489-0.0778-2.889 0.41271-0.6495 0.37924-1.0396 1.1156-1.3757 1.7884-0.38287 0.76636-0.68785 2.4763-0.68785 2.4763s-2.8785 0.41638-4.1271 1.1006c-0.65466 0.35872-1.2107 0.91036-1.6509 1.5133-0.38715 0.53028-0.32265 1.3662-0.82542 1.7884-1.235 1.0373-3.2348 0.51702-4.6774 1.2381-0.99294 0.49633-1.9043 1.2099-2.6138 2.0636-0.62938 0.75717-1.243 1.6382-1.3757 2.6139-0.14549 1.0695 0.33888 2.1428 0.68786 3.1641 0.34486 1.0093 0.72155 2.0465 1.3757 2.889 0.65897 0.84866 2.4763 2.0636 2.4763 2.0636s-1.1406 1.8486-1.3757 2.889c-0.29308 1.2972-0.52546 2.7679 0 3.9896 0.47423 1.1025 1.4989 2.032 2.6138 2.4763 1.3206 0.52622 2.8732 0.29106 4.2647 0 0.78389-0.16397 2.2011-0.963 2.2011-0.963s1.3338 1.8852 2.3387 2.3387c1.3401 0.60477 2.9331 0.33356 4.4023 0.27514 1.296-0.05153 2.6919 0.02977 3.852-0.55028 0.92808-0.46404 1.3185-1.6556 2.2011-2.2011 0.49342-0.30495 1.0886-0.40756 1.6509-0.55028 0.78056-0.19815 2.3789-0.42175 2.3789-0.42175l10.415 10.74s3.208 2.504 4.4023 1.5133c1.4625-1.2132-0.82543-5.6404-0.82543-5.6404z" stroke="#000600" stroke-linecap="round" stroke-width=".26458"/>
    <path d="m-26.973-3.908s-4.0228-0.38578-5.9607 0.05322c-1.1456 0.25952-2.2675 0.76716-3.1932 1.4902-0.66598 0.52015-1.2734 1.1884-1.5966 1.9692-0.32751 0.79102-0.34986 1.7026-0.2661 2.5546 0.09992 1.0164 0.38559 2.0477 0.90475 2.9271 1.0269 1.7395 2.7423 2.9704 4.2044 4.3641 0.1365 0.13011 0.42576 0.37254 0.42576 0.37254s-1.3997-0.78267-2.0224-0.47898c-0.64925 0.31665-0.76806 1.2599-0.90475 1.9692-0.20166 1.0465-0.29644 2.23 0.15966 3.1932 0.32788 0.69241 1.0096 1.2177 1.7031 1.5434 1.1354 0.53326 2.478 0.6647 3.7254 0.53221 1.5795-0.16778 2.9818-1.096 4.4705-1.6498 0.28412-0.1057 0.85153-0.31932 0.85153-0.31932s-1.6652 0.81069-1.7563 1.5966c-0.03964 0.34216 0.30903 0.64598 0.58542 0.85153 0.79232 0.58924 1.8438 0.76116 2.8207 0.90475 0.94795 0.13933 1.9348 0.13667 2.8739-0.05322 0.84275-0.1704 1.6974-0.45523 2.3949-0.95797 0.49016-0.35329 1.2095-0.78076 1.1708-1.3837-0.05376-0.83958-1.8627-1.7031-1.8627-1.7031s1.6214 0.4723 2.4481 0.63865c0.86084 0.17319 1.7302 0.40134 2.6078 0.37254 0.68853-0.02259 1.4166-0.09764 2.0224-0.42576 0.68385-0.37044 1.2728-0.96959 1.6498-1.6498 0.45895-0.82805 0.59618-1.8217 0.63865-2.7675 0.04659-1.0376-0.17882-2.0779-0.42576-3.0868-0.1254-0.51233-0.5322-1.4902-0.5322-1.4902s-1.6844 1.0149-2.6078 1.3305c-0.63212 0.21608-1.3017 0.34453-1.9692 0.37254-0.51676 0.02169-1.0489-0.0081-1.5434-0.15966-0.53877-0.16515-1.4902-0.79831-1.4902-0.79831s1.1321 0.17733 1.7031 0.21288c0.72594 0.04519 1.4712 0.15398 2.182 0 0.62849-0.13614 1.243-0.41094 1.7563-0.79831 0.74339-0.561 1.3611-1.3126 1.8095-2.1288 0.37553-0.68361 0.55446-1.4675 0.69186-2.2353 0.1158-0.64706 0.13404-1.3124 0.10644-1.9692-0.02707-0.64421-0.2661-1.9159-0.2661-1.9159s0.76651 1.3014 0.95797 2.0224c0.1781 0.67066 0.19032 1.3824 0.15966 2.0756-0.01907 0.43122-0.09284 0.86268-0.21288 1.2773-0.20343 0.70259-0.47131 1.3975-0.85152 2.0224-0.07202 0.11836-0.2661 0.31932-0.2661 0.31932s0.894 1.8246 1.3837 2.7142c0.2685 0.48775 0.35158 1.1919 0.85152 1.437 0.64214 0.31475 1.4394-0.07603 2.1288-0.2661 0.76578-0.21113 1.491-0.56622 2.182-0.95797 0.71941-0.40783 1.4337-0.85611 2.0224-1.437 0.40664-0.40125 0.73628-0.88295 1.0112-1.3837 0.42168-0.76817 0.70358-1.6096 0.95797-2.4481 0.21617-0.7126 0.42337-1.4395 0.47899-2.182 0.01992-0.26595 0.16969-0.6519-0.05322-0.79831-0.92861-0.60991-3.14 1.1176-3.14 1.1176s1.4504-1.2079 2.1288-1.8627c0.5779-0.55784 1.1589-1.1206 1.6498-1.7563 0.44829-0.58041 0.93865-1.1671 1.1708-1.8627 0.2029-0.60789 0.28548-1.2875 0.15966-1.9159-0.10592-0.52905-0.39634-1.0253-0.74509-1.437-0.57334-0.6768-1.3144-1.2451-2.1288-1.5966-0.85956-0.37098-1.8434-0.32856-2.7675-0.47898-1.045-0.17012-2.1079-0.24283-3.14-0.47898-0.23521-0.05382-0.69187-0.21288-0.69187-0.21288s0.82447-0.11126 1.1176-0.37254c0.21922-0.19538 0.40586-0.50655 0.37254-0.79831-0.05879-0.51478-0.63825-0.81635-0.95797-1.2241-0.38981-0.4971-0.69812-1.0712-1.1708-1.4902-0.43487-0.38546-0.95565-0.67678-1.4902-0.90475-0.50665-0.21608-1.0474-0.38369-1.5966-0.42576-0.65828-0.05043-1.3334 0.03487-1.9692 0.21288-0.60374 0.16905-1.1555 0.49295-1.7031 0.79831-0.48131 0.26841-0.98539 0.52392-1.3837 0.90475-1.1851 1.133-2.8739 3.9915-2.8739 3.9915s0.75528-1.7838 0.37254-2.5546c-0.26133-0.52626-0.96397-0.75402-1.5434-0.85153-0.51482-0.08663-1.0536 0.08533-1.5434 0.2661-0.71641 0.26442-1.4611 0.60072-1.9692 1.1708-0.37509 0.42092-0.49938 1.0135-0.69186 1.5434-0.28952 0.79705-0.38558 1.6574-0.69187 2.4481-0.04298 0.11097-0.15966 0.31932-0.15966 0.31932s-0.61722-0.58421-1.0112-0.69186c-0.25726-0.0703-0.53597 0.0052-0.79831 0.05322-0.41953 0.07678-0.83559 0.1965-1.2241 0.37254-0.55152 0.24992-1.0955 0.55048-1.5434 0.95797-0.41204 0.37488-0.93639 0.7785-1.0112 1.3305-0.01283 0.09467 0.04038 0.19709 0.10644 0.2661 0.41726 0.4359 1.6498 0.74508 1.6498 0.74508z" fill="#fff" stroke="#000" stroke-width=".26458px"/>
    <path d="m-5.6319 18.338-2.661-3.2997 0.05322-1.6498 0.74509-1.5434s-0.15263-1.0111 0.15966-1.3305c0.78929-0.80722 3.3529-0.47898 3.3529-0.47898s5.2447 8.0016 7.3079 12.302c0.47411 0.98816 0.94451 2.003 1.1542 3.0788 0.12901 0.6619 0.28652 1.3897 0.05322 2.0224-0.082568 0.22393-0.2781 0.40332-0.47898 0.5322-0.25029 0.16058-0.55446 0.27976-0.85153 0.2661-0.46076-0.021188-0.86325-0.32894-1.2773-0.5322-0.74954-0.36796-1.5289-0.71304-2.1764-1.2401-3.6439-2.9659-9.3192-10.575-9.3192-10.575s-0.37144-0.57313-0.21288-0.79831c0.12299-0.17466 0.63865-0.05322 0.63865-0.05322l5.7478 6.3865z" fill="#fff" stroke="#000" stroke-width=".26458px"/>
   </g>
   <g transform="matrix(-.97441 .22478 .22478 .97441 128.1 38.625)">
    <path d="m3.3258 22.338-6.3283-13.069s2.3302-0.69387 3.1641-1.5133c1.1702-1.1499 1.7675-2.82 2.2011-4.4023 0.34022-1.2415-0.02061-2.5992 0.27514-3.852 0.33066-1.4007 1.2608-2.6042 1.6509-3.9896 0.23908-0.84906 0.52194-1.7386 0.41271-2.6138-0.08649-0.6931-0.36287-1.4026-0.82543-1.926-0.84378-0.95469-2.1033-1.4932-3.3017-1.926-1.3117-0.47379-4.1271-0.68785-4.1271-0.68785s-0.8742-2.3473-1.6509-3.3017c-0.70066-0.86102-1.6085-1.5929-2.6138-2.0636-0.80637-0.37755-1.724-0.5818-2.6138-0.55028-1.0009 0.03545-2.0049 0.35488-2.889 0.82543-1.0055 0.53516-1.9948 1.245-2.6138 2.2011-0.18144 0.28023-0.27514 0.963-0.27514 0.963s-2.1463-0.99638-3.3017-1.1006c-0.96884-0.08736-2.0489-0.0778-2.889 0.41271-0.6495 0.37924-1.0396 1.1156-1.3757 1.7884-0.38287 0.76636-0.68785 2.4763-0.68785 2.4763s-2.8785 0.41638-4.1271 1.1006c-0.65466 0.35872-1.2107 0.91036-1.6509 1.5133-0.38715 0.53028-0.32265 1.3662-0.82542 1.7884-1.235 1.0373-3.2348 0.51702-4.6774 1.2381-0.99294 0.49633-1.9043 1.2099-2.6138 2.0636-0.62938 0.75717-1.243 1.6382-1.3757 2.6139-0.14549 1.0695 0.33888 2.1428 0.68786 3.1641 0.34486 1.0093 0.72155 2.0465 1.3757 2.889 0.65897 0.84866 2.4763 2.0636 2.4763 2.0636s-1.1406 1.8486-1.3757 2.889c-0.29308 1.2972-0.52546 2.7679 0 3.9896 0.47423 1.1025 1.4989 2.032 2.6138 2.4763 1.3206 0.52622 2.8732 0.29106 4.2647 0 0.78389-0.16397 2.2011-0.963 2.2011-0.963s1.3338 1.8852 2.3387 2.3387c1.3401 0.60477 2.9331 0.33356 4.4023 0.27514 1.296-0.05153 2.6919 0.02977 3.852-0.55028 0.92808-0.46404 1.3185-1.6556 2.2011-2.2011 0.49342-0.30495 1.0886-0.40756 1.6509-0.55028 0.78056-0.19815 2.3789-0.42175 2.3789-0.42175l10.415 10.74s3.208 2.504 4.4023 1.5133c1.4625-1.2132-0.82543-5.6404-0.82543-5.6404z" stroke="#000600" stroke-linecap="round" stroke-width=".26458"/>
    <path d="m-26.973-3.908s-4.0228-0.38578-5.9607 0.05322c-1.1456 0.25952-2.2675 0.76716-3.1932 1.4902-0.66598 0.52015-1.2734 1.1884-1.5966 1.9692-0.32751 0.79102-0.34986 1.7026-0.2661 2.5546 0.09992 1.0164 0.38559 2.0477 0.90475 2.9271 1.0269 1.7395 2.7423 2.9704 4.2044 4.3641 0.1365 0.13011 0.42576 0.37254 0.42576 0.37254s-1.3997-0.78267-2.0224-0.47898c-0.64925 0.31665-0.76806 1.2599-0.90475 1.9692-0.20166 1.0465-0.29644 2.23 0.15966 3.1932 0.32788 0.69241 1.0096 1.2177 1.7031 1.5434 1.1354 0.53326 2.478 0.6647 3.7254 0.53221 1.5795-0.16778 2.9818-1.096 4.4705-1.6498 0.28412-0.1057 0.85153-0.31932 0.85153-0.31932s-1.6652 0.81069-1.7563 1.5966c-0.03964 0.34216 0.30903 0.64598 0.58542 0.85153 0.79232 0.58924 1.8438 0.76116 2.8207 0.90475 0.94795 0.13933 1.9348 0.13667 2.8739-0.05322 0.84275-0.1704 1.6974-0.45523 2.3949-0.95797 0.49016-0.35329 1.2095-0.78076 1.1708-1.3837-0.05376-0.83958-1.8627-1.7031-1.8627-1.7031s1.6214 0.4723 2.4481 0.63865c0.86084 0.17319 1.7302 0.40134 2.6078 0.37254 0.68853-0.02259 1.4166-0.09764 2.0224-0.42576 0.68385-0.37044 1.2728-0.96959 1.6498-1.6498 0.45895-0.82805 0.59618-1.8217 0.63865-2.7675 0.04659-1.0376-0.17882-2.0779-0.42576-3.0868-0.1254-0.51233-0.5322-1.4902-0.5322-1.4902s-1.6844 1.0149-2.6078 1.3305c-0.63212 0.21608-1.3017 0.34453-1.9692 0.37254-0.51676 0.02169-1.0489-0.0081-1.5434-0.15966-0.53877-0.16515-1.4902-0.79831-1.4902-0.79831s1.1321 0.17733 1.7031 0.21288c0.72594 0.04519 1.4712 0.15398 2.182 0 0.62849-0.13614 1.243-0.41094 1.7563-0.79831 0.74339-0.561 1.3611-1.3126 1.8095-2.1288 0.37553-0.68361 0.55446-1.4675 0.69186-2.2353 0.1158-0.64706 0.13404-1.3124 0.10644-1.9692-0.02707-0.64421-0.2661-1.9159-0.2661-1.9159s0.76651 1.3014 0.95797 2.0224c0.1781 0.67066 0.19032 1.3824 0.15966 2.0756-0.01907 0.43122-0.09284 0.86268-0.21288 1.2773-0.20343 0.70259-0.47131 1.3975-0.85152 2.0224-0.07202 0.11836-0.2661 0.31932-0.2661 0.31932s0.894 1.8246 1.3837 2.7142c0.2685 0.48775 0.35158 1.1919 0.85152 1.437 0.64214 0.31475 1.4394-0.07603 2.1288-0.2661 0.76578-0.21113 1.491-0.56622 2.182-0.95797 0.71941-0.40783 1.4337-0.85611 2.0224-1.437 0.40664-0.40125 0.73628-0.88295 1.0112-1.3837 0.42168-0.76817 0.70358-1.6096 0.95797-2.4481 0.21617-0.7126 0.42337-1.4395 0.47899-2.182 0.01992-0.26595 0.16969-0.6519-0.05322-0.79831-0.92861-0.60991-3.14 1.1176-3.14 1.1176s1.4504-1.2079 2.1288-1.8627c0.5779-0.55784 1.1589-1.1206 1.6498-1.7563 0.44829-0.58041 0.93865-1.1671 1.1708-1.8627 0.2029-0.60789 0.28548-1.2875 0.15966-1.9159-0.10592-0.52905-0.39634-1.0253-0.74509-1.437-0.57334-0.6768-1.3144-1.2451-2.1288-1.5966-0.85956-0.37098-1.8434-0.32856-2.7675-0.47898-1.045-0.17012-2.1079-0.24283-3.14-0.47898-0.23521-0.05382-0.69187-0.21288-0.69187-0.21288s0.82447-0.11126 1.1176-0.37254c0.21922-0.19538 0.40586-0.50655 0.37254-0.79831-0.05879-0.51478-0.63825-0.81635-0.95797-1.2241-0.38981-0.4971-0.69812-1.0712-1.1708-1.4902-0.43487-0.38546-0.95565-0.67678-1.4902-0.90475-0.50665-0.21608-1.0474-0.38369-1.5966-0.42576-0.65828-0.05043-1.3334 0.03487-1.9692 0.21288-0.60374 0.16905-1.1555 0.49295-1.7031 0.79831-0.48131 0.26841-0.98539 0.52392-1.3837 0.90475-1.1851 1.133-2.8739 3.9915-2.8739 3.9915s0.75528-1.7838 0.37254-2.5546c-0.26133-0.52626-0.96397-0.75402-1.5434-0.85153-0.51482-0.08663-1.0536 0.08533-1.5434 0.2661-0.71641 0.26442-1.4611 0.60072-1.9692 1.1708-0.37509 0.42092-0.49938 1.0135-0.69186 1.5434-0.28952 0.79705-0.38558 1.6574-0.69187 2.4481-0.04298 0.11097-0.15966 0.31932-0.15966 0.31932s-0.61722-0.58421-1.0112-0.69186c-0.25726-0.0703-0.53597 0.0052-0.79831 0.05322-0.41953 0.07678-0.83559 0.1965-1.2241 0.37254-0.55152 0.24992-1.0955 0.55048-1.5434 0.95797-0.41204 0.37488-0.93639 0.7785-1.0112 1.3305-0.01283 0.09467 0.04038 0.19709 0.10644 0.2661 0.41726 0.4359 1.6498 0.74508 1.6498 0.74508z" fill="#fff" stroke="#000" stroke-width=".26458px"/>
    <path d="m-5.6319 18.338-2.661-3.2997 0.05322-1.6498 0.74509-1.5434s-0.15263-1.0111 0.15966-1.3305c0.78929-0.80722 3.3529-0.47898 3.3529-0.47898s5.2447 8.0016 7.3079 12.302c0.47411 0.98816 0.94451 2.003 1.1542 3.0788 0.12901 0.6619 0.28652 1.3897 0.05322 2.0224-0.082568 0.22393-0.2781 0.40332-0.47898 0.5322-0.25029 0.16058-0.55446 0.27976-0.85153 0.2661-0.46076-0.021188-0.86325-0.32894-1.2773-0.5322-0.74954-0.36796-1.5289-0.71304-2.1764-1.2401-3.6439-2.9659-9.3192-10.575-9.3192-10.575s-0.37144-0.57313-0.21288-0.79831c0.12299-0.17466 0.63865-0.05322 0.63865-0.05322l5.7478 6.3865z" fill="#fff" stroke="#000" stroke-width=".26458px"/>
   </g>
   <g transform="matrix(-.030052 -.95971 -1.0717 .026911 169.88 128.29)">
    <path d="m3.3258 22.338-6.3283-13.069s2.3302-0.69387 3.1641-1.5133c1.1702-1.1499 1.7675-2.82 2.2011-4.4023 0.34022-1.2415-0.02061-2.5992 0.27514-3.852 0.33066-1.4007 1.2608-2.6042 1.6509-3.9896 0.23908-0.84906 0.52194-1.7386 0.41271-2.6138-0.08649-0.6931-0.36287-1.4026-0.82543-1.926-0.84378-0.95469-2.1033-1.4932-3.3017-1.926-1.3117-0.47379-4.1271-0.68785-4.1271-0.68785s-0.8742-2.3473-1.6509-3.3017c-0.70066-0.86102-1.6085-1.5929-2.6138-2.0636-0.80637-0.37755-1.724-0.5818-2.6138-0.55028-1.0009 0.03545-2.0049 0.35488-2.889 0.82543-1.0055 0.53516-1.9948 1.245-2.6138 2.2011-0.18144 0.28023-0.27514 0.963-0.27514 0.963s-2.1463-0.99638-3.3017-1.1006c-0.96884-0.08736-2.0489-0.0778-2.889 0.41271-0.6495 0.37924-1.0396 1.1156-1.3757 1.7884-0.38287 0.76636-0.68785 2.4763-0.68785 2.4763s-2.8785 0.41638-4.1271 1.1006c-0.65466 0.35872-1.2107 0.91036-1.6509 1.5133-0.38715 0.53028-0.32265 1.3662-0.82542 1.7884-1.235 1.0373-3.2348 0.51702-4.6774 1.2381-0.99294 0.49633-1.9043 1.2099-2.6138 2.0636-0.62938 0.75717-1.243 1.6382-1.3757 2.6139-0.14549 1.0695 0.33888 2.1428 0.68786 3.1641 0.34486 1.0093 0.72155 2.0465 1.3757 2.889 0.65897 0.84866 2.4763 2.0636 2.4763 2.0636s-1.1406 1.8486-1.3757 2.889c-0.29308 1.2972-0.52546 2.7679 0 3.9896 0.47423 1.1025 1.4989 2.032 2.6138 2.4763 1.3206 0.52622 2.8732 0.29106 4.2647 0 0.78389-0.16397 2.2011-0.963 2.2011-0.963s1.3338 1.8852 2.3387 2.3387c1.3401 0.60477 2.9331 0.33356 4.4023 0.27514 1.296-0.05153 2.6919 0.02977 3.852-0.55028 0.92808-0.46404 1.3185-1.6556 2.2011-2.2011 0.49342-0.30495 1.0886-0.40756 1.6509-0.55028 0.78056-0.19815 2.3789-0.42175 2.3789-0.42175l10.415 10.74s3.208 2.504 4.4023 1.5133c1.4625-1.2132-0.82543-5.6404-0.82543-5.6404z" stroke="#000600" stroke-linecap="round" stroke-width=".26458"/>
    <path d="m-26.973-3.908s-4.0228-0.38578-5.9607 0.05322c-1.1456 0.25952-2.2675 0.76716-3.1932 1.4902-0.66598 0.52015-1.2734 1.1884-1.5966 1.9692-0.32751 0.79102-0.34986 1.7026-0.2661 2.5546 0.09992 1.0164 0.38559 2.0477 0.90475 2.9271 1.0269 1.7395 2.7423 2.9704 4.2044 4.3641 0.1365 0.13011 0.42576 0.37254 0.42576 0.37254s-1.3997-0.78267-2.0224-0.47898c-0.64925 0.31665-0.76806 1.2599-0.90475 1.9692-0.20166 1.0465-0.29644 2.23 0.15966 3.1932 0.32788 0.69241 1.0096 1.2177 1.7031 1.5434 1.1354 0.53326 2.478 0.6647 3.7254 0.53221 1.5795-0.16778 2.9818-1.096 4.4705-1.6498 0.28412-0.1057 0.85153-0.31932 0.85153-0.31932s-1.6652 0.81069-1.7563 1.5966c-0.03964 0.34216 0.30903 0.64598 0.58542 0.85153 0.79232 0.58924 1.8438 0.76116 2.8207 0.90475 0.94795 0.13933 1.9348 0.13667 2.8739-0.05322 0.84275-0.1704 1.6974-0.45523 2.3949-0.95797 0.49016-0.35329 1.2095-0.78076 1.1708-1.3837-0.05376-0.83958-1.8627-1.7031-1.8627-1.7031s1.6214 0.4723 2.4481 0.63865c0.86084 0.17319 1.7302 0.40134 2.6078 0.37254 0.68853-0.02259 1.4166-0.09764 2.0224-0.42576 0.68385-0.37044 1.2728-0.96959 1.6498-1.6498 0.45895-0.82805 0.59618-1.8217 0.63865-2.7675 0.04659-1.0376-0.17882-2.0779-0.42576-3.0868-0.1254-0.51233-0.5322-1.4902-0.5322-1.4902s-1.6844 1.0149-2.6078 1.3305c-0.63212 0.21608-1.3017 0.34453-1.9692 0.37254-0.51676 0.02169-1.0489-0.0081-1.5434-0.15966-0.53877-0.16515-1.4902-0.79831-1.4902-0.79831s1.1321 0.17733 1.7031 0.21288c0.72594 0.04519 1.4712 0.15398 2.182 0 0.62849-0.13614 1.243-0.41094 1.7563-0.79831 0.74339-0.561 1.3611-1.3126 1.8095-2.1288 0.37553-0.68361 0.55446-1.4675 0.69186-2.2353 0.1158-0.64706 0.13404-1.3124 0.10644-1.9692-0.02707-0.64421-0.2661-1.9159-0.2661-1.9159s0.76651 1.3014 0.95797 2.0224c0.1781 0.67066 0.19032 1.3824 0.15966 2.0756-0.01907 0.43122-0.09284 0.86268-0.21288 1.2773-0.20343 0.70259-0.47131 1.3975-0.85152 2.0224-0.07202 0.11836-0.2661 0.31932-0.2661 0.31932s0.894 1.8246 1.3837 2.7142c0.2685 0.48775 0.35158 1.1919 0.85152 1.437 0.64214 0.31475 1.4394-0.07603 2.1288-0.2661 0.76578-0.21113 1.491-0.56622 2.182-0.95797 0.71941-0.40783 1.4337-0.85611 2.0224-1.437 0.40664-0.40125 0.73628-0.88295 1.0112-1.3837 0.42168-0.76817 0.70358-1.6096 0.95797-2.4481 0.21617-0.7126 0.42337-1.4395 0.47899-2.182 0.01992-0.26595 0.16969-0.6519-0.05322-0.79831-0.92861-0.60991-3.14 1.1176-3.14 1.1176s1.4504-1.2079 2.1288-1.8627c0.5779-0.55784 1.1589-1.1206 1.6498-1.7563 0.44829-0.58041 0.93865-1.1671 1.1708-1.8627 0.2029-0.60789 0.28548-1.2875 0.15966-1.9159-0.10592-0.52905-0.39634-1.0253-0.74509-1.437-0.57334-0.6768-1.3144-1.2451-2.1288-1.5966-0.85956-0.37098-1.8434-0.32856-2.7675-0.47898-1.045-0.17012-2.1079-0.24283-3.14-0.47898-0.23521-0.05382-0.69187-0.21288-0.69187-0.21288s0.82447-0.11126 1.1176-0.37254c0.21922-0.19538 0.40586-0.50655 0.37254-0.79831-0.05879-0.51478-0.63825-0.81635-0.95797-1.2241-0.38981-0.4971-0.69812-1.0712-1.1708-1.4902-0.43487-0.38546-0.95565-0.67678-1.4902-0.90475-0.50665-0.21608-1.0474-0.38369-1.5966-0.42576-0.65828-0.05043-1.3334 0.03487-1.9692 0.21288-0.60374 0.16905-1.1555 0.49295-1.7031 0.79831-0.48131 0.26841-0.98539 0.52392-1.3837 0.90475-1.1851 1.133-2.8739 3.9915-2.8739 3.9915s0.75528-1.7838 0.37254-2.5546c-0.26133-0.52626-0.96397-0.75402-1.5434-0.85153-0.51482-0.08663-1.0536 0.08533-1.5434 0.2661-0.71641 0.26442-1.4611 0.60072-1.9692 1.1708-0.37509 0.42092-0.49938 1.0135-0.69186 1.5434-0.28952 0.79705-0.38558 1.6574-0.69187 2.4481-0.04298 0.11097-0.15966 0.31932-0.15966 0.31932s-0.61722-0.58421-1.0112-0.69186c-0.25726-0.0703-0.53597 0.0052-0.79831 0.05322-0.41953 0.07678-0.83559 0.1965-1.2241 0.37254-0.55152 0.24992-1.0955 0.55048-1.5434 0.95797-0.41204 0.37488-0.93639 0.7785-1.0112 1.3305-0.01283 0.09467 0.04038 0.19709 0.10644 0.2661 0.41726 0.4359 1.6498 0.74508 1.6498 0.74508z" fill="#fff" stroke="#000" stroke-width=".26458px"/>
    <path d="m-5.6319 18.338-2.661-3.2997 0.05322-1.6498 0.74509-1.5434s-0.15263-1.0111 0.15966-1.3305c0.78929-0.80722 3.3529-0.47898 3.3529-0.47898s5.2447 8.0016 7.3079 12.302c0.47411 0.98816 0.94451 2.003 1.1542 3.0788 0.12901 0.6619 0.28652 1.3897 0.05322 2.0224-0.082568 0.22393-0.2781 0.40332-0.47898 0.5322-0.25029 0.16058-0.55446 0.27976-0.85153 0.2661-0.46076-0.021188-0.86325-0.32894-1.2773-0.5322-0.74954-0.36796-1.5289-0.71304-2.1764-1.2401-3.6439-2.9659-9.3192-10.575-9.3192-10.575s-0.37144-0.57313-0.21288-0.79831c0.12299-0.17466 0.63865-0.05322 0.63865-0.05322l5.7478 6.3865z" fill="#fff" stroke="#000" stroke-width=".26458px"/>
   </g>
   <g transform="rotate(245.83 70.858 61.06)">
    <path d="m3.3258 22.338-6.3283-13.069s2.3302-0.69387 3.1641-1.5133c1.1702-1.1499 1.7675-2.82 2.2011-4.4023 0.34022-1.2415-0.02061-2.5992 0.27514-3.852 0.33066-1.4007 1.2608-2.6042 1.6509-3.9896 0.23908-0.84906 0.52194-1.7386 0.41271-2.6138-0.08649-0.6931-0.36287-1.4026-0.82543-1.926-0.84378-0.95469-2.1033-1.4932-3.3017-1.926-1.3117-0.47379-4.1271-0.68785-4.1271-0.68785s-0.8742-2.3473-1.6509-3.3017c-0.70066-0.86102-1.6085-1.5929-2.6138-2.0636-0.80637-0.37755-1.724-0.5818-2.6138-0.55028-1.0009 0.03545-2.0049 0.35488-2.889 0.82543-1.0055 0.53516-1.9948 1.245-2.6138 2.2011-0.18144 0.28023-0.27514 0.963-0.27514 0.963s-2.1463-0.99638-3.3017-1.1006c-0.96884-0.08736-2.0489-0.0778-2.889 0.41271-0.6495 0.37924-1.0396 1.1156-1.3757 1.7884-0.38287 0.76636-0.68785 2.4763-0.68785 2.4763s-2.8785 0.41638-4.1271 1.1006c-0.65466 0.35872-1.2107 0.91036-1.6509 1.5133-0.38715 0.53028-0.32265 1.3662-0.82542 1.7884-1.235 1.0373-3.2348 0.51702-4.6774 1.2381-0.99294 0.49633-1.9043 1.2099-2.6138 2.0636-0.62938 0.75717-1.243 1.6382-1.3757 2.6139-0.14549 1.0695 0.33888 2.1428 0.68786 3.1641 0.34486 1.0093 0.72155 2.0465 1.3757 2.889 0.65897 0.84866 2.4763 2.0636 2.4763 2.0636s-1.1406 1.8486-1.3757 2.889c-0.29308 1.2972-0.52546 2.7679 0 3.9896 0.47423 1.1025 1.4989 2.032 2.6138 2.4763 1.3206 0.52622 2.8732 0.29106 4.2647 0 0.78389-0.16397 2.2011-0.963 2.2011-0.963s1.3338 1.8852 2.3387 2.3387c1.3401 0.60477 2.9331 0.33356 4.4023 0.27514 1.296-0.05153 2.6919 0.02977 3.852-0.55028 0.92808-0.46404 1.3185-1.6556 2.2011-2.2011 0.49342-0.30495 1.0886-0.40756 1.6509-0.55028 0.78056-0.19815 2.3789-0.42175 2.3789-0.42175l10.415 10.74s3.208 2.504 4.4023 1.5133c1.4625-1.2132-0.82543-5.6404-0.82543-5.6404z" stroke="#000600" stroke-linecap="round" stroke-width=".26458"/>
    <path d="m-26.973-3.908s-4.0228-0.38578-5.9607 0.05322c-1.1456 0.25952-2.2675 0.76716-3.1932 1.4902-0.66598 0.52015-1.2734 1.1884-1.5966 1.9692-0.32751 0.79102-0.34986 1.7026-0.2661 2.5546 0.09992 1.0164 0.38559 2.0477 0.90475 2.9271 1.0269 1.7395 2.7423 2.9704 4.2044 4.3641 0.1365 0.13011 0.42576 0.37254 0.42576 0.37254s-1.3997-0.78267-2.0224-0.47898c-0.64925 0.31665-0.76806 1.2599-0.90475 1.9692-0.20166 1.0465-0.29644 2.23 0.15966 3.1932 0.32788 0.69241 1.0096 1.2177 1.7031 1.5434 1.1354 0.53326 2.478 0.6647 3.7254 0.53221 1.5795-0.16778 2.9818-1.096 4.4705-1.6498 0.28412-0.1057 0.85153-0.31932 0.85153-0.31932s-1.6652 0.81069-1.7563 1.5966c-0.03964 0.34216 0.30903 0.64598 0.58542 0.85153 0.79232 0.58924 1.8438 0.76116 2.8207 0.90475 0.94795 0.13933 1.9348 0.13667 2.8739-0.05322 0.84275-0.1704 1.6974-0.45523 2.3949-0.95797 0.49016-0.35329 1.2095-0.78076 1.1708-1.3837-0.05376-0.83958-1.8627-1.7031-1.8627-1.7031s1.6214 0.4723 2.4481 0.63865c0.86084 0.17319 1.7302 0.40134 2.6078 0.37254 0.68853-0.02259 1.4166-0.09764 2.0224-0.42576 0.68385-0.37044 1.2728-0.96959 1.6498-1.6498 0.45895-0.82805 0.59618-1.8217 0.63865-2.7675 0.04659-1.0376-0.17882-2.0779-0.42576-3.0868-0.1254-0.51233-0.5322-1.4902-0.5322-1.4902s-1.6844 1.0149-2.6078 1.3305c-0.63212 0.21608-1.3017 0.34453-1.9692 0.37254-0.51676 0.02169-1.0489-0.0081-1.5434-0.15966-0.53877-0.16515-1.4902-0.79831-1.4902-0.79831s1.1321 0.17733 1.7031 0.21288c0.72594 0.04519 1.4712 0.15398 2.182 0 0.62849-0.13614 1.243-0.41094 1.7563-0.79831 0.74339-0.561 1.3611-1.3126 1.8095-2.1288 0.37553-0.68361 0.55446-1.4675 0.69186-2.2353 0.1158-0.64706 0.13404-1.3124 0.10644-1.9692-0.02707-0.64421-0.2661-1.9159-0.2661-1.9159s0.76651 1.3014 0.95797 2.0224c0.1781 0.67066 0.19032 1.3824 0.15966 2.0756-0.01907 0.43122-0.09284 0.86268-0.21288 1.2773-0.20343 0.70259-0.47131 1.3975-0.85152 2.0224-0.07202 0.11836-0.2661 0.31932-0.2661 0.31932s0.894 1.8246 1.3837 2.7142c0.2685 0.48775 0.35158 1.1919 0.85152 1.437 0.64214 0.31475 1.4394-0.07603 2.1288-0.2661 0.76578-0.21113 1.491-0.56622 2.182-0.95797 0.71941-0.40783 1.4337-0.85611 2.0224-1.437 0.40664-0.40125 0.73628-0.88295 1.0112-1.3837 0.42168-0.76817 0.70358-1.6096 0.95797-2.4481 0.21617-0.7126 0.42337-1.4395 0.47899-2.182 0.01992-0.26595 0.16969-0.6519-0.05322-0.79831-0.92861-0.60991-3.14 1.1176-3.14 1.1176s1.4504-1.2079 2.1288-1.8627c0.5779-0.55784 1.1589-1.1206 1.6498-1.7563 0.44829-0.58041 0.93865-1.1671 1.1708-1.8627 0.2029-0.60789 0.28548-1.2875 0.15966-1.9159-0.10592-0.52905-0.39634-1.0253-0.74509-1.437-0.57334-0.6768-1.3144-1.2451-2.1288-1.5966-0.85956-0.37098-1.8434-0.32856-2.7675-0.47898-1.045-0.17012-2.1079-0.24283-3.14-0.47898-0.23521-0.05382-0.69187-0.21288-0.69187-0.21288s0.82447-0.11126 1.1176-0.37254c0.21922-0.19538 0.40586-0.50655 0.37254-0.79831-0.05879-0.51478-0.63825-0.81635-0.95797-1.2241-0.38981-0.4971-0.69812-1.0712-1.1708-1.4902-0.43487-0.38546-0.95565-0.67678-1.4902-0.90475-0.50665-0.21608-1.0474-0.38369-1.5966-0.42576-0.65828-0.05043-1.3334 0.03487-1.9692 0.21288-0.60374 0.16905-1.1555 0.49295-1.7031 0.79831-0.48131 0.26841-0.98539 0.52392-1.3837 0.90475-1.1851 1.133-2.8739 3.9915-2.8739 3.9915s0.75528-1.7838 0.37254-2.5546c-0.26133-0.52626-0.96397-0.75402-1.5434-0.85153-0.51482-0.08663-1.0536 0.08533-1.5434 0.2661-0.71641 0.26442-1.4611 0.60072-1.9692 1.1708-0.37509 0.42092-0.49938 1.0135-0.69186 1.5434-0.28952 0.79705-0.38558 1.6574-0.69187 2.4481-0.04298 0.11097-0.15966 0.31932-0.15966 0.31932s-0.61722-0.58421-1.0112-0.69186c-0.25726-0.0703-0.53597 0.0052-0.79831 0.05322-0.41953 0.07678-0.83559 0.1965-1.2241 0.37254-0.55152 0.24992-1.0955 0.55048-1.5434 0.95797-0.41204 0.37488-0.93639 0.7785-1.0112 1.3305-0.01283 0.09467 0.04038 0.19709 0.10644 0.2661 0.41726 0.4359 1.6498 0.74508 1.6498 0.74508z" fill="#fff" stroke="#000" stroke-width=".26458px"/>
    <path d="m-5.6319 18.338-2.661-3.2997 0.05322-1.6498 0.74509-1.5434s-0.15263-1.0111 0.15966-1.3305c0.78929-0.80722 3.3529-0.47898 3.3529-0.47898s5.2447 8.0016 7.3079 12.302c0.47411 0.98816 0.94451 2.003 1.1542 3.0788 0.12901 0.6619 0.28652 1.3897 0.05322 2.0224-0.082568 0.22393-0.2781 0.40332-0.47898 0.5322-0.25029 0.16058-0.55446 0.27976-0.85153 0.2661-0.46076-0.021188-0.86325-0.32894-1.2773-0.5322-0.74954-0.36796-1.5289-0.71304-2.1764-1.2401-3.6439-2.9659-9.3192-10.575-9.3192-10.575s-0.37144-0.57313-0.21288-0.79831c0.12299-0.17466 0.63865-0.05322 0.63865-0.05322l5.7478 6.3865z" fill="#fff" stroke="#000" stroke-width=".26458px"/>
   </g>
   <path d="m180.33 117.72s-4.6507-2.4166-6.8094-3.8911c-1.7898-1.2226-3.6397-2.4471-5.0584-4.0857-1.5798-1.8246-2.8127-3.9799-3.6965-6.2258-0.559-1.4204-0.97051-2.9483-0.97277-4.4748-3e-3 -1.8571 0.49464-3.7166 1.1673-5.4475 0.78966-2.032 1.947-3.9387 3.3074-5.6421 0.88761-1.1114 3.1129-2.9183 3.1129-2.9183s-4.5082-1.1743-6.6149-2.1401c-1.5873-0.72769-3.2474-1.4817-4.4748-2.7238-1.4307-1.4477-2.5749-3.29-3.1129-5.253-0.56563-2.064-0.39993-4.3179 0-6.4203 0.49511-2.6027 1.8796-4.9558 2.9183-7.3931 0.67124-1.5751 2.1401-4.6693 2.1401-4.6693s-4.8542 3.2376-7.3931 4.6693c-1.7684 0.99725-3.5248 2.072-5.4475 2.7238-1.6262 0.55122-3.3594 0.72496-5.0584 0.97277-1.2899 0.18813-2.588 0.42001-3.8911 0.38911-1.7696-0.042-3.5441-0.31667-5.253-0.77822-1.3486-0.36424-2.6341-0.94698-3.8911-1.5564-2.2221-1.0774-4.4421-2.2184-6.4203-3.6965-1.5066-1.1257-2.8585-2.4659-4.0856-3.8911-2.9465-3.4222-7.7821-11.09-7.7821-11.09s-1.0738 5.2611-2.3346 7.5876c-1.448 2.6719-3.3712 5.227-5.8366 7.004-1.2994 0.93653-2.8837 1.5663-4.4747 1.751-2.2775 0.26434-4.6655-0.15973-6.8094-0.97278-3.4141-1.2948-6.3147-3.7233-9.1441-6.0312-1.3503-1.1014-3.6965-3.6965-3.6965-3.6965s-0.54853 7.2954-1.1673 10.895c-0.23717 1.3797-0.34125 2.8362-0.97277 4.0856-0.49819 0.98563-1.382 1.7262-2.1401 2.5292-1.2281 1.3009-2.5429 2.5206-3.8911 3.6965-0.62588 0.54591-1.1743 1.2483-1.9456 1.5564-2.1155 0.84527-4.5352 0.71747-6.8094 0.58366-2.2473-0.13222-4.499-0.59313-6.6149-1.3619-1.7999-0.65395-3.3701-1.8199-5.0584-2.7238-4.0156-2.1498-12.062-6.4203-12.062-6.4203s1.595 3.8761 2.3347 5.8366c0.75296 1.9959 1.7454 3.9348 2.1401 6.0312 0.38419 2.0404 0.51309 4.1741 0.19456 6.2258-0.35874 2.3106-1.1082 4.6241-2.3347 6.6149-1.1788 1.9135-2.7697 3.6629-4.6693 4.8639-1.9068 1.2055-6.4203 2.1401-6.4203 2.1401s3.5247 2.4456 4.8639 4.0857c1.6335 2.0005 2.8414 4.3724 3.6965 6.8094 0.8508 2.4247 1.2116 5.0224 1.3619 7.5877 0.12542 2.1404-0.0245 4.3075-0.38911 6.4204-0.51656 2.9934-1.5297 5.8865-2.5292 8.755-0.89949 2.5816-2.0136 5.0846-3.1129 7.5876-0.92163 2.0985-2.9183 6.2258-2.9183 6.2258s6.427-2.2788 9.7277-3.1129c3.0706-0.77595 6.1851-1.4579 9.3386-1.751 2.0018-0.18605 4.0344-0.23324 6.0312 0 2.5154 0.29382 4.9104 1.2507 7.3931 1.751 1.1601 0.23379 2.498-0.0428 3.502 0.58368 0.9466 0.59064 1.1566 1.9348 1.9456 2.7238 1.1834 1.1834 2.9005 1.7366 4.0857 2.9183 1.8098 1.8045 3.3191 3.9463 4.4747 6.2258 1.4188 2.7987 2.2134 5.892 2.9183 8.9495 1.0592 4.5936 1.9456 14.008 1.9456 14.008s1.3259-4.5054 2.3347-6.6149c1.5452-3.2311 3.4978-6.2754 5.6421-9.1441 1.5122-2.0232 3.1253-4.0163 5.0584-5.6421 1.8729-1.5751 3.9866-2.9036 6.2257-3.8911 2.649-1.1683 5.4899-2.0017 8.3658-2.3347 3.0949-0.35828 6.2705-0.15287 9.3386 0.38911 2.9488 0.52091 5.7969 1.5707 8.5604 2.7238 4.2566 1.776 12.257 6.4203 12.257 6.4203s-2.7042-8.1939-2.9183-12.452c-0.15114-3.0046 0.15229-6.1175 1.1673-8.9495 1.0321-2.8797 2.8426-5.4861 4.8639-7.7822 1.2181-1.3837 2.6894-2.5705 4.2802-3.502 3.0658-1.7952 6.4926-2.9646 9.9223-3.8911 3.6747-0.99266 7.489-1.4583 11.284-1.751 3.427-0.2643 10.311 0 10.311 0z" fill="#fff" stroke="#fff" stroke-width=".26458px"/>
  </g>
 </g>
</svg>
