<?xml version="1.0" encoding="UTF-8"?>
<svg width="211" height="356" version="1.1" viewBox="0 0 55.827 94.192" xmlns="http://www.w3.org/2000/svg">

 <g class="gancho">
  <path d="m4 38
    c-1.8552-3.6396-2.7997-7.9515-2.4035-12.017 0.55252-5.6693 2.7766-11.504 6.5237-15.794 3.7448-4.2876 9.1536-7.6203 14.764-8.5838 6.0839-1.0448 12.739 0.55052 18.198 3.4335 4.5799 2.419 8.5782 6.4022 10.987 10.987 2.057 3.9148 2.6768 8.6336 2.4035 13.047-0.28193 4.5521-1.6323 9.2249-4.1202 13.047-1.6338 2.5102-5.3278 3.3012-6.7392 5.9429-0.96271 1.8019-0.59178 4.0437-0.8145 6.0744-0.47587 4.3389-0.82977 8.6917-1.1141 13.047-0.33181 5.0826-0.30483 10.186-0.6904 15.265-0.20578 2.7106 0.81141 5.9696-0.86562 8.109-1.2287 1.5674-3.6262 2.0477-5.6177 2.0346-2.4463-0.0161-5.1607-0.83672-6.8671-2.5898-1.2215-1.2549-1.7937-3.1307-1.7205-4.964 0.5113-12.793 1.1725-24.619 2.3049-38.134 0.18002-2.1485 0.79009-4.5299 2.082-6.3411 1.0835-1.519 3.1741-2.0304 4.4599-3.3824 1.873-1.9694 4.1169-4.0601 4.5951-6.7356 0.66418-3.7163-0.15309-8.2442-2.7468-10.987-2.3877-2.5251-6.5093-3.5247-9.9572-3.0902-3.4666 0.43689-6.8933 2.6526-8.9272 5.4936-1.5031 2.0996-1.7445 4.9718-1.7168 7.5538 0.02029 1.8875 1.3414 3.6063 1.3734 5.4936 0.02776 1.6384-0.17622 3.4083-1.0301 4.8069-0.84756 1.3884-2.225 2.6025-3.7769 3.0902-1.4236 0.44737-3.1206 0.30717-4.4636-0.34335-1.8223-0.88269-3.2007-2.6596-4.1202-4.4636z"
    fill=""/>
 </g>
</svg>
