<?xml version="1.0" encoding="UTF-8"?>
<!-- Created with Inkscape (http://www.inkscape.org/) -->
<svg width="463" height="421" version="1.1" viewBox="0 0 122.5 111.39" xmlns="http://www.w3.org/2000/svg" xmlns:cc="http://creativecommons.org/ns#" xmlns:dc="http://purl.org/dc/elements/1.1/" xmlns:rdf="http://www.w3.org/1999/02/22-rdf-syntax-ns#">
 <metadata>
  <rdf:RDF>
   <cc:Work rdf:about="">
    <dc:format>image/svg+xml</dc:format>
    <dc:type rdf:resource="http://purl.org/dc/dcmitype/StillImage"/>
    <dc:title/>
   </cc:Work>
  </rdf:RDF>
 </metadata>
 <g transform="translate(-43.251 -52.57)">
  <g transform="translate(1.27 -1.2998)">
   <path d="m117.34 73.966c2.8238 0.55376 5.6194 1.3595 8.2664 2.488 2.2039 0.93953 6.26 3.5313 6.26 3.5313l16.453-15.971-18.218 21.83 30.016-17.014-23.836 15.088s3.002 3.6297 4.0931 5.6982c1.2082 2.2905 2.6485 7.3034 2.6485 7.3034l20.144-5.5377-22.953 9.6308 15.971 0.5618-12.841 0.96308s-0.38463 5.0924-1.0433 7.5441c-0.73475 2.7347-3.2103 7.8652-3.2103 7.8652l19.262 10.995-26.244-8.3467 21.188 11.156-19.021-7.3034s-1.3254 1.7185-2.0867 2.488c-0.86733 0.87668-2.809 2.4077-2.809 2.4077l12.6 15.169-17.737-16.453 12.761 19.181-13.162-13.804s-4.8281 2.7679-7.3836 3.8523c-2.3363 0.99141-4.7767 1.7322-7.2231 2.4077-1.7957 0.49587-5.4575 1.2038-5.4575 1.2038l0.72231 20.546-3.3708-27.287-5.7785 29.775 2.9695-22.632s-6.3636-0.0428-9.4703-0.64205c-2.9822-0.57522-5.8964-1.5664-8.6677-2.809-2.3194-1.0399-6.5811-3.8523-6.5811-3.8523l-12.119 11.156 15.73-21.108-33.868 24.318 23.997-21.188s-2.0521-3.8134-2.7287-5.8588c-0.5833-1.7633-0.82588-3.6242-1.1236-5.4575-0.41052-2.5279 0.12826-8.0737 0.16052-8.1059l-20.144 2.6485 29.213-6.26-16.613-2.488 9.1493-0.16051s1.6309-3.3618 2.5682-4.9759c0.91294-1.5721 1.8663-3.1296 2.9695-4.5746 0.80483-1.0542 2.6485-2.9695 2.6485-2.9695l-12.6-7.6244 23.194 10.112-12.279-13.403 7.7047 5.5377s3.9909-2.7469 6.0995-3.9326c1.7625-0.99107 3.5796-1.8986 5.4575-2.6485 1.7207-0.68715 5.297-1.6854 5.297-1.6854l-0.96308-20.144 3.3708 26.404 6.9823-24.559-0.96308 16.453s3.9062-0.2265 5.8588-0.16051c2.2561 0.07624 4.5264 0.20764 6.7416 0.64205z" stroke="#000" stroke-width=".26458px"/>
   <path d="m118.02 75.291c2.2478 0.44413 4.4992 0.98172 6.6212 1.8459 1.752 0.71349 3.4257 1.6447 4.9759 2.7287 0.69917 0.48889 1.9262 1.6854 1.9262 1.6854l-2.6886 4.3339s1.9116-2.8298 3.0096-4.1332c1.2494-1.4831 4.053-4.1734 4.053-4.1734l-8.2263 9.9518 7.9053-2.809s1.5558 1.9658 2.2472 3.0096c0.86401 1.3044 1.7112 2.6327 2.3676 4.053 0.57678 1.248 1.1774 2.5303 1.3644 3.8925 0.0565 0.41166-0.0326 0.8312-0.0802 1.244-0.0186 0.16166-0.0803 0.48154-0.0803 0.48154l-5.618 3.8925 4.3339-2.6886 8.6677-2.1268-14.526 5.8588-0.44141 0.40128 8.1461 0.0401s-0.16696 2.5029-0.40129 3.7319c-0.3197 1.6768-0.81523 3.3196-1.3644 4.9358-0.49224 1.4488-1.0858 2.8637-1.7255 4.2536-0.3652 0.79344-1.2039 2.3274-1.2039 2.3274l12.801 7.1429-19.583-5.3772 2.9695 2.9695s-0.76675 1.5364-1.244 2.2472c-0.53563 0.79782-1.1753 1.522-1.8058 2.2472-0.60227 0.69268-1.886 2.0064-1.886 2.0064l5.2568 6.3804-12.119-10.875 2.5682 7.1429s-4.3229 1.8904-6.5409 2.6886c-2.293 0.82521-4.6266 1.543-6.9824 2.1669-1.5624 0.41378-3.1363 0.80689-4.7352 1.0433-1.0352 0.15309-3.13 0.24077-3.13 0.24077l-1.4848-9.5907-3.2103 11.597s-5.2464-0.20154-7.7849-0.80256c-2.6447-0.62616-5.2796-1.515-7.6244-2.8892-1.7775-1.0418-3.3186-2.4766-4.7352-3.9727-0.78173-0.82559-2.0465-2.7287-2.0465-2.7287l5.1364-8.748-22.392 15.409 10.152-9.7111s-1.1883-0.8429-1.565-1.4446c-1.0307-1.6462-1.2882-3.6766-1.6854-5.5778-0.34711-1.6614-0.51446-3.3611-0.60193-5.0562-0.08962-1.7368-0.13128-3.4905 0.08026-5.2167 0.07183-0.58614 0.40128-1.7255 0.40128-1.7255l11.196-3.7721-9.3499-2.3274s0.73692-2.0352 1.2039-3.0096c0.72991-1.5231 1.6042-2.9748 2.488-4.4141 0.55515-0.9042 1.1515-1.7832 1.7656-2.6485 0.51408-0.72428 1.6051-2.1268 1.6051-2.1268l-5.5377-3.6517 20.987 9.6709-9.0289-11.717s1.9736-1.3131 3.0096-1.886c1.5863-0.87719 3.2473-1.6135 4.8957-2.3676 1.1659-0.53337 2.3425-1.0445 3.5313-1.5249 0.91448-0.3695 1.8341-0.72872 2.7689-1.0433 0.48935-0.1647 1.4848-0.44141 1.4848-0.44141l2.2472 9.4302 4.9759-19.021 0.64206 8.2665s3.2061-0.32795 4.8154-0.36116c1.5923-0.03285 3.1872 0.03969 4.7753 0.16051 1.3566 0.10321 2.7183 0.21785 4.053 0.48157z" fill="#fff"/>
  </g>
 </g>
</svg>
