<?xml version="1.0" encoding="UTF-8"?>
<!-- Created with Inkscape (http://www.inkscape.org/) -->
<svg width="468" height="332" version="1.1" viewBox="0 0 123.82 87.842" xmlns="http://www.w3.org/2000/svg" xmlns:cc="http://creativecommons.org/ns#" xmlns:dc="http://purl.org/dc/elements/1.1/" xmlns:rdf="http://www.w3.org/1999/02/22-rdf-syntax-ns#">
 <metadata>
  <rdf:RDF>
   <cc:Work rdf:about="">
    <dc:format>image/svg+xml</dc:format>
    <dc:type rdf:resource="http://purl.org/dc/dcmitype/StillImage"/>
    <dc:title/>
   </cc:Work>
  </rdf:RDF>
 </metadata>
 <g transform="translate(-39.142 -145.58)">
  <g transform="translate(1.3022 -1.2234)">
   <g transform="translate(3.7073 23.303)" stroke="#000" stroke-width=".26458px">
    <path d="m53.805 167.69c-0.46491-5.1624-8.7431-11.491-9.1249-11.3 0 0 5.8057-0.81951 8.2477-2.2964 2.8615-1.7306 5.5087-4.256 6.8713-7.3099 0.93668-2.0992 0.5848-6.8714 0.5848-6.8714 0 0.56119 6.7807 3.9395 10.526 3.3626 4.0065-0.61711 6.8967-1.7202 9.7953-3.655 2.6517-1.77 5.9942-7.8381 5.9942-7.8947 0.04368 0.13103 3.6203 4.2085 5.7018 4.6784 2.1048 0.47515 5.4683 0.61315 9.6491-0.5848 2.5393-0.7276 6.8713-3.9474 6.8713-3.9474s1.9605 5.0509 4.0936 6.4328c3.1003 2.0085 7.2795 1.8609 10.965 1.6082 3.1388-0.21523 9.0643-2.6316 9.0643-2.6316s-3.2234 4.7417-2.7778 7.3099c0.53437 3.0797 3.3989 4.2296 5.848 4.2398 3.4335 0.0143 10.234-1.1696 10.234-1.1696s-4.2489 5.493-4.5322 8.7719c-0.34791 4.0272 1.1395 7.9134 3.8012 11.55 2.3428 3.2007 8.7719 8.0409 8.7719 8.0409s-9.8994-0.64176-14.62 0.58479c-4.3875 1.14-9.1504 2.7279-12.135 6.1404-1.5624 1.7867-2.3392 6.7251-2.3392 6.7251s-4.5448 0.20868-6.4328 1.3158c-2.8316 1.6604-5.0576 4.4755-6.4327 7.4561-1.6111 3.4922-1.7544 11.404-1.7544 11.404s-4.9189-8.4491-7.7485-12.427c-1.9543-2.7473-4.7382-4.9692-8.1871-5.7018-2.508-0.53269-7.0653 3.3596-7.1637 3.655 0 0-2.6449-5.1144-4.9708-6.579-2.9034-1.8283-6.6815-2.4592-10.088-2.0468-1.9731 0.2389-5.3916 2.5459-5.3916 2.5459s-0.77516-5.776-2.3569-8.1015c-1.387-2.0392-3.4826-3.8343-5.848-4.5322-1.6419-0.48444-5.117 0.4386-5.117 0.4386s0.76858-4.58 0.5848-6.8713c-0.06426-0.80116-0.51271-1.5387-0.5848-2.3392z"/>
    <path d="m58.595 168.74c-0.1987-2.0106-0.62773-4.0815-1.6223-5.8402-1.3933-2.4639-5.8402-6.1646-5.8402-6.1646s5.0256-1.1141 7.138-2.4875c1.9886-1.2929 3.8303-3.0578 4.8668-5.1913 0.94025-1.9353 0.97336-6.381 0.97336-6.381s4.1828 2.2698 6.4891 2.4875c3.2455 0.30628 6.7732-0.15202 9.6255-1.7304 3.2824-1.8164 7.5706-8.3277 7.5706-8.3277s3.354 3.6617 5.6239 4.3261c2.813 0.82334 5.9902 0.20069 8.7603-0.75706 2.2397-0.77437 5.9483-3.8935 5.9483-3.8935s2.0777 5.0486 4.2179 6.4891c2.528 1.7015 5.9322 1.8643 8.9766 1.7304 2.622-0.11526 7.5706-2.163 7.5706-2.163s-1.9196 4.3235-1.0815 6.2728c0.92409 2.1495 3.5569 3.383 5.8402 3.8935 2.3833 0.53276 7.2462-1.0815 7.2462-1.0815s-2.8776 4.7075-3.0282 7.3543c-0.2023 3.5547 1.0341 7.2545 2.9201 10.274 1.7445 2.7933 7.3543 6.5972 7.3543 6.5972s-7.8082-0.95246-11.572-0.10815c-3.6343 0.8152-7.445 2.2127-10.058 4.8668-1.9802 2.0113-3.569 7.6788-3.569 7.6788s-5.5794 0.8003-7.7869 2.3793c-1.9531 1.3971-3.2669 3.6352-4.2179 5.8402-0.98843 2.2918-1.406 7.3543-1.406 7.3543s-2.6042-5.0852-4.4342-7.2462c-2.0974-2.4768-4.2521-5.4272-7.3543-6.381-2.0473-0.62945-4.4539-0.17796-6.3809 0.75706-1.055 0.51189-2.4875 2.4875-2.4875 2.4875s-2.7791-5.106-5.0831-6.7054c-1.8551-1.2878-4.2314-1.9963-6.4891-1.9467-2.5191 0.0553-7.138 2.4875-7.138 2.4875s-0.28847-3.7492-1.0815-5.4076c-0.85031-1.7781-2.0683-3.5747-3.7853-4.5424-2.0965-1.1815-7.138-1.0815-7.138-1.0815s0.62458-3.8976 0.43261-5.8402z" fill="#fff"/>
   </g>
   <g transform="translate(-.001779 102.74)" stroke-width=".066146">
    <path d="m68.585 51.79c-0.0938-0.39732-0.34388-1.0047 1e-6 -1.2247 0.53228-0.34057 1.2383 0.38691 1.7212 0.79442 0.5216 0.44012 0.82921 1.0904 1.1585 1.6881 1.2139 2.2035 2.6355 4.2047 3.9059 6.6532 0.03557 0.06856 0.06641 0.19228 0 0.23171-0.11888 0.07057-0.27131-0.09612-0.36411-0.1986-2.0647-2.2802-3.8228-4.3904-5.7926-6.6863-0.30566-0.35626-0.52121-0.8016-0.62891-1.2578z" stroke="#000200"/>
    <path d="m74.278 49.374c-0.02901-0.38508-0.11881-0.79108 0-1.1585 0.07537-0.2331 0.18799-0.55976 0.43031-0.59582 0.34269-0.05099 0.60346 0.36466 0.82752 0.62891 0.29046 0.34257 0.53102 0.75329 0.62892 1.1916 0.86744 3.884 1.2732 6.9993 1.8867 10.592 0.02229 0.13051 0.12232 0.34654 0 0.39721-0.12974 0.05374-0.24746-0.16684-0.29791-0.29791-1.2395-3.2205-2.3014-6.3576-3.3101-9.6654-0.10741-0.35225-0.13784-0.7251-0.1655-1.0923z" stroke="#000"/>
    <path d="m80.666 46.494c0.10278-0.37143 0.17173-0.80734 0.46341-1.0592 0.09521-0.08222 0.24492-0.13957 0.36411-0.0993 0.2237 0.07559 0.32783 0.34998 0.43031 0.56271 0.17769 0.36887 0.233 0.78737 0.29791 1.1916 0.11925 0.7428 0.17347 1.4986 0.1655 2.2508-0.0297 2.8039-0.79442 8.3745-0.79442 8.3745s-1.1339-5.5104-1.2247-8.3083c-0.0176-0.54216 0.07583-1.0824 0.1324-1.6219 0.04525-0.43147 0.04981-0.87281 0.1655-1.2909z" stroke="#000"/>
   </g>
   <g transform="translate(1.6283 102.59)" stroke="#000" stroke-width=".066146">
    <path d="m117.73 50.678c0.0136-0.34619 0.0496-0.6955 0.14043-1.0299 0.0532-0.19576 0.054-0.46831 0.23406-0.56174 0.12769-0.06626 0.31591-0.0043 0.4213 0.09362 0.21488 0.19963 0.18767 0.55678 0.25345 0.84261 0.0567 0.24646 0.10674 0.49649 0.12104 0.74898 0.0895 1.5798-0.18726 3.1668-0.22318 4.7417-8e-3 0.35573-0.19812 1.063-0.19812 1.063s-0.35574-0.99326-0.43218-1.5008c-0.14858-0.98652-0.1661-1.8369-0.22318-2.759-0.0338-0.54598-0.11507-1.0918-0.0936-1.6384z"/>
    <path d="m120.45 58.211s1.4863-4.4734 2.4494-6.6201c0.31723-0.70704 0.70611-1.3804 1.0923-2.0522 0.27162-0.47251 0.57046-0.92887 0.86062-1.3902 0.25094-0.399 0.46111-0.82824 0.76132-1.1916 0.18392-0.22263 0.34396-0.54895 0.62891-0.59581 0.15588-0.02563 0.35481 0.05983 0.43031 0.1986 0.14914 0.27414-0.0574 0.6239-0.1324 0.92682-0.26765 1.0806-0.66599 2.1305-1.1254 3.1446-0.32816 0.72431-0.75035 1.4029-1.1585 2.0853-0.92219 1.5418-1.8109 3.1159-2.9129 4.5348-0.26816 0.34528-0.89372 0.95992-0.89372 0.95992z"/>
    <path d="m122.87 58.774s1.0249-1.8889 1.6219-2.7805c0.42489-0.63441 0.86127-1.2699 1.3902-1.8205 0.40713-0.42382 0.872-0.79373 1.3571-1.1254 0.18755-0.12823 0.37011-0.30508 0.59582-0.33101 0.0798-0.0092 0.18523 6.8e-4 0.2317 0.0662 0.10869 0.15326 0.0174 0.38174-0.0331 0.56271-0.12074 0.4326-0.37738 0.81953-0.62891 1.1916-0.37265 0.55127-0.83199 1.0408-1.2909 1.5226-0.80223 0.84221-1.5876 1.7283-2.5488 2.3832-0.21208 0.14451-0.69511 0.33101-0.69511 0.33101z"/>
   </g>
   <g transform="translate(.21982 102.42)" stroke-width=".066146">
    <path d="m147.7 80.455s1.6962-1.6438 2.615-2.3832c0.7584-0.61039 1.5426-1.1972 2.3832-1.6881 0.55835-0.32604 1.1195-0.70477 1.7543-0.82752 0.18448-0.03567 0.40146-0.06334 0.56272 0.0331 0.14454 0.08644 0.28109 0.26268 0.2648 0.43031-0.0189 0.19429-0.25653 0.29498-0.39721 0.43031-0.42866 0.41234-0.87646 0.80819-1.3571 1.1585-0.84876 0.61862-1.739 1.191-2.6812 1.655-1.0056 0.49525-3.1446 1.1916-3.1446 1.1916z" stroke="#000900"/>
    <path d="m148.89 82.871s2.4418-0.43479 3.6742-0.56271c1.0002-0.10382 2.007-0.19234 3.0122-0.1655 0.51035 0.01363 1.0223 0.06414 1.5226 0.1655 0.2258 0.04574 0.47528 0.06366 0.66201 0.1986 0.10916 0.07888 0.23899 0.19652 0.23171 0.33101-6e-3 0.11712-0.1329 0.20161-0.23171 0.26481-0.32942 0.21068-0.74066 0.26126-1.1254 0.33101-0.59869 0.10853-1.2121 0.13254-1.8205 0.1324-0.90717-2e-4 -1.8129-0.0961-2.7143-0.1986-1.076-0.12237-3.2108-0.49651-3.2108-0.49651z" stroke="#000200"/>
    <path d="m149.81 85.884s0.90048-0.17627 1.3571-0.1986c0.92676-0.04532 1.8574 0.0381 2.7805 0.1324 0.98891 0.10102 1.9734 0.25783 2.946 0.46341 0.67034 0.1417 1.3365 0.31166 1.986 0.52961 0.30497 0.10233 0.62573 0.18617 0.89372 0.36411 0.12999 0.08631 0.35172 0.17635 0.33101 0.33101-0.0236 0.17634-0.29034 0.22363-0.46342 0.2648-1.0319 0.24547-2.1216-0.06733-3.1777-0.1655-0.90894-0.0845-1.8153-0.20531-2.7143-0.36411-1.0124-0.17883-2.0777-0.23354-3.0122-0.66201-0.35103-0.16096-0.92682-0.69511-0.92682-0.69511z" stroke="#000"/>
   </g>
   <g transform="translate(1.3236 102.35)" stroke-width=".066146">
    <path d="m135.71 105.38s1.6129-0.0571 2.4164 0c0.54476 0.0387 1.0904 0.10623 1.6219 0.23171 0.71312 0.16834 1.4262 0.38786 2.0854 0.69511 0.17001 0.0793 0.34319 0.3261 0.26481 0.49651-0.085 0.18484-0.39262 0.12236-0.59582 0.1324-0.92128 0.0455-1.8474-0.12896-2.7474-0.331-0.95323-0.21399-1.8656-0.55451-2.7805-0.92682-0.12304-0.0501-0.2648-0.29791-0.2648-0.29791z" stroke="#000"/>
    <path d="m133.43 107.99s5.9046 1.6904 8.7717 2.7805c0.73406 0.27908 1.4734 0.56386 2.1515 0.95992 0.32013 0.18697 0.65533 0.37809 0.89372 0.66201 0.14278 0.17005 0.37241 0.38664 0.29791 0.59582-0.0812 0.22796-0.42204 0.26681-0.66202 0.2979-0.39935 0.0517-0.80237-0.0954-1.1916-0.1986-0.86383-0.22894-1.6904-0.58403-2.5156-0.92682-1.0896-0.45257-2.1666-0.94037-3.2108-1.4895-1.5542-0.81737-4.5348-2.6812-4.5348-2.6812z" stroke="#000600"/>
    <path d="m131.08 109.52s3.4646 2.1516 5.0644 3.4094c0.5403 0.42476 1.0406 0.90032 1.5226 1.3902 0.44406 0.45133 0.963 0.863 1.2578 1.4233 0.0635 0.12078 0.18736 0.29294 0.0993 0.39721-0.0928 0.10991-0.29355 0.0115-0.43031-0.0331-0.77717-0.2537-1.4205-0.81515-2.0854-1.2909-0.84786-0.60675-1.6608-1.2676-2.4164-1.986-1.0811-1.028-3.0122-3.3101-3.0122-3.3101z" stroke="#001000"/>
   </g>
   <g transform="translate(1.0592 103.01)" stroke="#000">
    <path d="m79.773 110.84s-4.0735 1.5983-6.0243 2.5818c-0.74181 0.37398-1.4753 0.77528-2.1515 1.2578-0.50949 0.36356-1.0746 0.70499-1.4233 1.2247-0.11665 0.17384-0.29738 0.41123-0.1986 0.59581 0.11872 0.22183 0.47685 0.20961 0.72822 0.19861 0.76378-0.0334 1.463-0.46225 2.1515-0.79442 0.709-0.34202 1.3598-0.79467 2.0191-1.2247 0.90244-0.58865 1.8014-1.1872 2.6481-1.8536 0.78624-0.61888 2.2508-1.986 2.2508-1.986z" stroke-width=".066146"/>
    <path d="m81.99 111.64s-2.9937 3.1973-4.3693 4.8989c-0.79913 0.98855-1.523 2.0362-2.2508 3.0784-0.79728 1.1415-1.5947 2.2852-2.3171 3.4756-0.39196 0.64592-0.87411 1.2627-1.0923 1.986-0.07675 0.2544-0.28098 0.63795-0.0662 0.79441 0.23187 0.16891 0.56206-0.16275 0.79442-0.331 1.3813-1.0002 2.3079-2.5176 3.3432-3.8728 0.81553-1.0676 1.5493-2.1974 2.2508-3.3432 1.3308-2.1734 3.7073-6.6863 3.7073-6.6863z" stroke="#000" stroke-width=".066146"/>
    <path d="m82.686 114.88s-0.89561 0.8443-1.2247 1.3571c-0.37638 0.58648-0.55234 1.2796-0.82752 1.9198-0.23227 0.5404-0.49003 1.0706-0.69511 1.6219-0.25428 0.68354-0.69388 1.3567-0.66202 2.0854 0.0063 0.1433 0.03364 0.34077 0.1655 0.39721 0.14128 0.0605 0.31394-0.0651 0.43031-0.16551 0.66219-0.57121 0.89479-1.5043 1.2909-2.284 0.47196-0.92888 1.0148-1.842 1.2909-2.8467 0.18534-0.67439 0.23171-2.0853 0.23171-2.0853z" stroke-width=".066146"/>
   </g>
   <g transform="translate(1.3433 103.17)" stroke-width=".066146">
    <path d="m52.546 85.459s-5.1512-0.7543-7.7473-0.86601c-1.232-0.05301-2.4899-0.15307-3.6981 0.09362-0.47695 0.09739-1.3315 0.05223-1.3575 0.53833-0.02686 0.50182 0.84879 0.57179 1.3341 0.70217 1.3046 0.35048 2.6987 0.19391 4.0492 0.16384 2.4815-0.05526 7.4196-0.63196 7.4196-0.63196z" stroke="#000"/>
    <path d="m50.954 88.08s-4.4545 0.70729-6.6706 1.1235c-1.2843 0.24119-2.59 0.41012-3.8385 0.7958-0.67835 0.20954-1.4113 0.37614-1.9661 0.8192-0.28418 0.22696-0.73722 0.5413-0.63196 0.88942 0.11365 0.37585 0.70995 0.37668 1.1001 0.4213 0.84518 0.09666 1.7046-0.13652 2.5278-0.35109 3.2821-0.85549 9.4793-3.6981 9.4793-3.6981z" stroke="#000700"/>
    <path d="m52.522 91.053c-1.0372-0.09586-2.3405 0.0498-3.4875 0.25746-0.84786 0.1535-1.6882 0.38806-2.481 0.72558-0.67847 0.28884-1.3217 0.66798-1.9193 1.1001-0.41635 0.30107-0.89236 0.58352-1.1469 1.0299-0.07883 0.13823-0.1825 0.33612-0.09362 0.46812 0.09315 0.13835 0.32586 0.11293 0.49152 0.09362 1.1205-0.13062 2.0597-0.92063 3.0896-1.3809 1.0299-0.46031 2.0375-0.974 3.0896-1.3809 0.58217-0.22518 1.1763-0.42199 1.7788-0.58514 0.21565-0.0584 0.50438 0.02424 0.65536-0.14044 0.04251-0.04636 0.06674-0.14165 0.0234-0.18724z" stroke="#000"/>
   </g>
  </g>
 </g>
</svg>
