<?xml version="1.0" encoding="UTF-8"?>

<svg width="659" height="423" version="1.1" viewBox="0 0 173 111" xmlns="http://www.w3.org/2000/svg">

 <g>
  <path d="m158 94
    c2.9864-0.45962 6.1162-1.628 8.2405-3.7769 1.5849-1.6033 2.323-3.9661 2.7468-6.1803 3.7684-19.688 5.1969-41.539-2.4035-60.087-1.2903-3.1488-3.8061-6.0671-6.867-7.5538-2.89-1.4037-6.4149-0.38927-9.6139-0.6867-40.032-3.7221-79.642-14.885-119.83-13.734-6.0375 0.17291-12.93-0.40713-17.854 3.0902-3.8428 2.7292-5.6394 7.81-6.8671 12.361-5.993 22.215-7.0876 46.726-1.3734 69.014 1.3115 5.1154 3.737 10.481 7.8971 13.734 3.2819 2.5662 7.8515 3.3898 12.017 3.4335 4.497 0.0472 8.6799-2.3611 13.047-3.4335 6.4982-1.5956 13.013-3.1348 19.571-4.4636 7.0632-1.4312 14.117-3.0553 21.288-3.7769 4.5565-0.45852 9.5008-2.09 13.734-0.34335 3.3674 1.3893 5.0726 5.2301 7.5538 7.8971 2.2077 2.3731 4.0433 5.124 6.5237 7.2104 1.9682 1.6556 6.5237 4.1202 6.5237 4.1202s-2.6237-6.0763-3.4335-9.2705c-0.59667-2.3534-1.7978-4.9071-1.0301-7.2104 0.66539-1.9962 2.5128-3.6749 4.4636-4.4636 6.2612-2.5315 13.532-0.2707 20.258 0.34335 4.8531 0.44309 9.5985 1.7005 14.421 2.4035 3.6523 0.53241 7.3393 1.9348 10.987 1.3734z" fill="lime"/>
 </g>
</svg>
