<?xml version="1.0" encoding="UTF-8"?>
<!-- Created with Inkscape (http://www.inkscape.org/) -->
<svg width="415" height="304" version="1.1" viewBox="0 0 109.8 80.433" xmlns="http://www.w3.org/2000/svg" xmlns:cc="http://creativecommons.org/ns#" xmlns:dc="http://purl.org/dc/elements/1.1/" xmlns:rdf="http://www.w3.org/1999/02/22-rdf-syntax-ns#">
 <metadata>
  <rdf:RDF>
   <cc:Work rdf:about="">
    <dc:format>image/svg+xml</dc:format>
    <dc:type rdf:resource="http://purl.org/dc/dcmitype/StillImage"/>
    <dc:title/>
   </cc:Work>
  </rdf:RDF>
 </metadata>
 <g transform="translate(-51.073 -62.373)">
  <path d="m55.144 89.826c0.64439-5.67 0.85672-11.356 2.3392-16.959 1.6556-6.2575 7.7657-8.1666 12.573-8.1871 25.518-0.10899 51.736-0.0349 76.316-0.2924 8.2709-0.0867 12.949 11.633 12.314 21.182-0.42239 6.3506 0.51814 13.058-0.0328 20.046-0.78269 9.9274-0.16487 29.024-13.45 26.901-10.324-1.6504-37.427-6.1404-37.427-6.1404l-11.988 13.45-2.6316-15.497s-22.577-1.3799-32.261-0.55195c-5.8684 1.2816-8.4318-6.2197-7.6352-12.898 0.83507-7.001 1.0886-14.052 1.8842-21.053z" fill="#fff" stroke="#000" stroke-width="1.5875"/>
 </g>
</svg>
