<?xml version="1.0" encoding="UTF-8"?>
<!-- Created with Inkscape (http://www.inkscape.org/) -->
<svg width="373" height="212" version="1.1" viewBox="0 0 98.69 56.092" xmlns="http://www.w3.org/2000/svg" xmlns:cc="http://creativecommons.org/ns#" xmlns:dc="http://purl.org/dc/elements/1.1/" xmlns:rdf="http://www.w3.org/1999/02/22-rdf-syntax-ns#">
 <metadata>
  <rdf:RDF>
   <cc:Work rdf:about="">
    <dc:format>image/svg+xml</dc:format>
    <dc:type rdf:resource="http://purl.org/dc/dcmitype/StillImage"/>
    <dc:title/>
   </cc:Work>
  </rdf:RDF>
 </metadata>
 <g transform="translate(-56.287 -111.94)">
  <g transform="translate(1.2882 -1.2143)">
   <path d="m109.37 114.43h32.461l-3.3081 4.2385 6.9263 0.31013 3.4115-4.4453h3.4115l-9.9243 14.783-3.5149-0.10338-3.4115 4.5486 9.5108 0.31014 2.2743-2.8946h4.8588l-7.5466 11.372-8.5804 0.10338-1.9642 3.7216 6.5128 0.41352-3.2047 5.2723h-3.2047l1.7574-2.6878-7.3398-0.20676 2.0676-3.6182h-3.9284l-4.652 6.7196-15.713 0.20676 1.0338-1.2405 10.958-0.10338 1.4473-2.0676-25.845 0.41351 2.3777-2.6878-11.682-0.10338-5.9959 8.2702-8.9939-0.10337-13.232 13.129 11.268-16.127 6.2027 0.31013 2.3777-2.7912-7.3399-0.20676 2.3777-3.3081h1.9642l2.4811-3.4115-10.545-0.41351 7.0297-8.5804-9.5108-0.31013 11.992-13.026-2.1709 3.7216h5.7892l7.0297-8.477h-3.1013l-3.3081 3.825-3.4115-0.20676 4.0318-4.5486z" stroke="#000500" stroke-width=".13229"/>
   <path d="m111.46 115.35 27.878-0.0523-3.5566 4.6027 11.402 0.1046-5.3349 7.6363-3.5043 0.0523-5.8056 7.3224 12.762 0.1569 2.249-2.9813 2.0921 0.0523-5.8056 8.3162-8.5777 0.20921-1.9875 3.5566-1.9875-0.10461 2.4059-3.7658h-5.2303l-7.2701 10.356-1.0984-0.10461 1.8306-2.8767-23.17-0.20921 1.8306-2.3536-14.959-0.26152 2.5629-3.3997-1.5691-0.0523-8.7346 12.396-9.3623-0.20921-5.4918 6.2241 5.3349-7.3224 6.4333 0.36612 3.7135-4.6027-5.701-0.10461 6.0672-8.3162-9.7284-0.15691 6.4856-8.4731-9.7807 0.1046 6.2241-6.4856 7.9501 0.0523 7.5316-9.7807z" fill="#fff"/>
  </g>
 </g>
</svg>
