<?xml version="1.0" encoding="UTF-8"?>
<!-- Created with Inkscape (http://www.inkscape.org/) -->
<svg width="449" height="422" version="1.1" viewBox="0 0 118.8 111.65" xmlns="http://www.w3.org/2000/svg" xmlns:cc="http://creativecommons.org/ns#" xmlns:dc="http://purl.org/dc/elements/1.1/" xmlns:rdf="http://www.w3.org/1999/02/22-rdf-syntax-ns#">
 <metadata>
  <rdf:RDF>
   <cc:Work rdf:about="">
    <dc:format>image/svg+xml</dc:format>
    <dc:type rdf:resource="http://purl.org/dc/dcmitype/StillImage"/>
    <dc:title/>
   </cc:Work>
  </rdf:RDF>
 </metadata>
 <g transform="translate(-37.351 -20.396)" fill="#fff" stroke="#000" stroke-width="1.3229">
  <path d="m40.058 86.766c-0.76632-3.1799-1.0274-6.5545-0.5848-9.7953 0.44628-3.2677 1.6063-6.4784 3.2164-9.3567 1.5718-2.81 6.1404-7.4561 6.1404-7.4561s-2.0434-2.6623-2.4854-4.2398c-0.81525-2.9098-0.84636-6.1247-0.1462-9.0643 0.75256-3.1596 2.3582-6.2126 4.5322-8.6257 1.6465-1.8277 3.8067-3.3157 6.1404-4.0936 1.6669-0.55564 3.5303-0.58345 5.2632-0.2924 1.1424 0.19188 3.2164 1.3158 3.2164 1.3158s1.1189-4.3175 2.4854-5.9942c2.0836-2.5565 5.1008-4.3929 8.1871-5.5556 3.3091-1.2466 6.9926-1.4449 10.526-1.3158 3.2282 0.11795 6.4921 0.72991 9.5029 1.9006 2.0175 0.78446 3.8842 1.987 5.5556 3.3626 1.1187 0.92077 2.924 3.2164 2.924 3.2164-0.32743-0.26194 2.7648-3.758 5.5556-3.9474 2.82-0.19131 5.7216-0.61902 8.4795 0 2.8927 0.64929 5.7218 1.9542 8.0409 3.8012 1.6015 1.2755 2.809 3.0336 3.8012 4.8246 1.2646 2.2827 1.0506 5.3337 0.87719 5.117 0 0 5.223-0.54095 7.7485 0 2.5595 0.54822 5.0753 1.6384 7.1637 3.2164 2.539 1.9184 4.7956 4.4258 6.1404 7.3099 1.5472 3.3185 1.9436 7.1575 1.9006 10.819-0.0292 2.4847-0.65555 4.9595-1.462 7.3099-0.45974 1.3399-1.9006 3.8012-1.9006 3.8012s2.2082 2.0037 2.6316 3.3626c0.72617 2.3305 0.41632 5.0235-0.43859 7.3099-0.83978 2.246-2.5196 4.1964-4.386 5.7018-1.595 1.2864-5.5556 2.6316-5.5556 2.6316s0.72928 4.322 0 6.2866c-0.80573 2.1705-2.6578 3.9042-4.5322 5.2632-2.5645 1.8594-5.6588 3.0699-8.7719 3.655-4.12 0.77431-8.4675 0.55497-12.573-0.2924-2.6765-0.55242-7.6023-3.0702-7.6023-3.0702-0.53982 0.88621-4.8462 4.0245-6.8713 4.2398-3.4504 0.36673-7.0869 1.0284-10.234 0.2924-1.6574-0.38762-3.4081-0.6116-4.9708-1.3158-1.2816-0.57752-3.5088-2.3392-3.5088-2.3392l-3.8012 2.0468s-0.22901 5.4238-0.8772 8.0409c-0.60481 2.442-1.3748 4.9293-2.7778 7.0175-1.8452 2.7465-4.2247 5.3514-7.1637 6.8714-2.2922 1.1854-5.0218 1.4646-7.6023 1.462-1.7872-2e-3 -5.2632-1.0234-5.2632-1.0234s4.4838-0.53641 6.2866-1.7544c2.1887-1.4788 4.0236-3.7694 4.8246-6.2866 0.76895-2.4166 0.50156-5.1938-0.2924-7.6023-0.8125-2.4648-2.4159-4.7434-4.386-6.4328-1.8036-1.5466-4.2931-2.0371-6.4327-3.0702-2.1001-1.014-4.3494-1.7718-6.2866-3.0702-2.4373-1.6336-4.8533-3.4749-6.5789-5.848-1.7839-2.4532-2.9443-5.3846-3.655-8.3333z"/>
  <path d="m109.65 103.87s1.6629-3.0985 2.4472-4.6718c0.69555-1.3953 2.0022-4.2269 2.0022-4.2269" stroke-linecap="round"/>
  <path d="m143.13 92.03s-0.72284-4.4775-1.5951-6.5476c-0.54329-1.2894-2.2247-3.5595-2.2247-3.5595s3.7236-1.1725 5.3392-2.2247c1.7142-1.1164 3.1006-2.6888 4.4494-4.2269 0.66501-0.75835 1.7798-2.4472 1.7798-2.4472"/>
  <g stroke-linecap="round">
   <path d="m131.29 40.567s-0.34725 3.3274-0.88987 4.8943c-0.46678 1.3479-2.0022 3.782-2.0022 3.782"/>
   <path d="m104.53 30.772s-1.3275 3.5186-1.7798 5.3393c-0.3262 1.3133-0.66741 4.0044-0.66741 4.0044"/>
   <path d="m65.351 35.158s-0.23606 2.8378 0 4.2269c0.26327 1.5491 0.82786 3.0576 1.5573 4.4494 0.46821 0.89337 1.7798 2.4472 1.7798 2.4472"/>
  </g>
  <path d="m48.83 60.158s4.6235-2.6586 7.119-3.5595c2.1487-0.77569 4.4009-1.3304 6.6741-1.5573 2.4362-0.24313 4.9163-0.11344 7.3415 0.22247 1.2115 0.1678 3.5595 0.88987 3.5595 0.88987"/>
  <path d="m70.078 107.68s5.4026 0.15197 8.0089-0.44494c1.8794-0.43044 3.759-1.12 5.3393-2.2247 1.0753-0.75167 1.9029-1.8275 2.6696-2.8921 0.98917-1.3735 1.9053-2.8458 2.4472-4.4494 0.4801-1.4208 0.64901-2.9498 0.66741-4.4494 0.01467-1.1956-0.44494-3.5595-0.44494-3.5595" stroke-linecap="round"/>
 </g>
</svg>
