<?xml version="1.0" encoding="UTF-8"?>
<!-- Created with Inkscape (http://www.inkscape.org/) -->
<svg width="429" height="322" version="1.1" viewBox="0 0 113.51 85.196" xmlns="http://www.w3.org/2000/svg" xmlns:cc="http://creativecommons.org/ns#" xmlns:dc="http://purl.org/dc/elements/1.1/" xmlns:rdf="http://www.w3.org/1999/02/22-rdf-syntax-ns#">
 <metadata>
  <rdf:RDF>
   <cc:Work rdf:about="">
    <dc:format>image/svg+xml</dc:format>
    <dc:type rdf:resource="http://purl.org/dc/dcmitype/StillImage"/>
    <dc:title/>
   </cc:Work>
  </rdf:RDF>
 </metadata>
 <g transform="translate(-55.471 -114.63)">
  <g transform="translate(1.2159 -1.1988)">
   <path d="m101.2 182.83c5.017 1.1493 10.231 1.7873 15.369 1.4848 5.2199-0.3074 10.505-1.3133 15.329-3.3307 4.5387-1.898 8.9395-4.5295 12.36-8.0658 2.566-2.6532 4.7864-5.9041 5.7384-9.4703 1.0491-3.9298 0.96714-8.3278-0.2809-12.199-1.3433-4.1668-4.0706-8.0198-7.4238-10.835-5.0753-4.2606-11.622-6.8235-18.098-8.2263-6.7326-1.4583-13.918-1.3851-20.666 0-5.7878 1.188-11.582 3.4154-16.292 6.9823-3.9203 2.9687-7.5447 6.8716-9.2697 11.477-1.5072 4.0237-1.6118 8.7358-0.48154 12.881 1.0698 3.9235 3.7457 7.3576 6.5811 10.273 2.4366 2.5054 5.5611 4.298 8.6677 5.8989 2.6748 1.3784 5.534 2.4581 8.4671 3.13z"/>
   <path d="m85.193 143.47c1.8245-1.964 4.0926-3.4984 6.3804-4.8957 1.6545-1.0104 3.3813-1.9974 5.2568-2.488 3.1652-0.82781 6.5423-0.29748 9.7913-0.68218 2.1685-0.25676 4.2856-0.88997 6.4607-1.0835 2.3584-0.20981 4.7425-0.26904 7.1027-0.0803 2.6656 0.21316 5.2867 0.82262 7.9053 1.3644 4.3328 0.89639 9.0012 2.9028 13.042 6.5008 2.1093 1.8783 4.1726 4.0079 5.3371 6.5811 1.3481 2.9791 2.0857 6.4308 1.6453 9.671-0.41989 3.0892-2.2078 5.8972-3.9727 8.4671-1.1812 1.7199-3.1843 2.9335-4.4542 4.1734-0.8523 0.83212-0.54381 2.52-1.4848 3.2504-1.6982 1.3181-3.9168 2.3892-5.9791 3.4109-3.65 1.8083-7.7314 2.7122-11.758 3.3307-3.677 0.56478-7.4488 0.63431-11.156 0.32103-3.602-0.30442-7.205-0.98256-10.634-2.1268-3.0249-1.0094-6.008-2.3148-8.6276-4.1332-2.9297-2.0337-5.7528-4.4388-7.7047-7.4238-1.7093-2.6141-2.8962-5.685-3.2504-8.7881-0.28748-2.5188 0.08446-5.1661 0.96308-7.5441 1.0814-2.9267 3.0129-5.5391 5.1364-7.825z" fill="#fff"/>
   <path d="m85.915 144.75c1.4474-1.9176 3.2579-3.5584 5.1364-5.0562 1.6508-1.3162 3.3695-2.6453 5.3371-3.4109 1.2276-0.47767 2.5815-0.5538 3.8925-0.68218 1.8376-0.17995 3.6978 0.0328 5.5377-0.12039 2.9635-0.2468 5.8579-1.1433 8.8282-1.2841 2.9565-0.14011 5.9324 0.0665 8.8684 0.44141 1.5041 0.19209 2.9807 0.56555 4.4542 0.92295 5.0993 1.2368 9.8329 3.3042 13.483 6.7817 2.2764 2.1687 4.346 4.7389 5.4976 7.6645 1.0768 2.7357 1.6862 5.8624 1.1236 8.748-0.72125 3.6991-2.9897 7.0776-5.5478 9.8515-0.88192 0.95636-1.9497 1.3997-2.8491 2.3776-0.7044 0.76592-0.59222 2.1875-1.2741 3.0397-0.78164 0.97694-1.9876 1.2274-3.0498 1.7055-2.4419 1.099-4.9775 2.0359-7.5843 2.6485-3.7406 0.87903-7.5942 1.4244-11.437 1.4446-3.9587 0.0208-7.9654-0.37171-11.798-1.3644-3.6287-0.93991-7.1767-2.3691-10.393-4.2937-2.716-1.6251-5.4192-3.5064-7.3435-6.0193-2.3187-3.0279-4.1267-6.6623-4.695-10.433-0.38765-2.5724 0.16502-5.2687 0.96308-7.7448 0.60782-1.8858 1.6554-3.6353 2.8491-5.2167z" stroke="#050000" stroke-width=".26458px"/>
   <path d="m86.156 152.38c0.7871-3.0199 2.5935-5.7683 4.6148-8.1461 1.7008-2.0007 3.9137-3.5428 6.1396-4.9358 1.8057-1.13 3.7974-1.946 5.7785-2.7287 1.137-0.44922 2.2995-0.85077 3.4912-1.1236 2.9227-0.66911 5.9131-1.1113 8.9085-1.244 2.6626-0.11794 5.339 0.0868 7.9856 0.40128 1.649 0.19595 3.2784 0.54604 4.8957 0.92295 5.297 1.2345 9.7055 3.3569 13.403 6.7014 3.2746 2.9621 5.726 6.5356 6.5008 10.995 0.5305 3.0536 0.37642 6.1763-0.92295 8.9888-1.2287 2.6595-3.0951 5.0411-5.1766 7.1027-1.4715 1.4575-3.2451 2.6066-5.0562 3.6116-2.4436 1.356-5.0545 2.4539-7.7448 3.2103-3.4148 0.96012-6.9664 1.6502-10.514 1.6453-5.5263-8e-3 -11.181-0.71303-16.372-2.6084-3.7258-1.3603-7.3808-3.3423-10.193-6.1396-2.5875-2.5741-4.7022-5.8386-5.6982-9.3499-0.66439-2.3421-0.65414-4.9476-0.04013-7.3034z" fill="#fff"/>
   <ellipse transform="matrix(.86883 .49511 -.52741 .84961 0 0)" cx="188.33" cy="58.477" rx="10.039" ry="6.4155" style="paint-order:fill markers stroke"/>
   <ellipse transform="matrix(.8689 .49499 -.52753 .84954 0 0)" cx="187.91" cy="59.177" rx="9.0935" ry="5.8106" fill="#fff" style="paint-order:fill markers stroke"/>
   <g stroke="#000" stroke-width=".066146">
    <path d="m139.23 180.78c1.7813-1.1194 3.5391-2.2953 5.1503-3.6481 1.6037-1.3465 3.0841-2.8452 4.4636-4.4207 0.82745-0.94506 1.6011-1.9441 2.2747-3.0043 0.67605-1.0641 1.7597-3.3477 1.7597-3.3477s-0.65447 1.9288-1.1159 2.8327c-0.74882 1.4669-1.6566 2.8579-2.661 4.1632-1.0188 1.324-2.1704 2.5499-3.3906 3.691-1.2859 1.2026-2.68 2.2922-4.1202 3.3048-1.0979 0.77193-2.2567 1.4577-3.4335 2.103-1.1164 0.6122-2.2605 1.1787-3.4335 1.6738-1.2466 0.52613-2.5271 0.97361-3.8198 1.3734-1.3558 0.41935-2.728 0.79778-4.1202 1.073-1.2465 0.24638-2.5104 0.41218-3.7769 0.51503-1.6119 0.1309-3.234 0.19513-4.8499 0.12875-0.79085-0.0325-2.3606-0.25751-2.3606-0.25751s2.979 0.0567 4.4636-0.0429c1.6112-0.10808 3.2237-0.2832 4.8069-0.60087 2.0385-0.40903 4.0484-0.98099 6.0087-1.6738 1.8367-0.64915 3.6166-1.4584 5.3649-2.3176 0.95403-0.46886 1.8897-0.97951 2.7897-1.5451z"/>
    <path d="m140.3 184.64c1.9618-1.1812 3.9376-2.3503 5.7941-3.691 1.2118-0.87516 2.3804-1.8162 3.4764-2.8327 1.9663-1.8236 3.8846-3.7245 5.5366-5.837 1.2444-1.5912 3.2618-5.1074 3.2618-5.1074s-1.4408 2.9507-2.3176 4.3348c-0.88654 1.3995-1.8725 2.7429-2.9614 3.9915-1.2501 1.4334-2.6393 2.7467-4.0773 3.9915-1.4971 1.2959-3.0762 2.5029-4.7211 3.6052-1.5552 1.0422-3.1887 1.9693-4.8499 2.8327-1.8574 0.9654-3.7564 1.8616-5.7082 2.6181-1.7086 0.66213-3.4623 1.2145-5.2361 1.6738-1.8361 0.47549-3.7026 0.8428-5.5795 1.1159-1.3932 0.20272-2.7989 0.34119-4.2061 0.38628-1.5592 0.05-4.6782-0.12876-4.6782-0.12876s4.3032-0.0212 6.4379-0.25752c1.8213-0.20164 3.6242-0.56712 5.4078-0.98714 1.5513-0.36531 3.0794-0.82948 4.5923-1.3305 1.3193-0.43689 2.622-0.92664 3.9056-1.4592 1.3659-0.56674 2.7178-1.172 4.0344-1.8455 0.64455-0.32973 1.2682-0.69954 1.8884-1.073z"/>
   </g>
   <g stroke-width=".066146">
    <path d="m86.31 135.88c1.7052-1.1016 3.4781-2.112 5.322-2.9614 1.9406-0.894 3.9532-1.6485 6.0087-2.2318 1.6141-0.45805 3.2709-0.77873 4.9357-0.98714 1.6489-0.20641 4.9786-0.25751 4.9786-0.25751s-3.4212 0.29222-5.1074 0.60087c-1.5086 0.27614-3.0114 0.62278-4.4636 1.1159-2.5846 0.87762-5.1026 1.977-7.5108 3.2618-1.7997 0.96017-3.5177 2.0818-5.1503 3.3048-1.8505 1.3862-3.6131 2.9027-5.2361 4.5494-1.2614 1.2798-2.4443 2.6492-3.4764 4.1202-1.1191 1.595-2.0872 3.3023-2.9185 5.0645-0.36505 0.77385-0.9013 2.4035-0.9013 2.4035s0.88445-2.9078 1.5022-4.2919c0.66541-1.491 1.4432-2.9413 2.3605-4.2919 0.95922-1.4122 2.1112-2.6874 3.2618-3.9486 1.4218-1.5583 3.0149-2.947 4.7211-4.2061 0.55946-0.41285 1.0898-0.86735 1.6738-1.2446z" stroke="#000f00"/>
    <path d="m84.808 133.31c1.7509-1.1289 3.5486-2.1932 5.4078-3.1331 2.1727-1.0984 4.4086-2.0832 6.6954-2.9185 1.8367-0.6709 3.7132-1.251 5.6224-1.6738 2.1038-0.46597 6.3949-0.94422 6.3949-0.94422s-3.9686 0.18624-5.9228 0.51503c-2.0804 0.35001-4.1344 0.88303-6.1374 1.5451-2.4545 0.81125-4.8599 1.7963-7.1675 2.9614-2.2975 1.16-4.4969 2.5214-6.6095 3.9915-1.6964 1.1804-3.3362 2.4555-4.8499 3.8627-2.0391 1.8957-3.9436 3.9495-5.6653 6.1374-0.98886 1.2566-1.8841 2.5938-2.661 3.9915-1.0078 1.8131-2.5751 5.6653-2.5751 5.6653s1.5477-3.1934 2.4464-4.7211c0.77457-1.3167 1.5906-2.6169 2.5322-3.8198 1.6165-2.065 3.4211-3.9875 5.322-5.7941 1.4951-1.4209 3.1298-2.6902 4.764-3.9486 0.78009-0.60065 1.576-1.1832 2.4035-1.7168z" stroke="#000"/>
   </g>
   <circle cx="66.539" cy="133.97" r="7.1241" stroke="#000" stroke-linecap="square" stroke-width=".081723" style="paint-order:fill markers stroke"/>
   <circle cx="66.721" cy="134.29" r="6.1388" fill="#fff" style="paint-order:fill markers stroke"/>
   <path d="m61.304 132.75c0.21624-0.82496 0.63816-1.6082 1.1684-2.2761 0.43287-0.54529 1.01-0.97044 1.5933-1.3505 0.79088-0.5153 1.7534-0.79878 2.7162-0.80423 0.8323-5e-3 1.6829 0.17693 2.443 0.51593 0.65787 0.29339 1.2647 0.7378 1.745 1.2746 0.61786 0.69058 1.1164 1.5246 1.3808 2.4127 0.24442 0.82068 0.26282 1.7154 0.15174 2.5644-0.08361 0.63915-0.29007 1.2748-0.60697 1.8361-0.38974 0.69035-0.92448 1.3158-1.5478 1.8057-0.55311 0.43473-1.2128 0.73782-1.8816 0.95598-0.51149 0.16684-1.5933 0.25796-1.5933 0.25796s0.9265-0.27307 1.3657-0.4704c0.54538-0.24505 1.094-0.50923 1.5629-0.8801 0.56152-0.44406 1.0747-0.97271 1.4567-1.5781 0.26167-0.41463 0.46095-0.88287 0.54627-1.3657 0.14355-0.81226 0.16566-1.6847-0.07587-2.4734-0.18572-0.60648-0.51022-1.2266-1.0167-1.6085-0.41664-0.31413-0.98091-0.4618-1.5022-0.44005-0.61754 0.0258-1.2198 0.31855-1.7299 0.66766-0.31615 0.21639-0.61178 0.50263-0.77388 0.84976-0.22247 0.47638-0.21658 1.0372-0.21244 1.5629 5e-3 0.6395 0.31416 1.2578 0.28831 1.8968-0.0187 0.46215-0.0155 1.0012-0.31866 1.3505-0.32752 0.3774-0.8964 0.55457-1.396 0.54627-0.51199-8e-3 -1.035-0.25959-1.4112-0.60697-0.37403-0.34535-0.59276-0.85587-0.71319-1.3505-0.14599-0.59959-0.11235-1.2475 0.01519-1.8512 0.12642-0.59848 0.41671-1.158 0.72836-1.6843 0.29383-0.49624 0.69543-0.92062 1.0622-1.3657 0.14987-0.18186 0.32952-0.31602 0.48557-0.48557 0.03439-0.0374 0.05161-0.11631 0.01516-0.15175-0.14625-0.0622-0.28936-0.0224-0.59179 0.0759-0.38724 0.12581-0.76669 0.30212-1.0925 0.54627-0.30934 0.23178-0.5879 0.51968-0.78906 0.84975-0.27144 0.4454-0.41649 0.96305-0.5311 1.4719-0.11501 0.51064-0.10276 1.0418-0.15174 1.5629-0.01568 0.16687 0.0208 0.34682-0.04552 0.50075-0.04537 0.10531-0.11401 0.24233-0.22761 0.25796-0.10146 0.014-0.19736-0.0844-0.25796-0.16692-0.14595-0.19884-0.15062-0.47098-0.19726-0.71319-0.06063-0.31483-0.09464-0.63556-0.10622-0.95597-0.01425-0.39457-0.05459-0.80168 0.04552-1.1836z" stroke="#000" stroke-width=".039688"/>
   <g stroke="#000" stroke-width=".039688">
    <path d="m71.525 124.42c0.7488 0.43463 1.4302 0.99353 2.0387 1.6095 0.71694 0.72571 1.3443 1.5489 1.867 2.4249 0.48563 0.81395 0.88082 1.6905 1.1588 2.5966 0.26422 0.86123 0.43234 1.761 0.47211 2.661 0.02536 0.57388-0.02248 1.1567-0.15022 1.7168-0.07652 0.33548-0.36481 0.96568-0.36481 0.96568s0.16701-1.1426 0.15022-1.7168c-0.02304-0.78772-0.14439-1.5766-0.34335-2.3391-0.21265-0.81497-0.52704-1.606-0.9013-2.3606-0.41543-0.83754-0.91365-1.6387-1.4807-2.382-0.40219-0.52719-0.8494-1.0267-1.352-1.4592-0.76087-0.65493-1.5912-1.2466-2.4893-1.6953-0.94949-0.47437-2.8862-0.55769-2.8327-0.45065 0 0 0.77142-0.31647 1.1803-0.34336 0.61376-0.0404 1.2309 0.11631 1.8241 0.27898 0.42402 0.11628 0.84293 0.27285 1.2232 0.49357z" fill="#000005"/>
    <path d="m70.902 126.25c0.74915 0.45852 1.4409 1.0324 2.0172 1.6953 0.63677 0.73245 1.1395 1.5861 1.5451 2.4678 0.30066 0.65362 0.51283 1.3527 0.64379 2.0601 0.10307 0.55677 0.15869 1.1314 0.1073 1.6953-0.04551 0.49931-0.36481 1.4592-0.36481 1.4592s0.14763-1.0733 0.1073-1.6095c-0.05988-0.79612-0.24864-1.5865-0.51503-2.3391-0.27218-0.769-0.64752-1.5064-1.0944-2.1889-0.40343-0.61601-0.88934-1.181-1.4163-1.6953-0.51009-0.4978-1.0479-0.98969-1.6738-1.3305-0.53045-0.28879-1.1219-0.47477-1.7168-0.57941-0.31006-0.0545-0.94422-0.0215-0.94422-0.0215s0.67798-0.225 1.0301-0.23606c0.44195-0.0139 0.88421 0.092 1.309 0.2146 0.33571 0.0969 0.66765 0.22537 0.96568 0.40778z"/>
   </g>
   <g stroke-width=".039688">
    <path d="m55.902 134.35c0.08897 0.74968 0.25252 1.4926 0.4704 2.2154 0.19464 0.6457 0.44128 1.2787 0.74354 1.8816 0.39698 0.7918 0.84902 1.5643 1.396 2.261 0.60964 0.77642 1.3026 1.4994 2.0789 2.1092 0.56547 0.44426 1.1953 0.81298 1.8512 1.1077 0.44505 0.19997 0.91781 0.34325 1.396 0.44005 0.26392 0.0534 0.53497 0.0738 0.80423 0.0759 0.1928 1e-3 0.57662-0.0455 0.57662-0.0455s-0.5967 0.22893-0.91045 0.27314c-0.43578 0.0614-0.88736 0.0646-1.3202-0.0152-0.70505-0.12994-1.3884-0.40093-2.0182-0.74354-0.62204-0.3384-1.178-0.79559-1.6995-1.2746-0.55404-0.50893-1.0583-1.077-1.5022-1.6843-0.49249-0.67369-0.92512-1.397-1.2746-2.1547-0.32023-0.69429-0.5706-1.4251-0.74354-2.1699-0.15453-0.66551-0.2403-1.3504-0.25796-2.0334-0.0088-0.33972 0.03039-0.67989 0.07587-1.0167 0.03863-0.28607 0.08815-0.57204 0.16692-0.84975 0.07075-0.24946 0.27314-0.72836 0.27314-0.72836s-0.11933 0.81725-0.13657 1.2291c-0.01565 0.3741-0.01378 0.75105 0.03035 1.1229z" stroke="#000800"/>
    <path d="m57.313 134.86c-0.01396-0.38075 0.03396-0.76398 0.10622-1.1381 0.06405-0.33155 0.28831-0.97115 0.28831-0.97115s-0.10628 0.91982-0.09105 1.3808c0.01651 0.49976 0.07514 1.0022 0.19726 1.4871 0.20604 0.81806 0.5028 1.6204 0.89528 2.3672 0.42952 0.81723 0.95424 1.5956 1.5781 2.2761 0.52428 0.5719 1.1314 1.0778 1.7906 1.4871 0.46554 0.28905 0.97028 0.53614 1.5022 0.66766 0.4429 0.1095 1.3657 0.091 1.3657 0.091s-0.61589 0.24478-0.9408 0.25797c-0.54517 0.0221-1.0985-0.10952-1.6085-0.30349-0.6616-0.25164-1.2818-0.63387-1.8209-1.0925-0.74632-0.63494-1.3734-1.4174-1.8968-2.2458-0.44495-0.70424-0.78885-1.4793-1.0318-2.2761-0.19599-0.64265-0.3092-1.3164-0.33382-1.9878z" fill="#000004" stroke="#000100"/>
   </g>
   <g transform="matrix(0 .60185 -.60185 0 228.79 89.629)">
    <circle cx="66.539" cy="133.97" r="7.1241" stroke="#000" stroke-linecap="square" stroke-width=".081723" style="paint-order:fill markers stroke"/>
    <circle cx="66.721" cy="134.29" r="6.1388" fill="#fff" style="paint-order:fill markers stroke"/>
    <path d="m61.304 132.75c0.21624-0.82496 0.63816-1.6082 1.1684-2.2761 0.43287-0.54529 1.01-0.97044 1.5933-1.3505 0.79088-0.5153 1.7534-0.79878 2.7162-0.80423 0.8323-5e-3 1.6829 0.17693 2.443 0.51593 0.65787 0.29339 1.2647 0.7378 1.745 1.2746 0.61786 0.69058 1.1164 1.5246 1.3808 2.4127 0.24442 0.82068 0.26282 1.7154 0.15174 2.5644-0.08361 0.63915-0.29007 1.2748-0.60697 1.8361-0.38974 0.69035-0.92448 1.3158-1.5478 1.8057-0.55311 0.43473-1.2128 0.73782-1.8816 0.95598-0.51149 0.16684-1.5933 0.25796-1.5933 0.25796s0.9265-0.27307 1.3657-0.4704c0.54538-0.24505 1.094-0.50923 1.5629-0.8801 0.56152-0.44406 1.0747-0.97271 1.4567-1.5781 0.26167-0.41463 0.46095-0.88287 0.54627-1.3657 0.14355-0.81226 0.16566-1.6847-0.07587-2.4734-0.18572-0.60648-0.51022-1.2266-1.0167-1.6085-0.41664-0.31413-0.98091-0.4618-1.5022-0.44005-0.61754 0.0258-1.2198 0.31855-1.7299 0.66766-0.31615 0.21639-0.61178 0.50263-0.77388 0.84976-0.22247 0.47638-0.21658 1.0372-0.21244 1.5629 5e-3 0.6395 0.31416 1.2578 0.28831 1.8968-0.0187 0.46215-0.0155 1.0012-0.31866 1.3505-0.32752 0.3774-0.8964 0.55457-1.396 0.54627-0.51199-8e-3 -1.035-0.25959-1.4112-0.60697-0.37403-0.34535-0.59276-0.85587-0.71319-1.3505-0.14599-0.59959-0.11235-1.2475 0.01519-1.8512 0.12642-0.59848 0.41671-1.158 0.72836-1.6843 0.29383-0.49624 0.69543-0.92062 1.0622-1.3657 0.14987-0.18186 0.32952-0.31602 0.48557-0.48557 0.03439-0.0374 0.05161-0.11631 0.01516-0.15175-0.14625-0.0622-0.28936-0.0224-0.59179 0.0759-0.38724 0.12581-0.76669 0.30212-1.0925 0.54627-0.30934 0.23178-0.5879 0.51968-0.78906 0.84975-0.27144 0.4454-0.41649 0.96305-0.5311 1.4719-0.11501 0.51064-0.10276 1.0418-0.15174 1.5629-0.01568 0.16687 0.0208 0.34682-0.04552 0.50075-0.04537 0.10531-0.11401 0.24233-0.22761 0.25796-0.10146 0.014-0.19736-0.0844-0.25796-0.16692-0.14595-0.19884-0.15062-0.47098-0.19726-0.71319-0.06063-0.31483-0.09464-0.63556-0.10622-0.95597-0.01425-0.39457-0.05459-0.80168 0.04552-1.1836z" stroke="#000" stroke-width=".039688"/>
   </g>
   <g transform="matrix(0 -.61879 .61879 0 11.876 228.79)">
    <circle cx="66.539" cy="133.97" r="7.1241" stroke="#000" stroke-linecap="square" stroke-width=".081723" style="paint-order:fill markers stroke"/>
    <circle cx="66.721" cy="134.29" r="6.1388" fill="#fff" style="paint-order:fill markers stroke"/>
    <path d="m61.304 132.75c0.21624-0.82496 0.63816-1.6082 1.1684-2.2761 0.43287-0.54529 1.01-0.97044 1.5933-1.3505 0.79088-0.5153 1.7534-0.79878 2.7162-0.80423 0.8323-5e-3 1.6829 0.17693 2.443 0.51593 0.65787 0.29339 1.2647 0.7378 1.745 1.2746 0.61786 0.69058 1.1164 1.5246 1.3808 2.4127 0.24442 0.82068 0.26282 1.7154 0.15174 2.5644-0.08361 0.63915-0.29007 1.2748-0.60697 1.8361-0.38974 0.69035-0.92448 1.3158-1.5478 1.8057-0.55311 0.43473-1.2128 0.73782-1.8816 0.95598-0.51149 0.16684-1.5933 0.25796-1.5933 0.25796s0.9265-0.27307 1.3657-0.4704c0.54538-0.24505 1.094-0.50923 1.5629-0.8801 0.56152-0.44406 1.0747-0.97271 1.4567-1.5781 0.26167-0.41463 0.46095-0.88287 0.54627-1.3657 0.14355-0.81226 0.16566-1.6847-0.07587-2.4734-0.18572-0.60648-0.51022-1.2266-1.0167-1.6085-0.41664-0.31413-0.98091-0.4618-1.5022-0.44005-0.61754 0.0258-1.2198 0.31855-1.7299 0.66766-0.31615 0.21639-0.61178 0.50263-0.77388 0.84976-0.22247 0.47638-0.21658 1.0372-0.21244 1.5629 5e-3 0.6395 0.31416 1.2578 0.28831 1.8968-0.0187 0.46215-0.0155 1.0012-0.31866 1.3505-0.32752 0.3774-0.8964 0.55457-1.396 0.54627-0.51199-8e-3 -1.035-0.25959-1.4112-0.60697-0.37403-0.34535-0.59276-0.85587-0.71319-1.3505-0.14599-0.59959-0.11235-1.2475 0.01519-1.8512 0.12642-0.59848 0.41671-1.158 0.72836-1.6843 0.29383-0.49624 0.69543-0.92062 1.0622-1.3657 0.14987-0.18186 0.32952-0.31602 0.48557-0.48557 0.03439-0.0374 0.05161-0.11631 0.01516-0.15175-0.14625-0.0622-0.28936-0.0224-0.59179 0.0759-0.38724 0.12581-0.76669 0.30212-1.0925 0.54627-0.30934 0.23178-0.5879 0.51968-0.78906 0.84975-0.27144 0.4454-0.41649 0.96305-0.5311 1.4719-0.11501 0.51064-0.10276 1.0418-0.15174 1.5629-0.01568 0.16687 0.0208 0.34682-0.04552 0.50075-0.04537 0.10531-0.11401 0.24233-0.22761 0.25796-0.10146 0.014-0.19736-0.0844-0.25796-0.16692-0.14595-0.19884-0.15062-0.47098-0.19726-0.71319-0.06063-0.31483-0.09464-0.63556-0.10622-0.95597-0.01425-0.39457-0.05459-0.80168 0.04552-1.1836z" stroke="#000" stroke-width=".039688"/>
   </g>
   <g stroke="#000" stroke-width=".039688">
    <path d="m154.56 186.11 2.9438 5.311-4.3702-6.5552 0.57662-0.33383z"/>
    <path d="m159.57 185.86 0.60697-2.5189 0.60697 0.091-2.3672 7.4657z"/>
    <path d="m163.55 189.66 2.8224-1.0015 0.15174 0.60697-7.496 2.094z"/>
    <path d="m162.64 194.57 3.0045 1.6692-0.36418 0.60697-6.9194-4.613z"/>
    <path d="m156.78 196.43 0.9408-4.2791-1.0925 7.5871h-0.57662z"/>
    <path d="m153.05 192.48 3.7025-0.63731-5.2806 0.091 0.091 0.78906z"/>
   </g>
   <g transform="matrix(.48545 0 0 .48545 -8.7845 76.791)" stroke="#000" stroke-width=".039688">
    <path d="m154.56 186.11 2.9438 5.311-4.3702-6.5552 0.57662-0.33383z"/>
    <path d="m159.57 185.86 0.60697-2.5189 0.60697 0.091-2.3672 7.4657z"/>
    <path d="m163.55 189.66 2.8224-1.0015 0.15174 0.60697-7.496 2.094z"/>
    <path d="m162.64 194.57 3.0045 1.6692-0.36418 0.60697-6.9194-4.613z"/>
    <path d="m156.78 196.43 0.9408-4.2791-1.0925 7.5871h-0.57662z"/>
    <path d="m153.05 192.48 3.7025-0.63731-5.2806 0.091 0.091 0.78906z"/>
   </g>
   <g stroke-width=".039688">
    <path d="m84.126 180.55 5.1896 3.5508-6.1304-4.8861-0.30348 0.51592z" stroke="#000400"/>
    <path d="m84.126 191.18 5.8876-1.8513-7.6478 3.1259-0.21244-0.66767z" stroke="#000"/>
    <path d="m89.042 196.79 2.6403-3.6722-3.9453 6.6766-0.57662-0.42488z" stroke="#000"/>
   </g>
   <g transform="rotate(215.87 112.14 149.77)" stroke-width=".039688">
    <path d="m97.782 196.15 1.1532 2.3368-0.54627 0.30348-2.6707-6.7373z" stroke="#000600"/>
    <path d="m103.25 192.48 3.6115 1.4871 0.21243-0.63732-7.5264-2.3368z" stroke="#000"/>
    <path d="m104.49 187.41 2.3672 0.12139 0.0303-0.78906-5.311 0.51592z" stroke="#000"/>
   </g>
   <g transform="rotate(219.77 110.94 148.8)" stroke-width=".039688">
    <path d="m84.126 180.55 5.1896 3.5508-6.1304-4.8861-0.30348 0.51592z" stroke="#000400"/>
    <path d="m84.126 191.18 5.8876-1.8513-7.6478 3.1259-0.21244-0.66767z" stroke="#000"/>
    <path d="m89.042 196.79 2.6403-3.6722-3.9453 6.6766-0.57662-0.42488z" stroke="#000"/>
   </g>
  </g>
 </g>
</svg>
