<?xml version="1.0" encoding="UTF-8"?>
<!-- Created with Inkscape (http://www.inkscape.org/) -->
<svg width="421" height="308" version="1.1" viewBox="0 0 111.39 81.492" xmlns="http://www.w3.org/2000/svg" xmlns:cc="http://creativecommons.org/ns#" xmlns:dc="http://purl.org/dc/elements/1.1/" xmlns:rdf="http://www.w3.org/1999/02/22-rdf-syntax-ns#">
 <metadata>
  <rdf:RDF>
   <cc:Work rdf:about="">
    <dc:format>image/svg+xml</dc:format>
    <dc:type rdf:resource="http://purl.org/dc/dcmitype/StillImage"/>
    <dc:title/>
   </cc:Work>
  </rdf:RDF>
 </metadata>
 <g transform="translate(-45.901 -98.267)">
  <g transform="translate(.21542 .10299)">
   <path d="m139.34 104.55c0.92222 0.11999 1.852 0.3258 2.6971 0.71393 0.46656 0.21427 0.92028 0.49598 1.2692 0.87259 0.32211 0.34765 0.58158 0.77448 0.71394 1.2296 0.0924 0.31763 0.0397 0.99157 0.0397 0.99157s0.65277-0.26415 0.99158-0.35696c0.6102-0.16715 1.2315-0.35015 1.8642-0.35697 0.87153-9e-3 1.7765 0.0941 2.5781 0.43629 0.59095 0.2523 1.1932 0.61379 1.5469 1.1502 0.50131 0.76032 0.66206 1.7471 0.6346 2.6574-0.0233 0.77339-0.22071 1.5943-0.67427 2.2211-0.60634 0.83802-1.6063 1.3365-2.5384 1.7848-0.59573 0.28653-1.275 0.35149-1.9038 0.55529-0.93485 0.30298-1.8475 0.67091-2.7764 0.99157-0.47424 0.16371-1.4279 0.47596-1.4279 0.47596l-22.608-11.978s0.88391-1.4274 1.4279-2.0625c0.23726-0.277 0.49688-0.54106 0.79327-0.7536 0.69205-0.49628 1.452-0.92317 2.2608-1.1899 0.82573-0.27232 1.709-0.42047 2.5781-0.39663 0.76983 0.0211 1.5324 0.22592 2.2608 0.47596 0.57044 0.19582 1.1061 0.48794 1.6262 0.79326 0.6389 0.37505 1.2529 0.79789 1.8245 1.2692 0.51216 0.42232 1.4279 1.3882 1.4279 1.3882s0.58361-0.3973 0.91225-0.51562c0.70762-0.25476 1.472-0.33027 2.2211-0.39663 0.75065-0.0665 1.5135-0.0972 2.2608 0z" stroke="#000800" stroke-width=".13229"/>
   <path d="m129.42 103.21c0.8466 0.37966 1.6248 0.9163 2.3401 1.5072 0.62002 0.51217 1.6658 1.7452 1.6658 1.7452l-0.83293 0.71393s1.3017-0.63341 1.9832-0.87259c0.96831-0.33987 1.9528-0.6995 2.9747-0.79326 1.1885-0.10904 2.4704-0.18702 3.5697 0.27764 0.68163 0.28812 1.2795 0.83638 1.6658 1.4675 0.33482 0.54698 0.44298 1.2237 0.47596 1.8642 0.0186 0.36039-0.15865 1.0709-0.15865 1.0709s1.4168-0.78186 2.1815-1.0312c0.87021-0.28379 1.7855-0.59765 2.6971-0.51563 0.80453 0.0724 1.7608 0.23819 2.2608 0.8726 0.37154 0.47139 0.324 1.1908 0.23798 1.7848-0.0975 0.67357-0.4182 1.3245-0.83292 1.8642-0.43533 0.56647-1.0555 0.97728-1.6658 1.3486-0.59181 0.35997-1.2415 0.63018-1.9038 0.83292-0.62982 0.19278-1.2966 0.23288-1.9435 0.35697-0.9269 0.1778-2.7764 0.55528-2.7764 0.55528l-20.466-10.828s1.427-0.97962 2.1418-1.4675c0.33013-0.22534 0.63083-0.50215 0.99158-0.67427 0.66061-0.31519 1.3742-0.55852 2.1021-0.63461 0.62026-0.0648 1.2504 0.0483 1.8642 0.15865 0.48618 0.0874 0.97714 0.1945 1.4279 0.39663z" fill="#fff"/>
  </g>
  <g transform="translate(1.2681 -1.2708)">
   <path d="m62.937 159.9c2.6776-1.7574 8.0772-5.2041 8.0772-5.2041s1.534 1.21 2.3852 1.6805c0.94281 0.52111 2.9815 1.2468 2.9815 1.2468l-5.0415 18.811 6.5051-18.485s1.4791 0.25269 2.2226 0.21684c0.93802-0.0452 2.7647-0.54209 2.7647-0.54209l0.16263 9.5408 1.1384-10.083s1.1211-0.5951 1.5721-1.03c0.38255-0.36891 0.92156-1.301 0.92156-1.301s0.34955 1.1877 0.70472 1.6805c0.7862 1.0908 1.9194 1.9068 3.0357 2.6563 1.409 0.9459 2.9857 1.6274 4.5536 2.2768 1.2142 0.50295 3.7404 1.2468 3.7404 1.2468l-0.37947 8.9445 2.0057-8.6193s1.2951 0.28857 1.9515 0.37947c0.6466 0.0895 1.9515 0.16263 1.9515 0.16263l0.81313 15.992 0.43368-15.938s0.90364 0.0758 1.3552 0.0542c0.40076-0.0192 1.1926-0.16263 1.1926-0.16263l5.4751 16.371-3.0357-16.859s1.7548-0.53068 2.5478-0.97576c0.69656-0.39092 1.3468-0.88488 1.8973-1.4637 0.54582-0.57386 1.3552-1.9515 1.3552-1.9515-0.23589 0.059 1.515 1.129 2.8731 1.301 1.5812 0.20027 3.1774 0.37565 4.7704 0.32526 1.9311-0.0611 3.865-0.31859 5.7462-0.75893 1.6358-0.3829 3.2723-0.86597 4.7704-1.6263 1.3768-0.69875 2.677-1.5911 3.7946-2.6563 0.51283-0.48874 0.92399-1.0807 1.301-1.6805 0.25806-0.41049 0.65051-1.301 0.65051-1.301l6.0172 11.221-5.3667-14.149s0.01-1.2318-0.0542-1.8431c-0.0422-0.40184-0.21683-1.1926-0.21683-1.1926l0.81313-0.65051 10.408 13.444-9.053-13.498s0.7602 0.0901 1.1384 0.0542c0.53666-0.0509 1.053-0.23397 1.5721-0.37946 0.45671-0.12801 1.3552-0.43368 1.3552-0.43368l5.0415 4.5536-4.1741-5.0957s2.1284-1.4408 2.9815-2.3852c1.139-1.2609 2.0569-2.7378 2.7647-4.2825 0.53352-1.1644 0.89318-2.4198 1.0842-3.6862 0.20213-1.3402 0.32553-2.7378 0.0542-4.0657-0.20569-1.0066-0.58238-2.0352-1.2468-2.8189-0.44727-0.52754-1.2665-0.62937-1.7347-1.1384-0.48719-0.52962-0.73073-1.2429-1.03-1.8973-0.55404-1.2117-0.78475-2.5636-1.4094-3.7404-0.42546-0.80153-0.85351-1.6684-1.5721-2.2226-0.73351-0.56573-2.602-0.97577-2.602-0.97577s-0.52738-1.0254-0.97577-1.3552c-0.46028-0.33861-1.0622-0.45057-1.6263-0.5421-0.37456-0.0608-1.1384 0-1.1384 0s0.15442-1.0216 0.0542-1.5179c-0.27207-1.3472-0.79278-2.7396-1.7347-3.7404-0.88656-0.94202-2.1945-1.4149-3.4152-1.8431-0.76255-0.26749-1.5812-0.3529-2.3852-0.43368-0.88117-0.0885-1.7722-0.10583-2.6563-0.0542-0.52808 0.0308-1.5721 0.21684-1.5721 0.21684s-0.11089-0.87339-0.37947-1.1926c-0.9574-1.1379-2.5068-1.7319-3.9573-2.06-2.2956-0.5192-4.6176-0.5723-6.722-0.75893-2.4738-0.21939-5.0198-0.0161-7.4267 0.5963-1.0348 0.26332-2.0275 0.72613-2.9273 1.301-0.32374 0.20683-0.86735 0.75893-0.86735 0.75893s-1.2814-1.0656-1.8973-1.6263c-1.2202-1.1108-2.6473-2.4456-4.391-3.1441-2.3861-0.95596-5.0557-0.92742-7.5351-0.37946-2.0576 0.45475-4.1264 1.1794-5.8546 2.3852-1.3637 0.95148-2.4802 2.2759-3.361 3.6862-0.54568 0.87374-1.1384 2.8731-1.1384 2.8731s-1.8278-1.4745-2.9273-1.7889c-2.0501-0.58622-4.3427-0.62674-6.3967-0.0542-2.2898 0.63825-4.3633 2.0874-6.0714 3.7404-1.1524 1.1153-2.1569 2.4875-2.6563 4.0115-0.34922 1.0659-0.40894 2.2667-0.16263 3.361 0.19351 0.85966 1.2468 2.331 1.2468 2.331s-2.2301-0.58504-3.3068-0.32525c-2.111 0.50934-4.0875 1.9543-5.0415 3.4694-0.84447 1.3412-1.6848 2.7039-2.2768 4.1741-0.38478 0.95558-0.81314 2.9815-0.81314 2.9815l-7.3183 0.32526 7.2098 1.4094s0.12779 1.8498 0.27105 2.7647c0.10583 0.67579 0.43368 2.0057 0.43368 2.0057l-8.4567 4.7704 8.8361-3.3068s0.98009 2.1919 1.6263 3.1984c0.42387 0.66017 0.89279 1.305 1.4637 1.8431 0.7551 0.71182 2.5478 1.7889 2.5478 1.7889l-15.233 8.8361 17.293-8.1314s1.0776 0.25771 1.6263 0.32525c0.37705 0.0464 0.75851 0.0567 1.1384 0.0542 0.59738-4e-3 1.7889-0.10841 1.7889-0.10841s-0.20661 0.71577-0.21684 1.0842c-0.0071 0.25545 0.10842 0.75893 0.10842 0.75893l-14.582 16.805s6.5229-4.4006 9.8119-6.5593z" stroke="#000600" stroke-width=".13229"/>
   <path d="m70.826 112.27c1.0023-0.81356 2.1131-1.5302 3.314-2.0038 1.3921-0.54902 2.8965-0.91726 4.3929-0.92482 0.65495-3e-3 1.3128 0.15712 1.9267 0.38534 1.2724 0.473 2.5039 1.133 3.5452 2.0038 1.0497 0.87778 2.6203 3.1598 2.6203 3.1598s-1.3402-3.1664-1.079-4.7783c0.23052-1.4221 1.2218-2.6751 2.235-3.6993 1.3386-1.3532 3.0737-2.3356 4.8553-3.0057 1.6089-0.60509 3.3726-0.97819 5.0866-0.84776 1.7254 0.1313 3.409 0.79783 4.9324 1.6184 1.9639 1.0579 3.5476 2.7093 5.2407 4.1617 0.71746 0.61549 1.2705 1.44 2.0809 1.9267 0.5363 0.32209 1.7726 0.61656 1.7726 0.61656s-1.2899-0.75626-1.7726-1.3102c-0.42296-0.48535-0.87456-1.0537-0.92483-1.6955-0.0298-0.38074 0.13665-0.78913 0.38534-1.079 0.70359-0.82002 1.8172-1.2292 2.8516-1.5414 1.3582-0.40992 2.8205-0.35058 4.2388-0.38535 1.8507-0.0454 3.7186-0.0463 5.549 0.23121 1.2876 0.19525 2.6354 0.37394 3.7764 1.0019 0.82815 0.4558 1.8287 1.0157 2.0809 1.9267 0.17132 0.61897-0.32814 1.2432-0.53949 1.8497-0.24648 0.70726-0.73446 1.3405-0.84776 2.0809-0.0468 0.30579 0.0771 0.92483 0.0771 0.92483s0.32489-1.4495 0.69362-2.0809c0.3669-0.62823 0.83347-1.2561 1.4643-1.6184 0.86503-0.49692 1.9312-0.60018 2.9286-0.61655 1.3302-0.0218 2.6822 0.23343 3.9305 0.69362 0.95081 0.35052 1.9286 0.80086 2.6204 1.5414 0.62741 0.67164 1.2124 1.5474 1.2331 2.4662 0.0208 0.9209 0.14602 2.0143-0.23121 2.4662-0.84992 1.0182-2.8119 2.7019-2.8119 2.7019s2.1331-1.4087 3.3514-1.7c0.8495-0.20314 1.7637-0.17072 2.6203 0 1.4458 0.28814 2.8509 0.88859 4.0847 1.6955 0.74507 0.48732 1.443 1.1022 1.9267 1.8497 0.83002 1.2824 1.0688 2.8632 1.5414 4.3159 0.14084 0.43289 0.38535 1.3102 0.38535 1.3102s-1.8905 0.40289-2.8516 0.46242c-0.69277 0.0429-1.3968 0.0403-2.0809-0.0771-0.42443-0.0728-1.2331-0.38535-1.2331-0.38535s0.66009 0.62963 1.079 0.77069c0.82813 0.27888 1.7467 0.0962 2.6204 0.0771 1.0558-0.023 2.1396-0.50391 3.1598-0.2312 0.92928 0.24839 1.8806 0.80194 2.3891 1.6184 0.58964 0.94676 0.52737 2.2005 0.46241 3.314-0.10669 1.8288-0.56929 3.6786-1.3872 5.3178-0.84912 1.7016-2.0599 3.2824-3.5452 4.47-1.2025 0.96153-2.6697 1.6238-4.1617 2.0038-0.99705 0.25389-2.0553 0.2078-3.0828 0.15414-1.1683-0.061-3.4681-0.53948-3.4681-0.53948s0.97042 1.0479 1.2331 1.6955c0.40968 1.01 0.50424 2.1478 0.46241 3.2369-0.0364 0.94669-0.22577 1.9114-0.61655 2.7745-0.53834 1.1889-1.3102 2.3234-2.3121 3.1598-1.5347 1.2812-3.4784 2.051-5.3948 2.6203-2.7551 0.81859-5.6822 1.1769-8.5547 1.079-1.3344-0.0455-2.7088-0.2323-3.9305-0.77069-0.67236-0.29629-1.254-0.78966-1.7726-1.3102-0.33726-0.33853-0.84776-1.156-0.84776-1.156s7e-3 1.1771-0.2312 1.6955c-0.50092 1.0917-1.3666 2.0672-2.3891 2.6974-1.5383 0.94815-3.4487 1.1541-5.2407 1.3872-2.2163 0.28837-4.4831 0.24129-6.705 0-2.3796-0.25841-4.8244-0.57288-7.0133-1.5414-1.584-0.70085-3.0722-1.7254-4.2388-3.0057-0.89923-0.98688-1.5897-2.1988-2.0038-3.4681-0.22436-0.68776-0.23121-2.1579-0.23121-2.1579l0.21707-3.0618s-0.77235 2.9031-1.0648 5.1426c-0.2023 1.5491-1.857 2.7502-3.314 3.314-2.0387 0.78885-4.4414 0.26511-6.5509-0.30828-1.6522-0.4491-3.2104-1.3192-4.5471-2.3891-1.0529-0.84281-2.0753-1.8491-2.6203-3.0828-0.40819-0.92395-0.70295-2.0468-0.38534-3.0057 0.3142-0.94858 1.2712-1.5723 2.0809-2.1579 0.62379-0.45115 1.4862-0.51305 2.0809-1.0019 0.29768-0.24469 0.69362-0.92483 0.69362-0.92483s-2.6491 1.2822-3.9305 2.0038c-0.55285 0.31134-1.0069 0.83284-1.6184 1.0019-1.6592 0.45863-3.5962 0.63442-5.1636-0.0771-2.5507-1.1578-4.4387-3.7054-5.626-6.2426-1.0779-2.3034-1.3074-5.0199-1.079-7.5528 0.20428-2.2655 0.82448-4.631 2.1579-6.4738 0.80722-1.1156 2.0068-2.0332 3.314-2.4662 1.829-0.60587 5.7802 0 5.7802 0s-1.131-1.9276-1.2331-3.0057c-0.15824-1.6702 0.23362-3.441 1.0019-4.9324 0.48275-0.93717 1.3394-1.6476 2.1579-2.312z" fill="#fff"/>
  </g>
 </g>
</svg>
