<?xml version="1.0" encoding="UTF-8"?>

<svg  version="1.1" viewBox="0 0 650 375" xmlns="http://www.w3.org/2000/svg"  xmlns:cc="http://creativecommons.org/ns#" xmlns:dc="http://purl.org/dc/elements/1.1/" xmlns:osb="http://www.openswatchbook.org/uri/2009/osb" xmlns:rdf="http://www.w3.org/1999/02/22-rdf-syntax-ns#" xmlns:xlink="http://www.w3.org/1999/xlink">>

 <defs>

  <linearGradient id="Gradiente1">
   <stop stop-color="#a8d454" offset="0"/>
   <stop stop-color="#fff" stop-opacity="0" offset="1"/>
  </linearGradient>

  <radialGradient id="radialGradient1034-7" cx="755.62" cy="1114.9" r="21.344" gradientTransform="matrix(1 0 0 .87796 -269.88 -751.53)" gradientUnits="userSpaceOnUse" xlink:href="#Gradiente1"/>
  <radialGradient id="radialGradient869-17-2" cx="851.23" cy="1328.9" r="12.856" gradientTransform="matrix(1.7277 0 0 1.5017 -1317.6 -1768.4)" gradientUnits="userSpaceOnUse" xlink:href="#Gradiente1"/>
  <radialGradient id="radialGradient1147" cx="754.24" cy="923.48" r="12.856" gradientTransform="matrix(1 0 0 .97056 -223.72 -830.73)" gradientUnits="userSpaceOnUse" xlink:href="#Gradiente1"/>
  <radialGradient id="radialGradient1149" cx="851.23" cy="1328.9" r="12.856" gradientTransform="matrix(2.0304 0 0 1.7353 -1401.5 -2090.4)" gradientUnits="userSpaceOnUse" xlink:href="#Gradiente1"/>
  <radialGradient id="radialGradient1151" cx="301.82" cy="1054.3" r="12.356" gradientTransform="matrix(1 0 0 .96936 -227.1 -823.6)" gradientUnits="userSpaceOnUse" xlink:href="#Gradiente1"/>
 </defs>

 <g>
  <g >
   <path d="m38.67 313.8c5.433 2.9389 10.482 6.5738 16.006 9.337 6.4747 3.2385 13.234 5.8933 20.008 8.4479 5.2623 1.9845 10.642 3.6471 16.006 5.3354 7.9621 2.5058 15.89 5.1789 24.01 7.114 9.6712 2.3048 19.474 4.1456 29.345 5.3355 19.605 2.3633 39.396 2.9639 59.135 3.557 6.37 0.1914 12.751 0.2649 19.119 0 7.1325-0.2967 14.25-0.9666 21.342-1.7785 7.1426-0.8176 21.342-3.1124 21.342-3.1124s5.8278 3.7364 8.8925 5.3355c4.1758 2.1789 8.4261 4.2893 12.894 5.7801 7.6398 2.5491 15.593 4.1914 23.565 5.3355 7.0556 1.0126 14.215 1.4466 21.342 1.3338 7.8889-0.1248 15.808-0.7806 23.565-2.2231 8.6264-1.6042 17.127-4.0348 25.344-7.1139 6.1457-2.3031 12.075-5.2112 17.785-8.4479 5.5784-3.1624 10.857-6.8493 16.006-10.671 5.242-3.8904 10.45-7.8859 15.117-12.45 4.0575-3.9671 7.7028-8.3603 11.116-12.894 2.7689-3.6783 5.7148-7.3415 7.5586-11.56 0.73415-1.6798 1.3339-5.3355 1.3339-5.3355s19.136-8.8626 28.456-13.783c12.387-6.54 24.633-13.39 36.459-20.897 7.6369-4.8476 15.055-10.055 22.231-15.562 8.5964-6.596 16.853-13.64 24.899-20.897 4.9034-4.4225 9.5802-9.0929 14.228-13.783 5.903-5.9572 11.886-11.859 17.34-18.23 4.7426-5.5395 9.0441-11.447 13.339-17.34 3.0748-4.2196 6.1207-8.4695 8.8924-12.894 2.7131-4.3308 5.1553-8.8286 7.5586-13.339 1.0909-2.0473 1.9541-4.2147 3.1124-6.2247 3.3659-5.841 7.812-11.019 11.116-16.896 1.5269-2.7161 4.0016-8.4478 4.0016-8.4478s-6.276-9.0831-9.7817-13.339c-5.0016-6.0713-10.337-11.887-16.006-17.34-5.758-5.5387-11.915-10.667-18.23-15.562-6.7271-5.2143-13.627-10.246-20.897-14.673-6.285-3.8267-12.816-7.29-19.563-10.226-7.3497-3.1986-14.909-6.0199-22.676-8.0032-5.3826-1.3745-10.908-2.2927-16.451-2.6677-5.7688-0.3904-17.34 0.4446-17.34 0.4446s-1.8223-7.6335-3.557-11.116c-1.3752-2.7604-2.921-5.6398-5.3355-7.5586-3.3828-2.6883-7.8111-3.85-12.005-4.8908-5.7824-1.4351-11.838-1.4245-17.785-1.7785-7.6946-0.458-15.415-0.6453-23.12-0.4446-6.2385 0.1625-12.459 0.7668-18.674 1.3338-6.6826 0.6097-13.382 1.1615-20.008 2.2232-38.431 6.1579-76.631 14.095-114.27 24.01-9.9263 2.6149-19.569 6.2077-29.345 9.3371-8.7492 2.8007-17.57 5.3898-26.233 8.4478-9.7328 3.4358-19.323 7.2668-28.9 11.116-9.2455 3.7156-18.431 7.5826-27.567 11.56-9.2443 4.0249-18.691 7.6654-27.567 12.449-13.898 7.4916-26.994 16.415-40.016 25.344-4.1071 2.8162-8.6687 5.1953-12.005 8.8925-3.1161 3.4534-5.3796 7.6888-7.114 12.005-1.7024 4.2364-2.7414 8.7881-3.1124 13.339-0.18101 2.2207 0.44462 6.6693 0.44462 6.6693s-7.4103 2.0524-10.671 4.0016c-4.0568 2.4252-7.2195 6.1081-10.671 9.3371-3.8264 3.5798-7.6522 7.1834-11.116 11.116-3.8405 4.3603-7.4165 8.9699-10.671 13.783-2.7905 4.1272-5.2782 8.4645-7.5586 12.894-2.8241 5.4855-5.124 11.227-7.5586 16.896-2.1504 5.0073-4.4218 9.9746-6.2247 15.117-1.2258 3.4965-2.1441 7.0945-3.1124 10.671-1.5968 5.8984-3.1056 11.823-4.4462 17.785-1.3264 5.8984-2.9612 11.769-3.557 17.785-0.42352 4.2771-2.1797 9.1898 0 12.894 2.3215 3.9454 7.9145 4.6139 12.005 6.6693 4.5045 2.2635 9.2307 4.0597 13.783 6.2248 1.4964 0.7117 2.9888 1.4347 4.4462 2.2231z" fill="#5e7170"/>
   <path d="m370.36 325.8c6.7023-2.1107 13.352-4.3882 20.008-6.6449 7.2774-2.4675 14.602-4.8065 21.787-7.5393 6.1483-2.3386 12.208-4.9207 18.23-7.574 6.4347-2.8353 19.119-8.9145 19.119-8.9145s-0.89647 6.1323-3.1124 9.0529c-3.9299 5.1797-7.4514 10.506-11.716 15.316-3.1895 3.5976-6.2738 6.866-10.324 10.073-3.4255 2.7121-6.4619 5.9116-9.9735 8.5147-4.2403 3.1432-8.7561 5.9239-13.339 8.5334-5.4827 3.1221-11.119 5.9741-16.896 8.4989-4.1672 1.8214-8.4319 3.443-12.778 4.7814-4.2662 1.3136-8.6268 2.3289-13.01 3.175-6.909 1.3338-13.874 2.5234-20.897 2.9885-6.3555 0.4209-12.769 0.3577-19.119-0.186-4.641-0.3974-9.2223-1.3438-13.793-2.2415-4.5178-0.8874-9.1217-1.8065-13.459-3.1059-4.6623-1.3968-9.1818-2.9967-13.209-5.0774-3.4129-1.7633-6.7698-3.6384-10.068-5.6076-0.95964-0.573-2.826-1.8046-2.826-1.8046s14.251-1.518 21.342-2.5367c6.8435-0.9831 13.666-2.1304 20.453-3.4488 8.6401-1.6783 17.243-3.5657 25.788-5.6766 9.6968-2.3953 19.296-5.1788 28.9-7.9261 2.9734-0.8506 5.9421-1.7201 8.8924-2.6492z" fill="#42bbd6"/>
  </g>
  <path d="m354.66 305.27c9.3131-2.8942 18.733-5.4441 28.011-8.4478 11.639-3.7677 23.253-7.6385 34.681-12.005 11.108-4.2442 21.992-9.0537 32.902-13.783 8.643-3.7469 17.339-7.3937 25.788-11.56 9.5158-4.6927 18.837-9.7881 28.011-15.117 12.838-7.4566 25.544-15.176 37.793-23.565 10.394-7.1186 20.383-14.824 30.234-22.676 5.9213-4.719 11.803-9.5087 17.34-14.673 5.7488-5.3609 11.124-11.115 16.451-16.896 5.1962-5.6392 10.35-11.334 15.117-17.34 4.8838-6.154 9.8496-12.318 13.783-19.119 2.5242-4.3638 6.2247-13.783 6.2247-13.783s-6.5104-9.7219-10.226-14.228c-4.5359-5.5003-9.6092-10.543-14.673-15.562-4.8016-4.7594-9.6047-9.5538-14.879-13.783-7.7293-6.1982-16.136-11.393-24.453-16.896-8.7466-5.7863-18.248-10.206-28.25-14.082-7.5949-2.9431-15.013-5.0304-22.779-6.4197-4.2191-0.75484-8.5322-0.95321-12.818-1.0195-4.2937-0.0664-12.867 0.62377-12.867 0.62377s3.4565 5.38 4.0016 8.4479c0.57279 3.2235-0.21891 6.577-0.88925 9.7817-0.76768 3.67-1.9378 7.2892-3.557 10.671-1.0652 2.2248-2.4871 4.2778-4.0016 6.2247-1.8672 2.4002-4.1118 4.4824-6.2247 6.6694-2.0388 2.1104-3.9314 4.3941-6.2247 6.2247-3.6957 2.95-8.0139 5.0222-12.005 7.5586-7.8762 5.0058-15.635 10.196-23.565 15.117-8.0772 5.0124-16.194 9.9685-24.454 14.672-9.22 5.2503-18.457 10.503-28.011 15.117-11.18 5.3992-22.671 10.155-34.236 14.672-12.007 4.6904-24.141 9.0958-36.459 12.894-7.7637 2.3939-15.667 4.3187-23.565 6.2247-9.4386 2.2778-18.921 4.3885-28.456 6.2247-11.508 2.2163-23.054 4.308-34.681 5.7801-13.578 1.7192-27.238 2.837-40.905 3.557-15.987 0.8421-32.014 1.233-48.019 0.8893-9.6495-0.2072-19.419 0.029-28.9-1.7785-7.0441-1.3426-14.253-3.0659-20.453-6.6694-3.8097-2.2144-7.1209-5.38-9.7817-8.8924-2.6015-3.4341-4.7903-7.3672-5.7801-11.56-0.0681-0.2885 1e-5 -0.8893 1e-5 -0.8893s-7.5476 1.9732-10.762 4.0638c-7.8255 5.0893-14.703 11.721-21.044 18.612-5.4883 5.9641-10.216 12.634-14.542 19.487-3.8611 6.1161-7.1156 12.615-10.118 19.195-4.113 9.0126-7.8713 18.226-10.779 27.697-1.9055 6.2067-2.8476 12.669-4.3384 18.989-1.5162 6.4272-3.6717 12.724-4.6843 19.249-0.79348 5.113-1.0734 15.486-1.0734 15.486s13.74 7.1707 20.875 10.172c4.0617 1.7088 8.2996 2.9641 12.449 4.4462s8.2482 3.1169 12.449 4.4462c6.8906 2.1802 13.855 4.1554 20.897 5.7801 10.282 2.3721 20.695 4.1729 31.124 5.7801 8.412 1.2964 16.867 2.3434 25.343 3.1124 7.5407 0.6841 15.11 1.0439 22.676 1.3339 8.2949 0.3179 16.598 0.5242 24.899 0.4446 8.0083-0.077 16.012-0.4655 24.01-0.8893 8.6044-0.4559 17.222-0.8479 25.788-1.7785 11.023-1.1975 21.928-3.3036 32.902-4.8908 9.48-1.3711 19.05-2.1887 28.456-4.0016 9.1417-1.7621 18.09-4.412 27.122-6.6694 9.346-2.3358 18.751-4.459 28.011-7.1139 3.7396-1.0721 7.4006-2.4025 11.116-3.557z" fill="#a4dcd4"/>
  <path d="m83.855 145.11c-0.0863 1.9893-0.40036 4.023 0 5.9735 0.32095 1.5636 0.89472 3.1506 1.8864 4.4015 1.5366 1.9381 3.8317 3.1647 5.9735 4.4016 1.5849 0.9153 3.3059 1.5874 5.0303 2.2007 3.6893 1.312 7.4665 2.4399 11.318 3.144 3.416 0.6244 6.914 0.66 10.375 0.9432 5.7599 0.4712 11.521 0.9532 17.292 1.2576 6.3873 0.3368 12.783 0.524 19.178 0.6288 4.5057 0.074 9.0132 0.072 13.519 0 9.8548-0.1572 19.721-0.2543 29.553-0.9432 8.7279-0.6116 17.402-1.8347 26.095-2.8296 8.7044-0.9963 17.43-1.8455 26.095-3.1439 8.2132-1.2308 16.405-2.6484 24.523-4.4016 8.7702-1.8941 17.436-4.2508 26.095-6.6023 9.794-2.6599 19.613-5.2733 29.239-8.4887 10.098-3.3733 20.003-7.3125 29.868-11.318 8.7846-3.5673 17.512-7.2902 26.095-11.318 9.0371-4.2412 17.929-8.7952 26.724-13.519 6.9051-3.7091 13.664-7.6853 20.436-11.633 6.537-3.8106 13.138-7.5257 19.493-11.633 5.6892-3.6768 11.249-7.5618 16.663-11.633 5.0627-3.8064 10.092-7.6836 14.777-11.947 4.7682-4.3398 10.302-8.246 13.519-13.833 0.9769-1.6966 1.4045-3.7085 1.572-5.6591 0.18017-2.0987-0.27502-4.2114-0.62879-6.2879-0.59767-3.508-0.92968-7.1893-2.5152-10.375-1.3272-2.6669-3.2745-5.1314-5.6591-6.9167-2.3684-1.7731-5.3517-2.5717-8.1743-3.4583-5.3141-1.6692-10.817-2.802-16.349-3.4584-7.4958-0.88955-15.09-0.77523-22.636-0.6288-9.451 0.18336-18.884 1.0054-28.296 1.8864-6.0958 0.57063-12.193 1.2084-18.235 2.2008-37.501 6.16-74.69 14.259-111.61 23.265-5.2865 1.2895-10.514 2.8183-15.72 4.4016-7.3877 2.2468-14.651 4.8857-22.008 7.2311-5.748 1.8325-11.596 3.356-17.292 5.3447-8.7091 3.0408-17.197 6.6804-25.78 10.061-8.1844 3.2233-16.431 6.2971-24.523 9.7463-8.3695 3.5676-16.671 7.3068-24.837 11.318-7.6579 3.7617-15.297 7.5968-22.636 11.947-7.0262 4.1644-13.861 8.6738-20.436 13.519-2.3981 1.7672-4.496 3.923-6.9167 5.6591-2.4102 1.7285-5.2244 2.8694-7.5455 4.7159-2.2037 1.753-4.1376 3.8384-5.9735 5.9735-1.6126 1.8753-3.2168 3.8024-4.4015 5.9736-1.128 2.0673-1.9889 4.3068-2.5152 6.6023-0.54065 2.3583-0.5239 4.8139-0.62879 7.2311z" fill="#829796"/>
  <path d="m117.09 128.64s-4.3604 1.6947-4.0872 3.4583c0.20861 1.3463 2.4826 1.1341 3.7728 1.572 6.5715 2.2304 13.32 3.9682 20.121 5.3447 6.6385 1.3434 13.381 2.1675 20.121 2.8296 9.297 0.9133 18.64 1.6278 27.981 1.572 9.2435-0.055 18.455-1.1231 27.667-1.8864 8.6048-0.7129 17.223-1.364 25.78-2.5152 6.7447-0.9074 13.442-2.152 20.121-3.4583 8.6345-1.6888 17.23-3.5861 25.78-5.6591 6.7443-1.6351 13.463-3.3897 20.121-5.3448 6.2327-1.83 12.411-3.8494 18.549-5.9735 8.5546-2.9601 17.039-6.127 25.466-9.4319 7.3924-2.899 14.825-5.7313 22.008-9.1174 6.8697-3.2387 13.448-7.0636 20.121-10.69 7.5845-4.121 15.296-8.0341 22.636-12.576 7.5641-4.6802 15.082-9.5091 22.008-15.091 5.8299-4.6989 10.976-10.19 16.349-15.405 3.1903-3.0969 6.7544-5.8823 9.4319-9.4319 1.2995-1.7228 3.3923-3.5155 3.144-5.6591-0.17932-1.5476-1.7192-2.8281-3.144-3.4584-0.38336-0.16959-1.2576 0-1.2576 0" fill="none" stroke="#465150" stroke-width="5"/>
  <g>
   <path d="m111.74 122.87c-1.519-3.3254-5.0303-9.7463-5.0303-9.7463s7.0204-5.594 10.689-8.1743c3.1625-2.224 6.4344-4.2932 9.7463-6.2879 4.2203-2.5418 8.5374-4.9236 12.89-7.2311 4.9691-2.6341 10.025-5.1035 15.091-7.5455 5.8286-2.8095 11.701-5.5302 17.606-8.1743 5.3126-2.3786 10.681-4.6299 16.034-6.9167 5.4414-2.3247 10.832-4.776 16.349-6.9167 6.7364-2.6141 13.633-4.7959 20.436-7.2311 6.0863-2.1786 12.117-4.515 18.235-6.6023 8.1241-2.7716 16.286-5.4433 24.523-7.8599 6.2444-1.8321 12.54-3.4923 18.864-5.0304 37.431-9.1047 74.838-18.692 112.87-24.837 4.9928-0.8067 10.043-1.2661 15.091-1.572 6.0681-0.3677 12.157-0.4218 18.235-0.3144 7.9745 0.1409 23.894 1.2576 23.894 1.2576l4.0871 23.265s-6.7063 6.4983-10.061 9.7462c-3.248 3.1448-6.414 6.3766-9.7463 9.4319-3.8877 3.5644-7.7468 7.1848-11.947 10.375-5.9023 4.4831-12.258 8.3434-18.549 12.261-7.2167 4.494-14.534 8.8386-22.008 12.89-3.9143 2.1219-7.9341 4.0449-11.947 5.9736-5.4096 2.6-10.874 5.085-16.349 7.5455-6.6774 3.0013-13.316 6.1055-20.121 8.803-8.998 3.5663-18.159 6.7192-27.352 9.7463-7.904 2.6025-15.842 5.1312-23.894 7.2311-9.4483 2.464-19.009 4.5076-28.61 6.2879-6.8784 1.2755-13.816 2.2159-20.75 3.144-8.9932 1.2038-17.988 2.4897-27.038 3.1439-7.3198 0.5291-14.669 0.6181-22.008 0.6288-8.177 0.012-16.354-0.2607-24.523-0.6288-6.5044-0.2931-13.036-0.4152-19.493-1.2575-8.58-1.1193-17.149-2.6434-25.466-5.0304-2.2637-0.6497-6.6023-2.5151-6.6023-2.5151s-1.9715-5.2932-3.144-7.8599z" fill="#7d9190"/>
   <g stroke="#465150" stroke-linecap="round" stroke-linejoin="round">
    <ellipse cx="530.52" cy="65.559" rx="11.356" ry="10.978" fill="url(#radialGradient1147)" stroke-width="3" style="paint-order:normal"/>
    <ellipse transform="matrix(.9993 -.037308 -.046133 .99894 0 0)" cx="326.83" cy="215.76" rx="23.058" ry="19.628" fill="url(#radialGradient1149)" stroke-width="3.497" style="paint-order:normal"/>
    <ellipse cx="74.723" cy="198.37" rx="11.356" ry="10.978" fill="url(#radialGradient1151)" stroke-width="2" style="paint-order:normal"/>
   </g>
   <path d="m394.7 135.98s7.7605-4.182 11.633-6.2879c5.5621-3.0249 11.158-5.9894 16.663-9.1175 8.2508-4.6886 16.422-9.5198 24.523-14.462 6.8754-4.1944 13.696-8.4815 20.436-12.89 6.2515-4.0892 18.549-12.576 18.549-12.576s18.455 10.978 27.352 16.977c8.3942 5.6604 16.548 11.683 24.523 17.921 5.9186 4.6296 17.292 14.462 17.292 14.462s-19.768 15.991-30.182 23.265c-13.205 9.2239-26.957 17.666-40.871 25.78-16.444 9.5901-50.303 27.038-50.303 27.038s-12.604-23.576-19.178-35.212c-6.6306-11.737-20.436-34.898-20.436-34.898z" fill="#90d4cb"/>
   <ellipse transform="matrix(.98441 -.17587 -.044537 .99901 0 0)" cx="485.74" cy="227.29" rx="19.825" ry="17.22" fill="url(#radialGradient1034-7)" stroke="#465150" stroke-linecap="round" stroke-linejoin="round" stroke-width="3.0373" style="paint-order:normal"/>
   <path d="m222.72 182.83 3.4584 79.228s-32.633 4.1909-49.046 5.0304c-14.967 0.7655-29.982 0.54406-44.959 0-16.383-0.59518-49.053-3.5687-49.053-3.5687l31.447-80.689s11.081 1.7215 16.663 2.2007c7.8374 0.6729 15.714 0.837 23.58 0.9432 8.0694 0.1089 16.143-0.028 24.208-0.3144 9.0222-0.3207 18.03-0.9702 27.038-1.5719 5.5577-0.3713 16.663-1.2576 16.663-1.2576z" fill="#94d6cd"/>
   <ellipse transform="matrix(.99729 -.073611 .039863 .99921 0 0)" cx="153.09" cy="227.29" rx="19.62" ry="16.986" fill="url(#radialGradient869-17-2)" stroke="#465150" stroke-linecap="round" stroke-linejoin="round" stroke-width="3.0009" style="paint-order:normal"/>
   <path d="m16.342 245.93s8.0392 3.5789 12.216 4.9377c4.9307 1.6042 10.068 2.4879 15.091 3.7727 6.8215 1.7446 13.559 3.8321 20.436 5.3447 6.9667 1.5324 13.988 2.8761 21.065 3.7728 16.681 2.1138 33.5 3.1435 50.303 3.7727 13.405 0.502 26.845 0.6682 40.243 0 17.882-0.8919 35.689-3.0568 53.447-5.3447 19.993-2.5759 40.038-5.1435 59.735-9.4319 27.429-5.9717 54.51-13.681 81.114-22.636 22.649-7.6239 44.97-16.36 66.652-26.409 21.992-10.192 43.428-21.672 64.137-34.269 10.431-6.345 20.312-13.565 30.182-20.75 9.3036-6.773 18.518-13.69 27.352-21.064 9.0002-7.5123 18.151-14.958 26.095-23.58 7.8462-8.5148 21.108-27.587 21.108-27.587s12.766 11.046 18.506 17.212c3.7583 4.037 7.0964 8.4548 10.375 12.89 2.3326 3.1555 6.6023 9.7463 6.6023 9.7463s-3.3857 8.7126-5.6749 12.769c-3.2483 5.7559-7.2038 11.001-11.348 16.259-6.5408 8.2992-12.421 17.102-19.739 24.68-12.09 12.518-26.067 23.084-39.614 34.009-8.6611 6.9844-17.458 13.824-26.616 20.144-9.7673 6.7403-19.852 13.037-30.16 18.918-14.248 8.129-28.862 15.639-43.723 22.582-14.416 6.735-29.128 12.855-44.015 18.473-22.283 8.4085-44.874 16.054-67.725 22.767-23.765 6.9816-47.73 13.487-72.051 18.181-14.623 2.8219-29.457 4.4945-44.276 5.9735-14.482 1.4455-29.028 2.2624-43.571 2.8296-12.662 0.4939-25.355 1.1264-38.01 0.4986-18.916-0.9384-37.807-3.0856-56.461-6.3643-16.977-2.9839-30.325-5.1173-50.281-12.077-5.0595-1.7645-10.275-3.0815-15.275-5.008-4.8686-1.8758-9.5911-4.118-14.3-6.3642-3.922-1.8706-11.614-5.9198-11.614-5.9198s0.33816-10.256 1.0987-15.319c0.67755-4.5104 2.0795-8.8819 3.0743-13.333 1.1999-5.3688 2.3826-10.692 3.4912-16.13 0.54564-2.6769 2.0672-7.9539 2.1316-7.9432z" fill="#67c1bb"/>
   <path d="m433.68 205s6.8919-3.1744 10.292-4.8564c10.799-5.342 21.55-10.793 32.093-16.623 11.571-6.398 23.113-12.894 34.18-20.13 9.3102-6.0883 18.091-12.951 27.044-19.554 6.17-4.5499 18.381-13.823 18.381-13.823l45.824 42.86s-11.953 11.027-18.113 16.332c-10.242 8.8211-20.39 17.804-31.32 25.758-10.007 7.282-20.675 13.621-31.262 20.031-10.715 6.4876-21.562 12.775-32.63 18.639-8.5968 4.5547-26.211 12.838-26.211 12.838z" fill="#59b7b1"/>
   <path d="m83.124 263.52s15.768 1.2626 23.656 1.8464c11.258 0.83337 22.499 2.0552 33.784 2.3648 14.974 0.4107 29.981 0.238 44.932-0.6756 13.679-0.8359 40.878-4.3919 40.878-4.3919l8.9527 68.328s-33.649 2.4544-50.507 2.8716c-15.395 0.3809-30.836 0.7229-46.199-0.3379-14.022-0.9682-27.944-3.1736-41.807-5.4898-10.456-1.7469-31.166-6.3345-31.166-6.3345z" fill="#59b7b1"/>
  </g>
 </g>
</svg>
