<?xml version="1.0" encoding="UTF-8"?>
<svg width="270" height="168" version="1.1" viewBox="0 0 71.437 44.45" xmlns="http://www.w3.org/2000/svg">

  <path d="m45 2
    a11.391 11.391
    0 0 0-9.5596 5.2167 11.391 11.391
    0 0 0-9.325-4.8731 11.391 11.391
    0 0 0-11.346 10.494 11.391 11.391
    0 0 0-2.0448-0.19379 11.391 11.391
    0 0 0-11.391 11.391 11.391 11.391
    0 0 0 11.391 11.391 11.391 11.391
    0 0 0 5.7598-1.5792 11.391 11.391
    0 0 0 10.378 6.7298 11.391 11.391
    0 0 0 6.5262-2.0722 6.2094 6.2094
    0 0 0 5.8343 4.101 6.2094 6.2094
    0 0 0 4.8612-2.357 7.8034 7.8034
    0 0 0 5.7826 2.5776 7.8034 7.8034
    0 0 0 7.8037-7.8036 7.8034 7.8034
    0 0 0-0.0233-0.58395 7.8034 7.8034
    0 0 0 1.4904 0.14676 7.8034 7.8034
    0 0 0 7.8031-7.8031 7.8034 7.8034
    0 0 0-3.4851-6.4942 7.8034 7.8034
    0 0 0 0.39481-2.4329 7.8034 7.8034
    0 0 0-7.8031-7.8037 7.8034 7.8034
    0 0 0-2.0753 0.28215 11.391 11.391
    0 0 0-10.972-8.3333z"
    fill="#fff"
    stroke="#000"
    stroke-width="1.5"/>

</svg>
