<?xml version="1.0" encoding="UTF-8"?>
<svg width="590" height="281" version="1.1" viewBox="0 0 156.1 74.348" xmlns="http://www.w3.org/2000/svg">
  <path d="m73.2 10.146s2.7496-2.6965 4.3854-3.6786c2.2844-1.3717 4.8005-2.4675 7.4131-2.9911 3.0211-0.60548 6.2088-0.64858 9.2429-0.11167 2.0383 0.36071 3.97 1.2469 5.8067 2.2014 1.5806 0.82146 3.1673 1.7362 4.422 3.0007 1.3873 1.3981 3.2799 4.915 3.2799 4.915s3.4042 0.21222 5.0904 0.45463c1.8064 0.25969 3.6021 0.61457 5.3696 1.0688 1.3905 0.35737 2.7973 0.71008 4.1062 1.3001 1.9589 0.88308 3.7039 2.1802 5.5276 3.3165 1.3646 0.8503 2.5482 2.0461 4.0503 2.6194 1.0484 0.40012 2.2048 0.56385 3.3261 0.52004 0.72199-0.0282 1.3875-0.46037 2.1089-0.50089 1.4606-0.08203 2.9252 0.22763 4.3566 0.52963 1.2191 0.25721 2.4137 0.639 3.5766 1.0864 1.3925 0.53566 2.7989 1.0925 4.0503 1.9047 1.0256 0.66566 2.003 1.4498 2.7773 2.396 0.41195 0.5034 0.74447 1.0858 0.95716 1.7006 0.38426 1.1106 0.70224 2.3202 0.53921 3.484-0.16319 1.1649-0.74497 2.2842-1.4772 3.2049-0.85317 1.0727-2.048 1.8607-3.2511 2.5173-1.7677 0.96474-3.7315 1.5691-5.6951 2.0164-1.9102 0.43517-3.8855 0.56122-5.8434 0.63172-1.474 0.05308-4.422-0.15793-4.422-0.15793s-2.0329 2.8149-3.3357 3.9387c-1.2141 1.0473-2.6354 1.8556-4.087 2.5365-1.5072 0.70696-3.1475 1.0873-4.7379 1.5793-2.5629 0.79287-7.7386 2.211-7.7386 2.211s-0.81901 2.5829-1.4214 3.7903c-0.61282 1.2284-1.2915 2.4551-2.211 3.4745-1.0794 1.1966-2.355 2.2682-3.7903 3.0007-1.5587 0.79549-3.3648 0.96359-5.0538 1.4214-1.2078 0.32734-3.6324 0.94758-3.6324 0.94758l0.63172-2.5269s-1.4455 2.2209-2.369 3.1586c-1.4482 1.4705-3.2112 2.5981-4.8958 3.7903-1.5853 1.1219-3.1987 2.2145-4.8958 3.1586-1.9344 1.0761-6.0014 2.8427-6.0014 2.8427s1.8895-3.4266 2.6848-5.2117c0.66448-1.4915 1.3059-3.0052 1.7372-4.58 0.32469-1.1853 0.71381-2.4062 0.63172-3.6324-0.0701-1.0466-0.43804-2.0838-0.94758-3.0007-0.23577-0.42423-0.94758-1.1055-0.94758-1.1055l1.2634 4.4221s-1.3944-0.35105-2.0531-0.63173c-0.99724-0.42492-1.951-0.96305-2.8428-1.5793-0.73752-0.50965-1.4067-1.116-2.0531-1.7372-0.61788-0.59383-1.7372-1.8952-1.7372-1.8952s-7.1306 1.3154-10.739 1.5793c-0.99756 0.07296-2.0209 0.20111-3.0007 0-1.1782-0.24183-2.1329-1.2077-3.3165-1.4214-1.919-0.34638-3.8951 0.19813-5.8434 0.27918-3.3157 0.13795-6.6316 0.41645-9.9496 0.35254-1.425-0.02745-2.8459-0.17478-4.2641-0.31586-2.9564-0.29408-5.9209-0.57497-8.8441-1.1055-2.4498-0.44463-4.9181-0.90505-7.2648-1.7372-2.6409-0.9365-5.1663-2.2103-7.5806-3.6324-2.1145-1.2454-4.1527-2.6502-6.0013-4.2641-1.7395-1.5186-3.4284-3.1518-4.7379-5.0538-1.2284-1.7841-2.252-3.7595-2.8427-5.8434-0.57715-2.036-0.8871-4.2164-0.63172-6.3172 0.30342-2.4959 1.1839-4.9814 2.5269-7.1069 1.5112-2.3917 3.749-4.2894 6.0013-6.0013 2.2145-1.6832 4.7098-3.0064 7.2648-4.1062 3.2884-1.4155 6.7756-2.3597 10.265-3.1586 3.7376-0.85565 7.5495-1.4238 11.371-1.7372 4.3551-0.35716 8.7477-0.44131 13.108-0.15793 2.6876 0.17466 5.3422 0.69803 7.9986 1.1422 3.2437 0.54236 6.4602 1.2363 9.6896 1.8585 1.6322 0.31449 4.8958 0.94758 4.8958 0.94758z"/>
  <path d="m110.49 14.573c1.5184 0.10323 3.0199 0.39972 4.5109 0.70483 1.4961 0.30617 2.997 0.62915 4.4404 1.1277 1.2627 0.43613 2.4758 1.0127 3.6651 1.6211 1.2843 0.65697 2.5217 1.4057 3.7356 2.185 1.1354 0.72889 2.142 1.6553 3.3127 2.3259 1.0309 0.59053 2.0768 1.2492 3.2422 1.4801 0.62268 0.12339 1.2784 0.04277 1.903-0.07049 0.51172-0.09279 0.96679-0.41008 1.4801-0.49338 0.99721-0.16182 2.0298-0.13704 3.0308 0 1.0392 0.14228 2.0297 0.53279 3.0308 0.8458 1.163 0.36365 2.3455 0.69142 3.4537 1.1982 1.1104 0.50783 2.195 1.0999 3.1717 1.8326 0.59819 0.44869 1.1574 0.96401 1.6211 1.5506 0.48977 0.61957 0.9523 1.2935 1.1982 2.044 0.21329 0.65092 0.26827 1.3614 0.21145 2.044-0.0586 0.70435-0.23848 1.4166-0.56387 2.044-0.39193 0.75574-0.97756 1.4162-1.6211 1.9735-0.78889 0.68317-1.7398 1.1648-2.6784 1.6211-1.1969 0.58196-2.4457 1.0817-3.7356 1.4097-1.3332 0.33892-2.7145 0.48856-4.088 0.56386-2.558 0.14026-7.6826-0.21145-7.6826-0.21145s-0.69393 1.8306-1.2687 2.6079c-0.84012 1.1361-1.9246 2.1075-3.1012 2.8898-1.5236 1.0131-3.2866 1.6253-5.0043 2.2555-1.9966 0.7325-4.0677 1.2506-6.132 1.7621-1.5609 0.38679-4.7224 0.98676-4.7224 0.98676s-0.28207 1.6257-0.56387 2.3964c-0.57009 1.5592-1.2916 3.0888-2.2555 4.4404-0.58848 0.82519-1.3093 1.5694-2.1145 2.185-1.0442 0.7983-2.2292 1.4252-3.4537 1.903-1.1944 0.46612-2.4964 0.58739-3.7356 0.91627-0.49595 0.13162-1.4801 0.4229-1.4801 0.4229s1.4575-5.9003 2.044-8.8809c0.53318-2.7097 1.3392-8.176 1.3392-8.176s-1.1273 3.6049-1.6211 5.4272c-0.49327 1.8205-0.80474 3.6888-1.3392 5.4977-0.30317 1.0261-0.58652 2.0699-1.0572 3.0308-0.45584 0.93049-1.0234 1.8159-1.6916 2.6079-1.0507 1.2454-2.336 2.2778-3.5946 3.3127-1.8439 1.5161-3.7489 2.9741-5.7796 4.229-1.5285 0.94456-4.7928 2.4669-4.7928 2.4669s1.4252-2.7732 1.9735-4.229c0.62108-1.649 1.3355-3.3186 1.4802-5.0748 0.0971-1.1792-0.14845-2.3733-0.4229-3.5242-0.19137-0.80248-0.40639-1.6277-0.8458-2.3259-0.82297-1.3077-3.2422-3.3127-3.2422-3.3127l1.7621 6.132s-1.5044-0.56782-2.185-0.98676c-1.3374-0.82326-2.5547-1.8498-3.6651-2.9603-0.55523-0.55523-1.4801-1.8326-1.4801-1.8326s-2.6094 0.80038-3.947 1.0572c-2.1607 0.41493-4.3585 0.64587-6.5549 0.77531-0.9616 0.05667-1.9439 0.18216-2.8898 0-1.1181-0.21534-2.0512-1.0664-3.1717-1.2687-2.9834-0.53865-6.0621 0.1201-9.0923 0.21145-3.1725 0.09563-6.3438 0.47734-9.5152 0.35241-3.0488-0.12009-6.0882-0.5232-9.0923-1.0572-3.1643-0.56253-6.371-1.111-9.3742-2.2555-3.1137-1.1865-6.0308-2.8848-8.8104-4.7224-2.0354-1.3456-4.0616-2.7816-5.7091-4.5814-1.8304-1.9994-3.395-4.296-4.5109-6.7664-0.60062-1.3296-0.93817-2.7824-1.1277-4.229-0.20148-1.5375-0.2579-3.1229 0-4.6519 0.29783-1.7657 0.81984-3.5521 1.7621-5.0748 1.5386-2.4865 3.7671-4.5533 6.132-6.273 2.8638-2.0824 6.189-3.5081 9.5152-4.7224 3.8165-1.3933 7.8428-2.1684 11.841-2.8898 2.561-0.46206 5.1574-0.73002 7.7531-0.91628 3.6569-0.26242 7.3374-0.53006 10.995-0.28193 5.6995 0.38661 11.315 1.6233 16.916 2.7488 2.3688 0.47603 7.0483 1.6916 7.0483 1.6916s1.9436-1.9697 3.0308-2.8193c1.4582-1.1396 2.9534-2.2957 4.6519-3.0308 1.9088-0.82614 3.9951-1.2438 6.0616-1.4801 1.9842-0.22692 4.0136-0.20954 5.9911 0.07049 1.8342 0.25974 3.6719 0.70992 5.3567 1.4801 1.7719 0.81007 3.4981 1.8522 4.8633 3.2422 1.5253 1.553 3.5242 5.4977 3.5242 5.4977s2.446-0.15337 3.6651-0.07048z" fill="#feffff"/>
</svg>
