<?xml version="1.0" encoding="UTF-8"?>
<svg width="283" height="272" version="1.1" viewBox="0 0 74.877 71.967" xmlns="http://www.w3.org/2000/svg">

  <path d="m36.162 48.643s6.2313-0.21032 9.3174-0.61556c2.11-0.27706 4.208-0.68534 6.263-1.238 1.7347-0.46654 3.4393-1.0576 5.0978-1.7478 1.9244-0.80088 3.8395-1.6634 5.6076-2.7674 1.7175-1.0724 3.3037-2.3571 4.8065-3.7141 0.99403-0.8976 1.9691-1.8376 2.7674-2.913 0.96548-1.3007 1.7872-2.7257 2.4032-4.2239 0.49718-1.209 0.80365-2.4976 1.0196-3.7869 0.2331-1.3919 0.45754-2.8224 0.2913-4.2239-0.16188-1.3647-0.71226-2.6628-1.238-3.9326-0.50262-1.2138-1.0739-2.4147-1.8206-3.4956-1.0358-1.4994-2.317-2.8263-3.6413-4.0782-1.3307-1.2579-2.751-2.4411-4.2967-3.4228-1.9886-1.263-4.1454-2.2643-6.3358-3.1315-1.8635-0.73782-3.7966-1.3135-5.7532-1.7478-2.8487-0.6323-5.7555-1.0312-8.6662-1.238-3.0994-0.22027-6.2291-0.30184-9.3217 0-3.3736 0.32927-6.741 0.95754-9.9771 1.9663-2.5014 0.77974-4.9325 1.8355-7.2097 3.1315-2.0553 1.1697-3.9823 2.5839-5.7532 4.1511-1.3379 1.1839-2.6247 2.4635-3.6413 3.9326-0.95748 1.3837-1.7157 2.9221-2.2576 4.5152-0.57335 1.6857-1.0222 3.4629-1.0196 5.2434 3e-3 2.0043 0.4342 4.0326 1.1652 5.8989 0.81088 2.0701 2.0808 3.9654 3.4956 5.6804 1.0277 1.2458 2.282 2.3008 3.5685 3.2771 1.98 1.5027 4.1008 2.8447 6.3358 3.9326 2.1613 1.052 4.4549 1.8394 6.7728 2.4761 3.1616 0.86843 9.6671 1.8156 9.6671 1.8156l-0.19974 22.435z" fill="white" stroke="#000" stroke-width="1.3229"/>
 
</svg>
