<?xml version="1.0" encoding="UTF-8"?>
<svg width="771" height="360" version="1.1" viewBox="0 0 203.99 95.25" xmlns="http://www.w3.org/2000/svg">

  <path d="m51.222 19.569c3.9452-1.0515 7.8243-2.4749 11.448-4.3554 3.5537-1.8439 6.8484-4.1944 9.9551-6.7197 1.6161-1.3137 4.4798-4.3554 4.4798-4.3554s7.6687 2.7207 11.573 3.8576c3.4483 1.0041 6.9042 2.0598 10.453 2.6132 3.8195 0.59564 7.7077 0.68249 11.573 0.74664 3.9834 0.06611 7.9852 0.05494 11.946-0.37332 4.2788-0.46262 8.528-1.2797 12.693-2.3643 3.5162-0.91568 6.928-2.2041 10.328-3.4843 2.0186-0.75999 5.9731-2.4888 5.9731-2.4888s1.543 4.6491 2.6132 6.8442c1.4435 2.9605 2.8694 6.0404 5.102 8.4619 2.8404 3.0807 6.4574 5.4653 10.204 7.3419 4.1993 2.1033 8.9064 3.0022 13.439 4.2309 3.778 1.0241 11.448 2.6132 11.448 2.6132s-1.9101 3.9799-2.4888 6.0975c-0.37578 1.375-0.72729 2.8093-0.6222 4.2309 0.13737 1.8583 0.73071 3.7122 1.6177 5.3509 1.2894 2.382 3.2176 4.405 5.2264 6.222 0.81913 0.74088 2.7377 1.8666 2.7377 1.8666s-4.4889 1.8871-6.7197 2.8621c-2.4158 1.0558-4.9073 1.9648-7.2175 3.2354-2.7016 1.4859-5.399 3.067-7.7152 5.102-2.1429 1.8827-4.2887 3.9375-5.5998 6.4708-1.4334 2.7698-1.6178 6.028-2.2399 9.0841-0.25983 1.2763-0.6222 3.8576-0.6222 3.8576s-8.312-2.3965-12.568-3.111c-5.4628-0.91701-11.012-1.3992-16.55-1.4933-4.4447-0.0755-8.9218 0.0682-13.315 0.74664-3.639 0.56201-7.2258 1.5228-10.702 2.7377-4.2064 1.4701-8.2059 3.4899-12.195 5.4753-1.3129 0.65343-3.8576 2.1155-3.8576 2.1155s-4.769-5.2883-7.7152-7.2175c-3.5906-2.3512-7.7619-3.7098-11.822-5.102-3.445-1.1814-6.9806-2.1652-10.577-2.7377-4.5969-0.73168-9.285-1.0268-13.937-0.87108-5.1421 0.17216-10.332 0.67413-15.306 1.991-1.9062 0.50473-5.4753 2.2399-5.4753 2.2399s-1.3751-4.3984-2.3643-6.4708c-1.1461-2.401-2.3536-4.8427-4.1065-6.8442-2.0614-2.3538-4.6383-4.2737-7.3419-5.8486-3.7471-2.1828-7.8971-3.6752-12.071-4.8531-2.3889-0.67425-7.3419-1.2444-7.3419-1.2444s2.6587-2.423 4.1065-3.4843c2.4504-1.7962 5.3705-2.921 7.7152-4.8531 2.1514-1.7729 4.2743-3.7164 5.7242-6.0975 1.4875-2.4428 2.4826-5.2538 2.8621-8.0886 0.29802-2.2262-0.18849-4.4951-0.49776-6.7197-0.22738-1.6357-0.99551-4.8531-0.99551-4.8531s7.0557-0.05912 10.577-0.24888c3.45-0.1859 6.8986-0.4548 10.328-0.87107 2.6267-0.31879 5.283-0.56296 7.8397-1.2444z" fill="#fff200" stroke="#000c00" stroke-width="1.8521"/>
</svg>
