<?xml version="1.0" encoding="UTF-8"?>
<svg width="519" height="330" version="1.1" viewBox="0 0 137.32 87.313" xmlns="http://www.w3.org/2000/svg">

 <g transform="translate(-34.177 -95.123)">
  <path transform="matrix(1.89 0 0 1.1882 -177.07 -47.471)" d="m183.55 162.78-18.417-0.28139 14.817 10.941-17.428-5.9586 10.71 14.985-14.734-11.053 5.5556 17.561-10.597-15.065-0.14287 18.418-5.4234-17.602-5.8274 17.472 0.28139-18.416-10.941 14.817 5.9586-17.428-14.985 10.71 11.053-14.734-17.561 5.5556 15.065-10.597-18.418-0.14287 17.602-5.4234-17.472-5.8274 18.416 0.28138-14.817-10.941 17.428 5.9586-10.71-14.985 14.734 11.053-5.5556-17.561 10.597 15.065 0.14287-18.418 5.4234 17.602 5.8274-17.473-0.28139 18.417 10.941-14.817-5.9586 17.428 14.985-10.71-11.053 14.734 17.561-5.5556-15.065 10.597 18.418 0.14287-17.602 5.4234z" fill="#f00" stroke="#000" stroke-width=".70623" style="paint-order:fill markers stroke"/>
 </g>
</svg>
