<?xml version="1.0" encoding="utf-8"?>

<!DOCTYPE svg PUBLIC "-//W3C//DTD SVG 1.1//EN" "http://www.w3.org/Graphics/SVG/1.1/DTD/svg11.dtd">
<svg version="1.1" id="Layer_1" xmlns="http://www.w3.org/2000/svg" xmlns:xlink="http://www.w3.org/1999/xlink" x="0px" y="0px"
	 viewBox="0 0 1649.743 1676.232" enable-background="new 0 0 1649.743 1676.232" xml:space="preserve">
<path class="arbol" d="M1510.512,693.751c-14.915-2.408-28.13,0.055-42.57,3.683c-4.149,1.043-8.662,2.084-13.208,2.588
	c63.756-38.021,117.7-91.226,157.561-154.202c-35.693,47.149-79.833,87.199-129.814,117.705
	c-2.049-19.918,3.869-39.705,9.363-58.774c4.686-16.263,9.372-32.527,14.057-48.791c-6.795,16.679-13.59,33.358-20.384,50.037
	c-8.402,20.624-16.339,41.913-14.78,64.461c-38.162,21.761-79.501,38.037-122.916,47.803
	c29.021-41.758,65.523-76.727,108.822-104.717c-59.082,25.292-109.547,63.051-150.863,112.086
	c-16.39,2.071-32.885,3.223-49.445,3.387c-24.625,0.244-49.157-2.732-73.78-2.256c-20.386,0.394-40.206,3.941-59.351,10.874
	c-5.964,2.16-11.808,4.592-17.561,7.222c-7.456-14.907-5.713-34.036,0.71-49.13c8.332-19.58,23.527-35.263,39.479-48.905
	c-22.65,11.913-44.971,27.439-57.683,50.298c-10.44,18.774-13.451,40.582-7.637,60.568c-7.948,4.411-15.79,9.021-23.602,13.63
	c-21.778,12.857-43.555,25.715-65.333,38.572c-11.419,6.742-22.838,13.483-34.256,20.225c-5.091-30.084-11.396-59.956-18.9-89.497
	c16.99-17.229,31.557-36.639,44.887-57.253c21.905-33.875,40.762-70.355,68.564-99.979c20.458-21.8,45.148-36.156,74.06-43.205
	c34.232-8.345,69.413-11.409,102.647-23.726c38.02-14.09,71.856-36.785,100.675-64.837c22.026,3.625,46.227-14.224,64.279-23.834
	c18.166-9.67,36.332-19.34,54.498-29.01c-23.968,9.995-47.931,20.001-71.907,29.978c-10.646,4.43-23.9,11.875-36.265,12.063
	c11.532-12.286,22.172-25.434,31.843-39.221c15.477-22.065,28.033-45.611,38.224-70.135c25.911-3.336,46.057-21.325,65.739-37.766
	c18.909-15.796,37.818-31.591,56.727-47.387c-18.359,12.904-36.717,25.808-55.076,38.712c-18.388,12.924-39.112,30.68-62.38,33.841
	c21.229-56.14,30.752-116.889,34.567-176.629c-11.138,80.765-35.032,164.956-82.055,231.734
	c-26.838-33.739-1.532-87.123-7.362-125.963c2.577,44.23-29.831,96.317-0.131,136.194c-24.412,32.05-54.586,59.598-91.791,80.12
	c-17.112,9.439-35.055,16.708-53.685,21.803c16.439-38.425,13.806-89.455,52.151-113.485
	c-42.398,22.441-39.533,80.441-63.408,116.278c-7.031,1.57-14.151,2.848-21.359,3.812c-25.491,3.408-51.307,4.963-76.229,10.379
	c-3.065-22.386,1.904-44.938,13.674-65.577c15.541-27.252,38.083-53.258,37.529-86.414c-5.235,36.557-37.546,59.156-57.336,87.735
	c-14.876,21.482-21.68,46.669-20.896,72.068c-4.52,1.693-8.995,3.592-13.412,5.743c-22.355,10.886-41.438,26.332-58.489,43.989
	c-17.294-14.63-21.613-42.305-21.721-63.553c-0.14-27.694,6.899-55.036,10.672-82.331c4.28-30.964,4.086-61.83-6.46-91.591
	c-8.013-22.613-21.019-42.41-37.654-59.556c15.951,23.976,25.871,51.053,27.036,80.016c1.424,35.415-12.273,68.175-23.985,100.873
	c-19.234,53.698-28.424,119.545,12.589,164.093c-2.257,3.068-4.493,6.141-6.707,9.211c-13.422,18.613-26.669,37.486-41.696,54.632
	c-7.947-24.602-16.741-48.898-26.385-72.811c-16.94-42.003-36.169-83.105-52.329-125.42c15.207-39.705,33.311-78.05,54.283-115.081
	c-23.8,25.709-45.914,52.727-66.378,81.048c-10.847-33.689-18.127-68.013-20.894-103.109c16.841-31.604,33.682-63.209,50.523-94.813
	c-17.187,25.379-34.373,50.757-51.56,76.136c-0.161-4.991-0.233-9.998-0.205-15.022c0.241-44.005,6.577-87.411,15.946-130.288
	c0.024-0.1,0.052-0.224,0.085-0.368c-0.002,0.005-0.006,0.009-0.008,0.014c0,0,0.188-0.819,0.008-0.014
	c0.375-0.818,1.362-1.299,1.362-1.299c9.851-12.04,19.702-24.081,29.553-36.121c11.302-13.813,25.796-34.03,46.472-29.458
	c-20.675-7.283-38.402,11.783-51.756,24.571c-6.79,6.502-13.579,13.004-20.369,19.506c9.151-37.675,20.242-74.948,31.197-111.862
	c-0.075,0.194-0.15,0.389-0.225,0.583c-24.058,62.479-48.41,125.941-62.728,191.537c-6.992-12.627-16.589-23.497-28.134-32.952
	c-16.115-13.157-25.082-33.053-12.77-52.318c-14.099,17.712-8.246,39.899,6.384,54.978c14.713,15.164,25.989,31.196,30.127,52.277
	c-2.882,15.933-5.126,31.994-6.561,48.206c-2.984,33.708-1.927,67.162,2.635,100.312c-6.653-6.604-13.675-12.782-21.661-17.856
	c-22.359-14.208-50.17-13.425-73.865-24.398c20.3,15.055,48.51,19.39,65.924,38.325c16.588,17.083,26.392,39.608,40.363,58.83
	c6.542,25.937,14.589,51.42,23.043,76.779c-16.92,4.237-34.05,5.947-51.33,5.07c2.781-8.571,3.759-17.669,2.689-27.023
	c-2.377-20.788-14.772-36.306-32.033-47.173c-16.833-10.597-33.448-19.982-47.913-33.903
	c-11.408-10.978-21.094-23.462-29.388-36.918c12.267,30.079,31.542,55.934,56.58,76.614c12.108,10.002,25.224,20.124,26.77,36.944
	c0.892,9.657-1.953,19.624-8.324,26.905c-43.18-10.625-81.234-40.008-104.081-77.93c-18.6-30.873-26.618-66.127-31.725-101.675
	c5.007-14.633,10.015-29.265,15.022-43.898c7.946-23.219,18.181-47.95,13.273-72.92c-1.404,24.507-16.869,45.013-29.862,64.796
	c-1.346,2.049-2.691,4.098-4.037,6.147c-0.012-0.101-0.023-0.203-0.035-0.305c-2.648-23.077-5.471-46.6-10.321-69.585
	c-12.845-39.032,42.525-68.256,30.029-108.477c6.25,31.838-24.5,53.214-37.299,80.05c-4.318-14.054-9.742-27.735-16.743-40.792
	c-20.619-38.457-55.325-70.687-99.469-77.742c52.072,13.365,86.9,62.025,98.468,112.63c5.575,21.803,8.028,44.062,9.25,66.465
	c-6.419-7.938-12.839-15.876-19.258-23.814c-13.459-16.643-27.546-39.211-49.795-44.463c22.089,7.744,33.93,33.029,45.794,51.357
	c8.026,12.399,16.052,24.798,24.079,37.197c0.523,18.042,0.623,36.117,1.27,54.066l0.146,3.802c0.107,2.629,0.224,5.256,0.361,7.878
	c0.817,15.673,2.272,31.32,4.73,46.728c-6.897-2.352-14.005-4.248-21.079-5.999c-22.199-5.494-48.075-12.774-57.475-36.176
	c3.337,23.195,23.936,37.912,43.067,48.283c14.347,7.778,32.328,15.063,42.946,28.309c6.313,22.466,15.543,44.021,28.981,63.928
	c3.277,4.855,6.722,9.532,10.319,14.034c-7.365-0.839-14.531-3.338-21.584-5.446c-15.078-4.508-33.857-8.379-47.21,2.585
	c21.666-9.144,41.016,11.079,58.683,20.214c9.852,5.095,21.32,7.551,32.043,6.203c51.711,47.773,124.128,67.216,194.809,54.486
	c1.473,4.466,2.936,8.935,4.371,13.412c6.573,20.496,12.517,41.195,17.836,62.056c-24.379,4.705-54.017-7.283-75.241-14.422
	c-19.962-6.715-40.235-13.056-61.355-14.657c-12.444-0.943-24.686,0.21-36.897,1.93c-2.525-19.296-21.055-31.943-38.976-37.549
	c-12.866-4.024-26.2-6.442-37.898-13.496c-8.642-5.211-16.069-12.186-21.968-20.357c9.772,19.15,26.064,30.664,45.285,39.239
	c12.843,5.729,38.323,16.792,35.088,35c-1.294,0.201-2.588,0.401-3.884,0.596c-21.618,3.256-41.646,2.628-61.37-7.715
	c-17.647-9.254-32.772-22.565-47.939-35.305c-25.926-21.777-54.968-42.595-90.335-40.95c41.91,3.757,68.253,37.562,95.03,66.19
	c14.995,16.032,31.589,31.478,51.935,40.388c20.702,9.065,42.944,9.329,65.139,8.755c8.695-0.225,17.027-0.112,25.184,0.568
	c-1.65,0.653-3.3,1.307-4.949,1.96c-17.362,6.875-34.973,15.541-53.408,19.037c-31.613,5.995-65.958-24.095-95.767-6.248
	c14.524-6.829,30.978-2.206,45.014,3.566c18.166,7.469,34.815,14.602,54.948,12.262c18.438-2.144,36.482-8.632,54.274-13.688
	c11.273-3.204,22.547-6.408,33.82-9.612c-0.038-0.112-0.076-0.225-0.114-0.337c2.742,0.95,5.492,2.007,8.26,3.182
	c19.04,8.084,37.046,18.388,56.099,26.457c23.532,9.65,48.582,15.18,73.051,12.919c4.766,24.208,8.701,48.581,11.789,73.062
	c-13.305-3.166-26.646-6.057-40.021-8.686c-6.897-16.945-25.296-32.407-37.68-41.107c-23.559-16.552-51.186-24.323-79.775-24.294
	c30.611,2.501,59.46,14.046,81.898,35.415c7.597,7.235,16.923,16.925,22.111,27.434c-62.379-11.396-125.528-16.949-189.455-16.509
	c44.591,10.303,88.076,23.497,130.444,39.629c-0.668,0.13-1.335,0.252-2.002,0.391c-19.225,4.137-36.834,12.513-54.37,21.143
	c18.047-6.514,36.15-12.838,55.357-14.791c5.641-0.539,11.256-0.713,16.841-0.559c35.095,14.065,69.409,30.184,102.937,48.382
	c2.744,43.353,2.849,86.871,0.26,130.23c-22.528-6.696-45.056-13.392-67.584-20.088c-1.198-26.068-10.112-51.323-27.082-72.19
	c-22.815-26.998-56.012-41.819-91.196-41.651c31.216,4.909,59.388,21.557,76.572,48.5c11.014,17.269,15.793,37.373,14.808,57.346
	c-35.111-10.436-70.222-20.872-105.333-31.309c-24.304-7.224-49.565-13.931-74.442-21.743
	c-16.533-32.318-18.306-69.02-6.476-104.045c-18.611,28.79-26.069,61.402-22.92,94.103c-46.028-16.909-88.776-40.074-119.176-80.467
	c-5.136-6.825-9.913-13.87-14.424-21.076c29.757-56.398,15.974-126.749-38.721-163.336c36.635,35.284,46.874,90.81,21.935,133.803
	c-15.052-28.826-27.817-59.015-43.026-87.61c-8.001-15.044-16.802-29.443-26.535-43.055c-0.546-14.555-1.091-29.109-1.637-43.663
	c-0.736-19.621-0.824-55.055-27.927-57.132c25.755,4.677,22.083,38.195,20.836,57.03c-0.654,9.874-1.307,19.749-1.961,29.623
	c-14.323-17.926-30.51-34.252-48.932-48.583c0.039-0.049,0.077-0.098,0.116-0.147c-9.84-6.952-10.097-21.222-9.93-32.027
	c0.213-13.759-0.241-26.839-6.115-39.576c-10.753-23.319-34.345-38.479-60.047-38.286c25.33,1.943,47.526,18.852,55.202,43.226
	c5.118,16.021-0.604,35.76,1.202,52.878c-74.931-48.919-168.438-63.621-254.526-38.476c27.06-6.228,54.334-9.23,82.124-7.781
	c39.429,2.056,78.462,12.145,114.144,29.125c-47.677,12.351-95.409,14.573-144.841,13.016c54.222,6.08,107.867,6.916,161.546-4.423
	c49.257,27.194,79.651,55.788,107.461,103.802c9.304,16.063,17.191,32.792,24.53,49.781
	c-41.707-25.349-86.592-43.821-134.558-55.265c51.942,16.428,99.517,41.139,142.497,74.143
	c10.029,24.364,19.588,48.954,31.155,72.608c16.813,34.38,38.129,65.533,67.108,90.663c5.101,4.424,10.405,8.586,15.872,12.524
	c-35.244,19.917-80.173,7.072-118.009-5.275c25.081,14.276,52.841,30.887,82.268,33.337c21.828,2.333,43.279-1.323,62.412-11.176
	c23.706,13.269,49.222,23.645,74.331,33.098c3.546,1.335,7.1,2.653,10.651,3.976c-37.101,23.976-76.415,43.985-117.939,60.071
	c51.79-10.281,101.49-26.531,149.154-48.574c34.296,12.49,68.72,24.653,103.037,37.059c3.485,1.26,6.971,2.52,10.456,3.78
	c-15.129,12.354-31.111,23.25-50.487,28.859c-33.167,9.601-71.428,12.112-94.883,40.729c28.684-26.26,70.693-19.699,106.106-25.629
	c26.332-4.409,48.973-18.415,71.325-32.369c32.063,11.591,64.127,23.183,96.19,34.774c-1.827,15.128-3.984,30.217-6.482,45.253
	c-15.015,90.381-41.505,177.442-78.449,261.243c-20.908,45.903-43.529,91.808-54.826,141.262
	c-8.028,35.143-9.506,89.292-2.975,131.792h123.107c-7.674-42.046-1.087-119.994,7.806-150.054
	c12.622-43.323,30.409-85.01,44.007-128.039c22.027-69.705,36.316-141.556,44.464-214.123
	c13.045-27.225,47.323-42.307,74.203-50.951c19.666-6.324,39.75-11.175,59.48-17.259c4.304,2.456,8.46,5.175,12.495,7.669
	c16.401,10.135,33.6,17.158,53.053,18.224c33.965,1.861,66.743-14.615,85.669-42.829c-21.692,26.455-56.462,39.719-90.184,32.497
	c-16.605-3.557-29.42-12.19-42.535-21.733c19.045-6.826,37.623-14.861,55.546-24.282c22.541-11.848,43.718-25.467,63.486-40.68
	c38.244-7.412,73.792-22.11,106.045-44.104c-27.794,14.798-57.199,24.65-87.963,29.398c42.247-36.224,77.362-80.144,104.779-129.799
	c-1.184,1.647-2.368,3.295-3.552,4.942c-43.214,60.107-99.22,106.219-164.353,137.647c9.815-25.394,17.907-51.355,24.257-77.916
	c-10.862,29.295-23.886,57.54-39.109,84.761c-15.35,6.744-31.162,12.718-47.411,17.88c-24.195,6.388-48.384,10.927-73.117,14.666
	c-2.328,0.352-4.653,0.714-6.977,1.083c8.11-49.13,80.319-69.649,87.72-122.043c-8.29,33.07-39.554,49.176-64.906,68.042
	c-19.88,14.794-35.477,33.755-40.153,56.987c-17.116,3.231-34,7.405-50.339,13.737c-3.314,1.284-6.576,2.685-9.787,4.182
	c2.437-55.661,0.636-111.664-5.301-167.268c24.993-17.732,49.987-35.465,74.981-53.197c4.747-3.368,9.479-6.772,14.208-10.188
	c17.552-1.726,36.88,4.974,52.428,10.554c22.766,8.169,46.57,17.291,71.174,13.364c-30.529-1.464-54.597-21.275-80.464-35.139
	c-5.444-2.918-11.07-5.528-16.819-7.709c11.203-7.937,22.524-15.692,34.133-22.947c23.979-14.985,48.47-24.002,76.781-26.02
	c5.559-0.396,11.118-0.705,16.675-0.978c24.493,24.215,59.321,30.084,92.635,36.449c31.123,5.946,62.246,11.892,93.369,17.839
	c-26.673-9.809-53.346-19.617-80.02-29.426c-19.774-7.271-45.099-13.948-64.225-26.882c14.807-0.949,29.575-2.411,44.276-5.238
	c36.045-6.933,70.605-17.203,104.401-31.599c12.161-5.18,24.042-10.9,35.639-17.093c23.328,6.016,47.224-12.223,71.001-10.894
	c24.05,1.247,54.913,11.288,73.781-9.566C1561.498,708.381,1533.019,697.385,1510.512,693.751z"/>
</svg>
