<?xml version="1.0" encoding="UTF-8"?>
<svg width="510" height="511" version="1.1" viewBox="0 0 134.94 135.2" xmlns="http://www.w3.org/2000/svg">

 <g transform="matrix(1.0883 0 0 1.0883 -8.9591 -24.117)">
  <circle cx="70.226" cy="84.275" r="59.72" fill="#fe4d53" stroke="#000002" stroke-linecap="round" stroke-width="2.1167"/>
  <path d="m15.039 63.991c39.796 5.0859 85.364-11.098 93.222-24.282-8.3293-7.8426-22.205-13.795-35.516-14.134-10.908-0.77293-23.111 2.6244-32.686 8.1963-11.267 6.4995-21.606 19.92-25.02 30.219z" fill="#ea4553"/>
  <path d="m11.76 91.325c37.24 3.7237 90.254-5.092 113.33-28.373 2.5352 6.9141 3.7116 13.487 3.7709 18.611-25.593 24.827-72.23 30.803-111.29 28.441-2.3447-4.038-4.863-11.846-5.8155-18.678z" fill="#eb4352"/>
  <path d="m27.792 124.84c30.255-0.21886 69.388-3.9581 99.106-25.669-1.4854 6.4496-3.0024 8.7512-4.6642 12.191-21.797 19.944-53.515 23.595-83.183 22.645-3.3609-1.9167-7.3004-4.9523-11.258-9.1675z" fill="#db404b"/>
  <g transform="matrix(1.5285 0 0 1.5285 -69.617 -34.252)">
   <circle cx="110.48" cy="74.301" r="7.7895" fill="#bd3441"/>
   <ellipse cx="111.31" cy="75.133" rx="6.7494" ry="6.6027" fill="#d83b4e"/>
  </g>
  <g transform="matrix(.84917 0 0 .84917 -23.014 42.762)">
   <circle cx="110.48" cy="74.301" r="7.7895" fill="#bd3441"/>
   <ellipse cx="111.31" cy="75.133" rx="6.7494" ry="6.6027" fill="#d83b4e"/>
  </g>
  <g transform="matrix(.84917 0 0 .84917 -52.739 32.032)">
   <circle cx="110.48" cy="74.301" r="7.7895" fill="#bd3441"/>
   <ellipse cx="111.31" cy="75.133" rx="6.7494" ry="6.6027" fill="#d83b4e"/>
  </g>
  <g transform="matrix(.84917 0 0 .84917 -30.912 69.087)">
   <circle cx="110.48" cy="74.301" r="7.7895" fill="#bd3441"/>
   <ellipse cx="111.31" cy="75.133" rx="6.7494" ry="6.6027" fill="#d83b4e"/>
  </g>
  <g transform="matrix(.84917 0 0 .84917 -2.7651 65.999)">
   <circle cx="110.48" cy="74.301" r="7.7895" fill="#bd3441"/>
   <ellipse cx="111.31" cy="75.133" rx="6.7494" ry="6.6027" fill="#d83b4e"/>
  </g>
  <g transform="matrix(.59442 0 0 .59442 42.925 66.454)">
   <circle cx="110.48" cy="74.301" r="7.7895" fill="#bd3441"/>
   <ellipse cx="111.31" cy="75.133" rx="6.7494" ry="6.6027" fill="#d83b4e"/>
  </g>
  <g transform="matrix(.33967 0 0 .33967 86.852 72.016)">
   <circle cx="110.48" cy="74.301" r="7.7895" fill="#bd3441"/>
   <ellipse cx="111.31" cy="75.133" rx="6.7494" ry="6.6027" fill="#d83b4e"/>
  </g>
  <g transform="matrix(.33967 0 0 .33967 5.076 105.54)">
   <circle cx="110.48" cy="74.301" r="7.7895" fill="#bd3441"/>
   <ellipse cx="111.31" cy="75.133" rx="6.7494" ry="6.6027" fill="#d83b4e"/>
  </g>
  <g transform="matrix(.33967 0 0 .33967 -6.6469 90.346)">
   <circle cx="110.48" cy="74.301" r="7.7895" fill="#bd3441"/>
   <ellipse cx="111.31" cy="75.133" rx="6.7494" ry="6.6027" fill="#d83b4e"/>
  </g>
  <g transform="matrix(.59442 0 0 .59442 26.967 -.37718)">
   <circle cx="110.48" cy="74.301" r="7.7895" fill="#bd3441"/>
   <ellipse cx="111.31" cy="75.133" rx="6.7494" ry="6.6027" fill="#d83b4e"/>
  </g>
  <g transform="matrix(.33967 0 0 .33967 -8.5769 30.903)">
   <circle cx="110.48" cy="74.301" r="7.7895" fill="#bd3441"/>
   <ellipse cx="111.31" cy="75.133" rx="6.7494" ry="6.6027" fill="#d83b4e"/>
  </g>
  <g transform="matrix(.84917 0 0 .84917 -31.285 -2.7077)">
   <circle cx="110.48" cy="74.301" r="7.7895" fill="#bd3441"/>
   <ellipse cx="111.31" cy="75.133" rx="6.7494" ry="6.6027" fill="#d83b4e"/>
  </g>
 </g>
</svg>
