<?xml version="1.0" encoding="UTF-8"?>
<svg width="510" height="511" version="1.1" viewBox="0 0 134.94 135.2" xmlns="http://www.w3.org/2000/svg">
 <defs>
  <clipPath id="clipPath1005">
   <rect x="826.49" y="17.447" width="155.43" height="235.99" fill="none" stroke="#000" stroke-linecap="round" stroke-width=".71576"/>
  </clipPath>
 </defs>
 <circle cx="67.468" cy="67.599" r="64.993" fill="#5dabdb" stroke="#000002" stroke-linecap="round" stroke-width="2.3036"/>
 <g transform="matrix(.36966 0 0 .36966 -142.55 23.695)" clip-path="url(#clipPath1005)">
  <circle cx="110.48" cy="74.301" r="7.7895" fill="#bd3441"/>
  <ellipse cx="111.31" cy="75.133" rx="6.7494" ry="6.6027" fill="#d83b4e"/>
 </g>
 <path d="m130.25 79.085c2.1454-10.465 1.1596-21.274-1.9724-31.212-2.8172-3.074-8.9327-4.6572-12.229-2.1537-2.8198 2.1419 2.0676 8.8599-1.0315 10.573-3.8691 2.1386-7.4925-6.601-11.862-5.9311-3.4251 0.52503-7.9515 3.7879-7.4784 7.2205 0.34656 2.5146 6.8487 1.076 6.7048 3.6103-0.26241 4.6216-12.756 0.53054-12.894 5.1575-0.14372 4.8429 8.3066 6.1781 13.152 6.189 4.0764 0.0092 7.8741-7.6643 11.089-5.1575 3.2437 2.5296-5.3394 9.3257-2.3209 12.12 2.8768 2.6633 9.6913-6.6482 11.347-3.0945 2.2954 4.9281-15.232 4.1617-13.41 9.2835 1.4744 4.1428 11.008-4.8707 13.152-1.0315 1.9198 3.4375-9.9709 7.0013-6.9626 9.5414 5.3729 4.5368 12.218-8.3922 14.717-15.115z" fill="#377d9d"/>
 <path d="m89.438 127.55c5.0318-1.9018 9.419-3.982 13.555-6.9465 1.3097-2.2096 0.89876-5.4712-0.0869-7.9207-1.1128-2.7655-3.2114-7.1576-6.123-6.5181-1.6268 0.35731-0.7248 3.3112-1.5801 4.7404-0.8371 1.3987-1.7481 3.2983-3.3578 3.5553-2.5892 0.41336-4.4383-2.8867-6.9131-3.7528-2.8403-0.994-5.9121-1.1351-8.8883-1.5801-7.0186-1.0494-15.167-6.4093-21.134-2.5677-2.206 1.4202-0.60657 5.5632-2.3702 7.5057-2.2606 2.4898-9.1273 0.59101-9.2833 3.9503-0.17356 3.7372 9.686 1.5965 9.8759 5.333 0.13691 2.6939-7.3176 1.7847-6.6937 4.547 3.7048 1.4892 11.923 3.3074 17.668 3.4959 2.1027-1.1498 0.60588-5.1863 2.4571-6.6603 2.0252-1.6125 5.2499-0.16108 7.7032-0.98758 2.3759-0.80043 4.023-3.9976 6.5181-3.7528 3.8118 0.37396 4.9046 7.0904 8.6536 7.5591z" fill="#377d9d"/>
 <path d="m17.79 107.81c1.7784 0.79165 2.5926-2.6677 4.2323-2.5374 2.3197 0.18431 3.0308 4.7309 5.3453 4.49 3.3325-0.34676 7.214-4.7175 6.2006-7.911-0.90026-2.8369-7.6746 0.27819-8.5525-2.5657-1.7039-5.5199 5.2357-14.583 10.904-13.47 4.602 0.90323-0.49199 12.351 4.0624 13.47 4.5518 1.1181 8.9982-5.4374 9.8354-10.049 0.47307-2.606-1.3355-5.3957-3.2072-7.2696-3.3598-3.3639-8.4281-6.9179-13.043-5.7729-4.5806 1.1366-4.0664 11.548-8.7663 11.118-4.413-0.40367-7.7415-7.6048-6.2006-11.76 1.758-4.7402 13.987-0.50495 14.112-5.5591 0.1407-5.7079-10.166-8.7827-15.608-7.0558-4.0195 1.2754-2.2247 10.425-6.4144 10.904-3.3889 0.38808-3.9585-9.3218-7.048-7.419-1.1695 11.957 5.354 32.293 14.148 41.387z" fill="#387e9f"/>
 <g fill="#377d9d">
  <path d="m19.413 25.285c-1.4776 3.6048 1.0273 7.7316 1.8363 11.543 0.2819 1.3279 0.11141 2.9536 1.0493 3.935 1.2038 1.2596 3.2442 1.4865 4.9843 1.574 2.141 0.10766 4.5436-0.07689 6.296-1.3117 1.5079-1.0625 1.0894-4.3024 2.8856-4.722 1.9136-0.44697 4.4082 1.2693 4.9843 3.148 0.89541 2.9201-5.6442 6.0619-3.6726 8.3946 1.1636 1.3768 3.4993-1.755 5.2466-1.3117 2.7595 0.70017 3.4612 6.0348 6.296 5.7713 3.0474-0.28323 5.864-4.3054 5.509-7.3453-0.31694-2.7134-4.8053-2.9573-6.296-5.2466-1.0421-1.6004-2.6271-3.9158-1.574-5.509 1.1663-1.7644 4.2455-0.26861 6.296-0.787 3.2746-0.82786 8.5164-0.42487 9.4439-3.6726 0.60036-2.102-1.8074-4.7444-3.935-5.2466-3.4254-0.80863-5.9698 5.2857-9.4439 4.722-3.2958-0.53484-7.4909-3.769-7.083-7.083 0.1869-1.5182 2.5341-1.7467 3.935-2.361 1.4191-0.62224 2.9132-1.4095 4.4596-1.3117 1.5241 0.09642 2.6726 1.9221 4.1973 1.8363 1.9168-0.10782 4.2496-1.112 4.9843-2.8856 0.51949-1.2542 0.0031-3.0776-1.0493-3.935-2.3766-1.9362-6.1296-0.81224-9.1816-0.52466-2.8716 0.27058-6.5781 4.3391-8.3946 2.0987-1.6415-2.0245 5.7332-5.2647 3.4236-7.0297-7.4504 2.0401-18.779 9.7152-25.197 17.261z"/>
  <path d="m85.45 6.3845c5.0545 0.86351 14.825 5.8377 19.846 9.6667 0.96189 2.5992-3.9473 4.4039-5.146 7.057-1.1626 2.5732 0.0832 6.1996-1.8376 8.2692-2.3069 2.4856-8.5055-0.21856-9.7393 2.9402-1.0091 2.5833 5.3234 4.6194 4.2265 7.1667-0.86979 2.0199-4.2547 1.7817-6.4316 1.4701-2.986-0.42743-8.0705-1.3986-7.9017-4.4103 0.11524-2.0558 5.6885-0.32984 5.6966-2.3889 0.01093-2.7989-5.4598-1.6539-7.718-3.3077-1.8921-1.3857-4.011-3.0574-4.594-5.3291-0.51366-2.0015-0.43961-4.9279 1.2863-6.0641 2.087-1.3739 6.109 3.6386 7.3504 1.4701 1.5088-2.6355-5.4732-3.8203-6.0641-6.7992-0.50509-2.5463 0.03759-6.7918 2.5727-7.3504 2.8343-0.62458 3.2523 6.9667 6.0641 6.2479 2.8944-0.73998-0.37733-7.4171 2.3896-8.6382z"/>
  <path d="m43.366 66.106c0.81662 3.1366 3.0558 6.7899 6.2248 7.4698 2.9337 0.62948 6.2493-1.5746 8.0923-3.9424 1.0415-1.338 0.75233-3.3084 1.0375-4.9799 0.17602-1.0317 1.2366-2.464 0.41499-3.1124-2.2687-1.7904-6.056 5.1633-8.0923 3.1124-1.466-1.4765 3.5178-4.1356 2.2824-5.8099-1.6472-2.2325-5.5827 0.0619-8.2998 0.62248-2.0779 0.42871-6.1097-0.04472-6.0174 2.075 0.07448 1.7094 4.0562-0.19534 4.9799 1.245 0.60781 0.94777-0.90616 2.2303-0.62248 3.3199z"/>
  <path d="m77.188 94.326c0.72097-3.7664 9.8332 2.0421 11.412-1.4525 1.0664-2.36-2.0169-5.3237-4.3574-6.4323-2.7617-1.3081-6.5487-0.8058-9.1298 0.82998-1.1522 0.73023-1.254 2.4379-2.0749 3.5274-1.1482 1.5238-4.21 2.2608-3.9424 4.1499 0.46087 3.2534 5.2758 4.3844 8.5073 4.9799 2.4825 0.45743 7.0431 1.243 7.4698-1.245 0.50761-2.9597-8.4494-1.408-7.8848-4.3574z"/>
  <path d="m64.738 49.299c3.2958 1.2646 6.3774 5.2031 6.0174 8.7148-0.21455 2.0926-4.1023 2.3053-4.5649 4.3574-0.55366 2.456 0.75147 5.4574 2.6974 7.0548 2.2236 1.8253 5.9446 0.14542 8.5073 1.4525 3.8778 1.9777 5.5847 11.336 9.3373 9.1298 2.7193-1.5986-1.3498-6.1886-2.4899-9.1298-1.1516-2.9707-5.5966-5.572-4.3574-8.5073 1.0977-2.6 5.3164-1.9806 8.0923-2.4899 2.1133-0.38775 5.7905 1.6355 6.4323-0.41499 0.89705-2.8658-4.2088-4.6444-7.0548-5.6024-3.016-1.0153-7.1221 2.271-9.5448 0.2075-1.9137-1.6301 0.16189-5.2605-1.0375-7.4698-1.31-2.4131-3.8753-6.8157-6.2248-5.3949-2.0672 1.2501 3.7623 5.8648 1.66 7.0548-3.1073 1.7589-4.1083-7.3639-7.6773-7.4698-2.0097-0.05965-3.7963 2.0846-4.5649 3.9424-0.71582 1.7304-1.0964 4.4968 0.41499 5.6024 1.2051 0.88151 2.9634-1.5723 4.3574-1.0375z"/>
 </g>
</svg>
