<?xml version="1.0" encoding="UTF-8"?>
<svg width="510" height="511" version="1.1" viewBox="0 0 134.94 135.2" xmlns="http://www.w3.org/2000/svg" >

 <circle cx="67.468" cy="67.599" r="64.993" fill="#f00" stroke="#000002" stroke-linecap="round" stroke-width="2.3036"/>
 <g>
  <g stroke-width="1.0883">
   <path d="m7.4078 45.524c43.31 5.535 92.902-12.078 101.45-26.426-9.0648-8.5351-24.166-15.013-38.652-15.382-11.871-0.84118-25.152 2.8561-35.572 8.92-12.262 7.0734-23.514 21.679-27.229 32.887z" fill-opacity=".21961"/>
   <path d="m3.8393 75.272c40.528 4.0525 98.223-5.5416 123.34-30.878 2.7591 7.5246 4.0393 14.678 4.1039 20.254-27.853 27.019-78.608 33.523-121.12 30.952-2.5517-4.3946-5.2924-12.892-6.329-20.327z" fill-opacity=".21961"/>
   <path d="m21.287 111.75c32.927-0.23818 75.515-4.3076 107.86-27.936-1.6166 7.0191-3.2675 9.5239-5.076 13.267-23.722 21.705-58.24 25.678-90.528 24.645-3.6577-2.086-7.945-5.3896-12.252-9.977z" fill-opacity=".22018"/>
  </g>
  <path d="m121.84 33.957c-3.7746 0.9461-9.3148 4.8746-11.532 9.2833-2.2389 4.4526-2.4607 10.325-0.58021 14.94 1.6583 4.07 5.5518 7.2931 9.5734 9.0657 3.6818 1.6229 8.5649 2.2177 12.039 0.87031 0.44701-9.8784-3.0213-23.699-9.5008-34.16z"/>
  <g stroke="#000">
   <path d="m53.91 130.12c21.318 6.6446 40.323 2.355 55.664-14.21-0.58688-5.535-4.801-13.814-10.178-18.235-5.6024-4.6068-13.454-7.2089-20.692-6.7342-7.0523 0.4625-14.093 4.183-19.132 9.1386-3.9698 3.9043-6.4954 9.4652-7.4495 14.951-0.86798 4.9902 0.56712 11.151 1.7864 15.09z" stroke-width=".21194px"/>
   <g stroke-linecap="round">
    <circle cx="107" cy="81.964" r="7.4557" stroke-width=".64156"/>
    <circle cx="39.138" cy="110.03" r="3.8216" stroke-width=".79376"/>
    <circle cx="61.145" cy="76.693" r="7.3796" stroke-width=".79376"/>
    <circle cx="102.26" cy="25.563" r="3.6176" stroke-width=".41114"/>
    <circle cx="86.315" cy="48.624" r="7.7749" stroke-width=".79376"/>
    <circle cx="43.882" cy="52.577" r="13.31" stroke-width=".79376"/>
   </g>
  </g>
  <path d="m3.1898 81.256c3.2942-2.0716 9.9634-3.3553 14.681-1.9068 4.7643 1.463 9.1586 5.3645 11.191 9.9151 1.7923 4.0128 1.4268 9.054-0.07472 13.184-1.3746 3.7814-4.3227 7.7195-7.699 9.2966-7.4432-6.51-15.025-18.574-18.098-30.489z"/>
  <g stroke="#000">
   <path d="m4.4104 57.411c1.114-10.272 9.1597-26.003 15.208-32.166 2.8659 2.3908 5.6099 7.4064 5.8552 11.786 0.2941 5.2519-1.9627 10.846-5.399 14.828-2.5043 2.9024-6.404 4.5083-10.114 5.475-1.7907 0.46668-3.6377 0.64405-5.5511 0.07604z" stroke="#000" stroke-width=".26459px"/>
  </g>
  <path d="m51.666 5.6406c5.1533-1.5677 12.881-2.2376 20.055-1.7731 3.4521 2.3851 5.6892 6.9812 5.8697 11.189 0.18287 4.262-1.6981 9.0426-4.9526 11.801-3.6432 3.0873-9.3328 4.5557-13.941 3.3017-4.5482-1.2378-8.8307-5.2758-10.211-9.7829-1.4712-4.8046-0.34297-10.921 3.1794-14.735z" stroke="#000500" stroke-width=".26459px"/>
 </g>
</svg>
