<?xml version="1.0" encoding="UTF-8"?>
<svg width="425" height="425" version="1.1" viewBox="0 0 112.45 112.45" xmlns="http://www.w3.org/2000/svg">

 <g transform="translate(-49.341 -71.416)">
  <g transform="rotate(-42.754 120.83 132.88)">
   <g transform="rotate(90 113.69 119.08)">
    <path d="m167.26 116.41c0.50838 51.001-48.701 59.624-56.521 55.23 0 0-0.2744-27.918-0.12968-55.055l0.26725-50.114c14.866-4.7992 56.007 12.165 56.383 49.939z" fill="#53536c"/>
    <path d="m60.122 116.25c-0.50838 51.001 48.701 59.624 56.521 55.23 0 0 0.2744-27.918 0.12968-55.055l-0.26725-50.114c-14.866-4.7992-56.007 12.165-56.383 49.939z" fill="#0fc"/>
   </g>
   <path d="m63.93 105.23c1.0819 0.96753 12.365-8.8342 18.246-9.0236 7.341-0.23646 9.0584 9.4604 14.392 10.471 11.985 2.2714 12.932 8.9923 20.534 7.9252 19.663-2.7601 19.453-13.92 26.565-0.99043 7.2364 13.157 15.72-13.723 19.85-7.9815 5.2863 7.3496 3.9992 26.179 0 31.805-2.1006 2.9549-15.205-6.5242-23.335-5.3474-8.8294 1.2782-12.9 13.014-19.925 11.138-15.574-4.1589-19.325-15.557-22.031-11.706-15.771 22.44-31.61-7.7312-34.429 4.4457-1.0515 4.5413-3.1803-5.1119-3.6811-14.959-0.4705-9.2501 0.54252-18.703 3.8148-15.777z" fill="#37abc8"/>
  </g>
 </g>

<circle cx="57" cy="56" r="53.5" stroke="black" stroke-width="1.8" fill="none"/>

</svg>
