<?xml version="1.0" encoding="UTF-8"?>
<svg width="510" height="511" version="1.1" viewBox="0 0 134.94 135.2" xmlns="http://www.w3.org/2000/svg">

 <g>
  <circle cx="67.468" cy="67.599" r="64.993" fill="#af8e6d" stroke="#000002" stroke-linecap="round" stroke-width="2.3036"/>
  <path d="m20.789 24.069c3.5709-1.9076 11.08 1.0504 12.036-2.9698 0.22216-0.93467-2.5063-0.96911-2.1883-1.8757 1.0181-2.9024 7.7404 2.3828 9.222-0.31261 0.495-0.90053-1.8306-1.665-1.5631-2.6572 0.24898-0.92349 1.5708-1.6296 2.5009-1.4068 1.0961 0.26267 0.80244 2.4691 1.8757 2.8135 3.9252 1.2596 12.46-0.35229 11.567-4.3766-0.60036-2.7034-6.6316 2.8473-8.2842 0.62522-0.43308-0.5823 0.25107-1.5368 0.78153-2.032 0.51801-0.4836 1.3331-0.50758 2.032-0.62522 2.9304-0.49333 6.3728-1.8606 8.9094-0.31261 0.83559 0.50994 0.34773 2.2786 1.2504 2.6572 3.0543 1.281 8.4538-0.10203 9.3784-3.2824 0.35209-1.2111-3.0449-1.9209-2.3446-2.9698 1.1724-1.7558 3.9857 1.6534 6.0959 1.7194 4.4397 0.13884 8.5938-3.1831 13.026-2.8089 4.4275 1.2463 9.5649 3.4217 12.971 5.3627-0.065 3.7439-10.968 0.35489-10.367 4.0111 0.38898 2.3672 6.8957-2.0682 7.1901 0.31261 0.31356 2.5358-6.3306-0.15627-7.3464 2.1883-0.50945 1.1759 2.5368 2.4518 1.7194 3.4387-2.3145 2.7944-6.8525-3.2182-10.472-2.9698-3.2353 0.22197-7.9247 0.81786-8.9094 3.9076-0.369 1.1578 0.72404 2.7382 1.8757 3.1261 1.3295 0.44787 2.7711-2.3854 3.9076-1.5631 0.6767 0.48962 0.33938 1.8286-0.15631 2.5009-0.95901 1.3007-2.9235 1.866-4.5329 1.7194-2.3047-0.21001-3.6524-3.2418-5.9396-3.595-1.7484-0.27002-3.5507 0.51144-5.1581 1.2504-1.4583 0.67045-4.2683 1.2495-3.9076 2.8135 0.34454 1.494 3.0899 0.26307 4.5329 0.78153 0.79063 0.28408 1.4476 0.85403 2.1883 1.2504 0.61631 0.32984 1.9404 0.24181 1.8757 0.93784-0.14041 1.5107-2.9878 1.8614-4.3766 1.2504-0.53321-0.23456-0.28876-1.2524-0.78153-1.5631-2.4686-1.5563-5.8652-0.57511-8.7531-0.15631-2.0548 0.29797-5.2725-0.09049-5.9396 1.8757-0.40868 1.2045 2.5259 1.8998 2.1883 3.1261-0.30326 1.1017-2.0153 1.6746-3.1261 1.4068-1.6216-0.391-1.5361-3.4033-3.1261-3.9076-3.9294-1.2463-8.9366 0.55185-11.879 3.4387-1.1293 1.1079-0.05604 3.7092-1.4068 4.5329-0.7679 0.46827-2.2529 0.3345-2.6572-0.46892-0.47134-0.93662 2.0492-1.9848 1.4068-2.8135-3.6015-4.6454-13.921 8.5593-17.24 3.7076 2.427-6.3346 7.8966-14.152 11.925-18.088z" fill="#8f7156"/>
  <path d="m4.0621 75.025c2.6121-4.1823 13.23 0.7449 14.069-4.064 0.32071-1.8377-4.1756-1.4515-4.5329-3.2824-0.18829-0.96486 0.83573-1.8395 1.5631-2.5009 0.51718-0.47027 1.1769-0.91913 1.8757-0.93784 1.3062-0.03496 2.3029 1.7574 3.595 1.5631 1.9001-0.28571 2.6938-4.6788 4.3766-3.7513 1.8908 1.0421-2.6618 5.1089-0.93784 6.4085 2.8303 2.1336 7.304-1.7563 9.691-4.3766 1.1873-1.3033 0.83164-3.4786 1.7194-5.0018 0.91068-1.5626 1.8381-4.4932 3.595-4.064 1.0434 0.25494 0.98189 2.0709 0.78153 3.1261-0.25082 1.321-3.0695 2.15-2.3446 3.2824 1.2009 1.8762 4.7798 0.08216 6.5648-1.2504 1.4565-1.0873 2.3051-3.0385 2.5009-4.8455 0.08713-0.80413-0.91099-1.5879-0.62522-2.3446 0.39822-1.0544 1.77-2.3017 2.8135-1.8757 0.93657 0.38241 0.15778 2.0726 0.62522 2.9698 0.528 1.0134 2.4262 1.3611 2.3446 2.5009-0.07145 0.99829-2.8604 1.018-2.3446 1.8757 2.1649 3.5998 11.359-0.80634 11.567-5.0018 0.07959-1.6073-3.3742-0.97566-4.2203-2.3446-0.6306-1.0203-1.118-2.8782-0.1563-3.595 1.1494-0.85666 2.6314 1.4581 4.064 1.4068 1.9827-0.07106 3.7958-3.408 5.4707-2.3446 1.2763 0.81039-1.0731 3.6529 0.15631 4.5329 3.3641 2.4079 11.233 0.49121 11.879-3.595 0.2282-1.4418-2.919-1.2071-3.595-2.5009-0.53083-1.0159-0.45292-2.3858 0-3.4387 0.53882-1.2527 2.3054-1.6227 2.9698-2.8135 0.62233-1.1154-0.39527-3.2547 0.78153-3.7513 1.2518-0.52825 2.833 0.97214 3.4387 2.1883 1.1652 2.3393-2.7794 6.3356-0.62522 7.8153 4.5717 3.1404 14.793-1.6478 15.005-7.1901 0.05976-1.5628-2.8937-1.3072-4.064-2.3446-1.1697-1.0369-3.7643-2.5107-2.8135-3.7513 1.024-1.3362 3.0532 2.2727 4.6892 1.8757 2.01-0.48784 2.0796-5.2729 4.064-4.6892 1.7672 0.51985-1.035 5.1647 0.78153 5.4707 1.9072 0.3213 0.78262-5.6342 2.6572-5.1581 2.3235 0.59011-2.1097 5.8004-0.15631 7.1901 5.1181 3.641 11.747-8.677 17.663-6.5648 2.5307 3.3737 4.7925 6.9323 6.0554 10.141-0.6818 2.3744-7.0864 0.98353-6.6807 3.458 0.3326 2.0288 5.855-1.1039 6.0959 0.93784 0.32309 2.7385-7.1406 0.41782-7.659 3.1261-0.35332 1.8458 4.465 2.0717 4.064 3.9076-0.50641 2.3181-4.6365 3.4779-6.7212 2.3446-1.9318-1.0502 0.41138-5.4409-1.563-6.4085-2.4084-1.1803-5.9682 0.98146-7.3464 3.2824-0.75152 1.2547-0.99376 3.7189 0.31261 4.3766 0.60678 0.30546 1.0522-0.96634 1.7194-1.0941 1.0939-0.20954 2.7132-0.33214 3.2824 0.62522 0.69895 1.1755-0.3054 2.9191-1.2504 3.9076-1.0366 1.0844-3.0383 2.4868-4.2203 1.5631-0.74348-0.58105 1.0097-2.1775 0.31262-2.8135-1.5324-1.398-4.6388 2.7267-6.0959 1.2504-1.1989-1.2147 2.4215-3.929 1.0941-5.0018-3.4273-2.7702-9.6497 1.7655-12.036 5.4707-0.3949 0.61328-0.54412 1.7025 0 2.1883 1.7211 1.5366 6.1368-2.9667 6.8775-0.78153 0.58513 1.7264-3.1286 1.8716-4.6892 2.8135-1.4612 0.88191-4.4161 0.95097-4.3766 2.6572 0.04534 1.958 4.9436 0.86678 5.1581 2.8135 0.18198 1.6516-2.0912 3.2128-3.7513 3.2824-2.4571 0.10302-3.4838-4.2451-5.9396-4.3766-2.1684-0.11607-3.7938 4.4463-5.627 3.2824-1.9872-1.2616 2.4978-5.6076 0.62522-7.0338-4.3807-3.3364-16.123 0.31515-15.474 5.7833 0.25368 2.137 5.4599-1.1501 6.4085 0.78153 0.98866 2.0131-1.2486 5.3001-3.4387 5.7833-2.3426 0.51686-4.0567-5.5504-5.9396-4.064-2.0582 1.6248 3.2955 4.7688 2.8135 7.3464-0.27119 1.4504-1.6924 2.544-2.9698 3.2824-1.7075 0.9871-4.5903 2.821-5.7833 1.2504-0.67668-0.89081 1.2351-1.9003 1.5631-2.9698 0.27666-0.90214 1.0141-2.1824 0.31261-2.8135-1.6258-1.4628-4.8029 2.8917-6.4085 1.4068-1.3903-1.2857 2.2649-4.4499 0.78153-5.627-3.9791-3.1578-14.339 0.39214-14.224 5.4707 0.04116 1.8119 3.3575 1.9256 5.1581 1.7194 1.8821-0.21559 3.183-3.8781 4.8455-2.9698 2.1951 1.1994 1.7603 5.5832 0.1563 7.5027-1.4885 1.7813-4.6488 1.7436-6.8775 1.0941-2.3387-0.68151-3.0648-4.4637-5.4707-4.8455-1.2906-0.20479-2.3125 1.313-3.595 1.5631-2.0462 0.39897-4.1904-0.4645-6.2522-0.1563-1.6295 0.24357-4.6435-0.08392-4.6892 1.5631-0.08241 2.9691 7.712 0.3678 8.2842 3.2824 0.34787 1.7718-2.1572 3.3083-3.9076 3.7513-1.5195 0.38461-3.1179-1.9246-4.5329-1.2504-1.6429 0.78272-0.37476 4.8503-2.1883 5.0018-1.6129 0.13472-2.841-2.4559-2.6572-4.064 0.19667-1.7207 3.3355-1.9137 3.7513-3.595 0.19779-0.79971-0.039-1.9878-0.78153-2.3446-2.6504-1.2735-5.466 4.6462-8.277 3.0511-1.2343-3.2809-2.5954-8.9043-3.1352-13.68z" fill="#8f7156"/>
 </g>
 <path d="m22.875 113.27c0.4074-3.4256 6.7803-2.1561 9.3241-4.4852 1.6542-1.5146 1.608-4.4877 3.4387-5.7833 0.65057-0.46041 1.5753-0.67736 2.3446-0.46891 0.60555 0.16409 1.3517 0.62548 1.4068 1.2504 0.11076 1.2564-3.1154 1.9715-2.3446 2.9698 1.6682 2.1607 6.0086-0.99788 7.5027-3.2824 0.99813-1.5262-1.0039-3.9483 0-5.4707 0.43687-0.66252 1.4699-1.2751 2.1883-0.93784 1.3281 0.62351-0.07869 3.5989 1.2504 4.2203 1.9027 0.88946 5.4801-0.4226 5.7833-2.5009 0.30434-2.086-5.0184-1.963-4.8455-4.064 0.10918-1.3269 2.1212-2.2235 3.4387-2.032 0.98505 0.14319 1.1343 1.7581 2.032 2.1883 1.319 0.63203 3.4902-0.85079 4.3766 0.31261 0.483 0.63398-1.122 1.8878-0.46892 2.3446 2.0503 1.4339 6.0658-1.4293 6.4085-3.9076 0.27273-1.972-4.9349-2.5864-4.064-4.3766 0.54892-1.1283 2.9278 1.2593 3.7513 0.31261 1.0867-1.2493-1.9174-3.4088-1.0941-4.8455 0.59803-1.0437 2.3703-1.6468 3.4387-1.0941s0.28126 2.5521 1.0941 3.4387c0.45773 0.49926 1.2691 1.0829 1.8757 0.78153 1.3014-0.64669-0.35283-4.0852 1.0941-4.2203 1.9493-0.18198 0.68799 4.5752 2.5009 5.3144 2.6257 1.0706 8.0078-0.13443 7.9716-2.9698-0.0225-1.7629-4.1772-0.16108-5.0018-1.7194-0.27786-0.52507-0.0032-1.3588 0.46892-1.7194 0.62109-0.47438 1.5801 0.16224 2.3446 0 0.50197-0.10652 1.0224-0.28521 1.4068-0.62522 0.45508-0.40261 0.36797-1.3523 0.93784-1.5631 0.61811-0.22865 1.26 0.86044 1.8757 0.62522 0.78479-0.29984 0.41302-2.121 1.2504-2.1883 1.7357-0.13939 3.5037 2.3367 3.2824 4.064-0.18939 1.4781-4.383 1.3924-3.595 2.6572 3.4749 5.5776 19.612-2.8409 17.506-9.0657-1.153-3.4079-7.9284 4.2529-10.629 1.8757-0.82217-0.7238-0.46828-2.3826 0.15631-3.2824 0.4525-0.65194 1.3961-0.89071 2.1883-0.93784 0.92162-0.05483 1.7626 1.0097 2.6572 0.78153 1.3566-0.34592 3.2127-1.5911 2.9698-2.9698-0.14964-0.84936-2.5314-0.25217-2.3446-1.0941 0.63193-2.8485 6.4061-1.7334 8.7531 0 1.1401 0.84204-0.10035 3.6348 1.2504 4.064 2.195 0.69734 5.4114-1.9179 5.4707-4.2203 0.0371-1.4406-3.0119-1.3981-3.2824-2.8135-0.21-1.0988 0.53006-2.5405 1.5631-2.9698 1.3088-0.54397 3.1353 0.17972 4.064 1.2504 0.65664 0.75712-0.43196 2.5307 0.46892 2.9698 2.8931 1.4102 8.7199-1.4828 8.4405-4.6892-0.12445-1.4281-3.3868-0.14323-4.064-1.4068-0.68643-1.2809-0.21393-3.5871 1.0941-4.2203 1.7428-0.8436 3.4175 1.9562 5.3144 2.3446 1.686 0.34518 4.0119-1.1945 5.1627-0.05998 0.50458 5.1638 0.49142 11.758-0.59074 17.254-1.3905 2.0741-5.7604 0.74298-6.9165 2.9698-0.46613 0.89785 0.35208 1.9957 0.62522 2.9698 0.25361 0.9044 3e-3 2.5629 0.93784 2.6572 0.60454 0.061 0.36299-1.7599 0.93783-1.5631 1.2411 0.42501 0.391 2.9169-0.46891 3.9076-1.0604 1.2217-3.1857 1.8474-4.6892 1.2504-1.196-0.47485-1.9097-2.0014-2.032-3.2824-0.11125-1.1655 2.0852-2.4614 1.2504-3.2824-2.2003-2.1643-6.6719 1.0262-8.5968 3.4387-0.62506 0.7834 0.10922 2.1512-0.46892 2.9698-2.7705 3.923-12.525 2.0767-12.661 6.8775-0.03647 1.2863 2.8182 0.83181 3.2824 2.032 0.41053 1.0613 0.0337 2.69-0.93784 3.2824-1.1341 0.69153-2.9584 0.14771-3.9076-0.78153-0.68651-0.67206 0.31062-2.5963-0.62522-2.8135-1.2999-0.30168-1.2602 2.6348-2.5009 3.1261-2.3977 0.94957-5.1647-1.7494-7.659-1.0941-2.4795 0.65137-6.8775 2.2476-6.0959 4.6892 1.3192 4.1213 12.343-3.8123 12.973 0.46891 0.7292 4.9555-9.2813 5.6577-14.224 4.8455-1.9435-0.31938-2.7387-3.3217-4.6892-3.595-3.938-0.55183-10.66 0.42421-11.098 4.3766-0.19403 1.7523 4.4347 1.2078 4.3766 2.9698-0.05777 1.7505-2.7992 2.4083-4.5329 2.6572-2.1264 0.30534-4.5379-2.8576-6.2522-1.5631-1.2896 0.97384-1.1769 3.5926-0.1563 4.8455 1.7366 2.1318 8.0475-1.3416 8.1279 1.4068 0.07358 2.5139-4.8366 1.8813-7.3464 1.7194-2.6654-0.17198-6.5806-0.30675-7.5027-2.8135-0.37036-1.0069 2.305-2.0386 1.5631-2.8135-1.7726-1.8513-6.8775 0.87565-6.8775 3.4387 0 1.398 3.8094 0.47884 3.7513 1.8757-0.04664 1.1213-2.0135 1.3976-3.1261 1.2504-1.5496-0.20494-2.1951-2.6673-3.7513-2.8135-1.4192-0.1333-2.1909 2.0339-3.8391 1.8839-5.2164-2.3038-10.841-7.1448-14.394-10.528z" fill="#8f7156"/>
</svg>
