<?xml version="1.0" encoding="UTF-8"?>
<svg width="510" height="510" version="1.1" viewBox="0 0 134.94 134.93" xmlns="http://www.w3.org/2000/svg" xmlns:cc="http://creativecommons.org/ns#" xmlns:dc="http://purl.org/dc/elements/1.1/" xmlns:rdf="http://www.w3.org/1999/02/22-rdf-syntax-ns#">
 <metadata>
  <rdf:RDF>
   <cc:Work rdf:about="">
    <dc:format>image/svg+xml</dc:format>
    <dc:type rdf:resource="http://purl.org/dc/dcmitype/StillImage"/>
    <dc:title/>
   </cc:Work>
  </rdf:RDF>
 </metadata>
 <defs>
  <clipPath id="clipPath1005">
   <rect x="826.49" y="17.447" width="155.43" height="235.99" fill="none" stroke="#000" stroke-linecap="round" stroke-width=".71576"/>
  </clipPath>
  <linearGradient id="linearGradient4643" x1="46.98" x2="71.56" y1="93.076" y2="55.491" gradientUnits="userSpaceOnUse">
   <stop stop-color="#94e420" offset="0"/>
   <stop stop-color="#ffd42a" offset="1"/>
  </linearGradient>
 </defs>
 <g transform="matrix(.36966 0 0 .36966 -144.74 26.339)" clip-path="url(#clipPath1005)">
  <circle cx="110.48" cy="74.301" r="7.7895" fill="#bd3441"/>
  <ellipse cx="111.31" cy="75.133" rx="6.7494" ry="6.6027" fill="#d83b4e"/>
 </g>
 <g transform="translate(-44.227 .13192)">
  <g transform="translate(44.228 -.26363)">
   <circle cx="67.468" cy="67.599" r="64.993" fill="url(#linearGradient4643)" stroke="#000002" stroke-linecap="round" stroke-width="2.3035"/>
   <g fill="#47b305">
    <path d="m130.25 79.085c2.1454-10.465 1.1596-21.274-1.9724-31.212-2.8172-3.074-8.9327-4.6572-12.229-2.1537-2.8198 2.1419 2.0676 8.8599-1.0315 10.573-3.8691 2.1386-7.4925-6.601-11.862-5.9311-3.4251 0.52503-7.9515 3.7879-7.4784 7.2205 0.34656 2.5146 6.8487 1.076 6.7048 3.6103-0.26241 4.6216-12.756 0.53054-12.894 5.1575-0.14372 4.8429 8.3066 6.1781 13.152 6.189 4.0764 0.0092 7.8741-7.6643 11.089-5.1575 3.2437 2.5296-5.3394 9.3257-2.3209 12.12 2.8768 2.6633 9.6913-6.6482 11.347-3.0945 2.2954 4.9281-15.232 4.1617-13.41 9.2835 1.4744 4.1428 11.008-4.8707 13.152-1.0315 1.9198 3.4375-9.9709 7.0013-6.9626 9.5414 5.3729 4.5368 12.218-8.3922 14.717-15.115z"/>
    <path d="m89.438 127.55c5.0318-1.9018 9.419-3.982 13.555-6.9465 1.3097-2.2096 0.89876-5.4712-0.0869-7.9207-1.1128-2.7655-3.2114-7.1576-6.123-6.5181-1.6268 0.35731-0.7248 3.3112-1.5801 4.7404-0.8371 1.3987-1.7481 3.2983-3.3578 3.5553-2.5892 0.41336-4.4383-2.8867-6.9131-3.7528-2.8403-0.994-5.9121-1.1351-8.8883-1.5801-7.0186-1.0494-15.167-6.4093-21.134-2.5677-2.206 1.4202-0.60657 5.5632-2.3702 7.5057-2.2606 2.4898-9.1273 0.59101-9.2833 3.9503-0.17356 3.7372 9.686 1.5965 9.8759 5.333 0.13691 2.6939-7.3176 1.7847-6.6937 4.547 3.7048 1.4892 11.923 3.3074 17.668 3.4959 2.1027-1.1498 0.60588-5.1863 2.4571-6.6603 2.0252-1.6125 5.2499-0.16108 7.7032-0.98758 2.3759-0.80043 4.023-3.9976 6.5181-3.7528 3.8118 0.37396 4.9046 7.0904 8.6536 7.5591z"/>
    <path d="m17.79 107.81c1.7784 0.79165 2.5926-2.6677 4.2323-2.5374 2.3197 0.18431 3.0308 4.7309 5.3453 4.49 3.3325-0.34676 7.214-4.7175 6.2006-7.911-0.90026-2.8369-7.6746 0.27819-8.5525-2.5657-1.7039-5.5199 5.2357-14.583 10.904-13.47 4.602 0.90323-0.49199 12.351 4.0624 13.47 4.5518 1.1181 8.9982-5.4374 9.8354-10.049 0.47307-2.606-1.3355-5.3957-3.2072-7.2696-3.3598-3.3639-8.4281-6.9179-13.043-5.7729-4.5806 1.1366-4.0664 11.548-8.7663 11.118-4.413-0.40367-7.7415-7.6048-6.2006-11.76 1.758-4.7402 13.987-0.50495 14.112-5.5591 0.1407-5.7079-10.166-8.7827-15.608-7.0558-4.0195 1.2754-2.2247 10.425-6.4144 10.904-3.3889 0.38808-3.9585-9.3218-7.048-7.419-1.1695 11.957 5.354 32.293 14.148 41.387z"/>
    <path d="m43.366 66.106c0.81662 3.1366 3.0558 6.7899 6.2248 7.4698 2.9337 0.62948 6.2493-1.5746 8.0923-3.9424 1.0415-1.338 0.75233-3.3084 1.0375-4.9799 0.17602-1.0317 1.2366-2.464 0.41499-3.1124-2.2687-1.7904-6.056 5.1633-8.0923 3.1124-1.466-1.4765 3.5178-4.1356 2.2824-5.8099-1.6472-2.2325-5.5827 0.0619-8.2998 0.62248-2.0779 0.42871-6.1097-0.04472-6.0174 2.075 0.07448 1.7094 4.0562-0.19534 4.9799 1.245 0.60781 0.94777-0.90616 2.2303-0.62248 3.3199z"/>
    <path d="m77.188 94.326c0.72097-3.7664 9.8332 2.0421 11.412-1.4525 1.0664-2.36-2.0169-5.3237-4.3574-6.4323-2.7617-1.3081-6.5487-0.8058-9.1298 0.82998-1.1522 0.73023-1.254 2.4379-2.0749 3.5274-1.1482 1.5238-4.21 2.2608-3.9424 4.1499 0.46087 3.2534 5.2758 4.3844 8.5073 4.9799 2.4825 0.45743 7.0431 1.243 7.4698-1.245 0.50761-2.9597-8.4494-1.408-7.8848-4.3574z"/>
    <path d="m64.738 49.299c3.2958 1.2646 6.3774 5.2031 6.0174 8.7148-0.21455 2.0926-4.1023 2.3053-4.5649 4.3574-0.55366 2.456 0.75147 5.4574 2.6974 7.0548 2.2236 1.8253 5.9446 0.14542 8.5073 1.4525 3.8778 1.9777 5.5847 11.336 9.3373 9.1298 2.7193-1.5986-1.3498-6.1886-2.4899-9.1298-1.1516-2.9707-5.5966-5.572-4.3574-8.5073 1.0977-2.6 5.3164-1.9806 8.0923-2.4899 2.1133-0.38775 5.7905 1.6355 6.4323-0.41499 0.89705-2.8658-4.2088-4.6444-7.0548-5.6024-3.016-1.0153-7.1221 2.271-9.5448 0.2075-1.9137-1.6301 0.16189-5.2605-1.0375-7.4698-1.31-2.4131-3.8753-6.8157-6.2248-5.3949-2.0672 1.2501 3.7623 5.8648 1.66 7.0548-3.1073 1.7589-4.1083-7.3639-7.6773-7.4698-2.0097-0.05965-3.7963 2.0846-4.5649 3.9424-0.71582 1.7304-1.0964 4.4968 0.41499 5.6024 1.2051 0.88151 2.9634-1.5723 4.3574-1.0375z"/>
    <path transform="matrix(.26459 0 0 .26459 0 -.0022941)" d="m337.29 38.9c-13.873 0.16488-28.088 4.4827-39.846 11.627-15.585 9.4697-32.702 23.102-36.227 40.994-2.9914 15.185 4.8572 32.39 15.254 43.855 18.339 20.223 47.724 40.3 74.361 34.32 19.81-4.4471 29.753-28.685 39.088-46.715 5.139-9.9254 8.4631-21.238 8.5801-32.414 0.113-10.79-0.63008-23.246-7.627-31.461-11.175-13.12-30.484-18.705-47.668-20.02-1.9597-0.14986-3.9342-0.21106-5.916-0.1875zm-3.4316 5.3672c1.8412 0.0022 3.56 0.26688 4.7109 1.0488 2.1027 1.4286 1.4528 4.1084 0 5.8242-3.9927 4.7158-13.489 6.679-21.174 9-4.2612 1.2869-9.7379 4.3989-13.551 2.6465-3.4118-1.5681-2.0131-5.6123 0-7.9414 4.6529-5.3832 15.073-8.556 24.561-10.061 1.6476-0.26128 3.6119-0.51978 5.4531-0.51758zm-48.004 26.951c0.51386 0.0059 1.0326 0.06738 1.5586 0.18945 9.9 2.2975 15.278 21.467 11.387 32.133-3.801 10.419-18.836 18.78-27.326 13.027-6.1307-4.1536-4.6489-16.629-2.2773-24.316 2.6798-8.686 8.9503-21.122 16.658-21.033z"/>
    <path d="m66.846 31.276c0.3453-3.0119-1.3022-6.1561-0.5045-9.0809 0.95721-3.5098 3.3384-6.6601 6.0539-9.0809 2.8912-2.5774 7.5441-2.6189 10.342-5.2972 0.52247-0.50009 1.6468-1.1857 1.0726-1.886-17.542-5.518-39.229-0.92839-54.294 10.154-1.1684 1.1403-1.9715 2.8527-1.2636 4.0926 0.89998 1.5763 3.5027 0.98836 5.2972 1.2612 3.6661 0.55748 7.9568-1.2126 11.099 0.75674 2.2976 1.44 2.6657 4.7231 4.036 7.0629 1.4866 2.5384 2.3083 5.6514 4.5405 7.5674 1.5165 1.3018 3.5541 2.1551 5.5494 2.2702 2.1793 0.12579 4.7543-0.23053 6.3062-1.7657 1.4944-1.4783 1.5263-3.9656 1.7657-6.0539z"/>
   </g>
  </g>
  <g transform="translate(1.1973,-1.193)">
   <g stroke-width=".26459px">
    <path d="m61.924 23.844c0.85135-0.96014 2.0708-2.3463 3.0985-3.1309 0.4802 0.0122 0.84086 0.55779 0.83205 0.98836-0.02527 1.2352-1.2948 2.4675-2.5009 2.7354-0.50363 0.11184-1.3485-0.0805-1.4296-0.59285z" stroke="#000600"/>
    <path d="m159.48 24.329c-0.85135-0.96014-2.0708-2.3463-3.0985-3.1309-0.4802 0.0122-0.84086 0.55779-0.83205 0.98836 0.0253 1.2352 1.2948 2.4675 2.5009 2.7354 0.50363 0.11184 1.3485-0.0805 1.4296-0.59285z" stroke="#000600"/>
    <path d="m176.35 72.687c0.10602-1.2788 0.26572-3.1181 0.12301-4.4032-0.34057-0.33875-1.2328 0.0036-1.5657 0.38518-0.52782 0.60499-0.4502 2.4197 0.0264 3.3939 0.2267 0.46342 0.98984 0.91936 1.4163 0.62406z" stroke="#000"/>
   </g>
   <path d="m44.639 73.403c-0.10238-1.2788-0.25658-3.1181-0.11878-4.4032 0.32886-0.33875 1.1904 0.0036 1.5119 0.38518 0.50967 0.60499 0.43472 2.4197-0.02549 3.3939-0.21891 0.46342-0.95581 0.91936-1.3676 0.62406z" stroke="#000" stroke-width=".26px"/>
  </g>
 </g>
</svg>
