<?xml version="1.0" encoding="UTF-8" standalone="no"?>
<svg
   xmlns:dc="http://purl.org/dc/elements/1.1/"
   xmlns:cc="http://creativecommons.org/ns#"
   xmlns:rdf="http://www.w3.org/1999/02/22-rdf-syntax-ns#"
   xmlns:svg="http://www.w3.org/2000/svg"
   xmlns="http://www.w3.org/2000/svg"
   version="1.1"
   id="svg885"
   width="280"
   height="280"
   viewBox="0 0 280 280">
  <metadata
     id="metadata891">
    <rdf:RDF>
      <cc:Work
         rdf:about="">
        <dc:format>image/svg+xml</dc:format>
        <dc:type
           rdf:resource="http://purl.org/dc/dcmitype/StillImage" />
        <dc:title></dc:title>
      </cc:Work>
    </rdf:RDF>
  </metadata>
  <defs
     id="defs889" />
  <g
     transform="translate(81.065004,-399.87831)"
     id="g892">
    <g
       transform="translate(-153.13836,-43.824189)"
       id="g931"
       style="stroke-width:4;stroke-miterlimit:4;stroke-dasharray:none">
      <circle
         style="opacity:1;fill:#0b59b6;fill-opacity:1;fill-rule:nonzero;stroke:#0b59b6;stroke-width:4;stroke-linecap:round;stroke-linejoin:round;stroke-miterlimit:4;stroke-dasharray:none;stroke-dashoffset:0;stroke-opacity:1"
         id="path897-3"
         cx="212.59842"
         cy="584.2616"
         r="128.23878" />
      <circle
         style="opacity:1;fill:none;fill-opacity:1;fill-rule:nonzero;stroke:#000600;stroke-width:4;stroke-linecap:round;stroke-linejoin:round;stroke-miterlimit:4;stroke-dasharray:none;stroke-dashoffset:0;stroke-opacity:1"
         id="path897-6"
         cx="212.59842"
         cy="583.88452"
         r="131.45399" />
    </g>
    <path
       style="fill:#a0cd65;fill-opacity:1;stroke:none;stroke-width:1px;stroke-linecap:butt;stroke-linejoin:miter;stroke-opacity:1"
       d="m -57.774822,496.83512 c 12.56741,-48.43982 79.35702,-90.0616 134.963965,-80.26491 2.3432,0.41282 -3.292228,3.66973 -4.756436,5.64827 -1.193579,1.61285 -2.809069,3.10092 -3.270059,5.05372 -0.41232,1.74663 0.42093,3.56477 0.59456,5.35099 0.11544,1.18763 0.26425,2.37456 0.29728,3.56733 0.0988,3.56734 -0.89999,7.18455 -0.29728,10.70199 0.2331,1.36037 0.2932,3.1709 1.48639,3.86461 2.859245,1.66235 6.505785,-1.6272 9.810155,-1.48639 2.54535,0.10846 5.07364,0.81982 7.43194,1.78366 1.06972,0.43719 2.47612,0.74023 2.97277,1.78367 0.90341,1.89804 -0.48774,4.17997 -0.89183,6.24283 -0.31416,1.60379 -0.20226,3.45375 -1.18911,4.75644 -1.44725,1.91044 -3.92639,2.95217 -6.24283,3.56733 -2.107,0.55954 -4.68565,-1.14611 -6.5401,0 -1.88486,1.1649 -2.922458,3.73034 -2.972778,5.94554 -0.0443,1.95139 1.064498,3.90737 2.378208,5.351 1.22434,1.34541 3.83809,1.10524 4.75645,2.6755 0.80042,1.3686 0.95477,3.49067 0,4.75644 -0.86885,1.15186 -2.7652,1.55103 -4.16188,1.18911 -0.94961,-0.24607 -1.26588,-1.5351 -2.08095,-2.08095 -1.070348,-0.71681 -2.289405,-1.32392 -3.567325,-1.48638 -0.69509,-0.0884 -1.5649,-0.17672 -2.08094,0.29727 -0.97367,0.89432 -1.07652,2.55551 -0.89184,3.86461 0.28503,2.02043 2.26116,3.43867 2.97278,5.35099 0.84724,2.27675 1.06667,4.74191 1.486389,7.13466 0.48425,2.76061 0.863948,5.53994 1.189108,8.32377 0.12698,1.08712 -0.32765,2.37148 0.29727,3.27005 1.442458,2.0741 4.577558,2.14057 6.837388,3.27006 2.29946,1.1493 4.73242,2.09168 6.83739,3.56733 1.32087,0.92597 2.65028,1.94297 3.56733,3.27005 1.21347,1.75604 2.18306,3.81997 2.37821,5.94555 0.13859,1.50947 -0.0484,3.19968 -0.89183,4.45916 -0.79523,1.18745 -2.1382,2.37822 -3.56733,2.37822 -2.50098,0 -4.2363,-2.66898 -6.24282,-4.16189 -2.99267,-2.22664 -5.93729,-4.54401 -8.62106,-7.13465 -1.717006,-1.65743 -3.119245,-3.61467 -4.756435,-5.351 -0.76911,-0.81568 -1.30415,-2.0569 -2.37822,-2.37822 -2.81143,-0.84108 -5.86726,0.76968 -8.62105,1.78367 -3.28765,1.21057 -6.32651,3.07196 -9.2156,5.05371 -3.42134,2.34684 -6.60144,5.07068 -9.51288,8.02649 -2.96492,3.01011 -5.78551,6.22833 -8.02649,9.81016 -0.75252,1.20278 -1.51583,2.47133 -1.78366,3.86461 -0.3559,1.85147 -0.71733,4.05919 0.29728,5.64827 1.02576,1.60654 3.64831,1.38787 5.05371,2.6755 1.47942,1.35545 2.62229,3.15468 3.27005,5.05371 0.77043,2.25868 1.08761,4.79968 0.59456,7.13466 -0.25652,1.21484 -2.50831,2.26183 -1.78366,3.27005 1.60661,2.2353 1.6836,7.75739 3.56732,8.0265 4.13051,0.5901 11.14043,1.92353 16.94482,2.67549 1.80402,0.23371 3.04073,-2.07096 4.75644,-2.67549 3.97949,-1.40218 8.39118,-3.09965 12.485645,-2.08095 4.11588,1.02403 6.86112,4.99968 10.10745,7.72922 2.68368,2.25646 5.2878,4.61806 7.72921,7.13466 3.47262,3.57956 7.03808,7.15071 9.810157,11.29654 2.09374,3.13132 3.88884,6.52525 5.05371,10.10743 0.93199,2.86606 2.13988,5.97625 1.48639,8.91833 -0.41719,1.87825 -1.70794,3.63319 -3.27005,4.75644 -0.5857,0.42116 -1.51768,0.14382 -2.08094,0.59455 -1.93889,1.55153 -2.02503,4.59387 -3.56733,6.54011 -1.569077,1.98003 -3.888867,3.24069 -5.648277,5.05371 -1.71417,1.76639 -3.75792,3.3985 -4.75643,5.64827 -1.78511,4.02207 -1.86433,8.68053 -1.78367,13.08021 0.0424,2.31295 3.45774,6.38479 1.18911,6.83738 -15.682298,3.12859 -30.868765,3.63438 -46.375285,2.97278 -1.81744,-0.0775 -1.47146,-3.39284 -2.6755,-4.75644 -1.87588,-2.12445 -4.56825,-3.3557 -6.83738,-5.05372 -3.28464,-2.45794 -6.54011,-4.95462 -9.81016,-7.43193 -3.27005,-2.47731 -7.07602,-4.37338 -9.81015,-7.43194 -2.84284,-3.18017 -5.4096695,-6.8862 -6.5401095,-10.99927 -1.23426,-4.49082 -0.81255,-9.38612 0,-13.97204 0.75477,-4.2598 2.09132,-8.56774 4.4591595,-12.18837 1.72622,-2.63954 4.28629,-4.68569 6.83739,-6.54011 2.3669,-1.72053 6.46822,-1.52136 7.72921,-4.16188 2.00709,-4.20286 1.63382,-9.46572 2.08094,-13.97204 0.45387,-4.57441 -0.5695,-9.24115 -1.78366,-13.67477 -0.19933,-0.72787 -0.37411,-1.53187 -0.89184,-2.08094 -3.1922,-3.38548 -8.48175,-3.87208 -12.48565,-6.24282 -2.69636,-1.59654 -5.3675795,-3.29138 -7.7292095,-5.351 -1.21572,-1.06026 -1.81759,-2.86557 -3.27006,-3.56733 -1.25232,-0.60506 -2.81351003,-0.63829 -4.16188,-0.29728 -1.25257,0.31678 -2.90413,0.84184 -3.27005,2.08095 -0.74094,2.509 2.25498,4.7235 3.27005,7.13466 1.07104997,2.54414 1.60661997,5.33058 2.97277,7.72921 1.18718,2.0844 4.90564,3.29141 4.45917,5.64827 -0.25623,1.35258 -2.19682,1.95119 -3.56733,2.08094 -1.77846003,0.16837 -3.70083,-0.61706 -5.05372,-1.78366 -1.44352,-1.24475 -1.64055,-3.45308 -2.6755,-5.05372 -1.22693,-1.89755 -2.56646,-3.75078 -4.16188,-5.35099 -2.0433705,-2.04952 -4.4638605,-3.69501 -6.8373795,-5.351 -2.00716,-1.40039 -4.29648,-2.38085 -6.24283,-3.8646 -1.50557,-1.14774 -3.3249,-2.16652 -4.16188,-3.86461 -1.40805,-2.8567 -0.0487,-6.44164 -0.89184,-9.51288 -0.55151,-2.00897 -1.25484,-4.1245 -2.67549,-5.64827 -1.24049,-1.33053 -2.95358,-2.433 -4.75644,-2.6755 -2.024611,-0.27233 -4.357021,2.77083 -5.945551,1.48639 -6.78477,-5.48599 2.63616,-17.61135 0.89183,-26.16042 -0.32792,-1.60716 -0.662,-3.63631 -2.08094,-4.45916 -1.03222,-0.59859 -2.3783,0.39731 -3.56733,0.29728 -3.97558,-0.33446 -9.02221,-1.00287 -11.59382,-2.97278 z"
       id="path817" />
    <path
       style="fill:#97d5ed;fill-opacity:1;stroke:none;stroke-width:1px;stroke-linecap:butt;stroke-linejoin:miter;stroke-opacity:1"
       d="m -60.870736,507.01471 c -1.84282,7.05101 -3.6699,14.15899 -4.45916,21.40397 -0.92298,8.47241 -1.20932,17.09228 -0.29728,25.56587 1.08813,10.10958 3.3567,20.17408 6.83738,29.72774 3.35271,9.20241 8.03469,17.95192 13.37749,26.16042 5.14981,7.91199 11.145612,15.33894 17.836651,21.99853 5.94504,5.91709 12.476549,11.36002 19.6203095,15.75571 9.17779,5.64726 19.2266995,9.91245 29.4304695,13.37748 5.3942,1.83178 16.64754,3.86461 16.64754,3.86461 0,0 -2.95946,-3.59688 -4.75644,-5.05372 -2.0726,-1.68028 -4.83396,-2.39969 -6.83739,-4.16188 -0.95285,-0.83812 -1.43232,-2.12682 -2.37822,-2.97278 -1.65984,-1.48448 -3.88344,-2.20934 -5.64827,-3.56733 -1.50039,-1.15451 -2.79867,-2.55094 -4.16188,-3.8646 -1.81638,-1.75035 -3.72591,-3.42175 -5.3509995,-5.351 -1.32841,-1.57705 -2.72112,-3.17337 -3.56733,-5.05372 -1.42041,-3.15627 -2.04062,-6.66278 -2.37822,-10.10743 -0.27081,-2.76312 0.0262,-5.56068 0.29728,-8.32377 0.30385,-3.0967 0.28761,-6.34423 1.48639,-9.2156 1.22939,-2.94469 3.50222,-5.36762 5.6482695,-7.72921 2.40744,-2.64924 5.01183,-5.20437 8.02649,-7.13466 1.45742,-0.93318 3.6773,-0.72804 4.75644,-2.08094 1.32095,-1.65606 0.93467,-4.13981 1.18911,-6.24283 0.22645,-1.87171 0.51475,-3.77549 0.29728,-5.64827 -0.28575,-2.46078 -1.28196,-4.78973 -2.08094,-7.13466 -0.78934,-2.31662 -0.73345,-5.34801 -2.6755,-6.83738 -0.71204,-0.54607 -1.8568,0.07 -2.6755,-0.29728 -3.64902,-1.63716 -5.82907,-5.48637 -8.9183195,-8.02649 -1.53081,-1.2587 -2.98139,-2.68589 -4.75644,-3.56733 -1.29225,-0.6417 -3.18553003,-2.25138 -4.16188003,-1.18911 -2.07982997,2.26286 2.00697003,5.81912 3.27005003,8.62105 0.87437,1.93963 1.47546,4.13672 2.97277,5.64827 1.02965,1.03944 3.42302,0.68609 3.86461,2.08094 0.6018895,1.9012 -1.38951,3.82683 -2.6755,5.35099 -1.18863,1.40877 -2.63273,3.02179 -4.45916,3.27006 -3.04546003,0.41397 -6.29651,-1.2594 -8.62105,-3.27006 -3.08646,-2.6697 -3.48806,-7.44403 -5.9455505,-10.70199 -1.43464,-1.90194 -3.02717,-3.80124 -5.053709,-5.05371 -2.13247,-1.31794 -4.84613,-1.35499 -7.13466,-2.37822 -1.45866,-0.65218 -3.05042,-1.23032 -4.16189,-2.37822 -1.3259,-1.36936 -2.02104,-3.26351 -2.67549,-5.05372 -1.60162,-4.38114 0.65916,-10.74754 -2.972779,-13.67476 -1.928831,-1.55457 -4.954622,0 -7.431932,0 -1.48639,0 -3.38454,1.0269 -4.45917,0 -1.57775,-1.50767 -0.32692,-4.35802 -0.29727,-6.54011 0.0743,-5.46398 0.42632,-10.93928 1.18911,-16.35026 0.26858,-1.90519 2.29978,-4.07719 1.18911,-5.64827 -0.86563,-1.22446 -2.9707,-0.41265 -4.45917,-0.59455 -1.78139,-0.2177 -3.67183,0.0388 -5.35099,-0.59456 -1.13174,-0.42689 -1.87223,-1.57907 -2.97277,-2.08094 -0.74348,-0.33904 -1.66506,-0.99344 -2.37822,-0.59455 -1.72318,0.96381 -1.28442,3.73803 -1.78367,5.64827 z"
       id="path819" />
    <path
       style="fill:#97d5ed;fill-opacity:1;stroke:none;stroke-width:1px;stroke-linecap:butt;stroke-linejoin:miter;stroke-opacity:1"
       d="m 103.53437,656.08112 c 32.9438,-12.22798 60.94028,-37.19736 73.152,-68.10704 -2.35334,-6.50671 -4.5437,-11.67994 -7.56745,-18.4982 -1.04448,-2.3552 -5.08565,-1.39741 -7.14703,-2.9429 -2.87179,-2.15308 -5.01135,-5.25537 -6.72662,-8.40828 -1.69422,-3.11422 -2.79543,-6.59047 -3.36331,-10.08993 -0.33671,-2.07493 -0.73469,-4.33671 0,-6.30621 0.97221,-2.60623 4.25256,-3.80287 5.46538,-6.3062 1.30619,-2.69606 1.5148,-5.83753 1.68165,-8.82869 0.20353,-3.64868 -2.00747,-7.46764 -0.84083,-10.93076 1.07745,-3.19836 3.84746,-5.80652 6.72662,-7.56745 3.33458,-2.03947 7.45656,-2.61001 11.35118,-2.9429 1.68135,-0.14371 5.50408,2.04424 5.04496,0.42042 -2.09275,-7.40163 -4.75114,-13.43529 -7.98786,-19.75945 -2.0371,-3.98025 -4.38532,-6.64847 -7.14703,-11.35118 -2.16644,-0.24309 -2.51501,4.07468 -4.62456,4.62456 -6.48223,1.68966 -14.94794,-0.40646 -19.33903,-5.46538 -3.42974,-3.95136 -3.1735,-10.43396 -2.10207,-15.55532 0.77268,-3.69337 5.88579,-9.66951 5.88579,-9.66951 -5.537,-6.10439 -10.19589,-9.84508 -17.65738,-13.87366 -2.18162,-1.17789 -3.38767,3.62139 -5.04496,5.46538 -0.99578,1.10796 -1.5084,2.9616 -2.9429,3.36331 -2.68879,0.75296 -5.60107,-1.07341 -7.98786,-2.52248 -1.86348,-1.13136 -3.48745,-2.76456 -4.62455,-4.62455 -2.38093,-3.89458 -4.20414,-13.03283 -4.20414,-13.03283 -6.251837,-3.44149 -16.132607,-5.96095 -21.441107,-5.8858 -2.1389,0.0303 -1.84226,3.96132 -3.36331,5.46538 -1.74312,1.72365 -5.347544,1.52754 -6.306208,3.78373 -0.73116,1.72078 1.233764,3.59591 1.261254,5.46538 0.042,2.85795 -1.832354,5.55398 -1.681664,8.40827 0.12385,2.34588 -0.0734,5.84007 2.102068,6.72663 1.9161,0.78088 3.4052,-2.75086 5.46538,-2.9429 3.22137,-0.30027 6.41199,1.38784 9.2491,2.9429 1.91958,1.05215 4.2033,2.18338 5.04497,4.20413 1.24397,2.98663 0.0992,6.57375 -0.84083,9.66952 -0.92935,3.06073 -2.07304,6.47915 -4.62455,8.40828 -2.98276,2.25518 -8.75148,-0.51618 -10.93076,2.52248 -0.82079,1.14447 -0.2804,2.98251 0.42041,4.20414 0.94848,1.65335 3.61058,1.74931 4.62456,3.36331 0.83349,1.3267 1.00888,3.0668 0.84082,4.62455 -0.19541,1.81128 -0.71033,3.86939 -2.10207,5.04497 -1.42831,1.20648 -3.62031,1.56359 -5.46537,1.26124 -2.110954,-0.34593 -4.023828,-4.94373 -5.465378,-3.36331 -1.41658,1.55305 2.893514,3.1407 3.783718,5.04496 1.03646,2.21711 1.28963,4.73124 1.68166,7.14704 0.49588,3.05577 1.41482,6.20703 0.84082,9.2491 -0.1743,0.92378 -2.14709,2.20783 -1.26124,2.52249 5.90116,2.09613 12.40668,2.01979 16.39614,6.3062 2.29539,2.46624 2.65505,6.31269 2.9429,9.66952 0.19306,2.25139 0.0382,4.64494 -0.84083,6.72662 -0.69812,1.65329 -1.61045,3.81915 -3.36331,4.20414 -3.36669,0.73945 -6.34563,-2.76681 -9.24911,-4.62455 -3.02338,-1.93446 -5.69555,-4.37628 -8.408268,-6.72662 -2.32287,-2.01257 -3.84118,-5.24772 -6.72662,-6.30621 -2.63459,-0.96647 -5.73634,-0.43739 -8.40828,0.42041 -4.44145,1.42589 -8.17747,4.59392 -11.77159,7.56745 -2.97862,2.46431 -5.76783,5.2434 -7.98786,8.40828 -1.97945,2.8219 -4.8633,5.81044 -4.62455,9.2491 0.18847,2.71445 2.92665,4.60038 4.62455,6.72662 1.54708,1.93738 4.38364,3.07592 5.04497,5.46538 0.9164,3.31105 -2.9665,6.76494 -2.10207,10.08993 0.6999,2.69217 3.00281,5.01262 5.46538,6.30621 2.24687,1.18028 5.03657,1.03093 7.56745,0.84083 2.16941,-0.16295 4.19166,-1.17017 6.3062,-1.68166 3.206,-0.7755 6.48873,-1.22893 9.66952,-2.10207 1.28204,-0.35193 2.46904,-1.45893 3.783734,-1.26124 5.960544,0.89628 10.288564,6.41855 14.714474,10.51035 3.35966,3.10604 5.91207,6.98499 8.82869,10.51034 3.111227,3.76057 6.897457,7.07433 9.249097,11.35118 2.13521,3.88324 3.37319,8.25946 4.20414,12.61241 0.47372,2.48156 1.4764,5.27236 0.42042,7.56745 -1.25357,2.72453 -5.13338,3.24284 -7.14704,5.46538 -2.3239,2.56497 -3.3759,6.0694 -5.465377,8.82869 -1.3772,1.81867 -3.37419,3.13687 -4.62455,5.04497 -1.51296,2.30884 -2.95917,4.83679 -3.36331,7.56744 -0.49624,3.35296 1.26124,10.08994 1.26124,10.08994 0,0 7.9076,-2.34951 11.771587,-3.78373 z"
       id="path821" />
    <path
       style="fill:#a0cd65;fill-opacity:1;stroke:none;stroke-width:1px;stroke-linecap:butt;stroke-linejoin:miter;stroke-opacity:1"
       d="m 182.04792,515.43656 c 9.09777,22.55594 -3.65966,67.48198 -5.05371,67.48198 0,0 -1.44773,-6.75248 -2.97278,-9.81015 -1.42424,-2.85555 -3.44167,-5.42411 -5.64827,-7.72922 -1.75504,-1.83339 -3.84166,-3.33688 -5.94555,-4.75644 -1.50794,-1.01746 -3.60412,-1.26792 -4.75644,-2.67549 -2.44162,-2.98247 -3.583,-7.14487 -3.56733,-10.99927 0.008,-1.88013 0.99804,-3.64286 1.78367,-5.351 0.96576,-2.09976 2.49671,-3.89726 3.56733,-5.94554 1.00672,-1.92603 2.21942,-3.82068 2.67549,-5.94555 0.66544,-3.10035 0.24179,-6.35115 0,-9.51288 -0.0994,-1.29956 -0.91123,-2.60031 -0.59455,-3.86461 0.48153,-1.92246 2.05781,-3.47228 3.56733,-4.75644 1.78928,-1.52215 3.95053,-2.7564 6.24282,-3.27005 2.32269,-0.52046 4.81932,-0.25495 7.13466,0.29728 1.16467,0.27778 2.59415,0.49806 3.27006,1.48638 1.00844,1.47456 -0.37096,3.69427 0.29727,5.351 z"
       id="path823" />
    <path
       style="fill:#a0cd65;fill-opacity:1;stroke:none;stroke-width:1px;stroke-linecap:butt;stroke-linejoin:miter;stroke-opacity:1"
       d="m 144.18701,471.46408 c 5.99342,2.80394 8.24691,3.927 15.55531,5.04496 1.56465,-2.57272 1.93594,-3.44461 4.20414,-5.46538 -3.97971,-6.28452 -10.3332,-13.3711 -16.39614,-20.17986 -2.73513,4.47335 -4.88409,13.6092 -3.36331,20.60028 z"
       id="path825" />
    <path
       style="fill:#a0cd65;fill-opacity:1;stroke:none;stroke-width:1px;stroke-linecap:butt;stroke-linejoin:miter;stroke-opacity:1"
       d="m 107.34737,424.64718 c 6.75591,1.93579 12.07865,5.12009 16.68456,8.1034 -1.17294,2.47732 -2.49505,5.25299 -4.94527,6.3378 -1.31383,0.58169 -2.96034,0.20194 -4.29854,-0.32126 -1.56143,-0.61048 -2.90365,-1.80845 -3.93982,-3.12645 -1.26108,-1.60408 -1.9599,-3.60924 -2.5657,-5.55768 -0.54587,-1.75565 -2.40495,-4.33117 -0.93523,-5.43581 z"
       id="path827" />
    <path
       style="opacity:1;fill:#1263a7;fill-opacity:1;fill-rule:nonzero;stroke:none;stroke-width:0.25;stroke-linecap:round;stroke-linejoin:round;stroke-miterlimit:4;stroke-dasharray:none;stroke-dashoffset:0;stroke-opacity:1"
       d="m 162.13029,581.2532 c 0.38567,2.55252 2.08641,7.43245 -3.34437,6.46579 -4.76127,-1.56071 -6.00128,-1.76046 -7.72922,-6.46579 -1.06694,-6.19405 1.37224,-7.22851 5.87124,-6.76307 2.50491,1.32369 4.50315,4.15316 5.20235,6.76307 z"
       id="path829" />
    <path
       style="opacity:1;fill:#a0cd65;fill-opacity:1;fill-rule:nonzero;stroke:none;stroke-width:0.25;stroke-linecap:round;stroke-linejoin:round;stroke-miterlimit:4;stroke-dasharray:none;stroke-dashoffset:0;stroke-opacity:1"
       d="m 160.34665,582.73958 c 0.12154,1.06522 -0.63288,2.19699 -2.45254,2.08094 -1.25944,-0.0803 -3.48168,-4.35488 -3.34438,-5.79691 0.15558,-1.634 1.72252,-1.39086 2.22959,-1.04047 1.79038,1.23718 3.3426,2.78697 3.56733,4.75644 z"
       id="path832" />
    <path
       style="fill:#64c7f0;fill-opacity:1;stroke:none;stroke-width:1px;stroke-linecap:butt;stroke-linejoin:miter;stroke-opacity:1"
       d="m 142.73049,522.16875 c 4.08302,-5.9721 6.52637,-13.10764 11.35117,-18.49821 0.53281,-0.59529 1.12608,-1.2438 1.89187,-1.47145 0.80876,-0.24042 1.70178,0.40606 2.52248,0.21021 1.04034,-0.24826 2.10079,-0.81872 2.73269,-1.68165 0.85343,-1.16545 1.08747,-2.76009 1.05103,-4.20414 -0.0425,-1.68404 -0.56008,-3.418 -1.47144,-4.83476 -0.85942,-1.33602 -2.1076,-2.54103 -3.57352,-3.1531 -2.85161,-1.19064 -6.16071,-0.52546 -9.24911,-0.63063 -1.33054,-0.0453 -2.70996,0.35186 -3.99393,0 -2.12089,-0.58122 -3.93855,-2.0147 -5.67558,-3.36331 -2.34815,-1.82307 -4.75453,-3.77052 -6.30621,-6.3062 -1.30696,-2.13577 -1.92213,-4.6737 -2.31228,-7.14704 -0.38212,-2.42246 -0.584,-4.97538 0,-7.35724 0.43287,-1.76546 1.47238,-3.35103 2.52249,-4.83476 0.83056,-1.17352 2.41568,-1.81556 2.94289,-3.1531 0.38542,-0.97782 0.26148,-2.13512 0,-3.15311 -0.39789,-1.54907 -1.42406,-2.87409 -2.31227,-4.20413 -0.7475,-1.11934 -1.40954,-2.39614 -2.52249,-3.15311 -0.78804,-0.53598 -1.79086,-0.98657 -2.73269,-0.84083 -1.09486,0.16942 -1.88211,1.18199 -2.73269,1.89187 -1.21725,1.01589 -1.97823,2.59175 -3.36331,3.36331 -1.06902,0.59551 -2.3523,0.91889 -3.57351,0.84082 -2.3898,-0.15277 -4.34316,-2.29101 -6.72662,-2.52248 -1.27265,-0.12359 -2.70999,-0.0636 -3.78373,0.63062 -0.84861,0.5487 -1.33377,1.57371 -1.68165,2.52249 -0.63131,1.72179 -0.81998,3.6413 -0.63063,5.46538 0.0915,0.88157 0.76432,1.63948 0.84083,2.52248 0.12233,1.41177 -0.21948,2.84804 -0.63062,4.20414 -0.76391,2.5197 -2.15059,4.80999 -3.36331,7.14703 -2.413827,4.65168 -5.642527,8.87744 -7.777647,13.66345 -0.90274,2.02354 -1.86864,4.10276 -2.10207,6.30621 -0.13369,1.26194 -0.0139,2.59136 0.42041,3.78372 0.17294,0.47476 0.85485,0.75616 0.84083,1.26124 -0.0292,1.05063 -1.37693,1.60623 -1.89186,2.52249 -0.55459,0.98684 -1.45619,2.03801 -1.26125,3.1531 0.1453,0.83114 1.01197,1.37862 1.68166,1.89186 1.11923,0.85775 2.49736,1.3142 3.78372,1.89186 1.03266,0.46373 2.20244,0.64671 3.15311,1.26125 2.288897,1.47962 4.537857,3.30675 5.885787,5.67558 1.2104,2.12714 1.21295,4.74494 1.68166,7.14704 0.61113,3.13196 0.82112,6.33526 1.47144,9.45931 0.61998,2.97831 1.19789,5.99799 2.31228,8.82869 0.37897,0.96264 0.6281,2.13347 1.47145,2.73269 1.44613,1.02751 3.49093,0.655 5.25517,0.84083 2.72123,0.28664 5.46269,0.35032 8.19807,0.42041 0.77051,0.0197 1.55447,-0.14071 2.31228,0 1.91909,0.35633 3.53402,1.81965 5.46538,2.10207 0.90397,0.13219 1.85936,0.058 2.73269,-0.21021 1.08004,-0.33168 2.31958,-0.73931 2.94289,-1.68165 0.66168,-1.00035 0.40221,-2.37427 0.42042,-3.57352 0.0491,-3.23496 -1.73844,-6.56119 -0.84083,-9.66952 0.70762,-2.45042 3.18505,-3.9905 4.62455,-6.096 z"
       id="path835" />
    <path
       style="fill:#64c7f0;fill-opacity:1;stroke:none;stroke-width:1px;stroke-linecap:butt;stroke-linejoin:miter;stroke-opacity:1"
       d="m 73.821461,538.75125 c 1.814752,2.19542 3.468602,4.54307 5.499632,6.54011 0.72832,0.71613 1.49995,1.41082 2.37822,1.9323 1.79588,1.06632 3.889,1.52844 5.79691,2.37822 1.35629,0.60409 2.90886,0.93996 4.01325,1.93231 1.2579,1.13029 2.27795,2.66679 2.67549,4.31052 0.43235,1.78769 0.0705,3.7344 -0.44591,5.49963 -0.50411,1.7231 -1.18284,3.56614 -2.52686,4.75644 -1.03325,0.91507 -2.489,1.37392 -3.86461,1.48639 -1.46239,0.11956 -2.903,-0.47739 -4.31052,-0.89183 -2.24193,-0.66013 -4.38538,-1.62179 -6.54011,-2.52686 -1.65586,-0.69553 -3.139362,-1.90109 -4.905072,-2.22958 -1.65902,-0.30864 -3.38103,0.0743 -5.05372,0.29727 -2.15757,0.28765 -4.31313,0.69097 -6.39147,1.33775 -1.59029,0.4949 -2.975,1.60381 -4.6078,1.93231 -1.26289,0.25408 -2.69597,0.54201 -3.8646,0 -0.76543,-0.355 -1.28214,-1.16591 -1.63503,-1.93231 -0.77674,-1.68692 -0.79319,-3.64509 -0.89183,-5.49963 -0.14494,-2.72524 0.16685,-5.46034 0.44591,-8.17513 0.16909,-1.64502 0.4834,-3.27193 0.7432,-4.90508 0.14204,-0.89291 0.37134,-1.77445 0.44591,-2.6755 0.11034,-1.33319 -0.15138,-2.68409 0,-4.01324 0.1496,-1.31357 0.0677,-2.83088 0.89184,-3.86461 1.13274,-1.42079 3.12847,-1.99687 4.90507,-2.37822 1.69619,-0.36409 3.49408,-0.15368 5.20236,0.14864 0.92569,0.16382 1.74756,0.74125 2.6755,0.89183 1.12485,0.18254 2.34507,-0.38202 3.41869,0 1.62575,0.57848 2.7939,2.04903 4.01324,3.27006 0.72175,0.72276 1.28154,1.59094 1.93231,2.37821 z"
       id="path837" />
    <path
       style="fill:#64c7f0;fill-opacity:1;stroke:none;stroke-width:1px;stroke-linecap:butt;stroke-linejoin:miter;stroke-opacity:1"
       d="m 128.81589,634.67724 c 2.23116,-2.02603 4.24966,-4.28406 6.54011,-6.24282 1.61169,-1.37829 3.39909,-2.53816 5.05371,-3.86461 1.26216,-1.01183 2.60759,-1.94313 3.71597,-3.12141 1.14067,-1.21259 2.21344,-2.53172 2.97278,-4.01325 0.59319,-1.15737 1.15366,-2.41592 1.18911,-3.71597 0.0321,-1.17726 -0.59011,-2.2803 -0.89184,-3.41869 -0.68358,-2.57909 -1.24789,-5.19445 -2.08094,-7.72921 -0.68083,-2.07159 -1.11634,-4.3158 -2.37822,-6.09419 -0.52868,-0.74508 -1.27084,-1.36131 -2.08094,-1.78367 -1.40657,-0.73333 -3.12217,-0.63314 -4.6078,-1.18911 -0.93385,-0.34948 -1.80251,-0.85599 -2.6755,-1.33774 -1.67391,-0.92373 -3.02912,-2.60395 -4.90508,-2.97278 -1.87028,-0.36771 -3.91525,0.0982 -5.64827,0.89183 -1.53427,0.70259 -2.81512,1.94863 -3.8646,3.27006 -1.35055,1.70051 -2.32962,3.72276 -2.97278,5.79691 -0.57697,1.86072 -0.76546,3.84892 -0.74319,5.79691 0.0189,1.65358 0.30235,3.31124 0.74319,4.90508 0.55678,2.01301 1.94581,3.75357 2.37822,5.79691 0.36942,1.74569 0.4323,3.58933 0.14864,5.35099 -0.39366,2.44483 -1.48123,4.74129 -2.52686,6.98602 -0.91862,1.97207 -2.21821,3.74392 -3.27005,5.64827 -1.02868,1.8624 -2.62554,3.54919 -2.97278,5.64827 -0.15554,0.94026 -0.0457,2.00766 0.44592,2.82414 0.51113,0.84893 1.42097,1.52754 2.37822,1.78366 1.59103,0.4257 3.35614,-0.0348 4.90508,-0.59455 1.71903,-0.62126 3.1446,-1.8773 4.6078,-2.97278 2.30585,-1.72637 4.40761,-3.71183 6.5401,-5.64827 z"
       id="path839" />
    <path
       style="fill:#64c7f0;fill-opacity:1;stroke:none;stroke-width:1px;stroke-linecap:butt;stroke-linejoin:miter;stroke-opacity:1"
       d="m -35.029938,553.66672 c 1.24044,2.08871 2.4993,4.18093 3.99393,6.096 1.5254,1.95449 3.11488,3.90921 5.04497,5.46538 2.15169,1.73484 4.83849,2.68426 7.14704,4.20414 1.08861,0.71671 2.34954,1.2861 3.1531,2.31228 0.79421,1.01424 0.90032,2.41884 1.47145,3.57351 0.86315,1.74506 1.59635,3.63888 2.94289,5.04497 0.80658,0.84226 1.8164805,1.58994 2.9429005,1.89186 2.84578,0.76276 5.88624,-0.56958 8.82868997,-0.42041 1.41524003,0.0718 3.17002003,-0.33821 4.20414003,0.63062 1.20355,1.12757 1.11713,3.18686 1.05103,4.83476 -0.0968,2.41417 -0.98742,4.7932 -2.10207,6.93683 -1.51965,2.9225 -4.63371003,4.82603 -6.096,7.77765 -0.73937,1.49241 -0.93892,3.20072 -1.26124,4.83476 -0.50628,2.56666 -0.87546,5.16744 -1.05103,7.77766 -0.15988,2.37697 0.57427,4.83494 0,7.14703 -0.32489,1.30806 -0.8534,2.71435 -1.89186,3.57352 -0.7343,0.60753 -1.7877,0.96442 -2.73269,0.84083 -1.3108905,-0.17145 -2.3445005,-1.25953 -3.3633105,-2.10207 -3.01852,-2.49625 -5.45514,-5.63052 -7.98787,-8.61849 -1.77624,-2.0955 -3.25337,-4.43403 -5.04496,-6.51641 -1.38987,-1.61546 -2.90406,-3.12107 -4.41435,-4.62455 -2.52915,-2.51775 -5.80413,-4.38388 -7.77765,-7.35724 -1.98641,-2.99279 -2.8611,-6.61843 -3.78373,-10.08994 -0.67461,-2.5383 -1.08229,-5.15734 -1.26124,-7.77765 -0.1958,-2.867 0.045,-5.74955 0.21021,-8.61848 0.0445,-0.77266 0.5014,-1.59522 0.2102,-2.31228 -0.7292,-1.79559 -2.88202,-2.59719 -4.41434,-3.78372 -2.90475,-2.24925 -6.56398,-3.59117 -9.0389,-6.30621 -2.38879,-2.62056 -4.05155,-5.9137 -5.25517,-9.24911 -1.08706,-3.0124 -1.10371,-6.30935 -1.68166,-9.45931 -0.47616,-2.59522 -1.27043,-5.14678 -1.47144,-7.77765 -0.15489,-2.0273 -0.35774,-4.14372 0.2102,-6.096 0.38603,-1.32697 1.02784,-2.7041 2.10207,-3.57352 1.20565,-0.97578 2.9048,-1.82781 4.41435,-1.47145 1.1573,0.2732 2.05084,1.43091 2.52248,2.52248 0.91755,2.12359 0.06,4.62837 0.21021,6.93683 0.13718,2.1081 -0.15367,4.34463 0.63062,6.30621 0.59319,1.48362 1.5443,3.01109 2.94289,3.78372 1.23277,0.68102 2.84035,0.0689 4.20414,0.42042 2.58369,0.666 5.49372,1.24357 7.35724,3.1531 1.05417,1.08019 1.04403,2.83611 1.68166,4.20414 0.94028,2.01735 2.0166,3.9721 3.1531,5.88579 z"
       id="path841" />
    <path
       style="fill:#76bc31;fill-opacity:1;stroke:none;stroke-width:1px;stroke-linecap:butt;stroke-linejoin:miter;stroke-opacity:1"
       d="m 84.224273,595.88254 c 2.18826,2.7094 4.44913,5.35939 6.68875,8.02649 1.08517,1.29229 2.42586,2.40346 3.27005,3.86461 0.65859,1.1399 1.11142,2.41909 1.33775,3.71597 0.1874,1.07379 0.0967,2.18433 0,3.27005 -0.1741,1.95545 -0.44949,3.92479 -1.04047,5.79691 -0.67399,2.13507 -1.58761,4.2277 -2.82414,6.09419 -1.18172,1.78376 -2.88938,3.15687 -4.31052,4.75644 -1.35283,1.52267 -2.81576,2.96017 -4.01325,4.6078 -0.84925,1.16849 -1.72781,2.3614 -2.22958,3.71596 -0.71585,1.93246 -0.83871,4.0433 -1.04047,6.09419 -0.17954,1.82507 0.0518,3.67675 -0.14864,5.49964 -0.19863,1.80618 -0.26834,3.70613 -1.04047,5.35099 -0.59846,1.27489 -1.53669,2.44142 -2.6755,3.27005 -0.98949,0.71998 -2.21248,1.13161 -3.418686,1.33775 -1.41715,0.24218 -2.88209,0.0143 -4.31052,-0.14864 -2.05637,-0.23458 -4.07712,-0.7253 -6.09419,-1.18911 -2.44787,-0.56288 -4.99683,-0.8926 -7.2833,-1.9323 -2.01401,-0.91581 -3.80095,-2.29843 -5.49963,-3.71597 -2.39415,-1.99791 -4.34758,-4.47144 -6.5401,-6.68874 -2.41409,-2.44137 -4.68003,-5.04475 -7.2833,-7.2833 -1.77323,-1.5248 -3.6097,-3.01577 -5.64827,-4.16188 -1.82059,-1.02356 -3.85118,-1.61904 -5.79691,-2.37822 -1.32898,-0.51854 -2.82572,-0.69593 -4.01325,-1.48639 -0.84627,-0.5633 -1.45608,-1.42769 -2.08094,-2.22958 -1.12349,-1.4418 -2.12244,-2.98979 -2.97278,-4.6078 -0.59929,-1.14031 -1.28646,-2.29474 -1.48638,-3.56733 -0.18518,-1.17877 -0.20478,-2.48486 0.29727,-3.56733 0.50118,-1.08061 1.55572,-1.8371 2.52686,-2.52686 1.3008,-0.9239 2.87854,-1.37733 4.31053,-2.08094 1.29264,-0.63514 2.67329,-1.12292 3.8646,-1.93231 1.04485,-0.70988 2.11629,-1.48063 2.82414,-2.52685 0.64995,-0.96064 0.91167,-2.14388 1.18911,-3.27006 0.4425,-1.79617 0.42661,-3.67705 0.74319,-5.49963 0.40744,-2.34568 0.85286,-4.69106 1.48639,-6.98602 0.5712,-2.06917 0.91454,-4.29218 2.08094,-6.09419 0.5524,-0.85342 1.36076,-1.55309 2.22958,-2.08094 1.39285,-0.84623 3.01789,-1.27683 4.6078,-1.63503 1.89494,-0.42692 3.85453,-0.57953 5.79691,-0.59455 1.14383,-0.009 2.33619,-0.0723 3.41869,0.29728 1.56075,0.53292 2.69594,1.91988 4.16189,2.67549 1.18582,0.61122 2.41176,1.20571 3.71597,1.48639 1.11511,0.23999 2.2826,0.25038 3.41869,0.14864 1.56833,-0.14045 3.04737,-0.82967 4.6078,-1.04047 2.11359,-0.28553 4.27067,-0.52324 6.39146,-0.29728 1.73278,0.18462 3.530276,0.49172 5.053716,1.33775 2.0224,1.12313 3.49409,3.04791 5.05372,4.75644 0.97559,1.06873 1.76628,2.29295 2.67549,3.41869 z"
       id="path843" />
    <path
       style="fill:#76bc31;fill-opacity:1;stroke:none;stroke-width:1px;stroke-linecap:butt;stroke-linejoin:miter;stroke-opacity:1"
       d="m -19.786842,452.20273 c 4.685639,-3.50216 9.564329,-6.74647 14.5042795,-9.87972 3.84609,-2.43945 7.71041,-4.87523 11.77159,-6.93683 3.9461195,-2.00319 7.8828595,-4.24723 12.1919995,-5.25517 3.89434,-0.91092 7.98711,-0.8261 11.98179,-0.63063 2.33587,0.1143 4.6001,0.95575 6.93683,1.05104 4.07027,0.16599 8.1916,-1.60991 12.192,-0.84083 2.06197,0.39642 4.21018,1.22887 5.67559,2.73269 2.14498,2.2012 2.95326,5.44914 3.78372,8.40828 0.76321,2.7195 0.92252,5.58663 1.05104,8.40827 0.0957,2.10106 -1.21584,4.45896 -0.21021,6.30621 0.3907,0.71768 1.39695,0.8483 2.10207,1.26124 0.97495,0.57095 1.84059,1.43379 2.94289,1.68166 0.89133,0.20043 1.81911,-0.2142 2.73269,-0.21021 2.46139,0.0107 5.23871,-0.62251 7.357246,0.63062 0.86978,0.51448 1.71441,1.51246 1.68165,2.52248 -0.0486,1.49875 -1.48705,2.73864 -2.73269,3.57352 -1.567206,1.05041 -3.817026,0.5536 -5.465376,1.47145 -1.34262,0.74761 -2.97598,1.66598 -3.36331,3.1531 -0.40773,1.56544 1.57797,3.0104 1.47145,4.62456 -0.0867,1.31362 -0.712,2.68308 -1.68166,3.57351 -1.48597,1.36455 -4.0586,0.89564 -5.67558,2.10207 -0.8424,0.62852 -1.55949,1.52539 -1.89186,2.52249 -0.46531,1.39594 -0.28732,2.97122 0,4.41434 0.60727,3.05012 2.45662,5.71597 3.57351,8.61848 1.20182,3.12323 3.00939,6.1316 3.36331,9.45931 0.17188,1.61612 0.38812,3.56844 -0.63062,4.83476 -1.16701,1.45062 -3.43322,1.50885 -5.25517,1.89187 -1.99326,0.41903 -4.11454,-0.0513 -6.096,0.42041 -1.40524,0.3345 -2.73858,0.96702 -3.99393,1.68165 -6.96639,3.96573 -13.30801,9.01351 -19.33904,14.29407 -2.2742,1.99121 -4.94513,3.81746 -6.3062,6.51642 -0.95957,1.9028 -0.67647,4.20832 -1.05104,6.30621 -0.52656,2.94917 -0.15003,6.25401 -1.68165,8.82869 -0.50914,0.85588 -1.37438,1.55706 -2.31228,1.89186 -0.98986,0.35334 -2.21303,0.47004 -3.1531,0 -0.94008,-0.47004 -1.23003,-1.70599 -1.89187,-2.52248 -1.40708,-1.73587 -2.55368,-3.8076 -4.4143395,-5.04497 -2.58306,-1.71778 -5.74626,-2.59422 -8.82869003,-2.9429 -2.16845997,-0.24529 -4.34960997,0.37114 -6.51641997,0.63062 -1.47584,0.17674 -2.93543,0.48175 -4.4143405,0.63062 -1.18723,0.11951 -2.39889,0.42011 -3.57352,0.21021 -1.204619,-0.21526 -2.538119,-0.56784 -3.363309,-1.47145 -2.09186,-2.29065 -1.74253,-5.96826 -2.9429,-8.82869 -1.30962,-3.12076 -2.43305,-6.45983 -4.62455,-9.03889 -1.07081,-1.26018 -2.4229,-2.42661 -3.99393,-2.9429 -0.73223,-0.24063 -1.7814,0.55879 -2.31227,0 -1.88465,-1.98377 0.35032,-5.46269 0.42041,-8.19807 0.0485,-1.89124 0.34163,-3.81483 0,-5.67559 -0.67678,-3.68626 -3.17618,-6.85277 -3.99393,-10.51034 -0.398671,-1.78315 0.41141,-3.83853 -0.420421,-5.46538 -0.54322,-1.06241 -1.61226,-1.90186 -2.73269,-2.31228 -1.31587,-0.48201 -2.99206,0.70339 -4.20413,0 -0.9772,-0.56709 -1.42387,-1.84287 -1.68166,-2.94289 -0.27226,-1.16176 -0.31233,-2.50079 0.21021,-3.57352 0.69567,-1.42815 2.45023,-2.02982 3.57352,-3.15311 1.12329,-1.12329 2.16809,-2.32719 3.1531,-3.57351 0.90407,-1.14391 1.843141,-2.28341 2.522481,-3.57352 0.93999,-1.78509 1.23689,-3.85307 2.10207,-5.67559 0.59265,-1.24844 1.24307,-2.49094 2.10207,-3.57351 1.26305,-1.59177 2.89121,-2.85913 4.41435,-4.20414 2.23944,-1.97754 4.54378,-3.88698 6.93682,-5.67559 z"
       id="path845" />
    <path
       style="fill:#76bc31;fill-opacity:1;stroke:none;stroke-width:1px;stroke-linecap:butt;stroke-linejoin:miter;stroke-opacity:1"
       d="m 160.23594,543.21042 c 0.82972,-1.04349 1.88297,-1.90077 2.6755,-2.97278 1.03047,-1.39385 1.98217,-2.87044 2.67549,-4.45916 0.6397,-1.46585 1.13097,-3.02187 1.33775,-4.6078 0.27552,-2.11318 -0.0613,-4.2622 -0.14864,-6.39147 -0.0692,-1.68606 -0.4777,-3.3759 -0.29727,-5.05371 0.13753,-1.27892 0.35876,-2.62518 1.04047,-3.71597 0.63239,-1.01187 1.58688,-1.88962 2.67549,-2.37822 1.54747,-0.69455 3.35777,-0.56575 5.05372,-0.59456 1.19306,-0.0203 2.60791,-0.41217 3.56733,0.29728 0.6436,0.47591 0.80838,1.4335 0.89183,2.22958 1.95981,18.69676 1.45371,37.46444 -1.33774,54.84769 -0.14141,0.88056 -1.4334,0.40217 -2.08095,0.14864 -1.01185,-0.39615 -1.74575,-1.40525 -2.22958,-2.37822 -0.7834,-1.57538 -0.0444,-3.66049 -0.89183,-5.20235 -0.67585,-1.22963 -1.963,-2.0324 -3.12141,-2.82414 -2.28666,-1.56286 -5.10955,-2.20671 -7.43194,-3.71597 -0.91491,-0.59458 -1.76614,-1.2987 -2.52686,-2.08094 -0.78769,-0.80997 -1.64578,-1.63283 -2.08094,-2.6755 -0.44262,-1.06056 -0.61769,-2.28238 -0.44592,-3.41869 0.19551,-1.29337 0.9848,-2.43233 1.63503,-3.56733 0.30064,-0.52477 0.66407,-1.013 1.04047,-1.48638 z"
       id="path847" />
    <path
       style="fill:#76bc31;fill-opacity:1;stroke:none;stroke-width:1px;stroke-linecap:butt;stroke-linejoin:miter;stroke-opacity:1"
       d="m 148.19075,470.00319 c 1.86718,1.35941 4.19191,1.97101 6.39147,2.67549 1.06455,0.34096 2.16388,0.90411 3.27005,0.7432 0.90007,-0.13093 1.84835,-0.59848 2.37822,-1.33775 0.46987,-0.65556 0.37128,-1.57513 0.44592,-2.37822 0.0458,-0.49334 0,-1.48639 0,-1.48639 0,0 -7.2626,-8.56867 -10.99927,-12.63429 -1.33788,0.20345 -1.14152,2.45591 -1.63502,3.71597 -0.55426,1.4152 -1.2352,2.81155 -1.48639,4.31052 -0.18833,1.12389 -0.20804,2.29828 0,3.41869 0.12598,0.6785 0.38963,1.33965 0.74319,1.9323 0.23403,0.39229 0.52254,0.77162 0.89183,1.04048 z"
       id="path849" />
    <path
       style="fill:#76bc31;fill-opacity:1;stroke:none;stroke-width:1px;stroke-linecap:butt;stroke-linejoin:miter;stroke-opacity:1"
       d="m 110.82377,426.68372 c 3.45863,1.32285 6.98396,2.43284 9.0389,4.51945 0.17039,1.87898 -3.29965,4.52252 -5.78069,4.72965 -1.12591,0.094 -2.35559,-0.71647 -2.9429,-1.68165 -1.31239,-2.15676 -1.8042,-5.56511 -0.31531,-7.56745 z"
       id="path851" />
    <path
       style="fill:#63b62f;fill-opacity:1;stroke:none;stroke-width:1px;stroke-linecap:butt;stroke-linejoin:miter;stroke-opacity:1"
       d="m 172.67721,535.04495 c 0.44163,1.55622 1.17573,3.03414 1.47145,4.62455 0.42987,2.31186 -0.12085,4.75358 0.42041,7.04193 0.0614,0.25965 0.0719,0.62642 0.31531,0.73572 0.20213,0.0908 0.44674,-0.0866 0.63062,-0.2102 0.26804,-0.18023 0.43403,-0.47944 0.63062,-0.73573 0.4909,-0.63996 1.01605,-1.27045 1.36635,-1.99696 0.62088,-1.2877 1.0744,-2.68174 1.26124,-4.09904 0.25201,-1.91163 -0.21646,-3.85253 -0.21021,-5.78069 0.008,-2.45465 0.28779,-4.90273 0.31531,-7.35724 0.0192,-1.71694 0.4019,-3.50958 -0.1051,-5.15007 -0.32135,-1.0398 -0.96777,-2.01595 -1.78676,-2.73269 -0.67216,-0.58823 -1.53333,-1.28375 -2.41738,-1.15614 -0.93301,0.13468 -1.60112,1.09331 -2.10207,1.89187 -0.60098,0.95801 -0.72328,2.14942 -0.94593,3.2582 -0.24299,1.21003 -0.38264,2.44501 -0.42041,3.67862 -0.0408,1.33253 -0.0573,2.68789 0.2102,3.99394 0.22461,1.09669 0.82723,2.08305 1.15614,3.1531 0.0849,0.27615 0.13134,0.5629 0.21021,0.84083 z"
       id="path853" />
    <path
       style="opacity:1;fill:#76bc31;fill-opacity:1;fill-rule:nonzero;stroke:none;stroke-width:0.25;stroke-linecap:round;stroke-linejoin:round;stroke-miterlimit:4;stroke-dasharray:none;stroke-dashoffset:0;stroke-opacity:1"
       d="m 89.560517,524.95045 c 2.79992,4.70558 -0.78261,7.29227 -4.46875,5.28125 -3.17248,-1.73078 -6.17799,-4.57233 -7.8125,-7.3125 -3.3561,-5.62633 -0.2975,-6.12003 4.625,-3.96875 3.24858,1.41973 6.20106,3.55438 7.65625,6 z"
       id="path855" />
    <path
       style="fill:#63b62f;fill-opacity:1;stroke:none;stroke-width:1px;stroke-linecap:butt;stroke-linejoin:miter;stroke-opacity:1"
       d="m 34.000001,467.26969 c 1.88482,2.42876 2.73463,5.67167 5,7.75 1.18117,1.08365 2.65034,2.14738 4.25,2.25 1.42108,0.0912 2.86501,-0.64002 4,-1.5 1.23549,-0.93613 2.15251,-2.31969 2.75,-3.75 0.81325,-1.9468 0.87326,-4.14398 1,-6.25 0.13025,-2.16435 -0.611,-4.36199 -0.25,-6.5 0.34267,-2.02945 1.64997,-3.78122 2.25,-5.75 0.67195,-2.20476 1.61874,-4.44817 1.5,-6.75 -0.14934,-2.89491 -0.90466,-6.01449 -2.75,-8.25 -0.97387,-1.17977 -2.50409,-1.9298 -4,-2.25 -1.80012,-0.38531 -3.67316,0.27299 -5.5,0.5 -3.18143,0.39534 -6.47179,0.44753 -9.5,1.5 -1.44501,0.50222 -2.47593,2.11776 -4,2.25 -1.49669,0.12986 -2.79363,-1.13131 -4.25,-1.5 -1.55393,-0.39339 -3.17414,-1.04343 -4.75,-0.75 -1.79863,0.33491 -3.36305,1.55685 -4.75,2.75 -2.02255,1.73993 -4.16949,3.71459 -5,6.25 -0.6231201,1.90228 0.25378,3.99827 0.25,6 -0.003,1.83522 -0.20832,3.66525 -0.25,5.5 -0.0189,0.83312 -0.5705801,1.89264 0,2.5 0.91471,0.97367 2.671,0.38592 4,0.25 1.89043,-0.19334 3.66667,-1 5.5,-1.5 1.83333,-0.5 3.63084,-1.84259 5.5,-1.5 1.11488,0.20434 1.9026,1.24725 2.75,2 2.29251,2.03646 4.37004,4.3275 6.25,6.75 z"
       id="path858" />
    <path
       style="fill:#63b62f;fill-opacity:1;stroke:none;stroke-width:1px;stroke-linecap:butt;stroke-linejoin:miter;stroke-opacity:1"
       d="m 54.421501,489.20327 c 0.12441,2.47245 -0.8768,5.05008 -0.17677,7.42462 0.50375,1.70876 2.32583,2.77258 3.0052,4.41942 0.73162,1.7735 1.62766,3.82408 1.06066,5.65686 -0.22166,0.7165 -0.8412,1.57315 -1.59099,1.59099 -0.87574,0.0208 -1.37321,-1.10373 -1.94454,-1.76777 -0.27714,-0.32211 -0.34024,-0.84628 -0.70711,-1.06066 -2.04077,-1.1925 -5.16477,0.86711 -7.07107,-0.53033 -1.53554,-1.12566 -1.68258,-3.4506 -2.12132,-5.3033 -0.804,-3.39517 -2.05289,-7.14242 -0.88388,-10.42983 0.79586,-2.23807 2.81793,-4.0788 4.94975,-5.12652 1.43665,-0.70607 3.51615,-1.52175 4.77297,-0.53033 1.49197,1.17691 0.6116,3.75896 0.7071,5.65685 z"
       id="path860" />
    <path
       style="fill:#63b62f;fill-opacity:1;stroke:none;stroke-width:1px;stroke-linecap:butt;stroke-linejoin:miter;stroke-opacity:1"
       d="m -22.374999,488.51969 c 1.20448,-0.75961 2.58721,-1.3217 4,-1.5 1.53845,-0.19416 3.15786,-0.002 4.625,0.5 1.20353,0.4118 2.1496,1.36189 3.25,2 0.9032802,0.5238 1.8201602,1.02495 2.7500002,1.5 1.80902,0.92422 4.06419,1.18792 5.5,2.625 0.68498,0.68559 0.9374,1.70766 1.24999997,2.625 0.70119,2.05768 0.82718,4.27129 1.375,6.375 0.53807,2.06628 0.65223003,4.37461 1.87500003,6.125 0.98787,1.41414 2.89177,1.91883 4.125,3.125 1.10255,1.07836 2.38785,2.16173 2.875,3.625 0.47399,1.42375 -0.15582,2.99974 -0.125,4.5 0.0249,1.21095 -0.11874,2.47129 0.25,3.625 0.46122,1.44306 1.9637198,2.41692 2.3749998,3.875 0.65607,2.32591 0.61608,4.91318 0,7.25 -0.36627,1.38927 -0.73788,3.37566 -2.1249998,3.75 -1.11772,0.30163 -2.04256,-1.09916 -3,-1.75 -1.84057,-1.25117 -3.37802,-2.92134 -5.25,-4.125 -2.36691003,-1.52189 -4.92483,-2.74059 -7.5,-3.875 -2.31627,-1.02036 -4.9930002,-1.26088 -7.1250002,-2.625 -0.94307,-0.6034 -1.84393,-1.38939 -2.375,-2.375 -0.68609,-1.2733 -0.0723,-3.0468 -0.875,-4.25 -0.69909,-1.04789 -2.01517,-1.52911 -3.125,-2.125 -0.87258,-0.46851 -2.33758,-0.22455 -2.75,-1.125 -3.37105,-7.36011 -4.7726,-17.03866 -5.25,-23.875 -0.0459,-0.65721 1.31134,-0.28395 1.875,-0.625 1.33624,-0.80852 2.05396,-2.41688 3.375,-3.25 z"
       id="path862" />
    <path
       style="fill:#63b62f;fill-opacity:1;stroke:none;stroke-width:1px;stroke-linecap:butt;stroke-linejoin:miter;stroke-opacity:1"
       d="m 47.199374,623.47907 c -0.25336,2.11354 0.002,4.30183 0.53033,6.36397 0.57586,2.24884 1.67902,4.34709 2.82843,6.36396 1.36006,2.3865 3.2538,4.429 4.77297,6.71751 0.8049,1.21252 1.31999,2.63465 2.2981,3.71231 1.04554,1.15195 2.98121,1.45524 3.71231,2.82843 0.47158,0.88575 0.5495,2.07352 0.17678,3.0052 -0.44908,1.12256 -1.49155,2.13432 -2.65165,2.47488 -1.26427,0.37114 -2.6579,-0.23777 -3.88909,-0.70711 -1.1615,-0.44277 -2.25108,-1.12079 -3.18198,-1.94454 -1.63336,-1.44537 -2.75067,-3.38664 -4.06587,-5.12653 -1.09462,-1.44808 -1.80682,-3.23448 -3.18198,-4.41942 -1.65708,-1.42787 -4.09409,-1.67903 -5.83363,-3.0052 -1.59189,-1.2136 -3.03408,-2.70408 -4.06586,-4.41942 -1.0951,-1.82061 -0.71526,-4.41764 -2.12132,-6.0104 -1.308,-1.48168 -4.24747,-0.98089 -5.3033,-2.65166 -1.57424,-2.49114 -0.82512,-5.96417 -0.17678,-8.83883 0.46382,-2.05653 1.82983,-3.80018 2.82843,-5.65685 1.67564,-3.11547 3.73589,-6.02109 5.3033,-9.19239 0.67883,-1.37347 1.74018,-2.71082 1.76777,-4.24264 0.0181,-1.00676 -1.41893,-1.8874 -1.06066,-2.82843 0.45016,-1.18239 2.12363,-1.49359 3.35875,-1.76777 1.2094,-0.26847 2.63427,-0.43359 3.71231,0.17678 1.47906,0.83743 2.31054,2.62379 2.82843,4.24264 0.57482,1.79683 -0.43457,3.87212 0.17678,5.65685 0.51945,1.51645 2.06501,2.4796 2.82842,3.88909 0.63065,1.16437 1.3073,2.39245 1.41422,3.71231 0.18941,2.33829 -0.80651,4.62842 -1.41422,6.89429 -0.43444,1.6198 -1.39138,3.10784 -1.59099,4.77297 z"
       id="path864" />
  </g>
</svg>
