<?xml version="1.0" encoding="UTF-8"?>

<svg width="1029" height="535" version="1.1" viewBox="0 0 1029 535" xmlns="http://www.w3.org/2000/svg">

  <rect x="0" y="0" width="1029" height="535" fill="#31D175" stroke="#31D175"/>

  <line stroke-dasharray=".1 37"
        style="stroke-width:13; stroke-linecap: round; stroke:#2e0239;"
        x1="10" y1="10" x2="1015" y2="10"></line>
  <line stroke-dasharray=".1 37"
        style="stroke-width:13; stroke-linecap: round; stroke:#2e0239;"
        x1="30" y1="45" x2="1015" y2="45"></line>
  <line stroke-dasharray=".1 37"
        style="stroke-width:13; stroke-linecap: round; stroke:#2e0239;"
        x1="10" y1="80" x2="1015" y2="80"></line>
  <line stroke-dasharray=".1 37"
        style="stroke-width:13; stroke-linecap: round; stroke:#2e0239;"
        x1="30" y1="115" x2="1015" y2="115"></line>
  <line stroke-dasharray=".1 37"
        style="stroke-width:13; stroke-linecap: round; stroke:#2e0239;"
        x1="10" y1="150" x2="1015" y2="150"></line>
  <line stroke-dasharray=".1 37"
        style="stroke-width:13; stroke-linecap: round; stroke:#2e0239;"
        x1="30" y1="185" x2="1015" y2="185"></line>
  <line stroke-dasharray=".1 37"
        style="stroke-width:13; stroke-linecap: round; stroke:#2e0239;"
        x1="10" y1="220" x2="1015" y2="220"></line>
  <line stroke-dasharray=".1 37"
        style="stroke-width:13; stroke-linecap: round; stroke:#2e0239;"
        x1="30" y1="255" x2="1015" y2="255"></line>
  <line stroke-dasharray=".1 37"
        style="stroke-width:13; stroke-linecap: round; stroke:#2e0239;"
        x1="10" y1="290" x2="1015" y2="290"></line>
  <line stroke-dasharray=".1 37"
        style="stroke-width:13; stroke-linecap: round; stroke:#2e0239;"
        x1="30" y1="325" x2="1015" y2="325"></line>
  <line stroke-dasharray=".1 37"
        style="stroke-width:13; stroke-linecap: round; stroke:#2e0239;"
        x1="10" y1="360" x2="1015" y2="360"></line>
  <line stroke-dasharray=".1 37"
        style="stroke-width:13; stroke-linecap: round; stroke:#2e0239;"
        x1="30" y1="395" x2="1015" y2="395"></line>
  <line stroke-dasharray=".1 37"
        style="stroke-width:13; stroke-linecap: round; stroke:#2e0239;"
        x1="10" y1="430" x2="1015" y2="430"></line>
  <line stroke-dasharray=".1 37"
        style="stroke-width:13; stroke-linecap: round; stroke:#2e0239;"
        x1="30" y1="465" x2="1015" y2="465"></line>
  <line stroke-dasharray=".1 37"
        style="stroke-width:13; stroke-linecap: round; stroke:#2e0239;"
        x1="10" y1="500" x2="1015" y2="500"></line>
  <line stroke-dasharray=".1 37"
        style="stroke-width:13; stroke-linecap: round; stroke:#2e0239;"
        x1="30" y1="535" x2="1015" y2="535"></line>


</svg>
