<?xml version="1.0" encoding="UTF-8"?>
<svg width="100" height="100" viewBox="0 0 100 100" xmlns="http://www.w3.org/2000/svg">

 <g transform="translate(0 -270.54)">
  <g transform="matrix(5.1248 0 0 5.1248 -1.2479 269.29)">
   <rect x="3.5" y="1.5" width="13" height="17" fill="none" stroke="#000"/>
   <g transform="translate(0,-2)">
    <path d="m14.65 11.67
             c-0.48 0.3-1.37-0.19-1.79-0.37
             a4.65 4.65 0 0 1 1.49 0.06
             c0.35 0.1 0.36 0.28 0.3 0.31z
             m-6.3 0.06 0.43-0.79
             a14.7 14.7 0 0 0 0.75-1.64 5.48 5.48 0 0 0 1.25 1.55
             l0.2 0.15a16.36 16.36 0 0 0-2.63 0.73z
             m1.15-6.41
             c0.2 0 0.32 0.5 0.32 0.97
             a1.99 1.99 0 0 1-0.23 1.04 5.05 5.05 0 0 1-0.17-1.3
             s0-0.71 0.08-0.71z
             m-3.9 9a4.35 4.35 0 0 1 1.21-1.46
             l0.24-0.22a4.35 4.35 0 0 1-1.46 1.68z
             m9.23-3.3
             a2.05 2.05 0 0 0-1.32-0.3 11.07 11.07 0 0 0-1.58 0.11 4.09 4.09 0 0 1-0.74-0.5 5.39 5.39 0 0 1-1.32-2.06 10.37 10.37 0 0 0 0.28-2.62 1.83 1.83 0 0 0-0.07-0.25 0.57 0.57 0 0 0-0.52-0.4
             h-0.16a0.59 0.59 0 0 0-0.6 0.38 6.95 6.95 0 0 0 0.37 3.14
             c-0.26 0.63-1 2.12-1 2.12-0.3 0.58-0.57 1.08-0.82 1.5
             l-0.8 0.44
             a3.11 3.11 0 0 0-1.55 1.58 0.39 0.39 0 0 0 0.15 0.42
             l0.24 0.13
             c1.15 0.56 2.28-1.74 2.66-2.42
             a23.1 23.1 0 0 1 3.59-0.85 4.56 4.56 0 0 0 2.91 0.8 0.5 0.5 0 0 0 0.3-0.21 1.1 1.1 0 0 0 0.12-0.75 0.84 0.84 0 0 0-0.14-0.25z"/>
   </g>
   <g stroke="#000" stroke-linecap="round">
    <line x1="10" x2="10" y1="16" y2="11.5"/>
    <line x1="10" x2="8" y1="16" y2="14"/>
    <line x1="10" x2="12" y1="16" y2="14"/>
   </g>
  </g>
 </g>
</svg>
