<?xml version="1.0" encoding="UTF-8"?>
<svg width="64px" height="64px" version="1.1" viewBox="0 0 220 220" xmlns="http://www.w3.org/2000/svg" >
  <path   d="m174.78 3.666
           c-2.3856 0.0528
             -4.6947 0.95588
             -6.9453 1.7598
             -2.7912 0.99698
             -5.5518 2.1819
             -8.0606 3.7734
             -0.99614 0.63193
             -2.7285 2.2637
             -2.7285 2.2637
             -1.9306 1.8038
             -4.7067 4.6534
             -6.6953 7.293
             -1.4763 1.9595
             -3.8457 6.2871
             -3.8457 6.2871
             -3.2063 1.1265
             -5.5348 2.1596
             -8.4316 3.0176
             -4.1579 1.2314
             -8.0542 3.2726
             -11.906 5.2812
             -4.4511 2.321
             -8.779 4.9144
             -12.898 7.7969
             -5.0372 3.5247
             -9.9221 7.3215
             -14.385 11.568
             -4.1403 3.9401
             -7.952 8.2596
             -11.41 12.826
             -3.4217 4.5184
             -6.5408 9.3027
             -9.1758 14.334
             -2.7371 5.2262
             -4.9709 10.738
             -6.8281 16.348
             -1.7271 5.2166
             -2.9603 10.602
             -3.9824 16.006
             -0.77333 4.0887
             -1.41 7.6053
             -1.6191 12.381
             -0.031 0.70703
             0.87164 2.8093
             -0.96484 2.5l
             -4.4648 0.29688
             s-0.18663-4.3451
             -1.9688-7.2188
             c-1.6567-2.6714
             -4.1173-5.3266
             -6.3027-7.5606
             -2.7515-2.8126
             -6.3503-4.5679
             -9.9004-6.1152
             -1.7592-0.76675
             -3.6537-1.2193
             -5.5449-1.5234
             -2.022-0.32512
             -4.0904-0.45452
             -6.1328-0.31055
             -3.2993 0.23258
             -6.6379 0.74105
             -9.7461 1.8867
             -2.3599 0.86984
             -4.5572 2.2104
             -6.5801 3.7188
             -1.8581 1.3855
             -3.5159 3.057
             -5.0176 4.832
             -1.7745 2.0976
             -3.4702 4.3243
             -4.6602 6.8106
             -1.0782 2.2526
             -1.6324 4.7397
             -2.1699 7.1836
             -0.50152 2.2799
             -0.99438 4.6016
             -0.97656 6.9375
              0.019 2.4862
              0.51504 4.9503
              1.1523 7.3672
              0.50845 1.9283
              1.4133 4.5325
              2.4961 6.627
              1.0539 2.0386
              2.3358 3.9802
              3.8496 5.6953
              1.6533 1.8732
              3.5441 3.5715
              5.6328 4.9258
              2.3489 1.523
              4.9927 2.5464
              7.6152 3.5059
              2.0674 0.7564
              4.1812 1.4773
              6.3613 1.7598 2.3685 0.3069 4.7966 0.22546 7.1641-0.08984 2.7611-0.3674 5.5266-0.99419 8.0957-2.084 2.1074-0.8939 4.0349-2.2098 5.8652-3.5957 1.7293-1.3093 3.3591-2.7793 4.7852-4.4219 1.0402-1.1982 1.8319-2.597 2.7129-3.9199 0.61018-0.91621 1.7812-3.6841 1.7812-2.7812l8.9453 0.22071s3.0306 10.438 5.3105 15.34c2.5745 5.5352 5.5493 10.973 9.3672 15.713 4.8285 5.9946 10.537 11.368 16.836 15.74 5.26 3.6514 10.889 6.6786 17.172 8.5352 6.144 1.8153 13.987 3.2197 21.186 3.6094 6.0328 0.3265 12.621-0.89995 18.836-2.0274 4.1878-0.7597 8.4523-1.5007 12.371-3.1797 6.4739-2.7737 12.537-6.6678 17.961-11.199 4.3352-3.6217 8.0309-8.0232 11.408-12.574 2.9261-3.9429 5.4671-8.2062 7.5859-12.648 0.84209-1.7655 1.8403-3.5626 2.0156-5.5156 0.12534-1.3963-0.0602-2.9096-0.71484-4.1445-0.52944-0.99876-1.6187-1.7378-2.4375-2.3359-4.6139-3.3702-17.676-8.0946-13.787-8.0781 4.0547 0.0172 7.7613 0.36487 11.555-0.41406 1.154-0.23696 3.0332-1.834 3.0332-1.834 1.4721-1.7046 2.8098-2.8788 3.9688-4.6758 1.1293-1.7511 0.90465-3.7909 0.91992-5.7246 0.051-6.4636-1.3092-12.896-2.7715-19.188-0.91122-3.9204-2.0967-7.8018-3.7188-11.479-2.0686-4.6889-4.6054-9.2037-7.6016-13.346-2.103-2.9074-4.9308-5.3408-7.209-7.9727-3.9194-4.5278-9.3753-7.7759-14.648-10.727-4.5218-2.5302-9.3902-4.4885-14.371-5.873-4.7396-1.3175-9.671-1.8989-14.572-2.2637-2.756-0.20513-8.291 0.046875-8.291 0.046875-2.8216 1.072 5.1263-2.9495 7.8789-3.9805 2.5536-0.9564 7.9219-2.0117 7.9219-2.0117 0.64716-0.16182 1.7617-0.15186 2.4238-0.074219 0 0 4.4651 1.855 6.7832 2.5156 2.053 0.58505 4.1588 0.99128 6.2734 1.2715 1.9713 0.26121 3.9733 0.5607 5.9531 0.37695 2.7157-0.25205 5.3965-1.0078 7.9375-2.0117 2.4992-0.98738 5.0514-2.1057 7.0684-3.8984 1.2081-1.0737 2.1541-2.4752 2.8379-3.9492 0.79142-1.7061 1.4264-3.5957 1.3789-5.4805-0.0641-2.5446-0.85365-4.921-2.2324-7.293-0.2688-0.46242-1.0026-0.46919-0.99219-1.0059 0 0 2.3586-2.4079 3.0996-3.8984 0.88461-1.7793 1.4672-3.7927 1.4883-5.7852 0.0191-1.8095-0.616-3.5859-1.2402-5.2812-0.37509-1.0187-0.78462-2.0701-1.4883-2.8906-0.7-0.81628-1.6701-1.363-2.6035-1.8867-0.66497-0.3731-2.1494-0.30013-2.1074-0.88086 0.20003-2.7637-0.6211-5.7832-0.6211-5.7832-0.45031-1.0448-1.1114-2.3454-1.9844-3.2695-1.1737-1.2426-2.6526-2.2257-4.2168-2.8926-1.9057-0.81249-4.0093-1.3036-6.0762-1.2578zm0.58984 7.041c0.50291-0.02722 1.0042 0.002432 1.498 0.10742 1.2378 0.26313 2.4277 1.0846 3.1562 2.1328 0.5554 0.79912 0.66267 1.8689 0.70117 2.8457 0.05676 1.4411-0.0286 2.9967-0.70117 4.2676-1.1344 2.1434-5.2617 4.9785-5.2617 4.9785s4.6409-1.3583 7.0156-1.7773c0.57883-0.10213 1.1664-0.17274 1.7539-0.17774 0.70394-0.0059 1.4668-0.12258 2.1055 0.17774 0.75002 0.35271 1.3063 1.0725 1.7539 1.7773 0.54083 0.85164 1.0191 1.8334 1.0527 2.8457 0.04108 1.237-0.13994 2.7348-1.0527 3.5566-3.7544 3.3802-9.1211 7.1133-9.1211 7.1133s4.1813 0.70693 5.9629 1.7793c0.85312 0.5135 1.5967 1.2692 2.1055 2.1328 0.62596 1.0626 1.1968 2.3276 1.0527 3.5566-0.19172 1.6355-1.2987 3.1109-2.4551 4.2676-1.0996 1.0998-2.6026 1.7272-4.0352 2.3125-1.9596 0.80068-4.0346 1.4067-6.1387 1.5996-1.6344 0.14987-3.2784-0.17842-4.9102-0.35547-1.6441-0.17839-3.3192-0.25403-4.9102-0.71094-2.8214-0.81029-5.1607-3.1716-8.0684-3.5566-1.9348-0.25624-3.8805 0.46785-5.7871 0.88867-2.0793 0.45894-4.1082 1.1335-6.1387 1.7793-2.2403 0.71255-4.4912 1.4105-6.6641 2.3125-3.0006 1.2456-5.9706 2.6081-8.7695 4.2676-2.4641 1.461-4.7084 3.2745-7.0156 4.9785-3.9127 2.8898-8.0664 5.5104-11.574 8.8926-2.7664 2.6673-10.565 11.005-7.3672 8.8906 8.0676-5.3349 5.2129-3.8457 8.0684-5.334 3.2925-1.716 6.777-3.1006 10.348-4.0918 3.8284-1.0627 7.8084-1.4799 11.75-1.9551 3.1434-0.37893 6.3052-0.71994 9.4707-0.71094 2.9324 0.00876 5.8801 0.20377 8.7695 0.71094 3.1021 0.5445 6.1518 1.4239 9.1191 2.4902 3.2562 1.1702 6.3793 2.7041 9.4707 4.2676 2.1545 1.0896 4.2758 2.2581 6.3144 3.5566 2.0602 1.3122 4.1314 2.6436 5.9629 4.2676 1.6815 1.491 3.0954 3.2688 4.5606 4.9785 1.5809 1.8449 3.2008 3.672 4.5586 5.6914 1.7401 2.5879 3.1828 5.3763 4.5606 8.1797 1.3078 2.6612 2.5349 5.3748 3.5078 8.1797 0.88461 2.5503 1.4929 5.1931 2.1055 7.8242 0.68487 2.9417 1.4602 5.8848 1.7539 8.8926 0.25346 2.5955 0 7.8242 0 7.8242s-1.8543 3.5563-3.5078 3.5566c-34.353 0.00687-73.801 0.27627-101.37 0.35547 0 0 0.38813 3.0964 0.70117 4.623 0.46761 2.2804 0.94365 4.5783 1.7539 6.7578 1.1988 3.2247 2.751 6.3296 4.5586 9.248 1.7289 2.7913 3.6311 5.5276 5.9629 7.8242 2.2815 2.247 4.9689 4.0689 7.7188 5.6895 3.4385 2.0264 7.0257 3.959 10.873 4.9805 3.8606 1.0254 7.94 1.2691 11.926 1.0664 4.9927-0.2539 10.035-1.1107 14.732-2.8457 3.1478-1.1627 6.0227-3.0337 8.7695-4.9785 2.6515-1.8772 5.1716-3.993 7.3652-6.4023 2.1575-2.3696 3.9128-5.0989 5.6133-7.8242 1.5665-2.5107 4.209-7.8242 4.209-7.8242 5.8852 3.4146 10.763 6.1844 18.59 9.959 0.42235 0.2037-1.2724 2.3881-1.4024 2.8437 0 0-1.743 3.6333-2.8066 5.3359-1.5204 2.4336-3.3382 4.6642-5.0859 6.9356-2.0444 2.6569-3.9692 5.4365-6.3145 7.8242-2.1392 2.178-4.5653 4.0593-7.0156 5.8691-2.8051 2.0718-5.6331 4.1792-8.7676 5.6894-4.3914 2.1161-9.1106 3.5468-13.855 4.623-3.2763 0.7431-6.647 1.0383-9.998 1.2461-4.318 0.2679-8.6744 0.4424-12.979 0-4.9277-0.5064-9.8439-1.4783-14.557-3.0234-4.332-1.4202-8.5428-3.3238-12.451-5.6914-2.9712-1.7999-5.5899-4.1481-8.2441-6.4004-2.7927-2.3696-5.6074-4.7454-8.0664-7.4688-1.8871-2.0899-3.5458-4.3934-5.0859-6.7578-2.222-3.411-4.3-6.9459-5.9629-10.67-1.1744-2.63-2.0159-5.4082-2.8066-8.1816-0.93339-3.2737-2.2793-9.957-2.2793-9.957-0.02251-0.52969-0.88141-0.70995-1.4043-0.71094-6.6109-0.01078-11.54-0.07231-18.064-0.35742 0 0 0.76057-11.629 0.70117-7.291l12.453-0.17774s4.6516 0.48448 5.0859-0.17773c0 0-0.28005-4.6254-0.17578-6.9356 0.09151-2.0272 0.41965-4.0358 0.70117-6.0449 0.45018-3.2128 0.88272-6.4364 1.5801-9.6035 0.84688-3.8462 1.9294-7.6415 3.1562-11.381 1.3845-4.2199 2.8341-8.439 4.7344-12.447 2.1113-4.4532 4.5969-8.7398 7.3672-12.805 3.1663-4.6458 6.7955-8.9627 10.523-13.158 2.3243-2.6158 4.7368-5.1699 7.3652-7.4707 3.8588-3.3778 8.026-6.3937 12.277-9.2461 3.2778-2.1992 6.642-4.2942 10.172-6.0469 1.6964-0.84232 3.5065-1.4251 5.2617-2.1328 2.5118-1.0128 5.0239-2.0241 7.541-3.0234 2.8609-1.1358 6.1977-1.4289 8.5938-3.3789 0.32876-0.26757 0.48311-0.70059 0.70118-1.0664 0.75783-1.2713 1.331-2.6512 2.1055-3.9121 1.2862-2.094 2.4934-4.2976 4.209-6.0469 1.4184-1.4463 3.2075-2.4705 4.9102-3.5566 2.2589-1.4409 4.4985-3.0128 7.0156-3.9121 1.4278-0.51007 2.9561-1.0922 4.4648-1.1738zm-32.732 80.029c-1.5553-0.01491-3.1158 0.046798-4.6894 0.17969-3.3249 0.28078-6.6646 0.8627-9.8223 1.9551-3.4642 1.1984-6.851 2.8104-9.8203 4.9805-3.0852 2.2547-5.7572 5.1172-8.0684 8.1797-2.4985 3.3107-4.4572 7.0434-6.1387 10.848-1.1341 2.5658-1.9624 5.2731-2.6309 8.002-0.60002 2.4495-1.2266 7.4688-1.2266 7.4688 11.845-0.06075 18.131-0.48393 26.658-0.35547 2.2864 0.03445 4.5867-0.13747 6.8398-0.5332 2.6271-0.4614 5.2231-1.178 7.7168-2.1348 3.8391-1.4731 7.2879-3.8442 11.049-5.5117 2.9842-1.3232 5.991-2.6367 9.1191-3.5566 1.4315-0.42097 2.8944-0.90117 4.3848-0.88867 5.8242 0.04894 9.058-0.17227 15.434 0.17774 0 0-2.2369-5.0309-3.5078-7.4688-1.1386-2.1841-2.1096-4.5148-3.6816-6.4023-2.999-3.601-6.7973-6.5089-10.699-9.0703-2.0192-1.3255-4.2573-2.2893-6.4883-3.2012-2.109-0.86208-4.4251-1.5634-6.666-1.9551-2.5935-0.45328-5.1695-0.68799-7.7617-0.71289zm1.7969 8.4629c1.0534-0.0153 2.1058 8.17e-4 3.1543 0.091797 1.7141 0.14873 3.4339 0.40197 5.0859 0.88867 2.1894 0.64501 4.2586 1.6685 6.3145 2.668 1.321 0.6422 2.6474 1.2953 3.8574 2.1328 1.5764 1.0912 3.0513 2.3496 4.3848 3.7344 0.52302 0.54315 0.94063 1.1833 1.4043 1.7793 0.82564 1.0613 2.4551 3.2012 2.4551 3.2012s-2.9362-0.02759-4.3848 0.17774c-1.966 0.27869-3.8686 0.9048-5.7871 1.4219-2.2351 0.60241-4.4865 1.1728-6.666 1.957-1.5554 0.55966-3.0464 1.2846-4.5586 1.9551-1.822 0.8078-3.6271 1.6562-5.4375 2.4902-2.0483 0.94367-4.0815 1.9221-6.1387 2.8457-0.81421 0.36555-1.5651 1.0372-2.4551 1.0664-9.2704 0.30393-16.139 1.1966-26.658 1.5996 0 0 2.8732-6.8386 4.5606-10.135 1.2795-2.4995 2.4192-5.1376 4.209-7.291 1.8715-2.2518 4.2798-4.0099 6.6641-5.6914 1.6549-1.1671 3.3958-2.25 5.2617-3.0234 1.6801-0.69644 3.4692-1.1322 5.2617-1.4219 2.0816-0.33638 4.2074-0.29618 6.3144-0.35547 1.0519-0.0296 2.1048-0.076397 3.1582-0.091797zm-109.12 12.289a10.417 10.814 0 0 1 10.418 10.814 10.417 10.814 0 0 1-10.418 10.814 10.417 10.814 0 0 1-10.416-10.814 10.417 10.814 0 0 1 10.416-10.814zm143.67 34.564s-1.1183 2.0152-1.6973 3.0117c-0.78414 1.3496-1.5474 2.7143-2.4043 4.0176-1.1983 1.8224-2.5204 3.5574-3.8203 5.3066-0.97073 1.3063-2.101 2.731-3.2539 3.875-1.6381 1.6254-3.2766 2.9518-5.2344 4.1602-1.9277 1.1899-4.0189 2.0889-6.084 3.0117-1.763 0.7879-3.5071 1.6817-5.377 2.1523-2.4868 0.626-5.0776 0.77948-7.6387 0.85938-2.8789 0.09-5.7841 0.01501-8.6309-0.42969-2.0237-0.3157-4.0304-0.83273-5.9414-1.5781-1.3387-0.5222-2.5899-1.2605-3.8203-2.0078-1.7169-1.0429-3.4137-2.1466-4.9531-3.4434-1.2825-1.0804-2.4619-2.292-3.5352-3.5859-1.0022-1.2081-1.6617-2.2871-2.5469-3.5859-0.90723-1.3311-2.1975-3.0329-2.9727-4.4473-0.45122-0.82332-0.66335-1.5578-0.99024-2.4394-0.50386-1.3591-1.2734-4.1602-1.2734-4.1602 18.452-9e-3 47.191-0.52733 70.174-0.7168z"/>
</svg>
