<svg viewBox="0 0 20 20" width="20" height="20" xmlns="http://www.w3.org/2000/svg" >
    <rect x="3.5" y="1.5" width="13" height="17"
          fill="none" stroke="#000" stroke-width="0.6"/>
    <circle cx="7" cy="7" r="1.3" stroke-width="0.6"
            fill="none" stroke="#000"/>
    <circle cx="7" cy="11" r="1.3" stroke-width="0.6"
            fill="none" stroke="#000"/>
    <circle cx="7" cy="15" r="1.3" stroke-width="0.6"
            fill="none" stroke="#000"/>
    <line fill="none" stroke="#000" stroke-width="0.6"
          x1="6" x2="14" y1="3.5" y2="3.5"/>
    <polyline fill="none" stroke="#000" stroke-width="0.6"
        points="10 13 6.9 15.5 6 14 "/>
    <polyline fill="none" stroke="#000" stroke-width="0.6"
              points="10 5 6.9 7.5 6 6 "/>
    <line fill="none" stroke="#000" stroke-width="0.6"
          x1="6" x2="8" y1="10" y2="12"/>
    <line fill="none" stroke="#000" stroke-width="0.6"
          x1="8" x2="6" y1="10" y2="12"/>
    <line fill="none" stroke="#000" stroke-width="0.6"
          x1="8.5" x2="15" y1="6" y2="6"/>
    <line fill="none" stroke="#000" stroke-width="0.6"
          x1="8.9" x2="15" y1="7" y2="7"/>
    <line fill="none" stroke="#000" stroke-width="0.6"
          x1="8.5" x2="15" y1="10" y2="10"/>
    <line fill="none" stroke="#000" stroke-width="0.6"
          x1="8.9" x2="15" y1="11" y2="11"/>
    <line fill="none" stroke="#000" stroke-width="0.6"
          x1="8.5" x2="15" y1="14" y2="14"/>
    <line fill="none" stroke="#000" stroke-width="0.6"
          x1="8.9" x2="15" y1="15" y2="15"/>
</svg>
