<?xml version="1.0" encoding="UTF-8"?>
<!-- Created with Inkscape (http://www.inkscape.org/) -->
<svg width="200" height="200" version="1.1" viewBox="0 0 200 200" xmlns="http://www.w3.org/2000/svg" xmlns:cc="http://creativecommons.org/ns#" xmlns:dc="http://purl.org/dc/elements/1.1/" xmlns:rdf="http://www.w3.org/1999/02/22-rdf-syntax-ns#">
 <metadata>
  <rdf:RDF>
   <cc:Work rdf:about="">
    <dc:format>image/svg+xml</dc:format>
    <dc:type rdf:resource="http://purl.org/dc/dcmitype/StillImage"/>
    <dc:title/>
   </cc:Work>
  </rdf:RDF>
 </metadata>
 <g transform="translate(0 -244.08)">
  <rect x="13.38" y="246.67" width="156.97" height="194.43" fill="#fffffe" stroke="#000800" stroke-linecap="round" stroke-linejoin="round" stroke-width="3.0117"/>
  <rect x="46.733" y="256.61" width="84.6" height="7.0175"/>
  <path d="m100.03 325.79c-0.4773-0.0424-0.9641 0.0835-1.1456 0.4109-3.498 6.3112-7.9585 16.375-11.611 25.756-0.40336 1.0359-1.5441 1.7638-1.8432 2.8117-0.38796 1.3593-1.0827 2.9585-1.7203 3.9506-0.36936 0.57475-0.76333 0.77011-0.95396 1.0531-0.18043 0.57244-0.21434 1.1035-0.47964 1.6688-0.45408 0.9676-1.2031 1.9717-1.7599 2.9914-0.30194 0.35661-0.21101 1.0426 0.09247 1.3979 0.45547 0.5332 1.3822 0.67428 2.0519 0.46642 0.52518-0.16301 0.90151-0.70661 1.1191-1.2116 2.3807-5.5248 7.5524-15.292 7.5524-15.292 4.339-0.26738 8.5224-0.63855 12.121-1.3992 0 0 1.7264 7.2848 2.4245 10.817 0.16744 0.84723 0.6351 1.6937 1.3054 2.2382 0.61033 0.49581 1.5349 1.0969 2.2382 0.7452 0.43957-0.2198 0.60465-0.92631 0.46641-1.3979-1.8059-6.161-3.3238-13.532-4.8729-20.469-0.17254-0.77257-0.0492-1.4744-0.22461-2.2356-0.98647-4.2818-2.242-8.3723-3.6679-11.704-0.14726-0.34409-0.6154-0.55478-1.0927-0.59721zm-0.21272 6.7055c0.11358-0.0182 0.22369 5e-3 0.25236 0.0872 1.3022 3.8089 1.7466 7.3245 2.5051 11.011 0.26724 1.2989-0.41635 2.0536-1.4508 2.2422-2.6937 0.49099-8.1747 0.79144-8.1747 0.79144s0.3465-0.7944 0.52718-1.1878c1.9694-4.2883 3.8907-9.0367 6.066-12.791 0.0444-0.0767 0.1612-0.135 0.27482-0.15327z" fill="#00a36a" fill-opacity=".94118"/>
  <path d="m30.582 406.6c0.09786-1.5527 0.48537-3.2781 1.8517-4.2843 0.9647-0.7104 2.1458-1.3292 3.3403-1.5612 0.65019-0.12629 1.3138 0.16305 1.4523 0.65354 0.06781 0.24011 0.4517 0.36485 0.68985 0.29046 0.15062-0.0471 0.25415-0.24159 0.25415-0.39938 0-0.4734-0.40226-0.89098-0.76246-1.1982-0.37122-0.31657-0.85725-0.53977-1.3434-0.58092-1.0179-0.0862-2.0763 0.24463-2.9772 0.72615-1.2314 0.65814-2.3268 1.6603-3.0861 2.832-0.27059 0.41751-0.40291 0.92328-0.472 1.416-0.33086 2.3597-0.2268 4.805-0.25416 7.1889-0.0068 0.59001 0.40931 1.1248 0.76246 1.5975 0.48726 0.6522 1.1048 1.2364 1.8154 1.6338 0.87808 0.49111 2.1267 0.36862 3.1951-0.0726 1.0728-0.44304 1.9162-1.3468 2.6868-2.2148 0.77342-0.87113 1.5601-1.8231 1.888-2.9409 0.07155-0.24388 0.2035-0.6102 0-0.76246-0.17171-0.12848-0.4828 0.0144-0.61723 0.18153-0.47896 0.59541-0.79756 1.2015-1.2708 1.7428-0.62043 0.70967-1.2022 1.4518-2.0332 2.1058 0 0-1.1635 0.71155-1.8154 0.87137-0.35283 0.0865-0.74079 0.13909-1.0892 0.0364-0.50877-0.15007-0.93873-0.52599-1.3071-0.90769-0.76942-0.79733-0.969-1.9502-1.0529-3.0498-0.08389-1.0992 0.0798-2.2659 0.14523-3.304z" fill="#2e0239"/>
  <path d="m148.59 278.7c-1.6812 0.0279-3.3663 0.29569-4.9921 0.72449-0.77777 0.20513-1.5684 0.44695-2.2488 0.87588-0.23567 0.14855-0.5943 0.29361-0.60948 0.57178-0.0127 0.23388 0.24703 0.43056 0.45743 0.53346 0.2399 0.11733 0.53288 0.032 0.79986 0.0383 0.33017 8e-3 0.99089 0 0.99089 0s0.56829 5.1791 0.8005 7.7737c0.20895 2.3347 0.42548 5.0108 0.53345 7.0116 0.027 0.50166 0.12585 1.0929 0.38076 1.5243 0.20859 0.35302 0.95628 0.46654 1.1819 0.34308 1.2815-0.70111 1.5206-0.32399 2.5912-0.076 0.80436 0.18629 1.8965-0.62481 2.5912-1.2956 1.0509-1.0147 1.8723-2.4055 2.0955-3.8492 0.25259-1.6337 0.30408-3.8056-0.53346-4.9154-0.66095-0.87589-2.1495-1.7253-2.7816-1.6387-0.66788 0.0915-0.14352-0.35986 0-0.57179 0.64803-0.9569 1.6868-2.4849 2.0961-4.0012 0.21299-0.789 0.25401-1.592-0.30539-2.2098-0.75497-0.83384-1.9402-0.85721-3.048-0.83883zm-0.18973 1.4438c0.67512 0.0159 1.447 0.0806 1.447 0.0806 0.94163 0.1663 0.89786 0.93277 0.57179 1.677-0.72298 1.6503-1.951 3.5086-3.5061 5.0681-0.98677 0.98961-1.7069 1.1542-1.9051-0.72384 0 0-0.11394-1.4283-0.22872-2.1345-0.1484-0.91308-0.12687-1.7066-0.15268-2.6289-0.0198-0.70853 0.59573-0.94475 1.1052-0.9532 0.62492-0.0104 1.3513-0.34064 2.0578-0.38076 0.17131-0.01 0.38573-0.01 0.61077-5e-3zm1.2345 7.9284c0.78704 0.0199 1.6511 0.38263 1.9558 1.2319 0.22141 0.61724 0.28344 1.288 0.30474 1.9434 0.0227 0.70115 0.0212 1.4268-0.19104 2.0955-0.19968 0.62923-0.53722 1.2352-0.99023 1.7154-0.4796 0.50839-0.96011 1.1136-1.5627 1.5237-0.38184 0.25984-1.3797 0.0106-2.3625-0.076-0.91608-0.0807-1.0302-0.64514-1.1436-1.1813 0 0-0.14135-1.6759-0.19038-2.5152-0.0541-0.92648-0.0866-1.8298-0.11436-2.7816-0.0161-0.55165 0.5454-0.74825 0.95255-0.91486 0.98149-0.40163 1.9539-0.92311 3.011-1.0286 0.10744-0.0107 0.2183-0.0152 0.33073-0.0123z" fill="#b0c734"/>
  <g transform="matrix(.58093 -.62835 .62835 .58093 -264.82 321.49)">
   <circle cx="265.64" cy="331.94" r="33.22" fill="#00a8ec" fill-opacity=".3578" stroke="#000" stroke-width="5.4974"/>
   <path d="m255.45 355.64a24.25 24.25 0 0 1-14.425-16.574 24.25 24.25 0 0 1 4.885-21.422" fill="none" stroke="#fff" stroke-linecap="round" stroke-linejoin="round" stroke-opacity=".75688" stroke-width="3.2674"/>
   <g stroke="#000">
    <rect x="259.64" y="365.34" width="12.953" height="16.968" ry="0" fill="#f1c067" stroke-width="2.1701"/>
    <rect x="256.63" y="376.44" width="18.642" height="84.048" rx="0" ry="0" fill="#dd64a2" stroke-width="3"/>
    <path d="m275.28 461.63a9.3375 9.3375 0 0 1-4.6825 8.0944 9.3375 9.3375 0 0 1-9.3512-0.0239 9.3375 9.3375 0 0 1-4.6411-8.1183" fill="#dd64a2" stroke-width="3"/>
   </g>
  </g>
  <g>
   <rect x="27.977" y="285.41" width="29.24" height="7.0175"/>
   <rect x="61.216" y="285.41" width="54.191" height="7.0175"/>
   <rect x="119.41" y="285.41" width="20.663" height="7.0175"/>
   <rect x="27.197" y="308.41" width="59.649" height="7.0175"/>
   <rect x="93.033" y="307.63" width="59.649" height="7.0175"/>
   <rect x="26.807" y="331.02" width="40.156" height="7.0175"/>
   <rect x="130.96" y="331.02" width="21.442" height="7.0175"/>
   <rect x="26.807" y="354.04" width="38.207" height="7.0175"/>
   <rect x="131.01" y="354.04" width="23.392" height="7.0175"/>
   <rect x="26.901" y="378.2" width="22.612" height="7.0175"/>
   <rect x="53.513" y="378.2" width="36.257" height="7.0175"/>
   <rect x="93.77" y="378.2" width="24.172" height="7.0175"/>
   <rect x="42.511" y="402.37" width="44.834" height="7.0175"/>
   <rect x="91.345" y="402.37" width="44.834" height="7.0175"/>
  </g>
 </g>
</svg>
