<?xml version="1.0" encoding="UTF-8"?>
<svg width="208" height="219" version="1.1" viewBox="0 0 55.033 57.944" xmlns="http://www.w3.org/2000/svg">

    <g fill="none" stroke="black" stroke-width="1.7">
        <circle cx="28.569" cy="8.88" r="5.4639" />
        <path d="m20.675 18.25c-0.34596 1.249 0.18494 3.8838 0.18494 3.8838h15.165s0.55575-3.186 0-4.6235c-0.33047-0.85479-1.0542-1.5788-1.8494-2.0344-1.0386-0.595-2.3234-0.61581-3.5139-0.73977-1.5329-0.15961-3.1023-0.24687-4.6235 0-1.347 0.21859-2.7993 0.46628-3.8838 1.2946-0.70656 0.53967-1.2422 1.3625-1.4795 2.2193z"/>
        <circle cx="10.682" cy="42.13" r="5.4639" />
        <path d="m2.789 51.51c-0.34596 1.249 0.18494 3.8838 0.18494 3.8838h15.165s0.55575-3.186 0-4.6235c-0.33047-0.85479-1.0542-1.5788-1.8494-2.0344-1.0386-0.595-2.3234-0.61581-3.5139-0.73977-1.5329-0.15961-3.1023-0.24687-4.6235 0-1.347 0.21859-2.7993 0.46628-3.8838 1.2946-0.70656 0.53967-1.2422 1.3625-1.4795 2.2193z"/>
        <circle cx="46.54" cy="41.97" r="5.4639"/>
        <path d="m38.64 51.35c-0.34596 1.249 0.18494 3.8838 0.18494 3.8838h15.165s0.55575-3.186 0-4.6235c-0.33047-0.85479-1.0542-1.5788-1.8494-2.0344-1.0386-0.595-2.3234-0.61581-3.5139-0.73977-1.5329-0.15961-3.1023-0.24687-4.6235 0-1.347 0.21859-2.7993 0.46628-3.8838 1.2946-0.70656 0.53967-1.2422 1.3625-1.4795 2.2193z"/>
        <path d="m21.23 39.7 7.2127-4.9934 7.5826 5.1784" />
        <path d="m28.442 34.71v-8.8772" />
    </g>
</svg>
