<?xml version="1.0" encoding="UTF-8"?>
<svg width="208" height="219" version="1.1" viewBox="0 0 55.033 57.944" xmlns="http://www.w3.org/2000/svg">

    <g fill="none" stroke="black" stroke-width="1.7">
        <circle cx="28.076" cy="8.3147" r="6.869"/>
        <path d="m18.513 24.254s-0.65468-2.9477-0.2366-4.3535c0.3178-1.0686 1.0043-2.1346 1.9999-2.8108 1.2775-0.86757 3.0252-1.0697 4.6237-1.2764 2.3155-0.2994 4.7096-0.24692 7.0211 0.07509 1.4175 0.19746 2.9637 0.36867 4.1099 1.1262 1.0367 0.68522 1.8024 1.754 2.1406 2.8532 0.43496 1.4137-0.27468 4.3862-0.27468 4.3862"/>
        <circle cx="43.908" cy="40.237" r="6.869"/>
        <path d="m34.345 56.176s-0.65468-2.9477-0.2366-4.3535c0.3178-1.0686 1.0043-2.1346 1.9999-2.8108 1.2775-0.86757 3.0252-1.0697 4.6237-1.2764 2.3155-0.2994 4.7096-0.24692 7.0211 0.07509 1.4175 0.19747 2.9637 0.36867 4.1099 1.1262 1.0367 0.68522 1.8024 1.754 2.1406 2.8532 0.43496 1.4137-0.27468 4.3862-0.27468 4.3862"/>
        <circle cx="12.594" cy="40.151" r="6.869"/>
        <path d="m3.0308 56.09s-0.65468-2.9477-0.2366-4.3535c0.3178-1.0686 1.0043-2.1346 1.9999-2.8108 1.2775-0.86757 3.0252-1.0697 4.6237-1.2764 2.3155-0.2994 4.7096-0.24692 7.0211 0.07509 1.4175 0.19747 2.9637 0.36867 4.1099 1.1262 1.0367 0.68522 1.8024 1.754 2.1406 2.8532 0.43496 1.4137-0.27468 4.3862-0.27468 4.3862"/>
    </g>
</svg>
