<?xml version="1.0" encoding="UTF-8"?>
<svg width="200" height="200" version="1.1" viewBox="0 0 200 200" xmlns="http://www.w3.org/2000/svg" xmlns:cc="http://creativecommons.org/ns#" xmlns:dc="http://purl.org/dc/elements/1.1/" xmlns:rdf="http://www.w3.org/1999/02/22-rdf-syntax-ns#">
 <metadata>
  <rdf:RDF>
   <cc:Work rdf:about="">
    <dc:format>image/svg+xml</dc:format>
    <dc:type rdf:resource="http://purl.org/dc/dcmitype/StillImage"/>
    <dc:title/>
   </cc:Work>
  </rdf:RDF>
 </metadata>
 <rect x="24.825" y="5.7899" width="151.46" height="189.02" ry="0" fill="#fff" stroke="#000" stroke-linecap="square" stroke-width="3"/>
 <rect x="62.091" y="22.306" width="73.678" height="6.1591" fill="#999" stroke-width="1.6091" style="paint-order:fill markers stroke"/>
 <rect x="49.041" y="12.744" width="102.24" height="4.8962" stroke-width="2.3444" style="paint-order:fill markers stroke"/>
 <rect x="38.152" y="33.902" width="121.46" height="151.58" ry="0" fill="#fff" stroke="#000" stroke-linecap="square" stroke-width="2.4057"/>
 <path d="m50.619 38.152c0.39568 2e-6 1.187 0 1.187 0v11.622h2.0375l0.01772 3.384-8.8408 0.01772 0.01772-3.4194 2.1083 0.01772-0.01772-6.6793s-0.30325 0.10953-0.46064 0.14174c-0.22108 0.04523-0.44776 0.06218-0.67325 0.07104-0.22432 0.0088-0.44989 0.0046-0.67325-0.01789-0.10143-0.01024-0.30119-0.05315-0.30119-0.05315l0.03543-3.2777s0.51979 0.049 0.77955 0.03543c0.31612-0.01652 0.63164-0.06602 0.939-0.14174 0.31554-0.07773 0.62305-0.18981 0.92129-0.31891 0.36122-0.15636 0.72215-0.32452 1.0453-0.54923 0.25408-0.17667 0.48837-0.38615 0.69096-0.6201 0.05575-0.06439 0.14174-0.2126 0.14174-0.2126s0.69687 1.1e-5 1.0453 1.3e-5z" stroke="#000" stroke-width=".072636"/>
 <rect x="57.106" y="40.649" width="24.863" height="3.0305" stroke-width="1.0924" style="paint-order:fill markers stroke"/>
 <rect x="57.588" y="46.574" width="25.122" height="3.1197" fill="#999" stroke-width="1.0455" style="paint-order:fill markers stroke"/>
 <g>
  <path d="m46.631 81.338c0.60114 0.01693 1.8033 0.0541 1.8033 0.0541s0.0019-0.39932 0.03606-0.5951c0.04411-0.25298 0.08942-0.51616 0.2164-0.73936 0.11777-0.20702 0.29043-0.38832 0.4869-0.52296 0.16021-0.1098 0.35028-0.17967 0.541-0.2164 0.2302-0.04433 0.47223-0.03958 0.70329 0 0.21362 0.03659 0.43244 0.09671 0.61313 0.2164 0.15608 0.10339 0.2797 0.25586 0.3787 0.41476 0.09562 0.15348 0.16472 0.32726 0.19836 0.50493 0.04026 0.21262 0.03817 0.43619 0 0.64919-0.03054 0.17036-0.10376 0.33168-0.18033 0.4869-0.08486 0.172-0.18586 0.33785-0.30656 0.4869-0.18994 0.23455-0.42333 0.43097-0.64919 0.63116-0.47983 0.4253-0.99074 0.81443-1.4968 1.2082-0.42694 0.33226-0.88111 0.62948-1.2984 0.97379-0.40046 0.33043-0.7918 0.67407-1.1541 1.0459-0.27664 0.28392-0.54173 0.58146-0.77543 0.90166-0.23703 0.32477-0.45153 0.66818-0.63116 1.0279-0.20497 0.41044-0.37972 0.839-0.50493 1.2804-0.11167 0.39362-0.17283 0.8014-0.2164 1.2082-0.05316 0.4964-0.0541 1.4968-0.0541 1.4968h11.938l0.12623-4.6886h-3.1017l-0.03607 1.2804h-4.7788s0.308-0.4463 0.4869-0.64919c0.1715-0.1945 0.35543-0.3804 0.55903-0.541 0.30768-0.24269 0.6537-0.43307 0.99182-0.63116 0.47106-0.27598 0.96269-0.51525 1.4427-0.77542 0.4517-0.24486 0.91037-0.4776 1.3525-0.73936 0.37449-0.22172 0.75086-0.4435 1.1-0.70329 0.27357-0.20356 0.54199-0.41867 0.77543-0.66723 0.19094-0.20331 0.3597-0.4291 0.50493-0.66723 0.17359-0.28462 0.32521-0.58611 0.4328-0.90166 0.09321-0.27339 0.15553-0.55978 0.18033-0.84756 0.02737-0.31764 0.01277-0.64071-0.03606-0.95576-0.0449-0.28967-0.12313-0.57638-0.23443-0.84756-0.11239-0.27384-0.26112-0.53429-0.4328-0.77543-0.17284-0.24278-0.37011-0.47179-0.59509-0.66723-0.31088-0.27005-0.66248-0.49541-1.0279-0.68526-0.48637-0.25269-1.0022-0.45794-1.5328-0.59509-0.51688-0.13359-1.0538-0.18893-1.5869-0.2164-0.55258-0.02846-1.1097-0.01184-1.659 0.0541-0.52439 0.06294-1.0488 0.16052-1.5509 0.3246-0.40146 0.13121-0.79587 0.29926-1.1541 0.52296-0.34404 0.21483-0.67407 0.46721-0.93772 0.77542-0.26805 0.31335-0.47211 0.6835-0.63116 1.064-0.14621 0.34975-0.22446 0.7264-0.28853 1.1-0.04893 0.28537-0.07213 0.86559-0.07213 0.86559s1.3706 0.03481 2.0558 0.05411z" stroke="#000800" stroke-width=".11483"/>
  <path d="m46.037 130.98c0.72583-0.0509 2.1779-0.1463 2.1779-0.1463s0.1701 0.72793 0.23841 1.0953c0.10606 0.57035 0.52657 1.0054 1.0364 1.1997 0.6008 0.22892 1.323 0.15719 1.8976-0.12139 0.64472-0.31256 0.8351-1.0409 0.7774-1.6592-0.07486-0.80227-0.6948-1.3622-1.3709-1.467-0.34574-0.0536-1.1162-0.1434-1.1162-0.1434l-0.0419-2.645s0.89225-0.12248 1.2752-0.33883c0.41606-0.23508 0.78806-0.57806 0.84423-1.0072 0.0659-0.50347-0.06835-1.1116-0.43891-1.4587-0.3568-0.33427-0.94941-0.42466-1.4291-0.33019-0.37852 0.0746-0.7251 0.35145-0.94465 0.66868-0.21328 0.30817-0.28466 1.0877-0.28466 1.0877l-4.2279-0.25001c-0.20203-0.46481 0.39269-2.6507 1.4648-3.3374 0.95241-0.61004 2.1338-1.2631 3.5951-1.321 1.3679-0.0542 2.8819-0.10972 4.2012 0.3764 0.89749 0.33069 1.7196 0.81337 2.3408 1.6595 0.44388 0.60455 0.78412 1.3568 0.79003 2.1068 0.0067 0.84923-0.32817 1.7347-0.85687 2.3994-0.3296 0.41433-1.3373 0.85687-1.3373 0.85687s1.1217 0.44446 1.5505 0.84855c0.93456 0.88079 1.3386 2.3467 1.1036 3.5698-0.26234 1.3651-1.3811 2.615-2.6208 3.2439-2.0578 1.044-4.7065 1.0003-6.9145 0.33018-1.1926-0.36192-2.3307-1.1827-3.0055-2.2238-0.51099-0.7883-0.59352-2.8552-0.59352-2.8552s1.2596-0.0938 1.8896-0.13797z" stroke="#000" stroke-width=".078065"/>
  <path d="m51.13 159.91-7.3397 7.578 0.8661 3.2521 2.6548 0.0306 3.9685-0.0306v1.969h-1.8804l-0.02902 3.1635 8.2043 0.029-0.02902-3.162h-1.5825l-0.02903-1.969h1.6405v-2.8045h-1.581l-0.03054-8.0271zm0.1497 3.7882v4.2679l-4.2663 0.029 2.0881-2.0881z" stroke="#000" stroke-width=".078209"/>
 </g>
 <rect x="61.078" y="80.179" width="24.863" height="3.0305" stroke-width="1.0924" style="paint-order:fill markers stroke"/>
 <rect x="61.078" y="123.46" width="24.863" height="3.0305" stroke-width="1.0924" style="paint-order:fill markers stroke"/>
 <rect x="61.561" y="129.39" width="25.122" height="3.1197" fill="#999" stroke-width="1.0455" style="paint-order:fill markers stroke"/>
 <rect x="61.078" y="163.39" width="24.863" height="3.0305" stroke-width="1.0924" style="paint-order:fill markers stroke"/>
 <g stroke-width=".98185">
  <rect x="98.78" y="40.617" width="14.091" height="3.0305" style="paint-order:fill markers stroke"/>
  <rect x="114.8" y="40.527" width="35.168" height="3.1197" fill="#999" style="paint-order:fill markers stroke"/>
  <rect x="98.088" y="47.321" width="35.168" height="3.1197" fill="#999" style="paint-order:fill markers stroke"/>
  <rect x="135.52" y="47.231" width="14.091" height="3.0305" style="paint-order:fill markers stroke"/>
 </g>
 <rect x="98.395" y="55.305" width="51.567" height="3.0305" stroke-width="1.3099" style="paint-order:fill markers stroke"/>
 <g stroke-width=".98185">
  <rect x="98.26" y="79.619" width="14.091" height="3.0305" style="paint-order:fill markers stroke"/>
  <rect x="114.28" y="79.529" width="35.168" height="3.1197" fill="#999" style="paint-order:fill markers stroke"/>
  <rect x="97.567" y="86.323" width="35.168" height="3.1197" fill="#999" style="paint-order:fill markers stroke"/>
  <rect x="135" y="86.233" width="14.091" height="3.0305" style="paint-order:fill markers stroke"/>
 </g>
 <rect x="97.874" y="94.307" width="51.567" height="3.0305" stroke-width="1.3099" style="paint-order:fill markers stroke"/>
 <g stroke-width=".98185">
  <rect x="98.26" y="122.16" width="14.091" height="3.0305" style="paint-order:fill markers stroke"/>
  <rect x="114.28" y="122.07" width="35.168" height="3.1197" fill="#999" style="paint-order:fill markers stroke"/>
  <rect x="97.567" y="128.86" width="35.168" height="3.1197" fill="#999" style="paint-order:fill markers stroke"/>
  <rect x="135" y="128.77" width="14.091" height="3.0305" style="paint-order:fill markers stroke"/>
 </g>
 <rect x="97.874" y="136.84" width="51.567" height="3.0305" stroke-width="1.3099" style="paint-order:fill markers stroke"/>
 <g stroke-width=".98185">
  <rect x="97.886" y="163.2" width="14.091" height="3.0305" style="paint-order:fill markers stroke"/>
  <rect x="113.91" y="163.11" width="35.168" height="3.1197" fill="#999" style="paint-order:fill markers stroke"/>
  <rect x="97.194" y="169.9" width="35.168" height="3.1197" fill="#999" style="paint-order:fill markers stroke"/>
  <rect x="134.63" y="169.82" width="14.091" height="3.0305" style="paint-order:fill markers stroke"/>
 </g>
 <rect x="97.501" y="177.89" width="51.567" height="3.0305" stroke-width="1.3099" style="paint-order:fill markers stroke"/>
 <g fill="none" stroke="#000" stroke-width="1px">
  <path d="m92 35.075v150"/>
  <path d="m38.567 68h120.9"/>
  <path d="m38.806 109.6h120.9"/>
  <path d="m39.179 150.37h120.9"/>
 </g>
</svg>
