<?xml version="1.0" encoding="UTF-8"?>
<svg width="239" height="197" version="1.1" viewBox="0 0 63.235 52.123" xmlns="http://www.w3.org/2000/svg">

  <g fill="none" stroke-linecap="round" stroke-width="1.3229">
   <circle cx="45.47" cy="18.551" r="16.517" stroke="#f00"/>
   <path d="m39.2 7.003a13.139 13.139 0 0 1 17.104 4.1158 13.139 13.139 0 0 1-2.3196 17.438 13.139 13.139 0 0 1-17.585-0.49845 13.139 13.139 0 0 1-1.3281-17.542" stroke="#f00"/>
   <path d="m55.21 17.057a9.8545 9.8545 0 0 1-6.241 10.706" stroke="#fa0000"/>
  <path d="m8.69 49.959c6.8755-4.5722 13.802-9.655 20.181-14.064 0.8623-0.59608 0.99565-1.9634 0.9155-3.0086-0.07308-0.95292-0.51803-1.9611-1.2432-2.5836-0.83921-0.72054-2.0684-1.0194-3.1734-0.96979-0.77936 0.03498-1.5356 0.42489-2.168 0.88177-6.7693 4.8907-12.869 9.0941-19.898 13.793-0.99201 0.66311-1.3367 2.1437-1.2974 3.3363 0.03361 1.0221 0.54582 2.0867 1.2974 2.7802 0.68123 0.62856 1.6793 0.98425 2.6061 0.96979 1.0008-0.01562 1.9468-0.58032 2.7802-1.1346z" fill="#f00"/>
  <path d="m28.813 30.62 3.211-2.228" fill="none" stroke="#f00" stroke-width="1.3229"/>
  </g>

</svg>
