<?xml version="1.0" encoding="UTF-8"?>
<svg width="420" height="280" version="1.1" viewBox="0 0 420 280" xmlns="http://www.w3.org/2000/svg">
 <g transform="translate(0 -772.36)">
  <g transform="matrix(.69313 0 0 .69313 345.3 732.73)">
   <path d="m-200.32 74.073c-119.17 0.50727-261.26 97.211-280.2 176.02-18.456 76.78 171.71 204.01 295.95 190.79 101.44-10.796 272.2-87.746 273.67-180.79 1.4366-90.811-157.05-183.22-283.76-185.97-1.8795-0.04088-3.7646-0.05883-5.6562-0.05078zm-1.9648 46.939a133.35 133.35 0 0 1 133.35 133.35 133.35 133.35 0 0 1-133.35 133.35 133.35 133.35 0 0 1-133.35-133.35 133.35 133.35 0 0 1 133.35-133.35z"/>
   <path d="m-201.29 153.58a101.92 101.92 0 0 0-49.906 13.195 41.921 41.921 0 0 1 1.4766-0.0527 41.921 41.921 0 0 1 41.922 41.922 41.921 41.921 0 0 1-41.922 41.92 41.921 41.921 0 0 1-41.92-41.92 41.921 41.921 0 0 1 8e-3 -0.15234 101.92 101.92 0 0 0-11.58 47.008 101.92 101.92 0 0 0 101.92 101.92 101.92 101.92 0 0 0 101.92-101.92 101.92 101.92 0 0 0-101.92-101.92z"/>
  </g>
 </g>
</svg>
