<svg viewBox="0 0 273 213" xmlns="http://www.w3.org/2000/svg">
  <g fill="#F74322">
    <rect rx="5" ry="5" width="30" height="30"/>
    <rect x="0" y="45" rx="5" ry="5" width="30" height="30"/>
    <rect x="0" y="90" rx="5" ry="5" width="30" height="30"/>
    <rect x="0" y="135" rx="5" ry="5" width="30" height="30"/>
    <rect x="0" y="180" rx="5" ry="5" width="30" height="30"/>
    <rect x="40" y="10" rx="5" ry="5" width="190" height="190"/>
    <rect x="240" y="0" rx="5" ry="5" width="30" height="30"/>
    <rect x="240" y="45" rx="5" ry="5" width="30" height="30"/>
    <rect x="240" y="90" rx="5" ry="5" width="30" height="30"/>
    <rect x="240" y="135" rx="5" ry="5" width="30" height="30"/>
    <rect x="240" y="180" rx="5" ry="5" width="30" height="30"/>
 </g>
</svg>
