<?xml version="1.0" encoding="UTF-8"?>
<svg width="188" height="292" version="1.1" viewBox="0 0 49.742 77.258" xmlns="http://www.w3.org/2000/svg" >

  <g stroke="red" fill="red">
   <circle cx="24" cy="70" r="5.1503"/>
   <path d="m 23 56
            s-2.3583-8.343-0.34335-11.674
            c2.5699-4.2483 9.2542-3.7775 13.391-6.5237 3.0408-2.0188 6.7799-3.8655 8.2405-7.2104 1.6036-3.6726 0.99806-8.2411-0.34336-12.017-1.4482-4.0769-4.3629-7.8051-7.8971-10.301-3.341-2.3591-7.585-3.8643-11.674-3.7769-4.2722 0.0913-8.6908 1.7814-12.017 4.4636-2.6446 2.1323-4.428 5.3582-5.4936 8.5838-1.0437 3.159-0.6867 9.9572-0.6867 9.9572
            v0"
            fill="none"
            stroke-linecap="round"
            stroke-width="9"/>
  </g>
</svg>
