<?xml version="1.0" encoding="UTF-8" standalone="no"?>
<!-- Created with Inkscape (http://www.inkscape.org/) -->

<svg
   xmlns:dc="http://purl.org/dc/elements/1.1/"
   xmlns:cc="http://creativecommons.org/ns#"
   xmlns:rdf="http://www.w3.org/1999/02/22-rdf-syntax-ns#"
   xmlns:svg="http://www.w3.org/2000/svg"
   xmlns="http://www.w3.org/2000/svg"
   xmlns:sodipodi="http://sodipodi.sourceforge.net/DTD/sodipodi-0.dtd"
   xmlns:inkscape="http://www.inkscape.org/namespaces/inkscape"
   width="200"
   height="135"
   version="1.1"
   viewBox="0 0 199.99999 135"
   id="svg102"
   sodipodi:docname="reading.svg"
   inkscape:version="0.92.4 (5da689c313, 2019-01-14)">
  <defs
     id="defs106" />
  <sodipodi:namedview
     pagecolor="#ffffff"
     bordercolor="#666666"
     borderopacity="1"
     objecttolerance="10"
     gridtolerance="10"
     guidetolerance="10"
     inkscape:pageopacity="0"
     inkscape:pageshadow="2"
     inkscape:window-width="3840"
     inkscape:window-height="2066"
     id="namedview104"
     showgrid="false"
     fit-margin-top="0"
     fit-margin-left="0"
     fit-margin-right="0"
     fit-margin-bottom="0"
     inkscape:zoom="13.651852"
     inkscape:cx="100"
     inkscape:cy="67.5"
     inkscape:window-x="-11"
     inkscape:window-y="-11"
     inkscape:window-maximized="1"
     inkscape:current-layer="svg102" />
  <metadata
     id="metadata2">
    <rdf:RDF>
      <cc:Work
         rdf:about="">
        <dc:format>image/svg+xml</dc:format>
        <dc:type
           rdf:resource="http://purl.org/dc/dcmitype/StillImage" />
        <dc:title></dc:title>
      </cc:Work>
    </rdf:RDF>
  </metadata>
  <g
     transform="translate(0.20259972,-280.50178)"
     id="g100">
    <rect
       x="1.6509"
       y="291.48999"
       width="196.92999"
       height="112.03"
       style="fill:#0079b9;paint-order:fill markers stroke"
       id="rect4" />
    <path
       d="m 11.099,282.94 c 0.6229,-0.61917 54.063,0.33616 78.021,-0.1129 5.6088,-0.10514 11.081,4.8929 11.1,10.816 0.11924,36.518 -0.1746,106.19 -0.1746,106.19 0,0 -1.7354,-9.8041 -9.3918,-9.865 -24.874,-0.19786 -79.598,-0.50813 -79.598,-0.50813 z"
       id="path6"
       inkscape:connector-curvature="0"
       style="fill:#ffffff;stroke:#000000;stroke-width:0.87313998px" />
    <path
       d="m 188.99,282.94 c -0.62289,-0.61917 -54.063,0.33616 -78.021,-0.1129 -5.6088,-0.10514 -11.118,4.8929 -11.1,10.816 0.11661,37.698 0.1746,106.19 0.1746,106.19 0,0 1.7354,-9.8041 9.3918,-9.865 24.874,-0.19786 79.598,-0.50813 79.598,-0.50813 z"
       id="path8"
       inkscape:connector-curvature="0"
       style="fill:#ffffff;stroke:#000000;stroke-width:0.87313998px" />
    <path
       transform="scale(-1)"
       d="m -113.2,-400.96 a 13.09,12.854 0 0 1 6.4589,-11.381 13.09,12.854 0 0 1 13.268,0.008 13.09,12.854 0 0 1 6.4452,11.388 l -13.086,-0.31146 z"
       style="fill:#0079b9;paint-order:fill markers stroke"
       id="path10"
       inkscape:connector-curvature="0" />
    <rect
       x="21.226"
       y="291.72"
       width="19.575001"
       height="28.066"
       style="fill:#e8330c;paint-order:fill markers stroke"
       id="rect12" />
    <rect
       x="46.462002"
       y="291.72"
       width="12.028"
       height="5.4245"
       style="paint-order:fill markers stroke"
       id="rect14" />
    <rect
       x="46.226002"
       y="302.57999"
       width="26.179001"
       height="5.4245"
       style="fill:#808080;paint-order:fill markers stroke"
       id="rect16" />
    <rect
       x="46.330002"
       y="314.37"
       width="18.632"
       height="5.4245"
       style="paint-order:fill markers stroke"
       id="rect18" />
    <rect
       x="60.491001"
       y="291.72"
       width="29.952999"
       height="5.4245"
       style="fill:#808080;paint-order:fill markers stroke"
       id="rect20" />
    <rect
       x="73.697998"
       y="302.57999"
       width="16.509001"
       height="5.4245"
       style="paint-order:fill markers stroke"
       id="rect22" />
    <rect
       x="66.961998"
       y="314.37"
       width="23.349001"
       height="5.4245"
       style="fill:#808080;paint-order:fill markers stroke"
       id="rect24" />
    <rect
       x="19.636999"
       y="328.64001"
       width="12.028"
       height="5.4245"
       style="fill:#999999;paint-order:fill markers stroke"
       id="rect26" />
    <rect
       x="19.400999"
       y="339.48999"
       width="21.462"
       height="5.4245"
       style="paint-order:fill markers stroke"
       id="rect28" />
    <rect
       x="19.504999"
       y="351.28"
       width="18.632"
       height="5.4245"
       style="fill:#999999;paint-order:fill markers stroke"
       id="rect30" />
    <rect
       x="33.665001"
       y="328.64001"
       width="21.226"
       height="5.4245"
       style="paint-order:fill markers stroke"
       id="rect32" />
    <rect
       x="43.108002"
       y="339.48999"
       width="24.868"
       height="5.4245"
       style="fill:#808080;paint-order:fill markers stroke"
       id="rect34" />
    <rect
       x="40.051998"
       y="351.28"
       width="9.434"
       height="5.4245"
       style="paint-order:fill markers stroke"
       id="rect36" />
    <rect
       x="18.995001"
       y="364.01001"
       width="26.179001"
       height="5.4245"
       style="paint-order:fill markers stroke"
       id="rect38" />
    <rect
       x="19.099001"
       y="375.79999"
       width="11.792"
       height="5.4245"
       style="fill:#808080;paint-order:fill markers stroke"
       id="rect40" />
    <rect
       x="46.466999"
       y="364.01001"
       width="16.509001"
       height="5.4245"
       style="fill:#808080;paint-order:fill markers stroke"
       id="rect42" />
    <rect
       x="32.891998"
       y="375.79999"
       width="34.783001"
       height="5.4245"
       style="paint-order:fill markers stroke"
       id="rect44" />
    <rect
       x="110.41"
       y="292.54999"
       width="12.028"
       height="5.4245"
       style="paint-order:fill markers stroke"
       id="rect46" />
    <rect
       x="110.17"
       y="303.41"
       width="18.396"
       height="5.4245"
       style="fill:#999999;paint-order:fill markers stroke"
       id="rect48" />
    <rect
       x="110.27"
       y="315.19"
       width="9.9056997"
       height="5.4245"
       style="paint-order:fill markers stroke"
       id="rect50" />
    <rect
       x="124.43"
       y="292.54999"
       width="29.952999"
       height="5.4245"
       style="fill:#808080;paint-order:fill markers stroke"
       id="rect52" />
    <rect
       x="130.7"
       y="303.41"
       width="28.066"
       height="5.4245"
       style="paint-order:fill markers stroke"
       id="rect54" />
    <rect
       x="122.18"
       y="315.19"
       width="23.349001"
       height="5.4245"
       style="fill:#808080;paint-order:fill markers stroke"
       id="rect56" />
    <rect
       x="109.76"
       y="327.92999"
       width="31.472"
       height="5.4245"
       style="fill:#808080;paint-order:fill markers stroke"
       id="rect58" />
    <rect
       x="109.87"
       y="339.72"
       width="18.632"
       height="5.4245"
       style="paint-order:fill markers stroke"
       id="rect60" />
    <rect
       x="143.24001"
       y="327.92999"
       width="16.509001"
       height="5.4245"
       style="paint-order:fill markers stroke"
       id="rect62" />
    <rect
       x="130.5"
       y="339.72"
       width="11.792"
       height="5.4245"
       style="fill:#808080;paint-order:fill markers stroke"
       id="rect64" />
    <rect
       x="110.35"
       y="351.75"
       width="30.066"
       height="5.4245"
       style="fill:#999999;paint-order:fill markers stroke"
       id="rect66" />
    <rect
       x="144.42"
       y="351.75"
       width="13.906"
       height="5.4245"
       style="paint-order:fill markers stroke"
       id="rect68" />
    <rect
       x="110.53"
       y="364.48999"
       width="46.226002"
       height="5.4245"
       style="paint-order:fill markers stroke"
       id="rect70" />
    <rect
       x="109.93"
       y="376.28"
       width="18.632"
       height="5.4245"
       style="fill:#808080;paint-order:fill markers stroke"
       id="rect72" />
    <rect
       x="157.82001"
       y="364.48999"
       width="23.349001"
       height="5.4245"
       style="fill:#808080;paint-order:fill markers stroke"
       id="rect74" />
    <rect
       x="130.57001"
       y="376.28"
       width="50.472"
       height="5.4245"
       style="paint-order:fill markers stroke"
       id="rect76" />
    <rect
       x="56.891998"
       y="328.64001"
       width="33.255001"
       height="5.4245"
       style="fill:#999999;paint-order:fill markers stroke"
       id="rect78" />
    <rect
       x="71.975998"
       y="339.48999"
       width="18.632"
       height="5.4245"
       style="paint-order:fill markers stroke"
       id="rect80" />
    <rect
       x="51.486"
       y="351.28"
       width="38.755001"
       height="5.4245"
       style="fill:#808080;paint-order:fill markers stroke"
       id="rect82" />
    <rect
       x="64.975998"
       y="364.01001"
       width="25.236"
       height="5.4245"
       style="paint-order:fill markers stroke"
       id="rect84" />
    <rect
       x="69.675003"
       y="375.79999"
       width="20.028"
       height="5.4245"
       style="fill:#808080;paint-order:fill markers stroke"
       id="rect86" />
    <rect
       x="156.41"
       y="292.54999"
       width="23.349001"
       height="5.4245"
       style="paint-order:fill markers stroke"
       id="rect88" />
    <rect
       x="160.75999"
       y="303.41"
       width="18.632"
       height="5.4245"
       style="fill:#808080;paint-order:fill markers stroke"
       id="rect90" />
    <rect
       x="147.53"
       y="315.19"
       width="32.547001"
       height="5.4245"
       style="paint-order:fill markers stroke"
       id="rect92" />
    <rect
       x="161.84"
       y="327.92999"
       width="18.868"
       height="5.4245"
       style="fill:#808080;paint-order:fill markers stroke"
       id="rect94" />
    <rect
       x="143.66"
       y="339.72"
       width="36.556999"
       height="5.4245"
       style="paint-order:fill markers stroke"
       id="rect96" />
    <rect
       x="161.16"
       y="351.75"
       width="19.688999"
       height="5.4245"
       style="fill:#808080;paint-order:fill markers stroke"
       id="rect98" />
  </g>
</svg>
