<?xml version="1.0" encoding="UTF-8"?>

<svg width="330" height="590" version="1.1" viewBox="0 0 330 590" xmlns="http://www.w3.org/2000/svg">

 <g transform="translate(-66.07 -41.008)">
  <g transform="translate(837.67 27.266)">
   <g transform="translate(-845.24 -59.076)">
    <g>
     <path d="m245.01 428.75c7.2051-0.0212 14.41-0.48313 21.586-1.1361 6.8452-0.6229 13.789-0.95099 20.449-2.6509 2.3622-0.60292 5.0776-0.94206 6.8165-2.6508 2.1401-2.1031 2.7594-5.4018 3.4082-8.3312 1.1477-5.1822 0.91309-10.6 0.75738-15.905-0.27932-9.5169-1.9421-18.943-3.0295-28.402-1.0605-9.2239-2.3705-18.418-3.4082-27.645-0.83674-7.4391-2.2722-22.343-2.2722-22.343s5.1605 3.7872 6.8165 6.4378c3.3635 5.3837 4.254 11.992 5.6804 18.177 0.94667 4.1054 1.0872 8.3616 1.8935 12.497 1.1425 5.86 2.715 11.628 4.1656 17.42 1.3317 5.3163 3.3571 10.485 4.1656 15.905 0.46593 3.1237 1.0718 6.386 0.37869 9.4673-0.65675 2.9196-2.8517 5.264-4.1656 7.9526-1.3394 2.7407-2.6988 5.4814-3.7869 8.3312-0.75483 1.9768-1.8597 3.9434-1.8935 6.0591-0.0377 2.3579 0.67012 4.8004 1.8935 6.8165 1.3436 2.2143 3.511 3.8868 5.6804 5.3017 1.6105 1.0503 3.6111 1.3564 5.3017 2.2722 0.80038 0.43356 1.535 0.98071 2.2722 1.5148 1.82 1.3186 3.3155 3.1138 5.3017 4.1656 2.5754 1.3638 5.4293 2.3836 8.3312 2.6508 3.0402 0.28003 6.2507-0.0101 9.0886-1.1361 3.7784-1.4992 7.1716-4.1339 9.846-7.1952 2.2669-2.5947 3.804-5.83 4.923-9.0886 0.99753-2.9048 1.4693-6.0176 1.5148-9.0886 0.0415-2.8025-0.46401-5.6102-1.1361-8.3312-0.70858-2.8688-1.4967-5.8049-3.0295-8.3312-1.0659-1.7568-3.2768-2.6916-4.1656-4.5443-2.1544-4.4909-1.3995-9.8652-2.2722-14.769-2.0081-11.285-4.3236-22.516-6.8165-33.704-2.2041-9.8913-4.1064-19.886-7.1952-29.538-2.0719-6.4743-4.4396-12.903-7.5739-18.935-3.1963-6.1515-7.2204-11.86-11.361-17.42-1.2839-1.7241-4.1656-4.923-4.1656-4.923l-132.92 1.1361s-9.0959 8.3908-12.876 13.254c-3.9987 5.1454-7.3506 10.814-10.225 16.662-2.9779 6.0597-5.3275 12.446-7.1952 18.935-1.6024 5.5669-1.7076 11.504-3.4082 17.041-0.76396 2.4877-2.2369 4.7165-3.0295 7.1952-2.2854 7.1465-3.6134 14.576-4.923 21.964-1.3556 7.6468-0.2477 15.85-3.0295 23.1-0.87795 2.2883-2.9005 3.9599-4.1656 6.0591-1.5447 2.563-3.3877 5.0629-4.1656 7.9526-0.75546 2.8062-0.65477 5.817-0.37869 8.71 0.25888 2.7126 0.99298 5.3807 1.8935 7.9526 0.78374 2.2384 1.7202 4.4603 3.0295 6.4378 1.7768 2.6833 3.8802 5.2417 6.4378 7.1952 2.2432 1.7133 4.8268 3.1384 7.5739 3.7869 3.4399 0.81205 7.2444 1.0996 10.603 0 4.463-1.461 7.3202-5.9383 11.361-8.3312 1.7979-1.0648 3.8883-1.5764 5.6804-2.6508 2.1653-1.2981 4.6197-2.4702 6.0591-4.5443 1.2753-1.8377 1.8995-4.201 1.8935-6.4378-7e-3 -2.6358-1.2594-5.1404-2.2722-7.5739-1.9317-4.6412-5.6156-8.4818-7.1952-13.254-0.84137-2.5422-1.2949-5.2795-1.1361-7.9526 0.58121-9.7809 5.0821-18.926 7.5739-28.402 0.89542-3.4052 2.351-6.7166 2.6508-10.225 0.2589-3.029-1.9219-6.2805-0.75739-9.0886 2.5085-6.0493 5.6473-12.308 7.9526-18.177 0.98104-2.498 6.0591-5.3017 6.0591-5.3017s-0.61592 7.087-1.1361 10.603c-0.69557 4.7022-1.8785 9.3214-2.6509 14.012-1.1806 7.1691-2.2175 14.365-3.0295 21.586-0.83532 7.4275-1.6554 14.872-1.8935 22.343-0.19303 6.0573 0.11394 12.123 0.37869 18.177 0.0829 1.8959-0.0845 3.8401 0.3787 5.6804 0.37232 1.4791 1.0247 2.912 1.8935 4.1656 1.4236 2.0542 3.0566 4.2036 5.3017 5.3017 4.5711 2.2356 10.078 1.4588 15.148 1.8935 13.472 1.155 26.999 1.9333 40.52 1.8935z" fill="#fff" stroke="#020000" stroke-width="3"/>
     <path d="m313.18 357.56c4.3593-0.4441 8.7763-1.1028 12.876-2.6509 2.8562-1.0787 5.3554-2.9392 7.9526-4.5443 1.5486-0.95711 4.5443-3.0295 4.5443-3.0295s2.3712 10.33 3.4082 15.526c2.234 11.194 3.7252 23.26 6.0591 33.704 0.58915 2.6364 3.6328 4.0644 4.923 6.4378 1.7925 3.2974 3.0586 6.9216 3.7869 10.603 0.51502 2.6034 0.78995 5.3308 0.37869 7.9526-0.5014 3.1965-1.9158 6.2178-3.4082 9.0886-1.3404 2.5784-2.8761 5.1323-4.923 7.1952-2.4911 2.5105-5.3201 5.0505-8.7099 6.0591-4.1154 1.2245-8.7848 0.92584-12.876-0.37869-3.9026-1.2445-6.6577-4.8028-10.225-6.8165-2.0653-1.1659-4.5321-1.6178-6.4378-3.0296-2.8725-2.128-5.9828-4.5896-7.1952-7.9526-0.98554-2.7338-0.30624-5.8858 0.37869-8.71 0.85195-3.5129 2.9785-6.5881 4.5443-9.846 1.345-2.7984 3.5899-5.2802 4.1656-8.3313 0.77555-4.1103-0.3374-8.391-1.1361-12.497-1.0828-5.5662-3.5932-10.771-4.923-16.284-0.99292-4.1158-2.2722-12.497-2.2722-12.497s6.0747 0.30704 9.0886 0z" fill="#00a9ec" stroke="#000200" stroke-width="2.9"/>
     <path d="m165.71 357.08c-3.7379-0.051-7.6383-0.60088-10.982-2.2722-2.5599-1.2795-4.5267-3.5502-6.4378-5.6804-1.7541-1.9552-4.5443-6.4378-4.5443-6.4378s-4.4073 13.789-6.0591 20.828c-2.6077 11.113-3.7252 23.26-6.0591 33.704-0.58915 2.6364-3.6328 4.0644-4.923 6.4378-1.7925 3.2974-3.0586 6.9216-3.7869 10.603-0.51502 2.6034-0.78995 5.3308-0.37869 7.9526 0.5014 3.1965 1.9158 6.2178 3.4082 9.0886 1.3404 2.5784 2.8761 5.1323 4.923 7.1952 2.4911 2.5105 5.3201 5.0505 8.7099 6.0591 4.1154 1.2245 8.7848 0.92584 12.876-0.37869 3.9026-1.2445 6.6577-4.8028 10.225-6.8165 2.0653-1.1659 4.5321-1.6178 6.4378-3.0296 2.8725-2.128 5.9828-4.5896 7.1952-7.9526 0.98554-2.7338 0.30624-5.8858-0.37869-8.71-0.85195-3.5129-2.9785-6.5881-4.5443-9.846-1.345-2.7984-3.5899-5.2802-4.1656-8.3313-0.77555-4.1103 0.35035-8.3885 1.1361-12.497 1.0879-5.6884 3.3185-11.224 4.923-16.662 1.9509-6.6131 3.0296-15.148 3.0296-15.148s-7.0134 1.9425-10.603 1.8935z" fill="#00a9ec" stroke="#000200" stroke-width="2.9"/>
    </g>
    <path d="m151.86 399.97s2.6244 3.6161 3.4082 5.6804c0.72943 1.9211 0.82415 4.028 1.1361 6.0591 0.48248 3.1416 0.54088 6.3451 1.1361 9.4673 0.46442 2.4362 0.9774 4.8905 1.8935 7.1952 1.1685 2.9396 4.5443 8.3313 4.5443 8.3313" fill="none" stroke="#000500" stroke-linecap="round" stroke-width="2.9"/>
    <path d="m327.95 397.89s-2.6244 3.6161-3.4082 5.6804c-0.72943 1.9211-0.82415 4.028-1.1361 6.0591-0.48248 3.1416-0.54088 6.3451-1.1361 9.4673-0.46442 2.4362-0.9774 4.8905-1.8935 7.1952-1.1685 2.9396-4.5443 8.3313-4.5443 8.3313" fill="none" stroke="#000700" stroke-linecap="round" stroke-width="2.9"/>
   </g>
   <g transform="translate(-274.93 107.93)">
    <g transform="translate(-565.04 -169.22)">
     <path d="m171.64 197.62c0.27415-1.8968 1.3086-3.7468 2.6778-5.0878 0.99815-0.97757 2.4153-1.4578 3.7489-1.8744 1.2049-0.37638 2.5727-0.9939 3.7489-0.53556 1.182 0.46062 2.41 2.9456 2.41 2.9456s-3.5728-4.9859-4.82-7.7655c-1.029-2.2933-1.6322-4.7687-2.1422-7.23-0.60209-2.9054-0.97019-5.8712-1.0711-8.8366-0.11553-3.3946-0.12135-6.8431 0.53555-10.176 0.36579-1.8556 1.8383-3.4645 1.8744-5.3555 0.0232-1.2138-0.7835-2.3016-1.0711-3.4811-0.23642-0.96954-0.81234-1.9868-0.53555-2.9455 0.40301-1.396 1.816-2.2993 2.9455-3.2133 1.3686-1.1074 2.968-1.91 4.5522-2.6778 1.5513-0.75185 3.1443-1.4697 4.82-1.8744 2.5296-0.61096 5.1662-0.67906 7.7655-0.80333 32.002-1.5299 65.285-1.1893 96.113 0.7249 2.8424 0.1765 5.637 2.4958 7.6087 4.7415 1.6558 1.8859 2.502 4.4193 3.1214 6.8513 0.61845 2.4281 0.44623 4.9937 0.53555 7.4978 0.105 2.9437 0.24295 5.9011 0 8.8366-0.31347 3.7876-0.77707 7.6079-1.8744 11.247-1.0729 3.5575-4.5522 10.176-4.5522 10.176l-1.6067 1.8744s2.9112-1.8662 4.5522-1.8744c1.442-7e-3 2.8538 0.75386 4.0166 1.6067 1.023 0.75025 1.7349 1.8715 2.41 2.9455 0.7863 1.2509 1.6061 2.5637 1.8744 4.0166 0.6827 3.6959-0.0303 7.5686-0.80332 11.247-0.27294 1.2986-0.7275 2.5712-1.3389 3.7489-0.85578 1.6485-1.8592 3.2809-3.2133 4.5522-0.99329 0.93259-2.2253 1.6138-3.4811 2.1422-1.0176 0.42823-2.1129 0.71409-3.2133 0.80333-1.0713 0.0869-2.4175 0.45461-3.2133-0.26778-1.4779-1.3414-1.0711-5.8911-1.0711-5.8911s-0.48536 5.8068-1.3389 8.5688c-0.61296 1.9836-1.5537 3.8778-2.6778 5.6233-1.2005 1.864-2.8026 3.4386-4.2844 5.0878-1.9831 2.207-6.1589 6.4266-6.1589 6.4266l-3.4811 3.7489-72.835-0.80333s-4.7446-5.2696-6.9622-8.0333c-2.1563-2.6873-4.5842-5.2365-6.1589-8.3011-1.1998-2.335-2.0034-4.9042-2.41-7.4977-0.11059-0.70546 0-2.1422 0-2.1422s-0.0725 3.6046-1.3389 4.5522c-0.64321 0.48127-1.6127 0.0982-2.41 0-1.0958-0.1349-2.2139-0.3342-3.2133-0.80333-1.503-0.70549-2.9077-1.7099-4.0166-2.9456-1.3089-1.4584-2.3796-3.2116-2.9456-5.0878-1.2655-4.1952-0.23846-8.7757-0.80333-13.121-0.0587-0.45133-0.33288-0.88843-0.26777-1.3389z" fill="#c08b61" stroke="#000" stroke-width=".9"/>
     <g fill="none" stroke="#000" stroke-width=".5">
      <path d="m297.23 208.33s1.0017-3.4153 1.6067-5.0878c0.72173-1.9951 0.93876-4.3624 2.41-5.8911 0.74788-0.7771 2.9456-1.3389 2.9456-1.3389"/>
      <path d="m299.37 201.64s1.7366 1.8013 2.1422 2.9455c0.56745 1.6007 0.26778 5.0878 0.26778 5.0878"/>
     </g>
     <g transform="matrix(-1 0 0 1 479.23 1.0477)" fill="none" stroke="#000" stroke-width=".5">
      <path d="m297.23 208.33s1.0017-3.4153 1.6067-5.0878c0.72173-1.9951 0.93876-4.3624 2.41-5.8911 0.74788-0.7771 2.9456-1.3389 2.9456-1.3389"/>
      <path d="m299.37 201.64s1.7366 1.8013 2.1422 2.9455c0.56745 1.6007 0.26778 5.0878 0.26778 5.0878"/>
     </g>
     <g fill="#371b05" stroke="#000">
      <path d="m180.07 144.17c2.063-1.436 4.2658-2.7361 6.6271-3.5976 2.3606-0.86122 4.8846-1.261 7.3845-1.5148 2.5745-0.26133 7.7632 0 7.7632 0s-3.333 1.6785-4.923 2.6508c-1.8969 1.16-3.8409 2.2968-5.4911 3.7869-1.6614 1.5003-3.1528 3.224-4.355 5.1124-1.714 2.6923-3.008 5.6688-3.9763 8.71-0.81869 2.5713-1.2892 5.2635-1.5148 7.9526-0.25332 3.0196-0.0195 6.0656 0.18934 9.0886 0.22336 3.2334 0.64814 6.4525 1.1361 9.6567 0.36024 2.3656 1.3214 7.056 1.3214 7.056s-3.2198-4.4044-4.351-6.8666c-0.99187-2.1589-1.5749-4.4955-2.0828-6.8165-0.50375-2.302-0.73755-4.6586-0.94673-7.0058-0.25797-2.8946-0.52919-5.8078-0.37869-8.7099 0.0892-1.7204 0.28172-3.4566 0.75738-5.1124 0.30435-1.0594 0.97911-1.9831 1.3254-3.0296 0.26457-0.79943 0.68567-1.6277 0.56804-2.4615-0.0908-0.64344-0.70437-1.1012-0.94673-1.7041-0.4625-1.1506-1.1141-2.3689-0.94674-3.5976 0.11834-0.86881 0.76728-1.5959 1.3254-2.2722 0.42708-0.51744 0.96411-0.94212 1.5148-1.3254z" stroke-width=".6"/>
      <path d="m297.84 142.27c1.5876 1.0864 3.3084 2.1728 4.355 3.7869 0.82553 1.2732 0.98538 2.8762 1.3254 4.355 0.54414 2.3664 0.94615 4.7745 1.1361 7.1952 0.19254 2.454 0.13612 4.9268 0 7.3845-0.12643 2.2826-0.45047 4.551-0.75739 6.8165-0.21453 1.5835-0.35226 3.1879-0.75739 4.7337-0.78473 2.9941-1.8332 5.9422-3.2189 8.71-0.96039 1.9183-3.4964 5.4034-3.4964 5.4034s-0.18489-4.7396-0.10119-7.1075c0.10517-2.9753 0.63104-5.9248 0.75739-8.8993 0.14732-3.4682 0.19197-6.948 0-10.414-0.15803-2.8533-0.13737-5.7799-0.94673-8.5206-0.63954-2.1656-1.7578-4.1932-3.0296-6.0591-1.4346-2.105-3.2559-3.9361-5.1124-5.6804-1.7025-1.5996-5.491-4.355-5.491-4.355s3.6627-0.29542 5.491-0.18935c2.103 0.12201 4.2471 0.28922 6.2484 0.94673 1.2874 0.42297 2.4792 1.1282 3.5976 1.8935z" stroke-width=".6"/>
      <path d="m274.6 161.87s-1.7235-0.55829-2.5439-0.93722c-0.74378-0.34354-1.387-0.88739-2.1422-1.205-1.0285-0.43253-2.1063-0.79784-3.2133-0.93721-1.3291-0.16733-2.6772 0.11156-4.0166 0.13388-1.7403 0.029-3.5394 0.44674-5.2216 0-0.34776-0.0924-0.83295-0.19117-0.93722-0.53555-0.11568-0.38205 0.22301-0.8228 0.53556-1.0711 0.89841-0.71374 2.2048-0.69632 3.3472-0.80333 1.824-0.17086 3.683-0.0375 5.4894 0.26778 1.5596 0.26353 3.1721 0.5663 4.5522 1.3389 1.6268 0.91064 4.1505 3.7489 4.1505 3.7489z" stroke-width=".2"/>
      <path d="m203.27 162.26s1.7235-0.55829 2.5439-0.93722c0.74378-0.34354 1.387-0.88739 2.1422-1.205 1.0285-0.43253 2.1063-0.79784 3.2133-0.93721 1.3291-0.16733 2.6772 0.11156 4.0166 0.13388 1.7403 0.029 3.5394 0.44674 5.2216 0 0.34776-0.0924 0.83295-0.19117 0.93722-0.53555 0.11568-0.38205-0.22301-0.8228-0.53556-1.0711-0.89841-0.71374-2.2048-0.69632-3.3472-0.80333-1.824-0.17086-3.683-0.0375-5.4894 0.26778-1.5596 0.26353-3.1721 0.5663-4.5522 1.3389-1.6268 0.91064-4.1505 3.7489-4.1505 3.7489z" stroke-width=".2"/>
     </g>
     <g transform="translate(26.51 -14.728)">
      <path d="m229.63 188.52c-0.2321-0.33828-0.29585-0.43075-0.26778-0.66944 0.0542-0.46116 0.4818-0.80305 0.80334-1.1381 0.50685-0.52809 1.1243-0.94383 1.7405-1.3389 0.40335-0.25858 0.8353-0.47222 1.2719-0.66944 0.45701-0.20641 0.92821-0.38278 1.4058-0.53555 0.5052-0.1616 1.0175-0.30889 1.5397-0.40166 0.68428-0.12157 1.3807-0.1775 2.0753-0.20079 0.7586-0.0254 1.5262-0.0503 2.2761 0.0669 1.1932 0.18658 2.3772 0.5144 3.4811 1.0042 1.0076 0.44702 1.9891 1.0068 2.8116 1.7406 0.8062 0.71918 1.4135 1.642 2.0083 2.5439 0.64323 0.97526 1.2026 2.0103 1.6736 3.0794 0.55191 1.2529 0.95608 2.5683 1.3389 3.8828 0.29511 1.0133 0.58146 2.0355 0.73638 3.0794 0.16407 1.1056 0.17694 2.2297 0.20079 3.3472 0.0276 1.2942-0.0112 2.5895-0.0669 3.8828-0.0279 0.64806-0.0194 1.3029-0.13388 1.9414-0.0698 0.38921-0.0181 0.90116-0.33473 1.138-0.17867 0.13369-0.46216 0.0826-0.66944 0-9.3399-3.7235-16.202-12.462-21.891-20.753z" stroke="#000" stroke-width="1px"/>
      <g transform="translate(-1.2033 12.781)">
       <path d="m252.77 187.72c0.17679 4.756-0.38186 9.1128-0.38186 9.1128s-7.6237 5.98-10.974 5.6509c-6.7878-0.66689-12.134-4.2644-12.134-4.2644s-1.6425-6.3143-1.1144-10.878c1.1476-9.919 2.1552-15.987 13.249-15.142 7.0973 0.54063 11.125 9.3309 11.355 15.521z" fill="#fff"/>
       <g transform="translate(-1.9288 -1.3255)">
        <path d="m250.76 188.66c1.5198 10.303-3.2684 15.248-8.0196 15.215-5.822-0.0407-9.1385-5.556-8.0196-15.215 0.93834-8.1001 3.538-15.215 8.0196-15.215 4.4291 0 6.7933 6.9018 8.0196 15.215z" fill="#371b05" stroke="#090000" stroke-linecap="round" stroke-linejoin="round" stroke-width=".44466"/>
        <path d="m246.64 188.06c0.75892 5.1446-1.6321 7.614-4.0046 7.5974-2.9072-0.0204-4.5633-2.7744-4.0046-7.5974 0.46855-4.0447 1.7667-7.5974 4.0046-7.5974 2.2116 0 3.3922 3.4464 4.0046 7.5974z"/>
        <ellipse cx="246.62" cy="178.63" rx="2.1775" ry="2.2722" fill="#fff"/>
        <ellipse cx="237.78" cy="199.27" rx="3.0465" ry="3.179" fill="#fff"/>
       </g>
      </g>
     </g>
     <g transform="matrix(-1 0 0 1 451.59 -15.606)">
      <path d="m229.63 188.52c-0.2321-0.33828-0.29585-0.43075-0.26778-0.66944 0.0542-0.46116 0.4818-0.80305 0.80334-1.1381 0.50685-0.52809 1.1243-0.94383 1.7405-1.3389 0.40335-0.25858 0.8353-0.47222 1.2719-0.66944 0.45701-0.20641 0.92821-0.38278 1.4058-0.53555 0.5052-0.1616 1.0175-0.30889 1.5397-0.40166 0.68428-0.12157 1.3807-0.1775 2.0753-0.20079 0.7586-0.0254 1.5262-0.0503 2.2761 0.0669 1.1932 0.18658 2.3772 0.5144 3.4811 1.0042 1.0076 0.44702 1.9891 1.0068 2.8116 1.7406 0.8062 0.71918 1.4135 1.642 2.0083 2.5439 0.64323 0.97526 1.2026 2.0103 1.6736 3.0794 0.55191 1.2529 0.95608 2.5683 1.3389 3.8828 0.29511 1.0133 0.58146 2.0355 0.73638 3.0794 0.16407 1.1056 0.17694 2.2297 0.20079 3.3472 0.0276 1.2942-0.0112 2.5895-0.0669 3.8828-0.0279 0.64806-0.0194 1.3029-0.13388 1.9414-0.0698 0.38921-0.0181 0.90116-0.33473 1.138-0.17867 0.13369-0.46216 0.0826-0.66944 0-9.3399-3.7235-16.202-12.462-21.891-20.753z" stroke="#000" stroke-width="1px"/>
      <g transform="translate(-1.2033 12.781)">
       <path d="m252.77 187.72c0.17679 4.756-0.38186 9.1128-0.38186 9.1128s-7.6237 5.98-10.974 5.6509c-6.7878-0.66689-12.134-4.2644-12.134-4.2644s-1.6425-6.3143-1.1144-10.878c1.1476-9.919 2.1552-15.987 13.249-15.142 7.0973 0.54063 11.125 9.3309 11.355 15.521z" fill="#fff"/>
       <g transform="translate(-1.9288 -1.3255)">
        <path d="m250.76 188.66c1.5198 10.303-3.2684 15.248-8.0196 15.215-5.822-0.0407-9.1385-5.556-8.0196-15.215 0.93834-8.1001 3.538-15.215 8.0196-15.215 4.4291 0 6.7933 6.9018 8.0196 15.215z" fill="#371b05" stroke="#090000" stroke-linecap="round" stroke-linejoin="round" stroke-width=".44466"/>
        <path d="m246.64 188.06c0.75892 5.1446-1.6321 7.614-4.0046 7.5974-2.9072-0.0204-4.5633-2.7744-4.0046-7.5974 0.46855-4.0447 1.7667-7.5974 4.0046-7.5974 2.2116 0 3.3922 3.4464 4.0046 7.5974z"/>
        <ellipse cx="246.62" cy="178.63" rx="2.1775" ry="2.2722" fill="#fff"/>
        <ellipse cx="237.78" cy="199.27" rx="3.0465" ry="3.179" fill="#fff"/>
       </g>
      </g>
     </g>
     <g stroke="#000" stroke-linecap="round">
      <path d="m260.92 215.64c0.38866 4.4175-8.5762 23.067-22.438 23.574-14.527 0.53072-20.417-17.557-19.597-22.248 4.0031 0.37869 9.1385 0.85206 21.112 0.85206 11.974 0 18.272-2.1623 20.923-2.1775z" fill="#a05a2c" stroke-linejoin="round" stroke-width=".6"/>
      <path d="m215.67 218.01s2.3688-0.30037 3.2189-1.0414c0.76604-0.66777 1.3254-2.7455 1.3254-2.7455" fill="none"/>
      <path d="m264.33 216.69s-2.3688-0.30037-3.2189-1.0414c-0.76604-0.66777-1.3254-2.7455-1.3254-2.7455" fill="none"/>
     </g>
     <g stroke="#000" stroke-linecap="round" stroke-linejoin="round" stroke-width=".6">
      <path d="m252.56 217.73c-1e-5 1.0645-3.5232 4.0511-3.5232 4.0511s-6.8774 0.93968-10.556 0.93968c-3.6788 0-13.207-0.18229-13.207-0.18229-0.98942-1.4429-2.381-3.2527-2.3872-5.1872 0 0 2.6745 0.14937 5.464 0.25649 2.5079 0.0963 6.262 0.1964 9.9408 0.1964 3.6788 0 8.284-0.32148 10.793-0.38574 4.47-0.11449 3.4759-0.75291 3.4759 0.31158z" fill="#fff"/>
      <path d="m255.59 226.74c-0.71405 3.1352-4.8853 7.9259-10.242 10.109-2.239 0.91222-7.3334-2.3982-9.64-3.7489 1e-5 -1.368 4.0216-5.7686 9.2383-6.3597 5.317-0.6025 10.644-1.368 10.644-1e-5z" fill="#faa"/>
      <path d="m248.41 235.03c-1.7515 2.0017-5.4793 3.7813-10.698 4.355-5.4906-0.75349-8.5679-2.3532-9.7513-4.355 0-1.1349 0.95085-3.664 0.95085-3.664s5.6732 1.4366 8.2325 2.0545c5.8785 1.4194 12.432-0.95273 11.266 1.6094z" fill="#fff"/>
     </g>
    </g>
    <rect x="-393.4" y="-31.562" width="138.47" height="104.92" ry="18.177" fill="#ccc" fill-opacity=".343" stroke="#000" stroke-linecap="round" stroke-linejoin="round" stroke-width="5.3518"/>
    <path d="m-326.43-83.619a107.93 107.55 0 0 0-107.93 107.55 107.93 107.55 0 0 0 107.93 107.55 107.93 107.55 0 0 0 107.93-107.55 107.93 107.55 0 0 0-107.93-107.55zm-49.053 52.545h102.11c10.07 0 18.178 8.1075 18.178 18.178v68.57c0 10.07-8.1075 18.178-18.178 18.178h-102.11c-10.07 0-18.178-8.1075-18.178-18.178v-68.57c0-10.07 8.1075-18.178 18.178-18.178z" fill="#00a9ec" stroke="#000" stroke-linecap="round" stroke-linejoin="round" stroke-width="5.9277"/>
   </g>
  </g>
  <path d="m232.52 393.91c5.4279 0 10.862 0.26512 16.284 0 6.4609-0.31596 12.887-1.1543 19.313-1.8935 6.7042-0.77114 20.071-2.6508 20.071-2.6508s0.58476 10.114 1.1361 15.148c1.347 12.298 5.3017 36.733 5.3017 36.733s-3.5525 5.9275-4.923 9.0886c-1.9054 4.3949-3.4925 8.9597-4.5443 13.633-2.0663 9.1803-2.9435 18.625-3.4082 28.023-0.28059 5.6749 0.37869 17.041 0.37869 17.041s-9.0212-0.47954-13.254-1.8935c-5.4657-1.8257-10.168-5.4318-15.148-8.3312-1.6652-0.9695-4.923-3.0296-4.923-3.0296s0.0537-5.3342-0.3787-7.9526c-2.0113-12.181-6.6434-23.783-10.225-35.597-1.8066-5.9599-5.6804-17.799-5.6804-17.799s-5.4139 10.445-7.5739 15.905c-2.2907 5.7911-3.8839 11.836-5.6804 17.799-2.5359 8.4173-7.1952 25.372-7.1952 25.372s-3.614 3.2755-5.6804 4.5443c-5.1991 3.1925-10.756 6.0454-16.663 7.5739-3.0649 0.79315-9.4673 0.75739-9.4673 0.75739s0.6943-7.566 0.75739-11.361c0.063-3.7885-0.11067-7.5812-0.3787-11.361-0.41316-5.8262-0.94292-11.657-1.8935-17.42-0.75759-4.5931-1.4307-9.261-3.0295-13.633-2.0556-5.6209-8.3313-15.905-8.3313-15.905s2.8806-12.348 4.1656-18.556c1.5106-7.2972 2.5102-14.698 4.1656-21.964 0.43533-1.9107 1.5148-5.6804 1.5148-5.6804s5.8138 0.1395 8.71 0.37869c5.1961 0.42914 10.333 1.433 15.526 1.8935 6.8003 0.60289 13.625 0.94666 20.449 1.1361 3.5331 0.0981 7.0689 0 10.603 0z" fill="#00a9ec" stroke="#000" stroke-width="3"/>
  <g transform="matrix(-1 0 0 1 -65.247 3.0112)">
   <g transform="translate(-86.076 6.4562)" fill="#fff" stroke="#000700">
    <g stroke-width="2">
     <path d="m-157.16 453.75c0.91057-4.1329 2.3013-8.1555 3.7869-12.118 1.2103-3.2283 2.0646-6.7337 4.1656-9.4673 1.9702-2.5634 4.6708-4.636 7.5739-6.0591 3.3814-1.6576 7.2242-2.406 10.982-2.6508 3.5472-0.23109 7.1467 0.30716 10.603 1.1361 2.7585 0.66149 5.628 1.4037 7.9526 3.0296 2.0532 1.4361 3.4524 3.6518 4.923 5.6804 0.86401 1.1919 2.2722 3.7869 2.2722 3.7869s-2.3165 3.761-3.4082 5.6804c-0.92151 1.62-1.9423 3.1992-2.6508 4.923-0.8504 2.0689-1.1925 4.3136-1.8935 6.4378-1.264 3.8303-2.9396 7.5182-4.1656 11.361-1.3124 4.1135-2.5927 8.2568-3.4082 12.497-0.83992 4.3668-1.061 8.8306-1.5148 13.254-0.56913 5.548-1.4846 11.086-1.5148 16.663-0.0171 3.1658 0.57028 6.307 0.75739 9.4673 0.19412 3.2787-0.20963 6.6147 0.37869 9.846 0.35751 1.9636 0.86495 3.9699 1.8935 5.6804 1.8864 3.1372 5.0908 5.2628 7.5739 7.9526 2.183 2.3647 3.5403 5.7946 6.4378 7.1952 7.6281 3.6873 17.08-0.22083 25.372 1.5148 2.5018 0.52359 5.1591 1.1057 7.1952 2.6508 4.4654 3.3886 7.0136 8.7956 9.846 13.633 2.8823 4.9224 5.457 10.094 7.1952 15.526 1.2524 3.9143 2.2722 12.118 2.2722 12.118s-7.5646 5.7367-11.739 7.9526c-3.6026 1.9122-7.48 3.2894-11.361 4.5443-3.4665 1.1209-6.9875 2.2057-10.603 2.6508-5.1367 0.63236-10.427 0.88331-15.526 0-1.849-0.32028-3.4374-1.6799-5.3017-1.8935-3.2823-0.37606-6.5675 0.7284-9.846 1.1361-3.7912 0.47144-7.6799 2.5378-11.361 1.5148-1.5575-0.43289-3.7869-3.0296-3.7869-3.0296s-2.2706 2.4691-3.7869 3.0296c-7.1081 2.6272-15.253 2.0382-22.722 0.75739-3.0728-0.52694-8.71-3.4082-8.71-3.4082l-3.4082-3.0296-7.1952 4.1656s-15.327-1.4565-26.509-1.8935c-1.697-0.0663-3.4542-1.7429-3.7869-3.4082-1.1177-5.5944-1.0521-11.542 0.3787-17.041 0.61144-2.3499 3.4082-6.4378 3.4082-6.4378l7.5739-0.75738s-1.757-3.4301-1.8935-5.3017c-0.28096-3.8517 1.1573-7.6633 2.2722-11.361 0.86621-2.8727 1.9748-5.6953 3.4082-8.3313 1.6896-3.107 4.9606-5.3481 6.0591-8.7099 1.6471-5.041 0.3787-15.905 0.3787-15.905s-4.7341 6.0302-7.9526 7.9526c-1.1314 0.6758-2.4695 1.1701-3.7869 1.1361-1.8759-0.0484-3.8339-0.72426-5.3017-1.8935-4.218-3.3599-6.0144-8.9624-8.71-13.633-1.919-3.3251-4.7029-6.4325-5.3017-10.225-0.35926-2.2753 0.34019-4.6548 1.1361-6.8165 1.5259-4.1443 4.3606-7.6903 6.8165-11.361 3.0605-4.5743 5.8306-9.4903 9.846-13.254 1.8648-1.748 6.4378-4.1656 6.4378-4.1656l3.0295 5.6804-2.6508 2.2722s12.185 6.2398 18.556 8.71c3.5737 1.3857 7.2122 2.7157 10.982 3.4082 1.9903 0.36561 6.0591 0.37869 6.0591 0.37869s-0.42913-9.0872-0.3787-13.633c0.0561-5.0552 0.30103-10.113 0.75739-15.148 0.43674-4.8184 0.8525-9.6655 1.8935-14.39z" fill="#fff"/>
     <path d="m-180.64 513.2c2.054-2.6992 4.6071-5.0028 7.1952-7.1952 1.6571-1.4038 3.3182-2.9024 5.3017-3.7869 1.0629-0.47397 2.2495-0.8656 3.4082-0.75739 1.9144 0.17877 5.3017 2.2722 5.3017 2.2722v-6.8165s-5.3656-0.12601-7.9526-0.75738c-6.8772-1.6785-13.211-5.1041-19.692-7.9526-2.6879-1.1814-7.9526-3.7869-7.9526-3.7869l2.6508-2.2722-3.0295-5.6804s-5.1047 2.9044-7.1952 4.923c-2.1431 2.0694-3.5913 4.7559-5.3017 7.1952-2.613 3.7265-5.324 7.4044-7.5739 11.361-1.5909 2.7976-3.5586 5.5494-4.1656 8.71-0.35796 1.8636-0.1958 3.8718 0.37869 5.6804 0.80613 2.5379 2.7962 4.5327 4.1656 6.8165 2.5606 4.2705 4.2778 9.1433 7.5739 12.876 1.3705 1.5518 2.9629 3.1203 4.923 3.7869 1.5536 0.52842 3.444 0.71087 4.923 0 5.0995-2.451 7.4314-8.5691 10.603-13.254 2.4402-3.6043 3.802-7.8969 6.4378-11.361z" fill="#fe0000"/>
     <path d="m-159.81 485.56c0.0657-5.8117 0.28457-11.627 0.75739-17.42 0.25856-3.1679 0.62429-6.3304 1.1361-9.4673 0.60193-3.6894 1.2273-7.3929 2.2722-10.982 1.0943-3.7592 2.4728-7.4518 4.1656-10.982 1.0765-2.2449 2.1109-4.5968 3.7869-6.4378 1.8868-2.0726 4.2684-3.7556 6.8165-4.923 2.4773-1.135 5.2408-1.6259 7.9526-1.8935 3.3941-0.33493 6.862-0.19079 10.225 0.37869 3.3856 0.57336 6.9042 1.2583 9.846 3.0296 2.2941 1.3812 4.1147 3.5081 5.6804 5.6804 0.99025 1.3739 2.2722 4.5443 2.2722 4.5443s-4.9391 7.8809-6.8165 12.118c-1.9404 4.3795-3.0725 9.0746-4.5443 13.633-1.3004 4.0273-2.8942 7.9814-3.7869 12.118-1.5292 7.0861-2.0076 14.365-2.6508 21.586-0.40384 4.5334-0.89003 9.0836-0.75739 13.633 0.12959 4.445 1.5148 13.254 1.5148 13.254s-3.7638-5.4044-6.4378-7.1952c-1.8908-1.2663-4.2341-1.7043-6.4378-2.2722-2.2306-0.57485-4.5941-0.53019-6.8165-1.1361-1.6963-0.46246-3.3311-1.1472-4.923-1.8935-4.4516-2.087-12.876-7.1952-12.876-7.1952s-0.44724-12.117-0.3787-18.177z" fill="#40107d"/>
     <path d="m-177.61 583.26c3.9252 0.96193 7.7765 2.2376 11.74 3.0296 4.3764 0.87451 8.795 1.712 13.254 1.8935 4.1698 0.16973 8.329-0.54427 12.497-0.75738 3.0282-0.15484 6.0842 0.0307 9.0886-0.3787 3.853-0.52506 7.7147-1.299 11.361-2.6508 3.0705-1.1384 5.8387-2.9696 8.71-4.5443 4.2145-2.3114 8.0702-5.3218 12.497-7.1952 4.2315-1.7908 8.7216-3.0333 13.254-3.7869 4.8627-0.80855 9.8396-0.74839 14.769-0.75739 2.6539-5e-3 7.9526 0.3787 7.9526 0.3787s3.3166 6.1892 4.5443 9.4673c1.3319 3.5562 2.3641 7.2434 3.0295 10.982 0.26638 1.4965 0.37869 4.5443 0.37869 4.5443s-7.0236 5.7713-10.982 7.9526c-4.1676 2.2964-8.6814 3.9859-13.254 5.3017-4.0688 1.1708-8.2801 1.8919-12.497 2.2722-3.8974 0.35142-7.9206 0.85367-11.739 0-2.3146-0.51739-4.085-2.7305-6.4378-3.0296-4.7155-0.59938-9.2932 2.076-14.012 2.6508-2.259 0.27522-4.628 1.0024-6.8165 0.3787-1.4818-0.42229-3.7869-2.6509-3.7869-2.6509s-2.7356 3.0018-4.5443 3.7869c-2.8006 1.2157-6.0414 0.94637-9.0886 1.1361-2.5197 0.15687-5.0604 0.23724-7.5739 0-2.6866-0.25359-5.3961-0.65073-7.9526-1.5148-2.1392-0.72303-4.1892-1.7636-6.0591-3.0295-1.2587-0.85217-3.4082-3.0296-3.4082-3.0296l-7.1952 4.1656-26.887-1.5148s-3.0821-2.4264-3.7869-4.1656c-1.4705-3.6286-1.057-7.8835-0.37869-11.74 0.70663-4.017 4.5443-11.361 4.5443-11.361s5.0419-0.9202 7.5739-0.75738c7.242 0.4657 14.158 3.1957 21.207 4.923z" fill="#fe0000"/>
     <path d="m-107.17 605.98c-0.55614-2.026 2.5744-3.3734 3.4082-5.3017 0.61975-1.4331-0.28247-3.8919 1.1361-4.5443 1.2822-0.58972 3.7869 1.8935 3.7869 1.8935l20.828-6.0591 0.75739-4.923 3.7869 3.7869s5.0398-0.631 7.5739-0.75739c2.8997-0.14463 6.1019-1.2756 8.7099 0 1.2929 0.63234 2.6509 3.4082 2.6509 3.4082s-5.9821 5.528-9.4673 7.5739c-3.1738 1.863-6.7418 2.9769-10.225 4.1656-4.4636 1.5234-8.9827 2.9998-13.633 3.7869-3.8663 0.65447-7.8961 1.5349-11.739 0.75738-2.7666-0.55969-6.8267-1.065-7.5739-3.7869z" fill="#2c3326"/>
    </g>
    <path d="m-83.721 607.61 7.3396-18.223v0" fill="#fff" stroke-linecap="round" stroke-width="3.1367"/>
   </g>
   <g stroke="#000" stroke-width="1px">
    <path d="m-195.03 554.1-9.846 3.7869-9.0886 4.923-9.846 6.4378 15.905-7.9526 12.876-3.4082 7.5739-0.75739z"/>
    <path d="m-235.55 515.85c29.159 35.218 28.781 35.597 28.781 35.597l-19.313-31.81z"/>
    <path d="m-240.47 525.7 1.8935 7.1952 15.526 26.509 6.4378 0.37869-7.9526 3.0296-17.42-31.053z"/>
   </g>
   <g fill="none" stroke="#000" stroke-linecap="round" stroke-width="1.5">
    <path d="m-231.76 536.3s3.6605-2.516 5.6804-3.4082c1.2055-0.53249 2.5162-0.78682 3.7869-1.1361 2.0074-0.55172 3.9897-1.7419 6.0591-1.5148 0.84173 0.0924 2.2722 1.1361 2.2722 1.1361"/>
    <path d="m-227.01 544.31s3.6605-2.516 5.6804-3.4082c1.2055-0.53249 2.5162-0.78682 3.7869-1.1361 2.0074-0.55172 3.9897-1.7419 6.0591-1.5148 0.84173 0.0924 2.2722 1.1361 2.2722 1.1361"/>
    <path d="m-221.33 553.02s3.6605-2.516 5.6804-3.4082c1.2055-0.53249 2.5162-0.78682 3.7869-1.1361 2.0074-0.55172 3.9897-1.7419 6.0591-1.5148 0.84173 0.0924 2.2722 1.1361 2.2722 1.1361"/>
   </g>
  </g>
  <g transform="translate(527.63 5.662)">
   <g transform="translate(-86.076 6.4562)" fill="#fff" stroke="#000700">
    <g stroke-width="2">
     <path d="m-157.16 453.75c0.91057-4.1329 2.3013-8.1555 3.7869-12.118 1.2103-3.2283 2.0646-6.7337 4.1656-9.4673 1.9702-2.5634 4.6708-4.636 7.5739-6.0591 3.3814-1.6576 7.2242-2.406 10.982-2.6508 3.5472-0.23109 7.1467 0.30716 10.603 1.1361 2.7585 0.66149 5.628 1.4037 7.9526 3.0296 2.0532 1.4361 3.4524 3.6518 4.923 5.6804 0.86401 1.1919 2.2722 3.7869 2.2722 3.7869s-2.3165 3.761-3.4082 5.6804c-0.92151 1.62-1.9423 3.1992-2.6508 4.923-0.8504 2.0689-1.1925 4.3136-1.8935 6.4378-1.264 3.8303-2.9396 7.5182-4.1656 11.361-1.3124 4.1135-2.5927 8.2568-3.4082 12.497-0.83992 4.3668-1.061 8.8306-1.5148 13.254-0.56913 5.548-1.4846 11.086-1.5148 16.663-0.0171 3.1658 0.57028 6.307 0.75739 9.4673 0.19412 3.2787-0.20963 6.6147 0.37869 9.846 0.35751 1.9636 0.86495 3.9699 1.8935 5.6804 1.8864 3.1372 5.0908 5.2628 7.5739 7.9526 2.183 2.3647 3.5403 5.7946 6.4378 7.1952 7.6281 3.6873 17.08-0.22083 25.372 1.5148 2.5018 0.52359 5.1591 1.1057 7.1952 2.6508 4.4654 3.3886 7.0136 8.7956 9.846 13.633 2.8823 4.9224 5.457 10.094 7.1952 15.526 1.2524 3.9143 2.2722 12.118 2.2722 12.118s-7.5646 5.7367-11.739 7.9526c-3.6026 1.9122-7.48 3.2894-11.361 4.5443-3.4665 1.1209-6.9875 2.2057-10.603 2.6508-5.1367 0.63236-10.427 0.88331-15.526 0-1.849-0.32028-3.4374-1.6799-5.3017-1.8935-3.2823-0.37606-6.5675 0.7284-9.846 1.1361-3.7912 0.47144-7.6799 2.5378-11.361 1.5148-1.5575-0.43289-3.7869-3.0296-3.7869-3.0296s-2.2706 2.4691-3.7869 3.0296c-7.1081 2.6272-15.253 2.0382-22.722 0.75739-3.0728-0.52694-8.71-3.4082-8.71-3.4082l-3.4082-3.0296-7.1952 4.1656s-15.327-1.4565-26.509-1.8935c-1.697-0.0663-3.4542-1.7429-3.7869-3.4082-1.1177-5.5944-1.0521-11.542 0.3787-17.041 0.61144-2.3499 3.4082-6.4378 3.4082-6.4378l7.5739-0.75738s-1.757-3.4301-1.8935-5.3017c-0.28096-3.8517 1.1573-7.6633 2.2722-11.361 0.86621-2.8727 1.9748-5.6953 3.4082-8.3313 1.6896-3.107 4.9606-5.3481 6.0591-8.7099 1.6471-5.041 0.3787-15.905 0.3787-15.905s-4.7341 6.0302-7.9526 7.9526c-1.1314 0.6758-2.4695 1.1701-3.7869 1.1361-1.8759-0.0484-3.8339-0.72426-5.3017-1.8935-4.218-3.3599-6.0144-8.9624-8.71-13.633-1.919-3.3251-4.7029-6.4325-5.3017-10.225-0.35926-2.2753 0.34019-4.6548 1.1361-6.8165 1.5259-4.1443 4.3606-7.6903 6.8165-11.361 3.0605-4.5743 5.8306-9.4903 9.846-13.254 1.8648-1.748 6.4378-4.1656 6.4378-4.1656l3.0295 5.6804-2.6508 2.2722s12.185 6.2398 18.556 8.71c3.5737 1.3857 7.2122 2.7157 10.982 3.4082 1.9903 0.36561 6.0591 0.37869 6.0591 0.37869s-0.42913-9.0872-0.3787-13.633c0.0561-5.0552 0.30103-10.113 0.75739-15.148 0.43674-4.8184 0.8525-9.6655 1.8935-14.39z" fill="#fff"/>
     <path d="m-180.64 513.2c2.054-2.6992 4.6071-5.0028 7.1952-7.1952 1.6571-1.4038 3.3182-2.9024 5.3017-3.7869 1.0629-0.47397 2.2495-0.8656 3.4082-0.75739 1.9144 0.17877 5.3017 2.2722 5.3017 2.2722v-6.8165s-5.3656-0.12601-7.9526-0.75738c-6.8772-1.6785-13.211-5.1041-19.692-7.9526-2.6879-1.1814-7.9526-3.7869-7.9526-3.7869l2.6508-2.2722-3.0295-5.6804s-5.1047 2.9044-7.1952 4.923c-2.1431 2.0694-3.5913 4.7559-5.3017 7.1952-2.613 3.7265-5.324 7.4044-7.5739 11.361-1.5909 2.7976-3.5586 5.5494-4.1656 8.71-0.35796 1.8636-0.1958 3.8718 0.37869 5.6804 0.80613 2.5379 2.7962 4.5327 4.1656 6.8165 2.5606 4.2705 4.2778 9.1433 7.5739 12.876 1.3705 1.5518 2.9629 3.1203 4.923 3.7869 1.5536 0.52842 3.444 0.71087 4.923 0 5.0995-2.451 7.4314-8.5691 10.603-13.254 2.4402-3.6043 3.802-7.8969 6.4378-11.361z" fill="#fe0000"/>
     <path d="m-159.81 485.56c0.0657-5.8117 0.28457-11.627 0.75739-17.42 0.25856-3.1679 0.62429-6.3304 1.1361-9.4673 0.60193-3.6894 1.2273-7.3929 2.2722-10.982 1.0943-3.7592 2.4728-7.4518 4.1656-10.982 1.0765-2.2449 2.1109-4.5968 3.7869-6.4378 1.8868-2.0726 4.2684-3.7556 6.8165-4.923 2.4773-1.135 5.2408-1.6259 7.9526-1.8935 3.3941-0.33493 6.862-0.19079 10.225 0.37869 3.3856 0.57336 6.9042 1.2583 9.846 3.0296 2.2941 1.3812 4.1147 3.5081 5.6804 5.6804 0.99025 1.3739 2.2722 4.5443 2.2722 4.5443s-4.9391 7.8809-6.8165 12.118c-1.9404 4.3795-3.0725 9.0746-4.5443 13.633-1.3004 4.0273-2.8942 7.9814-3.7869 12.118-1.5292 7.0861-2.0076 14.365-2.6508 21.586-0.40384 4.5334-0.89003 9.0836-0.75739 13.633 0.12959 4.445 1.5148 13.254 1.5148 13.254s-3.7638-5.4044-6.4378-7.1952c-1.8908-1.2663-4.2341-1.7043-6.4378-2.2722-2.2306-0.57485-4.5941-0.53019-6.8165-1.1361-1.6963-0.46246-3.3311-1.1472-4.923-1.8935-4.4516-2.087-12.876-7.1952-12.876-7.1952s-0.44724-12.117-0.3787-18.177z" fill="#40107d"/>
     <path d="m-177.61 583.26c3.9252 0.96193 7.7765 2.2376 11.74 3.0296 4.3764 0.87451 8.795 1.712 13.254 1.8935 4.1698 0.16973 8.329-0.54427 12.497-0.75738 3.0282-0.15484 6.0842 0.0307 9.0886-0.3787 3.853-0.52506 7.7147-1.299 11.361-2.6508 3.0705-1.1384 5.8387-2.9696 8.71-4.5443 4.2145-2.3114 8.0702-5.3218 12.497-7.1952 4.2315-1.7908 8.7216-3.0333 13.254-3.7869 4.8627-0.80855 9.8396-0.74839 14.769-0.75739 2.6539-5e-3 7.9526 0.3787 7.9526 0.3787s3.3166 6.1892 4.5443 9.4673c1.3319 3.5562 2.3641 7.2434 3.0295 10.982 0.26638 1.4965 0.37869 4.5443 0.37869 4.5443s-7.0236 5.7713-10.982 7.9526c-4.1676 2.2964-8.6814 3.9859-13.254 5.3017-4.0688 1.1708-8.2801 1.8919-12.497 2.2722-3.8974 0.35142-7.9206 0.85367-11.739 0-2.3146-0.51739-4.085-2.7305-6.4378-3.0296-4.7155-0.59938-9.2932 2.076-14.012 2.6508-2.259 0.27522-4.628 1.0024-6.8165 0.3787-1.4818-0.42229-3.7869-2.6509-3.7869-2.6509s-2.7356 3.0018-4.5443 3.7869c-2.8006 1.2157-6.0414 0.94637-9.0886 1.1361-2.5197 0.15687-5.0604 0.23724-7.5739 0-2.6866-0.25359-5.3961-0.65073-7.9526-1.5148-2.1392-0.72303-4.1892-1.7636-6.0591-3.0295-1.2587-0.85217-3.4082-3.0296-3.4082-3.0296l-7.1952 4.1656-26.887-1.5148s-3.0821-2.4264-3.7869-4.1656c-1.4705-3.6286-1.057-7.8835-0.37869-11.74 0.70663-4.017 4.5443-11.361 4.5443-11.361s5.0419-0.9202 7.5739-0.75738c7.242 0.4657 14.158 3.1957 21.207 4.923z" fill="#fe0000"/>
     <path d="m-107.17 605.98c-0.55614-2.026 2.5744-3.3734 3.4082-5.3017 0.61975-1.4331-0.28247-3.8919 1.1361-4.5443 1.2822-0.58972 3.7869 1.8935 3.7869 1.8935l20.828-6.0591 0.75739-4.923 3.7869 3.7869s5.0398-0.631 7.5739-0.75739c2.8997-0.14463 6.1019-1.2756 8.7099 0 1.2929 0.63234 2.6509 3.4082 2.6509 3.4082s-5.9821 5.528-9.4673 7.5739c-3.1738 1.863-6.7418 2.9769-10.225 4.1656-4.4636 1.5234-8.9827 2.9998-13.633 3.7869-3.8663 0.65447-7.8961 1.5349-11.739 0.75738-2.7666-0.55969-6.8267-1.065-7.5739-3.7869z" fill="#2c3326"/>
    </g>
    <path d="m-83.721 607.61 7.3396-18.223v0" fill="#fff" stroke-linecap="round" stroke-width="3.1367"/>
   </g>
   <g stroke="#000" stroke-width="1px">
    <path d="m-195.03 554.1-9.846 3.7869-9.0886 4.923-9.846 6.4378 15.905-7.9526 12.876-3.4082 7.5739-0.75739z"/>
    <path d="m-235.55 515.85c29.159 35.218 28.781 35.597 28.781 35.597l-19.313-31.81z"/>
    <path d="m-240.47 525.7 1.8935 7.1952 15.526 26.509 6.4378 0.37869-7.9526 3.0296-17.42-31.053z"/>
   </g>
   <g fill="none" stroke="#000" stroke-linecap="round" stroke-width="1.5">
    <path d="m-231.76 536.3s3.6605-2.516 5.6804-3.4082c1.2055-0.53249 2.5162-0.78682 3.7869-1.1361 2.0074-0.55172 3.9897-1.7419 6.0591-1.5148 0.84173 0.0924 2.2722 1.1361 2.2722 1.1361"/>
    <path d="m-227.01 544.31s3.6605-2.516 5.6804-3.4082c1.2055-0.53249 2.5162-0.78682 3.7869-1.1361 2.0074-0.55172 3.9897-1.7419 6.0591-1.5148 0.84173 0.0924 2.2722 1.1361 2.2722 1.1361"/>
    <path d="m-221.33 553.02s3.6605-2.516 5.6804-3.4082c1.2055-0.53249 2.5162-0.78682 3.7869-1.1361 2.0074-0.55172 3.9897-1.7419 6.0591-1.5148 0.84173 0.0924 2.2722 1.1361 2.2722 1.1361"/>
   </g>
  </g>
 </g>
</svg>
