<?xml version="1.0" encoding="UTF-8" standalone="no"?>
<!-- Created with Inkscape (http://www.inkscape.org/) -->

<svg
   xmlns:dc="http://purl.org/dc/elements/1.1/"
   xmlns:cc="http://creativecommons.org/ns#"
   xmlns:rdf="http://www.w3.org/1999/02/22-rdf-syntax-ns#"
   xmlns:svg="http://www.w3.org/2000/svg"
   xmlns="http://www.w3.org/2000/svg"
   xmlns:sodipodi="http://sodipodi.sourceforge.net/DTD/sodipodi-0.dtd"
   xmlns:inkscape="http://www.inkscape.org/namespaces/inkscape"
   width="160.31964mm"
   height="151.13463mm"
   viewBox="0 0 160.31964 151.13463"
   version="1.1"
   id="svg8"
   inkscape:version="0.92.4 (5da689c313, 2019-01-14)"
   sodipodi:docname="maestra.svg">
  <defs
     id="defs2" />
  <sodipodi:namedview
     id="base"
     pagecolor="#ffffff"
     bordercolor="#666666"
     borderopacity="1.0"
     inkscape:pageopacity="0.0"
     inkscape:pageshadow="2"
     inkscape:zoom="3.2605218"
     inkscape:cx="323.7551"
     inkscape:cy="233.54744"
     inkscape:document-units="mm"
     inkscape:current-layer="layer1"
     showgrid="false"
     inkscape:window-width="3840"
     inkscape:window-height="2066"
     inkscape:window-x="-11"
     inkscape:window-y="-11"
     inkscape:window-maximized="1"
     fit-margin-top="0"
     fit-margin-left="0"
     fit-margin-right="0"
     fit-margin-bottom="0" />
  <metadata
     id="metadata5">
    <rdf:RDF>
      <cc:Work
         rdf:about="">
        <dc:format>image/svg+xml</dc:format>
        <dc:type
           rdf:resource="http://purl.org/dc/dcmitype/StillImage" />
        <dc:title />
      </cc:Work>
    </rdf:RDF>
  </metadata>
  <g
     inkscape:label="Capa 1"
     inkscape:groupmode="layer"
     id="layer1"
     transform="translate(-26.157084,-17.662593)">
    <rect
       style="fill:#ffc61b;fill-opacity:1;stroke:none;stroke-width:0.31057316;stroke-linecap:round;stroke-linejoin:round;stroke-miterlimit:4;stroke-dasharray:none;stroke-dashoffset:0;stroke-opacity:1;paint-order:normal"
       id="rect1279"
       width="160.31964"
       height="150.65533"
       x="26.157085"
       y="17.662594" />
    <g
       transform="translate(-37.6065,-12.973255)"
       id="g1027-7-9"
       style="fill:#fcd088;fill-opacity:1">
      <rect
         style="fill:#fcd088;fill-opacity:1;stroke:none;stroke-width:0.27069956;stroke-linecap:round;stroke-linejoin:round;stroke-miterlimit:4;stroke-dasharray:none;stroke-dashoffset:0;stroke-opacity:1;paint-order:normal"
         id="rect1008-8-2"
         width="11.685246"
         height="32.053276"
         x="133.24426"
         y="117.17705" />
      <rect
         style="fill:#fcd088;fill-opacity:1;stroke:none;stroke-width:0.277201;stroke-linecap:round;stroke-linejoin:round;stroke-miterlimit:4;stroke-dasharray:none;stroke-dashoffset:0;stroke-opacity:1;paint-order:normal"
         id="rect1008-3-1-9"
         width="12.25328"
         height="32.053276"
         x="144.92952"
         y="117.17705" />
    </g>
    <path
       style="fill:#ffedb5;fill-opacity:1;stroke:none;stroke-width:0.26458332px;stroke-linecap:butt;stroke-linejoin:miter;stroke-opacity:1"
       d="m 87.685323,99.296239 c 0.946053,1.549551 1.867174,3.127491 3.00246,4.544261 1.315853,1.64211 2.796679,3.16048 4.381967,4.54426 1.035268,0.90368 2.164411,1.70184 3.327049,2.43443 1.402719,0.88386 2.818131,1.80258 4.381971,2.35327 1.53123,0.53921 3.1643,0.89206 4.7877,0.89263 1.92582,6.8e-4 3.87369,-0.38796 5.68033,-1.05492 2.08046,-0.76805 3.99053,-1.99214 5.76147,-3.32705 1.77199,-1.33571 3.37296,-2.91586 4.78771,-4.62541 1.19579,-1.44496 2.58432,-2.89865 3.08361,-4.70655 3.85557,-13.960933 9.07334,-33.829364 -1.78525,-43.413941 -7.06144,-6.232943 -19.97855,-2.316506 -28.158197,2.353278 -8.407956,4.800125 -11.693301,15.468196 -16.797541,23.695083 -0.421107,0.67873 -0.900468,1.346618 -1.136065,2.109835 -0.304851,0.987567 -0.383364,2.051732 -0.324591,3.083608 0.05672,0.995912 0.357726,1.967316 0.649179,2.921316 0.237751,0.77822 0.4851,1.5678 0.892624,2.27212 0.520442,0.89949 1.156248,1.7608 1.94754,2.43443 0.544154,0.46324 1.195065,0.80994 1.866395,1.05492 0.413648,0.15095 0.861233,0.29643 1.298361,0.24344 0.324461,-0.0393 0.892622,-0.40574 0.892622,-0.40574 0,0 0.943151,1.7491 1.460656,2.59673 z"
       id="path826-1-7-8"
       inkscape:connector-curvature="0"
       sodipodi:nodetypes="aaaaaaaaaaaaaaaaaaaaca" />
    <path
       style="fill:#e8cf89;fill-opacity:1;stroke:none;stroke-width:0.26458332px;stroke-linecap:butt;stroke-linejoin:miter;stroke-opacity:1"
       d="m 107.48532,54.908532 v 59.156558 0 0"
       id="path843-2-6-4"
       inkscape:connector-curvature="0" />
    <path
       style="fill:#ffedb5;fill-opacity:1;stroke:none;stroke-width:0.08127533;stroke-linecap:round;stroke-linejoin:round;stroke-miterlimit:4;stroke-dasharray:none;stroke-dashoffset:0;stroke-opacity:1;paint-order:normal"
       d="m 105.91987,113.7718 c -1.61275,-0.22015 -3.46857,-0.81623 -4.86178,-1.56158 -0.86197,-0.46114 -2.808327,-1.66798 -3.773363,-2.33967 -3.01385,-2.09772 -6.110843,-5.33112 -8.076259,-8.43198 -0.787278,-1.2421 -1.773242,-2.896211 -2.377389,-3.988461 l -0.54538,-0.986 -0.424257,0.23391 c -0.241056,0.13291 -0.5493,0.23456 -0.713832,0.23539 -0.835742,0.004 -2.32812,-0.7311 -3.184134,-1.56893 -1.134321,-1.11022 -1.849027,-2.32962 -2.408897,-4.10993 -0.623607,-1.98298 -0.687575,-2.33794 -0.680003,-3.77336 0.01021,-1.93524 0.143418,-2.35165 1.416906,-4.42913 1.035696,-1.68956 1.936242,-3.32476 3.916985,-7.11239 2.516997,-4.813066 3.390834,-6.364036 4.741658,-8.415936 1.734669,-2.63495 3.694557,-4.87138 5.601933,-6.392372 1.882746,-1.501352 4.962937,-3.165406 8.412992,-4.545071 1.22371,-0.489355 4.01751,-1.442389 4.22833,-1.442389 0.0964,0 0.11307,4.317891 0.11307,29.375408 v 29.375411 l -0.30431,-0.008 c -0.16736,-0.005 -0.65439,-0.0562 -1.08227,-0.11456 z"
       id="path859-7-4-3"
       inkscape:connector-curvature="0" />
    <path
       style="fill:#494948;fill-opacity:1;stroke:none;stroke-width:0.26458332px;stroke-linecap:butt;stroke-linejoin:miter;stroke-opacity:1"
       d="m -74.954118,36.322003 c 2.43024,1.059022 4.76697,2.352479 6.97869,3.813934 1.4944,0.987465 2.8808,2.137205 4.21967,3.327051 1.54406,1.372192 3.10711,2.756615 4.38197,4.381965 1.28834,1.642538 2.3064,3.491576 3.2459,5.355738 1.0919,2.166553 2.1093,4.397718 2.75901,6.735248 0.71099,2.55799 1.03188,5.222832 1.21722,7.871312 0.13786,1.96996 0.0396,3.95269 -0.0811,5.92377 -0.0915,1.49373 -0.48688,4.46312 -0.48688,4.46312 0,0 1.80937,-2.05024 2.59672,-3.16476 1.05726,-1.49659 1.93663,-3.11244 2.84016,-4.70656 0.9666,-1.70539 1.94732,-3.40912 2.75902,-5.19344 0.9714,-2.135392 1.82867,-4.329802 2.51557,-6.572952 0.59364,-1.93856 1.1185,-3.913214 1.37951,-5.923769 0.2369,-1.824827 0.22785,-3.679062 0.16229,-5.518034 -0.0959,-2.689787 -0.14573,-5.425746 -0.81147,-8.033606 -0.46475,-1.820511 -1.3544,-3.511067 -2.19098,-5.193443 -0.98743,-1.985746 -2.05641,-3.943871 -3.32705,-5.761474 -1.11121,-1.589548 -2.38138,-3.072015 -3.73279,-4.463116 -1.33514,-1.374358 -2.74892,-2.690075 -4.30082,-3.813935 -1.21741,-0.881628 -3.89508,-2.27213 -3.89508,-2.27213 0,0 0.6436,-0.759383 0.81147,-1.217213 0.24371,-0.664674 0.34221,-1.408813 0.24345,-2.109835 -0.14716,-1.044605 -0.6235,-2.049334 -1.21722,-2.921312 -0.6998,-1.027757 -1.62582,-1.9340058 -2.67787,-2.5967218 -1.78135,-1.122128 -3.86784,-1.737613 -5.92377,-2.190983 -1.32495,-0.292175 -2.70098,-0.357176 -4.05737,-0.32459 -1.90848,0.04585 -3.83905,0.226248 -5.68033,0.730326 -2.04513,0.559887 -4.14723,1.242124 -5.84262,2.515574 -0.95261,0.7155198 -1.75823,1.6841578 -2.27214,2.7590168 -0.40501,0.847118 -0.67547,1.826224 -0.56803,2.759017 0.0886,0.769482 0.49629,1.499945 0.97377,2.109835 0.21354,0.272751 0.81148,0.649181 0.81148,0.649181 0,0 -3.87798,2.00387 -5.59918,3.32705 -1.41031,1.084181 -2.71412,2.334635 -3.81394,3.732785 -1.6348,2.078256 -2.97873,4.402216 -4.05737,6.816394 -1.14469,2.561992 -1.99382,5.276456 -2.515582,8.033607 -0.49915,2.63774 -0.57633,5.349064 -0.56803,8.033605 0.004,1.410706 0.32459,4.219673 0.32459,4.219673 0,0 0.782422,-1.61749 1.379512,-2.272131 0.61247,-0.671507 1.42622,-1.131841 2.19098,-1.622951 1.50768,-0.968201 3.22799,-1.58462 4.70656,-2.596722 1.77474,-1.214838 3.43451,-2.612469 4.95,-4.138525 1.82788,-1.840629 3.47616,-3.870237 4.95,-6.004917 0.24781,-0.358919 0.64918,-1.136065 0.64918,-1.136065 0,0 4.45571,1.268375 6.5729,2.190983 z"
       id="path861-7-8-9-2"
       inkscape:connector-curvature="0"
       sodipodi:nodetypes="aaaaaaaacaaaaaaaaaaacaaaaaaaaaaacaaaaacaaaaaca" />
    <path
       style="fill:#494948;fill-opacity:1;stroke:none;stroke-width:0.26458332px;stroke-linecap:butt;stroke-linejoin:miter;stroke-opacity:1"
       d="M 224.88605,73.244135 224.96715,41.4343"
       id="path863-0-1-1-9"
       inkscape:connector-curvature="0" />
    <path
       style="fill:#494948;fill-opacity:1;stroke:none;stroke-width:0.31057322;stroke-linecap:round;stroke-linejoin:round;stroke-miterlimit:4;stroke-dasharray:none;stroke-dashoffset:0;stroke-opacity:1;paint-order:normal"
       d="m 118.84597,80.63226 a 7.4655745,7.4655745 0 0 0 -7.46569,7.46569 7.4655745,7.4655745 0 0 0 7.46569,7.465692 7.4655745,7.4655745 0 0 0 7.4657,-7.465692 7.4655745,7.4655745 0 0 0 -7.4657,-7.46569 z m -0.0403,2.35334 a 4.9905747,4.9905747 0 0 1 4.9904,4.99039 4.9905747,4.9905747 0 0 1 -4.9904,4.990912 4.9905747,4.9905747 0 0 1 -4.99091,-4.990912 4.9905747,4.9905747 0 0 1 4.99091,-4.99039 z"
       id="path900-4-4-7-9"
       inkscape:connector-curvature="0" />
    <path
       style="fill:#444444;fill-opacity:1;stroke:none;stroke-width:0.31057322;stroke-linecap:round;stroke-linejoin:round;stroke-miterlimit:4;stroke-dasharray:none;stroke-dashoffset:0;stroke-opacity:1;paint-order:normal"
       d="m 96.368105,80.794475 a 7.4655746,7.4655746 0 0 0 -7.46569,7.46569 7.4655746,7.4655746 0 0 0 7.46569,7.465697 7.4655746,7.4655746 0 0 0 7.465685,-7.465697 7.4655746,7.4655746 0 0 0 -7.465685,-7.46569 z m -0.0403,2.35334 a 4.9905748,4.9905748 0 0 1 4.990395,4.99039 4.9905748,4.9905748 0 0 1 -4.990395,4.990917 4.9905748,4.9905748 0 0 1 -4.99091,-4.990917 4.9905748,4.9905748 0 0 1 4.99091,-4.99039 z"
       id="path900-4-8-0-5-4"
       inkscape:connector-curvature="0" />
    <rect
       style="fill:#444444;fill-opacity:1;stroke:none;stroke-width:0.40223485;stroke-linecap:round;stroke-linejoin:round;stroke-miterlimit:4;stroke-dasharray:none;stroke-dashoffset:0;stroke-opacity:1;paint-order:normal"
       id="rect948-2-3-0-3"
       width="9.5348358"
       height="2.2721312"
       x="102.69762"
       y="86.31263" />
    <path
       style="fill:#494948;fill-opacity:1;stroke:none;stroke-width:0.26458332px;stroke-linecap:butt;stroke-linejoin:miter;stroke-opacity:1"
       d="m 82.004995,79.00935 0.730329,2.840165 6.735246,6.491803 0.892623,-2.434426 -0.892623,-0.730329 -5.436885,-5.193443 -2.596722,-1.622949 z"
       id="path976-3-0-7"
       inkscape:connector-curvature="0" />
    <g
       id="g1210-2-4"
       transform="translate(2.723824,-10.376548)"
       style="fill:#ffad9e;fill-opacity:1">
      <path
         style="fill:#ffad9e;fill-opacity:1;stroke:none;stroke-width:0.26458332px;stroke-linecap:butt;stroke-linejoin:miter;stroke-opacity:1"
         d="m 104.59918,179.17377 v -34.56885 l 17.60901,-9.08853 c 0,0 8.18822,1.20597 12.09099,2.51557 1.6174,0.54273 3.23803,1.19815 4.62541,2.19099 1.07335,0.76811 1.97751,1.77652 2.75901,2.84016 0.8743,1.18994 1.5793,2.51709 2.10984,3.89508 0.37008,0.96122 0.60533,1.98007 0.73033,3.00246 0.69595,5.6921 0.0676,11.46881 0.0811,17.20328 0.008,3.35409 0,10.0623 0,10.0623 z"
         id="path1168-1-0"
         inkscape:connector-curvature="0"
         sodipodi:nodetypes="cccaaaaaacc" />
      <path
         style="fill:#ffad9e;fill-opacity:1;stroke:none;stroke-width:0.26458332px;stroke-linecap:butt;stroke-linejoin:miter;stroke-opacity:1"
         d="m 104.59918,179.17377 v -34.56885 l -17.60901,-9.08853 c 0,0 -8.18822,1.20597 -12.09099,2.51557 -1.6174,0.54273 -3.23803,1.19815 -4.62541,2.19099 -1.07335,0.76811 -1.97751,1.77652 -2.75901,2.84016 -0.8743,1.18994 -1.5793,2.51709 -2.10984,3.89508 -0.37008,0.96122 -0.60533,1.98007 -0.73033,3.00246 -0.69595,5.6921 -0.0676,11.46881 -0.0811,17.20328 -0.008,3.35409 0,10.0623 0,10.0623 z"
         id="path1168-5-2-4"
         inkscape:connector-curvature="0"
         sodipodi:nodetypes="cccaaaaaacc" />
    </g>
    <path
       style="fill:#ffffff;fill-opacity:1;stroke:none;stroke-width:0.26458332px;stroke-linecap:butt;stroke-linejoin:miter;stroke-opacity:1"
       d="m 113.00334,127.24969 c 1.74699,-2.17837 3.33746,-4.48666 5.19344,-6.57295 0.33053,-0.37155 0.58231,-0.9002 1.05492,-1.05492 0.33812,-0.11069 0.73756,0.001 1.05491,0.1623 0.47771,0.24208 0.76938,0.74574 1.13607,1.13606 1.25967,1.34085 3.65164,4.13852 3.65164,4.13852 l -9.33197,14.93115 c 0,0 -0.65342,0.9432 -1.13606,1.21722 -0.29584,0.16796 -0.65981,0.25644 -0.99754,0.21559 -0.46924,-0.0568 -0.97097,-0.25909 -1.27459,-0.62133 -1.84891,-2.20582 -5.03115,-6.57295 -5.03115,-6.57295 0,0 3.8038,-4.63879 5.68033,-6.97869 z"
       id="path1214-4-9"
       inkscape:connector-curvature="0"
       sodipodi:nodetypes="aaaaaccaasca" />
    <path
       style="fill:#ffffff;fill-opacity:1;stroke:none;stroke-width:0.26458332px;stroke-linecap:butt;stroke-linejoin:miter;stroke-opacity:1"
       d="m 101.64268,127.24969 c -1.746992,-2.17837 -3.337462,-4.48666 -5.193442,-6.57295 -0.33053,-0.37155 -0.58231,-0.9002 -1.05492,-1.05492 -0.33812,-0.11069 -0.73756,0.001 -1.05491,0.1623 -0.47771,0.24208 -0.76938,0.74574 -1.13607,1.13606 -1.25967,1.34085 -3.65164,4.13852 -3.65164,4.13852 l 9.33197,14.93115 c 0,0 0.65342,0.9432 1.136062,1.21722 0.29584,0.16796 0.65981,0.25644 0.99754,0.21559 0.46924,-0.0568 0.97097,-0.25909 1.27459,-0.62133 1.84891,-2.20582 5.03115,-6.57295 5.03115,-6.57295 0,0 -3.8038,-4.63879 -5.68033,-6.97869 z"
       id="path1214-3-5-7"
       inkscape:connector-curvature="0"
       sodipodi:nodetypes="aaaaaccaasca" />
    <ellipse
       style="fill:#ffffff;fill-opacity:1;stroke:none;stroke-width:0.26499999;stroke-linecap:round;stroke-linejoin:round;stroke-miterlimit:4;stroke-dasharray:none;stroke-dashoffset:0;stroke-opacity:1;paint-order:normal"
       id="path1231-0-6"
       cx="107.39687"
       cy="144.65813"
       rx="1.2336694"
       ry="1.2049794" />
    <ellipse
       style="fill:#ffffff;fill-opacity:1;stroke:none;stroke-width:0.26499999;stroke-linecap:round;stroke-linejoin:round;stroke-miterlimit:4;stroke-dasharray:none;stroke-dashoffset:0;stroke-opacity:1;paint-order:normal"
       id="path1231-4-7-7"
       cx="107.36818"
       cy="139.78082"
       rx="1.2336695"
       ry="1.2049794" />
    <path
       style="fill:#444444;fill-opacity:1;stroke:none;stroke-width:0.26458332px;stroke-linecap:butt;stroke-linejoin:miter;stroke-opacity:1"
       d="m 84.74204,78.308995 c 0.450702,-0.369265 0,0 0,0 0,0 1.447555,0.270069 2.18044,0.286901 0.901965,0.02072 1.810583,-0.06074 2.696858,-0.229521 0.980815,-0.186779 1.927676,-0.527838 2.868998,-0.8607 1.285881,-0.454701 2.592258,-0.891504 3.78708,-1.54926 0.925201,-0.509328 1.796406,-1.130398 2.5821,-1.836158 0.836614,-0.751499 1.616994,-1.587037 2.237824,-2.52472 0.49119,-0.74188 0.9515,-1.542086 1.14759,-2.409957 0.1391,-0.615662 0,-1.893541 0,-1.893541 0,0 0.96465,0.879746 1.49188,1.262361 0.61862,0.448937 1.27499,0.84812 1.95092,1.204979 1.16609,0.615642 2.39552,1.104843 3.61494,1.60664 1.0972,0.451504 2.19924,0.896967 3.32804,1.262359 1.18742,0.384365 2.39345,0.719199 3.61494,0.97546 1.62814,0.341574 3.27921,0.581838 4.93468,0.74594 1.20046,0.118999 2.4117,0.258681 3.61494,0.172138 1.20475,-0.08665 2.41018,-0.31113 3.55755,-0.68856 0.8452,-0.278028 2.40996,-1.147598 2.40996,-1.147598 0,0 0.70494,3.062616 0.5738,4.590399 -0.16927,1.972057 -0.57288,3.782172 -0.80332,5.680615 -0.15984,1.316848 -0.19495,2.64891 -0.40166,3.959219 -0.28352,1.797221 -0.73253,3.56487 -1.1476,5.336339 -0.60322,2.574461 -1.17705,5.160509 -1.95092,7.688916 -0.14874,0.485954 -0.28891,0.980064 -0.51641,1.434504 -0.4512,0.90129 -1.04418,1.72992 -1.66402,2.52472 -0.7659,0.98209 -1.6634,1.85465 -2.52472,2.75423 -0.5612,0.58613 -1.14029,1.155 -1.7214,1.7214 -0.37784,0.36828 -0.94359,0.60362 -1.1476,1.09022 -1.30176,3.10494 -1.81966,7.38448 0.17214,10.09888 0.17891,0.24382 0.60345,0.12791 0.8607,0.2869 0.27611,0.17065 0.46736,0.45101 0.68856,0.68856 1.35815,1.45856 3.91599,4.51804 3.91599,4.51804 v 0 c 0,0 0.90004,0.30989 1.36297,0.41664 0.717,0.16534 1.45339,0.23096 2.18043,0.34428 1.24285,0.19372 2.49536,0.33169 3.7297,0.5738 0.88772,0.17412 1.74728,0.78067 2.63948,0.63118 0.24595,-0.0412 0.42024,-0.26864 0.63118,-0.40167 0.30524,-0.19251 0.73337,-0.26376 0.91808,-0.57379 0.15694,-0.26342 0.0731,-0.61186 0.0574,-0.91808 -0.0358,-0.69714 -0.26071,-1.37264 -0.34428,-2.06568 -0.1837,-1.5234 -0.2623,-3.05816 -0.34428,-4.5904 -0.15949,-2.98103 -0.24259,-5.96632 -0.2869,-8.95128 -0.12065,-8.12796 0.20154,-16.258914 0.0574,-24.386487 -0.0628,-3.540408 -0.0839,-7.088619 -0.40166,-10.615297 -0.21846,-2.424604 -0.4354,-4.8699 -1.03284,-7.229877 -0.46039,-1.818602 -1.08892,-3.612754 -1.95092,-5.278956 -0.94827,-1.832965 -2.07369,-3.615477 -3.50018,-5.106818 -1.47279,-1.539746 -3.19238,-2.909126 -5.10682,-3.84446 -1.96719,-0.961103 -4.18012,-1.361257 -6.34132,-1.711554 -2.17755,-0.352945 -4.40128,-0.422917 -6.60686,-0.38197 -1.9004,0.03528 -3.81672,0.147973 -5.67654,0.540189 -1.08269,0.228327 -2.13506,0.606349 -3.15014,1.04676 -0.94892,0.41171 -1.92032,0.83379 -2.726385,1.482037 -0.29585,0.237927 -0.577124,0.520642 -0.74594,0.860697 -0.165134,0.332639 -0.231592,0.718854 -0.229518,1.090221 9.85e-4,0.176336 0.114757,0.516419 0.114757,0.516419 0,0 -0.904622,-0.812304 -1.444342,-1.074606 -0.529913,-0.257535 -1.117471,-0.43125 -1.705788,-0.463115 -0.906286,-0.04909 -1.815172,0.181531 -2.689402,0.425427 -0.741581,0.20689 -1.449258,0.52952 -2.138672,0.872237 -1.29866,0.645582 -2.684085,1.227723 -3.741933,2.219818 -1.373585,1.288207 -2.318931,2.993386 -3.18782,4.664088 -0.740921,1.424645 -1.217934,2.976034 -1.695246,4.50925 -0.681462,2.188983 -1.163357,4.436276 -1.661629,6.674079 -0.375176,1.684962 -0.738292,3.374971 -0.999228,5.081361 -0.190053,1.242854 -0.297624,2.497255 -0.411504,3.749388 -0.188305,2.070456 -0.414824,4.14209 -0.449196,6.220807 -0.03128,1.891438 0.1,3.782972 0.221365,5.670771 0.107613,1.673824 0.307199,3.340485 0.449195,5.011741 0.203729,2.39784 0.394607,4.79677 0.577877,7.19626 0.114019,1.49281 0.169334,2.99064 0.32459,4.47973 0.136809,1.31214 0.431858,2.60626 0.534421,3.92152 0.14724,1.88819 0.172236,3.78757 0.11476,5.68062 -0.02155,0.70968 0.07944,1.45912 -0.17214,2.12306 -0.135545,0.35771 -0.402916,0.66364 -0.68856,0.91808 -0.198414,0.17674 -0.539032,0.18201 -0.688559,0.40166 -0.141567,0.20796 -0.175885,0.50191 -0.114761,0.74594 0.06971,0.2783 0.271267,0.53953 0.516422,0.68856 0.198828,0.12087 0.461383,0.0644 0.688559,0.11476 0.348854,0.0773 0.677302,0.25129 1.032838,0.28689 0.26712,0.0268 0.537194,-0.0221 0.80332,-0.0574 2.604338,-0.3454 5.459969,-0.19484 7.736036,-1.50686 1.819422,-1.04879 2.663578,-3.2557 4.141621,-4.74756 0.162098,-0.16361 0.325703,-0.32992 0.516419,-0.45904 0.141661,-0.0959 0.29432,-0.18333 0.459039,-0.22952 0.221762,-0.0622 0.458444,-0.0478 0.688562,-0.0574 0.07644,-0.003 0.174986,0.0537 0.229518,0 2.536108,-2.49553 1.6239,-7.42431 0.172141,-10.67268 -0.464723,-1.03984 -1.767234,-1.44206 -2.582098,-2.23782 -0.610284,-0.59597 -1.176923,-1.23689 -1.721401,-1.89353 -0.74961,-0.90403 -1.45882,-1.84314 -2.123059,-2.81163 C 88.743692,101.09101 88.07264,100.2625 87.685323,99.296239 84.430544,92.843515 85.186015,85.762048 84.74204,78.308995 Z"
       id="path3991"
       inkscape:connector-curvature="0"
       sodipodi:nodetypes="ccaaaaaaacaaaaaaaacsaaaaaaaaaaaaaaaaaaaaaaaaaaaaaaaaaaaaacaaaaaaaaaaaaaaaaaaaaaaaaaaaaaaaaaaacc" />
    <path
       style="fill:#444444;fill-opacity:1;stroke:none;stroke-width:0.26458332px;stroke-linecap:butt;stroke-linejoin:miter;stroke-opacity:1"
       d="m 132.93447,78.558 -0.73033,2.840165 -6.73525,6.491803 -0.89262,-2.434426 0.89262,-0.730329 5.43689,-5.193443 2.59672,-1.622949 z"
       id="path976-3-0-7-5"
       inkscape:connector-curvature="0" />
  </g>
</svg>
