<?xml version="1.0" encoding="UTF-8"?>
<svg width="160.32mm" height="151.13mm" version="1.1" viewBox="0 0 160.32 151.13" xmlns="http://www.w3.org/2000/svg">
 <g transform="translate(-26.157 -17.663)">
  <rect x="26.157" y="17.663" width="160.32" height="150.66" fill="#ffc61b" style="paint-order:normal"/>
  <g transform="translate(-37.606 -12.973)" fill="#fcd088">
   <rect x="133.24" y="117.18" width="11.685" height="32.053" style="paint-order:normal"/>
   <rect x="144.93" y="117.18" width="12.253" height="32.053" style="paint-order:normal"/>
  </g>
  <path d="m87.685 99.296c0.94605 1.5496 1.8672 3.1275 3.0025 4.5443 1.3159 1.6421 2.7967 3.1605 4.382 4.5443 1.0353 0.90368 2.1644 1.7018 3.327 2.4344 1.4027 0.88386 2.8181 1.8026 4.382 2.3533 1.5312 0.53921 3.1643 0.89206 4.7877 0.89263 1.9258 6.8e-4 3.8737-0.38796 5.6803-1.0549 2.0805-0.76805 3.9905-1.9921 5.7615-3.327 1.772-1.3357 3.373-2.9159 4.7877-4.6254 1.1958-1.445 2.5843-2.8986 3.0836-4.7066 3.8556-13.961 9.0733-33.829-1.7852-43.414-7.0614-6.2329-19.979-2.3165-28.158 2.3533-8.408 4.8001-11.693 15.468-16.798 23.695-0.42111 0.67873-0.90047 1.3466-1.1361 2.1098-0.30485 0.98757-0.38336 2.0517-0.32459 3.0836 0.05672 0.99591 0.35773 1.9673 0.64918 2.9213 0.23775 0.77822 0.4851 1.5678 0.89262 2.2721 0.52044 0.89949 1.1562 1.7608 1.9475 2.4344 0.54415 0.46324 1.1951 0.80994 1.8664 1.0549 0.41365 0.15095 0.86123 0.29643 1.2984 0.24344 0.32446-0.0393 0.89262-0.40574 0.89262-0.40574s0.94315 1.7491 1.4607 2.5967z" fill="#ffedb5"/>
  <path d="m107.49 54.909v59.157" fill="#e8cf89"/>
  <path d="m105.92 113.77c-1.6128-0.22015-3.4686-0.81623-4.8618-1.5616-0.86197-0.46114-2.8083-1.668-3.7734-2.3397-3.0138-2.0977-6.1108-5.3311-8.0763-8.432-0.78728-1.2421-1.7732-2.8962-2.3774-3.9885l-0.54538-0.986-0.42426 0.23391c-0.24106 0.13291-0.5493 0.23456-0.71383 0.23539-0.83574 4e-3 -2.3281-0.7311-3.1841-1.5689-1.1343-1.1102-1.849-2.3296-2.4089-4.1099-0.62361-1.983-0.68758-2.3379-0.68-3.7734 0.01021-1.9352 0.14342-2.3516 1.4169-4.4291 1.0357-1.6896 1.9362-3.3248 3.917-7.1124 2.517-4.8131 3.3908-6.364 4.7417-8.4159 1.7347-2.635 3.6946-4.8714 5.6019-6.3924 1.8827-1.5014 4.9629-3.1654 8.413-4.5451 1.2237-0.48936 4.0175-1.4424 4.2283-1.4424 0.0964 0 0.11307 4.3179 0.11307 29.375v29.375l-0.30431-8e-3c-0.16736-5e-3 -0.65439-0.0562-1.0823-0.11456z" fill="#ffedb5" style="paint-order:normal"/>
  <g fill="#494948">
   <path d="m-74.954 36.322c2.4302 1.059 4.767 2.3525 6.9787 3.8139 1.4944 0.98746 2.8808 2.1372 4.2197 3.3271 1.5441 1.3722 3.1071 2.7566 4.382 4.382 1.2883 1.6425 2.3064 3.4916 3.2459 5.3557 1.0919 2.1666 2.1093 4.3977 2.759 6.7352 0.71099 2.558 1.0319 5.2228 1.2172 7.8713 0.13786 1.97 0.0396 3.9527-0.0811 5.9238-0.0915 1.4937-0.48688 4.4631-0.48688 4.4631s1.8094-2.0502 2.5967-3.1648c1.0573-1.4966 1.9366-3.1124 2.8402-4.7066 0.9666-1.7054 1.9473-3.4091 2.759-5.1934 0.9714-2.1354 1.8287-4.3298 2.5156-6.573 0.59364-1.9386 1.1185-3.9132 1.3795-5.9238 0.2369-1.8248 0.22785-3.6791 0.16229-5.518-0.0959-2.6898-0.14573-5.4257-0.81147-8.0336-0.46475-1.8205-1.3544-3.5111-2.191-5.1934-0.98743-1.9857-2.0564-3.9439-3.327-5.7615-1.1112-1.5895-2.3814-3.072-3.7328-4.4631-1.3351-1.3744-2.7489-2.6901-4.3008-3.8139-1.2174-0.88163-3.8951-2.2721-3.8951-2.2721s0.6436-0.75938 0.81147-1.2172c0.24371-0.66467 0.34221-1.4088 0.24345-2.1098-0.14716-1.0446-0.6235-2.0493-1.2172-2.9213-0.6998-1.0278-1.6258-1.934-2.6779-2.5967-1.7814-1.1221-3.8678-1.7376-5.9238-2.191-1.325-0.29218-2.701-0.35718-4.0574-0.32459-1.9085 0.04585-3.839 0.22625-5.6803 0.73033-2.0451 0.55989-4.1472 1.2421-5.8426 2.5156-0.95261 0.71552-1.7582 1.6842-2.2721 2.759-0.40501 0.84712-0.67547 1.8262-0.56803 2.759 0.0886 0.76948 0.49629 1.4999 0.97377 2.1098 0.21354 0.27275 0.81148 0.64918 0.81148 0.64918s-3.878 2.0039-5.5992 3.327c-1.4103 1.0842-2.7141 2.3346-3.8139 3.7328-1.6348 2.0783-2.9787 4.4022-4.0574 6.8164-1.1447 2.562-1.9938 5.2765-2.5156 8.0336-0.49915 2.6377-0.57633 5.3491-0.56803 8.0336 4e-3 1.4107 0.32459 4.2197 0.32459 4.2197s0.78242-1.6175 1.3795-2.2721c0.61247-0.67151 1.4262-1.1318 2.191-1.623 1.5077-0.9682 3.228-1.5846 4.7066-2.5967 1.7747-1.2148 3.4345-2.6125 4.95-4.1385 1.8279-1.8406 3.4762-3.8702 4.95-6.0049 0.24781-0.35892 0.64918-1.1361 0.64918-1.1361s4.4557 1.2684 6.5729 2.191z"/>
   <path d="m224.89 73.244 0.0811-31.81"/>
   <path d="m118.85 80.632a7.4656 7.4656 0 0 0-7.4657 7.4657 7.4656 7.4656 0 0 0 7.4657 7.4657 7.4656 7.4656 0 0 0 7.4657-7.4657 7.4656 7.4656 0 0 0-7.4657-7.4657zm-0.0403 2.3533a4.9906 4.9906 0 0 1 4.9904 4.9904 4.9906 4.9906 0 0 1-4.9904 4.9909 4.9906 4.9906 0 0 1-4.9909-4.9909 4.9906 4.9906 0 0 1 4.9909-4.9904z" style="paint-order:normal"/>
  </g>
  <path d="m96.368 80.794a7.4656 7.4656 0 0 0-7.4657 7.4657 7.4656 7.4656 0 0 0 7.4657 7.4657 7.4656 7.4656 0 0 0 7.4657-7.4657 7.4656 7.4656 0 0 0-7.4657-7.4657zm-0.0403 2.3533a4.9906 4.9906 0 0 1 4.9904 4.9904 4.9906 4.9906 0 0 1-4.9904 4.9909 4.9906 4.9906 0 0 1-4.9909-4.9909 4.9906 4.9906 0 0 1 4.9909-4.9904z" fill="#444" style="paint-order:normal"/>
  <rect x="102.7" y="86.313" width="9.5348" height="2.2721" fill="#444" style="paint-order:normal"/>
  <path d="m82.005 79.009 0.73033 2.8402 6.7352 6.4918 0.89262-2.4344-0.89262-0.73033-5.4369-5.1934-2.5967-1.6229z" fill="#494948"/>
  <g transform="translate(2.7238 -10.377)" fill="#ffad9e">
   <path d="m104.6 179.17v-34.569l17.609-9.0885s8.1882 1.206 12.091 2.5156c1.6174 0.54273 3.238 1.1982 4.6254 2.191 1.0734 0.76811 1.9775 1.7765 2.759 2.8402 0.8743 1.1899 1.5793 2.5171 2.1098 3.8951 0.37008 0.96122 0.60533 1.9801 0.73033 3.0025 0.69595 5.6921 0.0676 11.469 0.0811 17.203 8e-3 3.3541 0 10.062 0 10.062z"/>
   <path d="m104.6 179.17v-34.569l-17.609-9.0885s-8.1882 1.206-12.091 2.5156c-1.6174 0.54273-3.238 1.1982-4.6254 2.191-1.0734 0.76811-1.9775 1.7765-2.759 2.8402-0.8743 1.1899-1.5793 2.5171-2.1098 3.8951-0.37008 0.96122-0.60533 1.9801-0.73033 3.0025-0.69595 5.6921-0.0676 11.469-0.0811 17.203-8e-3 3.3541 0 10.062 0 10.062z"/>
  </g>
  <g fill="#fff">
   <path d="m113 127.25c1.747-2.1784 3.3375-4.4867 5.1934-6.573 0.33053-0.37155 0.58231-0.9002 1.0549-1.0549 0.33812-0.11069 0.73756 1e-3 1.0549 0.1623 0.47771 0.24208 0.76938 0.74574 1.1361 1.1361 1.2597 1.3408 3.6516 4.1385 3.6516 4.1385l-9.332 14.931s-0.65342 0.9432-1.1361 1.2172c-0.29584 0.16796-0.65981 0.25644-0.99754 0.21559-0.46924-0.0568-0.97097-0.25909-1.2746-0.62133-1.8489-2.2058-5.0312-6.573-5.0312-6.573s3.8038-4.6388 5.6803-6.9787z"/>
   <path d="m101.64 127.25c-1.747-2.1784-3.3375-4.4867-5.1934-6.573-0.33053-0.37155-0.58231-0.9002-1.0549-1.0549-0.33812-0.11069-0.73756 1e-3 -1.0549 0.1623-0.47771 0.24208-0.76938 0.74574-1.1361 1.1361-1.2597 1.3408-3.6516 4.1385-3.6516 4.1385l9.332 14.931s0.65342 0.9432 1.1361 1.2172c0.29584 0.16796 0.65981 0.25644 0.99754 0.21559 0.46924-0.0568 0.97097-0.25909 1.2746-0.62133 1.8489-2.2058 5.0312-6.573 5.0312-6.573s-3.8038-4.6388-5.6803-6.9787z"/>
   <ellipse cx="107.4" cy="144.66" rx="1.2337" ry="1.205" style="paint-order:normal"/>
   <ellipse cx="107.37" cy="139.78" rx="1.2337" ry="1.205" style="paint-order:normal"/>
  </g>
  <path d="m84.742 78.309c0.4507-0.36926 0 0 0 0s1.4476 0.27007 2.1804 0.2869c0.90196 0.02072 1.8106-0.06074 2.6969-0.22952 0.98082-0.18678 1.9277-0.52784 2.869-0.8607 1.2859-0.4547 2.5923-0.8915 3.7871-1.5493 0.9252-0.50933 1.7964-1.1304 2.5821-1.8362 0.83661-0.7515 1.617-1.587 2.2378-2.5247 0.49119-0.74188 0.9515-1.5421 1.1476-2.41 0.1391-0.61566 0-1.8935 0-1.8935s0.96465 0.87975 1.4919 1.2624c0.61862 0.44894 1.275 0.84812 1.9509 1.205 1.1661 0.61564 2.3955 1.1048 3.6149 1.6066 1.0972 0.4515 2.1992 0.89697 3.328 1.2624 1.1874 0.38436 2.3934 0.7192 3.6149 0.97546 1.6281 0.34157 3.2792 0.58184 4.9347 0.74594 1.2005 0.119 2.4117 0.25868 3.6149 0.17214 1.2048-0.08665 2.4102-0.31113 3.5576-0.68856 0.8452-0.27803 2.41-1.1476 2.41-1.1476s0.70494 3.0626 0.5738 4.5904c-0.16927 1.9721-0.57288 3.7822-0.80332 5.6806-0.15984 1.3168-0.19495 2.6489-0.40166 3.9592-0.28352 1.7972-0.73253 3.5649-1.1476 5.3363-0.60322 2.5745-1.177 5.1605-1.9509 7.6889-0.14874 0.48595-0.28891 0.98006-0.51641 1.4345-0.4512 0.90129-1.0442 1.7299-1.664 2.5247-0.7659 0.98209-1.6634 1.8546-2.5247 2.7542-0.5612 0.58613-1.1403 1.155-1.7214 1.7214-0.37784 0.36828-0.94359 0.60362-1.1476 1.0902-1.3018 3.1049-1.8197 7.3845 0.17214 10.099 0.17891 0.24382 0.60345 0.12791 0.8607 0.2869 0.27611 0.17065 0.46736 0.45101 0.68856 0.68856 1.3582 1.4586 3.916 4.518 3.916 4.518s0.90004 0.30989 1.363 0.41664c0.717 0.16534 1.4534 0.23096 2.1804 0.34428 1.2428 0.19372 2.4954 0.33169 3.7297 0.5738 0.88772 0.17412 1.7473 0.78067 2.6395 0.63118 0.24595-0.0412 0.42024-0.26864 0.63118-0.40167 0.30524-0.19251 0.73337-0.26376 0.91808-0.57379 0.15694-0.26342 0.0731-0.61186 0.0574-0.91808-0.0358-0.69714-0.26071-1.3726-0.34428-2.0657-0.1837-1.5234-0.2623-3.0582-0.34428-4.5904-0.15949-2.981-0.24259-5.9663-0.2869-8.9513-0.12065-8.128 0.20154-16.259 0.0574-24.386-0.0628-3.5404-0.0839-7.0886-0.40166-10.615-0.21846-2.4246-0.4354-4.8699-1.0328-7.2299-0.46039-1.8186-1.0889-3.6128-1.9509-5.279-0.94827-1.833-2.0737-3.6155-3.5002-5.1068-1.4728-1.5397-3.1924-2.9091-5.1068-3.8445-1.9672-0.9611-4.1801-1.3613-6.3413-1.7116-2.1776-0.35294-4.4013-0.42292-6.6069-0.38197-1.9004 0.03528-3.8167 0.14797-5.6765 0.54019-1.0827 0.22833-2.1351 0.60635-3.1501 1.0468-0.94892 0.41171-1.9203 0.83379-2.7264 1.482-0.29585 0.23793-0.57712 0.52064-0.74594 0.8607-0.16513 0.33264-0.23159 0.71885-0.22952 1.0902 9.85e-4 0.17634 0.11476 0.51642 0.11476 0.51642s-0.90462-0.8123-1.4443-1.0746c-0.52991-0.25754-1.1175-0.43125-1.7058-0.46312-0.90629-0.04909-1.8152 0.18153-2.6894 0.42543-0.74158 0.20689-1.4493 0.52952-2.1387 0.87224-1.2987 0.64558-2.6841 1.2277-3.7419 2.2198-1.3736 1.2882-2.3189 2.9934-3.1878 4.6641-0.74092 1.4246-1.2179 2.976-1.6952 4.5092-0.68146 2.189-1.1634 4.4363-1.6616 6.6741-0.37518 1.685-0.73829 3.375-0.99923 5.0814-0.19005 1.2429-0.29762 2.4973-0.4115 3.7494-0.1883 2.0705-0.41482 4.1421-0.4492 6.2208-0.03128 1.8914 0.1 3.783 0.22136 5.6708 0.10761 1.6738 0.3072 3.3405 0.4492 5.0117 0.20373 2.3978 0.39461 4.7968 0.57788 7.1963 0.11402 1.4928 0.16933 2.9906 0.32459 4.4797 0.13681 1.3121 0.43186 2.6063 0.53442 3.9215 0.14724 1.8882 0.17224 3.7876 0.11476 5.6806-0.02155 0.70968 0.07944 1.4591-0.17214 2.1231-0.13554 0.35771-0.40292 0.66364-0.68856 0.91808-0.19841 0.17674-0.53903 0.18201-0.68856 0.40166-0.14157 0.20796-0.17588 0.50191-0.11476 0.74594 0.06971 0.2783 0.27127 0.53953 0.51642 0.68856 0.19883 0.12087 0.46138 0.0644 0.68856 0.11476 0.34885 0.0773 0.6773 0.25129 1.0328 0.28689 0.26712 0.0268 0.53719-0.0221 0.80332-0.0574 2.6043-0.3454 5.46-0.19484 7.736-1.5069 1.8194-1.0488 2.6636-3.2557 4.1416-4.7476 0.1621-0.16361 0.3257-0.32992 0.51642-0.45904 0.14166-0.0959 0.29432-0.18333 0.45904-0.22952 0.22176-0.0622 0.45844-0.0478 0.68856-0.0574 0.07644-3e-3 0.17499 0.0537 0.22952 0 2.5361-2.4955 1.6239-7.4243 0.17214-10.673-0.46472-1.0398-1.7672-1.4421-2.5821-2.2378-0.61028-0.59597-1.1769-1.2369-1.7214-1.8935-0.74961-0.90403-1.4588-1.8431-2.1231-2.8116-0.58879-0.85848-1.2598-1.687-1.6472-2.6533-3.2548-6.4527-2.4993-13.534-2.9433-20.987z" fill="#444"/>
  <path d="m132.93 78.558-0.73033 2.8402-6.7352 6.4918-0.89262-2.4344 0.89262-0.73033 5.4369-5.1934 2.5967-1.6229z" fill="#444"/>
 </g>
</svg>
