<?xml version="1.0" encoding="UTF-8"?>
<!-- Created with Inkscape (http://www.inkscape.org/) -->
<svg width="440" height="440" version="1.1" viewBox="0 0 412.5 412.5" xmlns="http://www.w3.org/2000/svg" >
 <defs>
  <linearGradient id="linearGradient888" x1="268.42" x2="668.14" y1="409.04" y2="409.04" gradientTransform="translate(-731.41 -192.59)" gradientUnits="userSpaceOnUse">
   <stop offset="0"/>
  </linearGradient>
 </defs>
 <g transform="translate(0 -639.86)">
  <g transform="translate(468.48 639.91)">
   <g>
    <path class="cuerpo" d="m-460.54 338.86s21.066 8.9955 32.199 11.363c7.7438 1.6468 15.765 1.578 23.675 1.8938 9.1472 0.36527 18.401 1.2945 27.464 0 7.8125-1.116 15.772-2.9019 22.728-6.6284 6.9117-3.7026 13.268-8.8943 17.993-15.151 4.1726-5.5239 6.384-12.355 8.5232-18.938 2.3912-7.3593 3.7342-15.053 4.7351-22.726 1.5128-11.597 1.8218-23.34 1.894-35.036 0.0469-7.5818-0.67076-15.149-0.94702-22.726-0.36821-10.099-0.23058-20.221-0.94702-30.301-0.81056-11.404-3.3672-22.664-3.7881-34.089-0.31395-8.5223 0.36456-17.059 0.94702-25.567 0.4333-6.3294 0.73963-12.7 1.894-18.938 1.3097-7.0775 2.9562-14.17 5.6821-20.832 3.4252-8.3705 8.0875-16.253 13.258-23.673 4.8642-6.9803 10.162-13.819 16.573-19.412 9.4687-8.2601 20.151-15.467 31.725-20.359 8.9574-3.7858 18.787-5.2331 28.411-6.6284 10.64-1.5426 21.475-2.6687 32.199-1.8938 10.929 0.7898 21.934 2.792 32.199 6.6284 10.856 4.0576 20.759 10.472 30.305 17.044 8.3712 5.7637 16.279 12.286 23.446 19.493 6.7454 6.7835 12.744 14.329 18.223 22.171 3.5658 5.1032 6.8932 10.43 9.4702 16.098 6.1976 13.629 11.115 27.962 14.205 42.611 3.4687 16.441 4.6246 33.384 4.7351 50.187 0.0771 11.717-1.1639 23.44-2.8411 35.036-1.9848 13.724-4.2871 27.514-8.5232 40.717-5.2672 16.418-12.096 32.482-20.834 47.346-6.6228 11.265-14.493 21.95-23.675 31.248-10.115 10.244-21.424 19.675-34.093 26.514-12.034 6.4965-25.629 9.6752-38.828 13.257-8.3946 2.278-16.927 4.2291-25.569 5.2083-12.707 1.4396-25.566 0.85045-38.354 0.94681-16.415 0.12369-32.865 0.60991-49.245-0.47331-10.314-0.68208-20.543-2.3445-30.778-3.788-13.926-1.964-27.949-3.5333-41.669-6.6284-10.913-2.462-21.994-4.8841-32.199-9.4692-8.1492-3.6616-15.417-9.0695-22.728-14.204-4.5994-3.2299-9.3759-6.3525-13.258-10.416-5.6273-5.89-21.767-22.915-14.205-19.885z"
          fill="#dd64a2" stroke="url(#linearGradient888)" stroke-width="4.6875"/>
    <g fill="#fff" stroke="#000">
     <ellipse cx="-169.33" cy="104.13" rx="52.222" ry="51.749" stroke-width="5.3618"/>
     <ellipse cx="-257.8" cy="134.09" rx="25.097" ry="24.273" stroke-width="4.6875"/>
     <ellipse cx="-219.41" cy="175.68" rx="17.745" ry="16.921" stroke-width="4.6875"/>
    </g>
    <g fill="#d73886">
     <path d="m-460.54 336.98c-7.284 8.631 20.184 8.1496 30.722 10.714 6.1344 1.4929 12.471 2.0244 18.75 2.6786 8.4547 0.88073 16.992 2.5586 25.446 1.6741 3.6898-0.38602 7.1678-1.9242 10.714-3.0134 6.7476-2.0722 13.645-3.8153 20.089-6.6964 3.2858-1.4691 6.6916-2.9584 9.375-5.3571 5.3591-4.7904 9.5013-10.985 12.723-17.411 2.7217-5.4279 3.7967-11.543 5.3571-17.411 2.3519-8.8444 4.827-17.713 6.0268-26.786 0.70293-5.3155 0.47683-10.713 0.66964-16.071 0.26501-7.3647 0.95124-14.734 0.66964-22.098-0.24019-6.2812-1.3895-12.495-2.0089-18.75-0.97177-9.8139-3.3049-19.622-2.6786-29.464 0.69392-10.905-2.7269-22.733-2.6786-34.152 0.0436-10.307 1.3249-20.586 2.6786-30.804 0.83388-6.2939 1.2036-12.774 3.3482-18.75 2.3254-6.4793 6.6262-12.071 10.126-17.999 4.2867-7.261 7.8773-15.063 13.312-21.51 4.9938-5.9246 11.232-10.726 17.411-15.402 5.9248-4.4835 12.015-8.9149 18.75-12.054 6.1433-2.8632 12.857-4.3337 19.42-6.0268 6.4008-1.6512 12.844-3.3447 19.42-4.0179 6.4396-0.65918 12.951-0.23926 19.42 0 6.0392 0.22337 12.126 0.30762 18.08 1.3393 6.6164 1.1463 13.082 3.1366 19.42 5.3571 1.6043 0.56215 4.9211 3.6928 4.6875 2.0089-1.5477-11.157-4.4878-15.069-7.9545-24.222-2.5938-6.8486-14.895 3.8339-20.84 11.499-1.5947 2.0559-8.0085-17.027-18.08-17.411-4.7053-0.17925-8.8683 3.8982-12.054 7.3661-2.7011 2.9407-5.3571 10.714-5.3571 10.714-0.28018 0.87666-2.0018 1.2933-2.6786 0.66965-2.3603-2.1751-5.2227-8.258-12.054-7.7009-4.6147 0.37634-9.9719 1.6976-13.393 3.683-2.6675 1.5481-3.0851 2.6224-4.6875 8.3705-0.34951 1.2537 0.167 4.1661-1.3393 5.0223-3.095 1.7592-6.7959-2.158-10.274-2.9153-4.0522-0.88223-7.4448-3.5891-12.297-1.8871-6.4921 2.2771-4.7921 8.9405-5.5295 14.806-0.31744 2.5252 0.59822 5.9962-1.6979 7.4067-2.7323 1.6785-7.5117 2.5469-12.879 2.7766-4.1198 0.17638-13.275-1.9352-13.785 2.1476-1.082 8.6563 1.6342 14.264 2.7122 25.406 0.66054 6.8273-15.694-1.7098-19.24 6.5003-0.55975 1.296-1.3568 2.6062-1.3393 4.0179 0.10588 8.5429 4.9631 14.147 8.7054 24.107 0 0-13.372 1.7196-16.741 6.6964-1.5017 2.218-0.82224 5.4865 1e-5 8.0357 2.1108 6.5443 6.1878 11.505 12.054 16.741 0.74023 0.66079 2.1446 2.1598 1.2987 2.6786-6.6957 4.106-10.254 4.5376-13.017 9.0402-1.709 2.7847-2.2133 6.5616-1.3393 9.7098 2.3779 8.5655 13.091 13.012 16.741 20.759 0 0-8.9964 1.5865-12.388 4.3527-3.026 2.4677-5.7884 6.1473-6.0268 10.045-0.33558 5.4858 3.3886 10.678 6.6964 15.067 3.2423 4.3023 8.6794 7.0684 12.388 10.379 2.9876 2.667-15.441 4.2968-15.737 11.719-0.0536 1.3475-0.3954-0.97608-0.66965 0.33483-2.012 9.6175 12.427 14.23 18.75 20.424 2.3765 2.328-13.842 2.547-20.759 8.7054-2.2026 1.961-4.6266 4.4618-2.6786 7.3661 6.482 9.6637 14.662 14.356 18.75 21.429 2.4601 4.2559-9.8328 0.26779-14.732 0.66965-5.2561 0.43112-12.304 0.74859-13.728 3.3482-1.0779 1.9677-1.4016 2.2539-1.0045 7.3661 0.41757 5.3753 3.1869 10.181 4.6875 15.402 0 0 8.0605 10.845 4.3695 9.5711-11.114-3.8357-31.257-23.3-32.495-15.557-1.4308 8.9524-1.599 11.553-2.0089 27.415-0.33057 12.79-12.615-13.511-24.107-22.768-5.4023-4.3515-6.7131-2.257-10.714 1.3393-2.9606 2.661-7.5858 18.815-6.6964 21.429 2.3111 6.7907-13.207-38.369-21.55-30.215-5.5892 5.4623-6.5177 8.6688-14.529 18.162z" stroke="#000" stroke-width="4.6875"/>
     <g stroke="#000200">
      <path d="m-220.86 107.25s0.11777-6.5128 0.66963-9.7098c0.49287-2.8553 1.3622-5.6444 2.3438-8.3705 1.4895-4.1368 2.9823-8.3533 5.3572-12.054 2.7334-4.2589 6.2711-8.0119 10.045-11.384 5.0792-4.5388 10.455-9.0957 16.741-11.719 3.4547-1.4415 7.3079-1.8794 11.049-2.0089 3.0301-0.10488 6.0519 0.49168 9.0402 1.0045 3.3886 0.58149 6.7754 1.2794 10.045 2.3438 2.996 0.97538 5.9314 2.1887 8.7054 3.683 3.5427 1.9084 6.9327 4.1452 10.045 6.6964 1.4647 1.2008 0 0 4.0179 4.0178 1.2046 1.2046-1.5227 3.1012-2.6786 4.3527-2.4385 2.6402-5.7535 4.3113-8.7054 6.3616-5.161 3.5847-10.294 7.2389-15.737 10.379-5.4039 3.1182-10.866 6.2713-16.741 8.3705-5.7113 2.0406-11.789 2.8745-17.746 4.0179-5.7212 1.0983-11.46 2.2815-20.759 3.683-1.8794 0.28325-6.0094 2.2087-5.692 0.33482z" stroke-width="4.6875"/>
      <path d="m-282.19 136.21s0.0579-3.204 0.32943-4.7768c0.24247-1.4047 0.67012-2.7768 1.153-4.118 0.73279-2.0351 1.4672-4.1095 2.6355-5.9298 1.3447-2.0952 3.0852-3.9415 4.9415-5.6004 2.4988-2.2329 5.1432-4.4747 8.2359-5.7651 1.6996-0.70916 3.5952-0.9246 5.4357-0.98831 1.4907-0.0515 2.9773 0.24189 4.4474 0.49414 1.667 0.28608 3.3332 0.62943 4.9415 1.153 1.4739 0.47986 2.918 1.0768 4.2827 1.8119 1.7429 0.93887 3.4106 2.0393 4.9415 3.2944 0.7206 0.59074 0 0 1.9766 1.9766 0.59263 0.59262-0.74912 1.5256-1.3178 2.1413-1.1996 1.2989-2.8305 2.121-4.2827 3.1296-2.539 1.7635-5.0642 3.5612-7.7417 5.1063-2.6585 1.534-5.3455 3.0852-8.2359 4.1179-2.8097 1.0039-5.7999 1.4141-8.73 1.9766-2.8146 0.54029-5.6377 1.1224-10.213 1.8119-0.92457 0.13936-2.9564 1.0866-2.8002 0.16472z" stroke-width="4.6875"/>
      <path d="m-237.4 178.31s0.0408-2.2582 0.23219-3.3667c0.17089-0.99002 0.4723-1.9571 0.81265-2.9024 0.51647-1.4344 1.0341-2.8964 1.8575-4.1794 0.94778-1.4767 2.1744-2.778 3.4828-3.9472 1.7612-1.5738 3.625-3.1538 5.8047-4.0633 1.1979-0.49982 2.5339-0.65166 3.8311-0.69656 1.0506-0.0363 2.0984 0.17048 3.1346 0.34827 1.1749 0.20163 2.3492 0.44363 3.4828 0.81266 1.0388 0.33821 2.0566 0.75892 3.0185 1.277 1.2284 0.66172 2.4038 1.4373 3.4828 2.3219 0.50789 0.41636 0 0 1.3931 1.3931 0.41769 0.41768-0.52798 1.0753-0.92875 1.5092-0.8455 0.91547-1.995 1.4949-3.0184 2.2058-1.7895 1.2429-3.5693 2.51-5.4564 3.5989-1.8737 1.0812-3.7676 2.1745-5.8047 2.9024-1.9803 0.70754-4.0878 0.99669-6.153 1.3931-1.9837 0.3808-3.9735 0.79107-7.1978 1.277-0.65164 0.0982-2.0837 0.76585-1.9736 0.1161z" stroke-width="3.75"/>
     </g>
    </g>
    <g stroke="#000200">
     <circle cx="-149.14" cy="131.5" r="14.366" stroke-width="4.3758"/>
     <circle cx="-254.27" cy="147.54" r="9.0238" stroke-width="2.7487"/>
     <circle cx="-216.41" cy="184.46" r="5.3255" stroke-width="1.6221"/>
    </g>
   </g>
   <path d="m-206.12 212.56c9.6192-1.8417 17.928-3.0055 26.451-6.0268 14.772-5.2363 28.973-12.332 42.188-20.759 8.7001-5.5483 16.675-12.262 24.107-19.42 4.9004-4.7194 9.778-9.6381 13.393-15.402 0 0 9.2449 2.5774 11.384 6.3616 1.7034 3.0135 1.1928 7.2732-0.33483 10.379-1.0847 2.2056-3.3494 3.9436-5.692 4.6875-2.8799 0.91456-6.4001 0.80009-9.0402-0.66965-2.6527-1.4767-5.3572-7.3661-5.3572-7.3661-3.172-1.4691 4.1058 6.901 4.0179 10.714-0.0588 2.5492-1.0397 5.4167-3.0134 7.0312-2.1178 1.7324-5.4956 2.6911-8.0357 1.6741-3.65-1.4614-6.6964-9.7098-6.6964-9.7098 1.5453 3.8294 5.7898 9.601 5.0223 14.732-0.36656 2.4508-2.2929 4.649-4.3527 6.0268-2.0026 1.3395-4.7074 2.3099-7.0312 1.6741-4.3395-1.1873-9.7098-9.375-9.7098-9.375-2.489-1.2659 2.0693 6.6733 1.6741 10.045-0.26787 2.2852-1.1981 4.6003-2.6786 6.3616-1.1952 1.4219-2.9243 2.4289-4.6875 3.0134-3.0795 1.0208-6.7598 2.0198-9.7098 0.66963-3.0445-1.3934-6.0268-8.0357-6.0268-8.0357 0.20413 2.5588 1.7584 6.7653 1.0045 10.045-0.76347 3.3206-2.5688 6.7472-5.3571 8.7054-2.2391 1.5725-5.3523 2.2083-8.0357 1.6741-2.9146-0.58024-5.531-2.6848-7.3661-5.0223-1.1777-1.5001-3.0134-7.1429-2.0089-5.3572 3.0134 5.3572 0.26471 6.2867-1.0045 9.0402-1.0246 2.223-2.912 4.117-5.0223 5.3571-1.9837 1.1658-4.3978 1.7743-6.6964 1.6741-3.4204-0.14902-7.4841-0.74679-9.7098-3.3482-2.0637-2.4121-4.9717-8.7436-1.6741-9.375z" fill="#fff" stroke="#000" stroke-width="4.6875"/>
  </g>
 </g>
</svg>
