<svg version="1.1" viewBox="0 0 1029 535" preserveAspectRatio="xMinYMin meet" xmlns="http://www.w3.org/2000/svg">

  <defs>
    <linearGradient id="grad1"   x1="0%" y1="0%" x2="0%" y2="70%">
      <stop offset="0%" style="stop-color:rgb(251,251,252); stop-opacity:1"/>
      <stop offset="100%" style="stop-color:rgb(217,218,220); stop-opacity:1"/>
    </linearGradient>
  </defs>

  <rect class="principal" width="1029" height="535" fill="url(#grad1)"/>

  <polyline points="0,0 30,0 514.5,267.5 0,30"/>
  <polyline points="240,0 514.5,267.5 300,0"/>
  <polyline points="480,0 514.5,267.5 540,0"/>
  <polyline points="730,0 514.5,267.5 800,0"/>
  <polyline points="1010,0 514.5,267.5 1029,35 1029,0"/>
  <polyline points="1029,190 514.5,267.5 1029,250"/>
  <polyline points="1029,410 514.5,267.5 1029,470"/>
  <polyline points="840,535 514.5,267.5 920,535"/>
  <polyline points="550,535 514.5,267.5 620,535"/>
  <polyline points="350,535 514.5,267.5 270,535"/>
  <polyline points="30,535 514.5,267.5 0,500 0,535"/>
  <polyline points="0,340 514.5,267.5 0,280"/>
  <polyline points="0,130 514.5,267.5 0,190"/>


  <pattern id="patron-punto" x="0" y="0" width="20" height="20" patternUnits="userSpaceOnUse">
    <circle  cx="5" cy="5" r="5" fill="#A0A1A5"/>
  </pattern>

  <circle cx="525" cy="265" r="250" fill="url(#patron-punto)"/>

/*se da estilos al svg*/
  <style>
    polyline{
      fill: #cccacf;
      stroke: none;
    }
  </style>

</svg>
