<?xml version="1.0" encoding="UTF-8"?>

<svg width="535" height="1000" version="1.1" viewBox="0 0 535 1000" xmlns="http://www.w3.org/2000/svg">

 <rect x="0" y="0" width="535" height="1000" fill="red" stroke=""/>

 <polyline fill="gold" points="0,0 30,0 220.5,180.5 0,50"/>
 <polyline fill="gold" points="90,0 220.5,180.5 120,0"/>
 <polyline fill="gold" points="170,0 220.5,180.5 210,0"/>
 <polyline fill="gold" points="260,0 220.5,180.5 290,0"/>
 <polyline fill="gold" points="400,0 220.5,180.5 420,0"/>
 <polyline fill="gold" points="1029,250 220.5,180.5 1029,370"/>
 <polyline fill="gold" points="800,1000 220.5,180.5 1000,1690"/>
 <polyline fill="gold" points="840,2835 220.5,180.5 900,2800"/>
 <polyline fill="gold" points="590,4535 220.5,180.5 640,4000"/>
 <polyline fill="gold" points="0,2835 220.5,180.5 190,1000"/>
 <polyline fill="gold" points="0,800 220.5,180.5 0,600"/>
 <polyline fill="gold" points="0,490 220.5,180.5 0,420"/>
 <polyline fill="gold" points="0,310 220.5,180.5 0,330"/>
 <polyline fill="gold" points="0,150 220.5,180.5 0,180"/>

 <circle cx="200" cy="285" r="7" fill="gold"/>
 <circle cx="195" cy="313" r="6" fill="gold"/>
 <circle cx="191" cy="332" r="5" fill="gold"/>
 <circle cx="188" cy="347" r="4" fill="gold"/>
 <circle cx="185" cy="360" r="3" fill="gold"/>
 <circle cx="183" cy="370" r="2" fill="gold"/>

 <circle cx="175" cy="277" r="7" fill="gold"/>
 <circle cx="161" cy="303" r="6" fill="gold"/>
 <circle cx="152" cy="319" r="5" fill="gold"/>
 <circle cx="143" cy="332" r="4" fill="gold"/>
 <circle cx="136" cy="342" r="3" fill="gold"/>
 <circle cx="129" cy="352" r="2" fill="gold"/>

 <circle cx="155" cy="265" r="7" fill="gold"/>
 <circle cx="119" cy="297" r="5" fill="gold"/>
 <circle cx="107" cy="307" r="4" fill="gold"/>
 <circle cx="96" cy="315" r="3" fill="gold"/>
 <circle cx="88" cy="322" r="2" fill="gold"/>

 <circle cx="137" cy="247" r="7" fill="gold"/>
 <circle cx="113" cy="264" r="6" fill="gold"/>
 <circle cx="96" cy="273" r="5" fill="gold"/>
 <circle cx="83" cy="280" r="4" fill="gold"/>
 <circle cx="71" cy="286" r="3" fill="gold"/>
 <circle cx="61" cy="291" r="2" fill="gold"/>

 <circle cx="123" cy="225" r="7" fill="gold"/>
 <circle cx="98" cy="239" r="6" fill="gold"/>
 <circle cx="81" cy="248" r="5" fill="gold"/>
 <circle cx="68" cy="254" r="4" fill="gold"/>
 <circle cx="56" cy="260" r="3" fill="gold"/>
 <circle cx="45" cy="265" r="2" fill="gold"/>

 <circle cx="115" cy="200" r="7" fill="gold"/>
 <circle cx="88" cy="205" r="6" fill="gold"/>
 <circle cx="68" cy="208" r="5" fill="gold"/>
 <circle cx="53" cy="210" r="4" fill="gold"/>
 <circle cx="40" cy="212" r="3" fill="gold"/>
 <circle cx="29" cy="214" r="2" fill="gold"/>

 <circle cx="119" cy="147" r="7" fill="gold"/>
 <circle cx="92" cy="135" r="6" fill="gold"/>
 <circle cx="74" cy="128" r="5" fill="gold"/>
 <circle cx="60" cy="122" r="4" fill="gold"/>
 <circle cx="49" cy="117" r="3" fill="gold"/>
 <circle cx="38" cy="112" r="2" fill="gold"/>

 <circle cx="129" cy="123" r="7" fill="gold"/>

 <circle cx="147" cy="102" r="7" fill="gold"/>
 <circle cx="125" cy="83" r="6" fill="gold"/>
 <circle cx="110" cy="70" r="5" fill="gold"/>
 <circle cx="98" cy="61" r="4" fill="gold"/>
 <circle cx="88" cy="53" r="3" fill="gold"/>
 <circle cx="80" cy="45" r="2" fill="gold"/>

 <circle cx="170" cy="86" r="7" fill="gold"/>
 <circle cx="155" cy="60" r="6" fill="gold"/>
 <circle cx="145" cy="44" r="5" fill="gold"/>
 <circle cx="138" cy="31" r="4" fill="gold"/>
 <circle cx="133" cy="20" r="3" fill="gold"/>
 <circle cx="127" cy="9" r="2" fill="gold"/>

 <circle cx="195" cy="76" r="7" fill="gold"/>
 <circle cx="187" cy="50" r="6" fill="gold"/>
 <circle cx="180" cy="30" r="5" fill="gold"/>
 <circle cx="176" cy="16" r="4" fill="gold"/>
 <circle cx="173" cy="5" r="3" fill="gold"/>

 <circle cx="221" cy="73" r="7" fill="gold"/>
 <circle cx="220" cy="45" r="6" fill="gold"/>
 <circle cx="219" cy="25" r="5" fill="gold"/>
 <circle cx="219" cy="11" r="4" fill="gold"/>


 <circle cx="248" cy="77" r="7" fill="gold"/>

 <circle cx="272" cy="86" r="7" fill="gold"/>
 <circle cx="286" cy="61" r="6" fill="gold"/>
 <circle cx="295" cy="44" r="5" fill="gold"/>
 <circle cx="309" cy="21" r="3" fill="gold"/>
 <circle cx="303" cy="31" r="4" fill="gold"/>
 <circle cx="315" cy="10" r="2" fill="gold"/>

 <circle cx="294" cy="102" r="7" fill="gold"/>
 <circle cx="314" cy="81" r="6" fill="gold"/>
 <circle cx="328" cy="68" r="5" fill="gold"/>
 <circle cx="339" cy="58" r="4" fill="gold"/>
 <circle cx="347" cy="49" r="3" fill="gold"/>
 <circle cx="356" cy="40" r="2" fill="gold"/>

 <circle cx="310" cy="122" r="7" fill="gold"/>
 <circle cx="334" cy="105" r="6" fill="gold"/>
 <circle cx="349" cy="94" r="5" fill="gold"/>
 <circle cx="362" cy="85" r="4" fill="gold"/>
 <circle cx="373" cy="79" r="3" fill="gold"/>
 <circle cx="383" cy="73" r="2" fill="gold"/>

 <circle cx="322" cy="147" r="7" fill="gold"/>
 <circle cx="350" cy="138" r="6" fill="gold"/>
 <circle cx="368" cy="133" r="5" fill="gold"/>
 <circle cx="382" cy="128" r="4" fill="gold"/>
 <circle cx="394" cy="124" r="3" fill="gold"/>
 <circle cx="404" cy="120" r="2" fill="gold"/>

 <circle cx="326" cy="173" r="7" fill="gold"/>
 <circle cx="356" cy="169" r="6" fill="gold"/>
 <circle cx="375" cy="168" r="5" fill="gold"/>
 <circle cx="390" cy="167" r="4" fill="gold"/>
 <circle cx="402" cy="166" r="3" fill="gold"/>
 <circle cx="413" cy="165" r="2" fill="gold"/>

 <circle cx="317" cy="224" r="7" fill="gold"/>
 <circle cx="344" cy="235" r="6" fill="gold"/>
 <circle cx="361" cy="244" r="5" fill="gold"/>
 <circle cx="375" cy="252" r="4" fill="gold"/>
 <circle cx="385" cy="259" r="3" fill="gold"/>
 <circle cx="395" cy="265" r="2" fill="gold"/>

 <circle cx="302" cy="248" r="7" fill="gold"/>
 <circle cx="326" cy="264" r="6" fill="gold"/>
 <circle cx="343" cy="275" r="5" fill="gold"/>
 <circle cx="354" cy="283" r="4" fill="gold"/>
 <circle cx="365" cy="291" r="3" fill="gold"/>
 <circle cx="374" cy="298" r="2" fill="gold"/>

 <circle cx="282" cy="267" r="7" fill="gold"/>
 <circle cx="300" cy="289" r="6" fill="gold"/>
 <circle cx="311" cy="305" r="5" fill="gold"/>
 <circle cx="320" cy="317" r="4" fill="gold"/>
 <circle cx="327" cy="328" r="3" fill="gold"/>
 <circle cx="334" cy="338" r="2" fill="gold"/>

 <circle cx="259" cy="279" r="7" fill="gold"/>
 <circle cx="270" cy="306" r="6" fill="gold"/>
 <circle cx="278" cy="324" r="5" fill="gold"/>
 <circle cx="284" cy="338" r="4" fill="gold"/>
 <circle cx="289" cy="350" r="3" fill="gold"/>
 <circle cx="293" cy="361" r="2" fill="gold"/>

 <circle cx="229" cy="286" r="7" fill="gold"/>
 <circle cx="232" cy="315" r="6" fill="gold"/>
 <circle cx="234" cy="335" r="5" fill="gold"/>
 <circle cx="236" cy="349" r="4" fill="gold"/>
 <circle cx="237" cy="361" r="3" fill="gold"/>
 <circle cx="238" cy="373" r="2" fill="gold"/>
</svg>
