<?xml version="1.0" encoding="UTF-8"?>
<svg width="566" height="278" version="1.1" viewBox="0 0 149.75 73.554" xmlns="http://www.w3.org/2000/svg">

 <path d="m27.509 51.019-1.8462-9.231-1.1624-1.3676 0.20513-1.5043-0.82053 0.20514 0.13676-1.1624-0.82053 0.27351 0.47864-0.95729-1.094-0.0684 0.82053-0.95728-1.2992 0.13675 0.68378-0.88891h-0.75215l0.34189-0.75215-0.75215-0.13675 0.6154-0.47865h-1.1624l0.82053-1.094-0.75216 0.20513 0.68378-0.75215-1.2992 0.13675 1.4359-0.75215-1.7094 0.20513 0.75215-0.75215h-1.0257l0.82053-0.82053-1.2992 0.41026 0.47864-1.094-1.0257 0.41027 0.54702-1.0257-1.094 0.41027 0.54702-1.2992-0.88891 0.34189 0.68378-0.95728-1.1624 0.20513-0.88891 0.34189 0.88891-1.2992-1.4359 0.6154-0.06838-1.1624-0.95729 0.54702 1.017-1.9536s0.24966-0.66898 0.28221-1.0551c0.3986-1.8253-0.3962-2.5464-1.5043-0.88895-0.42044 0.35143-0.62576 1.5433-0.62576 1.5433l-0.3999 1.6705-0.6154-0.6154-0.34189 0.68378-0.88891-1.1624-0.06838 1.0257s0.4481-1.8089 0.20513-2.6667c-0.08449-0.29828-0.39202-1.6536-0.69414-1.7231-0.57558-0.28619-0.87043 0.0321-1.0257 0.54702-0.47113 0.80736 0.2155 3.7745 0.2155 3.7745l-0.88891-0.75215-0.13676 1.0257-0.82053-0.88891-0.06838 1.094s-0.78398-1.454-1.1624-2.1881c-1.5677-2.97-3.5136-1.4368-1.9692 0.62571 0.36906 0.73752 1.7641 1.9042 1.7641 1.9042l-0.82053-0.20513 0.20513 0.95729-1.2308-0.27351 0.6154 0.95728s-1.9966-2.0487-2.7542-2.6892c-0.78603-0.44818-1.7298-0.52586-1.9862-0.23538-0.24322 0.27552-0.3765 1.29 0.25445 1.9178 0.76626 0.83636 3.2552 1.9639 3.2552 1.9639l0.41026 0.20513-1.0257-0.13675 0.75215 0.82053-1.0257 0.0684 0.88891 0.68377-1.2992 0.13676 0.88891 0.61539-0.88891 0.41027 0.54702 0.41027-1.094 0.88891 1.1624 0.34188-1.2308 0.68378 1.094 0.41027-0.88891 0.68377 0.95729 0.41027-0.68378 0.75215 0.75215 0.41027-0.82053 0.6154 0.88891 0.68377-0.6154 0.82053 1.094 0.34189-0.41027 1.0257 0.82053 0.27351-0.75215 1.2992 1.4359 0.54702-0.54702 0.82053 1.1624 0.20513-0.47864 1.0257 1.3676-0.0684-0.88891 1.3676 1.0257-0.47864-0.27351 0.75215h0.82053l-0.34189 0.95729 1.2992-0.0684-0.34189 1.5043 0.82053-0.41027-0.34189 1.5043 1.094-0.27351-0.47864 0.88891 0.82053-0.34189-0.41026 1.0257 1.2308-0.54702-0.47864 1.4359 0.88891-0.47864-0.20513 1.2308 1.094-0.68378-0.06838 1.2992 0.68378-0.47865 0.20513 0.95729 0.82053-0.20513v1.1624l0.95729-0.54702-0.20514 1.094 0.88891-0.47865v1.2308l1.0257-0.47864v1.094l1.0257-0.41027 0.34189 1.1624 0.88891-0.88891v1.5727l0.75215-1.094 0.27351 0.88891 1.3676-0.0684z" fill="#3cabbe"/>
 <g fill="#123b41">
  <path d="m5.0355 29.423c0.44541 0.30708 1.2627-0.82524 0.89038-1.2314-0.5213-0.56869-1.9628-2.0808-2.3588-2.3712-0.594-0.43556-1.5217-0.79667-2.1161-0.39482-0.29696 0.20075-0.2811 0.70293-0.21097 1.0544 0.0999 0.50076 0.47965 0.92445 0.85394 1.2718 0.82663 0.76711 2.0435 1.052 2.9416 1.6712z"/>
  <path d="m7.2887 26.861c0.37598 0.60202 1.7722 0.32526 1.4558-0.31241-0.3153-0.63545-0.85536-1.6552-1.3036-2.3944-0.50624-0.72154-0.63129-1.1046-1.3832-1.3975-0.28561-0.0137-0.61168 0.0216-0.7906 0.24461-0.19407 0.24193-0.13117 0.84524-0.07818 1.1508 0.07114 0.41021 0.34556 0.77249 0.62416 1.0819 0.53279 0.59164 1.305 1.627 1.4758 1.627z"/>
  <path d="m10.71 26.01c0.29983 0.35591 0.87998 0.33688 1.187 0.0857 0.58035-0.47472 0.33221-1.4827 0.28602-2.2311-0.03135-0.5079-0.25686-0.98482-0.37886-1.4788-0.09306-0.37684-0.36856-0.87485-0.89029-0.70552-0.41514 0.13475-0.46393 0.76247-0.54217 1.1919-0.14781 0.81125 0.03266 1.6543 0.16431 2.4684 0.03681 0.22762 0.15331 0.43984 0.17396 0.66949 1e-6 1e-5 -3e-6 4e-5 -3e-6 4e-5z"/>
  <path d="m14.145 26.325c-0.38917-0.72442 0.19878-1.6364 0.39276-2.4355 0.04648-0.19145 0.09602-0.38538 0.1839-0.5617 0.13702-0.2749 0.31769-0.53101 0.52666-0.75613 0.13023-0.14029 0.26612-0.29558 0.44553-0.36231 0.18273-0.068 0.42409-0.12786 0.58464-0.0173 0.18995 0.13086 0.18895 0.42614 0.22738 0.65358 0.04092 0.24217 0.03204 0.4933 0 0.73681-0.06655 0.50588-0.17536 1.0185-0.39591 1.4786-0.28882 0.60253-0.5385 1.4472-1.1848 1.6169-0.27609 0.0725-0.6451-0.10158-0.78019-0.35304z"/>
 </g>
 <path d="m116.59 53.808 3.8351-10.007 0.5195-2.3503 0.70615 0.35308-0.35308-1.6477 0.94154 0.70616 0.1177-1.8831 0.94154 0.70615 0.11769-1.7654 1.1769 0.70616-0.70616-1.8831 1.7654 0.82385-1.4123-1.7654 2.0008 0.58846-1.2946-1.4123 1.8831-0.23539-1.1769-1.0592 1.7654-0.47077-0.70616-1.8831 1.4123-0.35308-0.70615-1.53 0.94154-0.47077-0.94154-1.1769 1.4123-0.11769-0.47077-1.2946 2.0008-0.11769-1.1769-1.0592 2.1185 0.35308-0.11769-1.53 1.4123 0.82385s-1.2853-2.6404-1.0592-4.0016c0.0927-0.55815 0.3816-1.3311 0.94154-1.4123 0.60646-0.088 1.1267 0.63472 1.4123 1.1769 0.58758 1.1156 0.35308 3.7662 0.35308 3.7662l0.82385-1.53 0.35307 1.4123 0.58847-1.4123 0.94154 1.7654s-0.5355-2.964-0.1177-4.3546c0.13778-0.45862 0.34594-1.1465 0.82385-1.1769 0.58203-0.037 0.981 0.74531 1.1769 1.2946 0.50152 1.4061-0.23539 4.4723-0.23539 4.4723l1.0592-1.1769 0.11769 1.4123 1.2946-0.47077v1.7654s0.63566-3.1418 1.7654-4.1192c0.46057-0.39849 1.2616-0.81291 1.7654-0.47077 0.55554 0.37725 0.38967 1.3472 0.23539 2.0008-0.34499 1.4614-2.4716 3.7662-2.4716 3.7662l1.6477-0.47077-1.2946 1.2946 1.7654-0.35308-1.0592 1.2946s2.078-2.0823 3.4131-2.5892c0.4782-0.18157 1.1885-0.49848 1.53-0.11769 0.42641 0.47542 0.0286 1.371-0.35308 1.8831-0.92279 1.2379-4.1192 2.1185-4.1192 2.1185l1.2946 0.70616-0.70616 0.94154 1.2946 1.1769-1.53 0.11769 1.2946 1.0592-1.2946 0.58846 1.4123 1.4123h-1.8831l1.0592 1.6477-1.1769-0.35308 0.82385 2.0008-1.6477-0.1177 0.82385 1.8831-1.2946-0.23539 0.70616 1.7654-1.2946 0.11769 1.0592 2.1185-1.7654-0.1177 0.23538 1.7654-2.0008 0.1177 1.1769 1.7654h-1.6477l0.23538 1.2946-0.94154 0.1177 0.47077 1.7654-2.0008-0.94155 0.35308 1.7654-1.6477-0.70615 0.47077 2.3538-1.4123-0.82385-0.11769 2.1185-1.2946-1.7654-0.11769 2.2362-1.53-1.0592v2.3539l-1.53-1.0592 0.11769 2.2362-1.6477-1.53-0.23539 1.6477-1.0592-0.58846-1.2946 1.1769z" fill="#3cabbe"/>
 <g fill="#123b41">
  <path d="m132.6 24.856c0.27544 0.50041 1.5892 0.0974 1.6477-0.47077 0.0738-0.71731 0.0703-1.0001 0.0588-1.5006-0.0106-0.46251-0.0223-0.93019-0.11769-1.3829-0.0748-0.35509-0.18441-0.7085-0.35308-1.0298-0.13038-0.24837-0.2993-0.48095-0.50019-0.67673-0.17148-0.16711-0.35207-0.37387-0.58846-0.41193-0.20219-0.0326-0.41463 0.0683-0.58847 0.17654-0.15906 0.099-0.28696 0.25074-0.3825 0.41193-0.14233 0.24012-0.2201 0.51889-0.26481 0.79442-0.0377 0.23234-0.0254 0.47214 0 0.70615 0.0444 0.40929 0.14751 0.81172 0.26481 1.2064 0.22109 0.74383 0.45407 1.5054 0.82389 2.1773z"/>
  <path d="m136.95 24.62c0.15901 0.53153 1.4969 0.76931 1.6477 0.23539 0.11335-0.40127 0.16852-0.7628 0.23539-1.1475 0.0713-0.40996 0.14704-0.82072 0.17654-1.2358 0.0313-0.44024 0.0389-0.88441 0-1.324-0.0246-0.27787-0.0513-0.56187-0.14712-0.82385-0.074-0.20221-0.19726-0.38472-0.32365-0.55904-0.14678-0.20244-0.28964-0.42417-0.5002-0.55904-0.11233-0.072-0.25039-0.13617-0.3825-0.11769-0.23169 0.0324-0.50777 0.16291-0.58846 0.3825-0.16922 0.46051-0.24072 0.78486-0.35308 1.1769-0.0973 0.33955-0.0165 0.78496-2e-5 1.1769 0.0393 0.93421 6e-3 2.0269 0.23541 2.7952z"/>
  <path d="m141.07 26.386c0.19754 0.54873 0.85078 1.5553 1.2946 1.1769 0.42578-0.36295 0.85779-0.93404 1.2358-1.4417 0.29244-0.39279 0.56787-0.80163 0.79442-1.2358 0.16684-0.31971 0.30975-0.65454 0.41193-1.0004 0.12154-0.41139 0.28797-0.83946 0.23538-1.2652-0.0317-0.25698-0.1588-0.50649-0.32365-0.70616-0.10743-0.13012-0.24671-0.25995-0.41193-0.29423-0.27499-0.0571-0.56512 0.0673-0.82385 0.17654-0.26061 0.11005-0.49946 0.27762-0.70615 0.47077-0.23505 0.21966-0.42683 0.48684-0.58846 0.765-0.16564 0.28506-0.26384 0.60452-0.3825 0.91212-0.12728 0.32992-0.2412 0.66493-0.35308 1.0004-0.11384 0.34134-0.24401 0.67891-0.32366 1.0298-0.0307 0.13526-0.10582 0.28142-0.0588 0.41192z"/>
  <path d="m143.42 29.328s0.0183 1.373 0.47077 1.2946c0.54312-0.0941 1.15-0.35964 1.7065-0.58846 0.52337-0.2152 1.0504-0.43531 1.53-0.73558 0.3077-0.19262 0.61722-0.40094 0.85327-0.67673 0.21991-0.25693 0.39987-0.55973 0.50019-0.8827 0.0672-0.21624 0.0896-0.45239 0.0589-0.67673-0.0227-0.16605-0.0549-0.35544-0.17654-0.47077-0.14179-0.13448-0.36365-0.17313-0.55904-0.17654-0.1832-3e-3 -0.35743 0.0845-0.52962 0.14712-0.33411 0.1215-0.6584 0.27194-0.97096 0.44135-0.33728 0.1828-0.66599 0.38516-0.97097 0.61788-0.56854 0.43383-1.0471 0.97488-1.5888 1.4417-0.1056 0.091-0.3237 0.26481-0.3237 0.26481z"/>
 </g>
 <g>
  <path d="m20.71 72.258 105.03-0.13676h1.6411l-3.0086-0.41026 3.1454-1.3676-2.8719-0.68377 3.6924-1.6411-3.4189-0.13676 3.0086-1.6411-2.7351-0.27351 3.2821-2.7351h-3.5556l2.4616-2.5983h-3.6924l4.1027-2.5984-3.6924 0.13676 3.4189-1.6411-3.8292-0.54702 4.9232-2.3248h-5.1967l1.9146-1.094-2.3248-0.95729 2.3248-1.2308-3.0086 0.13676 2.1881-2.1881-2.3248 0.54702 2.3248-1.9146-1.7778-0.95728 1.9146-0.82053-3.0086-0.13676 1.5043-1.6411h-3.6924l3.1454-1.6411-3.4189-0.13676 3.0086-1.3676-2.3248 0.27351 2.3248-1.2308-3.1454-1.094 3.0086-1.094-3.0086-0.68378 1.9146-1.094-2.5984-0.82053 2.4616-1.3676-3.6924-0.41027 2.8718-1.2308-3.1454 0.13675 2.5984-2.4616-3.2821 0.95728 3.0086-3.1454-3.8291 0.54703 2.1881-2.4616-3.5556 1.2308 2.7351-2.7351-3.0086 0.68378 1.3676-1.9146h-2.7351l1.3676-1.9146-3.6924 1.094 2.4616-2.8719-4.5129 2.3248 2.7351-3.0086-2.5984 1.094 0.54702-3.6924-3.2821 2.5984 1.3676-4.5129-2.5984 1.9146-0.27351-3.4189-2.7351 1.9146 0.54702-3.1454-2.7351 1.5043 0.2735-3.1454-1.7778 2.0513-0.68377-3.0086-1.9146 1.2308-0.68377-3.1454-2.0513 1.2308 0.27351-1.7778-3.0086 0.68378-1.3676-1.7778-2.0513 1.9146-0.41028-2.4616-2.8719 1.7778-1.094-2.0513-1.6411 2.3248-1.7778-2.7351-2.5984 1.5043-2.1881-1.6411-0.9573 1.3676-2.5983-1.7778-1.2308 2.4616-3.2821-3.9659 0.82053 3.6924-3.1454-1.9146-0.27351 2.1881-3.1454-2.3248-0.95729 2.4616-1.7778-2.1881-0.82053 2.4616-2.0513-1.2308-1.2308 2.3248-1.9146-1.2308-0.41027 2.5983-1.9146-2.1881v3.4189l-2.3248-1.9146 0.54702 2.8719-3.4189-1.9146 1.9146 3.4189-3.9659-2.5984 1.6411 3.2821-1.7778-0.68377 0.13676 1.7778-2.7351-1.9146 0.68378 2.7351h-3.0086l1.6411 1.9146-3.8291-1.5043 2.1881 2.7351-3.8291-0.13676 1.5043 2.0513-3.8291 1.094 2.0513 1.094-3.2821 1.5043-0.13676 1.9146 0.95729 2.0513-2.8719-1.2308 1.3676 3.0086-2.4616-0.27351 1.7778 2.0513h-1.5043l0.95729 1.3676-3.1454-0.54702 2.4616 2.0513-2.1881 0.68378 1.3676 0.68378-1.7778 1.2308 0.95729 1.5043-1.9146 1.2308 1.9146 1.2308-3.2821 0.68378 2.4616 1.6411-3.0086 0.54702 1.7778 2.4616-2.4616 1.5043 2.0513 0.82054-1.6411 1.7778 1.6411 0.68378-2.4616 2.0513 2.1881 2.0513-3.1454 0.68378 2.4616 1.094-2.3248 1.3676 2.3248 0.54702-2.3248 1.094 1.7778 1.2308-1.5043 1.094 1.9146 0.95728-3.0086 0.27351 2.8719 1.9146-2.0513 0.68377 2.4616 0.95729-3.2821 1.3676 2.7351 0.68378-2.5983 0.82053 2.3248 0.95728-2.3248 0.95729 2.7351 0.41027-3.5556 0.82053s2.2565 0.0342 3.4189 0z" fill="#49cde5"/>
  <path d="m45.431 31.656c0.44401-0.82586 1.0938-1.5264 1.7065-2.2362 0.69795-0.80851 1.3556-1.6905 2.2362-2.295 0.61578-0.42276 1.3348-0.70224 2.0596-0.8827 0.68761-0.1712 1.4099-0.17737 2.1185-0.17653 0.68906 8.2e-4 1.3892 0.0174 2.0596 0.17653 0.82222 0.19512 1.6105 0.53965 2.3538 0.94154 1.0531 0.56935 1.9827 1.3438 2.9423 2.0596 0.68262 0.50923 1.3838 1.0018 2.0008 1.5888 0.62433 0.59397 1.2151 1.2341 1.7065 1.9419 0.68572 0.9876 1.2544 2.0636 1.7065 3.1777 0.37594 0.92623 0.61011 1.907 0.82384 2.8835 0.16549 0.7561 0.34213 1.5211 0.35308 2.295 7e-3 0.47438-0.0686 0.95031-0.17654 1.4123-0.10868 0.46514-0.18657 0.96954-0.47077 1.3535-0.37582 0.5077-1.0054 0.76626-1.53 1.1181-0.84101 0.564-1.6612 1.1836-2.5892 1.5888-0.93339 0.40757-1.9425 0.62967-2.9423 0.82385-1.2206 0.23706-2.4643 0.38039-3.7073 0.41192-0.98222 0.0249-1.9768 6e-3 -2.9423-0.17654-0.68882-0.12991-1.347-0.39457-2.0008-0.64731-0.8434-0.32603-1.7087-0.63262-2.4715-1.1181-0.91543-0.58255-1.7648-1.2952-2.4715-2.1185-0.67717-0.78882-1.2346-1.694-1.6477-2.6481-0.24198-0.55889-0.39164-1.1615-0.47077-1.7654-0.10959-0.83631-0.06957-1.6898 0-2.5304 0.06889-0.83237 0.20533-1.6623 0.41192-2.4716 0.2363-0.92565 0.48915-1.8655 0.94154-2.7069z" fill="#fff"/>
  <ellipse cx="58.613" cy="38.688" rx="6.1651" ry="6.4888" fill="#89b6ca" style="paint-order:fill markers stroke"/>
  <ellipse cx="58.848" cy="38.894" rx="3.2266" ry="3.3442" fill="#0d0d0d" style="paint-order:fill markers stroke"/>
  <ellipse cx="61.349" cy="35.392" rx=".97096" ry="1.0298" fill="#fff" style="paint-order:fill markers stroke"/>
  <path d="m40.136 71.965s-0.35135-3.2725-0.11769-4.8842c0.18335-1.2646 0.58309-2.517 1.1769-3.6485 0.49409-0.94144 1.0881-1.8968 1.9419-2.5304 1.0269-0.76203 2.3517-1.0327 3.5896-1.3535 1.1708-0.30336 2.3816-0.47089 3.5896-0.52961 1.5889-0.0772 3.185 0.064 4.7666 0.23538 2.3532 0.25496 4.6686 0.78355 7.0027 1.1769 1.3928 0.23474 2.7809 0.49925 4.1781 0.70615 2.1516 0.31861 4.3028 0.67898 6.4731 0.82385 2.9163 0.19467 5.8465 0.14247 8.7681 0.0589 2.4559-0.0702 4.8998-0.40201 7.3558-0.47077 2.4706-0.0692 4.9586-0.21803 7.4146 0.0588 0.99791 0.11248 2.01 0.27416 2.9423 0.64731 0.70272 0.28125 1.441 0.60953 1.9419 1.1769 0.54046 0.61213 0.75561 1.4571 1.0004 2.2362 0.2514 0.80009 0.42534 1.6341 0.47077 2.4715 0.0533 0.98246-0.0307 1.9799-0.23539 2.9423-0.0736 0.34589-0.35307 1.0004-0.35307 1.0004z" fill="#0e0206"/>
  <path d="m42.902 61.138c-0.23871 0.60201-0.1838 1.3415 0.05885 1.9419 0.10926 0.27036 0.31775 0.53892 0.58846 0.64731 0.51118 0.20467 1.1468 0.11103 1.6477-0.11769 0.37851-0.17284 0.8827-0.8827 0.8827-0.8827l0.58846-3.1188s-0.7801 4.0982-0.05885 5.9435c0.1667 0.42651 0.51839 0.82535 0.94154 1.0004 1.1606 0.4801 2.5737 0.27683 3.7662-0.11769 0.52177-0.17263 1.3535-0.94154 1.3535-0.94154l1.3535-6.2377s-1.0763 5.3771-0.17654 7.8266c0.16289 0.44343 0.51468 0.85687 0.94154 1.0592 1.7207 0.81574 3.9088 0.85914 5.7081 0.23539 0.51261-0.17771 0.96201-0.59084 1.2358-1.0592 1.12-1.9164 1.2946-6.5319 1.2946-6.5319s-0.35575 4.2602 0.29423 6.2377c0.17668 0.5375 0.45274 1.1274 0.94154 1.4123 1.6312 0.95089 3.8875 1.091 5.6492 0.41193 0.55666-0.21458 0.93814-0.77759 1.2358-1.2946 0.94773-1.6462 1.5888-5.4727 1.5888-5.4727s-0.19162 4.0239 0.64731 5.7669c0.26468 0.54991 0.73079 1.0611 1.2946 1.2946 1.486 0.61553 3.2884 0.47412 4.8254 0 0.4991-0.15396 1.0237-0.43615 1.2946-0.8827 1.0348-1.7057 0.70615-5.9435 0.70615-5.9435s0.32339 4.6491 1.53 6.5319c0.24135 0.3766 0.63305 0.68804 1.0592 0.82384 1.2721 0.40536 2.7942 0.39341 4.0015-0.17653 0.4773-0.2253 0.81609-0.70847 1.0592-1.1769 0.9733-1.8752 1.4123-6.1789 1.4123-6.1789s-0.0985 4.52 0.94154 6.4142c0.27442 0.49982 0.75626 0.93019 1.2946 1.1181 0.90823 0.31697 2.0208 0.30801 2.8835-0.11769 0.41215-0.20339 0.67607-0.64869 0.88269-1.0592 0.89833-1.7849 1.4123-5.8258 1.4123-5.8258s-0.57049 3.095 0 4.4723c0.10616 0.25629 0.33411 0.47776 0.58846 0.58847 0.50392 0.21934 1.1363 0.26003 1.6477 0.0588 0.33558-0.13204 0.59289-0.44809 0.765-0.765 0.44983-0.82829 0.80334-1.848 0.58846-2.7658-0.13688-0.58462-0.62147-1.0748-1.1181-1.4123-1.2369-0.84066-2.8075-1.1472-4.2958-1.2946-2.9721-0.29437-6.0047 8e-3 -9.0035 0.11769-1.6508 0.0605-3.2929 0.27803-4.9431 0.35308-0.99954 0.0455-2.0006 0.049-3.0012 0.0588-1.5103 0.0148-3.0214 0.0444-4.5312 0-1.0017-0.0294-2.0034-0.0832-3.0012-0.17654-1.3784-0.12899-2.7493-0.3301-4.1192-0.52961-1.6913-0.24632-3.3775-0.52766-5.0608-0.82385-1.4549-0.25601-2.8975-0.58038-4.3546-0.82385-1.2121-0.20254-2.428-0.38566-3.6485-0.52961-0.86067-0.10152-1.7226-0.23539-2.5892-0.23539-1.5166 0-3.0379 0.14692-4.5312 0.41192-0.89949 0.15962-1.7854 0.4055-2.6481 0.70616-0.46455 0.16191-0.94683 0.31157-1.3535 0.58846-0.18345 0.12492-0.38896 0.26454-0.47077 0.47085z" fill="#fff"/>
  <path d="m101.05 32.061c-0.44401-0.82586-1.0938-1.5264-1.7065-2.2362-0.69796-0.80851-1.3556-1.6905-2.2362-2.295-0.61578-0.42276-1.3348-0.70224-2.0596-0.8827-0.68761-0.1712-1.4099-0.17737-2.1185-0.17653-0.68906 8.2e-4 -1.3892 0.0174-2.0596 0.17653-0.82222 0.19512-1.6105 0.53965-2.3538 0.94154-1.0531 0.56935-1.9827 1.3438-2.9423 2.0596-0.68261 0.50923-1.3838 1.0018-2.0008 1.5888-0.62433 0.59397-1.2151 1.2341-1.7065 1.9419-0.68572 0.9876-1.2544 2.0636-1.7066 3.1777-0.37594 0.92623-0.61011 1.907-0.82384 2.8835-0.16549 0.7561-0.34213 1.5211-0.35308 2.295-7e-3 0.47438 0.0686 0.95031 0.17654 1.4123 0.10868 0.46514 0.18657 0.96954 0.47077 1.3535 0.37582 0.5077 1.0054 0.76626 1.53 1.1181 0.84102 0.564 1.6612 1.1836 2.5892 1.5888 0.93339 0.40757 1.9425 0.62967 2.9423 0.82385 1.2206 0.23706 2.4643 0.38039 3.7073 0.41192 0.98222 0.0249 1.9768 6e-3 2.9423-0.17654 0.68882-0.12991 1.347-0.39457 2.0008-0.64731 0.8434-0.32603 1.7087-0.63262 2.4715-1.1181 0.91543-0.58255 1.7648-1.2952 2.4716-2.1185 0.67717-0.78882 1.2346-1.694 1.6477-2.6481 0.24198-0.55889 0.39164-1.1615 0.47077-1.7654 0.1096-0.83631 0.0696-1.6898 0-2.5304-0.0689-0.83237-0.20533-1.6623-0.41192-2.4716-0.2363-0.92565-0.48915-1.8655-0.94154-2.7069z" fill="#fff"/>
  <ellipse transform="scale(-1,1)" cx="-87.864" cy="39.093" rx="6.1651" ry="6.4888" fill="#89b6ca" style="paint-order:fill markers stroke"/>
  <ellipse transform="scale(-1,1)" cx="-87.629" cy="39.299" rx="3.2266" ry="3.3442" fill="#0d0d0d" style="paint-order:fill markers stroke"/>
  <ellipse transform="scale(-1,1)" cx="-85.128" cy="35.797" rx=".97096" ry="1.0298" fill="#fff" style="paint-order:fill markers stroke"/>
 </g>
</svg>
