<?xml version="1.0" encoding="UTF-8"?>
<svg width="595" height="598" version="1.1" viewBox="0 0 157.43 158.22" xmlns="http://www.w3.org/2000/svg">
 <g class="pies" fill="#8868b3">
  <path d="m114.54 138.92 0.15203-2.5817-1.9641 1.4278-0.0248-2.6196-1.7393 1.6999-0.49018-2.4423-1.4548 1.6874-0.513-2.2597-1.5095 1.7225-0.83522-2.3543-1.3719 1.9498-1.3502-1.8938-0.61093 1.993-1.5065-1.7554-0.4211 1.9805-1.5435-1.8498-0.04256 2.4153-2.4091-1.6791 0.73312 2.7642-2.6271-1.7216 1.1485 2.8244-3.3331-1.4537 1.581 3.3549-2.9549-1.5398 1.7362 2.8909-3.2273-0.85459 1.8342 2.4762-3.363 0.1492 2.534 2.1242-3.2606 0.2336 3.0764 2.5121-3.392-3e-3 3.1675 1.7154-2.9458 1.361 3.3514 0.78003-3.6613 1.3759s4.2427-0.20086 6.0195 0.68841c1.7968 0.89934 3.8415 1.3747 5.8315 1.7943 2.5044 0.52805 5.0719 0.72832 7.6258 0.89716 2.4994 0.16524 5.0089 0.0934 7.5137 0.11214 2.7288 0.0204 5.471 0.26889 8.1866 0 1.7071-0.16904 3.3479-0.68877 5.0465-1.0093 1.1172-0.21082 4.1649 0.66044 4.1649 0.66044l-2.6343-2.1484 3.6281 0.0301-2.9189-1.5576 3.2553-1.246-3.5066-0.54207 3.2127-1.9034-3.8306 0.57316 2.4703-2.9127-3.6396 1.3488 1.4029-3.5066-2.9241 2.2096 1.1401-3.4246-2.3821 2.4339 0.26064-3.8918-2.0394 2.2429 0.30211-3.0615-1.9541 1.8944 0.35158-3.0656-2.068 1.7115 0.40752-2.5714-1.9782 1.711 0.27602-2.7486-2.0364 1.713-3e-3 -2.679z"/>
  <path d="m43.22 138.49-0.15202-2.5817 1.9641 1.4278 0.02481-2.6196 1.7393 1.6999 0.49018-2.4423 1.4548 1.6874 0.513-2.2597 1.5095 1.7225 0.83522-2.3543 1.3719 1.9498 1.3503-1.8938 0.61092 1.993 1.5065-1.7554 0.42109 1.9805 1.5435-1.8498 0.04256 2.4153 2.4091-1.6791-0.73312 2.7642 2.6271-1.7216-1.1485 2.8244 3.3331-1.4537-1.581 3.3549 2.9549-1.5398-1.7362 2.8909 3.2273-0.85459-1.8342 2.4762 3.363 0.1492-2.534 2.1242 3.2606 0.2336-3.0764 2.5121 3.392-3e-3 -3.1675 1.7154 2.9458 1.361-3.3514 0.78003 3.6613 1.3759s-4.2427-0.20086-6.0195 0.68841c-1.7968 0.89934-3.8415 1.3747-5.8315 1.7943-2.5044 0.52805-5.0719 0.72832-7.6258 0.89716-2.4994 0.16524-5.0089 0.0934-7.5137 0.11214-2.7288 0.0204-5.471 0.26889-8.1866 0-1.7071-0.16904-3.3479-0.68877-5.0465-1.0093-1.1172-0.21082-4.1649 0.66044-4.1649 0.66044l2.6343-2.1484-3.6281 0.0301 2.9189-1.5576-3.2553-1.246 3.5066-0.54207-3.2127-1.9034 3.8306 0.57316-2.4703-2.9127 3.6396 1.3488-1.4029-3.5066 2.9241 2.2096-1.1401-3.4246 2.3821 2.4339-0.26063-3.8918 2.0394 2.2429-0.30211-3.0615 1.9541 1.8944-0.35158-3.0656 2.068 1.7115-0.40751-2.5714 1.9782 1.711-0.27602-2.7486 2.0364 1.713 0.0031-2.679z"/>
 </g>
 <g class="cuerpo" fill="#a56192">
  <path d="m55.506 19.567-6.5384-5.4487 10.897 3.9957-1.0897-4.7222 5.4483 3.6328s-0.7755-4.9237-2.1625-6.8918c-0.8588-1.2186-2.2173-2.0661-3.5684-2.6961-1.4993-0.69913-3.1963-0.90014-4.8372-1.1102-2.2717-0.29077-6.8677-0.19928-6.8677-0.19928s4.3155-1.9968 6.6298-2.4176c2.6008-0.47281 5.3416-0.61656 7.9298-0.079298 2.3519 0.4882 4.6025 1.573 6.5818 2.934 1.6017 1.1014 2.8051 2.6951 4.1235 4.1235 1.4501 1.5711 4.1582 4.8837 4.1582 4.8837s-0.63174-4.7761-0.1933-7.1041c0.23897-1.2688 0.66312-2.5909 1.5067-3.5684 1.4957-1.7332 3.6202-3.1347 5.8681-3.5684 2.3177-0.44724 6.9851 1.1639 6.9851 1.1639s-3.0003 0.50947-4.3683 1.1357c-1.2267 0.56159-2.6867 1.1141-3.3305 2.2996-0.88342 1.6266-0.7463 3.7956-0.1586 5.5509 0.37616 1.1235 1.3076 2.0201 2.2204 2.7754 1.3211 1.0931 4.5472 2.4049 4.5472 2.4049l6.1752-4.7222s1.1829 4.5085 2.9169 5.8064c0.94635 0.70838 3.4891 0.63439 3.4891 0.63439l-0.31719 2.2204 2.5376-2.2204v2.8547l3.4891-1.2688v2.2204l2.5375-1.586 0.63438 3.4891 2.2204-1.9032 0.63439 2.8547 2.8547-1.9032-0.3172 2.8547 3.1719-1.9032-0.63437 3.4891 2.2203-2.2204-0.3172 4.1235 3.4891-1.2688-1.586 2.8547 2.8548-1.2688 0.31719 3.8063 2.5375-1.9032-0.63438 3.8063 3.4891-2.2204-1.2688 3.8063 4.4407-0.95158-2.5375 3.1719h3.8063l-1.586 2.8547 4.4407-0.31719-1.9032 2.8547h2.8547l-0.95158 2.8547 2.8547-0.31719-1.2688 2.8547 4.1235-0.31719-3.1719 2.8547 5.0751-0.31719-3.4891 3.1719 3.1719 0.31719-1.586 2.2204 3.4891-0.31719-1.9032 4.1235 3.1719-0.31719-2.2204 3.1719 3.4891 0.63438-2.5375 2.5375 3.8063 2.2204-2.8547 1.9032 4.1235 3.1719-2.5376 1.2688 2.8547 1.586-2.5375 2.5375 4.1235 1.2688-3.4891 2.8547 3.8063 2.8547-3.8063 1.9032 4.4407 2.5375-4.7579 2.5375 5.3923 2.2204-5.3923 2.2204 3.8063 2.8547-4.7579 0.63438 3.1719 3.4891h-3.4891l2.2204 3.1719-2.8547 0.95158 2.5375 3.1719h-3.4891l1.586 2.5375h-2.5376l4.4407 4.4407-6.661-1.2688 4.1235 3.1719h-5.3923l2.8547 3.4891-4.1235-1.586 3.1719 3.8063-5.0751-1.586 1.9032 3.8063-4.4407-1.2688 3.1719 3.8063-4.7579-1.586 1.2688 3.1719-3.1719-1.586 1.586 4.4407-3.8063-2.5375 0.95158 3.8063-3.4891-2.8547 0.95158 4.4407-4.1235-2.2204 0.63438 3.1719-2.8547-2.2204 0.63438 3.8063-4.1235-2.8547 0.95158 5.0751-3.8063-3.8063 0.31719 3.8063-3.1719-3.1719 0.63439 5.0751-3.8063-4.4407-0.31719 4.1235-2.8547-2.8547v4.4407l-4.1235-4.1235-0.31719 3.8063-3.1719-2.8547-0.31719 3.4891-3.8063-2.8547s2.2204 6.3439 1.2688 4.7579c-0.95158-1.586-3.8063-4.4407-3.8063-4.4407l-3.8063 3.8063-0.63438-4.1235-3.4891 3.8063-1.9032-4.4407-2.2204 4.1235-2.2204-3.1719-1.9032 2.5375-2.2204-2.5375-1.2688 3.1719-1.586-3.4891-1.2688 3.4891-1.9032-3.1719-2.8547 3.1719-1.586-3.8063-3.4891 3.8063-1.586-4.4407-1.9032 3.1719-3.1719-4.1235-1.9032 3.8063-2.2204-4.7579-3.8063 3.4891-0.63439-3.8063-3.4891 1.2688-0.63439-2.8547-2.8547 1.9032-0.31719-2.5375-2.5375 2.2204-0.63438-2.8547-2.5375 1.586-0.63438-3.4891-4.1235 2.2204 1.9032-3.1719-4.7579 1.2688 1.586-2.8547-4.4407 1.586 0.95158-3.4891-3.1719 1.2688v-3.1719l-3.4891 2.5376 2.2204-5.0751-4.4407 1.2688 1.586-3.1719-3.8063 1.2688 1.586-4.4407-4.4407 1.2688 1.9032-3.4891-5.3923 0.63439 4.1235-3.1719h-3.4891l1.9032-3.4891h-2.8547l1.586-2.5375-3.1719-0.31719 2.2204-2.8547-3.8063-0.63439 2.8547-2.5375h-4.1235l3.1719-2.8547-2.8547-2.5375 2.2204-1.2688-2.8547-2.2203 2.5375-1.586-2.5375-2.8547 2.2204-1.2688-2.5375-1.586 2.8547-1.2688-2.8547-2.8547 3.8063-1.2688-3.1719-2.2204 2.8547-0.63439-1.9032-3.8063 2.5375-0.31719-1.586-2.5375 2.2204-1.2688-2.8547-3.4891 4.1235-0.95158-2.5375-2.5375 3.1719-0.95158-2.2204-2.2204 3.8063-0.95158-1.586-4.4407h3.1719l-1.2688-3.1719h3.1719l-0.95158-3.8063 2.8547-0.31719-1.586-2.5375 3.8063-0.31719-1.2688-4.7579 3.8063 0.95158-0.95158-4.1235 3.4891 0.95158v-4.7579l2.5375 1.9032 0.31719-4.4407 2.2204 1.2688 0.95158-4.1235 3.1719 1.586v-5.0751l4.1235 1.9032-1.2688-4.4407 4.4407 2.2204-0.31719-4.4407 4.1235 1.9032-0.95158-5.0751 4.4407 2.8547 0.63439-3.1719 4.7579 2.5375-0.95158-3.4891z"/>
 </g>
 <ellipse cx="51.352" cy="64.523" rx="19.334" ry="21.354" fill="#fff"/>
 <ellipse cx="98.713" cy="64.149" rx="19.93" ry="21.277" fill="#fff"/>
 <g class="ojos" fill="#1e87f0">
  <ellipse cx="44.393" cy="61.755" rx="9.9946" ry="11.117"/>
  <ellipse cx="93.323" cy="61.68" rx="9.9946" ry="11.117"/>
 </g>
 <ellipse cx="43.271" cy="61.081" rx="6.6293" ry="7.3027" fill="#000"/>
 <ellipse cx="92.423" cy="61.081" rx="6.6293" ry="7.3027" fill="000"/>
 <ellipse cx="48.877" cy="54.946" rx="2.6014" ry="2.2273" fill="#fff"/>
 <ellipse cx="98.043" cy="55.62" rx="2.949" ry="2.7245" fill="#fff"/>
</svg>