<?xml version="1.0" encoding="UTF-8"?>
<svg width="563" height="615" version="1.1" viewBox="0 0 148.96 162.72" xmlns="http://www.w3.org/2000/svg">

 <path d="m61.001 17.042s-0.90846-6.1535-3.0564-7.7566c-3.7077-2.7672-4.8551-2.6655-9.2499-3.0785-1.4911-0.14012-5.1295-0.062323-5.1295-0.062323s6.4015-2.7515 9.8077-2.906c3.0838-0.13989 6.3153 0.44524 9.0812 1.8162 2.4595 1.2192 4.2481 3.4937 6.1752 5.4487 1.5673 1.59 4.359 5.0855 4.359 5.0855s-1.0219-6.3869 0.36325-9.0812c1.2624-2.4556 3.8674-4.3861 6.5384-5.0855 2.3689-0.62023 7.2649 1.0897 7.2649 1.0897s-5.4909 1.1805-6.6083 2.2418c-1.6232 1.5417-1.9693 4.9714-1.0199 7.2026 1.0527 2.4738 6.5384 4.7222 6.5384 4.7222l6.1752-4.7222s2.2611 5.3743 4.359 7.2649c4.4665 4.0254 11.282 4.3863 16.346 7.6282 5.2098 3.3352 9.994 7.4205 14.167 11.987 4.6905 5.1333 8.6919 10.949 11.987 17.073 2.0352 3.7817 3.4928 7.8723 4.7222 11.987 1.6995 5.6883 3.0926 11.524 3.6325 17.436 0.47364 5.1864 0.34722 10.46-0.36325 15.62-0.73315 5.324-1.6933 10.764-3.9957 15.62-2.4485 5.1642-5.9781 9.9194-10.171 13.803-4.1899 3.8814-9.2636 6.8706-14.53 9.0812-6.2011 2.603-12.952 3.8092-19.615 4.7222-9.9633 1.3653-20.104 1.5657-30.149 1.0897-9.2712-0.43931-18.705-1.0054-27.607-3.6325-7.5842-2.2382-15.134-5.3891-21.432-10.171-4.8535-3.6851-9.0772-8.4491-11.987-13.803-3.55-6.5322-5.4191-14.036-6.1752-21.432-0.64226-6.2821 0.37521-12.667 1.453-18.889 0.94249-5.4412 2.177-10.91 4.359-15.983 2.8554-6.6384 6.6975-12.922 11.261-18.526 4.5983-5.6466 9.9501-10.815 15.983-14.893 5.4297-3.6709 17.799-8.3547 17.799-8.3547l-6.5384-5.4487 10.897 3.9957-1.0897-4.7222z" fill="#a56192"/>
 <ellipse cx="51.916" cy="73.131" rx="19.334" ry="21.354" fill="#fff" style="paint-order:fill markers stroke"/>
 <ellipse cx="99.277" cy="72.757" rx="19.93" ry="21.277" fill="#fff" style="paint-order:fill markers stroke"/>
 <ellipse cx="44.957" cy="70.363" rx="9.9946" ry="11.117" fill="#1e87f0" style="paint-order:fill markers stroke"/>
 <ellipse cx="93.887" cy="70.288" rx="9.9946" ry="11.117" fill="#1e87f0" style="paint-order:fill markers stroke"/>
 <ellipse cx="43.835" cy="69.689" rx="6.6293" ry="7.3027" fill="#0c0c0c" style="paint-order:fill markers stroke"/>
 <ellipse cx="92.987" cy="69.689" rx="6.6293" ry="7.3027" fill="#0c0c0c" style="paint-order:fill markers stroke"/>
 <ellipse cx="49.441" cy="63.554" rx="2.6014" ry="2.2273" fill="#fffeff" style="paint-order:fill markers stroke"/>
 <ellipse cx="98.607" cy="64.228" rx="2.949" ry="2.7245" fill="#fffeff" style="paint-order:fill markers stroke"/>
 <path d="m63.544 154.89c-2e-6 4.9151-10.783 6.3568-18.707 6.3568-7.9243 0-17.564 1.2908-19.797-3.0876-1.4521-2.8469 3.5125-6.8354 9.4131-11.122 4.9804-3.6183 11.404-6.4138 17.286-6.132 7.9152 0.37924 11.806 9.0699 11.806 13.985z" fill="#a56192"/>
 <path d="m83.398 154.81c0 4.9151 10.783 6.3568 18.707 6.3568 7.9243 0 17.564 1.2908 19.797-3.0876 1.4522-2.8469-3.5125-6.8354-9.413-11.122-4.9804-3.6183-11.404-6.4138-17.286-6.132-7.9152 0.37924-11.806 9.0699-11.806 13.985z" fill="#a56192"/>
</svg>