<?xml version="1.0" encoding="UTF-8"?>

<svg width="1210" height="363" version="1.1" viewBox="0 0 320.15 96.044" xmlns="http://www.w3.org/2000/svg">
 <g>
  <path d="m67.56963 2.19s-1.0429 3.3621-1.4495 5.0732c-0.39792 1.6748-0.94646 3.3518-0.96632 5.0732-0.028253 2.449 0.49009 4.9058 1.2079 7.2474 0.6231 2.0326 1.5705 3.9708 2.6574 5.7979 1.2351 2.0762 2.5831 4.1488 4.3484 5.7979 2.5952 2.4243 5.7629 4.2079 8.9385 5.7979 1.458 0.73002 3.0459 1.1674 4.59 1.6911 2.3156 0.78529 7.0058 2.1742 7.0058 2.1742s0.3981 3.535 1.2079 5.0732c1.0624 2.0179 2.7628 3.7087 4.59 5.0732 1.7892 1.3362 3.9011 2.2555 6.0395 2.899 2.2574 0.67928 4.6487 0.92838 7.0058 0.96632 3.0765 0.0495 6.1776-0.29358 9.18-0.96632 5.2436-1.1749 10.207-3.3786 15.22-5.3148 5.3855-2.0802 10.951-3.8665 15.944-6.7642 4.0258-2.3362 8.0073-4.9881 11.113-8.4553 1.5663-1.7488 2.997-3.777 3.6237-6.0395 0.23645-0.85366 0.1827-1.7906 0-2.6574-0.61722-2.9282-2.6667-5.3784-3.6237-8.2137-0.66209-1.9616-1.2685-3.9771-1.4495-6.0395-0.23267-2.6521 0.48316-7.9722 0.48316-7.9722z"/>
  <path d="m72.9066 2.23s-0.7839 1.7905-1.0249 2.7332c-0.44884 1.7554-0.71874 3.5698-0.7687 5.3809-0.054376 1.9711 0.090098 3.9673 0.51247 5.8934 0.41473 1.8913 1.1166 3.7256 1.9645 5.4663 0.91315 1.8748 2.0468 3.6525 3.331 5.2955 1.24 1.5864 2.6301 3.0768 4.1852 4.356 1.4638 1.2041 3.1119 2.1806 4.783 3.0748 2.5744 1.3775 8.0287 3.5019 8.0287 3.5019l2.1353-1.6228s-0.51873 1.9455-0.34165 2.904c0.24526 1.3274 1.0925 2.4903 1.8791 3.5873 0.98567 1.3747 2.152 2.6532 3.5019 3.6727 0.9756 0.73681 2.1301 1.2079 3.2456 1.7082 1.7756 0.79639 3.5782 1.5786 5.4663 2.0499 1.6994 0.42415 3.4595 0.62376 5.2101 0.68329 0.91231 0.031 1.8306-0.0343 2.7332-0.17082 1.9117-0.28918 3.7835-0.81676 5.6372-1.3666 3.5308-1.0473 6.9351-2.4822 10.42-3.6727 3.6891-1.2601 7.5321-2.1098 11.103-3.6727 3.3389-1.4612 6.4717-3.3698 9.5661-5.2955 2.0317-1.2644 4.1836-2.4255 5.8934-4.0998 1.1067-1.0837 2.3145-2.2668 2.7332-3.7581 0.37829-1.3476-0.28466-2.7866-0.34165-4.1852-0.03362-0.82496 0-1.6513 0-2.4769v-1.2812l-6.9183 0.68329 6.4913-2.6478s-1.0695-1.8916-1.452-2.904c-0.35388-0.93672-0.56601-1.9234-0.7687-2.904-0.2331-1.1277-0.55663-2.2658-0.51247-3.4165 0.06833-1.7805 0.81474-3.4695 1.1958-5.2101 0.14925-0.68182 0.42706-2.0499 0.42706-2.0499z" fill="#fff"/>
  <path d="m93.747 12.39s-0.3735 1.4877-0.59788 2.2207c-0.28198 0.92119-0.78077 1.783-0.93953 2.7332-0.14544 0.87052-0.12242 1.7737 0 2.6478 0.17249 1.2316 0.47783 2.4705 1.0249 3.5873 0.46596 0.95116 1.1746 1.7714 1.8791 2.5623 1.0852 1.2186 2.274 2.3626 3.5873 3.331 0.87255 0.64342 1.8125 1.2189 2.8186 1.6228 1.6597 0.66629 3.4451 0.99248 5.2101 1.2812 1.3533 0.22136 2.7285 0.33442 4.0998 0.34165 1.57 8e-3 3.1536-0.0574 4.6976-0.34165 1.754-0.32285 3.4264-0.99292 5.1247-1.5374 1.1746-0.37658 3.5019-1.1958 3.5019-1.1958s-1.3081 1.6121-2.1353 2.2207c-0.97428 0.71684-2.1281 1.1599-3.2456 1.6228-0.99814 0.41344-2.033 0.73895-3.0748 1.0249-1.2924 0.35478-2.5982 0.6947-3.9289 0.85411-1.1593 0.13888-2.3342 0.0913-3.5019 0.0854-0.82612-4e-3 -1.6566 0.0124-2.4769-0.0854-3.2946-0.39277-6.4013-1.5423-9.2244-3.1602-0.63122-0.36175-1.301-0.6686-1.8791-1.1104-1.1358-0.86796-2.1652-1.8867-3.0748-2.9894-0.62811-0.76144-1.2031-1.5836-1.6228-2.4769-0.49404-1.0514-0.91202-2.1748-1.0249-3.331-0.13355-1.3675 0.06423-2.7745 0.42706-4.0998 0.30613-1.1181 0.76798-2.2242 1.452-3.1602 0.77292-1.0576 2.904-2.6478 2.904-2.6478z"/>
  <path d="m2.106 62.83s2.6609-2.1654 3.8653-3.3821c0.52228-0.52764 1.0012-1.0993 1.4495-1.6911 0.87661-1.1572 2.4158-3.6237 2.4158-3.6237s3.8711 0.14963 5.7979 0c2.6003-0.20192 5.2042-0.55988 7.7306-1.2079 2.6838-0.6884 5.3924-1.4856 7.816-2.8282 2.163-1.1983 4.1036-2.8142 5.8394-4.5754 1.4452-1.4664 2.7769-3.0964 3.7384-4.917 0.71354-1.351 1.1511-2.85 1.4495-4.3484 0.2207-1.1085 0.24158-3.3821 0.24158-3.3821s3.6598-0.97591 5.3148-1.8619c1.658-0.8876 3.1574-2.0847 4.5046-3.3968 1.4489-1.4111 2.9071-2.9218 3.7799-4.7462 0.59061-1.2346 0.70771-2.6512 0.89556-4.0068 0.19927-1.438 0.46087-2.9134 0.24158-4.3484-0.20786-1.3602-0.70451-2.7083-1.4495-3.8653-0.55489-0.86174-1.4495-1.4495-2.1742-2.1742-0.8858-0.8858-2.6574-2.6574-2.6574-2.6574l0.96632-3.6237h-49.766z"/>
  <path d="m2.095 58.17s1.5436-1.1849 2.2207-1.8791c1.1736-1.2031 2.3038-2.4828 3.1602-3.9289 1.1773-1.988 1.8841-4.2252 2.6478-6.4058 0.37227-1.063 0.93953-3.2456 0.93953-3.2456s0.32373 1.4147 0.34165 2.1353c0.04556 1.8324-0.41525 3.6425-0.59788 5.4663-0.03133 0.3129-0.08541 0.93953-0.08541 0.93953s2.4576-0.0112 3.6727-0.17083c1.5891-0.20879 3.14-0.64753 4.6976-1.0249 1.2887-0.31223 2.5868-0.60223 3.8435-1.0249 1.2829-0.43148 2.5575-0.91261 3.7581-1.5374 1.6813-0.87496 3.313-1.8784 4.783-3.0748 1.6396-1.3344 3.2456-2.7836 4.4414-4.5268 0.77839-1.1347 1.2609-2.4568 1.7082-3.7581 0.23794-0.69222 0.51247-2.1353 0.51247-2.1353s-4.6177 0.0767-6.9183-0.0854c-0.8877-0.0625-1.8233-7e-3 -2.6478-0.34165-0.39565-0.16075-1.0249-0.7687-1.0249-0.7687s2.2221 0.14884 3.331 0.0854c2.038-0.11659 4.0829-0.36248 6.0642-0.85412 2.1153-0.5249 4.213-1.2209 6.1496-2.2207 1.5088-0.77893 2.894-1.8012 4.1852-2.904 1.4087-1.2032 2.8406-2.4568 3.8435-4.0143 0.74704-1.1602 1.3116-2.4823 1.5374-3.8435 0.27064-1.6312 0.14441-3.3496-0.25623-4.9539-0.35798-1.4334-1.0764-2.774-1.8791-4.0143-0.73484-1.1356-1.6653-2.1452-2.6478-3.0748-1.0175-0.96283-2.172-1.7756-3.331-2.5623-1.1514-0.78148-3.5873-2.1353-3.5873-2.1353l-38.873-0.12155z" fill="#fff"/>
  <path d="m2.095 80.98s1.6371 1.5188 2.5623 2.1353c1.2292 0.81916 2.5641 1.4849 3.9289 2.0499 1.4061 0.582 2.8824 0.98667 4.356 1.3666 1.6599 0.42795 5.0393 1.0249 5.0393 1.0249s1.318 1.8619 2.1353 2.6478c0.99743 0.95901 2.1277 1.794 3.331 2.4769 1.099 0.62374 2.3028 1.0531 3.5019 1.452 1.5332 0.51005 3.0997 0.9559 4.6976 1.1958 1.1557 0.17349 2.3346 0.22764 3.5019 0.17082 1.9545-0.0951 3.9057-0.39524 5.808-0.85412 1.5491-0.3737 3.1127-0.80259 4.5268-1.5374 1.6271-0.8455 3.224-1.8744 4.4414-3.2456 1.041-1.1725 1.6445-2.6782 2.3061-4.0998 0.20527-0.44108 0.51247-1.3666 0.51247-1.3666s3.9574-0.77199 5.808-1.5374c1.5207-0.62896 3.004-1.4263 4.2706-2.4769 0.83902-0.69595 1.5173-1.5789 2.1353-2.4769 0.71487-1.0389 1.475-2.1109 1.7936-3.331 0.42449-1.6255 0.55046-3.4249 0.085411-5.0393-0.43281-1.5024-1.5268-2.7575-2.5623-3.9289-0.78951-0.89308-2.7332-2.3061-2.7332-2.3061l1.1103-5.2101s-1.6592-1.5528-2.3061-2.4769c-0.89814-1.283-1.2458-2.8961-2.1353-4.1852-0.69831-1.012-1.5724-1.9004-2.4769-2.7332-1.2401-1.1416-2.5941-2.1671-4.0143-3.0748-1.5988-1.0219-3.2748-1.9498-5.0393-2.6478-2.0875-0.82574-4.3729-1.0509-6.4913-1.7936-0.40922-0.14349-0.77212-0.60509-1.1958-0.51247-1.5753 0.3444-2.0735 2.4799-3.2456 3.5873-1.6483 1.5573-3.3722 3.0692-5.2955 4.2706-2.1065 1.3158-4.3535 2.499-6.7475 3.1602-2.1791 0.60183-4.495 0.49161-6.7475 0.68329-1.6493 0.14034-3.3025 0.22841-4.9539 0.34165-1.2527 0.0859-3.7581 0.25624-3.7581 0.25624l-6.1608 9.8661z"/>
  <path d="m2 73.12s1.1899 2.883 2.1353 4.0998c1.336 1.7196 3.0779 3.1168 4.8685 4.356 1.2146 0.84064 2.5712 1.4679 3.9289 2.0499 1.1337 0.48597 3.5019 1.1958 3.5019 1.1958l0.7687-1.1958s0.35053 1.1931 0.68329 1.7082c0.57904 0.89642 1.3899 1.6363 2.2207 2.3061 1.224 0.9869 2.583 1.8263 4.0143 2.4769 1.9265 0.87576 3.982 1.501 6.0642 1.879 1.9081 0.34647 3.871 0.43728 5.808 0.34165 1.8139-0.0895 3.66-0.27401 5.3809-0.85412 1.6537-0.55743 3.2116-1.436 4.6122-2.4769 1.5835-1.1768 3.0748-2.5544 4.1852-4.1852 0.80371-1.1804 1.7082-3.9289 1.7082-3.9289l1.1958 0.85411s1.9728-1.0207 2.904-1.6228c0.92288-0.5967 1.8728-1.1852 2.6478-1.9645 1.1203-1.1265 2.1548-2.4 2.8186-3.8435 0.36641-0.79685 0.56655-1.6858 0.59788-2.5624 0.045314-1.2676-0.15122-2.5709-0.59788-3.7581-0.31987-0.8502-1.452-2.3061-1.452-2.3061l-3.9289 4.1852s1.3123-2.8613 1.7936-4.356c0.34084-1.0583 0.63972-2.1413 0.7687-3.2456 0.14864-1.2725 0.25468-2.5879 0-3.8435-0.31955-1.5754-1.0513-3.0634-1.8791-4.4414-1.0006-1.6657-2.294-3.1576-3.6727-4.5268-1.1641-1.1562-2.4371-2.2299-3.8435-3.0748-1.3555-0.81437-2.8615-1.3621-4.356-1.879-1.8926-0.65466-5.808-1.5374-5.808-1.5374s-2.7002 3.0643-4.2706 4.356c-1.8417 1.5149-3.811 2.9352-5.9788 3.9289-1.6957 0.77736-3.5675 1.0999-5.3809 1.5374-2.4262 0.58533-4.8595 1.2298-7.3454 1.452-2.2015 0.19675-6.6298-0.112-6.6298-0.112s-1.9918 3.196-3.1926 4.6388c-0.77268 0.92844-1.6516 1.7689-2.5623 2.5623-0.62278 0.5426-1.9757 1.4957-1.9757 1.4957z" fill="#fff"/>
  <path d="m30.739 62.87s4.4588 0.64148 6.6621 0.34164c1.2489-0.16996 2.4838-0.58657 3.5873-1.1958 1.2574-0.69418 2.4068-1.6338 3.331-2.7332 0.48403-0.57575 0.97965-1.2237 1.1103-1.9645 0.12037-0.68218-0.18193-1.3758-0.34165-2.0499-0.28861-1.218-1.1103-3.5873-1.1103-3.5873s1.0751 0.3658 1.5374 0.68329c0.82974 0.56986 1.623 1.2688 2.1353 2.1353 0.46775 0.79109 0.76337 1.7288 0.7687 2.6478 0.0062 1.0637-0.34637 2.1401-0.85412 3.0748-0.47173 0.86845-1.1887 1.6083-1.9645 2.2207-1.1397 0.89968-2.4561 1.6215-3.8435 2.0499-1.7514 0.54072-3.637 0.71383-5.4663 0.59788-1.461-0.0926-2.9811-0.33178-4.2706-1.0249-0.51454-0.27659-1.2812-1.1958-1.2812-1.1958z"/>
  <path d="m39.77 42.97 6.8329 0.25624 1.0249-1.452 4.1852-2.8186 4.5268-4.6122 2.1353-4.5268 0.51247-3.1602-0.42706-2.8186-2.3915-4.0998-5.4663 7.0892-5.7226 4.0998-3.9289 1.3666-0.59788 4.356-0.68329 6.3204"/>
  <path d="m42.763 32.87s-0.20572 3.0417-0.44552 4.545c-0.12405 0.77762-0.51247 2.3061-0.51247 2.3061s2.1024 0.32266 3.1602 0.42705c0.45421 0.0448 1.3666 0.0854 1.3666 0.0854s0.9188-0.49916 1.3666-0.76871c0.81193-0.48876 1.6144-0.995 2.3915-1.5374 1.2-0.83757 2.474-1.6061 3.5019-2.6478 0.8439-0.85525 1.5454-1.8572 2.1353-2.904 0.43868-0.77844 0.73599-1.6314 1.0249-2.4769 0.20995-0.61435 0.40626-1.2386 0.51247-1.8791 0.14934-0.90053 0.24772-1.8236 0.17082-2.7332-0.08377-0.9909-0.68329-2.904-0.68329-2.904s-1.0106 1.813-1.6228 2.6478c-0.5132 0.69975-1.0909 1.3546-1.7082 1.9645-0.87653 0.86596-1.838 1.6454-2.8186 2.3915-0.68501 0.52117-1.377 1.0448-2.1353 1.452-0.59623 0.32013-1.2442 0.53436-1.8791 0.76871-1.2596 0.46498-3.8251 1.263-3.8251 1.263z" fill="#fff"/>
  <path d="m62.5385 58.09s2.9671-0.53235 4.4171-0.93576c2.0119-0.55973 4.0438-1.134 5.9187-2.0534 1.9853-0.97357 3.8206-2.2538 5.5563-3.6237 1.6544-1.3057 3.2707-2.7049 4.59-4.3484 1.0288-1.2816 1.8242-2.7466 2.5366-4.2276 0.80071-1.6647 0.93452-3.6396 1.9326-5.194 0.12306-0.19166 0.48316-0.48316 0.48316-0.48316s-6.542-2.9604-9.18-5.3148c-2.3191-2.0697-4.012-4.7914-5.5563-7.489-1.5865-2.7713-3.1346-5.6832-3.7445-8.8177-0.44608-2.2926 0.2755-4.6753 0.12079-7.0058-0.14295-2.1534-0.96632-6.4019-0.96632-6.4019h-16.911l-0.96632 3.6237s2.4652 5.235 3.3821 7.9722c0.93833 2.8012 2.1516 8.5974 2.1516 8.5974s1.0584 1.2151 1.2812 1.9645c0.51109 1.7193 0.44557 3.6435 2e-6 5.3809-0.41149 1.6045-1.383 3.042-2.3915 4.356-2.2559 2.9392-5.611 4.8794-8.0287 7.687-0.38657 0.44893-1.0249 1.452-1.0249 1.452s7.0418 3.0658 9.7034 5.7121c1.8951 1.8841 2.3956 4.8325 4.1069 6.885 0.73415 0.88055 2.5887 2.2644 2.5887 2.2644z"/>
  <path d="m62.9656 54.84s4.7712-1.2137 7.0037-2.2207c1.6646-0.75083 3.2121-1.7566 4.6976-2.8186 0.96972-0.69323 1.8598-1.4949 2.7332-2.3061 1.3719-1.2742 2.8319-2.497 3.9289-4.0143 1.0893-1.5066 1.8947-3.2188 2.5623-4.9539 0.20088-0.52204 0.42706-1.6228 0.42706-1.6228s-3.063-1.5143-4.5268-2.3915c-1.1785-0.70628-2.3765-1.4081-3.4165-2.3061-1.3422-1.159-2.5138-2.5173-3.5873-3.9289-1.0376-1.3644-1.9425-2.8351-2.7332-4.356-0.81223-1.5623-1.5173-3.1901-2.0499-4.8684-0.3615-1.1391-0.62904-2.315-0.7687-3.5019-0.18303-1.5554-0.2223-3.1375-0.085412-4.6976 0.11664-1.3294 0.42846-2.6386 0.7687-3.9289 0.42417-1.6087 1.5814-4.7338 1.5814-4.7338h-16.911l-0.96632 3.6237s2.5394 2.2356 3.6547 3.5016c0.63234 0.71783 1.2741 1.4537 1.7082 2.3061 0.47401 0.93077 0.76638 1.9593 0.93953 2.9894 0.16525 0.98308-0.05555 2.0026 0.08541 2.9894 0.09569 0.66994 0.51247 1.9645 0.51247 1.9645s0.28737 1.2452 0.59788 1.7936c0.25865 0.45683 0.75598 0.74492 1.0249 1.1958 0.40633 0.6811 0.65867 1.4521 0.85411 2.2207 0.26891 1.0576 0.52082 2.1585 0.42706 3.2456-0.082013 0.95098-0.55045 1.8283-0.85411 2.7332-0.37532 1.1184-0.60854 2.3079-1.1958 3.331-0.68406 1.1919-1.6747 2.1898-2.6478 3.1602-0.62977 0.6281-1.3433 1.168-2.0499 1.7082-0.82825 0.63322-1.6985 1.2099-2.5623 1.7936-0.64772 0.43775-1.9645 1.2812-1.9645 1.2812s3.1301 1.2857 4.5268 2.2207c1.3576 0.90884 2.5624 2.0471 3.6727 3.2456 0.99453 1.0735 1.8705 2.262 2.6478 3.5019 0.76421 1.2191 1.9645 3.8435 1.9645 3.8435z" fill="#fff"/>
  <path d="m161.222 2.48s0.86171 5.4259 1.047 8.1629c0.18734 2.7676-1.0258 5.7704 0.06336 8.3215 1.091 2.5554 3.7696 4.1224 5.9761 5.811 1.0035 0.76793 2.1368 1.3562 3.2613 1.9326 1.8772 0.96229 3.7871 1.8989 5.7979 2.5366 1.7237 0.54661 3.5198 0.86834 5.3148 1.0871 1.96 0.23888 5.9187 0.24158 5.9187 0.24158s1.2812 1.8469 2.0534 2.6574c1.2412 1.3026 2.6536 2.442 4.1069 3.5029 1.9132 1.3966 3.902 2.7238 6.0395 3.7445 2.4246 1.1577 5.0147 1.9612 7.6098 2.6574 0.83134 0.22302 1.7584 0.11538 2.5366 0.48315 0.85295 0.40309 1.4123 1.2555 2.1742 1.8118 0.84793 0.61919 1.6367 1.4449 2.6574 1.6911 2.516 0.60673 5.3012 0.16784 7.7306-0.72474 1.384-0.50849 2.2666-1.9601 3.6237-2.5366 1.548-0.65763 3.3436-0.47576 4.9524-0.96631 2.6752-0.81571 5.3274-1.8307 7.7306-3.2613 2.6583-1.5826 5.2032-3.4757 7.2474-5.7979 1.2775-1.4513 3.0198-4.9524 3.0198-4.9524s3.4353 2.3737 5.3148 3.2613c1.1168 0.52745 3.5029 1.2079 3.5029 1.2079s-4.6646-2.8882-6.4019-4.9524c-0.49872-0.59254-0.90042-1.3018-1.0871-2.0534-0.13588-0.54707 0-1.6911 0-1.6911s6.8675 0.77412 10.267 0.36238c2.7837-0.33713 5.5803-1.0504 8.0929-2.295 1.804-0.89359 3.3767-2.2323 4.8316-3.6237 1.6952-1.6212 3.3026-3.4006 4.4692-5.4356 0.81099-1.4146 1.4456-2.9781 1.6911-4.59 0.35803-2.3515-0.36237-7.1266-0.36237-7.1266s-3.6224 0.19898-5.4356 0.24158c-37.904 0.89064-113.74 0.29237-113.74 0.29237z"/>
  <path d="m166.617 2.55s-1.3502 3.8083-1.4495 5.7979c-0.08311 1.6663 0.29536 3.3402 0.72474 4.9524 0.36753 1.38 0.85909 2.7477 1.5703 3.9861 0.84238 1.4669 1.9366 2.7979 3.1405 3.9861 1.0833 1.0691 2.3212 1.9906 3.6237 2.7782 2.0503 1.2397 4.2988 2.1281 6.5227 3.0198 1.6191 0.64916 3.251 1.3063 4.9524 1.6911 3.4001 0.76892 10.388 1.2079 10.388 1.2079l-3.9861 0.84553s1.6087 1.6324 2.5366 2.295c1.4226 1.0159 3.024 1.7598 4.59 2.5366 1.6957 0.84109 3.4239 1.6246 5.194 2.295 1.7386 0.65849 3.4995 1.2899 5.3148 1.6911 1.8628 0.41169 3.7732 0.60371 5.6771 0.72474 1.9689 0.12517 3.9506 0.13792 5.9187 0 2.8798-0.20181 5.7717-0.52277 8.5761-1.2079 2.1154-0.51679 4.1885-1.2501 6.1603-2.1742 1.9945-0.93482 3.9278-2.0435 5.6771-3.3821 1.3794-1.0555 2.5957-2.3209 3.7445-3.6237 0.79887-0.906 1.5392-1.8715 2.1742-2.899 0.52066-0.84244 1.3287-2.6574 1.3287-2.6574l-8.3345-2.6574s3.4641 0.13484 5.194 0.24158c1.048 0.0647 2.0935 0.16301 3.1405 0.24158 1.6506 0.12387 3.2978 0.40926 4.9524 0.36237 1.8671-0.0529 3.7359-0.3067 5.5564-0.72474 1.7373-0.39896 3.4505-0.95326 5.0732-1.6911 1.4458-0.65737 2.808-1.5018 4.1069-2.4158 1.2858-0.9049 2.6427-1.791 3.6237-3.0198 1.4381-1.8012 2.6022-3.9192 3.1406-6.1603 0.48899-2.0358 0-6.2811 0-6.2811z" fill="#fff"/>
  <path d="m215.05 47s0.5842 3.4658 1.4495 4.9524c0.90241 1.5504 2.2228 2.9154 3.7445 3.8653 1.5446 0.9641 3.3924 1.4271 5.194 1.6911 1.6737 0.24521 3.4068 0.17002 5.0732-0.12079 1.1288-0.197 2.251-0.5464 3.2613-1.0871 0.80951-0.43323 2.1742-1.6911 2.1742-1.6911s3.0892 1.2386 4.7108 1.5703c2.4143 0.49385 4.905 0.5294 7.3682 0.60395 1.8919 0.0573 5.6771-0.12079 5.6771-0.12079s2.3536 1.4927 3.6237 2.0534c2.0151 0.88966 4.1519 1.489 6.2811 2.0534 1.5494 0.41077 3.1145 0.82007 4.7108 0.96631 2.0453 0.18737 4.1152 0.0687 6.1603-0.12079 1.7071-0.15814 5.0732-0.84552 5.0732-0.84552s0.95467 1.2298 1.5703 1.6911c1.369 1.0257 3.0167 1.6236 4.59 2.295 2.2021 0.93971 4.4412 1.8362 6.7642 2.4158 2.685 0.66994 5.449 1.0884 8.2137 1.2079 2.6999 0.11668 5.4109-0.15144 8.0929-0.48316 2.1552-0.26656 4.3093-0.62742 6.4019-1.2079 1.1171-0.30988 3.2613-1.2079 3.2613-1.2079v-63.294l-38.049-0.24158s-1.799 1.5973-2.295 2.6574c-1.2624 2.6979 4e-3 6.2178-1.4495 8.8177-1.9501 3.4879-5.5627 5.9169-9.0593 7.8514-2.6524 1.4674-5.6989 2.2096-8.6969 2.6574-1.3141 0.19629-2.6585-0.0541-3.9861 0-1.9778 0.0806-5.9187 0.48316-5.9187 0.48316l1.0871 4.4692s-9.0701 7.7774-14.374 10.388c-4.1833 2.059-9.0828 2.244-13.408 3.9861-2.5222 1.016-7.2474 3.7445-7.2474 3.7445z"/>
  <path d="m219.3 47.32s1.4133 3.7734 2.8186 5.1247c0.8719 0.83837 2.094 1.253 3.2456 1.6228 1.2077 0.38781 2.4896 0.59714 3.7581 0.59788 1.6429 9.6e-4 4.8684-0.7687 4.8684-0.7687s-2.0069-1.0938-2.904-1.7936c-1.1588-0.90402-2.2671-1.9075-3.1602-3.0748-0.17812-0.2328-0.42706-0.76871-0.42706-0.76871s2.0396 1.046 3.0748 1.5374c1.6922 0.80338 3.3462 1.7181 5.1247 2.3061 2.0201 0.6679 4.1261 1.0847 6.235 1.3666 1.6953 0.22658 3.4174 0.35946 5.1247 0.25624 0.8363-0.0506 2.4769-0.42706 2.4769-0.42706s-1.8175-1.8496-2.5623-2.904c-0.50738-0.71822-0.93931-1.4959-1.2812-2.3061-0.46221-1.0954-0.79531-2.2499-1.0249-3.4165-0.22651-1.1508-0.45535-2.3346-0.34165-3.5019 0.11527-1.1834 0.57213-2.3171 1.0249-3.4165 0.55298-1.3426 1.2044-2.6631 2.0499-3.8435 0.72718-1.0152 1.5612-1.9867 2.5624-2.7332 0.58694-0.43759 1.4101-1.4604 1.9645-0.98223 0.62381 0.53806-0.42171 1.6017-0.76871 2.3488-0.47925 1.0319-1.2963 1.8807-1.7936 2.904-0.39764 0.81822-0.75871 1.6708-0.93953 2.5624-0.23229 1.1454-0.3027 2.3407-0.17082 3.5019 0.13018 1.1463 0.50554 2.2621 0.93952 3.331 0.58465 1.44 1.3079 2.8419 2.2207 4.0998 0.89893 1.2387 1.999 2.334 3.1602 3.331 1.5519 1.3326 3.234 2.5401 5.0393 3.5019 1.5912 0.8477 3.3144 1.44 5.0393 1.9645 2.0091 0.6109 4.0592 1.1677 6.1496 1.3666 1.9565 0.18612 5.8934-0.17082 5.8934-0.17082s-1.1682-1.7469-1.7082-2.6478c-0.45214-0.75422-0.86521-1.5314-1.2812-2.3061-0.40959-0.7629-0.99063-1.4649-1.1958-2.3061-0.14164-0.58086 0-1.7936 0-1.7936s1.0157 1.7539 1.6228 2.5624c0.98112 1.3064 2.103 2.505 3.2456 3.6727 1.0569 1.08 2.0812 2.2256 3.331 3.0748 1.3587 0.92316 2.9288 1.4947 4.4414 2.1353 1.5926 0.67438 3.2167 1.2809 4.8684 1.7936 1.6553 0.51381 3.3312 0.98708 5.0393 1.2812 1.8315 0.31534 3.694 0.46177 5.5517 0.51247 2.2784 0.0622 4.5678-3e-3 6.8329-0.25623 1.8424-0.20612 3.6739-0.55153 5.4663-1.0249 1.8629-0.49202 5.4663-1.879 5.4663-1.879l0.0714-59.568-38.049-0.24158s0.23429 2.1758 0.31098 3.2671c0.0879 1.2509 0.29992 2.5108 0.17082 3.7581-0.10592 1.0234-0.38567 2.0345-0.7687 2.9894-0.49826 1.2422-1.1854 2.4136-1.9645 3.5019-0.86845 1.2131-1.9141 2.2969-2.9894 3.331-1.093 1.0511-2.2207 2.0927-3.5019 2.904-1.5926 1.0085-3.3249 1.831-5.1247 2.3915-2.1227 0.66114-4.3564 0.99525-6.5767 1.1103-2.8505 0.14776-8.5456-0.54487-8.5456-0.54487s-0.16749 1.3537 4e-3 1.9969c0.17741 0.66536 0.57836 1.2695 1.0249 1.7936 0.73531 0.86306 1.7476 1.4458 2.6478 2.1353 1.2471 0.95521 3.8118 2.7711 3.8118 2.7711s-2.1234-0.485-3.1285-0.89204c-0.83823-0.33946-1.6205-0.80846-2.3915-1.2812-1.1419-0.7001-3.2976-2.296-3.2976-2.296s-1.378 2.6927-2.2541 3.9188c-0.52784 0.73873-1.1509 1.4086-1.7936 2.0499-0.82855 0.82666-1.723 1.5886-2.6478 2.3061-1.2291 0.95372-2.4881 1.8842-3.8435 2.6478-1.632 0.91943-3.3654 1.6628-5.1247 2.3061-1.168 0.42711-2.3762 0.74254-3.5873 1.0249-1.24 0.28912-2.5932 0.16939-3.7581 0.68329-0.6877 0.30337-1.198 0.90808-1.7936 1.3666-0.51445 0.39603-0.95367 0.91161-1.5374 1.1958-0.94992 0.4624-2.0363 0.5747-3.0748 0.76871-0.4511 0.0843-1.3661 0.17082-1.3661 0.17082z" fill="#fff"/>
  <path d="m318.38 42.29s-2.4672 1.0817-3.7581 1.452c-1.4492 0.41568-2.9454 0.66773-4.4414 0.85411-1.9527 0.24327-3.9262 0.38679-5.8934 0.34165-1.3736-0.0315-2.7523-0.15838-4.0998-0.42706-1.6608-0.33116-3.2938-0.82897-4.8685-1.452-1.7167-0.67921-3.464-1.3866-4.9539-2.4769-1.1211-0.82044-2.1582-1.8174-2.904-2.9894-0.47408-0.74499-0.75584-1.6132-0.93953-2.4769-0.31438-1.4783-0.25623-4.5268-0.25623-4.5268s-0.95251 1.4318-1.2812 2.2207c-0.12484 0.29964-0.25623 0.93952-0.25623 0.93952s-1.7802-0.0556-2.5623-0.42705c-0.85643-0.40676-1.516-1.1611-2.1353-1.8791-0.37652-0.43653-0.82241-0.88753-0.93953-1.452-0.14073-0.67827 0.10449-1.399 0.34165-2.0499 0.24908-0.68356 1.1104-1.879 1.1104-1.879s-1.5342 0.23919-2.1353 0.68329c-0.64155 0.47403-1.105 1.2109-1.3666 1.9645-0.30871 0.88918-0.44417 1.9179-0.17081 2.8186 0.25964 0.85545 0.97142 1.523 1.6228 2.1353 0.59837 0.56245 1.2832 1.0724 2.0499 1.3666 1.2894 0.49478 4.0998 0.59789 4.0998 0.59789s0.27739 1.5795 0.59788 2.3061c0.5896 1.3366 1.3959 2.6036 2.3915 3.6727 0.80329 0.86258 1.8106 1.5243 2.8186 2.1353 1.4811 0.89786 3.0564 1.6671 4.6976 2.2207 1.8201 0.61391 3.7342 0.93434 5.6372 1.1958 2.2046 0.30285 4.439 0.52564 6.6621 0.42705 1.4964-0.0664 2.9762-0.37185 4.4414-0.68329 1.2701-0.26998 2.5119-0.66041 3.7581-1.0249 0.91612-0.26797 2.7332-0.85411 2.7332-0.85411z"/>
 </g>
</svg>
