<?xml version="1.0" encoding="UTF-8"?>

<svg width="1029" height="535" version="1.1" viewBox="0 0 1029 535" xmlns="http://www.w3.org/2000/svg">

  <rect x="0" y="0" width="1029" height="535" fill="#ED1C24" stroke="#ED1C24"/>

  <line stroke-dasharray=".1 25"
        style="stroke-width:13; stroke-linecap: round; stroke:#FFFD00;"
        x1="10" y1="10" x2="1015" y2="10"/>
  <line stroke-dasharray=".1 25"
        style="stroke-width:13; stroke-linecap: round; stroke:#FFFD00;"
        x1="10" y1="35" x2="1015" y2="35"/>
  <line stroke-dasharray=".1 25"
        style="stroke-width:13; stroke-linecap: round; stroke:#FFFD00;"
        x1="10" y1="60" x2="1015" y2="60"/>
  <line stroke-dasharray=".1 25"
        style="stroke-width:13; stroke-linecap: round; stroke:#FFFD00;"
        x1="10" y1="85" x2="1015" y2="85"/>
  <line stroke-dasharray=".1 25"
        style="stroke-width:13; stroke-linecap: round; stroke:#FFFD00;"
        x1="10" y1="110" x2="1015" y2="110"/>
  <line stroke-dasharray=".1 25"
        style="stroke-width:13; stroke-linecap: round; stroke:#FFFD00;"
        x1="10" y1="135" x2="1015" y2="135"/>
  <line stroke-dasharray=".1 25"
        style="stroke-width:13; stroke-linecap: round; stroke:#FFFD00;"
        x1="10" y1="160" x2="1015" y2="160"/>
  <line stroke-dasharray=".1 25"
        style="stroke-width:13; stroke-linecap: round; stroke:#FFFD00;"
        x1="10" y1="185" x2="1015" y2="185"/>
  <line stroke-dasharray=".1 25"
        style="stroke-width:13; stroke-linecap: round; stroke:#FFFD00;"
        x1="10" y1="210" x2="1015" y2="210"/>
  <line stroke-dasharray=".1 25"
        style="stroke-width:13; stroke-linecap: round; stroke:#FFFD00;"
        x1="10" y1="235" x2="1015" y2="235"/>
  <line stroke-dasharray=".1 25"
        style="stroke-width:13; stroke-linecap: round; stroke:#FFFD00;"
        x1="10" y1="260" x2="1015" y2="260"/>
  <line stroke-dasharray=".1 25"
        style="stroke-width:13; stroke-linecap: round; stroke:#FFFD00;"
        x1="10" y1="285" x2="1015" y2="285"/>
  <line stroke-dasharray=".1 25"
        style="stroke-width:13; stroke-linecap: round; stroke:#FFFD00;"
        x1="10" y1="310" x2="1015" y2="310"/>
  <line stroke-dasharray=".1 25"
        style="stroke-width:13; stroke-linecap: round; stroke:#FFFD00;"
        x1="10" y1="335" x2="1015" y2="335"/>
  <line stroke-dasharray=".1 25"
        style="stroke-width:13; stroke-linecap: round; stroke:#FFFD00;"
        x1="10" y1="360" x2="1015" y2="360"/>
  <line stroke-dasharray=".1 25"
        style="stroke-width:13; stroke-linecap: round; stroke:#FFFD00;"
        x1="10" y1="385" x2="1015" y2="385"/>
  <line stroke-dasharray=".1 25"
        style="stroke-width:13; stroke-linecap: round; stroke:#FFFD00;"
        x1="10" y1="410" x2="1015" y2="410"/>
  <line stroke-dasharray=".1 25"
        style="stroke-width:13; stroke-linecap: round; stroke:#FFFD00;"
        x1="10" y1="435" x2="1015" y2="435"/>
  <line stroke-dasharray=".1 25"
        style="stroke-width:13; stroke-linecap: round; stroke:#FFFD00;"
        x1="10" y1="460" x2="1015" y2="460"/>
  <line stroke-dasharray=".1 25"
        style="stroke-width:13; stroke-linecap: round; stroke:#FFFD00;"
        x1="10" y1="485" x2="1015" y2="485"/>
  <line stroke-dasharray=".1 25"
        style="stroke-width:13; stroke-linecap: round; stroke:#FFFD00;"
        x1="10" y1="510" x2="1015" y2="510"/>
</svg>
