<?xml version="1.0" encoding="UTF-8"?>
<svg width="1029" height="535" version="1.1" viewBox="0 0 1029 535" xmlns="http://www.w3.org/2000/svg">

 <rect width="1029" height="535" fill="#F2EEE4" stroke=""/>
 <rect width="1029" height="267.5" fill="#A52A2A" opacity=".25"/>

 <g fill="#FFE000" stroke="#000" stroke-width="6">
  <polyline points="0 0 50 0 514.5 267.5 0 30" opacity=""/>
  <polyline points="220 0 514.5 267.5 310 0" opacity=""/>
  <polyline points="470 0 514.5 267.5 550 0" opacity=""/>
  <polyline points="730 0 514.5 267.5 810 0" opacity=""/>
  <polyline points="990 0 514.5 267.5 1029 45 1029 0" opacity=""/>
  <polyline points="1029 150 514.5 267.5 1029 230" opacity=""/>
  <polyline points="0 140 514.5 267.5 0 210" opacity=""/>
 </g>

 <circle cx="514.5" cy="267.5" r="80"
   fill="#A52A2A" stroke="#000" stroke-width="6"/>
 <path d="m0 0
   h 1029
   l -0.4393 31.543
   s -31.619 6.4976-47.624 6.185
   c -11.081-0.21644-21.795-4.0954-32.78-5.5665-12.525-1.6773-25.092-3.7456-37.728-3.711-15.96 0.04373-31.683 4.174-47.624 4.948-31.713 1.5398-63.534 0.88701-95.249-0.6185-32.665-1.5506-65.26-12.611-97.723-8.659-14.497 1.765-26.866 13.267-41.439 14.225-20.778 1.3665-40.454-10.997-61.231-12.37-33.608-2.2206-67.145 5.9259-100.82 6.8035-27.002 0.70378-54.028-2.159-81.023-1.237-41.974 1.4336-83.714 14.149-125.55 10.514-21.023-1.826-40.18-14.604-61.231-16.081-33.545-2.3533-66.571 12.147-100.2 11.751-17.697-0.20794-35.175-4.1748-52.572-7.422-15.19-2.8353-45.15-10.514-45.15-10.514z" fill="#ffe000" stroke="#000" stroke-width="5"/>
 <g transform="matrix(7.7029 0 0 7.5768 -280.25 -516.39)" fill="#fff" stroke="#000">
  <path d="m36.844 115.98 67.383-0.11133s-0.73665-1.5275-1.2111-2.2266
    c-0.51532-0.75923-1.7617-2.1153-1.7617-2.1153
    l 5.0648-4.2305
    s -3.3461-1.8002-5.1749-2.2266
    c -1.3958-0.32545-2.8613-0.26286-4.294-0.22266-1.0332 0.029-2.0807 0.58692-3.0829 0.33399-1.0796-0.27247-1.7358-1.4388-2.7526-1.8926-1.5861-0.70791-3.3376-1.0409-5.0648-1.2246-1.4603-0.15535-3.0276 0.62289-4.4041 0.11133-1.8117-0.6733-2.7351-2.7539-4.294-3.8965-0.89102-0.65307-1.857-1.2128-2.8627-1.6699-0.63466-0.28845-1.3524-0.3683-1.9819-0.66798-0.6272-0.2986-1.1162-0.85665-1.7617-1.1133-1.0773-0.42832-2.4004-0.10383-3.4132-0.66798-0.70737-0.39402-0.97397-1.338-1.6516-1.7813-1.8865-1.2342-4.1487-1.9502-6.386-2.2266-1.6457-0.20332-3.2965 0.43704-4.9547 0.44532-1.3991 7e-3 -2.7849-0.34239-4.1839-0.33399-0.81082 0.0049-1.6481-0.0183-2.4223 0.22266-1.447 0.45036-2.6663 1.4434-3.9637 2.2266-0.93564 0.56478-1.6759 1.5936-2.7526 1.7813-0.48266 0.08412-0.9427-0.29846-1.4313-0.33399-0.88162-0.06411-2.6425 0.22266-2.6425 0.22266z" stroke-width="1.0525"/>
  <g stroke-linecap="round">
   <g stroke-width="1.0583">
    <path d="m44.532 92.376s1.9477-0.18548 2.8946 0c1.0617 0.20798 3.0059 1.2246 3.0059 1.2246"/>
    <path d="m42.528 98.277s1.9492-2.342 3.2286-3.1172c1.4051-0.85144 3.0353-1.4702 4.6758-1.5586 0.8722-0.04701 1.6982 0.41795 2.5606 0.55665 0.69999 0.11258 1.4237 0.0665 2.1153 0.22266 0.65258 0.14736 1.8926 0.66798 1.8926 0.66798"/>
    <path d="m37.518 102.84s1.6328-1.8327 2.6719-2.4492c1.3827-0.82039 2.9609-1.4432 4.5645-1.5586 1.2051-0.08674 2.3569 0.58959 3.5625 0.66798 0.6676 0.0434 1.3583 0.06386 2.0039-0.11133 1.4897-0.40419 2.6114-1.7852 4.1192-2.1153 1.6692-0.36533 3.4346-0.05104 5.1212 0.22266 1.3334 0.21638 2.6201 0.67135 3.8965 1.1133 0.83354 0.2886 2.4493 1.002 2.4493 1.002"/>
    <path d="m60.563 93.378 5.9005 0.44532"/>
    <path d="m67.911 96.718 4.6758-0.44532"/>
    <path d="m74.591 101.95s3.915 0.34345 5.7891 0.89064c1.3238 0.38651 2.5619 1.0332 3.7852 1.6699 1.4622 0.76101 2.9838 1.4823 4.2305 2.5606 0.61814 0.53462 1.5586 1.8926 1.5586 1.8926"/>
    <path d="m101.25 111.53s-1.9203-2.2628-3.1736-3.0059c-1.0398-0.61644-2.2644-0.88375-3.4512-1.1133-2.0819-0.40266-4.2266-0.37105-6.3458-0.44532-0.03709-1e-3 -0.11133 0-0.11133 0"/>
   </g>
   <path d="m93.517 105.29-2.3379 1.336" stroke-width=".79375"/>
  </g>
 </g>
 <g transform="matrix(7.3999 0 0 7.2956 -252.58 -486.32)" stroke="#000">
  <path d="m172.89 116.76-68.913 0.66798 0.22266-1.8926-2.2266-3.6739s2.4064-2.3754 3.7852-3.3399c1.592-1.1136 3.2638-2.2132 5.1212-2.7832 1.818-0.55794 3.781-0.42065 5.6778-0.55665 2.4455-0.17534 4.9114-0.60853 7.3477-0.33399 1.7983 0.20264 5.2325 1.4473 5.2325 1.4473s2.3915-2.4648 3.7852-3.4512c1.4094-0.99748 2.9867-1.7478 4.5645-2.4492 1.9092-0.84882 3.9212-1.4459 5.9005-2.1153 0.81159-0.27449 1.6808-0.40055 2.4492-0.77931 0.93261-0.45966 1.6113-1.3571 2.5606-1.7813 1.3231-0.59116 2.8946-0.44038 4.2305-1.002 0.76878-0.32317 1.3382-1.0332 2.1153-1.336 1.5463-0.60259 3.2466-1.0506 4.8985-0.89064 1.8246 0.17674 3.4991 1.15 5.1212 2.0039 1.1111 0.58497 2.0132 1.5169 3.1172 2.1153 1.0968 0.59438 2.3617 0.83976 3.4512 1.4473 0.55763 0.31094 1.5586 1.1133 1.5586 1.1133z" fill="#fff" stroke-width="1.0583"/>
  <g fill="none" stroke-linecap="round" stroke-width=".79375">
   <path d="m121.13 111.94s1.7384-2.2963 2.8946-3.1172c1.5853-1.1256 3.4178-2.072 5.3438-2.3379 1.3361-0.18447 4.0079 0.55665 4.0079 0.55665"/>
   <path d="m146.62 97.498s3.3436 0.35591 5.0098 0.22266c1.0955-0.08761 2.1306-0.62024 3.2286-0.66798 1.2692-0.05519 2.5929 0.0066 3.7852 0.44532 0.50229 0.1848 1.336 0.89064 1.336 0.89064s1.4195-0.96758 2.2266-1.2246c1.2457-0.39671 2.5892-0.44327 3.8965-0.44532 0.67209-0.0011 2.0039 0.22266 2.0039 0.22266"/>
   <path d="m137.16 102.73s1.9371-1.1403 3.0059-1.4473c1.2919-0.37107 2.6637-0.44268 4.0079-0.44532 1.045-2e-3 3.1172 0.33399 3.1172 0.33399"/>
   <path d="m145.73 103.06s2.4142-2.14 3.8965-2.6719c1.1922-0.42783 2.5653-0.67474 3.7852-0.33399 0.66484 0.1857 1.6699 1.2246 1.6699 1.2246s2.3436-0.81236 3.5625-1.002c1.064-0.16552 2.1604-0.24799 3.2286-0.11133 1.4209 0.18179 2.8322 0.59562 4.1192 1.2246 0.57361 0.28036 1.5586 1.1133 1.5586 1.1133"/>
   <path d="m160.98 102.62s1.6939-0.66537 2.5606-0.55665c0.65868 0.0826 1.1233 0.80253 1.7813 0.89064 0.7502 0.10047 2.2266-0.44532 2.2266-0.44532s1.7955-0.66255 2.6719-0.44532c0.95095 0.2357 2.3379 1.7813 2.3379 1.7813"/>
  </g>
 </g>
 <g transform="matrix(7.4656 0 0 11.314 -221.02 -1460.4)" stroke="#000">
  <path d="m30.035 157.52s4.978-1.1003 7.5088-1.1263c1.9557-0.0201 3.8997 0.37608 5.8193 0.75088 2.4132 0.47117 4.7356 1.3328 7.1333 1.8772 2.9201 0.66299 5.8365 1.4701 8.8228 1.6895 2.9357 0.21568 5.8891-0.13451 8.8228-0.37544 2.5758-0.21154 5.1196-0.7403 7.6965-0.93859 3.8701-0.29781 7.7571-0.38843 11.639-0.37544 4.8218 0.0161 9.6351 0.40904 14.454 0.56316 2.5024 0.08 5.0128-9e-3 7.5088 0.18772 2.8319 0.22354 5.6262 0.79364 8.4474 1.1263 2.4363 0.28729 4.868 0.73426 7.321 0.75088 2.8268 0.0191 5.6519-0.33035 8.4474-0.75088 3.8592-0.58056 7.6614-1.507 11.451-2.4404 1.5774-0.3885 3.0836-1.093 4.693-1.314 2.7276-0.37466 5.5066-0.0344 8.2596 0 2.5035 0.0313 5.0053 0.15642 7.5088 0.18771 0.50055 6e-3 1.5018 0 1.5018 0v18.584h-136.85z" fill="#c83737" stroke-width="1.0583"/>
  <g fill="none">
   <path d="m30.534 166.16s8.1879-0.89239 12.297-1.1263c2.7911-0.15888 5.595-0.37127 8.3846-0.18772 3.2607 0.21454 6.4261 1.3221 9.6889 1.5018 1.4277 0.0786 2.8736 0.0397 4.2855-0.18772 3.6309-0.58491 7.0919-1.9616 10.621-3.0035 2.2436-0.66248 4.4158-1.5999 6.7077-2.0649 4.8346-0.98093 14.72-1.5018 14.72-1.5018v0" stroke-linecap="round" stroke-width="1.0544"/>
   <path d="m30.223 175.92s5.1571-2.0698 7.8842-2.2526c3.4699-0.23259 6.8473 1.5588 10.325 1.5018 4.2585-0.0698 8.3604-1.6539 12.577-2.2526 5.9179-0.84031 11.921-1.0015 17.833-1.8772 5.9241-0.8774 11.725-2.4783 17.646-3.3789 3.2996-0.50194 6.6121-1.0663 9.9491-1.1263 3.2629-0.0587 6.5356 1.2446 9.7614 0.75088 4.3301-0.66271 7.8245-4.7107 12.202-4.8807 2.0962-0.0814 3.9493 1.4691 6.007 1.8772 2.7729 0.54989 5.653 0.32358 8.4474 0.75088 3.482 0.53244 6.8068 2.0693 10.325 2.2526 1.6976 0.0885 3.4156-0.16582 5.0684-0.56316 2.9266-0.70359 8.4474-3.1912 8.4474-3.1912v-0.18772" stroke-width="1.3229"/>
   <path d="m123.89 174.98s7.6746-1.1804 11.451-2.0649c2.4102-0.56456 4.7385-1.4385 7.1333-2.0649 2.9221-0.76433 5.9981-0.99547 8.8228-2.0649 0.86403-0.32712 2.4404-1.314 2.4404-1.314" stroke-linecap="round" stroke-width="1.3229"/>
  </g>
 </g>
</svg>
