<?xml version="1.0" encoding="UTF-8" standalone="no"?>
<!-- Created with Inkscape (http://www.inkscape.org/) -->

<svg
   xmlns:osb="http://www.openswatchbook.org/uri/2009/osb"
   xmlns:dc="http://purl.org/dc/elements/1.1/"
   xmlns:cc="http://creativecommons.org/ns#"
   xmlns:rdf="http://www.w3.org/1999/02/22-rdf-syntax-ns#"
   xmlns:svg="http://www.w3.org/2000/svg"
   xmlns="http://www.w3.org/2000/svg"
   xmlns:xlink="http://www.w3.org/1999/xlink"
   xmlns:sodipodi="http://sodipodi.sourceforge.net/DTD/sodipodi-0.dtd"
   xmlns:inkscape="http://www.inkscape.org/namespaces/inkscape"
   width="210mm"
   height="60mm"
   viewBox="0 0 744.09449 212.59843"
   id="svg2"
   version="1.1"
   inkscape:version="0.91 r13725"
   sodipodi:docname="esquadron.svg">
  <defs
     id="defs4">
    <linearGradient
       id="linearGradient4243"
       osb:paint="solid">
      <stop
         style="stop-color:#000000;stop-opacity:1;"
         offset="0"
         id="stop4245" />
    </linearGradient>
    <linearGradient
       id="linearGradient4237"
       osb:paint="solid">
      <stop
         style="stop-color:#000000;stop-opacity:1;"
         offset="0"
         id="stop4239" />
    </linearGradient>
    <linearGradient
       id="linearGradient4170"
       osb:paint="solid">
      <stop
         style="stop-color:#000000;stop-opacity:1;"
         offset="0"
         id="stop4172" />
    </linearGradient>
    <linearGradient
       id="linearGradient4148"
       osb:paint="solid">
      <stop
         style="stop-color:#0000d4;stop-opacity:1;"
         offset="0"
         id="stop4150" />
    </linearGradient>
    <filter
       inkscape:collect="always"
       style="color-interpolation-filters:sRGB"
       id="filter4235"
       x="-0.0090325829"
       width="1.0180652"
       y="-0.017871067"
       height="1.035742">
      <feGaussianBlur
         inkscape:collect="always"
         stdDeviation="0.62233425"
         id="feGaussianBlur4237" />
    </filter>
    <linearGradient
       inkscape:collect="always"
       xlink:href="#linearGradient4170"
       id="linearGradient6177"
       gradientUnits="userSpaceOnUse"
       gradientTransform="matrix(0.71653846,0,0,0.71653843,221.73834,764.36828)"
       x1="22.923622"
       y1="214.59564"
       x2="794.42804"
       y2="214.59564" />
  </defs>
  <sodipodi:namedview
     id="base"
     pagecolor="#ffffff"
     bordercolor="#666666"
     borderopacity="1.0"
     inkscape:pageopacity="0.0"
     inkscape:pageshadow="2"
     inkscape:zoom="0.86774299"
     inkscape:cx="466.89274"
     inkscape:cy="167.35864"
     inkscape:document-units="px"
     inkscape:current-layer="layer1"
     showgrid="false"
     inkscape:window-width="1309"
     inkscape:window-height="744"
     inkscape:window-x="57"
     inkscape:window-y="24"
     inkscape:window-maximized="1" />
  <metadata
     id="metadata7">
    <rdf:RDF>
      <cc:Work
         rdf:about="">
        <dc:format>image/svg+xml</dc:format>
        <dc:type
           rdf:resource="http://purl.org/dc/dcmitype/StillImage" />
        <dc:title></dc:title>
      </cc:Work>
    </rdf:RDF>
  </metadata>
  <g
     inkscape:label="Capa 1"
     inkscape:groupmode="layer"
     id="layer1"
     transform="translate(0,-839.76378)">
    <flowRoot
       xml:space="preserve"
       id="flowRoot4140"
       style="font-style:normal;font-weight:normal;font-size:40px;line-height:125%;font-family:sans-serif;letter-spacing:0px;word-spacing:0px;fill:#000000;fill-opacity:1;stroke:none;stroke-width:1px;stroke-linecap:butt;stroke-linejoin:miter;stroke-opacity:1"><flowRegion
         id="flowRegion4142"><rect
           id="rect4144"
           width="345.71429"
           height="221.42857"
           x="122.85714"
           y="226.64792" /></flowRegion><flowPara
         id="flowPara4146" /></flowRoot>    <text
       xml:space="preserve"
       style="font-style:normal;font-weight:normal;font-size:28.66153717px;line-height:1000%;font-family:sans-serif;letter-spacing:0px;word-spacing:0px;fill:#ff0000;fill-opacity:1;stroke:url(#linearGradient6177);stroke-width:1.43307686;stroke-linecap:butt;stroke-linejoin:miter;stroke-miterlimit:4;stroke-dasharray:none;stroke-opacity:1"
       x="241.18723"
       y="942.12"
       id="text4166"
       sodipodi:linespacing="1000%"
       transform="scale(0.93591868,1.0684689)"><tspan
         sodipodi:role="line"
         id="tspan4168"
         x="241.18723"
         y="942.12"
         style="font-style:normal;font-variant:normal;font-weight:normal;font-stretch:normal;font-size:128.97691345px;line-height:1000%;font-family:'Bright Young Things';-inkscape-font-specification:'Bright Young Things, Normal';text-align:start;writing-mode:lr-tb;text-anchor:start;fill:#ff0000;fill-opacity:1;stroke:url(#linearGradient6177);stroke-width:1.43307686;stroke-miterlimit:4;stroke-dasharray:none">squadron</tspan></text>
    <g
       id="g4243"
       transform="matrix(0.49107165,0,0,0.49792303,166.34175,686.14311)">
      <path
         sodipodi:nodetypes="ccaaassaaaaaaasssssaaaasaaasassaaaaaaassaaaaassaaaaasassaaaaaaasccssaaaaaaaaasaaaaaaaaaasc"
         inkscape:connector-curvature="0"
         id="path4334"
         d="m -211.64372,611.03379 18.21338,0.4438 c 0,0 6.17308,20.96519 10.81581,30.80965 5.24265,11.11656 11.30105,22.03515 19.07561,31.55458 9.83255,12.03931 21.45752,22.82949 34.28391,31.6106 10.71138,7.33314 22.17277,13.41358 34.967571,17.14195 12.51151,3.64583 28.48261,6.46718 43.14069,7.24964 12.28493,0.65578 25.69923,-1.80706 38.35516,-4.07125 8.5278301,-1.52566 17.2124901,-3.01544 25.19253,-6.38742 13.18317,-5.57058 25.52915,-13.38787 36.57471,-22.48858 8.828,-7.27361 16.35603,-16.11384 23.23351,-25.25382 5.95854,-7.91873 11.13347,-16.4802 15.44815,-25.40175 1.71481,-3.54573 3.74485,-7.15863 4.10188,-11.08103 0.25524,-2.80412 -0.12088,-5.84092 -1.45395,-8.32107 -1.07813,-2.00585 -3.29665,-3.49239 -4.9641,-4.69362 -9.39552,-6.76853 -35.99388,-16.25691 -28.07506,-16.22372 8.25692,0.0346 15.8047,0.73278 23.52937,-0.83158 2.34994,-0.4759 6.17821,-3.68346 6.17821,-3.68346 2.99778,-3.42347 5.72129,-5.77826 8.08122,-9.38725 2.29965,-3.51679 1.84129,-7.61595 1.87238,-11.49946 0.10391,-12.98113 -2.66472,-25.89832 -5.6425,-38.53372 -1.85557,-7.87359 -4.27299,-15.67079 -7.57614,-23.05494 -4.21249,-9.41695 -9.37757,-18.48109 -15.4788,-26.79969 -4.28255,-5.83896 -10.03857,-10.7288 -14.67785,-16.0145 -7.98122,-9.0933 -19.0921,-15.61381 -29.83014,-21.53971 -9.20808,-5.08157 -19.1208499,-9.0147 -29.2637899,-11.79533 -9.6515701,-2.64592 -19.6961101,-3.81303 -29.6769401,-4.54568 -5.61231,-0.41198 -16.88199,0.0919 -16.88199,0.0919 -5.74575,2.15292 10.43983,-5.92404 16.04515,-7.99456 5.19997,-1.92078 16.1318,-4.04061 16.1318,-4.04061 1.31786,-0.325 3.58511,-0.30392 4.93347,-0.14793 0,0 9.0952101,3.72408 13.8156301,5.05076 4.18071,1.17498 8.46878,1.99329 12.7748499,2.55602 4.01436,0.52461 8.09019,1.12665 12.12183,0.75762 5.53017,-0.5062 10.98807,-2.02445 16.16244,-4.04062 5.08925,-1.983 10.28737,-4.22829 14.39467,-7.82868 2.46006,-2.15645 4.38536,-4.97298 5.77774,-7.93329 1.61163,-3.42649 2.90527,-7.22173 2.80855,-11.00707 -0.13058,-5.11046 -1.73801,-9.88358 -4.54568,-14.64722 -0.54738,-0.92871 -2.04152,-0.94249 -2.02031,-2.0203 0,0 4.8044,-4.83512 6.31346,-7.82868 1.80139,-3.57347 2.98755,-7.61514 3.03045,-11.61675 0.039,-3.63416 -1.25421,-7.20179 -2.52537,-10.60661 -0.76381,-2.04587 -1.59754,-4.16043 -3.03046,-5.80837 -1.42545,-1.63936 -3.40252,-2.73624 -5.30331,-3.78808 -1.35411,-0.74933 -4.37873,-0.60144 -4.29314,-1.76776 0.40733,-5.55038 -1.2627,-11.61676 -1.2627,-11.61676 -0.91701,-2.0983 -2.26301,-4.71006 -4.04061,-6.56598 -2.39015,-2.49547 -5.40097,-4.46901 -8.58629,-5.80838 -3.8807,-1.63177 -8.16556,-2.61729 -12.37437,-2.52539 -4.85797,0.10607 -9.55906,1.92107 -14.14214,3.53554 -5.6839699,2.00228 -11.3061599,4.3798 -16.4149799,7.57614 -2.02852,1.26915 -5.5558401,4.54569 -5.5558401,4.54569 -3.93145,3.62262 -9.58745,9.34609 -13.63705,14.64721 -3.00631,3.9354 -7.82869,12.62691 -7.82869,12.62691 -6.52918,2.26244 -11.27352,4.33781 -17.17259,6.06091 -8.46697,2.47318 -16.3994,6.57253 -24.24366,10.6066 -9.06396,4.66132 -17.87529,9.8683 -26.263971,15.65737 -10.25763,7.07884 -20.2069,14.7044 -29.29443,23.23351 -8.43118,7.91309 -16.19141,16.5877 -23.23351,25.75889 -6.96781,9.07443 -13.32196,18.68473 -18.68782,28.78934 -5.57368,10.49596 -10.12027,21.56375 -13.90229,32.82996 -3.517,10.47677 -6.0304,21.29276 -8.11185,32.14631 -1.57478,8.21152 -2.86979,15.27513 -3.29569,24.86603 -0.0631,1.41996 1.77544,5.64128 -1.96429,5.02013 l -9.09137,0.59699 c 0,0 -0.38095,-8.72807 -4.00998,-14.49929 -3.37359,-5.36499 -8.3858,-10.69628 -12.83611,-15.18292 -5.60299,-5.6487 -12.93046,-9.17489 -20.15972,-12.28246 -3.58234,-1.5399 -7.43909,-2.45037 -11.29025,-3.06109 -4.1176,-0.65297 -8.33266,-0.91152 -12.49167,-0.62237 -6.71852,0.46709 -13.51642,1.48717 -19.84591,3.78807 -4.80559,1.74693 -9.27785,4.4423 -13.39721,7.47155 -3.7838,2.78249 -7.16096,6.13609 -10.21882,9.70105 -3.61354,4.2128 -7.06862,8.68706 -9.49184,13.68039 -2.19549,4.52409 -3.32101,9.51723 -4.4157,14.42531 -1.02128,4.57891 -2.02594,9.24164 -1.98966,13.93293 0.0386,4.99322 1.04903,9.94118 2.3468,14.79513 1.03539,3.87262 2.87647,9.10427 5.08141,13.31056 2.14619,4.09423 4.75863,7.99355 7.84137,11.43819 3.36678,3.76201 7.21551,7.1725 11.46882,9.89231 4.7832,3.05867 10.16892,5.11341 15.50943,7.04043 4.21006,1.51912 8.51376,2.96818 12.95341,3.53554 4.82311,0.61637 9.76493,0.45417 14.58593,-0.17857 5.62265,-0.73796 11.25741,-1.99997 16.48895,-4.18855 4.29143,-1.79529 8.21597,-4.43569 11.94325,-7.219 3.52153,-2.62965 6.84037,-5.58324 9.74439,-8.88216 2.11826,-2.40631 3.7311,-5.21521 5.5252,-7.87201 1.24254,-1.84005 3.62745,-7.39975 3.62745,-5.58648 z"
         style="fill:#ff0000;fill-opacity:1;fill-rule:evenodd;stroke:none;stroke-width:1px;stroke-linecap:butt;stroke-linejoin:miter;stroke-opacity:1" />
      <path
         sodipodi:nodetypes="aaaaaaaaacsaaaaacaaaaaaaaaaaaaaaaaaaaaasccsssaaaaaaaaaaaaaaasssaaaaaaaaaaasscaaaaaaaaaaaaaaasaaaaaaa"
         inkscape:connector-curvature="0"
         id="path4223"
         d="m -10.510619,411.31072 c 5.9211001,0.77337 10.68319007,5.51552 16.4285701,7.14285 3.23973,0.91763 6.6519399,1.07031 9.9999999,1.42858 3.32286,0.35557 6.67176,1.01528 10,0.71428 4.28473,-0.3875 8.5096,-1.60624 12.5,-3.21428 2.91724,-1.17559 5.9752,-2.43407 8.21429,-4.64286 2.35479,-2.32293 4.60958,-5.28683 5,-8.57143 0.2934,-2.46841 -0.86818,-5.00877 -2.14286,-7.14286 -1.03598,-1.73446 -2.54845,-3.25442 -4.28571,-4.28571 -3.62796,-2.15368 -12.14286,-3.57143 -12.14286,-3.57143 0,0 10.92611,-7.49711 18.57143,-14.28571 1.85878,-1.65049 2.22651,-4.65848 2.14286,-7.14286 -0.0684,-2.03314 -1.04153,-4.00391 -2.14286,-5.71429 -0.91147,-1.41552 -2.04412,-2.86306 -3.57143,-3.57143 -1.30046,-0.60315 -2.85224,-0.36898 -4.28571,-0.35714 -1.19637,0.01 -2.39273,0.15199 -3.57143,0.35714 -4.83576,0.84166 -14.28572,3.57143 -14.28572,3.57143 0,0 8.40433,-5.69531 10.71429,-10 1.3696,-2.5523 1.54416,-5.67719 1.42857,-8.57143 -0.0784,-1.96182 -0.29757,-4.10938 -1.42857,-5.71428 -1.48355,-2.10517 -3.90798,-3.75726 -6.42857,-4.28572 -4.0227,-0.84339 -8.26629,0.77699 -12.14286,2.14286 -5.12576,1.80601 -9.6856699,4.96323 -14.2857099,7.85714 -3.46728003,2.18129 -7.11155,4.23823 -10,7.14286 -3.49352,3.51309 -5.9522801,7.93732 -8.5714301,12.14286 -1.57712,2.53237 -2.74249,5.30397 -4.28572,7.85714 -0.44407,0.73469 -0.75909,1.6055 -1.42857,2.14286 -4.87922,3.91627 -11.67414,4.50462 -17.5,6.78571 -5.12568,2.00695 -10.24217,4.03735 -15.35714,6.07143 -3.57429,1.4214 -7.2597,2.59406 -10.71429,4.28572 -7.18812,3.51991 -14.03959,7.72613 -20.71428,12.14285 -8.65731,5.72865 -17.142011,11.78774 -25.000001,18.57143 -5.35248,4.62071 -10.2669,9.74664 -15,15 -7.59151,8.42598 -14.98093,17.0982 -21.42858,26.42857 -5.64136,8.16361 -10.70071,16.77082 -14.99999,25.71429 -3.86973,8.04992 -6.82349,16.5249 -9.64286,24.99999 -2.49832,7.51001 -4.704,15.13267 -6.42857,22.85715 -1.42008,6.36065 -2.29757,12.83327 -3.21429,19.28572 -0.57327,4.03501 -1.24223,8.07158 -1.42857,12.14285 -0.21234,4.63953 0.35714,13.92858 0.35714,13.92858 -0.88444,1.32995 -10.35714,0.35713 -10.35714,0.35713 l -25.35714,0.35714 c 0.12096,-8.71295 -1.42858,14.64286 -1.42858,14.64286 13.28607,0.57261 23.32348,0.69265 36.78572,0.71429 1.06479,0.002 2.81131,0.36476 2.85714,1.42857 0,0 2.74217,13.42528 4.64287,20 1.61022,5.56992 3.32288,11.14672 5.71427,16.42858 3.38621,7.47912 7.61816,14.57797 12.14286,21.42857 3.13627,4.74844 6.51434,9.37421 10.35715,13.57143 5.0075,5.46933 10.7417,10.24098 16.42857,14.99999 5.40507,4.52319 10.73531,9.24237 16.78571,12.85714 7.95896,4.75503 16.535621,8.5762 25.357141,11.42858 9.59687,3.10308 19.60819,5.05434 29.64286,6.07143 8.76462,0.88836 17.63548,0.53791 26.42857,0 6.82394,-0.41745 13.68534,-1.00755 20.35715,-2.5 9.6622201,-2.16139 19.2717001,-5.03599 28.21428,-9.28572 6.38297,-3.03333 12.14493,-7.26758 17.85715,-11.42857 4.98979,-3.63474 9.92943,-7.41167 14.28571,-11.78571 4.7759,-4.79539 8.69395,-10.37829 12.85715,-15.71428 3.55903,-4.56162 7.26095,-9.04097 10.35713,-13.92858 2.16604,-3.41929 5.71429,-10.71429 5.71429,-10.71429 0.26471,-0.91485 3.7172,-5.30521 2.85714,-5.71428 -15.93822,-7.58069 -25.87276,-13.14236 -37.85714,-20 0,0 -5.38147,10.67196 -8.57143,15.71429 -3.46275,5.47352 -7.03512,10.95532 -11.42857,15.71428 -4.46705,4.83868 -9.60063,9.08698 -14.9999999,12.85714 -5.5935,3.90572 -11.44708,7.66483 -17.85714,10 -9.5648701,3.48446 -19.8329901,5.20442 -30.0000001,5.71429 -8.11649,0.40703 -16.42408,-0.0843 -24.28572,-2.14286 -7.8346,-2.0515 -15.1409,-5.93033 -22.14285,-10 -5.59975,-3.25468 -11.0683,-6.91582 -15.714291,-11.42857 -4.74845,-4.61227 -8.62224,-10.10838 -12.14286,-15.71428 -3.68093,-5.86116 -6.84442,-12.09512 -9.28571,-18.57143 -1.65,-4.37717 -2.61924,-8.99154 -3.57143,-13.57143 -0.63746,-3.06609 -1.42857,-9.28572 -1.42857,-9.28572 56.142431,-0.15902 136.4735611,-0.70048 206.428571,-0.71428 3.36718,-6.6e-4 7.14286,-7.14286 7.14286,-7.14286 0,0 0.51615,-10.50168 0,-15.71428 -0.59815,-6.04072 -2.17677,-11.94927 -3.57143,-17.85715 -1.24742,-5.28416 -2.48435,-10.59241 -4.28572,-15.71428 -1.98119,-5.63316 -4.47962,-11.08397 -7.14285,-16.42857 -2.80551,-5.63013 -5.74228,-11.23115 -9.28572,-16.42858 -2.76497,-4.0556 -6.06635,-7.72334 -9.28571,-11.42857 -2.98347,-3.43374 -5.86153,-7.00558 -9.28572,-10 -3.72954,-3.26144 -7.9475,-5.936 -12.14285,-8.57143 -4.15153,-2.60789 -8.4699,-4.95463 -12.85715,-7.14285 -6.2953,-3.13989 -12.6549599,-6.22134 -19.2857099,-8.57143 -6.04261,-2.14164 -12.2544701,-3.90646 -18.5714301,-5 -5.88389,-1.01857 -11.88577,-1.41098 -17.85714,-1.42857 -6.44616,-0.019 -12.88461,0.66755 -19.28572,1.42857 -8.02645,0.95425 -16.13247,1.79427 -23.92857,3.92857 -7.27109,1.99058 -14.3667,4.76789 -21.071431,8.21429 -5.81466,2.98889 0,0 -16.42857,10.71428 -6.51135,4.24653 9.36658,-12.50033 15,-17.85714 7.143311,-6.79255 15.603761,-12.05354 23.571431,-17.85714 4.69839,-3.42228 9.26795,-7.06591 14.28572,-10 5.69968,-3.33283 11.74677,-6.06993 17.85714,-8.57143 4.42478,-1.81145 9.0094,-3.21183 13.57143,-4.64286 4.13474,-1.297 8.26575,-2.64972 12.49999,-3.57143 3.88249,-0.84514 7.84578,-2.30032 11.78572,-1.78571 z"
         style="fill:#008fc6;fill-opacity:1;fill-rule:evenodd;stroke:#008ec6;stroke-width:1px;stroke-linecap:butt;stroke-linejoin:miter;stroke-opacity:1" />
      <g
         transform="translate(-455.78141,-2.6071534)"
         id="g4330">
        <ellipse
           style="opacity:1;fill:#ffffff;fill-opacity:1;fill-rule:nonzero;stroke:none;stroke-width:2;stroke-miterlimit:4;stroke-dasharray:none;stroke-opacity:1"
           id="path4306-1"
           cx="190.16121"
           cy="586.17682"
           rx="48.739861"
           ry="49.497475" />
        <ellipse
           style="opacity:1;fill:#000000;fill-opacity:1;fill-rule:nonzero;stroke:none;stroke-width:2;stroke-miterlimit:4;stroke-dasharray:none;stroke-opacity:1"
           id="path4306"
           cx="198.97975"
           cy="570.56006"
           rx="21.213203"
           ry="21.718279" />
      </g>
      <path
         sodipodi:nodetypes="ssssssssssssssssssss"
         inkscape:connector-curvature="0"
         id="path4233"
         d="m -126.80504,579.10875 c 24.12002,-0.12202 36.921487,-0.97227 54.285717,-0.71428 4.65606,0.0692 9.34032,-0.27668 13.92857,-1.07143 5.34974,-0.92665 10.6363,-2.36411 15.71428,-4.28572 7.81777,-2.9584 14.8414,-7.72248 22.5,-11.07143 6.07696,-2.65734 12.2013704,-5.29534 18.5714304,-7.14285 2.915,-0.84544 5.89354,-1.81088 8.92857,-1.78572 11.8601496,0.0983 18.4454996,-0.34579 31.4285796,0.35715 0,0 -4.55491,-10.10393 -7.14286,-15 -2.31861,-4.38651 -4.29887,-9.06635 -7.5,-12.85715 -6.10703,-7.23199 -13.84002,-13.07003 -21.7857196,-18.21428 -4.11181,-2.66209 -8.6712,-4.59713 -13.2142804,-6.42857 -4.29479,-1.73135 -9.00809,-3.14198 -13.57143,-3.92858 -8.45011,-1.45657 -16.81199,-1.78311 -25.35714,-1.07142 -6.77062,0.5639 -13.5699,1.73469 -20,3.92857 -7.05427,2.40683 -13.95336,5.64183 -20,10 -6.28267,4.52829 -11.722277,10.27811 -16.428567,16.42857 -5.08783,6.64908 -9.07592,14.14555 -12.5,21.78571 -2.30945,5.15308 -3.99595,10.59102 -5.35715,16.07143 -1.22189,4.9195 -2.5,15 -2.5,15 z"
         style="fill:#ff0000;fill-rule:evenodd;stroke:none;stroke-width:1px;stroke-linecap:butt;stroke-linejoin:miter;stroke-opacity:1;filter:url(#filter4235)" />
      <path
         sodipodi:nodetypes="saaaaaaaaaaaacaaaaaass"
         inkscape:connector-curvature="0"
         id="path4239"
         d="m -109.71593,567.21701 c 0,0 5.84977,-13.73743 9.28572,-20.35715 2.605506,-5.01979 4.926846,-10.31803 8.571416,-14.64285 3.81112,-4.52246 8.71619,-8.0516 13.57143,-11.42857 3.37,-2.34394 6.91456,-4.51807 10.7143,-6.07144 3.42137,-1.39868 7.06411,-2.27538 10.71427,-2.85714 4.23883,-0.67558 8.56648,-0.59519 12.85715,-0.71428 4.28406,-0.11891 8.58703,-0.36542 12.85714,0 3.49056,0.29871 6.99295,0.80825 10.35714,1.78571 4.45848,1.2954 8.6706,3.34992 12.85715,5.35714 2.69012,1.28976 5.39322,2.60366 7.85714,4.28572 3.21015,2.19149 6.21321,4.7189 8.92857,7.5 1.06505,1.09084 1.91294,2.37446 2.85714,3.57143 1.6813,2.13139 5,6.42857 5,6.42857 0,0 -5.97869,-0.0553 -8.92857,0.35714 -4.00343,0.55971 -7.87901,1.81869 -11.78571,2.85714 -4.55148,1.20984 -9.13308,2.35354 -13.57143,3.92858 -3.16733,1.12399 -6.20639,2.58207 -9.28572,3.92857 -3.71017,1.62235 -7.38478,3.32488 -11.07142,5 -4.17102,1.89521 -8.31088,3.85942 -12.5,5.71428 -1.65802,0.73414 -3.18767,2.08426 -5,2.14286 -18.87782,0.6104 -32.8658,2.4049 -54.285716,3.21429 z"
         style="fill:#f9f9f9;fill-rule:evenodd;stroke:none;stroke-width:1px;stroke-linecap:butt;stroke-linejoin:miter;stroke-opacity:1" />
      <path
         sodipodi:nodetypes="sssssssssssssssssss"
         inkscape:connector-curvature="0"
         id="path4241"
         d="m -110.61511,608.41107 c 37.575328,-0.0176 96.097538,-1.05999 142.899458,-1.44052 0,0 -2.27821,4.0489 -3.45725,6.05018 -1.5968,2.71037 -3.15273,5.4495 -4.89776,8.0669 -2.44009,3.65993 -5.13173,7.1467 -7.7788,10.65984 -1.97677,2.62353 -4.27861,5.48132 -6.62639,7.7788 -3.3358402,3.26436 -6.6731502,5.92803 -10.6598402,8.35501 -3.92545,2.3897 -8.1831698,4.19671 -12.3884598,6.05018 -3.5901,1.58232 -7.14016,3.37637 -10.94794,4.32156 -5.0641,1.25704 -10.34229,1.56816 -15.5576,1.72862 -5.86242,0.18037 -11.77734,0.0275 -17.57433,-0.86431 -4.12101,-0.63399 -8.2089,-1.67207 -12.10036,-3.16914 -2.72601,-1.04871 -5.27319,-2.5325 -7.7788,-4.03346 -3.49622,-2.09438 -6.9488,-4.3101 -10.08363,-6.91449 -2.61163,-2.16972 -5.01707,-4.60417 -7.20259,-7.20259 -2.04086,-2.42643 -3.383328,-4.59423 -5.185868,-7.20259 -1.84746,-2.67335 -4.4717,-6.09073 -6.05017,-8.93121 -0.91886,-1.65351 -1.3511,-3.12708 -2.01673,-4.89777 -1.02608,-2.72955 -2.59294,-8.35501 -2.59294,-8.35501 z"
         style="fill:#ffffff;fill-rule:evenodd;stroke:none;stroke-width:1px;stroke-linecap:butt;stroke-linejoin:miter;stroke-opacity:1" />
    </g>
  </g>
</svg>
