<?xml version="1.0" encoding="UTF-8"?>
<svg width="60mm" height="60mm" version="1.1" viewBox="0 0 212.6 212.6" xmlns="http://www.w3.org/2000/svg" >

 <g transform="translate(0 -839.76)">
  <flowRoot fill="#000000" font-family="sans-serif" letter-spacing="0px" stroke-width="1px" word-spacing="0px" style="line-height:0.01%" xml:space="preserve"><flowRegion><rect x="122.86" y="226.65" width="345.71" height="221.43"/></flowRegion><flowPara font-size="40px" style="line-height:1.25"> </flowPara></flowRoot>
  <path d="m175.97 851.44c-1.5087 0.0816-3.0371 0.66375-4.4648 1.1738-2.5171 0.89926-4.7567 2.4712-7.0156 3.9121-1.7027 1.0861-3.4917 2.1104-4.9102 3.5566-1.7156 1.7492-2.9228 3.9528-4.209 6.0469-0.77448 1.2609-1.3476 2.6408-2.1055 3.9121-0.21807 0.36582-0.37241 0.79884-0.70117 1.0664-2.396 1.95-5.7328 2.2431-8.5938 3.3789-2.5171 0.9993-5.0292 2.0106-7.541 3.0234-1.7552 0.70775-3.5653 1.2905-5.2617 2.1328-3.5299 1.7526-6.8941 3.8477-10.172 6.0469-4.2514 2.8524-8.4185 5.8683-12.277 9.2461-2.6285 2.3008-5.041 4.8549-7.3652 7.4707-3.728 4.1955-7.3572 8.5124-10.523 13.158-2.7703 4.0648-5.2559 8.3515-7.3672 12.805-1.9003 4.0082-3.3499 8.2273-4.7344 12.447-1.2269 3.7394-2.3094 7.5347-3.1562 11.381-0.69736 3.1671-1.1299 6.3907-1.5801 9.6035-0.28152 2.0091-0.60966 4.0178-0.70117 6.0449-0.10427 2.3101 0.17578 6.9355 0.17578 6.9355-0.43432 0.66221-5.0859 0.17774-5.0859 0.17774l-12.453 0.17773c0.0594-4.3384-0.70117 7.291-0.70117 7.291 6.5244 0.28511 11.454 0.34664 18.064 0.35742 0.52289 9.9e-4 1.3818 0.18125 1.4043 0.71094 0 0 1.3459 6.6833 2.2793 9.957 0.79074 2.7734 1.6323 5.5516 2.8066 8.1817 1.6629 3.724 3.7409 7.2589 5.9629 10.67 1.5401 2.3644 3.1988 4.6679 5.0859 6.7578 2.459 2.7233 5.2738 5.0991 8.0664 7.4687 2.6543 2.2523 5.273 4.6005 8.2441 6.4004 3.9084 2.3676 8.1192 4.2713 12.451 5.6915 4.7128 1.5451 9.6289 2.517 14.557 3.0234 4.3041 0.4424 8.6605 0.2679 12.979 0 3.351-0.2078 6.7217-0.503 9.998-1.2461 4.7448-1.0762 9.464-2.5069 13.855-4.623 3.1345-1.5103 5.9625-3.6177 8.7676-5.6895 2.4504-1.8098 4.8764-3.6911 7.0156-5.8691 2.3453-2.3877 4.27-5.1674 6.3144-7.8243 1.7477-2.2713 3.5655-4.5019 5.0859-6.9355 1.0637-1.7026 2.8066-5.336 2.8066-5.336 0.12999-0.4556 1.8247-2.64 1.4023-2.8437-7.8268-3.7746-12.705-6.5444-18.59-9.959 0 0-2.6425 5.3135-4.209 7.8242-1.7005 2.7254-3.4558 5.4546-5.6133 7.8242-2.1936 2.4093-4.7138 4.5252-7.3652 6.4024-2.7468 1.9448-5.6217 3.8158-8.7695 4.9785-4.697 1.735-9.7397 2.5918-14.732 2.8457-3.9858 0.2027-8.0652-0.041-11.926-1.0664-3.8474-1.0215-7.4346-2.9541-10.873-4.9805-2.7499-1.6206-5.4372-3.4424-7.7188-5.6894-2.3318-2.2966-4.234-5.0329-5.9629-7.8242-1.8076-2.9185-3.3598-6.0234-4.5586-9.2481-0.81026-2.1795-1.2863-4.4774-1.7539-6.7578-0.31304-1.5267-0.70118-4.623-0.70118-4.623 27.57-0.0792 67.018-0.3486 101.37-0.35547 1.6535-3.3e-4 3.5078-3.5566 3.5078-3.5566s0.25346-5.2288 0-7.8242c-0.29374-3.0078-1.069-5.9509-1.7539-8.8926-0.61258-2.6311-1.2209-5.2739-2.1055-7.8242-0.9729-2.8049-2.2-5.5185-3.5078-8.1797-1.3777-2.8034-2.8205-5.5918-4.5605-8.1797-1.3578-2.0194-2.9777-3.8465-4.5586-5.6914-1.4651-1.7097-2.879-3.4875-4.5605-4.9785-1.8315-1.624-3.9027-2.9553-5.9629-4.2676-2.0387-1.2985-4.16-2.4671-6.3145-3.5566-3.0914-1.5634-6.2145-3.0974-9.4707-4.2676-2.9674-1.0664-6.0171-1.9457-9.1191-2.4902-2.8894-0.50717-5.8372-0.70218-8.7695-0.71094-3.1655-9e-3 -6.3273 0.33201-9.4707 0.71094-3.9416 0.47514-7.9216 0.89237-11.75 1.9551-3.5706 0.99116-7.0552 2.3758-10.348 4.0918-2.8554 1.4882-7.5e-4 -9e-4 -8.0684 5.334-3.1975 2.1144 4.6008-6.2234 7.3672-8.8906 3.5079-3.3822 7.6615-6.0028 11.574-8.8926 2.3072-1.704 4.5515-3.5176 7.0156-4.9785 2.799-1.6595 5.7689-3.022 8.7695-4.2676 2.1729-0.90196 4.4238-1.6 6.6641-2.3125 2.0304-0.6458 4.0594-1.3204 6.1387-1.7793 1.9066-0.42082 3.8523-1.1449 5.7871-0.88868 2.9077 0.38508 5.247 2.7464 8.0684 3.5566 1.5909 0.45691 3.266 0.53255 4.9102 0.71094 1.6318 0.17705 3.2758 0.50534 4.9102 0.35547 2.1041-0.19295 4.1791-0.79893 6.1387-1.5996 1.4326-0.58535 2.9356-1.2127 4.0352-2.3125 1.1564-1.1566 2.2634-2.6321 2.4551-4.2676 0.14408-1.2291-0.42677-2.494-1.0527-3.5566-0.50874-0.86363-1.2524-1.6193-2.1055-2.1328-1.7816-1.0724-5.9629-1.7793-5.9629-1.7793s5.3667-3.7331 9.1211-7.1133c0.91279-0.82182 1.0938-2.3196 1.0527-3.5566-0.0336-1.0124-0.51191-1.9941-1.0527-2.8457-0.4476-0.70482-1.0039-1.4246-1.7539-1.7774-0.63862-0.30032-1.4015-0.18363-2.1055-0.17773-0.5875 5e-3 -1.1751 0.0756-1.7539 0.17773-2.3747 0.41908-7.0156 1.7774-7.0156 1.7774s4.1274-2.8351 5.2617-4.9785c0.67257-1.2708 0.75793-2.8265 0.70117-4.2676-0.0385-0.97683-0.14577-2.0466-0.70117-2.8457-0.72853-1.0482-1.9185-1.8697-3.1562-2.1328-0.49386-0.10499-0.99514-0.13464-1.498-0.10742zm-32.732 80.029c2.5922 0.0249 5.1682 0.25961 7.7617 0.71289 2.2409 0.39167 4.557 1.093 6.666 1.9551 2.231 0.91192 4.4691 1.8757 6.4883 3.2012 3.9019 2.5614 7.7002 5.4693 10.699 9.0703 1.572 1.8875 2.543 4.2182 3.6816 6.4023 1.2709 2.4379 3.5078 7.4688 3.5078 7.4688-6.3756-0.35001-9.6094-0.12879-15.434-0.17773-1.4904-0.0125-2.9533 0.4677-4.3848 0.88867-3.1282 0.91992-6.1349 2.2335-9.1192 3.5566-3.7609 1.6675-7.2097 4.0387-11.049 5.5117-2.4937 0.95681-5.0897 1.6734-7.7168 2.1348-2.2532 0.39573-4.5534 0.56766-6.8398 0.53321-8.5271-0.12846-14.814 0.29471-26.658 0.35546 0 0 0.62653-5.0192 1.2266-7.4688 0.66845-2.7288 1.4968-5.4361 2.6309-8.002 1.6815-3.8042 3.6402-7.5369 6.1387-10.848 2.3111-3.0625 4.9831-5.925 8.0684-8.1797 2.9693-2.17 6.3562-3.7821 9.8203-4.9805 3.1576-1.0924 6.4974-1.6743 9.8223-1.9551 1.5736-0.13289 3.1341-0.1946 4.6895-0.17969z" fill="#39f" fill-rule="evenodd"/>
  <g transform="matrix(.49107 0 0 .49792 -60.945 683.91)">
   <ellipse cx="190.16" cy="586.18" rx="48.74" ry="49.497" fill="#fff"/>
   <ellipse cx="198.98" cy="570.56" rx="21.213" ry="21.718"/>
  </g>
 </g>
</svg>
