<?xml version="1.0" encoding="UTF-8" standalone="no"?>
<!-- Created with Inkscape (http://www.inkscape.org/) -->

<svg
   xmlns:osb="http://www.openswatchbook.org/uri/2009/osb"
   xmlns:dc="http://purl.org/dc/elements/1.1/"
   xmlns:cc="http://creativecommons.org/ns#"
   xmlns:rdf="http://www.w3.org/1999/02/22-rdf-syntax-ns#"
   xmlns:svg="http://www.w3.org/2000/svg"
   xmlns="http://www.w3.org/2000/svg"
   xmlns:sodipodi="http://sodipodi.sourceforge.net/DTD/sodipodi-0.dtd"
   xmlns:inkscape="http://www.inkscape.org/namespaces/inkscape"
   width="80mm"
   height="80mm"
   viewBox="0 0 283.46457 283.46457"
   id="svg2"
   version="1.1"
   inkscape:version="0.91 r13725"
   sodipodi:docname="esquadron (copia).svg">
  <defs
     id="defs4">
    <linearGradient
       id="linearGradient4283"
       osb:paint="solid">
      <stop
         style="stop-color:#000000;stop-opacity:1;"
         offset="0"
         id="stop4285" />
    </linearGradient>
    <linearGradient
       id="linearGradient4243"
       osb:paint="solid">
      <stop
         style="stop-color:#000000;stop-opacity:1;"
         offset="0"
         id="stop4245" />
    </linearGradient>
    <linearGradient
       id="linearGradient4237"
       osb:paint="solid">
      <stop
         style="stop-color:#000000;stop-opacity:1;"
         offset="0"
         id="stop4239" />
    </linearGradient>
    <linearGradient
       id="linearGradient4170"
       osb:paint="solid">
      <stop
         style="stop-color:#000000;stop-opacity:1;"
         offset="0"
         id="stop4172" />
    </linearGradient>
    <linearGradient
       id="linearGradient4148"
       osb:paint="solid">
      <stop
         style="stop-color:#0000d4;stop-opacity:1;"
         offset="0"
         id="stop4150" />
    </linearGradient>
    <filter
       inkscape:collect="always"
       style="color-interpolation-filters:sRGB"
       id="filter4235-6"
       x="-0.0090325829"
       width="1.0180652"
       y="-0.017871067"
       height="1.035742">
      <feGaussianBlur
         inkscape:collect="always"
         stdDeviation="0.62233425"
         id="feGaussianBlur4237-4" />
    </filter>
  </defs>
  <sodipodi:namedview
     id="base"
     pagecolor="#ffffff"
     bordercolor="#666666"
     borderopacity="1.0"
     inkscape:pageopacity="0.0"
     inkscape:pageshadow="2"
     inkscape:zoom="4.2258694"
     inkscape:cx="194.75813"
     inkscape:cy="130.96145"
     inkscape:document-units="px"
     inkscape:current-layer="layer1"
     showgrid="false"
     inkscape:window-width="1309"
     inkscape:window-height="744"
     inkscape:window-x="57"
     inkscape:window-y="24"
     inkscape:window-maximized="1" />
  <metadata
     id="metadata7">
    <rdf:RDF>
      <cc:Work
         rdf:about="">
        <dc:format>image/svg+xml</dc:format>
        <dc:type
           rdf:resource="http://purl.org/dc/dcmitype/StillImage" />
        <dc:title></dc:title>
      </cc:Work>
    </rdf:RDF>
  </metadata>
  <g
     inkscape:label="Capa 1"
     inkscape:groupmode="layer"
     id="layer1"
     transform="translate(0,-768.89763)">
    <path
       inkscape:connector-curvature="0"
       style="opacity:1;fill:#ff0000;fill-opacity:1;fill-rule:evenodd;stroke:none;stroke-width:1px;stroke-linecap:butt;stroke-linejoin:miter;stroke-opacity:1"
       d="m 225.10616,780.98574 c -2.99713,0.0657 -5.89811,1.19012 -8.72564,2.19099 -3.50673,1.24128 -6.97485,2.71655 -10.12674,4.69808 -1.25149,0.78678 -3.42793,2.81838 -3.42793,2.81838 -2.42551,2.2458 -5.91561,5.79371 -8.41401,9.08006 -1.85474,2.4397 -4.82903,7.82772 -4.82903,7.82772 -4.02818,1.40254 -6.95598,2.68877 -10.59542,3.75702 -5.2237,1.53315 -10.11627,4.07459 -14.95578,6.57539 -5.59202,2.88974 -11.02935,6.11617 -16.20474,9.70501 -6.32845,4.3884 -12.46553,9.11798 -18.07209,14.40555 -5.20161,4.9056 -9.99036,10.2811 -14.33498,15.96671 -4.2988,5.62548 -8.21738,11.58468 -11.52785,17.84886 -3.43868,6.50685 -6.245072,13.3668 -8.5784,20.35111 -2.169815,6.4949 -3.719115,13.20196 -5.003264,19.93043 -0.971549,5.09061 -1.77142,9.469 -2.034182,15.41471 -0.03895,0.88024 1.095059,3.4977 -1.212162,3.11261 l -5.609333,0.36962 c 0,0 -0.23447,-5.4099 -2.473409,-8.98766 -2.081331,-3.32588 -5.172731,-6.63178 -7.91835,-9.41321 -3.456767,-3.50193 -7.978114,-5.68715 -12.438202,-7.61373 -2.210132,-0.95458 -4.590308,-1.52056 -6.966275,-1.89918 -2.540359,-0.40476 -5.141424,-0.56337 -7.707324,-0.38421 -4.144987,0.28959 -8.336923,0.92017 -12.2419,2.34661 -2.964812,1.08294 -5.725331,2.75454 -8.26677,4.63244 -2.33442,1.72501 -4.41721,3.80358 -6.303759,6.01366 -2.229366,2.6116 -4.362157,5.3863 -5.85717,8.48186 -1.354505,2.80458 -2.0483283,5.89881 -2.7236961,8.94145 -0.6300769,2.8387 -1.249274,5.72919 -1.2268861,8.63749 0.023745,3.09555 0.6470751,6.16332 1.4477246,9.17247 0.6387833,2.40069 1.7731276,5.64553 3.1334746,8.25328 1.324089,2.53814 2.936946,4.95541 4.838848,7.09091 2.077136,2.3323 4.452626,4.44652 7.076707,6.13281 2.951004,1.8962 6.272438,3.16777 9.567276,4.36252 2.597397,0.94175 5.252924,1.84169 7.991959,2.19341 2.975629,0.38211 6.023698,0.2807 8.998007,-0.11186 3.468903,-0.45743 6.945759,-1.24023 10.173358,-2.59708 2.647599,-1.11295 5.069159,-2.74887 7.368704,-4.47438 2.172617,-1.63013 4.220128,-3.46035 6.011762,-5.50542 1.306852,-1.49169 2.301429,-3.23341 3.408298,-4.88048 0.76659,-1.14071 2.237846,-4.5868 2.237846,-3.46277 l 11.238302,0.27478 c 0,0 3.807498,12.9957 6.671828,19.09877 3.234448,6.89157 6.971788,13.66173 11.768308,19.56323 6.06619,7.4634 13.23833,14.1511 21.15158,19.5949 6.60837,4.5461 13.67987,8.3152 21.57362,10.6266 7.71898,2.2601 17.57282,4.0111 26.61613,4.4963 7.57919,0.4065 15.85373,-1.1205 23.6618,-2.5242 5.26125,-0.9458 10.62139,-1.8708 15.54467,-3.9613 8.13336,-3.4533 15.74794,-8.2993 22.5625,-13.941 5.44644,-4.5092 10.09191,-9.9893 14.33497,-15.65549 3.67612,-4.90908 6.86853,-10.21712 9.53048,-15.74786 1.05795,-2.19812 2.30957,-4.43805 2.52985,-6.86962 0.15747,-1.73858 -0.0732,-3.62006 -0.89563,-5.15769 -0.66516,-1.24355 -2.03358,-2.16612 -3.06232,-2.91078 -5.79657,-4.19604 -22.20675,-10.07828 -17.32122,-10.05761 5.09411,0.0212 9.75081,0.45424 14.51655,-0.51553 1.44979,-0.29507 3.81072,-2.28339 3.81072,-2.28339 1.84948,-2.1223 3.53011,-3.58178 4.98608,-5.81912 1.41877,-2.18019 1.13654,-4.72228 1.15573,-7.12982 0.0641,-8.04746 -1.64478,-16.05365 -3.48191,-23.88684 -1.1448,-4.88107 -2.63658,-9.71603 -4.67445,-14.29368 -2.59889,-5.83789 -5.78595,-11.45658 -9.5501,-16.61355 -2.64212,-3.61972 -6.19225,-6.65191 -9.05446,-9.92874 -4.92401,-5.63718 -11.77848,-9.67898 -18.40333,-13.3526 -5.68093,-3.15021 -11.79722,-5.58844 -18.05491,-7.3122 -5.95453,-1.64034 -12.14996,-2.36418 -18.30763,-2.81837 -3.46252,-0.25536 -10.41629,0.0584 -10.41629,0.0584 -3.54484,1.33468 6.44034,-3.67223 9.89854,-4.95587 3.20813,-1.19076 9.95252,-2.5071 9.95252,-2.5071 0.81305,-0.20158 2.21326,-0.18697 3.04514,-0.09 0,0 5.60971,2.30728 8.52197,3.12963 2.57929,0.72847 5.22491,1.23662 7.88154,1.58549 2.47665,0.3252 4.99181,0.69815 7.47912,0.46931 3.41185,-0.31373 6.77983,-1.25476 9.97216,-2.50466 3.13982,-1.22936 6.34625,-2.62174 8.88023,-4.85373 1.51774,-1.33693 2.7063,-3.08176 3.56534,-4.91695 0.99428,-2.12429 1.79202,-4.47677 1.73236,-6.82342 -0.0805,-3.16814 -1.07247,-6.12938 -2.80467,-9.0825 -0.3377,-0.5757 -1.25961,-0.58412 -1.24652,-1.25234 0,0 2.96312,-2.99542 3.89414,-4.85128 1.11137,-2.21531 1.84331,-4.72203 1.86978,-7.20278 0.024,-2.25303 -0.7739,-4.46461 -1.55814,-6.57538 -0.47124,-1.26832 -0.98574,-2.57978 -1.86978,-3.60139 -0.87942,-1.01631 -2.0982,-1.69453 -3.27089,-2.34661 -0.83543,-0.46453 -2.70288,-0.37368 -2.65008,-1.09671 0.25131,-3.44089 -0.77784,-7.20278 -0.77784,-7.20278 -0.56574,-1.3008 -1.39637,-2.92015 -2.49305,-4.0707 -1.47461,-1.54703 -3.33251,-2.76864 -5.2977,-3.59896 -2.3942,-1.01159 -5.03708,-1.62299 -7.63371,-1.56603 z m 0.0687,8.91714 c 0.63182,-0.0339 1.25915,5.9e-4 1.8796,0.13131 1.55507,0.32761 3.05248,1.35282 3.96776,2.65787 0.69776,0.99494 0.83253,2.32684 0.8809,3.54303 0.0714,1.79425 -0.0359,3.73108 -0.8809,5.31333 -1.42514,2.66864 -6.61049,6.19846 -6.61049,6.19846 0,0 5.83055,-1.69109 8.81397,-2.21287 0.72722,-0.12715 1.4654,-0.21507 2.2035,-0.22129 0.88438,-0.007 1.8404,-0.15262 2.64272,0.22129 0.94228,0.43914 1.64115,1.33534 2.20349,2.21287 0.67946,1.06033 1.28038,2.28261 1.32259,3.54302 0.0516,1.54015 -0.17582,3.40498 -1.32259,4.42818 -4.71678,4.2085 -11.45669,8.85635 -11.45669,8.85635 0,0 5.25311,0.87771 7.49138,2.21286 1.07181,0.63933 2.00358,1.58263 2.64273,2.65788 0.78641,1.323 1.50359,2.89792 1.32258,4.42817 -0.24087,2.03624 -1.63162,3.87326 -3.0844,5.31333 -1.38141,1.3693 -3.26725,2.15037 -5.06705,2.87916 -2.46189,0.99687 -5.06876,1.75134 -7.71223,1.99157 -2.05335,0.1866 -4.11875,-0.22213 -6.1688,-0.44256 -2.06558,-0.22211 -4.1725,-0.31628 -6.17125,-0.88515 -3.54463,-1.00885 -6.48107,-3.94873 -10.1341,-4.42817 -2.43074,-0.31903 -4.87771,0.58249 -7.27301,1.10643 -2.61231,0.5714 -5.1613,1.41125 -7.71222,2.2153 -2.81454,0.88716 -5.64241,1.75375 -8.37229,2.87673 -3.76978,1.55076 -7.50105,3.24961 -11.01747,5.31575 -3.09572,1.81894 -5.91285,4.07688 -8.81151,6.19847 -4.91566,3.59787 -10.13649,6.85828 -14.54354,11.06922 -3.47555,3.32088 -13.27039,13.70421 -9.25321,11.07164 10.13563,-6.64217 6.54675,-4.79055 10.13411,-6.64347 4.13648,-2.13655 8.5142,-3.858 13.00011,-5.09203 4.8098,-1.32312 9.81248,-1.84259 14.76439,-2.43416 3.94917,-0.47179 7.92141,-0.89879 11.89837,-0.88758 3.68404,0.011 7.38494,0.25613 11.01502,0.88758 3.89725,0.67792 7.73114,1.77034 11.45914,3.09802 4.09082,1.45691 8.01449,3.36921 11.89838,5.31575 2.70671,1.35655 5.36932,2.80901 7.93061,4.42574 2.5883,1.6338 5.19042,3.29386 7.49138,5.31575 2.11256,1.85635 3.88891,4.06977 5.72957,6.19847 1.98619,2.29701 4.02374,4.57183 5.72958,7.08605 2.18612,3.22207 3.99626,6.69374 5.72711,10.18406 1.64308,3.3133 3.18471,6.69187 4.407,10.18407 1.11136,3.1752 1.87557,6.46566 2.64516,9.74149 0.86044,3.66255 1.83446,7.32681 2.2035,11.07165 0.31843,3.23151 0,9.74149 0,9.74149 0,0 -2.3296,4.4278 -4.40699,4.42818 -43.15876,0.009 -92.71891,0.34421 -127.35602,0.44257 0,0 0.48764,3.85521 0.88092,5.75589 0.58746,2.83933 1.18551,5.7002 2.20348,8.41377 1.50616,4.0149 3.45862,7.88057 5.72958,11.51423 2.17205,3.47529 4.56183,6.88212 7.49139,9.74149 2.86635,2.79761 6.24011,5.0659 9.69488,7.08361 4.31986,2.52296 8.82662,4.92909 13.66018,6.20091 4.85024,1.27621 9.9753,1.58011 14.98278,1.32771 6.27252,-0.3161 12.60779,-1.38287 18.50885,-3.54302 3.95469,-1.44761 7.56655,-3.77711 11.01746,-6.19847 3.33113,-2.33719 6.49725,-4.97151 9.25319,-7.97119 2.71055,-2.95026 4.91582,-6.34825 7.05216,-9.74149 1.96805,-3.12594 5.2879,-9.7415 5.2879,-9.7415 7.39377,4.25133 13.52197,7.6974 23.35506,12.39694 0.53061,0.25361 -1.5985,2.97578 -1.76181,3.54302 0,0 -2.18974,4.52367 -3.52608,6.64348 -1.91019,3.02994 -4.19389,5.80719 -6.38964,8.63506 -2.56847,3.30795 -4.98412,6.76867 -7.93061,9.74147 -2.6876,2.7117 -5.73552,5.0515 -8.81398,7.3049 -3.52414,2.5795 -7.07948,5.2057 -11.01746,7.0861 -5.51712,2.6346 -11.446,4.4159 -17.40711,5.7559 -4.11617,0.9252 -8.34841,1.2927 -12.55843,1.5514 -5.42491,0.3336 -10.89802,0.5508 -16.30535,0 -6.19089,-0.6305 -12.36724,-1.8406 -18.28802,-3.7643 -5.44244,-1.7682 -10.73501,-4.1383 -15.64529,-7.0861 -3.73281,-2.2409 -7.02029,-5.1671 -10.35495,-7.9712 -3.5085,-2.9502 -7.04718,-5.9082 -10.13656,-9.29887 -2.37082,-2.60202 -4.45471,-5.46999 -6.38963,-8.41377 -2.79151,-4.24684 -5.40227,-8.64554 -7.49139,-13.28208 -1.47536,-3.27447 -2.53267,-6.73362 -3.52609,-10.1865 -1.172635,-4.07603 -2.863549,-12.39694 -2.863549,-12.39694 -0.02827,-0.6595 -1.104908,-0.88633 -1.761821,-0.88758 -8.305527,-0.0135 -14.498151,-0.0876 -22.694993,-0.44257 0,0 0.95553,-14.47913 0.880904,-9.07764 l 15.642836,-0.22128 c 0,0 5.843978,0.6033 6.389642,-0.22129 0,0 -0.349399,-5.75888 -0.218389,-8.63506 0.114955,-2.52395 0.527234,-5.02477 0.880917,-7.52619 0.565564,-4.00007 1.106529,-8.01358 1.982647,-11.95679 1.063976,-4.78869 2.423976,-9.51395 3.965306,-14.16967 1.73941,-5.25402 3.56298,-10.50938 5.95042,-15.49982 2.65243,-5.54437 5.77275,-10.87904 9.25319,-15.93996 3.97787,-5.78423 8.53737,-11.1614 13.22096,-16.38497 2.92009,-3.25674 5.95098,-6.43437 9.25321,-9.29892 4.84797,-4.20546 10.08331,-7.9604 15.42444,-11.51178 4.11795,-2.73809 8.34457,-5.34649 12.77928,-7.52862 2.1313,-1.04872 4.40531,-1.7767 6.61048,-2.65788 3.15567,-1.26099 6.31176,-2.5177 9.47404,-3.76187 3.59427,-1.41414 7.78639,-1.77906 10.79663,-4.20689 0.41303,-0.33314 0.60938,-0.8747 0.88335,-1.33016 0.95209,-1.5828 1.66972,-3.30085 2.64273,-4.87075 1.61588,-2.60717 3.13255,-5.34829 5.28788,-7.52618 1.78202,-1.8007 4.02966,-3.07591 6.16881,-4.42818 2.83798,-1.79403 5.65163,-3.75113 8.81396,-4.87074 1.79375,-0.63508 3.71634,-1.35983 5.6118,-1.46147 z m 4.90264,169.54477 c 0,0 -1.40492,2.50903 -2.13232,3.74972 -0.98515,1.68019 -1.94647,3.37939 -3.02306,5.00206 -1.50541,2.2688 -3.16648,4.42904 -4.79959,6.607 -1.21956,1.6264 -2.63953,3.39778 -4.088,4.82211 -2.05805,2.02369 -4.11653,3.67506 -6.57612,5.17958 -2.4218,1.48147 -5.04907,2.60322 -7.64352,3.75215 -2.21491,0.98097 -4.40359,2.09141 -6.7528,2.67733 -3.12431,0.77939 -6.38159,0.97291 -9.59918,1.07239 -3.61681,0.11205 -7.26679,0.0187 -10.84325,-0.53498 -2.54245,-0.39306 -5.06355,-1.03678 -7.46439,-1.96484 -1.68181,-0.65016 -3.25376,-1.56939 -4.79959,-2.49981 -2.157,-1.29845 -4.2863,-2.67256 -6.22033,-4.28713 -1.61125,-1.34515 -3.09543,-2.85369 -4.44379,-4.46465 -1.25911,-1.50414 -2.08765,-2.85002 -3.19974,-4.46708 -1.13978,-1.65728 -2.75834,-3.77374 -3.73219,-5.53461 -0.56688,-1.02517 -0.8334,-1.93947 -1.24407,-3.03722 -0.63303,-1.69214 -1.59986,-5.17958 -1.59986,-5.17958 23.18209,-0.0125 59.28736,-0.65663 88.1618,-0.89244 z"
       id="path4334" />
    <path
       style="fill:#008fc6;fill-opacity:1;fill-rule:evenodd;stroke:#008ec6;stroke-width:0.61844128px;stroke-linecap:butt;stroke-linejoin:miter;stroke-opacity:1"
       d="m 224.98821,789.64402 c -1.89546,0.10159 -3.81805,0.8264 -5.6118,1.46147 -3.16233,1.11962 -5.97598,3.07671 -8.81396,4.87075 -2.13915,1.35226 -4.38679,2.62747 -6.16881,4.42817 -2.15533,2.17789 -3.672,4.91901 -5.28789,7.52618 -0.973,1.56991 -1.69308,3.28795 -2.64517,4.87075 -0.27397,0.45546 -0.46788,0.99702 -0.8809,1.33016 -3.01024,2.42783 -7.20237,2.79275 -10.79664,4.20689 -3.16227,1.24417 -6.31836,2.50088 -9.47403,3.76187 -2.20517,0.88119 -4.47918,1.60916 -6.61048,2.65788 -4.43472,2.18213 -8.66133,4.79053 -12.77928,7.52862 -5.34113,3.55139 -10.57648,7.30634 -15.42446,11.5118 -3.30222,2.86453 -6.3331,6.04218 -9.25319,9.29891 -4.6836,5.22356 -9.24309,10.60073 -13.22096,16.38496 -3.48045,5.06092 -6.60075,10.39559 -9.2532,15.93997 -2.38742,4.99043 -4.211,10.24579 -5.95041,15.49981 -1.54133,4.65571 -2.901335,9.38098 -3.965315,14.16966 -0.876114,3.94319 -1.417079,7.95426 -1.982656,11.95436 -0.35367,2.50146 -0.768386,5.00471 -0.883354,7.52863 -0.130998,2.8762 0.220839,8.63505 0.220839,8.63505 -0.545664,0.82448 -6.389643,0.2213 -6.389643,0.2213 l -15.642835,0.22128 c 0.07463,-5.40147 -0.883367,9.07764 -0.883367,9.07764 8.196842,0.35497 14.389479,0.42915 22.695006,0.44257 0.656925,0.001 1.735991,0.22565 1.764258,0.88514 0,0 1.690922,8.32346 2.863567,12.39938 0.99342,3.45299 2.05072,6.90959 3.52608,10.18407 2.08912,4.63645 4.69986,9.03768 7.49139,13.28452 1.93491,2.94378 4.01882,5.81174 6.38964,8.41376 3.08938,3.39063 6.62804,6.34873 10.13656,9.29903 3.33467,2.8041 6.62215,5.7302 10.35495,7.9711 4.91028,2.9478 10.20284,5.3179 15.64528,7.0861 5.92079,1.9237 12.09712,3.1314 18.28801,3.7619 5.40734,0.5508 10.88046,0.3335 16.30537,0 4.21002,-0.2588 8.44225,-0.6239 12.55843,-1.5491 5.96111,-1.3399 11.88999,-3.1212 17.40711,-5.7559 3.93798,-1.8804 7.4933,-4.5065 11.01746,-7.086 3.07846,-2.2533 6.12392,-4.5932 8.81152,-7.3049 2.94649,-2.9728 5.36458,-6.43605 7.93307,-9.74401 2.19575,-2.82787 4.47944,-5.60269 6.38963,-8.63263 1.33634,-2.11981 3.52609,-6.64343 3.52608,-6.64343 0.16331,-0.56724 2.29243,-3.28941 1.76182,-3.54302 -9.83309,-4.69955 -15.9613,-8.14564 -23.35507,-12.39694 0,0 -3.31984,6.61558 -5.28789,9.74149 -2.13634,3.39319 -4.34161,6.79124 -7.05216,9.74149 -2.75594,2.99968 -5.92207,5.63407 -9.2532,7.97127 -3.4509,2.42136 -7.06278,4.75083 -11.01747,6.19845 -5.90105,2.16011 -12.23631,3.22693 -18.50884,3.54303 -5.00748,0.2524 -10.13253,-0.053 -14.98277,-1.33022 -4.83356,-1.27181 -9.34034,-3.67549 -13.66019,-6.19845 -3.45477,-2.01772 -6.82852,-4.28606 -9.69487,-7.08367 -2.92956,-2.85937 -5.31934,-6.26863 -7.49139,-9.74387 -2.27095,-3.6336 -4.22342,-7.4969 -5.72958,-11.5118 -1.01797,-2.71356 -1.61603,-5.57452 -2.20349,-8.41377 -0.39329,-1.90077 -0.88091,-5.7559 -0.88091,-5.7559 34.63711,-0.0986 84.19726,-0.43402 127.35601,-0.44257 2.07739,-4.1e-4 4.407,-4.42817 4.407,-4.42817 0,0 0.31843,-6.51003 0,-9.7415 -0.36904,-3.74485 -1.34306,-7.40913 -2.2035,-11.07164 -0.7696,-3.27583 -1.53381,-6.56626 -2.64518,-9.74149 -1.22228,-3.4922 -2.7639,-6.87077 -4.40698,-10.18407 -1.73085,-3.49032 -3.54099,-6.96442 -5.72711,-10.1865 -1.70586,-2.51421 -3.74339,-4.7866 -5.72958,-7.08361 -1.84066,-2.1287 -3.61703,-4.34211 -5.72958,-6.19846 -2.30095,-2.02189 -4.90307,-3.68197 -7.49138,-5.31576 -2.56129,-1.61673 -5.22389,-3.07163 -7.93062,-4.42818 -3.88388,-1.94653 -7.80752,-3.85639 -11.89836,-5.31331 -3.728,-1.32767 -7.56191,-2.4201 -11.45914,-3.09803 -3.63008,-0.63144 -7.33344,-0.87667 -11.01748,-0.88757 -3.97697,-0.0112 -7.94921,0.41579 -11.89837,0.88757 -4.95192,0.59157 -9.95213,1.11104 -14.76193,2.43416 -4.48591,1.23404 -8.86364,2.9555 -13.00012,5.09205 -3.58737,1.85292 0.001,10e-4 -10.1341,6.64346 -4.01719,2.63257 5.77764,-7.75076 9.25319,-11.07164 4.40706,-4.21093 9.62788,-7.47135 14.54355,-11.06922 2.89866,-2.12159 5.7158,-4.38195 8.81152,-6.2009 3.51642,-2.06614 7.24769,-3.76256 11.01747,-5.31332 2.72987,-1.12298 5.55775,-1.98957 8.37229,-2.87672 2.55092,-0.80405 5.0999,-1.64391 7.71222,-2.21531 2.3953,-0.52394 4.84225,-1.42546 7.273,-1.10643 3.65303,0.47944 6.58948,3.41932 10.13411,4.42817 1.99875,0.56887 4.10322,0.66305 6.1688,0.88515 2.05005,0.22043 4.1179,0.62917 6.17125,0.44258 2.64347,-0.24024 5.25034,-0.99471 7.71223,-1.99159 1.79979,-0.72879 3.68564,-1.50985 5.06705,-2.87916 1.45278,-1.44007 2.84353,-3.27709 3.0844,-5.31332 0.18101,-1.53026 -0.53618,-3.10518 -1.32258,-4.42818 -0.63915,-1.07525 -1.57092,-2.01855 -2.64273,-2.65788 -2.23827,-1.33515 -7.49138,-2.21286 -7.49138,-2.21286 0,0 6.73991,-4.64785 11.45669,-8.85635 1.14677,-1.0232 1.37419,-2.88801 1.32258,-4.42817 -0.0422,-1.26042 -0.64312,-2.4827 -1.32258,-3.54303 -0.56234,-0.87753 -1.26122,-1.77373 -2.2035,-2.21287 -0.80232,-0.37391 -1.76079,-0.22864 -2.64517,-0.22129 -0.7381,0.006 -1.47384,0.0941 -2.20104,0.22129 -2.98342,0.52178 -8.81397,2.21287 -8.81397,2.21287 0,0 5.18535,-3.52982 6.61049,-6.19846 0.84496,-1.58225 0.95221,-3.51908 0.8809,-5.31332 -0.0484,-1.2162 -0.18315,-2.54809 -0.8809,-3.54303 -0.91528,-1.30506 -2.41269,-2.33027 -3.96777,-2.65788 -0.62046,-0.1307 -1.24778,-0.16519 -1.87959,-0.13131 z M 183.2666,890.25667 c 3.25669,0.031 6.49302,0.32078 9.75132,0.88515 2.81536,0.48763 5.72508,1.36326 8.37475,2.43659 2.80286,1.13536 5.61468,2.33526 8.15145,3.98559 4.90211,3.18911 9.67407,6.80713 13.4418,11.29049 1.97494,2.35006 3.19491,5.25185 4.62538,7.97121 1.59663,3.03524 4.40698,9.29892 4.40698,9.29892 -8.00991,-0.43578 -12.07264,-0.16035 -19.38975,-0.2213 -1.87247,-0.0156 -3.71032,0.58232 -5.50874,1.10644 -3.93001,1.14534 -7.70751,2.78079 -11.45669,4.42818 -4.72498,2.07612 -9.05785,5.03073 -13.88103,6.86476 -3.13286,1.19127 -6.39435,2.08098 -9.69487,2.65544 -2.83072,0.49269 -5.72058,0.70919 -8.59314,0.6663 -10.71287,-0.15994 -18.61076,0.36692 -33.49162,0.44257 0,0 0.78713,-6.24914 1.54097,-9.29893 0.8398,-3.3975 1.88043,-6.77062 3.30524,-9.9652 2.11249,-4.73641 4.57328,-9.38381 7.71222,-13.50581 2.90356,-3.81288 6.26047,-7.37681 10.13656,-10.18406 3.73049,-2.70178 7.98547,-4.70639 12.33761,-6.19847 3.96704,-1.36006 8.16291,-2.08701 12.34005,-2.43659 1.97698,-0.16544 3.93751,-0.23986 5.89151,-0.22128 z"
       id="path4223-5"
       inkscape:connector-curvature="0" />
    <path
       style="fill:#ff0000;fill-rule:evenodd;stroke:none;stroke-width:1px;stroke-linecap:butt;stroke-linejoin:miter;stroke-opacity:1;filter:url(#filter4235-6)"
       d="m -162.11782,768.80553 c -1.55533,-0.0149 -3.11585,0.0468 -4.68946,0.17969 -3.32486,0.28078 -6.66462,0.8627 -9.82226,1.95508 -3.46415,1.19841 -6.85294,2.81043 -9.82227,4.98047 -3.08524,2.25474 -5.75528,5.11723 -8.0664,8.17969 -2.49849,3.31072 -4.45721,7.04344 -6.13868,10.84765 -1.1341,2.56584 -1.96241,5.27313 -2.63086,8.00196 -0.60003,2.44953 -1.22851,7.46875 -1.22851,7.46875 11.84466,-0.0608 18.13112,-0.48393 26.6582,-0.35547 2.28646,0.0344 4.58669,-0.13748 6.83985,-0.5332 2.6271,-0.46141 5.22314,-1.17796 7.71679,-2.13477 3.83909,-1.47306 7.28986,-3.8442 11.05078,-5.51172 2.98423,-1.32315 5.99099,-2.63672 9.11914,-3.55664 1.43148,-0.42096 2.89435,-0.90315 4.38477,-0.89063 5.82418,0.0489 9.05797,-0.17032 15.43359,0.17969 0,0 -2.23694,-5.03284 -3.50781,-7.4707 -1.1386,-2.18415 -2.11161,-4.51287 -3.68359,-6.40039 -2.99899,-3.60098 -6.79536,-6.50888 -10.69727,-9.07032 -2.01919,-1.32551 -4.25926,-2.28925 -6.49023,-3.20117 -2.10905,-0.86208 -4.42314,-1.56341 -6.66407,-1.95508 -2.5935,-0.45328 -5.16951,-0.68802 -7.76171,-0.71289 z m -0.0234,6.69532 c 1.05335,-0.0154 2.10583,-10e-4 3.15429,0.0898 1.71411,0.14873 3.43389,0.40197 5.08594,0.88867 2.18944,0.64501 4.25856,1.66852 6.31446,2.66797 1.32104,0.6422 2.64745,1.29528 3.85742,2.13281 1.57641,1.0912 3.05133,2.34957 4.38476,3.73438 0.52302,0.5431 0.94063,1.18329 1.4043,1.77929 0.82564,1.0612 2.45508,3.20118 2.45508,3.20118 0,0 -2.93616,-0.0281 -4.38477,0.17773 -1.96597,0.2787 -3.87059,0.90478 -5.78906,1.42188 -2.23511,0.6024 -4.48451,1.17283 -6.66406,1.95703 -1.55538,0.5597 -3.04643,1.28468 -4.5586,1.95508 -1.82196,0.8078 -3.6271,1.65623 -5.4375,2.49023 -2.04827,0.9437 -4.08151,1.92211 -6.13867,2.84571 -0.81421,0.36559 -1.56509,1.0372 -2.45508,1.0664 -9.27036,0.3039 -16.13949,1.19856 -26.6582,1.60156 0,0 2.87325,-6.84062 4.56055,-10.13672 1.27949,-2.4995 2.41924,-5.13761 4.20898,-7.29101 1.87153,-2.25189 4.27979,-4.00994 6.66406,-5.69141 1.65492,-1.1671 3.39578,-2.24998 5.26172,-3.02344 1.68014,-0.69644 3.46923,-1.1322 5.26172,-1.42187 2.08157,-0.33638 4.20547,-0.29618 6.3125,-0.35547 1.05189,-0.0296 2.1068,-0.0745 3.16016,-0.0898 z"
       id="path4233-3"
       inkscape:connector-curvature="0"
       transform="matrix(1.2563346,0,0,1.2450435,386.63078,-66.570616)" />
    <g
       id="g4330"
       transform="matrix(0.6169503,0,0,0.61993583,-72.482296,581.29112)"
       style="opacity:1">
      <ellipse
         ry="49.497475"
         rx="48.739861"
         cy="586.17682"
         cx="190.16121"
         id="path4306-1"
         style="opacity:1;fill:#ffffff;fill-opacity:1;fill-rule:nonzero;stroke:none;stroke-width:2;stroke-miterlimit:4;stroke-dasharray:none;stroke-opacity:1" />
      <ellipse
         ry="21.718279"
         rx="21.213203"
         cy="570.56006"
         cx="198.97975"
         id="path4306"
         style="opacity:1;fill:#000000;fill-opacity:1;fill-rule:nonzero;stroke:none;stroke-width:2;stroke-miterlimit:4;stroke-dasharray:none;stroke-opacity:1" />
    </g>
    <flowRoot
       xml:space="preserve"
       id="flowRoot4140"
       style="font-style:normal;font-weight:normal;font-size:40px;line-height:125%;font-family:sans-serif;letter-spacing:0px;word-spacing:0px;fill:#000000;fill-opacity:1;stroke:none;stroke-width:1px;stroke-linecap:butt;stroke-linejoin:miter;stroke-opacity:1"><flowRegion
         id="flowRegion4142"><rect
           id="rect4144"
           width="345.71429"
           height="221.42857"
           x="122.85714"
           y="226.64792" /></flowRegion><flowPara
         id="flowPara4146" /></flowRoot>  </g>
</svg>
