<?xml version="1.0" encoding="UTF-8" standalone="no"?>
<!-- Created with Inkscape (http://www.inkscape.org/) -->

<svg
   xmlns:dc="http://purl.org/dc/elements/1.1/"
   xmlns:cc="http://creativecommons.org/ns#"
   xmlns:rdf="http://www.w3.org/1999/02/22-rdf-syntax-ns#"
   xmlns:svg="http://www.w3.org/2000/svg"
   xmlns="http://www.w3.org/2000/svg"
   xmlns:sodipodi="http://sodipodi.sourceforge.net/DTD/sodipodi-0.dtd"
   xmlns:inkscape="http://www.inkscape.org/namespaces/inkscape"
   width="420"
   height="280"
   viewBox="0 0 420 280"
   id="svg2"
   version="1.1"
   inkscape:version="0.91 r13725"
   sodipodi:docname="ojo.svg">
  <defs
     id="defs4" />
  <sodipodi:namedview
     id="base"
     pagecolor="#ffffff"
     bordercolor="#666666"
     borderopacity="1.0"
     inkscape:pageopacity="0.0"
     inkscape:pageshadow="2"
     inkscape:zoom="0.7"
     inkscape:cx="111.42857"
     inkscape:cy="203.04439"
     inkscape:document-units="px"
     inkscape:current-layer="layer1"
     showgrid="false"
     units="px"
     inkscape:window-width="1366"
     inkscape:window-height="695"
     inkscape:window-x="0"
     inkscape:window-y="24"
     inkscape:window-maximized="1" />
  <metadata
     id="metadata7">
    <rdf:RDF>
      <cc:Work
         rdf:about="">
        <dc:format>image/svg+xml</dc:format>
        <dc:type
           rdf:resource="http://purl.org/dc/dcmitype/StillImage" />
        <dc:title></dc:title>
      </cc:Work>
    </rdf:RDF>
  </metadata>
  <g
     inkscape:label="Capa 1"
     inkscape:groupmode="layer"
     id="layer1"
     transform="translate(0,-772.36216)">
    <g
       id="g4313"
       transform="matrix(0.69313191,0,0,0.69313191,345.30181,732.72992)">
      <path
         inkscape:connector-curvature="0"
         id="path4136"
         d="m -200.32143,74.072547 c -119.17252,0.50727 -261.25898,97.210783 -280.20312,176.023433 -18.4556,76.78021 171.71191,204.01368 295.94921,190.79102 C -83.139869,430.09115 87.62463,353.14146 89.09654,260.09598 90.53311,169.285 -67.957739,76.879097 -194.66518,74.123327 c -1.8795,-0.04088 -3.76462,-0.05883 -5.65625,-0.05078 z M -202.28627,121.012 A 133.34962,133.34962 0 0 1 -68.936659,254.36161 133.34962,133.34962 0 0 1 -202.28627,387.71122 133.34962,133.34962 0 0 1 -335.63588,254.36161 133.34962,133.34962 0 0 1 -202.28627,121.012 Z"
         style="opacity:1;fill:#000000;fill-opacity:1;fill-rule:nonzero;stroke:none;stroke-width:1;stroke-linecap:butt;stroke-linejoin:round;stroke-miterlimit:4;stroke-dasharray:none;stroke-opacity:1" />
      <path
         inkscape:connector-curvature="0"
         id="path4270-3"
         d="m -201.28516,153.58427 a 101.92105,101.92105 0 0 0 -49.90625,13.19531 41.921051,41.921051 0 0 1 1.47657,-0.0527 41.921051,41.921051 0 0 1 41.92187,41.92188 41.921051,41.921051 0 0 1 -41.92187,41.91992 41.921051,41.921051 0 0 1 -41.91993,-41.91992 41.921051,41.921051 0 0 1 0.008,-0.15234 101.92105,101.92105 0 0 0 -11.58008,47.00781 101.92105,101.92105 0 0 0 101.92187,101.92187 101.92105,101.92105 0 0 0 101.91993,-101.92187 101.92105,101.92105 0 0 0 -101.91993,-101.91992 z"
         style="opacity:1;fill:#000000;fill-opacity:1;fill-rule:nonzero;stroke:none;stroke-width:2.87199998;stroke-linecap:butt;stroke-linejoin:round;stroke-miterlimit:4;stroke-dasharray:none;stroke-opacity:1" />
    </g>
  </g>
</svg>
