<?xml version="1.0" encoding="UTF-8"?>
<svg width="260" height="230" version="1.1" viewBox="0 0 243.75 215.63" xmlns="http://www.w3.org/2000/svg" xmlns:cc="http://creativecommons.org/ns#" xmlns:dc="http://purl.org/dc/elements/1.1/" xmlns:osb="http://www.openswatchbook.org/uri/2009/osb" xmlns:rdf="http://www.w3.org/1999/02/22-rdf-syntax-ns#" xmlns:xlink="http://www.w3.org/1999/xlink">
 
 <defs>
  <linearGradient id="linearGradient4738" x1="301.12" x2="336.09" y1="258.77" y2="258.77" gradientUnits="userSpaceOnUse">
   <stop offset="0"/>
  </linearGradient>
 </defs>
 <g transform="translate(0 -836.74)">
   <g transform="translate(-207.21 646.62)">
     <path d="m328.82 240.51a22.223 22.223 0 0 0-14 4.9766 10.607 10.607 0 0 1 10.445 10.6 10.607 10.607 0 0 1-10.607 10.607 10.607 10.607 0 0 1-8.0527-3.7207 22.223 22.223 0 0 0 22.215 21.984 22.223 22.223 0 0 0 22.223-22.225 22.223 22.223 0 0 0-22.223-22.223z"/>
     <path d="m334.5 198.45a25.759 25.759 0 0 0-23.891 16.184 37.628 37.628 0 0 1 19.617-5.5566 37.628 37.628 0 0 1 30.029 15.01 25.759 25.759 0 0 0-25.756-25.637z"/>
     <path d="m313.99 217.36c-5.9136 0.0816-11.807 0.78346-17.676 1.5156-5.6716 0.70757-10.998 0.60918-16.922 2.7773-3.3012 1.2084 6.7437 1.9904 10.102 3.0312 4.2211 1.3084 17.009 3.472 12.627 4.041-6.3164 0.82008-8.1684 1.1416-12.121 2.2715-6.6885 1.912-13.231 4.4499-19.445 7.5762-3.8182 1.9208-7.5173 4.154-10.859 6.8184-3.258 2.5974-8.8379 8.8398-8.8379 8.8398s5.0133-1.2619 7.5762-1.5156c2.8482-0.28202 8.5859 0 8.5859 0s-2.9592 1.716-4.293 2.7774c-3.0278 2.4094-5.8827 5.088-8.334 8.082-1.7751 2.1681-4.5469 7.0703-4.5469 7.0703s3.2461-2.2561 5.0508-3.0293c2.3277-0.99733 7.3242-2.0215 7.3242-2.0215s-1.6605 2.7942-2.2734 4.293c-1.5626 3.821-2.7044 7.8254-3.5352 11.869-0.73337 3.5696-1.0509 7.2214-1.2617 10.859-0.11687 2.0169 0 6.0606 0 6.0606 0.21476 0.99422-2.8805 2.2758-2.7793 1.2637 0.1747-1.7464-2.2932-4.828-5.3027-4.293-2.5207 0.44811-3.5364 3.7275-5.5547 5.3027-1.4912 1.1639-3.3975 1.7606-4.7988 3.0312-2.133 1.9342-4.1633 4.174-5.3027 6.8184-0.87628 2.0337-1.0965 4.3536-1.0117 6.5664 0.0993 2.5913 0.56472 5.2788 1.7676 7.5762 1.1058 2.112 2.9709 3.7725 4.7988 5.3027 1.2179 1.0195 2.5306 2.0343 4.041 2.5254 2.2254 0.72357 4.197 2.2196 6.0606 2.5254 3.2926 0.54038 6.4264-0.75775 7.5762-1.5156 1.5935-1.0503 2.7107-2.7201 4.293-3.7871 1.7167-1.1577 4.9691-0.79387 5.5566-2.7793 0.47112-1.592-3.1082-2.7383-2.5254-4.293 0.37377-0.99705 2.2249-0.3121 3.0293-1.0098 1.1376-0.98663 2.1675-2.5423 2.0215-4.041-0.22695-2.3294-5.9537-3.9056-4.293-5.5547 2.2121-2.1966 6.1094-2.3438 4.7969-4.5469-1.934-3.2463-4.545-4.1568-6.8184-3.0293-0.82955 0.41143-0.88915-2.5208 0-2.7793 6.4293-1.8693 14.9-1.0098 14.9-1.0098 1.7071-1.0935-0.50586-6.0606-0.50586-6.0606 35.948-2.6616 64.274-2.1406 97.732-2.0195 1.6581 6e-3 3.536 0.70516 4.5469 2.0195 1.2993 1.6894-0.54762 4.8576 1.0098 6.3125 3.3972 3.1737 12.787-3.2528 13.889 1.2637 0.59229 2.4274-5.236 1.7862-6.3125 4.041-0.32841 0.6879-0.0782 1.5844 0.25196 2.2715 0.82512 1.7168 3.9176 2.1403 4.041 4.041 0.0895 1.3777-1.8772 2.0642-2.5254 3.2832-0.49992 0.94014-1.2985 2.0063-1.0098 3.0312 0.56694 2.0126 4.4717 1.9755 4.7969 4.041 0.24701 1.569-2.8516 2.4846-2.5254 4.0391 0.46043 2.1936 3.7542 2.4566 5.5566 3.7891 0.86687 0.64083 1.4696 1.8371 2.5254 2.0195 3.1241 0.53984 5.1951 2.592 7.3242 2.7793 3.3078 0.29093 7.2919-2.2112 11.111-4.5469 1.4805-0.90538 2.2398-2.6543 3.2832-4.041 1.418-1.8846 3.3705-3.5474 4.041-5.8086 0.76622-2.5838 0.32076-5.447-0.25391-8.0801-0.37004-1.6955-1.0353-3.3696-2.0195-4.7988-1.5196-2.2066-3.8932-3.6814-5.8086-5.5547-0.85109-0.83239-1.7706-1.6047-2.5254-2.5254-0.7697-0.93888-1.1552-2.1787-2.0195-3.0312-1.2135-1.197-2.589-2.8209-4.293-2.7773-1.8685 0.0478-3.3788 1.8241-4.5469 3.2832-0.40067 0.50046-0.11861 1.7184-0.75781 1.7676-0.79181 0.061-1.0428-1.2581-1.2617-2.0215-0.88186-3.0748 0.37877-6.4194 0-9.5957-0.63582-5.3319-2.48-10.451-3.7891-15.658-0.97563-3.8811-1.5147-7.9111-3.0293-11.615-1.9838-4.8516-4.7356-9.4082-7.8301-13.639-2.4271-3.3181-5.323-6.2908-8.334-9.0898-3.3797-3.1419-6.9063-6.204-10.857-8.5879-4.8081-2.9009-10.078-5.0452-15.406-6.8184-6.0645-2.0182-12.36-3.3893-18.688-4.293-5.7597-0.82259-11.608-1.0901-17.426-1.0098zm14.123 2.7773a33.84 33.84 0 0 1 33.84 33.84 33.84 33.84 0 0 1-33.84 33.842 33.84 33.84 0 0 1-33.84-33.842 33.84 33.84 0 0 1 33.84-33.84z" fill-rule="evenodd" stroke="#000" stroke-width="1px"/>
     <g transform="translate(89.268 10.698)" fill="none" stroke="url(#linearGradient4738)" stroke-width="2.8125">
       <path d="m310.54 283.44c5.3506-0.57155 8.1793-0.47215 12.054-1.6741 2.7411-0.8504 5.5168-1.9887 7.7009-3.8504 2.0389-1.738 3.6195-4.0719 4.6875-6.529 1.3612-3.1315 1.8188-6.6354 2.0089-10.045 0.18086-3.2436-0.13122-6.5388-0.83706-9.7098-0.63292-2.8434-1.6866-5.6098-3.0134-8.2031-1.2266-2.3975-2.7485-4.7021-4.5201-6.6964 0 0-2.1676-1.9356-3.5156-2.3438-1.2818-0.3881-2.7521-0.43777-4.0179 0-0.93898 0.32476-1.7874 1.0183-2.3438 1.8415-0.78116 1.1559-0.95368 2.6399-1.1719 4.0178-0.28814 1.8197 0.30999 3.7451-0.16741 5.5246-0.2135 0.79579-0.54132 1.646-1.1719 2.1763-0.67524 0.56794-1.6564 0.61807-2.5112 0.83705-0.60439 0.15484-1.222 0.26092-1.8415 0.33483-2.8861 0.34433-5.9779 0.27833-8.7054 0.50222-2.5151 0.20646 0.4221 4.9978 0.92076 7.4498 0.60723 2.9858 1.808 5.8244 2.5112 8.7891 0.76021 3.2054 1.1108 6.4976 1.8415 9.7098 0.60202 2.6463-0.41417 8.1361 2.0926 7.8683z"/>
       <path d="m310.31 249.31s2.7042 2.7115 3.7725 4.287c1.0759 1.5867 1.9706 3.3184 2.6048 5.1275 0.92764 2.6463 1.4803 5.4426 1.7066 8.2377 0.16973 2.0965-0.10044 4.2078-0.26946 6.3043-0.18366 2.2781-0.19937 4.6058-0.80839 6.8087-0.25363 0.91741-0.61463 1.8311-1.1677 2.6058-0.0238 0.0334-0.0898 0.084-0.0898 0.084"/>
       <path d="m316.16 247.12s2.2248 0.60369 3.2645 1.0882c1.3056 0.60839 2.5661 1.3506 3.683 2.26 1.4848 1.2089 2.8198 2.6282 3.9342 4.1853 0.90075 1.2586 1.6012 2.6647 2.1763 4.1016 0.61386 1.5336 0.96218 3.163 1.3393 4.7712 0.47972 2.0459 1.1732 4.0928 1.1719 6.1942-3.7e-4 0.59647-0.18437 1.1806-0.33482 1.7578-0.20029 0.76842-0.49564 1.5089-0.75335 2.26-0.48973 1.4273-1.5067 4.269-1.5067 4.269"/>
     </g>
     <g transform="translate(91.977 13.397)" fill="none" stroke="#000" stroke-width="2.8125">
       <path d="m165.83 280.69c-2.3955 1.4405-5.6124 0.1636-8.3833-0.20448-3.1299-0.41577-6.3759-0.83974-9.2012-2.2492-2.6005-1.2973-5.0226-3.1819-6.7476-5.5207-1.3973-1.8946-2.0604-4.2661-2.6581-6.5431-0.68039-2.5921-0.96608-5.2951-1.0224-7.9744-0.0503-2.3937 0.21064-4.7964 0.61342-7.1565 0.36709-2.151 0.87096-4.2949 1.6358-6.3386 0.66771-1.7842 1.5096-3.5198 2.5559-5.1118 1.076-1.6372 2.3226-3.1922 3.7827-4.4984 1.0989-0.98306 2.2693-2.0264 3.6805-2.4536 1.109-0.33576 2.4164-0.46874 3.476 0 0.92661 0.4099 1.5627 1.3579 2.0447 2.2492 0.45216 0.83611 0.51804 1.8306 0.71564 2.7604 0.21546 1.0138 0.34718 2.0437 0.51118 3.0671 0.21277 1.3278 0.22936 2.6985 0.61342 3.9872 0.23521 0.78924 0.44002 1.6668 1.0224 2.2492s1.4492 0.82692 2.2492 1.0224c1.2597 0.30775 2.589 0.251 3.885 0.20447 0.54915-0.0197 1.0873-0.17033 1.6358-0.20447 0.13605-8e-3 0.48097-0.11571 0.40893 0-1.478 2.374-4.4541 3.2911-6.1341 5.3162 0 0-2.7604 3.6542-2.7604 4.9073 0 1.2268-0.16923 0.26834 0.20447 0.10225 1.8402-0.81789 1.7165-0.79269 2.5559-1.2268 0.62329-0.32237 1.1661-0.8276 1.8402-1.0224 2.0738-0.5991 3.0217-1.1738 4.4984-1.8402 2.0563-0.92796 2.821-1.3962 4.2939-1.9425 0 0 1.719-0.53014 2.2492 0 0.8193 0.8193 0.22217 2.3388 0 3.476-0.4514 2.3104-1.9722 4.2911-2.6581 6.5431-1.4604 4.7952-1.4213 9.9871-3.0671 14.722-0.45033 1.2956-0.66476 2.9737-1.8402 3.6805z"/>
       <path d="m158.06 258.2s-1.2741 3.0402-1.6374 4.6394c-0.35211 1.5498-0.47101 3.1515-0.5117 4.7403-0.0466 1.8177-0.0131 3.6564 0.30703 5.4463 0.26622 1.4885 0.78244 2.9275 1.3304 4.3369 0.43169 1.1103 1.5351 3.2274 1.5351 3.2274"/>
       <path d="m157.75 246.44s-2.1324 0.24684-3.1693 0.51117c-1.1906 0.30352-2.3867 0.65836-3.476 1.2268-1.4505 0.75695-2.8465 1.6896-3.9872 2.8626-0.97526 1.0029-1.7232 2.2261-2.3514 3.476-0.97283 1.9356-1.5342 4.0563-2.147 6.1341-0.28756 0.97514-0.53989 1.9635-0.71565 2.9648-0.26675 1.5197-0.5136 3.0576-0.51118 4.6006 2e-3 1.2005 0.2364 2.3902 0.40895 3.5782 0.0846 0.58218 0.3067 1.738 0.3067 1.738"/>
     </g>
     <path d="m276.15 294.93c8.6096-0.85044 15.418-0.87453 23.133-1.1567 10.406-0.38051 20.817-0.69881 31.23-0.72291 7.8088-0.0181 15.615 0.2674 23.422 0.43375 8.0008 0.17048 15.43 3.2e-4 24.001 0.57834 1.5395 0.10383 0.27262 3.089 0.14458 4.6266-0.20393 2.449-0.73733 4.8761-1.4458 7.2292-0.73538 2.4424-1.7331 4.8122-2.8917 7.0846-0.74719 1.4655-1.602 2.8872-2.6025 4.1929-1.2443 1.624-2.4708 3.3776-4.1929 4.4821-1.1546 0.74045-2.5442 1.1192-3.9037 1.3012-0.86115 0.11532-1.8387 0.26949-2.6025-0.14459-0.78811-0.42724-1.1324-1.3981-1.5904-2.1687-0.46267-0.77837-0.85744-1.6033-1.1567-2.4579-0.3438-0.98192-0.52433-2.015-0.72291-3.0362-0.30703-1.579-0.57624-3.1694-0.72291-4.7712-0.1363-1.4886-0.0325-2.9915-0.14458-4.4821-0.27659-3.678-1.0009-4.51-1.3012-10.988-0.21904-4.7241 0.77465 8.958 0.7229 13.446-0.0217 1.885 0.40394 3.9499-0.43374 5.6387-0.25788 0.51989-0.77854 0.90454-1.3012 1.1567-2.0268 0.97758-4.4154 0.89867-6.6508 1.1567-2.4937 0.28782-5.0082 0.45777-7.5183 0.43374-2.5134-0.024-5.0897 0.0693-7.5183-0.57832-1.0831-0.28882-2.7428-0.36394-3.0362-1.4458-1.7004-6.27-2.4168-26.965-1.8796-20.097 0.49297 6.3022 0.84339 13.933 1.5904 22.121 0.10877 1.1922-1.2895 2.1267-2.3133 2.7471-1.52 0.92107-3.4461 0.90131-5.205 1.1566-2.0558 0.29844-4.1409 0.36142-6.2171 0.43377-2.4564 0.0856-4.9242 0.20272-7.3737 0-1.4608-0.12091-2.921-0.34621-4.3375-0.72293-1.341-0.35664-2.7195-0.72251-3.9037-1.4458-0.66953-0.40895-1.4284-0.86824-1.735-1.5904-2.901-6.8342 0.29488-17.218 0.57833-22.266 0.2729-4.86-1.7434 11.537-2.1688 17.35-0.16183 2.2116 0.50338 4.5301-0.14458 6.6508-0.23438 0.76711-0.74534 1.4459-1.3012 2.0242-0.40771 0.42408-0.89608 0.80268-1.4458 1.0121-0.77092 0.29363-1.633 0.30226-2.4579 0.28917-0.97455-0.0155-1.9596-0.14883-2.8917-0.43375-1.072-0.32769-2.1206-0.79917-3.0362-1.4458-1.2248-0.86501-2.2095-2.0385-3.1808-3.1808-0.96179-1.131-1.8211-2.3522-2.6025-3.6146-0.54461-0.87987-1.0708-1.7827-1.4458-2.7471-0.6864-1.765-1.0488-3.6425-1.4458-5.4941-0.24587-1.1466-0.48161-2.3014-0.57834-3.47-0.0795-0.9606-0.066-1.93 0-2.8917 0.0966-1.4076-0.73074-4.0636 0.57834-4.1929z" fill="none" stroke="#000" stroke-width="2.8125"/>
     <g transform="translate(-56.178 96.609)" stroke="#000" stroke-width=".9375px">
       <path d="m477.29 241.3c-0.82268-0.0172-1.6519 0.58926-2.3785 1.0217-0.75872 0.45157-1.1179 1.5452-1.972 1.7688-0.60789 0.15915-1.2142-0.35392-1.8402-0.40831-1.4954-0.12987-3.0618-0.23018-4.4989 0.20324-1.1415 0.34427-2.0835 1.1663-3.067 1.8402-0.64106 0.43926-1.2689 0.90506-1.8402 1.4319-0.81563 0.75217-1.5864 1.5633-2.2485 2.4536-1.9879 2.6732-3.6572 5.5909-5.1123 8.5876-0.41468 0.85397-0.71157 1.7615-1.0217 2.6587-0.60576 1.7523-1.1517 3.5261-1.637 5.3156-0.62304 2.2976-1.3607 4.5878-1.6351 6.9525-0.25145 2.1665-0.33639 4.3874 0 6.5424 0.27593 1.7676 0.68606 3.5957 1.6351 5.1123 1.0997 1.7572 2.8296 3.0648 4.4989 4.2938 1.6953 1.2481 3.5303 2.3812 5.5206 3.067 1.2395 0.42711 2.5804 0.48834 3.8855 0.6134 1.9687 0.18866 3.9668 0.45321 5.929 0.20508 2.3964-0.30306 4.7195-1.1242 6.9525-2.0453 1.7198-0.7094 3.3568-1.6305 4.9072-2.6587 2.9096-1.9296 5.7494-4.0354 8.1793-6.5424 1.4231-1.4682 2.5771-3.1857 3.6804-4.9072 1.0038-1.5662 2.067-3.1429 2.6569-4.9072 0.43707-1.3073 0.6719-2.7134 0.6134-4.0906-0.0624-1.47-1.1905-2.8322-1.0217-4.2938 0.0699-0.60558 0.50621-1.1116 0.81847-1.6351 0.14305-0.23981 0.39867-0.41816 0.48158-0.68481 0.26671-0.85799 0.55342-2.0083-0.0256-2.6953-0.37562-0.44565-1.1425-0.2302-1.7194-0.3131-0.59828-0.086-1.2866 0.12078-1.8036-0.19227-0.21021-0.12727-0.26647-0.41403-0.41016-0.61339-0.45438-0.63042-0.83306-1.3427-1.43-1.8402l-2.4536-2.0434c-0.57832-0.48194 0.13175-1.501 0.20325-2.2504 0.0651-0.68187 0.31202-1.3669 0.20508-2.0435-0.0938-0.59337-0.69443-0.88872-1.2744-0.89172-0.77361-5e-3 -1.4588 0.5126-2.1881 0.77087-0.6862 0.24301-1.3588 0.93651-2.0581 0.73426 0 0-0.73232-1.1229-1.2268-1.5637-0.5548-0.49463-1.2205-0.86846-1.9006-1.1682-0.82451-0.36337-2.5983-0.74524-2.5983-0.74524-0.7748-0.78211-0.34472-2.2164-0.86608-3.186-0.37933-0.70549-0.81212-1.6046-1.5875-1.8054-0.11694-0.0303-0.23404-0.0452-0.35156-0.0476zm-8.2141 12.968c2.1066-0.0735 4.2134 0.50044 6.2164 1.1572 1.4747 0.48355 2.8454 1.2537 4.1931 2.0233 1.8107 1.0341 3.5689 2.1779 5.2057 3.4698 1.4455 1.1409 2.8145 2.3906 4.0466 3.7592 1.2898 1.4327 2.5948 2.9103 3.4717 4.6271 0.66564 1.3032 1.1674 2.7357 1.3 4.1931 0.10997 1.2085 0.0404 2.4975-0.43396 3.6145-0.65607 1.545-1.9628 2.7486-3.1805 3.9038-1.1259 1.0682-2.4842 1.8617-3.7592 2.7466-1.9437 1.349-3.865 2.7439-5.9271 3.9038-1.7662 0.99345-3.5696 1.9698-5.495 2.6019-1.6793 0.55132-3.4369 1.0554-5.2038 1.0126-2.6292-0.0638-5.3275-0.66928-7.663-1.8787-2.1539-1.1154-4.0253-2.8421-5.495-4.7717-0.74448-0.97749-1.3194-2.1269-1.5912-3.3252-0.35181-1.551-0.11274-3.1853 0-4.7717 0.0725-1.0198 0.23743-2.0326 0.43396-3.0359 0.26739-1.365 0.55958-2.7333 1.0126-4.0485 0.76352-2.2166 0.94364-2.7767 2.3126-5.9271 0.49828-1.1467 1.3869-2.7091 2.3145-3.9038 1.2539-1.6151 2.5629-3.3226 4.3378-4.3378 1.1669-0.66739 2.5604-0.96571 3.9038-1.0126z"/>
       <path d="m464.97 270.57c0.65709 0.78619 1.5449 1.3464 2.3133 2.0242 0.8705 0.76772 1.6652 1.6288 2.6025 2.3133 1.2215 0.89209 2.5509 1.6369 3.9037 2.3133s2.7374 1.3235 4.1929 1.735c1.1742 0.33192 2.3956 0.52506 3.6146 0.57833 1.3516 0.0591 2.7215-0.025 4.0483-0.28917 0.89682-0.17855 1.8152-0.40239 2.6025-0.86749 0.73412-0.43368 1.4447-1.0016 1.8796-1.735 0.50671-0.85463 0.77655-1.8996 0.72291-2.8917-0.0527-0.97444-0.59989-1.8625-1.0121-2.7471-0.49235-1.0566-1.0761-2.0747-1.735-3.0362-0.5616-0.8196-1.206-1.583-1.8796-2.3133-1.0399-1.1276-2.1555-2.1887-3.3254-3.1808-0.73514-0.62341-1.4821-1.247-2.3133-1.735-0.81867-0.48062-1.7086-0.83714-2.6025-1.1567-1.8827-0.67296-3.8289-1.1688-5.7833-1.5904-0.90619-0.1955-1.8202-0.41881-2.7471-0.43376-0.77701-0.0125-1.6095-0.0402-2.3133 0.28917-0.89567 0.41909-1.5768 1.232-2.1688 2.0242-0.64509 0.86325-1.1548 1.854-1.4458 2.8917-0.31338 1.1176-0.35544 2.3112-0.28917 3.47 0.0421 0.73603 0.16791 1.4811 0.43375 2.1687 0.304 0.78633 0.76059 1.5219 1.3012 2.1687z"/>
       <path d="m458.89 275.64c0.42081-0.40525 0.88852-0.80227 1.437-1.0033 0.91447-0.33515 1.9573-0.47754 2.9092-0.27163 0.75955 0.16429 1.3612 0.75119 2.0242 1.1567 0.89293 0.54614 1.7447 1.1571 2.6288 1.7175 0.79539 0.50415 1.6474 0.92253 2.4068 1.4794 0.88331 0.64774 1.8392 1.2663 2.4827 2.1527 0.50076 0.68972 0.92274 1.5064 0.99453 2.3557 0.0626 0.73998-0.14445 1.5222-0.50967 2.1688-0.32151 0.56922-0.86574 0.99814-1.4035 1.3699-0.77193 0.53367-1.6323 1.0004-2.5514 1.1902-1.3388 0.27647-2.7524 0.11333-4.0994-0.11978-1.1774-0.20377-2.3705-0.51643-3.4101-1.1056-1.1626-0.6588-2.2602-1.537-3.0202-2.6361-0.79836-1.1546-1.3466-2.5478-1.4706-3.9461-0.0952-1.0734 0.14529-2.194 0.57833-3.1808 0.22289-0.50793 0.60377-0.94279 1.0033-1.3276z"/>
     </g>
     <g transform="matrix(-1.0036 0 0 1.0775 715.86 76.714)" stroke="#000" stroke-width=".9375px">
       <path d="m477.29 241.3c-0.82268-0.0172-1.6519 0.58926-2.3785 1.0217-0.75872 0.45157-1.1179 1.5452-1.972 1.7688-0.60789 0.15915-1.2142-0.35392-1.8402-0.40831-1.4954-0.12987-3.0618-0.23018-4.4989 0.20324-1.1415 0.34427-2.0835 1.1663-3.067 1.8402-0.64106 0.43926-1.2689 0.90506-1.8402 1.4319-0.81563 0.75217-1.5864 1.5633-2.2485 2.4536-1.9879 2.6732-3.6572 5.5909-5.1123 8.5876-0.41468 0.85397-0.71157 1.7615-1.0217 2.6587-0.60576 1.7523-1.1517 3.5261-1.637 5.3156-0.62304 2.2976-1.3607 4.5878-1.6351 6.9525-0.25145 2.1665-0.33639 4.3874 0 6.5424 0.27593 1.7676 0.68606 3.5957 1.6351 5.1123 1.0997 1.7572 2.8296 3.0648 4.4989 4.2938 1.6953 1.2481 3.5303 2.3812 5.5206 3.067 1.2395 0.42711 2.5804 0.48834 3.8855 0.6134 1.9687 0.18866 3.9668 0.45321 5.929 0.20508 2.3964-0.30306 4.7195-1.1242 6.9525-2.0453 1.7198-0.7094 3.3568-1.6305 4.9072-2.6587 2.9096-1.9296 5.7494-4.0354 8.1793-6.5424 1.4231-1.4682 2.5771-3.1857 3.6804-4.9072 1.0038-1.5662 2.067-3.1429 2.6569-4.9072 0.43707-1.3073 0.6719-2.7134 0.6134-4.0906-0.0624-1.47-1.1905-2.8322-1.0217-4.2938 0.0699-0.60558 0.50621-1.1116 0.81847-1.6351 0.14305-0.23981 0.39867-0.41816 0.48158-0.68481 0.26671-0.85799 0.55342-2.0083-0.0256-2.6953-0.37562-0.44565-1.1425-0.2302-1.7194-0.3131-0.59828-0.086-1.2866 0.12078-1.8036-0.19227-0.21021-0.12727-0.26647-0.41403-0.41016-0.61339-0.45438-0.63042-0.83306-1.3427-1.43-1.8402l-2.4536-2.0434c-0.57832-0.48194 0.13175-1.501 0.20325-2.2504 0.0651-0.68187 0.31202-1.3669 0.20508-2.0435-0.0938-0.59337-0.69443-0.88872-1.2744-0.89172-0.77361-5e-3 -1.4588 0.5126-2.1881 0.77087-0.6862 0.24301-1.3588 0.93651-2.0581 0.73426 0 0-0.73232-1.1229-1.2268-1.5637-0.5548-0.49463-1.2205-0.86846-1.9006-1.1682-0.82451-0.36337-2.5983-0.74524-2.5983-0.74524-0.7748-0.78211-0.34472-2.2164-0.86608-3.186-0.37933-0.70549-0.81212-1.6046-1.5875-1.8054-0.11694-0.0303-0.23404-0.0452-0.35156-0.0476zm-8.2141 12.968c2.1066-0.0735 4.2134 0.50044 6.2164 1.1572 1.4747 0.48355 2.8454 1.2537 4.1931 2.0233 1.8107 1.0341 3.5689 2.1779 5.2057 3.4698 1.4455 1.1409 2.8145 2.3906 4.0466 3.7592 1.2898 1.4327 2.5948 2.9103 3.4717 4.6271 0.66564 1.3032 1.1674 2.7357 1.3 4.1931 0.10997 1.2085 0.0404 2.4975-0.43396 3.6145-0.65607 1.545-1.9628 2.7486-3.1805 3.9038-1.1259 1.0682-2.4842 1.8617-3.7592 2.7466-1.9437 1.349-3.865 2.7439-5.9271 3.9038-1.7662 0.99345-3.5696 1.9698-5.495 2.6019-1.6793 0.55132-3.4369 1.0554-5.2038 1.0126-2.6292-0.0638-5.3275-0.66928-7.663-1.8787-2.1539-1.1154-4.0253-2.8421-5.495-4.7717-0.74448-0.97749-1.3194-2.1269-1.5912-3.3252-0.35181-1.551-0.11274-3.1853 0-4.7717 0.0725-1.0198 0.23743-2.0326 0.43396-3.0359 0.26739-1.365 0.55958-2.7333 1.0126-4.0485 0.76352-2.2166 0.94364-2.7767 2.3126-5.9271 0.49828-1.1467 1.3869-2.7091 2.3145-3.9038 1.2539-1.6151 2.5629-3.3226 4.3378-4.3378 1.1669-0.66739 2.5604-0.96571 3.9038-1.0126z"/>
       <path d="m464.97 270.57c0.65709 0.78619 1.5449 1.3464 2.3133 2.0242 0.8705 0.76772 1.6652 1.6288 2.6025 2.3133 1.2215 0.89209 2.5509 1.6369 3.9037 2.3133s2.7374 1.3235 4.1929 1.735c1.1742 0.33192 2.3956 0.52506 3.6146 0.57833 1.3516 0.0591 2.7215-0.025 4.0483-0.28917 0.89682-0.17855 1.8152-0.40239 2.6025-0.86749 0.73412-0.43368 1.4447-1.0016 1.8796-1.735 0.50671-0.85463 0.77655-1.8996 0.72291-2.8917-0.0527-0.97444-0.59989-1.8625-1.0121-2.7471-0.49235-1.0566-1.0761-2.0747-1.735-3.0362-0.5616-0.8196-1.206-1.583-1.8796-2.3133-1.0399-1.1276-2.1555-2.1887-3.3254-3.1808-0.73514-0.62341-1.4821-1.247-2.3133-1.735-0.81867-0.48062-1.7086-0.83714-2.6025-1.1567-1.8827-0.67296-3.8289-1.1688-5.7833-1.5904-0.90619-0.1955-1.8202-0.41881-2.7471-0.43376-0.77701-0.0125-1.6095-0.0402-2.3133 0.28917-0.89567 0.41909-1.5768 1.232-2.1688 2.0242-0.64509 0.86325-1.1548 1.854-1.4458 2.8917-0.31338 1.1176-0.35544 2.3112-0.28917 3.47 0.0421 0.73603 0.16791 1.4811 0.43375 2.1687 0.304 0.78633 0.76059 1.5219 1.3012 2.1687z"/>
       <path d="m458.89 275.64c0.42081-0.40525 0.88852-0.80227 1.437-1.0033 0.91447-0.33515 1.9573-0.47754 2.9092-0.27163 0.75955 0.16429 1.3612 0.75119 2.0242 1.1567 0.89293 0.54614 1.7447 1.1571 2.6288 1.7175 0.79539 0.50415 1.6474 0.92253 2.4068 1.4794 0.88331 0.64774 1.8392 1.2663 2.4827 2.1527 0.50076 0.68972 0.92274 1.5064 0.99453 2.3557 0.0626 0.73998-0.14445 1.5222-0.50967 2.1688-0.32151 0.56922-0.86574 0.99814-1.4035 1.3699-0.77193 0.53367-1.6323 1.0004-2.5514 1.1902-1.3388 0.27647-2.7524 0.11333-4.0994-0.11978-1.1774-0.20377-2.3705-0.51643-3.4101-1.1056-1.1626-0.6588-2.2602-1.537-3.0202-2.6361-0.79836-1.1546-1.3466-2.5478-1.4706-3.9461-0.0952-1.0734 0.14529-2.194 0.57833-3.1808 0.22289-0.50793 0.60377-0.94279 1.0033-1.3276z"/>
     </g>
   </g>
   <g fill="none" stroke="#000" stroke-width="2.8125">
     <path d="m53.741 1031.7c46.4 3.7934 92.801 3.6103 139.2 0.3178v-0.2119"/>
     <path d="m48.495 979.55c-1.8432 5.8619-1.7691 11.45 0.20447 16.767"/>
     <path d="m195.34 980.98c2.652 12.793 0.18672 16.177 0.20448 16.153"/>
   </g>
   <g transform="translate(8.675 1.1567)" stroke-width=".046875">
     <path d="m75.313 986.75c-0.2717-5e-3 -0.54412 3e-3 -0.81483 0.0183-0.43717 0.0253-0.87261 0.0861-1.3 0.18128-0.51706 0.11513-1.0308 0.26069-1.5179 0.46875-0.57041 0.2436-1.1085 0.56542-1.6278 0.90453-0.31678 0.20687-0.619 0.43637-0.90271 0.68666-0.35781 0.31562-0.69267 0.65811-1.0016 1.0217-0.30692 0.36125-0.58635 0.74724-0.84229 1.1462-0.13395 0.20882-0.23893 0.43572-0.36072 0.65186-0.14305 0.25389-0.28075 0.51016-0.43396 0.75805-0.0685 0.11086-0.11668 0.24384-0.21789 0.32593-0.12449 0.10103-0.29011 0.14371-0.44678 0.17761-0.21147 0.0458-0.43405 1.3e-4 -0.64819 0.0311-0.19364 0.028-0.40013 0.0412-0.56946 0.13915-0.13492 0.0781-0.24527 0.20323-0.32227 0.33875-0.11122 0.19569-0.16717 0.42537-0.18127 0.65002-0.0173 0.27686-0.11004 0.58951-0.10803 0.90454h-2e-3c0.0185 0.20115 0.0908 0.39802 0.18128 0.57861 0.0553 0.11026 0.12439 0.21807 0.2179 0.29847 0.1197 0.1029 0.27187 0.16659 0.42114 0.21789 0.16644 0.0572 0.34296 0.0806 0.51819 0.097 0.11996 0.0112 0.24703-0.0399 0.36071 0 0.0728 0.0255 0.13388 0.0838 0.18128 0.14466 0.0894 0.11488 0.12808 0.26182 0.18127 0.39733 0.12535 0.31918 0.19936 0.65653 0.3241 0.97595 0.0961 0.24614 0.19634 0.49298 0.32593 0.72327 0.22945 0.4077 0.49394 0.7988 0.79468 1.1572 0.3438 0.40976 0.71704 0.80256 1.1444 1.1243 0.46799 0.3522 0.99124 0.6363 1.5308 0.8642 0.59001 0.2493 1.2185 0.4038 1.8439 0.542 0.47586 0.1052 0.9578 0.1958 1.4447 0.2161 0.7359 0.031 1.4753-0.055 2.2064-0.1446 0.60758-0.074 1.2148-0.1702 1.8073-0.3241 0.43146-0.1121 0.84594-0.2826 1.2653-0.434 0.35149-0.1269 0.7039-0.2501 1.0474-0.3973 0.3071-0.1317 0.61421-0.2686 0.90455-0.434 0.26422-0.1505 0.50239-0.3426 0.75805-0.5072 0.28507-0.1836 0.56696-0.36646 0.87524-0.62986 0.16513-0.1411 0.36677-0.2445 0.50721-0.4101 0.15763-0.186 0.29991-0.39937 0.36072-0.63542 0.0534-0.20592 0.0479-0.43187-7e-3 -0.63721-0.0575-0.21358-0.21081-0.38975-0.32592-0.5786-0.0751-0.1232-0.14185-0.25317-0.23804-0.36073-0.15061-0.16847-0.30907-0.35296-0.52002-0.43396-0.20398-0.0783-0.44013-0.0624-0.65552-0.0256-0.15175 0.0259-0.29475 0.0973-0.4303 0.17029-0.12948 0.0697-0.23928 0.16969-0.36071 0.25268-0.14348 0.098-0.28997 0.19201-0.43397 0.28931-0.22985 0.15525-0.44862 0.32633-0.68664 0.46875-0.31445 0.18815-0.64278 0.35464-0.97595 0.5072-0.29496 0.13507-0.59625 0.25428-0.90271 0.36072-0.32051 0.11132-0.64785 0.20291-0.97595 0.28927-0.31092 0.082-0.62434 0.1633-0.94117 0.2179-0.37823 0.065-0.75904 0.1173-1.1426 0.1319-0.3118 0.012-0.6262 0-0.93566-0.037-0.42196-0.054-0.83882-0.1563-1.247-0.2765-0.33278-0.098-0.67017-0.19874-0.97596-0.36258-0.28351-0.15191-0.54436-0.34872-0.78003-0.56763-0.14222-0.13209-0.27264-0.2784-0.37536-0.44311-0.11135-0.17855-0.22732-0.36997-0.25451-0.57862-0.0205-0.15714 1e-3 -0.32934 0.0732-0.47057 0.0671-0.13177 0.18068-0.24939 0.31495-0.31129 0.2252-0.10344 0.53788-0.0935 0.66101-0.10986 0.59465-0.0791 1.0858-0.10878 1.626-0.15747 0.55408-0.05 1.1092-0.0877 1.6626-0.14466 0.50694-0.0522 1.0115-0.12314 1.518-0.17944 0.34912-0.0388 0.70065-0.0663 1.0492-0.10986 0.41085-0.0514 0.82321-0.0953 1.2286-0.17945 0.31766-0.0659 0.635-0.14031 0.93933-0.25268 0.26289-0.0971 0.52389-0.21142 0.75989-0.36255 0.23774-0.15224 0.4504-0.34237 0.65002-0.54199 0.19963-0.19962 0.40581-0.40274 0.54199-0.65002 0.18932-0.34377 0.30156-0.73292 0.36255-1.1206 0.0599-0.38087 0.0597-0.77633 0-1.1572-0.0549-0.35008-0.18672-0.6867-0.32592-1.0126-0.1292-0.30242-0.28508-0.59455-0.47059-0.86609-0.23148-0.33884-0.48686-0.66977-0.79467-0.94116-0.38812-0.3422-0.8419-0.60899-1.3019-0.84595-0.3683-0.18973-0.75956-0.33178-1.1554-0.4541-0.41329-0.12772-0.83598-0.236-1.2653-0.28931-0.26909-0.0334-0.54129-0.0503-0.81298-0.0549zm-0.40284 3.3417c0.17968 4e-3 0.35898 0.0232 0.5365 0.0513 0.15517 0.0245 0.30961 0.0558 0.4596 0.10255 0.16237 0.0506 0.32141 0.11764 0.47424 0.19225 0.1149 0.0561 0.22582 0.12018 0.33142 0.19226 0.11263 0.0769 0.22218 0.15809 0.31861 0.25453 0.0579 0.0579 0.1126 0.12155 0.1538 0.19225 0.0462 0.0793 0.0852 0.16442 0.10254 0.25452 0.0169 0.0878 0.0184 0.18162 0 0.26917-0.0239 0.11386-0.0753 0.22257-0.14099 0.3186-0.0476 0.0696-0.10626 0.13447-0.17761 0.17944-0.12994 0.0819-0.28722 0.11485-0.43579 0.15381-0.23845 0.0625-0.48563 0.0875-0.72877 0.12817-0.29356 0.0492-0.58592 0.0982-0.88073 0.13917-0.32291 0.0448-0.64839 0.0783-0.97229 0.11535-0.42578 0.0486-0.85054 0.0917-1.2762 0.14099-0.31544 0.0365-0.63035 0.0872-0.94665 0.11536-0.30174 0.0268-0.60352 0.0579-0.90637 0.0513-0.0856-2e-3 -0.18016 0.0135-0.25635-0.0256-0.0859-0.0441-0.15036-0.1309-0.19227-0.21791-0.0319-0.0663-0.0414-0.14259-0.0384-0.21606 4e-3 -0.10118 0.0392-0.2008 0.0769-0.2948 0.0489-0.12213 0.11304-0.23919 0.19226-0.34424 0.10521-0.13947 0.23949-0.25542 0.36988-0.3717 0.13802-0.12309 0.28582-0.236 0.43578-0.34424 0.10732-0.0774 0.21788-0.14994 0.33143-0.21789 0.0916-0.0548 0.18549-0.10818 0.28198-0.15381 0.19521-0.0923 0.39773-0.16764 0.60058-0.2417 0.21892-0.0799 0.43936-0.1584 0.66468-0.2179 0.26898-0.071 0.54059-0.13222 0.81665-0.16662 0.26661-0.0332 0.53707-0.0448 0.80566-0.0385z" stroke="#000"/>
     <path d="m84.07 994.38c0.18593 1.2764 0.3451 2.5567 0.54219 3.8314 0.156 1.009 0.11195 2.0303 0.25302 3.0272 0.0283 0.2 0.0297 0.4217 0.14458 0.5874 0.079 0.114 0.21557 0.1811 0.34338 0.235 0.19816 0.084 0.41784 0.1149 0.63255 0.1265 0.43788 0.024 0.88466-0.012 1.3103-0.1175 0.23456-0.058 0.47923-0.1301 0.66869-0.2801 0.21303-0.1687 0.37947-0.4068 0.47894-0.6597 0.14551-0.3699 0.1255-0.7867 0.14458-1.1838 0.0283-0.58989-0.0512-1.1806-0.0452-1.7712 6e-3 -0.59097 0.0298-1.1824 0.0814-1.7711 0.0348-0.39638 0.0966-0.78998 0.15363-1.1838 0.0738-0.51019 0.1453-1.0212 0.24398-1.5272 0.0923-0.47333 0.18782-0.94746 0.32531-1.4097 0.10976-0.36901 0.22015-0.74271 0.3976-1.0844 0.1656-0.31885 0.37828-0.63518 0.61449-0.88558 0.16112-0.1708 0.35363-0.25229 0.56024-0.27109 0.18049-0.0164 0.38015 0.0345 0.52413 0.14459 0.28641 0.21895 0.47748 0.4903 0.65965 0.77712 0.32303 0.50862 0.52847 1.0843 0.75003 1.6446 0.20105 0.50845 0.37033 1.0296 0.52411 1.5543 0.13273 0.45288 0.24585 0.91178 0.34339 1.3735 0.13142 0.62211 0.23851 1.2497 0.32531 1.8796 0.0723 0.52494 0.11371 1.0537 0.16265 1.5814 0.0338 0.36416 0.0681 0.73581 0.0904 1.0934 0.0135 0.2168 0.0931 0.425 0.22592 0.5874 0.12433 0.152 0.31183 0.2509 0.49699 0.3162 0.22866 0.081 0.48045 0.078 0.72293 0.081 0.34767 0 0.70379 0 1.0392-0.09 0.23522-0.064 0.47075-0.162 0.65966-0.3162 0.18154-0.1482 0.32722-0.3472 0.42472-0.5603 0.22293-0.48724 0.22522-1.0477 0.33434-1.5723 0.14773-0.71022 0.25954-1.4284 0.43375-2.1326 0.19594-0.79205 0.43017-1.5749 0.68677-2.3495 0.13338-0.4026 0.26686-0.80691 0.44278-1.1928 0.15376-0.3373 0.28706-0.69872 0.53315-0.97594 0.16203-0.18252 0.36178-0.35754 0.59641-0.42471 0.14216-0.0407 0.30855-0.0349 0.44278 0.0271 0.20111 0.0929 0.3366 0.2955 0.46086 0.47893 0.21322 0.31474 0.34003 0.68189 0.46989 1.0392 0.172 0.47325 0.28914 0.96522 0.40664 1.4549 0.12833 0.53479 0.22849 1.0761 0.32532 1.6175 0.0993 0.55524 0.18289 1.1133 0.26205 1.6717 0.14787 1.0432 0.2607 2.091 0.3976 3.1356 0.0671 0.5124 0.0407 1.0561 0.20785 1.5362 0.0864 0.2481 0.28641 0.4672 0.51507 0.5964 0.23148 0.1309 0.52053 0.1234 0.78617 0.1356 0.30486 0.014 0.61504 0 0.91268-0.072 0.31152-0.071 0.63949-0.1512 0.8946-0.3434 0.19584-0.1475 0.35501-0.3584 0.44279-0.5874 0.11257-0.2936 0.0848-0.6253 0.0813-0.9398-5e-3 -0.4726-0.0982-0.9402-0.15361-1.4096-0.0784-0.6634-0.15784-1.3268-0.25302-1.988-0.0974-0.67641-0.19821-1.3527-0.32531-2.0242-0.12615-0.66642-0.26483-1.3311-0.43375-1.988-0.20033-0.77903-0.39852-1.5624-0.68677-2.3133-0.20085-0.52326-0.44031-1.0341-0.72292-1.5181-0.27473-0.47052-0.53964-0.9676-0.93979-1.3374-0.45224-0.41792-0.99029-0.80183-1.5904-0.93979-0.53901-0.12391-1.1275-0.0349-1.6537 0.13556-0.69688 0.2257-1.3441 0.63874-1.8796 1.1386-0.60051 0.56056-1.036 1.3049-1.4187 2.0151-0.13551 0.25144-0.21525 0.54928-0.36145 0.80424-0.1343 0.2342-0.21278 0.70247-0.4699 0.65967-0.40112-0.0668-0.42302-0.95084-0.68677-1.5724-0.27328-0.64398-0.44418-1.208-0.75906-1.735-0.42151-0.70547-0.96169-1.3884-1.6537-1.8344-0.57651-0.37157-1.2754-0.60195-1.9609-0.62351-0.69514-0.0219-1.4131 0.17386-2.0242 0.50604-0.43439 0.23616-0.77498 0.62641-1.0844 1.0121-0.39592 0.49353-0.62546 1.1706-0.8675 1.6266-0.0763 0.14373-0.17172 0.32654-0.28012 0.31628-0.0916-9e-3 -0.21124-0.0437-0.23495-0.14459-0.0648-0.27582-0.10767-0.57375-0.17169-0.85846-0.0845-0.37562-0.16867-0.77316-0.28013-1.1205-0.0554-0.17249-0.20641-0.32084-0.3705-0.3976-0.30056-0.14061-0.67296-0.11797-0.994-0.0542-0.38774 0.077-0.70666 0.23642-1.1838 0.497-0.29946 0.16356-0.59849 0.36019-0.78617 0.64159-0.11686 0.17522-0.16658 0.39531-0.18073 0.60544-0.0209 0.3103 0.0863 0.61623 0.14458 0.92172 0.13364 0.70058 0.32526 1.389 0.46989 2.0874 0.092 0.44428 0.17723 0.89006 0.25303 1.3374 0.0407 0.24023 0.0732 0.48179 0.10831 0.7229z" stroke="#000b00"/>
     <path d="m117.47 984.21c-0.45564 0.0125-0.91457 0.0638-1.355 0.18127-0.38371 0.10239-0.75527 0.25731-1.1023 0.45044-0.37696 0.20979-0.73273 0.4667-1.0492 0.75989-0.34176 0.31664-0.64763 0.67581-0.90271 1.0657-0.18734 0.28632-0.31333 0.61016-0.45227 0.92286-0.14491 0.32612-0.26481 0.66292-0.39734 0.99426-0.0361 0.0904-0.0508 0.19229-0.10804 0.271-0.0276 0.0381-0.0636 0.0977-0.10986 0.0897-0.11701-0.0204-0.13524-0.19734-0.17944-0.30762-0.0392-0.0977-0.0452-0.2062-0.0732-0.30762-0.0689-0.24979-0.14448-0.49671-0.23438-0.73974-0.0749-0.20256-0.14434-0.41012-0.25269-0.59693-0.0949-0.16364-0.19557-0.33529-0.34423-0.45227-0.0827-0.065-0.18787-0.0984-0.28931-0.12634-0.0937-0.0258-0.19221-0.0326-0.28931-0.0366-0.15059-6e-3 -0.30014 7e-3 -0.45044 0.0183-0.27198 0.0205-0.54658 0.0331-0.81299 0.0915-0.18604 0.0409-0.37076 0.0999-0.54382 0.17944-0.12764 0.0587-0.254 0.1265-0.36071 0.2179-0.14295 0.12243-0.28312 0.26249-0.36073 0.43396-0.0804 0.17777-0.0956 0.38172-0.0915 0.57678 6e-3 0.2764 0.10696 0.54408 0.16296 0.81482 0.22198 1.0738 0.45495 2.1436 0.68665 3.2153 0.30361 1.4044 0.63397 2.8039 0.92284 4.2114 0.35392 1.7245 0.67899 3.4551 0.99244 5.1873 0.30031 1.6597 0.59735 3.3201 0.84961 4.9878 0.24722 1.6343 0.44867 3.276 0.65185 4.9164 0.0387 0.3129 3e-3 0.6421 0.10803 0.9393 0.0525 0.1481 0.13603 0.2921 0.25269 0.3973 0.15005 0.1354 0.34679 0.2188 0.54199 0.271 0.29733 0.08 0.61617 0.081 0.92285 0.055 0.24027-0.02 0.47346-0.09 0.70312-0.163 0.18009-0.058 0.3596-0.1255 0.52552-0.2161 0.14812-0.081 0.29505-0.1712 0.41565-0.2893 0.11709-0.1146 0.22071-0.2485 0.2893-0.3973 0.0648-0.1406 0.099-0.2976 0.10804-0.4523 0.0203-0.3513-0.0875-0.6994-0.12635-1.0492-0.0922-0.8305-0.16658-1.6627-0.25268-2.4939-0.0649-0.6266-0.12889-1.2526-0.19959-1.8786-0.0851-0.7537-0.18199-1.5064-0.27099-2.2595-0.0306-0.259-0.11262-0.5166-0.0897-0.7764 0.0166-0.188 0.0416-0.3978 0.16113-0.5438 0.12977-0.1585 0.33644-0.2935 0.54383-0.2875 0.50827 0.015 0.89113 0.054 1.3367 0.035 0.58156-0.025 1.1641-0.079 1.734-0.1978 0.64743-0.1346 1.2901-0.3202 1.8988-0.5786 0.62802-0.2666 1.2372-0.5928 1.7889-0.9943 0.49977-0.36354 0.94874-0.79942 1.355-1.2652 0.412-0.47235 0.78156-0.98725 1.084-1.5362 0.27367-0.49682 0.48306-1.0314 0.65185-1.5729 0.14486-0.46477 0.22982-0.94585 0.30761-1.4264 0.0708-0.43672 0.13276-0.87794 0.14466-1.3202 0.0116-0.43426-0.0207-0.87064-0.0732-1.3019-0.0667-0.54773-0.15172-1.0967-0.30762-1.626-0.1672-0.56767-0.40387-1.1149-0.66834-1.6443-0.18838-0.37709-0.40355-0.74203-0.65002-1.084-0.19485-0.27036-0.42285-0.5178-0.65185-0.75989-0.27524-0.29096-0.55367-0.58069-0.86609-0.8313-0.33887-0.27183-0.70841-0.50814-1.0858-0.72327-0.30198-0.17213-0.61518-0.32498-0.93933-0.45044-0.51015-0.19743-1.0351-0.37049-1.5729-0.47058-0.53463-0.0995-1.0824-0.14124-1.626-0.12634zm0.27466 3.3014c0.14128 8e-3 0.28136 0.0264 0.41932 0.0549 0.3458 0.071 0.68312 0.19727 0.99792 0.35706 0.31184 0.15829 0.60272 0.35978 0.86792 0.58777 0.2286 0.19651 0.42557 0.4289 0.6134 0.66466 0.24445 0.30682 0.47792 0.62733 0.66467 0.9723 0.12731 0.23514 0.2149 0.49079 0.30762 0.74158 0.16164 0.43716 0.33741 0.87152 0.43396 1.3275 0.10467 0.49428 0.14466 1.0036 0.15381 1.5088 7e-3 0.39267-6e-3 0.78917-0.0769 1.1755-0.0735 0.403-0.18468 0.80478-0.35889 1.1755-0.20399 0.43415-0.46285 0.85132-0.79101 1.2012-0.32874 0.35047-0.73657 0.62784-1.1517 0.86976-0.29674 0.1729-0.61679 0.3066-0.94482 0.40832-0.38142 0.11827-0.77771 0.19595-1.1755 0.23072-0.44991 0.0393-0.9065 0.0276-1.355-0.0256-0.58914-0.0698-1.0709-0.21388-1.7377-0.38452-0.23344-0.0597-0.40531-0.23227-0.48523-0.4596 0 0-0.15316-0.81548-0.20508-1.2268-0.0621-0.49208-0.0889-0.98692-0.12817-1.4813-0.0372-0.46831-0.0855-0.93677-0.10254-1.4062-0.0179-0.49381-0.0287-0.98984 0-1.4832 0.0299-0.51378 0.0639-1.0311 0.17944-1.5326 0.081-0.35183 0.20348-0.69767 0.35889-1.0236 0.14655-0.30731 0.32282-0.60285 0.5365-0.86792 0.20797-0.258 0.45009-0.49246 0.71594-0.69031 0.25093-0.18675 0.52466-0.3474 0.81665-0.4596 0.32606-0.12529 0.67538-0.20265 1.0236-0.23071 0.14037-0.0113 0.2817-0.0121 0.42297-4e-3z" stroke="#000100"/>
     <path d="m135.01 984.8c-0.10156-0.63606-0.16001-1.2784-0.25302-1.9157-0.13103-0.89786-0.16348-1.8545-0.32531-2.6386-0.0796-0.3858-0.21024-0.78811-0.46989-1.0844-0.18522-0.21134-0.4532-0.35488-0.72292-0.43376-0.40491-0.11842-0.84551-0.08-1.2651-0.0362-0.3575 0.0374-0.72608 0.0936-1.0482 0.25302-0.22261 0.11018-0.4439 0.26102-0.57832 0.46989-0.15499 0.24083-0.24999 0.60196-0.21688 0.83135 0.34987 2.4242 0.93131 4.8558 1.3735 7.3376 0.0406 0.22816 0.0961 0.45533 0.10843 0.68676 0.0129 0.24093 0.0716 0.50705-0.0361 0.72292-0.084 0.16838-0.23928 0.29598-0.43374 0.36145-0.86383 0.29085-2.1625 0.42204-3.2893 0.75907-0.58826 0.17595-1.2068 0.2641-1.7711 0.50603-0.21841 0.0936-0.44274 0.19722-0.61448 0.36146-0.20771 0.19864-0.37363 0.45212-0.46989 0.72292-0.11365 0.31969-0.13188 0.6736-0.10845 1.0121 0.0206 0.29735 0.0559 0.61663 0.21687 0.86749 0.0833 0.12986 0.21497 0.24071 0.36146 0.28917 0.32049 0.10603 0.67892 0.0182 1.0121-0.0362 0.66971-0.10939 1.2972-0.39962 1.9519-0.57834 0.62301-0.17009 1.2523-0.31643 1.8796-0.46989 0.36918-0.0903 0.56657-0.13683 1.1205-0.28916 0.24616-0.0677 0.53129 0.0843 0.7229 0.25301 0.14155 0.12462 0.22472 0.30752 0.25303 0.50604 0.31256 2.1919 0.52699 4.14 0.72291 6.2171 0.0783 0.8298 0.0565 1.6698 0.18073 2.494 0.0479 0.3179 0.0278 0.6798 0.21687 0.9398 0.16524 0.2273 0.45035 0.3654 0.72292 0.4338 0.47971 0.1203 1.0018 0.046 1.482-0.072 0.36114-0.089 0.79985-0.157 1.0121-0.4699 0.30676-0.4524 0.4736-0.5857 0.4699-1.0483-9e-3 -1.1488-0.0869-2.3517-0.25302-3.4699-0.28948-1.9484-0.55849-3.8924-0.79521-5.8556-0.0196-0.1627 0.0493-0.33654 0.14459-0.4699 0.0953-0.13335 0.2356-0.26441 0.3976-0.28917 1.2733-0.19461 2.5881-0.21333 3.8314-0.32531 1.0686-0.0962 2.1197-8e-3 3.217-0.10843 0.31288-0.0286 0.60952-0.25261 0.79521-0.50605 0.2211-0.30176 0.26193-0.71128 0.28916-1.0844 0.023-0.3145 0.0149-0.64957-0.10843-0.93978-0.10379-0.2442-0.28357-0.46987-0.50604-0.61449-0.18872-0.12268-0.42586-0.19267-0.65063-0.18072-2.4628 0.13094-3.4816 0.26957-6.7231 0.61448-0.2516 0.0268-0.52176 0.0878-0.75906 0-0.20837-0.0771-0.39863-0.23928-0.50604-0.43376-0.15899-0.28787-0.0902-0.6516-0.14458-0.97592-0.1298-0.77369-0.43374-2.3132-0.43374-2.3132-1e-5 -1e-5 -5e-5 0-5e-5 0z" stroke="#000"/>
     <path d="m154.77 1007.2c-0.0431-2.2233-0.0194-4.4478-0.0767-6.6709-6e-3 -0.213 0.0167-0.43-0.0256-0.6389-0.0144-0.071-0.0292-0.1494-0.0767-0.2045-0.0573-0.066-0.14289-0.1178-0.23003-0.1278-0.12323-0.014-0.24284 0.056-0.35782 0.1022-0.38509 0.156-0.71338 0.4334-1.099 0.5879-0.29548 0.1184-0.60711 0.1977-0.92011 0.2556-0.35345 0.065-0.71408 0.108-1.0735 0.1022-0.40362-0.01-0.81288-0.043-1.2013-0.1533-0.4769-0.1351-0.92734-0.3622-1.3546-0.6134-0.53024-0.3118-1.0247-0.6881-1.4824-1.0991-0.6729-0.6042-1.303-1.2661-1.8402-1.9936-0.5738-0.77696-1.0367-1.6351-1.4569-2.5048-0.38613-0.79916-0.70225-1.6334-0.97124-2.4792-0.24736-0.77781-0.45611-1.5715-0.58785-2.377-0.0842-0.5146-0.12928-1.0376-0.1278-1.5591 1e-3 -0.48748 7e-3 -0.98452 0.1278-1.4569 0.0736-0.28833 0.15653-0.59872 0.35782-0.81788 0.22952-0.24989 0.57068-0.38455 0.89456-0.48563 0.30267-0.0945 0.62937-0.12398 0.94568-0.10223 0.24532 0.0169 0.49939 0.0619 0.71565 0.17891 0.27572 0.14919 0.54697 0.36005 0.69009 0.63897 0.21951 0.42778 0.1019 0.9567 0.17891 1.4313 0.12526 0.77185 0.27267 1.5411 0.46006 2.3003 0.20222 0.8192 0.43627 1.6319 0.71565 2.4281 0.20116 0.57326 0.42281 1.1413 0.69009 1.6869 0.25525 0.52098 0.5297 1.0374 0.86901 1.508 0.3 0.41607 0.63344 0.81569 1.0224 1.1502 0.30817 0.26502 0.64808 0.50605 1.0224 0.66453 0.28166 0.11927 0.59061 0.17018 0.89456 0.20447 0.25397 0.0287 0.51388 0.0371 0.76676 0 0.35202-0.0517 0.70616-0.1436 1.0224-0.30671 0.34532-0.17813 0.65103-0.43535 0.92012-0.71565 0.20302-0.21148 0.38023-0.45337 0.51118-0.71565 0.0758-0.15187 0.1216-0.31886 0.15335-0.48561 0.13581-0.71316 0.0928-1.4491 0.15335-2.1725 0.0664-0.79325 0.14929-1.585 0.23003-2.377 0.0487-0.47736 0.0584-0.96095 0.15336-1.4313 0.0528-0.26157 0.0693-0.55376 0.23003-0.76676 0.15232-0.20185 0.40067-0.32432 0.63897-0.40895 0.35552-0.12626 0.7475-0.13978 1.1246-0.12779 0.2422 8e-3 0.48456 0.0549 0.71565 0.12779 0.25081 0.0792 0.51928 0.15731 0.71565 0.33227 0.23128 0.20607 0.36573 0.5067 0.48562 0.79232 0.13595 0.3239 0.20911 0.67417 0.25559 1.0224 0.0552 0.41388 0.0444 0.83526 0.0256 1.2524-0.0174 0.38535-0.0596 0.77048-0.1278 1.1501-0.0808 0.44946-0.21414 0.88795-0.33226 1.3291-0.11231 0.41939-0.28284 0.82474-0.35783 1.2524-0.0428 0.24394-0.0351 0.49407-0.0511 0.74121-0.14568 2.2486-0.34075 4.4953-0.40894 6.7475-0.0315 1.039-0.0432 2.0797 0 3.1182 0.0426 1.025 0.17277 2.0445 0.25559 3.0671 0.0614 0.7581 0.2577 1.5182 0.17891 2.2747-0.0156 0.1502-0.0587 0.3003-0.12779 0.4345-0.11381 0.2213-0.26623 0.4319-0.46006 0.5879-0.19888 0.1601-0.45261 0.2386-0.69009 0.3323-0.2657 0.1048-0.53553 0.2125-0.81789 0.2555-0.30319 0.046-0.62829 0.094-0.92012 0-0.17999-0.058-0.33894-0.1869-0.46006-0.3322-0.12688-0.1522-0.20265-0.3458-0.25559-0.5368-0.14177-0.5114-0.12054-1.0549-0.15335-1.5846-0.058-0.9357-0.0585-1.8742-0.0767-2.8115z" stroke="#000"/>
   </g>
 </g>
</svg>
