<svg width="25" height="20"
     viewBox="0 0 25 25" xmlns="http://www.w3.org/2000/svg">
    <path d="M15,4.1
          c1,0.1,2.3,0,3,0.8
          c0.8,0.8,0.9,2.1,0.9,3.1
          C19,9.2,19,10.9,19,12
          c-0.1,1.1,0,2.4-0.5,3.4
          c-0.5,1.1-1.4,1.5-2.5,1.6
          c-1.2,0.1-8.6,0.1-11,0
          c-1.1-0.1-2.4-0.1-3.2-1
          c-0.7-0.8-0.7-2-0.8-3
          C1,11.8,1,10.1,1,8.9
          c0-1.1,0-2.4,0.5-3.4
          C2,4.5,3,4.3,4.1,4.2
          C5.3,4.1,12.6,4,15,4.1z
          M8,7.5v6l5.5-3L8,7.5z" opacity="0.6" stroke="black" stroke-width="0.5" fill="none"/>
    <circle fill="none" stroke="red" stroke-width="1" cx="10" cy="10.5" r="10"/>
    <line fill="none" stroke="red" stroke-width="1.0" x1="2.5" y1="16.5" x2="16.5" y2="3.5"/>
</svg>