<?xml version="1.0" encoding="UTF-8" standalone="no"?>
<svg
   xmlns:dc="http://purl.org/dc/elements/1.1/"
   xmlns:cc="http://creativecommons.org/ns#"
   xmlns:rdf="http://www.w3.org/1999/02/22-rdf-syntax-ns#"
   xmlns:svg="http://www.w3.org/2000/svg"
   xmlns="http://www.w3.org/2000/svg"
   xmlns:sodipodi="http://sodipodi.sourceforge.net/DTD/sodipodi-0.dtd"
   xmlns:inkscape="http://www.inkscape.org/namespaces/inkscape"
   version="1.0"
   width="1650.000000pt"
   height="1638.000000pt"
   viewBox="0 0 1650.000000 1638.000000"
   preserveAspectRatio="xMidYMid meet"
   id="svg2"
   inkscape:version="0.91 r13725"
   sodipodi:docname="Imago_escuadron.svg">
  <metadata
     id="metadata14">
    <rdf:RDF>
      <cc:Work
         rdf:about="">
        <dc:format>image/svg+xml</dc:format>
        <dc:type
           rdf:resource="http://purl.org/dc/dcmitype/StillImage" />
      </cc:Work>
    </rdf:RDF>
  </metadata>
  <defs
     id="defs12">
    <filter
       inkscape:collect="always"
       style="color-interpolation-filters:sRGB"
       id="filter4235-6"
       x="-0.0090325829"
       width="1.0180652"
       y="-0.017871067"
       height="1.035742">
      <feGaussianBlur
         inkscape:collect="always"
         stdDeviation="0.62233425"
         id="feGaussianBlur4237-4" />
    </filter>
  </defs>
  <sodipodi:namedview
     pagecolor="#ffffff"
     bordercolor="#666666"
     borderopacity="1"
     objecttolerance="10"
     gridtolerance="10"
     guidetolerance="10"
     inkscape:pageopacity="0"
     inkscape:pageshadow="2"
     inkscape:window-width="1309"
     inkscape:window-height="744"
     id="namedview10"
     showgrid="false"
     inkscape:zoom="0.11526252"
     inkscape:cx="1819.169"
     inkscape:cy="1102.7935"
     inkscape:window-x="57"
     inkscape:window-y="24"
     inkscape:window-maximized="1"
     inkscape:current-layer="svg2" />
  <g
     id="g4180"
     transform="translate(1686.5848,104.11017)">
    <path
       id="path4334"
       transform="scale(0.8,0.8)"
       d="m -411.64258,-75.292969 c -1.25816,-0.01252 -2.51556,-0.0045 -3.77148,0.02344 -23.194,0.5159 -45.64572,9.338143 -67.52735,17.191406 -27.138,9.739762 -53.97543,21.315156 -78.36718,36.863281 -9.68513,6.173438 -26.5293,22.11523463 -26.5293,22.11523462 -18.7705,17.62167438 -45.77866,45.45974238 -65.11328,71.24609338 -14.35338,19.143088 -37.3711,61.419924 -37.3711,61.419924 -31.173,11.00501 -53.83146,21.09845 -81.99609,29.48047 -40.42525,12.02987 -78.28811,31.97122 -115.74023,51.59374 -43.27538,22.67443 -85.35305,47.99057 -125.40431,76.1504 -48.9745,34.43357 -96.4675,71.54434 -139.8555,113.0332 -40.2542,38.49177 -77.3133,80.67105 -110.9355,125.2832 -33.2676,44.14028 -63.5938,90.89885 -89.2129,140.05078 -26.6111,51.05599 -48.3296,104.88325 -66.3867,159.68555 -16.7918,50.96221 -28.781,103.58786 -38.7188,156.38281 -7.5186,39.94354 -13.7088,74.29824 -15.7422,120.95114 -0.3018,6.9068 8.4742,27.4456 -9.3808,24.4239 l -43.4082,2.9004 c 0,0 -1.8158,-42.4486 -19.1426,-70.5215 -16.1069,-26.0964 -40.0296,-52.0368 -61.2773,-73.86136 -26.7513,-27.47786 -61.7421,-44.62331 -96.2578,-59.74023 -17.1037,-7.49009 -35.523,-11.93152 -53.9102,-14.90235 -19.6594,-3.17595 -39.7875,-4.42135 -59.6445,-3.01562 -32.0773,2.27226 -64.5186,7.22136 -94.7383,18.41406 -22.9441,8.49731 -44.307,21.61272 -63.9746,36.34766 -18.0657,13.5353 -34.1836,29.84408 -48.7832,47.18554 -17.2527,20.4918 -33.7585,42.2634 -45.3282,66.5527 -10.4822,22.0062 -15.8516,46.2861 -21.0781,70.1602 -4.8761,22.2739 -9.6674,44.9533 -9.4941,67.7734 0.1837,24.2892 5.007,48.3614 11.2031,71.9727 4.9434,18.837 13.7226,44.298 24.25,64.7598 10.2469,19.9155 22.7289,38.8825 37.4473,55.6386 16.0746,18.3005 34.4565,34.8897 54.7636,48.1211 22.8372,14.8786 48.5411,24.8559 74.0391,34.2305 20.1008,7.3895 40.6529,14.4492 61.8496,17.209 23.0278,2.9981 46.6155,2.2035 69.6328,-0.877 26.8453,-3.5892 53.7527,-9.7323 78.7305,-20.3789 20.4892,-8.7326 39.2277,-21.5682 57.0234,-35.1074 16.8134,-12.7908 32.6604,-27.1505 46.5254,-43.1973 10.1135,-11.7046 17.8093,-25.3711 26.375,-38.2949 5.9324,-8.9506 17.3184,-35.9915 17.3184,-27.1719 l 86.9707,2.1563 c 0,0 29.4663,101.9716 51.6328,149.8594 25.0307,54.0746 53.9529,107.1958 91.0723,153.5019 46.945,58.5616 102.4486,111.0373 163.6875,153.752 51.1408,35.671 105.8648,65.2443 166.95309,83.3808 59.7355,17.7339 135.99231,31.4741 205.97656,35.2813 58.65363,3.1895 122.69011,-8.7925 183.11523,-19.8067 40.71575,-7.4211 82.19663,-14.6789 120.29688,-31.082 62.94225,-27.0964 121.86897,-65.121 174.60547,-109.3887 42.14887,-35.3813 78.09929,-78.3801 110.93555,-122.8398 28.44875,-38.5191 53.15365,-80.1695 73.7539,-123.5664 8.18738,-17.2476 17.873501,-34.8229 19.578126,-53.9024 1.21875,-13.6416 -0.56739,-28.404 -6.93164,-40.4687 -5.147496,-9.7576 -15.736016,-16.9971 -23.697266,-22.8399 -44.8585,-32.9245 -171.85317,-79.0801 -134.04492,-78.9179 39.42225,0.1667 75.45872,3.5644 112.33984,-4.045 11.2195,-2.3152 29.49024,-17.916 29.49024,-17.916 14.31275,-16.6526 27.318434,-28.105 38.585934,-45.6601 10.9795,-17.1069 8.794859,-37.0525 8.943359,-55.9434 0.496375,-63.1444 -12.727937,-125.9647 -26.945312,-187.4277 -8.859251,-38.29932 -20.403201,-76.23773 -36.173831,-112.15627 -20.11212,-45.80694 -44.77625,-89.89323 -73.90625,-130.35742 -20.44675,-28.40208 -47.92018,-52.19455 -70.07031,-77.90625 -38.10575,-44.23209 -91.1515,-75.9464 -142.41992,-104.77148 -43.96363,-24.71805 -91.29578,-43.84951 -139.72266,-57.375 -46.08087,-12.87092 -94.02694,-18.55145 -141.67969,-22.11524 -26.79587,-2.0037 -80.60937,0.45898 -80.60937,0.45898 -27.43275,10.47252 49.84114,-28.81466 76.60351,-38.88671 24.827,-9.34332 77.01954,-19.67188 77.01954,-19.67188 6.29187,-1.58164 17.12853,-1.46784 23.5664,-0.70703 0,0 43.41185,18.10602 65.94922,24.55859 19.96063,5.71588 40.43502,9.70201 60.99414,12.43946 19.16613,2.55167 38.63003,5.47722 57.87891,3.68164 26.40355,-2.46173 52.46712,-9.84498 77.17187,-19.65235 24.29838,-9.64618 49.11291,-20.57059 68.72266,-38.08398 11.74537,-10.49018 20.9438,-24.18213 27.5918,-38.58203 7.69462,-16.66821 13.868,-35.12608 13.40625,-53.53906 -0.623,-24.85879 -8.29983,-48.09403 -21.70508,-71.26563 -2.61338,-4.51722 -9.74761,-4.58305 -9.64649,-9.82617 0,0 22.93197,-23.50438 30.13672,-38.06641 8.60088,-17.38243 14.264,-37.05042 14.46875,-56.51562 0.1865,-17.67845 -5.98959,-35.03156 -12.05859,-51.59375 -3.64688,-9.9518 -7.62738,-20.243691 -14.46875,-28.259766 -6.80563,-7.9745 -16.23738,-13.295497 -25.3125,-18.41211 -6.46538,-3.644887 -20.91839,-2.932242 -20.50977,-8.605468 1.94488,-26.999013 -6.01953,-56.5156253 -6.01953,-56.5156252 -4.37825,-10.2067378 -10.80609,-22.9136318 -19.29297,-31.9414068 -11.41175,-12.138737 -25.78979,-21.725084 -40.99804,-28.240234 -17.37024,-7.441336 -36.43027,-12.122703 -55.30274,-12.310547 z m 0.41992,69.8964846 c 3.65323,0.012091 7.28364,0.35795 10.88477,1.1269532 12.03455,2.570625 23.62391,10.6134409 30.70703,20.8535152 5.39975,7.806775 6.44216,18.257982 6.81641,27.800782 0.55237,14.078588 -0.27691,29.276281 -6.81641,41.691406 -11.02875,20.939458 -51.1582,48.636718 -51.1582,48.636718 0,0 45.12294,-13.26918 68.21094,-17.36328 5.62787,-0.99769 11.33878,-1.68758 17.05078,-1.73633 6.844,-0.0588 14.24425,-1.19758 20.45312,1.73633 7.29213,3.44569 12.69891,10.47777 17.05078,17.36328 5.25825,8.31994 9.90958,17.909 10.23633,27.79883 0.39938,12.08479 -1.36183,26.71756 -10.23633,34.74609 -36.50225,33.02199 -88.66015,69.49219 -88.66015,69.49219 0,0 40.65311,6.88704 57.97461,17.36328 8.2945,5.01656 15.50492,12.41853 20.45117,20.85547 6.08587,10.38091 11.63525,22.73705 10.23437,34.74414 -1.864,15.97734 -12.62626,30.39187 -23.86914,41.69141 -10.69037,10.74422 -25.28451,16.87334 -39.21289,22.59179 -19.05187,7.82197 -39.22634,13.74202 -59.68359,15.62696 -15.89038,1.46415 -31.87341,-1.74301 -47.73828,-3.47266 -15.98513,-1.74282 -32.29007,-2.48162 -47.75782,-6.94531 -27.43125,-7.91594 -50.1559,-30.9842 -78.42578,-34.7461 -18.81112,-2.50333 -37.74853,4.57056 -56.28515,8.68164 -20.21625,4.48348 -39.9426,11.07384 -59.6836,17.38282 -21.78125,6.96112 -43.66501,13.76085 -64.79101,22.57226 -29.17338,12.16808 -58.04897,25.49706 -85.26172,41.70899 -23.957,14.27238 -45.7572,31.98969 -68.18946,48.63672 -38.04112,28.23071 -78.44552,53.81425 -112.55082,86.85547 -26.8966,26.05722 -102.6954,107.52944 -71.6074,86.87304 78.4376,-52.11782 50.6641,-37.58992 78.4258,-52.1289 32.0114,-16.76444 65.88814,-30.27035 100.60352,-39.95313 37.22212,-10.3819 75.93801,-14.45781 114.25976,-19.09961 30.56188,-3.70187 61.30138,-7.05282 92.07813,-6.96484 28.51,0.0884 57.15177,2.01018 85.24414,6.96484 30.16025,5.31935 59.82944,13.89088 88.67969,24.3086 31.65812,11.43155 62.02137,26.43539 92.07812,41.70898 20.9465,10.64417 41.55192,22.04084 61.37305,34.72656 20.03055,12.81961 40.16798,25.8462 57.97461,41.71094 16.34887,14.56584 30.09547,31.93387 44.33984,48.63672 15.37075,18.02351 31.13872,35.87185 44.33985,55.59961 16.91787,25.282 30.92764,52.52338 44.32226,79.91015 12.71538,25.99782 24.64439,52.50664 34.10352,79.90821 8.6005,24.91415 14.51495,50.73365 20.4707,76.43745 6.65888,28.7383 14.19686,57.4893 17.05273,86.8731 2.46426,25.3561 0,76.4375 0,76.4375 0,0 -18.02896,34.7411 -34.10546,34.7441 -333.99668,0.069 -717.53058,2.7008 -985.58006,3.4727 0,0 3.7728,30.2504 6.8164,45.1641 4.5462,22.2788 9.1747,44.7276 17.0527,66.0195 11.6558,31.503 26.7655,61.8342 44.3399,90.3457 16.8091,27.2687 35.3033,54.0015 57.9746,76.4375 22.1822,21.9514 48.28974,39.7481 75.02536,55.5801 33.43038,19.7965 68.30885,38.677 105.71485,48.6562 37.53487,10.0138 77.19551,12.3985 115.94726,10.418 48.54163,-2.4801 97.56945,-10.8512 143.23633,-27.8008 30.60462,-11.3589 58.55597,-29.6375 85.26172,-48.6367 25.779,-18.3388 50.28187,-39.0079 71.60937,-62.5449 20.97638,-23.1492 38.04135,-49.8124 54.57422,-76.4375 15.23025,-24.5277 40.92188,-76.4356 40.92188,-76.4356 57.21912,33.3583 104.64386,60.3965 180.74023,97.2715 4.10625,1.99 -12.37101,23.3499 -13.63476,27.8008 0,0 -16.94574,35.4958 -27.28711,52.1289 -14.78263,23.7745 -32.45489,45.565 -49.44727,67.7539 -19.87675,25.9559 -38.5708,53.1114 -61.37305,76.4375 -20.79887,21.2774 -44.38731,39.635 -68.21093,57.3164 -27.27268,20.2399 -54.7866,40.8471 -85.26172,55.6016 -42.69588,20.6725 -88.57711,34.6498 -134.70899,45.164 -31.85425,7.2598 -64.60687,10.1439 -97.1875,12.1739 -41.98225,2.6175 -84.33734,4.3217 -126.18359,0 -47.91012,-4.9474 -95.70772,-14.4429 -141.52734,-29.5372 -42.11786,-13.8741 -83.07656,-32.4716 -121.07616,-55.6015 -28.8875,-17.5833 -54.3284,-40.5445 -80.1348,-62.5469 -27.1516,-23.1487 -54.5353,-46.358 -78.4433,-72.9629 -18.3473,-20.4166 -34.4754,-42.9192 -49.4493,-66.0176 -21.6028,-33.3228 -41.8073,-67.8381 -57.9746,-104.2187 -11.4176,-25.6931 -19.5992,-52.8346 -27.2871,-79.9277 -9.0747,-31.9825 -22.1601,-97.2735 -22.1601,-97.2735 -0.2187,-5.1749 -8.5511,-6.9551 -13.6348,-6.9648 -64.2747,-0.1063 -112.1972,-0.6876 -175.6309,-3.4727 0,0 7.3939,-113.6093 6.8164,-71.2265 l 121.0567,-1.7364 c 0,0 45.2245,4.7338 49.4473,-1.7363 0,0 -2.7034,-45.188 -1.6895,-67.7559 0.8899,-19.8043 4.0794,-39.4272 6.8164,-59.0546 4.3769,-31.3865 8.5638,-62.8781 15.3438,-93.81841 8.2338,-37.57446 18.7593,-74.65048 30.6875,-111.18164 13.4608,-41.22561 27.5729,-82.46168 46.0488,-121.61914 20.5266,-43.50394 44.6748,-85.36369 71.6094,-125.07422 30.7837,-45.38592 66.0671,-87.57778 102.3125,-128.56445 22.598,-25.55409 46.0541,-50.48622 71.6093,-72.96289 37.5174,-32.99815 78.03322,-62.46228 119.36722,-90.32813 31.868,-21.48451 64.57711,-41.95021 98.89649,-59.07226 16.4935,-8.22882 34.09112,-13.94133 51.15625,-20.85547 24.42112,-9.89444 48.84598,-19.75517 73.31836,-29.51758 27.81525,-11.09601 60.25723,-13.95983 83.55273,-33.00977 3.1965,-2.61395 4.71569,-6.86371 6.83594,-10.4375 7.36787,-12.41943 12.92129,-25.89858 20.45117,-38.21679 12.50512,-20.45721 24.24212,-41.965891 40.92187,-59.054691 13.79063,-14.129175 31.18379,-24.135468 47.73829,-34.746093 21.96237,-14.0768 43.73843,-29.433701 68.21093,-38.2187504 13.8815,-4.9832125 28.75911,-10.6692968 43.42774,-11.4667968 1.22237,-0.06645 2.44241,-0.099733 3.66015,-0.095703 z M -1768.3711,1004.8691 a 101.28139,105.64478 0 0 1 101.2813,105.6446 101.28139,105.64478 0 0 1 -101.2813,105.6445 101.28139,105.64478 0 0 1 -101.2812,-105.6445 101.28139,105.64478 0 0 1 101.2812,-105.6446 z m 1391.42969,320.1621 c 0,0 -10.8727,19.6888 -16.50195,29.4239 -7.62392,13.1837 -15.06316,26.5157 -23.39453,39.248 -11.65013,17.802 -24.50628,34.7524 -37.14453,51.8418 -9.438,12.7615 -20.42539,26.66 -31.63477,37.836 -15.92675,15.879 -31.8582,28.8373 -50.89258,40.6425 -18.74175,11.6244 -39.07239,20.4266 -59.15039,29.4414 -17.14087,7.6974 -34.07976,16.4105 -52.25976,21.0079 -24.17838,6.1156 -49.38478,7.6335 -74.28516,8.414 -27.9895,0.8788 -56.23669,0.1474 -83.91406,-4.1972 -19.67563,-3.0842 -39.186,-8.136 -57.76563,-15.418 -13.01512,-5.1015 -25.1797,-12.3148 -37.14257,-19.6153 -16.69238,-10.1882 -33.17168,-20.9699 -48.13868,-33.6386 -12.469,-10.5548 -23.95417,-22.3909 -34.38867,-35.0313 -9.744,-11.8022 -16.15547,-22.3625 -24.76171,-35.0508 -8.8206,-13.004 -21.3464,-29.6111 -28.8828,-43.4277 -4.387,-8.044 -6.4508,-15.2184 -9.6289,-23.832 -4.8989,-13.2774 -12.3789,-40.6406 -12.3789,-40.6406 179.40109,-0.098 458.81229,-5.1537 682.26559,-7.004 z"
       style="opacity:1;fill:#ffffff;fill-opacity:1;fill-rule:evenodd;stroke:none;stroke-width:1px;stroke-linecap:butt;stroke-linejoin:miter;stroke-opacity:1"
       inkscape:connector-curvature="0" />
    <path
       transform="matrix(7.7780101,0,0,7.8153858,670.87247,-5385.3173)"
       inkscape:connector-curvature="0"
       id="path4233-3"
       d="m -162.11782,768.80553 c -1.55533,-0.0149 -3.11585,0.0468 -4.68946,0.17969 -3.32486,0.28078 -6.66462,0.8627 -9.82226,1.95508 -3.46415,1.19841 -6.85294,2.81043 -9.82227,4.98047 -3.08524,2.25474 -5.75528,5.11723 -8.0664,8.17969 -2.49849,3.31072 -4.45721,7.04344 -6.13868,10.84765 -1.1341,2.56584 -1.96241,5.27313 -2.63086,8.00196 -0.60003,2.44953 -1.22851,7.46875 -1.22851,7.46875 11.84466,-0.0608 18.13112,-0.48393 26.6582,-0.35547 2.28646,0.0344 4.58669,-0.13748 6.83985,-0.5332 2.6271,-0.46141 5.22314,-1.17796 7.71679,-2.13477 3.83909,-1.47306 7.28986,-3.8442 11.05078,-5.51172 2.98423,-1.32315 5.99099,-2.63672 9.11914,-3.55664 1.43148,-0.42096 2.89435,-0.90315 4.38477,-0.89063 5.82418,0.0489 9.05797,-0.17032 15.43359,0.17969 0,0 -2.23694,-5.03284 -3.50781,-7.4707 -1.1386,-2.18415 -2.11161,-4.51287 -3.68359,-6.40039 -2.99899,-3.60098 -6.79536,-6.50888 -10.69727,-9.07032 -2.01919,-1.32551 -4.25926,-2.28925 -6.49023,-3.20117 -2.10905,-0.86208 -4.42314,-1.56341 -6.66407,-1.95508 -2.5935,-0.45328 -5.16951,-0.68802 -7.76171,-0.71289 z m -0.0234,6.69532 c 1.05335,-0.0154 2.10583,-10e-4 3.15429,0.0898 1.71411,0.14873 3.43389,0.40197 5.08594,0.88867 2.18944,0.64501 4.25856,1.66852 6.31446,2.66797 1.32104,0.6422 2.64745,1.29528 3.85742,2.13281 1.57641,1.0912 3.05133,2.34957 4.38476,3.73438 0.52302,0.5431 0.94063,1.18329 1.4043,1.77929 0.82564,1.0612 2.45508,3.20118 2.45508,3.20118 0,0 -2.93616,-0.0281 -4.38477,0.17773 -1.96597,0.2787 -3.87059,0.90478 -5.78906,1.42188 -2.23511,0.6024 -4.48451,1.17283 -6.66406,1.95703 -1.55538,0.5597 -3.04643,1.28468 -4.5586,1.95508 -1.82196,0.8078 -3.6271,1.65623 -5.4375,2.49023 -2.04827,0.9437 -4.08151,1.92211 -6.13867,2.84571 -0.81421,0.36559 -1.56509,1.0372 -2.45508,1.0664 -9.27036,0.3039 -16.13949,1.19856 -26.6582,1.60156 0,0 2.87325,-6.84062 4.56055,-10.13672 1.27949,-2.4995 2.41924,-5.13761 4.20898,-7.29101 1.87153,-2.25189 4.27979,-4.00994 6.66406,-5.69141 1.65492,-1.1671 3.39578,-2.24998 5.26172,-3.02344 1.68014,-0.69644 3.46923,-1.1322 5.26172,-1.42187 2.08157,-0.33638 4.20547,-0.29618 6.3125,-0.35547 1.05189,-0.0296 2.1068,-0.0745 3.16016,-0.0898 z"
       style="fill:#ffffff;fill-rule:evenodd;stroke:none;stroke-width:1px;stroke-linecap:butt;stroke-linejoin:miter;stroke-opacity:1;filter:url(#filter4235-6)" />
  </g>
</svg>
