<?xml version="1.0" encoding="UTF-8" standalone="no"?>
<!-- Created with Inkscape (http://www.inkscape.org/) -->

<svg
   xmlns:osb="http://www.openswatchbook.org/uri/2009/osb"
   xmlns:dc="http://purl.org/dc/elements/1.1/"
   xmlns:cc="http://creativecommons.org/ns#"
   xmlns:rdf="http://www.w3.org/1999/02/22-rdf-syntax-ns#"
   xmlns:svg="http://www.w3.org/2000/svg"
   xmlns="http://www.w3.org/2000/svg"
   xmlns:xlink="http://www.w3.org/1999/xlink"
   xmlns:sodipodi="http://sodipodi.sourceforge.net/DTD/sodipodi-0.dtd"
   xmlns:inkscape="http://www.inkscape.org/namespaces/inkscape"
   width="360"
   height="520"
   viewBox="0 0 360 520.00001"
   id="svg2"
   version="1.1"
   inkscape:version="0.91 r13725"
   sodipodi:docname="juan.svg">
  <defs
     id="defs4">
    <linearGradient
       osb:paint="solid"
       id="linearGradient4370">
      <stop
         id="stop4372"
         offset="0"
         style="stop-color:#00ff00;stop-opacity:1;" />
    </linearGradient>
    <linearGradient
       osb:paint="solid"
       id="linearGradient4340">
      <stop
         id="stop4342"
         offset="0"
         style="stop-color:#000000;stop-opacity:1;" />
    </linearGradient>
    <linearGradient
       gradientTransform="translate(-612.06235,27.338687)"
       gradientUnits="userSpaceOnUse"
       y2="424.15524"
       x2="532.65387"
       y1="424.15524"
       x1="212.34393"
       id="linearGradient4206"
       xlink:href="#linearGradient4340"
       inkscape:collect="always" />
    <linearGradient
       gradientTransform="translate(-616.21335,22.142137)"
       gradientUnits="userSpaceOnUse"
       y2="462.9382"
       x2="520.22345"
       y1="462.9382"
       x1="465.18033"
       id="linearGradient4285"
       xlink:href="#linearGradient4340"
       inkscape:collect="always" />
    <linearGradient
       gradientTransform="matrix(1.1972033,0,0,1.1424547,-675.26908,-23.997145)"
       gradientUnits="userSpaceOnUse"
       y2="356.3671"
       x2="304.05591"
       y1="356.3671"
       x1="243.44678"
       id="linearGradient4326"
       xlink:href="#linearGradient4340"
       inkscape:collect="always" />
    <linearGradient
       gradientTransform="matrix(1.1434256,0,0,1.0828542,-75.101052,-29.320217)"
       gradientUnits="userSpaceOnUse"
       y2="347.78079"
       x2="516.18793"
       y1="347.78079"
       x1="460.62955"
       id="linearGradient4344"
       xlink:href="#linearGradient4340"
       inkscape:collect="always" />
  </defs>
  <sodipodi:namedview
     id="base"
     pagecolor="#ffffff"
     bordercolor="#666666"
     borderopacity="1.0"
     inkscape:pageopacity="0.0"
     inkscape:pageshadow="2"
     inkscape:zoom="0.35"
     inkscape:cx="325"
     inkscape:cy="520"
     inkscape:document-units="px"
     inkscape:current-layer="layer1"
     showgrid="false"
     inkscape:window-width="1309"
     inkscape:window-height="744"
     inkscape:window-x="57"
     inkscape:window-y="24"
     inkscape:window-maximized="1"
     units="px" />
  <metadata
     id="metadata7">
    <rdf:RDF>
      <cc:Work
         rdf:about="">
        <dc:format>image/svg+xml</dc:format>
        <dc:type
           rdf:resource="http://purl.org/dc/dcmitype/StillImage" />
        <dc:title></dc:title>
      </cc:Work>
    </rdf:RDF>
  </metadata>
  <g
     inkscape:label="Capa 1"
     inkscape:groupmode="layer"
     id="layer1"
     transform="translate(0,-532.36211)">
    <g
       transform="translate(-23.517962,-210.5581)"
       id="layer1-3"
       inkscape:label="Capa 1">
      <g
         transform="translate(442.3656,549.46207)"
         id="g4455">
        <path
           style="opacity:1;fill:#b3c618;fill-opacity:1;fill-rule:nonzero;stroke:#000000;stroke-width:4;stroke-miterlimit:4;stroke-dasharray:none;stroke-opacity:1"
           d="m -310.13713,500.96992 c 0.14715,14.086 -11.17413,19.46111 -33.58758,19.95051 -18.364,0.40098 -29.70869,-10.82893 -32.07234,-19.44543 -2.89559,-10.55564 11.27468,-25.40984 19.95051,-13.38453 8.39073,11.63014 45.55064,-2.31869 45.70941,12.87945 z"
           id="path4276"
           inkscape:connector-curvature="0"
           sodipodi:nodetypes="sssss" />
        <path
           style="opacity:1;fill:#b3c618;fill-opacity:1;fill-rule:nonzero;stroke:url(#linearGradient4285);stroke-width:4;stroke-miterlimit:4;stroke-dasharray:none;stroke-opacity:1"
           d="m -106.08632,483.56511 c -3.153,6.27109 -5.16974,13.88994 -25.00128,21.71828 -22.68084,8.95308 -38.6757,-34.31642 -19.44543,-20.20305 16.19942,11.88898 28.59699,-17.66486 33.0825,-19.69797 11.56512,-5.24203 14.17984,12.58265 11.36421,18.18274 z"
           id="path4279"
           inkscape:connector-curvature="0"
           sodipodi:nodetypes="sssss" />
        <path
           style="fill:#b3c618;fill-opacity:1;fill-rule:evenodd;stroke:url(#linearGradient4206);stroke-width:4;stroke-linecap:butt;stroke-linejoin:miter;stroke-miterlimit:4;stroke-dasharray:none;stroke-opacity:1"
           d="m -260.17203,608.73407 c 0.86465,6.50916 38.09972,3.31739 51.68112,1.68111 7.7066,-0.92849 -1.2282,56.524 2.8571,57.14286 8.8797,1.34513 19.6173,5.46494 28.5715,2.14285 3.4725,-1.28837 7.6523,-4.15892 7.8571,-7.85714 0.2529,-4.56666 -4.6645,-8.33647 -8.5714,-10.71428 -3.1113,-1.89353 -10.7143,-2.14286 -10.7143,-2.14286 -0.3696,-13.69946 2.3386,-31.43812 5.7143,-40.71429 0.5125,-1.40831 25.016,4.25782 36.4285,-2.85714 5.2881,-3.29676 12.6006,-6.90196 12.0562,-13.10968 -3.0001,-34.21291 -2.9817,-60.57805 -7.7704,-90.46175 -4.2583,-26.57311 -9.221,-50.63562 -18.5715,-78.57143 -2.1965,-6.56254 18.1065,8.43196 27.8572,9.28572 6.4739,0.56685 13.1994,-0.57879 19.2857,-2.85715 6.6185,-2.47761 12.8135,-6.47832 17.857096,-11.42857 4.2887,-4.20929 7.6415,-9.47295 10,-15 3.4463,-8.07594 5.7143,-25.71428 5.7143,-25.71428 0,0 -1.3483,-14.76279 -4.2857,-21.42857 -3.5719,-8.10553 -8.8807,-15.79299 -15.7143,-21.42858 -7.312996,-6.03095 -16.400996,-10.37773 -25.714296,-12.14285 -7.0335,-1.33304 -14.7635,-1.18377 -21.4285,1.42857 -5.9894,2.34751 -10.6249,7.42677 -15,12.14286 -2.5604,2.75988 -3.9396,12.11011 -6.4286,9.28571 0,0 -8.187,-12.88448 -14.2857,-17.14286 -5.8043,-4.05271 -20,-7.14285 -20,-7.14285 2.5514,-6.1637 8.6695,-10.35494 11.4285,-16.42858 2.0301,-4.46898 3.2756,-9.38618 3.5715,-14.28571 0.4628,-7.66438 -0.5289,-15.54031 -2.8572,-22.85713 -2.2933,-7.20696 -5.5754,-14.45098 -10.7143,-20.00001 -6.9111,-7.46281 -15.9904,-13.44437 -25.7142,-16.42858 -8.425,-2.58558 -17.8384,-2.68199 -26.42861,-0.71428 -7.63828,1.74965 -14.80774,5.84813 -20.88017,10.80094 -7.56304,6.16858 -14.30979,13.91183 -18.40554,22.7705 -2.44032,5.27813 -3.30614,11.32835 -3.23223,17.14284 0.10833,8.52308 1.65899,17.32894 5.37508,25.00001 3.0967,6.39249 8.80485,11.16233 13.57143,16.42856 0,0 -13.39383,3.57067 -18.57142,7.85715 -4.62881,3.83214 -10.00001,15 -10.00001,15 -4.5248,-4.82601 -10.94385,-7.68992 -17.14286,-10 -7.26384,-2.70689 -15.10959,-4.5428 -22.85714,-4.28571 -8.5997,0.28537 -17.42079,2.35526 -25,6.42857 -8.76093,4.70839 -17.02423,11.47225 -22.14286,20 -4.54698,7.57537 -6.27888,16.88032 -6.42857,25.71428 -0.17326,10.22555 1.73754,20.91231 6.42857,30 3.55568,6.88824 9.29766,12.79343 15.71429,17.14286 6.11282,4.1435 13.37231,7.06309 20.71429,7.85714 6.46106,0.69877 12.93341,-1.48533 19.28571,-2.85714 5.0829,-1.09768 15.32888,-9.47537 15,-4.28571 -3.11837,49.20664 -8.24822,102.2533 -10,152.85714 -0.22664,6.54695 1.61334,14.12987 6.42857,18.57143 5.60313,5.16832 14.58079,4.75426 22.14286,5.71428 6.37738,0.80962 19.1413,-6.42695 19.28571,0 0.3293,14.65542 2.85715,39.28572 2.85715,39.28572 0.39383,5.41511 -10.25317,5.23578 -12.85715,10 -1.26129,2.30765 -1.99408,5.55971 -0.71428,7.85714 1.81362,3.25572 6.27604,5.14501 10,5 9.01461,-0.35101 23.24828,1.56618 22.85714,-5.71429 -0.96846,-18.02687 1.07743,-62.08634 1.89032,-55.96682 z"
           id="path4200"
           inkscape:connector-curvature="0"
           sodipodi:nodetypes="sssaaassssasaaaacaaaaasasaaaaaaaaaasasaaaaaaaaassaassaasss" />
        <g
           id="g4315"
           transform="translate(-424.14286,4)">
          <ellipse
             ry="33.901161"
             rx="36.401161"
             cy="276.5051"
             cx="181.92856"
             id="path4290"
             style="opacity:1;fill:#ffffff;fill-opacity:1;fill-rule:nonzero;stroke:#000000;stroke-width:4.76910543;stroke-miterlimit:4;stroke-dasharray:none;stroke-opacity:1" />
          <ellipse
             ry="13.678572"
             rx="11.535713"
             cy="276.21936"
             cx="180.28568"
             id="path4292"
             style="opacity:1;fill:#000000;fill-opacity:1;fill-rule:nonzero;stroke:#000000;stroke-width:5.21428728;stroke-miterlimit:4;stroke-dasharray:none;stroke-opacity:1" />
          <circle
             r="1"
             cy="276.27045"
             cx="179.80605"
             id="path4292-3"
             style="opacity:1;fill:#ffffff;fill-opacity:1;fill-rule:nonzero;stroke:none;stroke-width:3.32636046;stroke-miterlimit:4;stroke-dasharray:none;stroke-opacity:1" />
        </g>
        <ellipse
           style="opacity:1;fill:#ffffff;fill-opacity:1;fill-rule:nonzero;stroke:url(#linearGradient4326);stroke-width:4;stroke-miterlimit:4;stroke-dasharray:none;stroke-opacity:1"
           id="path4320"
           cx="-347.53308"
           cy="383.13614"
           rx="36.280739"
           ry="35.775661" />
        <ellipse
           style="opacity:1;fill:#000000;fill-opacity:1;fill-rule:nonzero;stroke:none;stroke-width:4;stroke-miterlimit:4;stroke-dasharray:none;stroke-opacity:1"
           id="path4330"
           cx="-347.02798"
           cy="381.11584"
           rx="13.63706"
           ry="13.637059" />
        <g
           id="g4363"
           transform="translate(-612.11183,26.284271)">
          <ellipse
             ry="32.268517"
             rx="31.763437"
             cy="347.27573"
             cx="483.358"
             id="path4338"
             style="opacity:1;fill:#ffffff;fill-opacity:1;fill-rule:nonzero;stroke:url(#linearGradient4344);stroke-width:4;stroke-miterlimit:4;stroke-dasharray:none;stroke-opacity:1" />
          <circle
             r="13.131983"
             cy="347.27573"
             cx="483.86307"
             id="path4346"
             style="opacity:1;fill:#000000;fill-opacity:1;fill-rule:nonzero;stroke:none;stroke-width:4;stroke-miterlimit:4;stroke-dasharray:none;stroke-opacity:1" />
          <circle
             r="1"
             cy="349.46863"
             cx="487.71078"
             id="path4346-6"
             style="opacity:1;fill:#ffffff;fill-opacity:1;fill-rule:nonzero;stroke:none;stroke-width:4;stroke-miterlimit:4;stroke-dasharray:none;stroke-opacity:1" />
        </g>
        <g
           id="g4450"
           transform="translate(-410.12193,60.446712)">
          <path
             sodipodi:nodetypes="csssc"
             inkscape:connector-curvature="0"
             id="path4383"
             d="m 220.48739,383.25655 c -6.33758,35.2252 -33.46698,42.84326 -61.18356,36.52071 -26.72338,-6.09599 -41.82687,-40.28977 -33.5478,-74.74482 7.449,-31.00054 35.07324,-47.3118 61.16184,-36.56996 26.08861,10.74184 41.0115,44.53077 33.33516,75.47858"
             style="opacity:1;fill:#323333;fill-opacity:1;fill-rule:nonzero;stroke:#000000;stroke-width:4;stroke-linecap:butt;stroke-linejoin:round;stroke-miterlimit:4;stroke-dasharray:none;stroke-opacity:1" />
          <path
             sodipodi:nodetypes="saaassssssssaaaasss"
             inkscape:connector-curvature="0"
             id="path4377"
             d="m 138.85443,404.76838 c 1.66295,-2.98147 4.48254,-7.18065 8.21428,-8.21428 2.83821,-0.78614 6.14168,0.47858 8.57143,2.14285 2.04376,1.39988 3.58013,3.69682 4.28571,6.07143 1.12932,3.80068 0.85941,6.19266 -0.44007,11.88661 -0.94433,4.13776 0.76451,-4.644 5.40046,-10.81518 2.00674,-2.67129 4.70394,-3.09343 5.79722,-3.06635 3.99564,0.099 5.90334,0.9253 7.81382,2.70921 3.68751,3.44322 3.71821,9.86012 5.00001,14.28571 1.52268,5.25728 -1.80687,-10.83587 3.27927,-14.6608 2.05391,-1.5446 4.00866,-2.48712 6.23731,-2.41706 3.16366,0.0995 5.54445,1.15306 9.30366,4.22072 0.55341,0.4516 1.15685,1.59992 1.13643,2.52167 -0.0176,0.79195 -0.57115,1.50702 -1.07143,2.12119 -1.81289,2.2256 -4.1914,4.04098 -6.74239,5.35714 -4.95551,2.55676 -10.50328,4.34311 -16.07143,4.64286 -6.87939,0.37033 -13.52759,-1.27881 -20.35714,-3.57143 -5.67106,-1.90373 -11.33654,-4.64091 -15.98849,-8.40184 0,0 -5.40113,-2.96134 -4.36865,-4.81245 z"
             style="fill:#ffffff;fill-opacity:1;fill-rule:evenodd;stroke:#000000;stroke-width:4;stroke-linecap:butt;stroke-linejoin:miter;stroke-miterlimit:4;stroke-dasharray:none;stroke-opacity:1" />
          <path
             sodipodi:nodetypes="ssaaaaaaaaasaaaaaasssaaas"
             inkscape:connector-curvature="0"
             id="path4379"
             d="m 141.35715,320.39791 c 5.0679,-4.65043 8.02831,-6.69187 11.78571,-9.28571 2.19342,-1.51419 4.75526,-2.49409 7.32142,-3.21428 3.87423,-1.0873 7.94126,-1.69177 11.96429,-1.60715 3.74728,0.0788 7.58912,0.57799 11.07143,1.96429 5.23042,2.08221 11.28286,4.41577 14.10714,9.28571 0.47872,0.82547 0.47303,1.94947 0.17858,2.85715 -0.95245,2.93601 -3.01616,6.02394 -5.89286,7.14285 -2.80081,1.0894 -6.32891,0.25767 -8.92858,-1.25 -2.01869,-1.17073 -3.47726,-3.34662 -4.28571,-5.53571 -0.84648,-2.29207 -0.44065,-4.87948 -0.35714,-7.32143 0.0696,-2.03658 0.95238,-8.09524 0.71429,-6.07143 -0.71429,6.07143 -1.76833,10.40542 -4.64286,14.64286 -0.94985,1.40021 -2.30606,2.73446 -3.92858,3.21429 -1.55064,0.45857 -3.28092,-0.0442 -4.82142,-0.53572 -1.16767,-0.37259 -2.35097,-0.91568 -3.21429,-1.78571 -0.52534,-0.52942 -0.80655,-1.26708 -1.07143,-1.96429 -0.56408,-1.48475 -0.92603,-3.06124 -1.07143,-4.64286 -0.2509,-2.72917 0.95239,-9.94048 0.35715,-8.21428 -1.78572,5.17857 -0.89828,4.51862 -1.60714,10 -0.29518,2.28246 -0.31626,4.17843 -1.42858,5.35714 -1.50713,1.59709 -3.47391,2.8157 -5.53571,3.57143 -1.29631,0.47515 -2.75972,0.83675 -4.10715,0.53571 -1.72425,-0.38523 -3.28271,-1.54362 -4.46428,-2.85714 -1.06817,-1.18745 -3.48176,-3.0571 -2.14285,-4.28572 z"
             style="fill:#ffffff;fill-opacity:1;fill-rule:evenodd;stroke:#000000;stroke-width:4;stroke-linecap:butt;stroke-linejoin:round;stroke-miterlimit:4;stroke-dasharray:none;stroke-opacity:1" />
        </g>
      </g>
    </g>
  </g>
</svg>
