<?xml version="1.0" encoding="UTF-8" standalone="no"?>
<!-- Created with Inkscape (http://www.inkscape.org/) -->

<svg
   xmlns:osb="http://www.openswatchbook.org/uri/2009/osb"
   xmlns:dc="http://purl.org/dc/elements/1.1/"
   xmlns:cc="http://creativecommons.org/ns#"
   xmlns:rdf="http://www.w3.org/1999/02/22-rdf-syntax-ns#"
   xmlns:svg="http://www.w3.org/2000/svg"
   xmlns="http://www.w3.org/2000/svg"
   xmlns:xlink="http://www.w3.org/1999/xlink"
   xmlns:sodipodi="http://sodipodi.sourceforge.net/DTD/sodipodi-0.dtd"
   xmlns:inkscape="http://www.inkscape.org/namespaces/inkscape"
   width="440"
   height="440"
   viewBox="0 0 412.49999 412.50001"
   id="svg2"
   version="1.1"
   inkscape:version="0.92.3 (2405546, 2018-03-11)"
   sodipodi:docname="monstruo.svg">
  <defs
     id="defs4">
    <linearGradient
       id="linearGradient886"
       osb:paint="solid">
      <stop
         style="stop-color:#000000;stop-opacity:1;"
         offset="0"
         id="stop884" />
    </linearGradient>
    <linearGradient
       inkscape:collect="always"
       xlink:href="#linearGradient886"
       id="linearGradient888"
       x1="268.41772"
       y1="409.04337"
       x2="668.13885"
       y2="409.04337"
       gradientUnits="userSpaceOnUse"
       gradientTransform="translate(-731.40851,-192.59272)" />
  </defs>
  <sodipodi:namedview
     id="base"
     pagecolor="#ffffff"
     bordercolor="#666666"
     borderopacity="1.0"
     inkscape:pageopacity="0.0"
     inkscape:pageshadow="2"
     inkscape:zoom="0.7"
     inkscape:cx="138.30328"
     inkscape:cy="162.10467"
     inkscape:document-units="px"
     inkscape:current-layer="layer1"
     showgrid="false"
     inkscape:window-width="1366"
     inkscape:window-height="704"
     inkscape:window-x="0"
     inkscape:window-y="27"
     inkscape:window-maximized="1"
     units="px" />
  <metadata
     id="metadata7">
    <rdf:RDF>
      <cc:Work
         rdf:about="">
        <dc:format>image/svg+xml</dc:format>
        <dc:type
           rdf:resource="http://purl.org/dc/dcmitype/StillImage" />
        <dc:title></dc:title>
      </cc:Work>
    </rdf:RDF>
  </metadata>
  <g
     inkscape:label="Capa 1"
     inkscape:groupmode="layer"
     id="layer1"
     transform="translate(0,-639.86215)">
    <g
       id="g1009"
       transform="translate(468.48214,639.91071)">
      <g
         id="g992">
        <path
           style="fill:#dd64a2;fill-opacity:1;stroke:url(#linearGradient888);stroke-width:4.6875;stroke-linecap:butt;stroke-linejoin:miter;stroke-miterlimit:4;stroke-dasharray:none;stroke-opacity:1"
           d="m -460.54233,338.85706 c 0,0 21.06588,8.99549 32.19861,11.36298 7.74382,1.64681 15.76473,1.57795 23.67545,1.89384 9.14722,0.36527 18.40103,1.2945 27.46353,0 7.8125,-1.11595 15.77208,-2.90189 22.72843,-6.62841 6.91169,-3.70259 13.2675,-8.89434 17.99335,-15.15065 4.17263,-5.52393 6.38398,-12.35456 8.52315,-18.93831 2.39117,-7.35934 3.73419,-15.05301 4.73509,-22.72599 1.51283,-11.59743 1.82176,-23.34043 1.89404,-35.03587 0.0469,-7.58175 -0.67076,-15.14911 -0.94702,-22.72598 -0.36821,-10.09865 -0.23058,-20.22136 -0.94702,-30.3013 -0.81056,-11.40415 -3.36718,-22.6638 -3.78807,-34.08897 -0.31395,-8.5223 0.36456,-17.05854 0.94702,-25.56671 0.4333,-6.32945 0.73963,-12.69995 1.89404,-18.93832 1.30969,-7.07753 2.95619,-14.1705 5.6821,-20.83214 3.42516,-8.370499 8.08746,-16.252559 13.25826,-23.672899 4.86419,-6.98034 10.16152,-13.81868 16.57281,-19.41161 9.46869,-8.26008 20.15113,-15.46719 31.7251,-20.35885 8.95735,-3.78576 18.78663,-5.23312 28.41055,-6.62841 10.64015,-1.54263 21.47515,-2.66873 32.1986,-1.89383 10.92948,0.7898 21.93429,2.79204 32.19862,6.62842 10.8563,4.05763 20.75873,10.47204 30.30458,17.04447 8.37123,5.76369 16.27922,12.28615 23.44566,19.49307 6.74537,6.78348 12.74388,14.32934 18.22313,22.17112 3.56576,5.10324 6.89318,10.430499 9.47018,16.097669 6.19757,13.62928 11.11453,27.96158 14.20526,42.61121 3.46873,16.44127 4.62455,33.38377 4.7351,50.18653 0.0771,11.7167 -1.16394,23.43955 -2.84106,35.03588 -1.98481,13.7238 -4.2871,27.51353 -8.52316,40.71737 -5.26723,16.41802 -12.09591,32.4816 -20.8344,47.34579 -6.62281,11.26541 -14.49318,21.9495 -23.67544,31.24821 -10.11523,10.24352 -21.42416,19.67481 -34.09265,26.51364 -12.03443,6.49653 -25.62891,9.67517 -38.82774,13.25682 -8.39459,2.27796 -16.9266,4.22912 -25.56949,5.2083 -12.70735,1.43965 -25.56595,0.85045 -38.35423,0.94681 -16.41527,0.12369 -32.86498,0.60991 -49.24494,-0.47331 -10.31423,-0.68208 -20.54259,-2.34447 -30.77807,-3.78797 -13.92643,-1.96403 -27.9494,-3.5333 -41.6688,-6.62841 -10.91314,-2.46202 -21.99409,-4.8841 -32.19861,-9.46915 -8.14918,-3.66156 -15.41728,-9.0695 -22.72843,-14.20375 -4.59938,-3.22991 -9.37592,-6.35249 -13.25826,-10.41607 -5.62731,-5.89001 -21.76715,-22.91544 -14.20527,-19.88522 z"
           id="path882"
           inkscape:connector-curvature="0"
           sodipodi:nodetypes="saaaaaaaaaaaaaaaaaaaaaaaaaaaaaaaaaaaaaaaas" />
        <ellipse
           style="fill:#ffffff;fill-opacity:1;stroke:#000000;stroke-width:5.36184692;stroke-miterlimit:4;stroke-dasharray:none;stroke-opacity:1"
           id="path890"
           cx="-169.33432"
           cy="104.12531"
           rx="52.222324"
           ry="51.748817" />
        <ellipse
           style="fill:#ffffff;fill-opacity:1;stroke:#000000;stroke-width:4.6875;stroke-miterlimit:4;stroke-dasharray:none;stroke-opacity:1"
           id="path890-3"
           cx="-257.79547"
           cy="134.0896"
           rx="25.096828"
           ry="24.272852" />
        <ellipse
           style="fill:#ffffff;fill-opacity:1;stroke:#000000;stroke-width:4.6875;stroke-miterlimit:4;stroke-dasharray:none;stroke-opacity:1"
           id="path890-3-6"
           cx="-219.41202"
           cy="175.68227"
           rx="17.745407"
           ry="16.921431" />
        <path
           style="fill:#d73886;fill-opacity:1;stroke:#000000;stroke-width:4.6875;stroke-linecap:butt;stroke-linejoin:miter;stroke-miterlimit:4;stroke-dasharray:none;stroke-opacity:1"
           d="m -460.54233,336.98206 c -7.284,8.63101 20.18424,8.14965 30.72233,10.71428 6.1344,1.49292 12.47053,2.02444 18.75,2.67857 8.45473,0.88073 16.99208,2.55856 25.44643,1.67411 3.68985,-0.38602 7.16777,-1.92425 10.71429,-3.01339 6.74763,-2.07221 13.64539,-3.8153 20.08928,-6.69643 3.28575,-1.46909 6.69159,-2.95845 9.375,-5.35714 5.35908,-4.79045 9.50129,-10.9852 12.72322,-17.41072 2.72172,-5.42794 3.79666,-11.54257 5.35713,-17.41072 2.35192,-8.84441 4.82699,-17.71291 6.02679,-26.7857 0.70293,-5.31551 0.47683,-10.71311 0.66964,-16.07143 0.26501,-7.36469 0.95124,-14.73415 0.66964,-22.09822 -0.24019,-6.28118 -1.38954,-12.49482 -2.00892,-18.75 -0.97177,-9.81393 -3.30488,-19.62226 -2.67858,-29.46428 0.69392,-10.90467 -2.72691,-22.733 -2.67857,-34.15179 0.0436,-10.30651 1.32487,-20.58625 2.67857,-30.80357 0.83388,-6.29387 1.20357,-12.77433 3.34822,-18.75 2.32541,-6.47932 6.62616,-12.07113 10.12589,-17.99911 4.28666,-7.26095 7.87732,-15.06271 13.31161,-21.509822 4.99383,-5.92455 11.23196,-10.72614 17.41071,-15.40178 5.92485,-4.48351 12.01545,-8.91486 18.75,-12.05357 6.14334,-2.86316 12.85673,-4.33373 19.41965,-6.02679 6.40075,-1.651226 12.84369,-3.344715 19.41964,-4.017857 6.43956,-0.659181 12.95085,-0.239257 19.41964,0 6.03917,0.223367 12.12577,0.307615 18.08036,1.339285 6.61643,1.146338 13.08242,3.136592 19.41964,5.357142 1.60431,0.56215 4.92107,3.69276 4.6875,2.00893 -1.54766,-11.157293 -4.48778,-15.068757 -7.95447,-24.222035 -2.59384,-6.848636 -14.89467,3.833857 -20.84017,11.498821 -1.59474,2.055948 -8.0085,-17.027013 -18.08036,-17.410714 -4.7053,-0.179254 -8.86831,3.898208 -12.05358,7.366072 -2.70109,2.94074 -5.35713,10.714284 -5.35713,10.714284 -0.28018,0.876655 -2.00179,1.293325 -2.67858,0.669646 -2.36034,-2.175107 -5.22271,-8.257976 -12.05356,-7.700894 -4.6147,0.376345 -9.9719,1.697592 -13.39286,3.683035 -2.66746,1.54813 -3.08506,2.622369 -4.6875,8.370538 -0.34951,1.253747 0.167,4.166147 -1.33929,5.022317 -3.09499,1.75918 -6.79591,-2.15799 -10.27443,-2.91532 -4.05215,-0.88223 -7.4448,-3.589051 -12.29729,-1.887071 -6.49211,2.277071 -4.79208,8.940491 -5.52949,14.806421 -0.31744,2.52516 0.59822,5.99615 -1.6979,7.40668 -2.73229,1.67849 -7.51168,2.54687 -12.87873,2.77664 -4.11979,0.17638 -13.27476,-1.93525 -13.78512,2.14762 -1.08203,8.65628 1.63425,14.263862 2.71222,25.405812 0.66054,6.82726 -15.69442,-1.70979 -19.24032,6.50029 -0.55975,1.29603 -1.35679,2.60623 -1.3393,4.01786 0.10588,8.54294 4.96307,14.14685 8.70536,24.10714 0,0 -13.37156,1.71956 -16.74107,6.69643 -1.50168,2.21804 -0.82224,5.48647 10e-6,8.03571 2.11085,6.5443 6.18784,11.50485 12.05356,16.74108 0.74023,0.66079 2.14455,2.15985 1.29867,2.67857 -6.69572,4.106 -10.25419,4.53759 -13.01741,9.04017 -1.70895,2.78468 -2.21329,6.56164 -1.3393,9.70983 2.37793,8.56547 13.09142,13.01175 16.74108,20.75892 0,0 -8.9964,1.58647 -12.3884,4.35268 -3.02599,2.46773 -5.78836,6.14727 -6.02678,10.04464 -0.33558,5.48576 3.38865,10.6778 6.69642,15.06697 3.24234,4.30234 8.67938,7.06843 12.3884,10.37947 2.98755,2.66698 -15.44114,4.29685 -15.73661,11.71874 -0.0536,1.34749 -0.3954,-0.97608 -0.66965,0.33483 -2.01201,9.61747 12.42675,14.2299 18.75001,20.4241 2.3765,2.328 -13.84186,2.54697 -20.75893,8.70536 -2.20263,1.96104 -4.62662,4.4618 -2.67856,7.36607 6.48197,9.66366 14.66172,14.35601 18.74999,21.42857 2.46011,4.25591 -9.83282,0.26779 -14.73214,0.66965 -5.25607,0.43112 -12.30357,0.74859 -13.72768,3.34821 -1.07793,1.96767 -1.4016,2.25389 -1.00447,7.36607 0.41757,5.37527 3.18691,10.18083 4.6875,15.40179 0,0 8.06053,10.84502 4.36952,9.57113 -11.11353,-3.83566 -31.2571,-23.29984 -32.49452,-15.5573 -1.43078,8.95238 -1.59897,11.55324 -2.00892,27.41474 -0.33057,12.79036 -12.61457,-13.51058 -24.10715,-22.76786 -5.40227,-4.35153 -6.7131,-2.25699 -10.71428,1.33929 -2.96057,2.66098 -7.58583,18.81523 -6.69643,21.42857 2.31109,6.79072 -13.20685,-38.36933 -21.55043,-30.21517 -5.58915,5.46226 -6.51773,8.66877 -14.52904,18.1616 z"
           id="path821"
           inkscape:connector-curvature="0"
           sodipodi:nodetypes="saaaaaaaaaaaasaaaaaaaaaaaassssasssssaasssssssasaassaasaaasssssssssssssssssss" />
        <path
           style="fill:#d73886;fill-opacity:1;stroke:#000200;stroke-width:4.6875;stroke-linecap:butt;stroke-linejoin:miter;stroke-miterlimit:4;stroke-dasharray:none;stroke-opacity:1"
           d="m -220.8643,107.25036 c 0,0 0.11777,-6.51281 0.66963,-9.70982 0.49287,-2.85526 1.36215,-5.644378 2.34375,-8.370528 1.48954,-4.13682 2.98226,-8.35333 5.35715,-12.05358 2.73343,-4.25889 6.27114,-8.0119 10.04464,-11.38392 5.07921,-4.53881 10.45467,-9.09573 16.74108,-11.71875 3.45474,-1.4415 7.30793,-1.87944 11.0491,-2.00893 3.03012,-0.10488 6.05192,0.49168 9.04018,1.00446 3.38862,0.58149 6.77538,1.27942 10.04464,2.34375 2.99603,0.97538 5.93144,2.18874 8.70536,3.68304 3.54272,1.90844 6.93267,4.14523 10.04464,6.69643 1.46474,1.2008 0,0 4.01786,4.01785 1.20464,1.20463 -1.52271,3.10117 -2.67857,4.35268 -2.43846,2.64025 -5.75352,4.31132 -8.70536,6.3616 -5.16099,3.58471 -10.29394,7.23886 -15.7366,10.37947 -5.4039,3.11824 -10.8658,6.271348 -16.74108,8.370528 -5.71131,2.04059 -11.78938,2.87451 -17.74554,4.01787 -5.72119,1.09826 -11.45965,2.28151 -20.75892,3.68303 -1.87938,0.28325 -6.00942,2.20872 -5.69196,0.33482 z"
           id="path913"
           inkscape:connector-curvature="0"
           sodipodi:nodetypes="saaaaaaaaaasaaaasss" />
        <path
           style="fill:#d73886;fill-opacity:1;stroke:#000200;stroke-width:4.6875;stroke-linecap:butt;stroke-linejoin:miter;stroke-miterlimit:4;stroke-dasharray:none;stroke-opacity:1"
           d="m -282.18976,136.2073 c 0,0 0.0579,-3.20403 0.32943,-4.77681 0.24247,-1.40467 0.67012,-2.7768 1.15302,-4.11795 0.73279,-2.03514 1.46715,-4.10948 2.63549,-5.92985 1.34474,-2.0952 3.08515,-3.94151 4.94154,-5.6004 2.49876,-2.2329 5.14325,-4.47471 8.23589,-5.76513 1.69959,-0.70916 3.5952,-0.9246 5.4357,-0.98831 1.49069,-0.0515 2.97729,0.24189 4.44739,0.49414 1.66705,0.28608 3.33319,0.62943 4.94152,1.15303 1.47393,0.47986 2.91803,1.07678 4.28268,1.81191 1.74286,0.93887 3.41057,2.03927 4.94153,3.29436 0.7206,0.59074 0,0 1.97663,1.97661 0.59263,0.59262 -0.74912,1.52564 -1.31775,2.14132 -1.19962,1.29889 -2.83049,2.12099 -4.28267,3.12965 -2.53899,1.76352 -5.06418,3.56121 -7.74174,5.10626 -2.65848,1.53403 -5.34552,3.08523 -8.2359,4.11794 -2.80972,1.00388 -5.79987,1.41414 -8.73005,1.97662 -2.81458,0.54029 -5.63767,1.1224 -10.21251,1.81189 -0.92457,0.13936 -2.95638,1.08661 -2.8002,0.16472 z"
           id="path913-3"
           inkscape:connector-curvature="0"
           sodipodi:nodetypes="saaaaaaaaaasaaaasss" />
        <path
           style="fill:#d73886;fill-opacity:1;stroke:#000200;stroke-width:3.75;stroke-linecap:butt;stroke-linejoin:miter;stroke-miterlimit:4;stroke-dasharray:none;stroke-opacity:1"
           d="m -237.39819,178.31445 c 0,0 0.0408,-2.25822 0.23219,-3.36673 0.17089,-0.99002 0.4723,-1.9571 0.81265,-2.90235 0.51647,-1.43438 1.03406,-2.89639 1.85751,-4.17939 0.94778,-1.47671 2.17443,-2.778 3.48282,-3.9472 1.76115,-1.57376 3.625,-3.1538 5.80471,-4.0633 1.19788,-0.49982 2.53392,-0.65166 3.83111,-0.69656 1.05065,-0.0363 2.09841,0.17048 3.13455,0.34827 1.17494,0.20163 2.34925,0.44363 3.48281,0.81266 1.03883,0.33821 2.05664,0.75892 3.01846,1.27705 1.22837,0.66172 2.40378,1.43729 3.48281,2.32188 0.50789,0.41636 0,0 1.39314,1.39313 0.41769,0.41768 -0.52798,1.07528 -0.92875,1.50921 -0.8455,0.91547 -1.99495,1.49489 -3.01845,2.2058 -1.7895,1.24294 -3.56927,2.50996 -5.45643,3.59892 -1.87371,1.08119 -3.76755,2.17449 -5.80471,2.90235 -1.9803,0.70754 -4.08778,0.99669 -6.15299,1.39313 -1.98373,0.3808 -3.97346,0.79107 -7.19783,1.27703 -0.65164,0.0982 -2.08368,0.76585 -1.9736,0.1161 z"
           id="path913-3-6"
           inkscape:connector-curvature="0"
           sodipodi:nodetypes="saaaaaaaaaasaaaasss" />
        <circle
           style="fill:#000000;fill-opacity:1;stroke:#000200;stroke-width:4.37583876;stroke-miterlimit:4;stroke-dasharray:none;stroke-opacity:1"
           id="path947"
           cx="-149.13628"
           cy="131.5014"
           r="14.36586" />
        <circle
           style="fill:#000000;fill-opacity:1;stroke:#000200;stroke-width:2.74865842;stroke-miterlimit:4;stroke-dasharray:none;stroke-opacity:1"
           id="path947-7"
           cx="-254.27435"
           cy="147.54362"
           r="9.0238342" />
        <circle
           style="fill:#000000;fill-opacity:1;stroke:#000200;stroke-width:1.62214887;stroke-miterlimit:4;stroke-dasharray:none;stroke-opacity:1"
           id="path947-7-5"
           cx="-216.41264"
           cy="184.45828"
           r="5.3255081" />
      </g>
      <path
         sodipodi:nodetypes="saaasaaaasaaasaaasaaaasaaaasaaaas"
         inkscape:connector-curvature="0"
         id="path994"
         d="m -206.11607,212.5631 c 9.61922,-1.84172 17.92759,-3.00553 26.45089,-6.02678 14.77216,-5.23628 28.97316,-12.3318 42.1875,-20.75894 8.7001,-5.54828 16.67477,-12.26177 24.10714,-19.41963 4.90042,-4.71943 9.77802,-9.63812 13.39286,-15.4018 0,0 9.244883,2.57738 11.383933,6.36162 1.70339,3.01351 1.19282,7.27316 -0.33483,10.37946 -1.0847,2.2056 -3.34935,3.94357 -5.69196,4.6875 -2.87992,0.91456 -6.400053,0.80009 -9.040173,-0.66965 -2.6527,-1.47674 -5.35716,-7.36607 -5.35716,-7.36607 -3.17195,-1.46909 4.10582,6.90101 4.01787,10.71429 -0.0588,2.54925 -1.03974,5.4167 -3.0134,7.03125 -2.11775,1.73242 -5.49565,2.69107 -8.03571,1.6741 -3.65,-1.46135 -6.69643,-9.70981 -6.69643,-9.70981 1.54526,3.82944 5.78978,9.60098 5.02233,14.73214 -0.36656,2.45082 -2.2929,4.64905 -4.35269,6.02678 -2.00259,1.33947 -4.70739,2.3099 -7.03125,1.67411 -4.33954,-1.18726 -9.70982,-9.375 -9.70982,-9.375 -2.48899,-1.26587 2.06929,6.67333 1.67411,10.04464 -0.26787,2.28519 -1.19811,4.60033 -2.67857,6.36161 -1.19521,1.42191 -2.92434,2.42892 -4.68751,3.0134 -3.07949,1.02084 -6.7598,2.01978 -9.70981,0.66963 -3.0445,-1.3934 -6.02679,-8.0357 -6.02679,-8.0357 0.20413,2.55883 1.75845,6.76528 1.00446,10.04463 -0.76347,3.32058 -2.56884,6.74715 -5.35713,8.70537 -2.23906,1.5725 -5.3523,2.20832 -8.03572,1.6741 -2.91457,-0.58024 -5.53097,-2.68484 -7.36607,-5.02232 -1.17768,-1.50009 -3.01341,-7.14287 -2.00894,-5.35715 3.0134,5.35715 0.26471,6.28666 -1.00446,9.04018 -1.02462,2.22296 -2.91201,4.11696 -5.02231,5.35714 -1.98366,1.16576 -4.39778,1.77426 -6.69644,1.67411 -3.42038,-0.14902 -7.48409,-0.74679 -9.70981,-3.34821 -2.06372,-2.41207 -4.97171,-8.74363 -1.67411,-9.375 z"
         style="fill:#ffffff;stroke:#000000;stroke-width:4.6875;stroke-linecap:butt;stroke-linejoin:miter;stroke-miterlimit:4;stroke-dasharray:none;stroke-opacity:1" />
    </g>
  </g>
</svg>
