<?xml version="1.0" encoding="UTF-8"?>
<svg width="950" height="1400" version="1.1" viewBox="0 0 950 1400" xmlns="http://www.w3.org/2000/svg" >

 <g transform="translate(979.33 -12.929)">
  <path d="m-913.67 1099.4a80.949 80.949 0 0 0 4.6206 0.2332 80.949 80.949 0 0 0 5.7244-0.2032 80.949 80.949 0 0 0 8.0326-0.9755 80.949 80.949 0 0 0 7.8957-1.7713 80.949 80.949 0 0 0 7.6796-2.5519 80.949 80.949 0 0 0 7.3844-3.3051 80.949 80.949 0 0 0 7.0186-4.0259 80.949 80.949 0 0 0 6.5822-4.7083 80.949 80.949 0 0 0 6.0795-5.3394 80.949 80.949 0 0 0 5.5148-5.9213 80.949 80.949 0 0 0 4.8966-6.441 80.949 80.949 0 0 0 4.2291-6.8989 80.949 80.949 0 0 0 3.5211-7.286 80.949 80.949 0 0 0 2.7745-7.6005 80.949 80.949 0 0 0 2.0023-7.8401 80.949 80.949 0 0 0 1.2086-8.0005 80.949 80.949 0 0 0 0.4043-8.0818 80.949 80.949 0 0 0-0.20323-5.7266 80.949 80.949 0 0 0-0.97546-8.0326 80.949 80.949 0 0 0-1.7712-7.8935 80.949 80.949 0 0 0-2.552-7.6796 80.949 80.949 0 0 0-3.305-7.3845 80.949 80.949 0 0 0-4.0259-7.0207 80.949 80.949 0 0 0-4.7062-6.5801 80.949 80.949 0 0 0-5.3415-6.0796 80.949 80.949 0 0 0-5.9191-5.5148 80.949 80.949 0 0 0-6.4432-4.8987 80.949 80.949 0 0 0-6.8967-4.2291 80.949 80.949 0 0 0-7.286-3.519 80.949 80.949 0 0 0-7.6026-2.7745 80.949 80.949 0 0 0-7.8401-2.0022 80.949 80.949 0 0 0-8.0005-1.2087 80.949 80.949 0 0 0-8.0797-0.4043 80.949 80.949 0 0 0-5.7266 0.2033 80.949 80.949 0 0 0-8.0326 0.9733 80.949 80.949 0 0 0-7.8957 1.7734 80.949 80.949 0 0 0-7.0828 2.353c-0.79568 4.8421-1.5041 9.7041-2.1734 14.555-1.514 10.973-2.7974 22.026-2.9221 33.102-0.11173 9.9185 0.68909 19.855 1.9488 29.694 0.98609 7.7019 2.6058 15.319 4.381 22.878 1.6562 7.0519 3.395 14.113 5.84 20.932 3.1141 8.6846 6.799 17.202 11.196 25.313 1.8229 3.3622 3.7881 6.6573 5.8464 9.8894z"
        stroke="#000"
        stroke-width="10.953"/>
  <path d="m-490.33 715c-98.799-1.0901-198.08 11.951-291.45 37.061-7.1889 1.9334-12.96 7.3615-19.111 11.555-5.2394 3.5717-10.206 7.5384-15.111 11.557-11.126 9.1142-24.572 20.433-35.11 30.221-9.441 8.7694-16.068 15.942-24.89 25.334-7.1185 7.5776-12.684 14.164-18.666 22.668-4.007 5.6964-8.6856 12.985-12 19.11-5.4878 10.14-11.122 20.221-16 30.668-4.7489 10.171-9.6843 20.353-12.889 31.111-1.6931 5.6843-2.8292 11.512-3.793 17.377 2.1214-0.81518 4.2793-1.5321 6.4668-2.1484 2.3745-0.65958 4.7805-1.2 7.209-1.6192 2.4283-0.41827 4.876-0.71484 7.334-0.8886 1.7401-0.12355 3.484-0.18546 5.2285-0.1856 2.4636 1e-5 4.9257 0.1232 7.377 0.3691 2.4518 0.24587 4.8897 0.6142 7.3047 1.1036 2.415 0.48965 4.8041 1.0998 7.1582 1.8281 2.3546 0.72814 4.6713 1.5736 6.9414 2.5332 2.2696 0.9594 4.4898 2.0317 6.6524 3.2129 2.162 1.1813 4.2636 2.47 6.2969 3.8613 2.0343 1.3919 3.9977 2.8846 5.8828 4.4727 1.8842 1.5872 3.6879 3.2677 5.4043 5.0351 1.7172 1.7678 3.3449 3.6204 4.877 5.5508 1.5315 1.9297 2.9656 3.9348 4.2969 6.0078 1.3314 2.0741 2.5582 4.2135 3.6758 6.4102 1.1176 2.1957 2.1247 4.4459 3.0176 6.7422 0.89311 2.2969 1.6708 4.6371 2.3301 7.0117 0.65884 2.3739 1.1986 4.7792 1.6172 7.207 0.41895 2.4283 0.7162 4.876 0.89063 7.334 0.12354 1.7401 0.18542 3.484 0.18555 5.2285 4e-5 2.4642-0.12316 4.927-0.36914 7.3789-0.24584 2.4518-0.61414 4.8897-1.1035 7.3047-0.48966 2.4151-1.0998 4.8041-1.8281 7.1582-0.7282 2.3539-1.5736 4.67-2.5332 6.9395-0.96004 2.2696-2.033 4.4898-3.2148 6.6523-1.1813 2.1627-2.47 4.265-3.8613 6.2989-1.3913 2.0336-2.8834 3.9963-4.4707 5.8808-1.5872 1.8849-3.2677 3.6893-5.0352 5.4063-1.7678 1.7165-3.6204 3.3435-5.5508 4.875-1.9303 1.5322-3.9361 2.967-6.0098 4.2988-2.0735 1.3313-4.2122 2.5581-6.4082 3.6758-2.1957 1.1176-4.4459 2.1247-6.7422 3.0176-2.2969 0.8931-4.6371 1.6707-7.0117 2.33-2.3745 0.6589-4.7805 1.1987-7.209 1.6172-2.4283 0.419-4.876 0.7162-7.334 0.8907-1.7395 0.1235-3.4827 0.1853-5.2266 0.1855-1.408-0.031-2.8148-0.1018-4.2188-0.2129 2.2119 3.4732 4.5531 6.8603 7.1074 10.08 6.1214 7.7161 13.241 14.615 20.443 21.334 7.6146 7.1037 15.473 14.022 24 20 6.7412 4.7257 13.903 8.9009 21.334 12.445 9.4371 4.5015 19.26 8.3127 29.334 11.111 9.5754 2.6601 19.456 4.2199 29.332 5.332 6.6313 0.7467 13.351 1.4564 20 0.8887 53.332-4.5536 106.35-16.595 156.89-34.221 17.142-5.978 37.11-13.186 52.444-24 5.5067-2.7652 7.544-5.3805 12.89-8.4453 8.3787-4.8036 14.945-13.816 24.445-15.555 30.81-5.6369 63.271 6.6319 92 19.109 2.8276 1.2281 4.9154 3.741 7.5547 5.334 7.2606 4.3825 15.058 7.8097 22.666 11.557 8.9767 4.421 17.875 9.0393 27.111 12.889 12.501 5.21 25.334 9.6183 38.223 13.777 12.317 3.9745 24.664 8.026 37.334 10.666 10.974 2.2865 22.175 3.3597 33.332 4.4454 9.6025 0.9344 19.25 2.1902 28.889 1.7773 12.12-0.5192 24.173-2.6352 36-5.334 13.614-3.1065 27.308-6.6209 40-12.443 10.163-4.6621 19.657-10.865 28.445-17.777 7.4931-5.894 14.469-12.572 20.445-20 6.1326-7.6227 10.964-16.251 15.555-24.891 4.7925-9.0194 9.2122-18.312 12.445-28 4.1864-12.545 6.7059-25.622 8.8887-38.666 1.6229-9.6978 2.4382-17.726 2.2224-27.556-0.24-10.934-2.2179-23.431-4.0017-34.221-1.2275-7.4257-2.5808-14.831-4-22.223-1.3971-7.2759-2.3956-14.657-4.4434-21.777-0.087-0.3025-0.2134-0.5927-0.3027-0.8945-2.6624 1.7008-5.4044 3.2736-8.2168 4.7129-2.9501 1.5017-5.9734 2.8549-9.0586 4.0546-3.0852 1.1993-6.2285 2.2436-9.418 3.1289-3.1896 0.88561-6.4215 1.6112-9.6836 2.1739-3.2625 0.5631-6.5511 0.96266-9.8535 1.1972-2.3375 0.16556-4.6801 0.24831-7.0234 0.2481-3.3103-3e-5 -6.6185-0.1656-9.9122-0.4961-3.2935-0.33026-6.5684-0.82501-9.8125-1.4824-3.244-0.65824-6.4531-1.4783-9.6152-2.4571-3.1628-0.97794-6.2748-2.1135-9.3242-3.4023-3.0486-1.289-6.0309-2.7296-8.9356-4.3164-2.905-1.587-5.7288-3.3184-8.4609-5.1875-2.7326-1.869-5.37-3.8734-7.9023-6.0059-2.5319-2.1327-4.9555-4.3908-7.2618-6.7656-2.3059-2.375-4.4915-4.8637-6.5488-7.457-2.0578-2.5928-3.9847-5.287-5.7734-8.0723-1.7883-2.7857-3.4362-5.6591-4.9375-8.6094-1.5017-2.95-2.855-5.9734-4.0547-9.0586-1.1993-3.0852-2.2436-6.2284-3.1289-9.4179-0.8856-3.1896-1.6111-6.4215-2.1738-9.6836-0.5631-3.2625-0.9627-6.5511-1.1973-9.8535-0.1655-2.3368-0.2483-4.6788-0.2481-7.0215 0-3.3109 0.1655-6.6197 0.4961-9.9141 0.3303-3.2935 0.8251-6.5684 1.4825-9.8125 0.6582-3.244 1.4782-6.4531 2.457-9.6152 0.9779-3.1628 2.1135-6.2748 3.4023-9.3242 1.289-3.0486 2.7296-6.0308 4.3164-8.9356 1.587-2.905 3.3184-5.7289 5.1875-8.4609 1.869-2.7319 3.8735-5.3687 6.0059-7.9004 2.1327-2.5318 4.3908-4.9554 6.7656-7.2617 0.5135-0.46046 1.0317-0.91557 1.5547-1.3652-0.056-0.0196 1.3121-0.047 1.2559-0.0663-91.437-31.416-191.17-46.648-289.97-47.738z"
        fill="#f00"
        stroke="#000"
        stroke-width="10"/>

  <g>
   <circle cx="-624" cy="1116.3" r="19.276"
           stroke-width="5.6695"
           stroke="#000"/>
   <circle cx="-285.73" cy="926.59" r="33.613"
           stroke-width="9.886"
           stroke="#000"/>

   <path d="m-83.562 1065.4c-2.1291-0.3876-4.2762-0.6685-6.4333-0.8416-2.1576-0.1729-4.3224-0.2378-6.4865-0.1944-2.1638 0.043-4.3241 0.1936-6.4728 0.4521-2.1486 0.2591-4.2829 0.6254-6.3948 1.0977-2.1126 0.4722-4.2002 1.0498-6.255 1.7306-1.454 0.4816-2.8905 1.0146-4.3068 1.5978-2.0014 0.8246-3.9602 1.7488-5.8692 2.7691-1.9089 1.02-3.7656 2.1348-5.563 3.3403-1.7975 1.2053-3.5336 2.4997-5.2018 3.8784-1.6681 1.379-3.2662 2.8405-4.7883 4.3791-1.5224 1.5384-2.9669 3.1519-4.3281 4.8346-1.3609 1.6828-2.6368 3.4327-3.8229 5.243-1.1864 1.8101-2.2816 3.6783-3.2815 5.5978-0.9996 1.9197-1.9027 3.8881-2.7057 5.898-0.8028 2.0101-1.5046 4.0592-2.1026 6.1394-0.5983 2.0799-1.0922 4.1885-1.4798 6.3178-0.3876 2.129-0.6685 4.2761-0.8416 6.4332-0.1729 2.1576-0.2378 4.3225-0.1944 6.4866 0.043 2.1638 0.1936 4.324 0.4522 6.4727 0.259 2.1486 0.6253 4.2828 1.0976 6.3948 0.4721 2.1122 1.0495 4.1994 1.7302 6.2539 0.4817 1.4544 1.0147 2.8912 1.598 4.3079 49.133-41.949 64.02-57.898 71.65-88.589z"
         fill="black"
         stroke-width="6.5381"
         stroke="#000"/>
   <path d="m-190.15 1159.7c-0.7969-1.1691-1.6494-2.3007-2.5544-3.3905-0.9054-1.0902-1.862-2.1373-2.8665-3.1375-1.0043-1.0001-2.0547-1.9526-3.1479-2.8529-1.0935-0.9001-2.228-1.7475-3.3996-2.5387-1.1718-0.7916-2.3792-1.5261-3.6175-2.2008-0.8762-0.4774-1.7672-0.9246-2.6715-1.3406-1.2779-0.5878-2.5808-1.1127-3.9038-1.5728-1.3227-0.4601-2.6639-0.8549-4.0185-1.1829-1.3545-0.328-2.7207-0.589-4.0934-0.7816-1.3729-0.1925-2.7506-0.3165-4.128-0.3718-1.3774-0.055-2.7528-0.042-4.121 0.041-1.3681 0.083-2.7274 0.2343-4.0727 0.4541-1.3454 0.2197-2.6751 0.5072-3.9841 0.8617-1.3091 0.3547-2.5959 0.7757-3.8556 1.2618-1.2596 0.4862-2.4907 1.0368-3.6883 1.6494-1.1976 0.6125-2.3605 1.2866-3.4842 2.0194-1.1235 0.7329-2.2065 1.5237-3.2449 2.3696-1.0386 0.8461-2.0312 1.7463-2.9741 2.6971-0.9432 0.9503-1.8354 1.9502-2.6735 2.9955-0.8379 1.0456-1.6205 2.1357-2.3451 3.2659-0.7247 1.1304-1.3903 2.2995-1.9943 3.5033-0.4278 0.8519-0.8243 1.7206-1.1889 2.6044 41.029 5.0968 54.902 5.2491 72.028-4.3532z"
         fill="black"
         stroke-width="4.1616"
         stroke="#000"/>
  </g>

  <g >
   <circle cx="-789.33" cy="907.17" r="33.031" stroke="#000" stroke-width="9"/>
   <circle cx="-566.22" cy="1056.5" r="13.658" stroke="#000" stroke-width="4"/>
   <circle cx="-306.22" cy="1064.5" r="30.9" stroke="#000" stroke-width="9"/>
   <circle cx="-164.66" cy="1015.2" r="37.487" stroke="#000" stroke-width="11"/>
  </g>

  <path d="m-200.36 762.74a97.704 112.15 70.84 0 0-1.8566 1.3662 97.704 112.15 70.84 0 0-8.2061 7.267 97.704 112.15 70.84 0 0-7.4231 7.9062 97.704 112.15 70.84 0 0-6.5675 8.4671 97.704 112.15 70.84 0 0-5.6451 8.9421 97.704 112.15 70.84 0 0-4.667 9.331 97.704 112.15 70.84 0 0-3.6448 9.6223 97.704 112.15 70.84 0 0-2.581 9.8197 97.704 112.15 70.84 0 0-1.4954 9.9213 97.704 112.15 70.84 0 0-0.3932 7.0266 97.704 112.15 70.84 0 0 0.3913 9.8607 97.704 112.15 70.84 0 0 1.4921 9.6907 97.704 112.15 70.84 0 0 2.5782 9.4248 97.704 112.15 70.84 0 0 3.6406 9.0652 97.704 112.15 70.84 0 0 4.6641 8.6157 97.704 112.15 70.84 0 0 5.6434 8.0781 97.704 112.15 70.84 0 0 6.5635 7.4625 97.704 112.15 70.84 0 0 7.4211 6.7706 97.704 112.15 70.84 0 0 8.2048 6.0102 97.704 112.15 70.84 0 0 8.9032 5.1913 97.704 112.15 70.84 0 0 9.5135 4.3196 97.704 112.15 70.84 0 0 10.032 3.4048 97.704 112.15 70.84 0 0 10.445 2.4588 97.704 112.15 70.84 0 0 10.757 1.4834 97.704 112.15 70.84 0 0 10.962 0.4965 97.704 112.15 70.84 0 0 7.8244-0.24826 97.704 112.15 70.84 0 0 11.058-1.1981 97.704 112.15 70.84 0 0 10.963-2.1754 97.704 112.15 70.84 0 0 10.758-3.1312 97.704 112.15 70.84 0 0 10.447-4.0577 97.704 112.15 70.84 0 0 9.5751-4.7163c-1.9133-8.1997-4.7454-16.155-7.7457-24.012-4.3961-11.513-9.137-22.943-15.046-33.802-4.634-8.5156-10.017-16.681-15.937-24.463-5.9483-7.8193-12.789-15.038-19.602-22.239-5.9313-6.2692-12.183-12.287-18.504-18.236-5.478-5.1554-10.92-10.359-16.826-15.12-8.1803-6.5946-15.225-15.19-25.697-18.603z"
        fill="#010000"
        stroke="#000"
        stroke-width="10.543"/>
  <path d="m-684.69 528.57c18.022-40.436 13.302-89.194 33.778-128.44 3.5971-6.8956 9.5487-12.342 15.111-17.778 10.462-10.224 23.006-17.341 34.667-24.889 13.556-8.7758 42.222-16.279 42.222-15.111 0 0 1.8568 16.275 1.7778 24.444-0.20284 20.977-5.7778 62.667-5.7778 62.667s12.962-5.8784 18.667-9.3333c13.313-8.0627 26.222-19.111 26.222-19.111s7.4548 6.1667 11.111 9.3333c4.2036 3.6407 7.8132 8.0328 12.444 11.111 5.7394 3.815 12.14 6.6751 18.667 8.8889 6.7415 2.2868 13.857 3.3334 20.889 4.4444 7.062 1.1159 14.184 2.2957 21.333 2.2222 8.3604-0.086 16.682-1.5117 24.889-3.1111 6.7722-1.3198 20-5.3333 20-5.3333s4.0536 13.909 7.1111 20.444c2.1963 4.6947 4.8926 9.1851 8 13.333 3.1428 4.1954 6.873 7.938 10.667 11.556 4.3379 4.1366 13.778 11.556 13.778 11.556s1.1006-17.36 3.1111-25.778c2.0141-8.433 5.8753-16.315 8.8889-24.444 2.477-6.6822 4.8648-13.401 7.5556-20 4.4584-10.934 14.222-32.444 14.222-32.444 1.3695-2.0543 17.883 17.535 23.556 29.778 4.5414 9.8017 9.6925 22.623 13.778 34.222 4.5774 12.996 8.793 26.155 12 39.556 3.3618 14.047 5.6504 28.349 7.5556 42.667 1.3145 9.8786 2.3974 19.816 2.6667 29.778 0.34038 12.596-0.56032 25.201-1.3333 37.778-0.52004 8.4609-2.2222 25.333-2.2222 25.333l-9.7778 11.556s10.687 43.59 13.778 65.778c1.4546 10.444 2.2222 31.556 2.2222 31.556s10.092-6.5039 13.778-11.111c6.4978-8.1229 13.778-28 13.778-28s-11.737-11.98-16-19.111c-2.8653-4.7935-6.4543-9.9758-6.2222-15.556 0.20651-4.9648 2.7906-10.224 6.6667-13.333 3.8118-3.0577 9.3364-3.464 14.222-3.5556 5.752-0.10781 11.282 2.2651 16.889 3.5556 1.7858 0.41105 5.3333 1.3333 5.3333 1.3333s13.37-19.976 20.889-29.333c6.5042-8.0948 12.48-17.018 20.889-23.111 3.5446-2.5684 7.6278-5.1223 12-5.3333 5.1473-0.24849 10.81 1.4712 14.667 4.8889 2.3311 2.0656 3.7695 5.3384 4 8.4444 0.37804 5.0944-1.9598 10.203-4.4444 14.667-4.7992 8.6214-19.556 22.222-19.556 22.222 0.54068 1.2616 17.578-24.005 29.333-32.889 3.7543-2.8373 9.1641 3.2926 12.444 6.6667 3.002 3.0877 5.5306 7.2562 5.7778 11.556 0.29863 5.1935-2.5602 10.265-5.3333 14.667-5.7521 9.1294-14.028 16.645-22.667 23.111-4.0326 3.0183-13.333 7.1111-13.333 7.1111 3.1456 3.1456 27.595-22.84 37.778-26.222 2.4874-0.8261 4.4709 3.3027 5.3333 5.7778 1.9553 5.6117 0.24747 12.049-1.3333 17.778-1.4099 5.1093-4.1568 9.8216-7.1111 14.222-3.5112 5.23-7.1283 10.843-12.444 14.222-7.6766 4.8799-17.415 5.2795-26.222 7.5556-7.0634 1.8255-21.333 4.8889-21.333 4.8889s-11.386 21.805-18.222 32c-10.58 15.777-22.35 30.817-35.111 44.889-8.799 9.7028-28.444 27.111-28.444 27.111s-2.6274 12.749-4 19.111c-2.8806 13.351-8.8889 40-8.8889 40s-20.183 14.434-31.556 19.111c-46.924 19.297-98.169 26.011-148 35.556-51.155 9.7977-102.76 17.913-154.67 22.222-45.042 3.7391-90.361 2.5926-135.56 3.1111-2.9628 0.034-8.8889 0-8.8889 0s-2.6967-12.219-4.4444-18.222c-4.6361-15.923-11.237-31.225-16-47.111-2.0226-6.7462-5.3333-20.444-5.3333-20.444s-28.607 27.78-40 44c-4.914 6.9957-8.5736 14.834-12 22.667-2.3286 5.3229-5.7778 16.444-5.7778 16.444s13.968 9.0578 19.556 15.111c2.7592 2.9892 4.8741 6.5704 6.6667 10.222 1.5897 3.2385 3.8661 6.628 3.5556 10.222-0.26257 3.0392-2.5078 5.643-4.4444 8-1.6016 1.9492-3.5917 3.6295-5.7778 4.8889-3.8168 2.1987-8.0496 4.1496-12.444 4.4444-4.9864 0.3346-14.667-3.1111-14.667-3.1111l-5.3333 1.7778s-2.969 6.2193-4.4444 9.3333c-4.909 10.361-9.0717 21.104-14.667 31.111-2.2459 4.0169-4.5188 8.0976-7.5556 11.556-2.7038 3.0789-5.8496 5.8428-9.3333 8-3.5559 2.2019-7.3742 4.7937-11.556 4.8889-4.2644 0.097-8.9699-1.4423-12-4.4445-2.365-2.3432-3.3687-6.0093-3.5556-9.3333-0.30043-5.3454 1.3371-11.347 4-15.556 6.2006-9.799 17.168-22.946 15.556-21.333-0.0281-0.056-17.156 16.934-24 34.667-1.4936 3.8699-8.0741 0.7856-11.556-0.8889-2.7394-1.3176-4.7567-4.0035-6.2222-6.6667-1.6977-3.0852-2.6242-6.701-2.6667-10.222-0.0312-2.5871 0.76248-5.1758 1.7778-7.5556 2.5639-6.0096 6.5563-11.366 10.667-16.444 3.1634-3.9086 7.4165-6.83 10.667-10.667 1.6475-1.9448 2.5986-4.4645 4.4444-6.2222 1.7856-1.7003 6.2222-4 6.2222-4s-18.792 20.392-30.667 27.111c-2.5691 1.4537-5.9032 4.1685-8.4444 2.6667-3.902-2.306-2.6229-8.8011-2.6667-13.333-0.0726-7.5261 0.77132-15.423 4-22.222 2.3437-4.9352 6.4709-8.9452 10.667-12.444 7.903-6.591 17.274-11.351 26.667-15.556 5.2597-2.3542 16.444-5.3333 16.444-5.3333s7.1909-19.64 11.111-29.333c4.3542-10.766 8.4821-21.664 13.778-32 6.6965-13.07 14.472-25.591 22.667-37.778 6.6132-9.8352 13.452-19.593 21.333-28.444 8.014-9.0003 15.889-18.687 26.222-24.889 2.0085-1.2054 6.6667-2.2222 6.6667-2.2222s-0.6196-37.096 0.88889-55.556c0.98805-12.091 2.4075-24.227 5.3333-36 2.4636-9.9132 6.6775-19.309 10.222-28.889 4.8501-13.108 9.7229-26.215 15.111-39.111 1.2526-2.998 2.4362-6.0408 4-8.8889 17.917-32.632 46.178-59.33 61.333-93.333z"
        fill="#00a49d"
        stroke="#000100"
        stroke-width="9"/>

  <g>
    <circle cx="-660" cy="530" r="133.85" fill="#fff" stroke="#000" stroke-width="10"/>
    <circle cx="-440" cy="577.33" r="86.72" fill="#fff" stroke="#000" stroke-width="10"/>
    <ellipse cx="-720" cy="510" rx="35" ry="35"/>
   <ellipse cx="-479" cy="565" rx="22.667" ry="21.778" stroke="#000"/>
  </g>

  <g>
   <path d="m-268.18 646.08s2.9802 8.0943 4.0855 12.257c0.95971 3.6138 1.6071 7.3076 2.1999 10.999 1.2381 7.7103 1.9361 15.498 2.8284 23.256 0.99937 8.6885 1.4261 17.452 2.8284 26.084 0.7907 4.8676 3.1427 14.456 3.1427 14.456s4.5959-1.1349 6.9139-0.94281c3.17 0.26275 6.2359 1.4736 9.1138 2.8284 2.9442 1.3861 5.6682 3.2628 8.171 5.3426 2.5643 2.1309 4.9535 4.5313 6.9139 7.2282 1.8189 2.5022 3.2269 5.3085 4.3998 8.171 0.99294 2.4234 2.1999 7.5425 2.1999 7.5425s-6.6269 9.2447-10.371 13.514c-7.5217 8.5763-15.918 16.353-24.199 24.199-3.985 3.7754-12.257 10.999-12.257 10.999s-1.257 17.858-2.5142 26.713c-0.62957 4.4344-1.4564 8.8471-2.5142 13.199-1.6516 6.7958-5.9711 20.113-5.9711 20.113s-21.022 8.5498-31.741 12.257c-12.84 4.4402-25.892 8.2579-38.969 11.942-14.16 3.9895-28.478 7.3944-42.741 10.999-14.336 3.6236-28.577 7.68-43.055 10.685-18.616 3.864-37.472 6.4727-56.254 9.4281-18.116 2.8507-34.212 6.2527-54.432 8.0092-23.281 2.0224-46.555 6.8406-65.305 4.2473-3.8896-0.53799-7.7221 1.4825-11.628 1.8856-18.567 1.9161-37.276 2.2587-55.94 2.5142-23.886 0.32692-71.653-1.2571-71.653-1.2571s-12.086-31.373-17.913-47.14c-3.9744-10.754-11.628-32.37-11.628-32.37l-26.399 26.399-12.885-4.0855s-10.459-3.2868-21.999-6.2854c-3.9137-1.017-10.999-4.0855-10.999-4.0855s9.6929-17.96 15.399-26.399c6.6904-9.8944 14.094-19.33 21.999-28.284 6.8631-7.7744 14.235-15.124 21.999-21.999 2.2906-2.0282 7.2282-5.6569 7.2282-5.6569s0.20492-24.519 0.62854-36.77c0.348-10.064 0.49021-20.158 1.5713-30.17 0.90042-8.3386 2.1368-16.67 4.0855-24.827 0.48496-2.0301 1.8856-5.9711 1.8856-5.9711s11.852 25.188 19.485 36.77c5.3297 8.087 11.683 15.488 18.228 22.627 7.3595 8.0284 15.329 15.507 23.57 22.627 7.6266 6.5894 15.641 12.742 23.884 18.542 9.745 6.856 19.778 13.341 30.17 19.17 11.4 6.3954 23.152 12.21 35.198 17.285 9.5266 4.0135 19.294 7.5089 29.227 10.371 7.8394 2.2586 15.795 4.2826 23.884 5.3426 7.6926 1.008 15.498 0.86168 23.256 0.94281 10.687 0.11175 21.43 0.52031 32.056-0.62854 12.848-1.3891 25.667-3.7705 38.027-7.5425 12.709-3.8787 24.815-9.5972 36.77-15.399 11.644-5.6511 23.231-11.59 33.941-18.856 9.1798-6.2276 17.437-13.734 25.77-21.056 9.7415-8.5603 19.318-17.343 28.284-26.713 11.296-11.805 21.694-24.45 32.056-37.084 9.8468-12.006 19.928-23.889 28.599-36.77 6.0804-9.0328 11.24-18.665 16.342-28.284 1.8002-3.394 5.0283-10.371 5.0283-10.371z"
         fill="#2e0239"
         stroke="#000500"
         stroke-width="5"/>
   <path d="m-356.21 479.57c8.6948 10.057 16.007 20.027 23.916 30.116 6.8644 8.7565 14.266 17.134 20.428 26.399 11.067 16.64 21.633 33.816 29.541 52.169 4.5109 10.468 6.9974 21.704 10.057 32.684 1.1549 4.1453 1.3495 4.6674 3.1304 12.524"
         fill="none"
         stroke="#000400"
         stroke-width="9"/>
   <path d="m-324.09 518.75c2.4096-14.369 6.3477-41.297 10-53.556 3.557 17.809-1.3918 50.132 1.1111 64.889 1.8164 10.709 16.7-16.048 25.556-25.111-1.8938 13.221-7.1556 27.871-12.222 40.889-6.7449-5.7065-13.333-15.778-24.444-27.111z"
         stroke="#000"
         stroke-linecap="round"
         stroke-linejoin="round"
         stroke-width="10"/>
   <path d="m-590.65 412.16 0.66691-15.707"
         fill="none"
         stroke="#000"
         stroke-linecap="round"
         stroke-width="11.87"/>
  </g>

  <g>
   <path d="m-347.42 779.19s12.149 1.6294 18.228 1.2571c6.6031-0.40437 13.339-1.3238 19.485-3.7712 7.6137-3.0318 14.133-8.3534 20.742-13.199 11.033-8.0899 22.188-16.309 31.427-26.399 1.7272-1.8861 4.3998-6.2854 4.3998-6.2854"
         stroke="#000100"
         stroke-width="9"
         fill="none"
         stroke-linecap="round"/>
   <path d="m-298.67 837.78 36.455-25.77"
         stroke="#000200"
         stroke-width="9"
         fill="none"
         stroke-linecap="round"/>
   <path d="m-772.47 865.24s9.0875-8.3781 14.456-11.314c3.8953-2.1298 8.1703-3.8125 12.571-4.3998 5.8296-0.77807 17.599 1.2571 17.599 1.2571"
         stroke="#000"
         stroke-width="11"
         fill="none"
         stroke-linecap="round"/>
  </g>

  <g>
   <path d="m-386 429 s2.1615-17.279 4-25.778c1.3984-6.4642 3.2872-12.822 5.3333-19.111 2.886-8.871 6.349-17.547 9.7778-26.222 3.9541-10.005 7.8905-20.031 12.444-29.778 3.8147-8.1643 7.8641-16.239 12.444-24 6.7874-11.5 14.292-22.589 22.222-33.333 6.1284-8.3026 12.362-16.601 19.556-24 6.9562-7.1547 14.687-13.563 22.667-19.556 5.6516-4.2441 11.601-8.1199 17.778-11.556 7.008-3.8981 14.051-8.0777 21.778-10.222 9.7585-2.7083 20.147-4.1343 30.222-3.1111 8.3442 0.84737 16.471 3.8592 24 7.5556 7.4519 3.6586 14.317 8.6209 20.444 14.222 5.278 4.8251 9.7415 10.541 13.778 16.444 4.865 7.1151 8.8044 14.854 12.444 22.667 3.2881 7.0575 6.0659 14.364 8.4444 21.778 1.8222 5.6795 3.1399 11.513 4.4444 17.333 0.85789 3.8275 2.2222 11.556 2.2222 11.556"
         fill="none"
         stroke-width="8"
         stroke="#000"/>
   <ellipse cx="-120" cy="320.67" rx="26.222" ry="28"
            fill="#0f0"
            stroke-width="12"
            stroke="#000"/>
  </g>

  <g>
   <ellipse cx="-715" cy="120" rx="26.222" ry="28"
            fill="#0f0"
            stroke="#000"
            stroke-width="12"/>
   <path d="m-520 400 s7.312-18.89 10.667-28.444c2.9955-8.5313 5.8106-17.128 8.4444-25.778 3.1832-10.454 6.3753-20.921 8.8889-31.556 3.4351-14.534 6.4037-29.206 8.4444-44 1.1987-8.6898 1.6612-17.468 2.2222-26.222 0.65437-10.211 1.3635-20.435 1.3333-30.667-0.0354-12.015-0.54279-24.049-1.7778-36-1.1717-11.338-2.4603-22.747-5.3333-33.778-2.2683-8.7088-5.76-17.074-9.3333-25.333-3.683-8.513-7.77-16.877-12.444-24.889-4.4106-7.5594-8.8162-15.269-14.667-21.778-5.6933-6.3344-12.296-11.99-19.556-16.444-10.014-6.1452-20.9-11.594-32.444-13.778-10.485-1.9828-21.469-0.83389-32 0.88889-11.007 1.8007-21.74 5.4029-32 9.7778-10.616 4.5266-20.461 10.733-30.222 16.889-6.2932 3.9684-12.534 8.0931-18.222 12.889-6.8876 5.8073-19.111 19.111-19.111 19.111"
         fill="none"
         stroke="#000"
         stroke-width="12"/>
  </g>

  <g>
   <path d="m657.78 741.78s1.4021-7.6788 1.3333-11.556c-0.0878-4.9439-1.0196-9.8704-2.2222-14.667-1.1852-4.7268-4.8889-13.778-4.8889-13.778s-17.142 2.9859-25.778 4c-11.071 1.2999-22.206 2.0195-33.333 2.6667-8.1398 0.47336-16.291 0.97746-24.444 0.88889-12.762-0.13864-25.531-0.88005-38.222-2.2222-11.627-1.2296-23.198-3.0607-34.667-5.3333-11.067-2.1932-21.94-5.2766-32.889-8-8.7521-2.1769-17.531-4.2592-26.222-6.6667-2.9812-0.82574-7.9155-5.6029-8.8889-2.6667-1.0913 3.2919 7.7369 0.75161 9.7778 3.5556-0.0906 7.0366 0.88889 24.444 0.88889 24.444s26.97 1.9866 40.444 3.1111c14.823 1.2371 29.664 2.3312 44.444 4 15.302 1.7277 30.562 3.8506 45.778 6.2222 16.052 2.5019 32.012 5.561 48 8.4444 13.64 2.46 40.889 7.5556 40.889 7.5556z"
         fill="#fff"
         stroke-linecap="square"
         stroke-linejoin="round"
         stroke="#000"
         stroke-width="9"
         style="paint-order:normal"
         transform="translate(-1118.8 13.418)"/>
   <path d="m433.33 757.33s8.6178 10.657 13.778 15.111c6.6252 5.7188 14.187 10.311 21.778 14.667 7.9883 4.5842 16.333 8.5903 24.889 12 10.402 4.1454 21.089 7.7056 32 10.222 9.044 2.0859 18.287 3.5168 27.556 4 11.105 0.57896 22.417 0.78317 33.333-1.3333 8.6485-1.6767 17.069-4.8324 24.889-8.8889 9.8147-5.0912 19.178-11.409 27.111-19.111 6.3774-6.1921 12.574-13.131 16-21.333 2.7134-6.4958 3.1111-20.889 3.1111-20.889"
         fill="none"
         stroke="#000"
         stroke-width="9"
         stroke-linecap="round"
         transform="translate(-1118.8 13.418)"/>
  </g>

  <path d="m-683.2 767.23s2.3972-5.5252 3.162-8.433c0.86218-3.2777 1.2451-6.6774 1.581-10.055 0.49261-4.9523-0.10051-9.9964 0.63241-14.92 0.18087-1.215 0.92314-3.5678 0.92314-3.5678s24.096 0.60202 38.133 2.3546c13.574 1.6948 24.159 3.232 36.517 4.1323 16.942 1.2342 26.422 2.5809 39.526 4.5408 11.866 1.7748 24.837 3.6305 37.193 5.8202 15.541 2.7543 30.97 6.1113 46.448 9.2018 4.8072 0.95984 5.9468 0.15123 14.417 2.9011 0 0-0.22387 7.3348-1.2306 10.823-1.2327 4.272-3.4145 8.2575-5.7857 12.019-1.9222 3.0491-4.3133 5.7941-6.7686 8.433-3.4293 3.6857-7.1011 7.1762-11.067 10.277-5.517 4.3131-11.422 8.1703-17.588 11.49-5.5525 2.9896-11.313 5.7275-17.357 7.5261-6.1494 1.8299-12.579 2.7548-18.972 3.2434-6.4126 0.49014-12.864-0.0565-19.288-0.32434-6.3212-0.2635-12.701-0.19767-18.938-1.2614-8.3714-1.4279-16.39-4.4593-24.545-6.8292-7.4775-2.173-15.217-3.6675-22.357-6.7753-7.379-3.2119-13.954-8.0227-20.87-12.139-6.5431-3.8945-13.652-7.017-19.511-11.881-3.3613-2.7904-5.9294-6.4206-8.7598-9.7483-1.893-2.2257-5.4949-6.8292-5.4949-6.8292z"
        fill="#8c0003"/>
  <path d="m-628.49 808.32s0.12683-12.971-0.36819-18.89c-0.54499-6.5166-1.218-12.978-1.2571-19.522-0.0446-7.4694 0.45501-14.895 1.2571-22.311 0.51703-4.7808 1.183-9.5414 1.8856-14.293 0.18958-1.282-1.7978 0.32097-0.62854 0.41389 29.863 2.3732 65.538 7.6435 95.944 12.201 2.1379 0.32047 2.4849 3.1332 2.7364 5.5124 0.22256 2.1061-0.23983 4.303-0.94281 6.275-0.41669 1.1688-0.84375 2.6433-1.8856 3.1375-1.6628 0.78867-3.6878-0.2367-5.3426-1.0458-1.5722-0.76875-2.4589-2.8724-4.0855-3.4861-0.69424-0.26194-2.1999 0-2.1999 0s1.2688 9.1087 2.1999 13.596c1.9045 9.1774 4.0388 18.33 6.9139 27.191 1.6678 5.14 3.7317 10.125 5.9711 14.99 1.3236 2.8756 2.622 8.1444 2.622 8.1444s-10.123 3.1765-15.583 4.2138c-7.2462 1.3765-12.876 1.4241-20.221 1.0764-8.0528-0.3812-16.436-0.81518-24.329-2.6278-7.4143-1.7027-14.736-3.8997-21.999-6.2749-3.4952-1.1432-7.023-2.2389-10.371-3.8347-3.2724-1.5598-10.317-4.4666-10.317-4.4666z"
        fill="#f47171"/>

   <g>
    <path d="m-812.03 1016.5c2.6423-4.5491 5.5392-8.9474 8.4444-13.333 3.8808-5.8585 7.945-11.594 12-17.333 4.5316-6.4139 9.3026-12.658 13.778-19.111 3.957-5.7063 7.1531-11.963 11.556-17.333 2.2581-2.7544 7.5556-7.5556 7.5556-7.5556s27.833 2.092 41.778 2.2222c12.896 0.1204 25.783-0.7534 38.667-1.3333 16.008-0.72061 32.024-1.418 48-2.6667 17.665-1.3807 35.28-3.3636 52.889-5.3333 26.552-2.9701 52.887-8.1451 79.556-9.7778 4.4361-0.27159 8.8949 0.23055 13.333 0 7.14-0.37087 14.27-1.1154 21.333-2.2222 17.797-2.7888 35.36-6.9588 52.889-11.111 18.637-4.4148 37.141-9.4008 55.556-14.667 23.699-6.7769 47.387-13.676 70.667-21.778 5.4045-1.8809 16-6.2222 16-6.2222s-3.4462 11.415-5.7778 16.889c-2.1551 5.0596-4.872 9.8664-7.5556 14.667-3.6326 6.4979-7.1925 13.079-11.556 19.111-4.8031 6.6401-10.73 12.391-16 18.667-7.6482 9.1082-14.342 19.061-22.667 27.556-7.6478 7.8044-16.825 13.96-24.889 21.333-6.1081 5.5849-11.993 11.414-17.778 17.333-4.1027 4.1983-8.2863 8.3428-12 12.889-2.4188 2.9609-4.9836 5.9005-6.6667 9.3333-2.0427 4.1663-4.0453 8.6935-4 13.333 0.0426 4.3569 1.8395 8.6606 4 12.444 1.7692 3.0984 4.0056 6.2435 7.1111 8 2.0992 1.1873 4.7346 0.9231 7.1111 1.3334 2.8081 0.4849 5.8296 0.2005 8.4444 1.3333 1.55 0.6715 2.4892 2.3557 4 3.1111 3.0216 1.5108 9.7778 2.6667 9.7778 2.6667s-2.1323 3.7397-3.5556 5.3333c-4.1317 4.6264-9.0415 8.589-14.222 12-4.7036 3.0968-10.028 5.1307-15.111 7.5556-6.4626 3.0831-12.855 6.3657-19.556 8.8888-6.2283 2.3451-12.619 4.3144-19.111 5.7778-7.7464 1.7461-15.665 2.6636-23.556 3.5556-7.8243 0.8845-15.713 1.0693-23.556 1.7778-2.8189 0.2547-8.4444 0.8888-8.4444 0.8888l-29.778-19.111s-0.88889-4.1271-0.88889-6.2222c0-1.0476 0.85733-2.1483 0.44445-3.1111-4.2288-9.8607-17.897-11.899-26.222-18.667-6.2639-5.0918-12.562-10.284-17.778-16.444-3.664-4.3276-7.0991-9.0105-9.3333-14.222-1.7982-4.1947-2.7891-8.7809-3.1111-13.333-0.35676-5.044 0.20382-10.182 1.3333-15.111 1.0264-4.4789 7.2244-8.9318 4.8889-12.889-3.7271-6.3151-14.452-3.4337-21.778-3.1111-7.1442 0.31457-14.191 2.3847-20.889 4.8889-5.6487 2.1118-10.93 5.179-16 8.4445-4.8829 3.145-9.2072 7.0828-13.778 10.667-5.0616 3.9688-10.47 7.5465-15.111 12-3.1073 2.9818-6.0293 6.2122-8.4444 9.7778-2.5268 3.7305-4.8398 7.7115-6.2222 12-1.8834 5.8427-3.0306 12.094-2.6667 18.222 0.33667 5.6682 2.0712 11.286 4.4444 16.444 3.2974 7.1673 8.7431 13.139 13.333 19.556 3.8788 5.4221 5.9608 13.176 12 16 2.5534 1.1939 5.7863-1.3822 8.4444-0.4444 10.883 3.8395 25.778 23.111 25.778 23.111s-2.0705 5.4585-4 7.5555c-4.647 5.0503-11.266 7.9045-17.333 11.111-6.6903 3.5358-13.82 6.1887-20.889 8.8888-7.7465 2.9588-15.563 5.7888-23.556 8-7.4494 2.061-15.075 3.4383-22.667 4.8889-7.9662 1.5221-15.942 3.0792-24 4-7.0789 0.809-21.333 1.3334-21.333 1.3334s-16.219-12.462-23.556-19.556c-1.2826-1.24-3.5556-4-3.5556-4l4.8889-3.5555s-21.32-15.929-30.667-25.333c-5.1215-5.1531-9.3551-11.125-13.778-16.889-4.7805-6.2306-10.049-12.199-13.778-19.111-4.1408-7.6763-7.961-15.831-9.3333-24.444-0.95683-6.0055 0.12919-12.189 0.88889-18.222 0.83119-6.6014 1.7511-13.294 4-19.556 2.7777-7.7342 7.4281-14.672 11.556-21.778z"
          fill="#25aae1"
          stroke="#000"
          stroke-width="3"/>

    <path d="m-401.65 929.26s-5.8683 6.3665-8.4853 9.8479c-1.3744 1.8283-2.9979 3.5707-3.7712 5.7729-0.67306 1.9167-1.0406 4.1114-0.62854 6.1125 0.47998 2.3308 1.7276 4.6259 3.457 6.1125 2.074 1.7827 4.9265 2.2579 7.5425 2.7166 5.894 1.0335 11.949 0.3062 17.913 0 4.4147-0.22665 8.8116-0.78526 13.199-1.3583 7.8834-1.0296 15.795-1.9945 23.57-3.7354 5.524-1.2368 10.814-3.5382 16.342-4.7542 4.4568-0.98029 9.0348-1.1825 13.514-2.0375 1.477-0.28196 4.3998-1.0188 4.3998-1.0188"
          stroke-width="3.1185"
          fill="none"
          stroke="#000"/>
    <path d="m-806.48 1008.3s10.759 0.076 16.134-0.1111c7.6868-0.2674 15.37-0.737 23.029-1.4445 4.5611-0.4213 9.1228-0.9086 13.64-1.6666 4.3616-0.7319 8.6534-1.8318 12.974-2.7778 4.1407-0.9067 8.3335-1.6139 12.409-2.7778 4.7513-1.3568 9.4183-3.0243 13.994-4.8889 3.8024-1.5495 7.5-3.3538 11.156-5.2222 2.377-1.2147 4.7584-2.4403 7.0005-3.8889 2.7602-1.7833 5.5678-3.5804 7.9066-5.8889 2.2903-2.2606 4.3556-4.8339 5.8671-7.6667 1.0511-1.9699 1.7233-4.1469 2.1438-6.3333 0.13315-0.69237 0.11282-2.1111 0.11282-2.1111"
          stroke-width="3"
          fill="none"
          stroke="#000"/>
    <path d="m-812.03 1016.5s12.172 0.097 18.252-0.1418c8.6956-0.3411 17.387-0.9398 26.051-1.8421 5.1598-0.5373 10.32-1.1587 15.43-2.1254 4.934-0.9333 9.7891-2.3359 14.676-3.5425 4.6842-1.1562 9.4273-2.0581 14.038-3.5424 5.3748-1.7302 10.654-3.8567 15.831-6.2347 4.3015-1.9759 8.4844-4.2769 12.621-6.6598 2.689-1.5491 5.3829-3.1119 7.9193-4.9594 3.1225-2.2742 6.2985-4.5659 8.9443-7.51 2.5908-2.8829 4.9273-6.1644 6.6371-9.777 1.189-2.5123 1.9494-5.2884 2.4251-8.0768 0.15063-0.88288 0.12763-2.6922 0.12763-2.6922"
          stroke-dasharray="8, 8"
          stroke-width="2"
          fill="none"
          stroke="#000"/>
    <path d="m-412.24 934.45s-6.0062 7.0609-8.6847 10.922c-1.4067 2.0277-3.0684 3.9601-3.8598 6.4025-0.68888 2.1257-1.0651 4.5597-0.64331 6.7791 0.49125 2.585 1.7682 5.1304 3.5382 6.7791 2.1227 1.9771 5.0423 2.5042 7.7197 3.0129 6.0325 1.1462 12.23 0.33959 18.334 0 4.5184-0.25132 9.0186-0.87084 13.509-1.5064 8.0687-1.1419 16.166-2.212 24.124-4.1428 5.6538-1.3717 11.068-3.9241 16.726-5.2726 4.5615-1.0872 9.2471-1.3115 13.831-2.2597 1.5117-0.31276 4.5032-1.1299 4.5032-1.1299"
          stroke-dasharray="7.55720711, 7.55720711"
          stroke-width="1.8893"
          fill="none"
          stroke="#000"/>
    <path d="m-587.72 959.83s-3.3542 4.3778-4.8889 6.6667c-1.7404 2.5957-3.6011 5.1525-4.8889 8-0.92686 2.0494-2.1828 4.2027-2 6.4444 0.16154 1.981 1.4515 3.7605 2.6667 5.3333 0.96283 1.2462 2.277 2.1917 3.5556 3.1111 1.6709 1.2016 5.3333 3.1111 5.3333 3.1111"
          stroke-width="3"
          fill="none"
          stroke="#000"/>
    <path d="m-594.72 987.35s6.9884-0.551 10.444-1.1111c2.3952-0.38818 4.7474-1.0072 7.1111-1.5556 3.9377-0.91347 7.9182-1.6872 11.778-2.8889 3.783-1.1778 7.4574-2.6898 11.111-4.2222 3.7595-1.5768 7.65-2.9569 11.111-5.1111 3.8894-2.4208 7.2955-5.5646 10.667-8.6667 3.8551-3.5474 10.889-11.333 10.889-11.333"
          stroke-dasharray="8, 8"
          stroke-width="2"
          fill="none"
          stroke="#000"/>

    <path d="m-778.34 968.7s23.247 2.0919 34.905 2.2222c14.382 0.1609 28.741-1.1757 43.111-1.7777 13.926-0.5835 27.871-0.842 41.778-1.7778 22.563-1.5182 45.076-3.7585 67.556-6.2222 25.682-2.8149 51.298-6.2276 76.889-9.7778 22.704-3.1497 45.45-6.1152 68-10.222 16.695-3.0406 33.241-6.8596 49.778-10.667 19.924-4.5869 39.835-9.2734 59.556-14.667 13.879-3.7956 27.483-8.5461 41.333-12.444 4.2678-1.2012 12.867-3.3715 12.867-3.3715s4.006-7.7606 5.8001-11.74c1.4475-3.2102 2.8422-6.4522 4-9.7778 1.0801-3.1023 2.7399-9.4662 2.7399-9.4662s-18.014 7.4876-27.184 10.8c-13.043 4.7105-26.271 8.9093-39.556 12.889-13.978 4.1875-28.075 7.9809-42.222 11.556-10.174 2.5707-20.42 4.8475-30.667 7.1111-14.782 3.2655-29.611 6.3121-44.444 9.3333-11.246 2.2905-22.435 4.9223-33.778 6.6667-47.88 7.3633-96.168 11.988-144.44 16-18.631 1.5482-37.312 2.5924-56 3.1111-16.734 0.4645-33.508 0.9343-50.222 0-7.9632-0.4451-23.778-2.6667-23.778-2.6667s-4.0584 5.2905-6 8c-1.9866 2.7723-4.046 5.5062-5.7778 8.4445-1.5992 2.7132-4.238 8.4444-4.238 8.4444z"
          fill="#4c494d"
          stroke="#000"
          stroke-width="1px"/>
    <path d="m-293.46 898c-1.7501 2.1106-5.1111 6.4445-5.1111 6.4445l16-4.4445s2.8732-4.2591 4.2222-6.4444c1.3948-2.2595 2.7205-4.5622 4-6.8889 1.0058-1.8289 1.2149-4.2123 1.7778-6.2222 0.60058-2.1447 1.5669-3.7729 1.5556-6-5e-3 -0.9658 0.98442-5.4281 0.98442-5.4281l-13.429 5.4281s0.65705 4.7588 0.44444 6c-0.22546 1.3162-0.75793 2.5727-1.3333 3.7777-0.9744 2.0407-1.7352 4.2773-2.8889 6.2223-0.91405 1.5409-2.2973 2.7605-3.3333 4.2222-0.85026 1.1995-1.9504 2.2015-2.8889 3.3333z"
          fill="#0e75ba"
          stroke="#2c3e50"
          stroke-width="1px"/>
    <path d="m-415.93 934.46 23.884-5.0009s3.2186-3.1463 4.8712-4.6676c1.8539-1.7065 3.8026-3.2948 5.6569-5.0009 2.1853-2.0107 4.4919-3.9018 6.4425-6.1678 0.70641-0.8207 1.5214-1.6252 1.8856-2.6672 0.27372-0.7833 0.31245-1.6816 0.15714-2.5005-0.18481-0.9745-0.6962-1.8709-1.2571-2.6672-0.64333-0.9133-2.357-2.3337-2.357-2.3337l-22.942 6.0011s2.0365 1.9871 2.357 3.334c0.2593 1.0895-0.0679 2.2949-0.47141 3.3339-0.37115 0.9557-1.1069 1.7046-1.7285 2.5005-1.3712 1.756-2.81 3.4663-4.3998 5.0009-2.3479 2.2665-5.1398 3.967-7.5425 6.1679-1.5981 1.4639-4.5569 4.6675-4.5569 4.6675z"
          fill="#25aae1"
          stroke="#2c3e50"
          stroke-width="1.03px"/>

    <ellipse transform="matrix(.97103 -.23894 .10932 .99401 0 0)" cx="-555.42" cy="804.5" rx="8.4476" ry=".38719" fill="#25aae1" stroke="#000" stroke-linecap="round" stroke-linejoin="round" stroke-width="3.2626" style="paint-order:normal"/>

    <path d="m-619.43 949.67c3.8764-2.8477 7.2923-6.3178 11.314-8.9567 1.391-0.9128 2.894-1.6493 4.3998-2.357 1.382-0.64953 2.7938-1.2459 4.2426-1.7285 2.1576-0.71862 4.3725-1.2687 6.5997-1.7285 2.3868-0.49274 4.8054-0.83599 7.2282-1.0999 6.3142-0.68791 12.684-0.72271 19.013-1.2571 5.614-0.474 11.217-1.0767 16.813-1.7285 8.8667-1.0327 17.708-2.275 26.556-3.457 7.6507-1.022 15.28-2.205 22.942-3.1427 5.3338-0.65279 10.658-1.5325 16.028-1.7285 3.0377-0.11086 6.2632-0.74119 9.1138 0.31427 0.94355 0.34936 1.7964 1.0502 2.357 1.8856 0.5172 0.77069 0.84525 1.7451 0.78568 2.6713-0.0918 1.4277-0.92076 2.7476-1.7285 3.9284-1.3383 1.9564-3.199 3.521-5.0283 5.0283-2.2423 1.8476-4.7499 3.3546-7.2282 4.8712-2.3997 1.4684-4.7954 2.9869-7.3853 4.0855-2.471 1.0482-5.1052 1.6691-7.6996 2.357-2.0758 0.5504-4.1717 1.0348-6.2854 1.4142-10.04 1.8022-20.201 2.8604-30.327 4.0855-12.185 1.4742-24.404 2.6594-36.612 3.9284-8.8489 0.91978-17.716 1.669-26.556 2.6713-5.4031 0.61263-10.776 1.4824-16.185 2.0428-3.868 0.40071-7.3283 0.49695-11.628 0.94281-1.1426 0.11849-2.1414-1.2705-2.5142-2.357-0.32697-0.95298-0.39261-2.4673 0.47141-2.9856 4.3277-2.5959 7.6374-4.9988 11.314-7.6996z"
          fill="#9b9b9b"
          stroke="#2c3e50"
          stroke-width="1px"/>
    <path d="m-589.7 951 s7.1872-6.4114 11.157-9.1138c1.2406-0.8446 2.5106-1.7077 3.9284-2.1999 2.2046-0.76531 4.6064-0.7516 6.9139-1.1 3.6622-0.55286 7.3238-1.1163 10.999-1.5713 6.481-0.80237 12.992-1.3447 19.485-2.0428 6.1824-0.66463 12.36-1.3768 18.542-2.0428 4.9746-0.53585 9.9438-1.1312 14.928-1.5714 1.4646-0.12936 2.9515-0.56803 4.3998-0.31427 0.50813 0.089 1.4142 0.62854 1.4142 0.62854s-1.0376 1.2655-1.5714 1.8856c-0.41145 0.47803-0.71102 1.0986-1.2571 1.4142-1.343 0.77622-3.0206 0.72916-4.5569 0.94281-3.589 0.49911-7.233 0.46412-10.842 0.78568-5.4561 0.4861-11.202 1.0933-16.342 1.7285-1.1967 0.14787-2.4904 0.94329-2.9856 2.0428-0.17342 0.38503-0.0374 0.88225 0.15714 1.2571 0.35865 0.69114 2.0524 0.87905 2.8284 0.94281 4.7459 0.38992 9.4823-0.50687 14.771-1.0999 2.7247-0.30556 5.4518-0.59177 8.171-0.94281 0.73464-0.0948 1.7983-0.93671 2.1999-0.31427 0.37024 0.57386-0.57424 1.2926-1.1 1.7285-0.65139 0.54013-1.5591 0.66101-2.357 0.94281-1.3435 0.4745-2.6885 0.97679-4.0855 1.2571-4.7472 0.95246-9.6353 0.96696-14.456 1.4142-5.9684 0.55369-11.944 1.0286-17.913 1.5714-8.9069 0.8098-17.803 1.7385-26.713 2.5142-5.2348 0.45571-15.713 1.2571-15.713 1.2571z"
          fill="#4c494d"
          stroke="#2c3e50"
          stroke-width="1px"/>

    <ellipse transform="matrix(.99792 -.064475 .10721 .99424 0 0)" cx="-767.86" cy="912.42" rx="8.22" ry=".39482" fill="#25aae1" stroke="#000" stroke-linecap="round" stroke-linejoin="round" stroke-width="3.25" style="paint-order:normal"/>

    <path d="m-669.15 963.62c-0.25985-1.5032-0.22157-3.1479 0.31427-4.5701 0.73335-1.9465 2.3221-3.4463 3.7712-4.8966 2.5348-2.5368 5.5138-4.5688 8.4853-6.5287 2.6114-1.7224 8.171-4.5702 8.171-4.5702s-14.537-2.4187-21.37-0.3264c-3.9852 1.2202-7.1183 4.4964-10.371 7.1816-1.9145 1.5806-3.7731 3.2749-5.3426 5.223-1.846 2.2915-3.8138 4.6703-4.714 7.5081-0.55834 1.7599-0.31427 5.5494-0.31427 5.5494l22.942-0.9793s-1.3476-2.2967-1.5714-3.5908z"
          fill="#25aae1"
          stroke="#2c3e50"
          stroke-width="1.0192px"/>

    <path d="m-776.09 963.91c0.85175-2.4488 1.9166-4.8325 3.22-7.0472 1.1054-1.8782 2.4786-3.5716 3.864-5.2285 1.6771-2.0058 3.4726-3.9072 5.3667-5.6833 1.5647-1.4671 4.9374-4.0919 4.9374-4.0919l7.728 0.682s0.94367 1.846 0.644 2.728c-0.57176 1.6827-2.8745 1.9287-4.0787 3.1826-2.4389 2.5396-4.6009 5.4508-6.2254 8.6384-1.3327 2.6153-1.791 5.6344-2.7907 8.4112-0.46865 1.3017-1.5027 3.8646-1.5027 3.8646l-12.451-0.2273s0.70012-3.5384 1.288-5.2286z"
          fill="#acd8f4"
          stroke="#2c3e50"
          stroke-width=".99408px"/>
    <ellipse transform="matrix(.9921 -.12546 .055006 .99849 0 0)" cx="-751.94" cy="864.52" rx="5.3028" ry=".49352" fill="#25aae1" stroke="#000" stroke-linecap="round" stroke-linejoin="round" stroke-width="2.9184" style="paint-order:normal"/>
    <path d="m-345.28 961.18s-5.731 6.7161-8.7931 9.8922c-4.0468 4.1974-8.3491 8.1431-12.64 12.09-4.68 4.3053-9.6916 8.2464-14.289 12.64-5.9004 5.639-11.569 11.527-17.037 17.586-4.0068 4.4406-8.8928 8.3763-11.541 13.739-2.2433 4.5431-3.8021 9.7967-3.2974 14.838 0.53916 5.3857 3.9221 10.132 6.5948 14.838 1.8823 3.3147 4.2527 6.3351 6.5948 9.3426 2.0754 2.665 4.2064 5.3054 6.5948 7.6939 2.7478 2.7479 2.7478 2.7479 2.7478 2.7479"
          fill="none"
          stroke="#000"
          stroke-dasharray="6, 6"
          stroke-width="2"/>
    <path d="m-792.48 1015.6s-6.2341 7.8144-8.7931 12.09c-3.0293 5.0619-5.5497 10.442-7.6939 15.937-2.296 5.8847-4.5697 11.887-5.4957 18.136-0.96672 6.5236-1.2271 13.305 0 19.784 1.0254 5.4147 3.3745 10.567 6.0452 15.388 2.983 5.3841 7.1245 10.049 10.991 14.838 5.0558 6.2615 10.433 12.265 15.937 18.136 4.2527 4.5359 8.7398 8.847 13.19 13.19 3.802 3.7104 11.541 10.991 11.541 10.991"
          fill="none"
          stroke="#000"
          stroke-dasharray="8, 8"
          stroke-width="2"/>

    <ellipse transform="matrix(.98845 -.15154 0 1 0 0)" cx="-794.2" cy="896.1" rx="11.842" ry="3.4666" fill="#fbdd29" stroke="#000" stroke-linecap="round" stroke-linejoin="round" stroke-width="1.5087" style="paint-order:normal"/>
    <ellipse transform="matrix(.98182 -.18984 0 1 0 0)" cx="-362.16" cy="893.23" rx="14.27" ry="3.4416" fill="#fed90d" stroke="#000" stroke-linecap="round" stroke-linejoin="round" stroke-width="1.5138" style="paint-order:normal"/>

    <path d="m-695.84 1181.1c-8.1541-15.474 36.355-48.355 41.792-31.731 3.446 10.537 3.4028 15.558 6.5782 22.804 2.6292 5.9994 6.4682 11.412 10.191 16.801 3.8649 5.5951 6.619 12.62 12.569 16.069 14.32 8.3013-20.643 31.248-37.023 28.865-3.6808-6.3571-8.1282-11.23-11.913-17.033-4.4334-6.7972-8.3421-13.924-12.633-20.812-3.1294-5.0241-7.6691-11.372-9.5613-14.963z"
          fill="#00a49d"
          stroke="#000200"
          stroke-width="9"/>
    <path d="m-749.49 1180.6c4.2383 3.5743 7.8966 8.5287 13.212 10.104 8.0967 2.3989 16.886-0.8437 25.259-1.943 7.7081-1.012 15.315-2.6957 22.928-4.2746 4.5537-0.9445 9.0715-2.0548 13.601-3.1089 4.9268-1.1465 9.9106-2.0818 14.767-3.4974 6.0566-1.7655 12.104-3.6706 17.876-6.2176 6.4693-2.8548 12.668-6.3381 18.653-10.104 3.9256-2.4699 7.59-5.3372 11.269-8.1607 2.1185-1.6257 4.3047-3.1885 6.2176-5.0518 0.8555-0.8333 2.4013-1.528 2.3316-2.7202-0.26739-4.5756-6.69-6.268-10.104-9.3265-5.881-5.2692-17.876-15.544-17.876-15.544s-6.2068 3.3881-9.3265 5.0518c-5.1636 2.7538-10.297 5.5695-15.544 8.1607-5.2484 2.5918-10.517 5.1629-15.933 7.3834-6.748 2.7666-13.758 4.8486-20.596 7.3835-6.1128 2.2659-11.986 5.2383-18.264 6.9948-12.552 3.5118-25.631 4.7576-38.472 6.9949-5.4336 0.9467-16.321 2.7202-16.321 2.7202s10.646 10.369 16.321 15.156z"
          fill="#bcbdc0"
          stroke="#000"
          stroke-width="2"/>
    <path d="m-471.66 1112.1c-2.124-14.048 47.796-20.152 47.153-6.3361-0.40784 8.7564-2.0858 12.282-1.657 18.613 0.35498 5.2421 1.9666 10.535 3.4836 15.766 1.5749 5.4312 1.705 11.444 5.8161 16.163 9.8944 11.355-28.378 14.117-42.019 6.146-1.1639-5.8983-3.4874-11.044-4.924-16.591-1.6827-6.4977-2.7959-13.026-4.323-19.533-1.1139-4.7461-3.0368-10.968-3.5297-14.228z"
          fill="#00a49d"
          stroke="#000200"
          stroke-width="7.7757"/>
    <path d="m-502.2 1103.6c6.0665 3.5347 11.448 8.8082 18.264 10.492 6.7953 1.6788 14.005-0.2417 20.985-0.7772 7.8018-0.5986 15.604-1.3949 23.316-2.7202 7.4636-1.2826 14.918-2.8074 22.15-5.0518 7.7191-2.3953 15.161-5.638 22.539-8.9379 6.6101-2.9566 13.394-5.7157 19.43-9.7151 5.8212-3.8567 11.191-8.4752 15.933-13.601 1.1964-1.2933 3.1088-4.2746 3.1088-4.2746s-8.4565-1.8511-12.435-3.4974c-3.4296-1.4191-9.7151-5.4405-9.7151-5.4405s-4.7528 1.3248-6.9948 2.3316c-4.4996 2.0206-8.3243 5.3628-12.824 7.3835-6.7261 3.0205-14.004 4.6207-20.985 6.9949-6.3605 2.1633-12.542 4.9049-19.042 6.6062-6.3663 1.6665-12.935 2.4369-19.43 3.4974-9.6907 1.5824-19.401 3.0652-29.145 4.2747-7.6234 0.9462-16.748 6.8947-22.928 2.3316-1.594-1.177 0.63271-4.9974-1.1658-5.8291-1.2105-0.5598-2.6319 0.9284-3.4974 1.9431-0.98393 1.1535-1.9394 2.8081-1.5544 4.2746 0.60641 2.3102 3.4981 3.2731 5.4404 4.6632 2.6918 1.9264 5.6892 3.3855 8.5493 5.0519z"
          fill="#bbbcbf"
          stroke="#000"
          stroke-width="2"/>
   </g>

  <g>
   <path d="m185.15 1339.8c7.0611-5.3415 14.179-12.526 22.726-13.654 1.4892-0.1965 3.0564 0.3964 4.1321 1.3114 0.90887 0.773 1.285 2.0443 1.589 3.2127 0.53629 2.0612-0.26898 4.4467 0.35648 6.4765 0.66247 2.15 2.1868 3.8933 3.4908 5.6948 2.2825 3.1533 4.8094 6.1387 7.551 8.9054 1.3768 1.3894 2.4433 3.5187 4.4481 3.8434 1.0448 0.1693 2.0734-1.3017 3.1156-1.1226 1.3612 0.2338 1.5927 3.0762 2.9717 2.6759 6.8721-1.9949 12.394-4.3146 18.437-4.9825 6.0797-0.6719 12.158-2.5159 18.218-2.5474 4.7222-0.025 9.3932 0.7106 13.87 1.8391 3.3372 0.8412 6.6631 1.9153 9.5562 3.6443 3.1182 1.8636 5.7605 4.421 8.1579 7.1032 2.3245 2.6005 4.5204 5.4101 5.9462 8.6145 1.4445 3.246 2.5396 6.8101 2.5179 10.468-0.0142 2.3885-0.73277 4.8437-1.7269 7.1113-1.7998 4.1051-4.6363 7.8059-7.4952 11.353-2.8957 3.5925-6.2119 6.8822-9.691 9.9425-5.0958 4.4823-10.495 8.6963-16.273 12.237-9.3833 5.7499-19.34 10.632-29.567 14.439-6.3366 2.3592-12.899 4.174-19.488 5.1294-4.1128 0.5964-8.3094 0.8453-12.337 0.3511-3.8136-0.4678-7.6084-1.4136-10.939-3.1076-3.1772-1.616-6.0638-3.859-8.3049-6.5672-1.9884-2.4029-3.105-5.4392-4.3416-8.3238-1.36-3.1725-2.8748-6.3598-3.3656-9.8342-0.49226-3.4851-0.16155-7.1516 0.46948-10.714 0.69244-3.9089 2.7479-7.6039 3.6038-11.496 0.28003-1.2731 0.87643-2.6585 0.49437-3.8475-0.60849-1.8936-3.2718-2.4466-4.1164-4.2333-0.76055-1.6088-1.2189-3.6086-0.65055-5.405 0.60166-1.9016 4.1417-2.7587 3.979-4.6782-0.2376-2.804-4.0667-3.987-6.7909-4.7181-0.71645-0.1922-1.6238 0.4583-2.2867 0.148-1.0469-0.49-1.0581-2.0769-1.9206-2.8229-1.8122-1.5675-4.3242-2.1927-6.5314-3.2086-1.4873-0.6846-3.5145-0.6863-4.52-1.9442-1.1123-1.3914-1.5166-3.5375-1.0009-5.3559 0.67852-2.3923 3.2063-3.9913 4.9738-5.8479 3.3835-3.5539 6.8228-7.1245 10.742-10.089z"
         fill="#ff0"
         stroke="#000300"
         stroke-width="5.9938"
         transform="matrix(-.23884 1.319 1.202 .38374 -2221.5 446.54)"/>
    <path d="m190.07 1419.2c1.3627 3.8093 2.4198 7.8369 4.6172 11.193 1.7688 2.7018 4.091 5.0788 6.7377 6.9581 3.2805 2.3294 7.0091 4.2759 11.051 5.1528 4.3426 0.9422 9.0439 0.4628 13.592-0.011 5.9193-0.6171 11.869-1.8192 17.627-3.667 4.9302-1.5821 9.5774-4.0927 14.305-6.2939 4.1052-1.9114 8.2691-3.7253 12.203-6 5.4935-3.1765 10.797-6.7406 15.832-10.629 4.3871-3.3888 8.6118-7.0329 12.456-11.016 3.3241-3.444 6.6764-6.9912 9.0999-11.062 1.7929-3.0117 3.2176-6.3009 3.8822-9.6454 0.6019-3.0298 0.62389-6.1803 0.0283-9.1066-0.5109-2.5104-1.5843-4.902-3.0309-6.9612-1.2078-1.7192-5.7194-8.254-4.5924-4.3269 0.67825 2.3631 1.351 4.4178 1.0169 6.716-0.35772 2.4611-1.8887 4.732-3.147 6.9664-1.835 3.2588-3.978 6.3881-6.3722 9.3066-3.6324 4.4279-7.7003 8.5488-12.031 12.33-3.6582 3.1945-7.6353 6.0323-11.702 8.6779-4.4047 2.8653-9.0688 5.2907-13.695 7.7543-4.2422 2.2592-8.457 4.6274-12.885 6.4388-6.101 2.4959-12.371 4.6235-18.731 6.0541-5.3855 1.2113-10.9 2.2655-16.3 2.1075-3.0114-0.088-6.0636-0.5422-8.7429-1.6971-1.9738-0.8508-3.5048-2.41-5.1488-3.7455-2.1214-1.7233-7.893-10.594-6.0687-5.4944z"
          fill="#430038"
          stroke="#000"
          stroke-width="4.9949"
          transform="matrix(-.23884 1.319 1.202 .38374 -2221.5 446.54)"/>
    <path d="m192.04 1372c-0.70006 0.5771 0.36071 1.8049-0.0934 2.5777-0.67739 1.1526-2.8026 1.0089-3.4097 2.1942-0.78779 1.5381-0.11223 3.401 0.44724 4.9181 0.85092 2.3075 4.2692 5.941 4.2692 5.941s5.2627 0.01 7.8519-0.5943c3.7038-0.8601 7.3343-2.368 10.711-4.2456 3.0024-1.6696 5.7681-3.8197 8.3115-6.1428 2.6538-2.4242 5.0779-5.1322 7.1478-8.0411 1.4108-1.9827 2.6164-4.1194 3.5349-6.3336 1.0052-2.4229 3.7352-5.6603 2.1175-7.4979-0.21908-0.2488-0.70072 0.1354-1.051 0.147-1.0964 0.036-2.2094 0.01-3.2497-0.2442-1.6151-0.3923-3.3447-0.8395-4.52-1.9441-1.0405-0.9779-1.9179-3.8422-1.9179-3.8422-0.34584 3.2189-0.0702 6.6178-1.47 9.64-1.3411 2.8957-4.2371 5.3161-6.3002 7.4073-3.6874 3.7376-5.7325 4.623-9.5845 5.4621-2.9349 0.6394-5.8481 1.241-8.7586 1.2248-1.3798-0.01-2.9289-1.5389-4.0357-0.6264z"
          fill="#440039"
          stroke="#020000"
          stroke-width="3.9959"
          transform="matrix(-.23884 1.319 1.202 .38374 -2221.5 446.54)"/>
    <path d="m185.15 1339.8c3.2103-2.7073 6.4154-5.4627 9.9291-7.7546 2.8865-1.8828 5.8814-3.7032 9.0872-4.8773 1.5786-0.5781 3.2936-1.2766 4.8861-1.0267 1.3732 0.2155 2.7215 0.9813 3.469 2.0911 0.90018 1.3366 0.69577 3.2143 0.79755 4.8691 0.0771 1.2539-0.14391 3.7986-0.14391 3.7986-0.11657 3.076 2.822 5.2627 4.6543 7.593 1.2727 1.6185 3.6678 2.4226 4.36 4.3825 0.86112 2.4382 0.24901 5.4118-0.67856 7.9837-0.96851 2.6854-2.905 5.072-4.8988 7.2113-2.4447 2.6231-5.244 5.1166-8.4585 6.6786-2.7749 1.3484-5.8917 1.9242-8.887 2.1014-2.4614 0.1456-4.937-0.1806-7.2263-0.8672-2.128-0.6382-3.7164-2.4014-5.8709-2.969-1.1225-0.2958-2.5264 0.3322-3.541-0.1919-1.2287-0.6347-1.4142-2.3946-2.4743-3.2607-2.7262-2.2274-7.4747-1.885-9.6125-4.667-1.0187-1.3257-1.3691-3.2929-0.98206-5.0151 0.34554-1.5374 1.738-2.7441 2.781-3.9955 1.3151-1.5772 2.8608-2.9615 4.3481-4.3864 2.7524-2.6369 5.5456-5.239 8.4612-7.6979z"
          fill="#51d200"
          stroke="#000"
          stroke-width="4.9949"
          transform="matrix(-.23884 1.319 1.202 .38374 -2221.5 446.54)"/>
  </g>

  <ellipse cx="-590" cy="1275" rx="16.205" ry="15.351"
           fill="#f00"
           stroke="#000"
           stroke-linecap="round"
           stroke-width="10.848"/>

   <g>
    <path d="m185.15 1339.8c7.0611-5.3415 14.179-12.526 22.726-13.654 1.4892-0.1965 3.0564 0.3964 4.1321 1.3114 0.90887 0.773 1.285 2.0443 1.589 3.2127 0.53629 2.0612-0.26898 4.4467 0.35648 6.4765 0.66247 2.15 2.1868 3.8933 3.4908 5.6948 2.2825 3.1533 4.8094 6.1387 7.551 8.9054 1.3768 1.3894 2.4433 3.5187 4.4481 3.8434 1.0448 0.1693 2.0734-1.3017 3.1156-1.1226 1.3612 0.2338 1.5927 3.0762 2.9717 2.6759 6.8721-1.9949 12.394-4.3146 18.437-4.9825 6.0797-0.6719 12.158-2.5159 18.218-2.5474 4.7222-0.025 9.3932 0.7106 13.87 1.8391 3.3372 0.8412 6.6631 1.9153 9.5562 3.6443 3.1182 1.8636 5.7605 4.421 8.1579 7.1032 2.3245 2.6005 4.5204 5.4101 5.9462 8.6145 1.4445 3.246 2.5396 6.8101 2.5179 10.468-0.0142 2.3885-0.73277 4.8437-1.7269 7.1113-1.7998 4.1051-4.6363 7.8059-7.4952 11.353-2.8957 3.5925-6.2119 6.8822-9.691 9.9425-5.0958 4.4823-10.495 8.6963-16.273 12.237-9.3833 5.7499-19.34 10.632-29.567 14.439-6.3366 2.3592-12.899 4.174-19.488 5.1294-4.1128 0.5964-8.3094 0.8453-12.337 0.3511-3.8136-0.4678-7.6084-1.4136-10.939-3.1076-3.1772-1.616-6.0638-3.859-8.3049-6.5672-1.9884-2.4029-3.105-5.4392-4.3416-8.3238-1.36-3.1725-2.8748-6.3598-3.3656-9.8342-0.49226-3.4851-0.16155-7.1516 0.46948-10.714 0.69244-3.9089 2.7479-7.6039 3.6038-11.496 0.28003-1.2731 0.87643-2.6585 0.49437-3.8475-0.60849-1.8936-3.2718-2.4466-4.1164-4.2333-0.76055-1.6088-1.2189-3.6086-0.65055-5.405 0.60166-1.9016 4.1417-2.7587 3.979-4.6782-0.2376-2.804-4.0667-3.987-6.7909-4.7181-0.71645-0.1922-1.6238 0.4583-2.2867 0.148-1.0469-0.49-1.0581-2.0769-1.9206-2.8229-1.8122-1.5675-4.3242-2.1927-6.5314-3.2086-1.4873-0.6846-3.5145-0.6863-4.52-1.9442-1.1123-1.3914-1.5166-3.5375-1.0009-5.3559 0.67852-2.3923 3.2063-3.9913 4.9738-5.8479 3.3835-3.5539 6.8228-7.1245 10.742-10.089z"
          fill="#ff0"
          stroke="#000300"
          stroke-width="5.9938"
          transform="matrix(-.80157 1.0744 .90506 .87913 -1501.6 -230.07)"/>
    <path d="m190.07 1419.2c1.3627 3.8093 2.4198 7.8369 4.6172 11.193 1.7688 2.7018 4.091 5.0788 6.7377 6.9581 3.2805 2.3294 7.0091 4.2759 11.051 5.1528 4.3426 0.9422 9.0439 0.4628 13.592-0.011 5.9193-0.6171 11.869-1.8192 17.627-3.667 4.9302-1.5821 9.5774-4.0927 14.305-6.2939 4.1052-1.9114 8.2691-3.7253 12.203-6 5.4935-3.1765 10.797-6.7406 15.832-10.629 4.3871-3.3888 8.6118-7.0329 12.456-11.016 3.3241-3.444 6.6764-6.9912 9.0999-11.062 1.7929-3.0117 3.2176-6.3009 3.8822-9.6454 0.6019-3.0298 0.62389-6.1803 0.0283-9.1066-0.5109-2.5104-1.5843-4.902-3.0309-6.9612-1.2078-1.7192-5.7194-8.254-4.5924-4.3269 0.67825 2.3631 1.351 4.4178 1.0169 6.716-0.35772 2.4611-1.8887 4.732-3.147 6.9664-1.835 3.2588-3.978 6.3881-6.3722 9.3066-3.6324 4.4279-7.7003 8.5488-12.031 12.33-3.6582 3.1945-7.6353 6.0323-11.702 8.6779-4.4047 2.8653-9.0688 5.2907-13.695 7.7543-4.2422 2.2592-8.457 4.6274-12.885 6.4388-6.101 2.4959-12.371 4.6235-18.731 6.0541-5.3855 1.2113-10.9 2.2655-16.3 2.1075-3.0114-0.088-6.0636-0.5422-8.7429-1.6971-1.9738-0.8508-3.5048-2.41-5.1488-3.7455-2.1214-1.7233-7.893-10.594-6.0687-5.4944z"
          fill="#430038"
          stroke="#000"
          stroke-width="4.9949"
          transform="matrix(-.80157 1.0744 .90506 .87913 -1501.6 -230.07)"/>
    <path d="m192.04 1372c-0.70006 0.5771 0.36071 1.8049-0.0934 2.5777-0.67739 1.1526-2.8026 1.0089-3.4097 2.1942-0.78779 1.5381-0.11223 3.401 0.44724 4.9181 0.85092 2.3075 4.2692 5.941 4.2692 5.941s5.2627 0.01 7.8519-0.5943c3.7038-0.8601 7.3343-2.368 10.711-4.2456 3.0024-1.6696 5.7681-3.8197 8.3115-6.1428 2.6538-2.4242 5.0779-5.1322 7.1478-8.0411 1.4108-1.9827 2.6164-4.1194 3.5349-6.3336 1.0052-2.4229 3.7352-5.6603 2.1175-7.4979-0.21908-0.2488-0.70072 0.1354-1.051 0.147-1.0964 0.036-2.2094 0.01-3.2497-0.2442-1.6151-0.3923-3.3447-0.8395-4.52-1.9441-1.0405-0.9779-1.9179-3.8422-1.9179-3.8422-0.34584 3.2189-0.0702 6.6178-1.47 9.64-1.3411 2.8957-4.2371 5.3161-6.3002 7.4073-3.6874 3.7376-5.7325 4.623-9.5845 5.4621-2.9349 0.6394-5.8481 1.241-8.7586 1.2248-1.3798-0.01-2.9289-1.5389-4.0357-0.6264z"
          fill="#440039"
          stroke="#020000"
          stroke-width="3.9959"
          transform="matrix(-.80157 1.0744 .90506 .87913 -1501.6 -230.07)"/>
    <path d="m185.15 1339.8c3.2103-2.7073 6.4154-5.4627 9.9291-7.7546 2.8865-1.8828 5.8814-3.7032 9.0872-4.8773 1.5786-0.5781 3.2936-1.2766 4.8861-1.0267 1.3732 0.2155 2.7215 0.9813 3.469 2.0911 0.90018 1.3366 0.69577 3.2143 0.79755 4.8691 0.0771 1.2539-0.14391 3.7986-0.14391 3.7986-0.11657 3.076 2.822 5.2627 4.6543 7.593 1.2727 1.6185 3.6678 2.4226 4.36 4.3825 0.86112 2.4382 0.24901 5.4118-0.67856 7.9837-0.96851 2.6854-2.905 5.072-4.8988 7.2113-2.4447 2.6231-5.244 5.1166-8.4585 6.6786-2.7749 1.3484-5.8917 1.9242-8.887 2.1014-2.4614 0.1456-4.937-0.1806-7.2263-0.8672-2.128-0.6382-3.7164-2.4014-5.8709-2.969-1.1225-0.2958-2.5264 0.3322-3.541-0.1919-1.2287-0.6347-1.4142-2.3946-2.4743-3.2607-2.7262-2.2274-7.4747-1.885-9.6125-4.667-1.0187-1.3257-1.3691-3.2929-0.98206-5.0151 0.34554-1.5374 1.738-2.7441 2.781-3.9955 1.3151-1.5772 2.8608-2.9615 4.3481-4.3864 2.7524-2.6369 5.5456-5.239 8.4612-7.6979z"
          fill="#51d200"
          stroke="#000"
          stroke-width="4.9949"
          transform="matrix(-.80157 1.0744 .90506 .87913 -1501.6 -230.07)"/>
   </g>

  <ellipse cx="-405" cy="1238" rx="16.205" ry="15.351"
           fill="#f00"
           stroke="#000"
           stroke-linecap="round"
           stroke-width="10.848"/>
 </g>
</svg>
