<?xml version="1.0" encoding="UTF-8"?>
<svg width="750" height="1210" version="1.1" viewBox="0 0 750 1210" xmlns="http://www.w3.org/2000/svg">

 <g>
  <path d="m508 957.1c8.2283 2.003 17.878 2.8036 23.818 8.8398 1.035 1.0517 1.5217 2.6995 1.4733 4.1743-0.0409 1.246-0.77437 2.4053-1.4733 3.4377-1.233 1.8212-3.5092 2.7946-4.6654 4.6655-1.2247 1.9816-1.6298 4.3737-2.2099 6.6298-1.0156 3.9492-1.759 7.9792-2.21 12.032-0.22647 2.0353-1.195 4.3243-0.24555 6.1388 0.49474 0.9456 2.2152 0.7686 2.701 1.7188 0.63457 1.241-1.3683 3.3483-0.24555 4.1744 5.5952 4.1169 10.631 6.9403 14.733 11.295 4.1269 4.3817 9.1357 7.9693 12.769 12.769 2.831 3.7398 5.0592 7.9529 6.8754 12.278 1.3539 3.2238 2.5258 6.5963 2.9466 10.068 0.45355 3.7413 0.10112 7.5735-0.4911 11.295-0.57421 3.6086-1.3825 7.2563-2.9466 10.559-1.5844 3.3452-3.6165 6.6278-6.3843 9.0854-1.8074 1.6048-4.0844 2.6943-6.3843 3.4377-4.1636 1.3458-8.6402 1.5933-13.014 1.7188-4.4302 0.1271-8.8828-0.2851-13.26-0.9821-6.4107-1.021-12.8-2.465-18.907-4.6655-9.9188-3.574-19.525-8.1916-28.484-13.751-5.5507-3.4445-10.826-7.4371-15.47-12.032-2.8986-2.8681-5.5854-6.0381-7.612-9.5765-1.9189-3.3502-3.4666-7.0088-4.1744-10.804-0.67516-3.6208-0.70493-7.4346 0-11.05 0.62544-3.2075 2.2472-6.15 3.6832-9.0854 1.5793-3.2283 3.0776-6.5898 5.4021-9.3309 2.3317-2.7496 5.29-4.9672 8.3487-6.8754 3.3564-2.0939 7.3634-2.9588 10.804-4.911 1.1256-0.6386 2.5242-1.1015 3.1922-2.2099 1.0637-1.7652-0.10597-4.2579 0.73665-6.1387 0.75871-1.6935 1.9918-3.4111 3.6832-4.1744 1.7905-0.808 4.5444 1.4281 5.8932 0 1.9702-2.0861 0.5808-5.9325-0.4911-8.5942-0.2819-0.7-1.3122-0.9817-1.4733-1.7189-0.25444-1.1643 0.934-2.2469 0.9822-3.4377 0.10127-2.5021-0.92392-4.9234-1.4733-7.3665-0.37019-1.6463-1.5762-3.26-1.2278-4.911 0.38549-1.8262 1.761-3.5999 3.4377-4.4199 2.2058-1.0788 4.9156-0.1499 7.3665 0 4.6917 0.287 9.4292 0.6071 13.996 1.7189z"
        fill="#ff0"
        stroke="#000300"
        stroke-width="5"/>
  <ellipse cx="485" cy="1029.4" rx="11.46" ry="11.807" fill="#f00" stroke="#000" stroke-linecap="round" stroke-width="8"/>

    <path d="m450.16 1014.8c-2.0574 3.6613-4.4611 7.2272-5.6803 11.246-0.98139 3.2351-1.3886 6.6906-1.2278 10.068 0.19938 4.1856 0.95411 8.4686 2.701 12.278 1.8768 4.0919 5.0377 7.5074 8.1032 10.804 3.99 4.2912 8.4386 8.2104 13.26 11.541 4.1278 2.8515 8.7864 4.8496 13.26 7.121 3.8845 1.9724 7.7305 4.0574 11.786 5.6476 5.6641 2.2208 11.507 4.0285 17.434 5.4021 5.1651 1.197 10.426 2.0922 15.715 2.4555 4.5736 0.3141 9.2416 0.5809 13.751-0.2455 3.336-0.6114 6.6618-1.7035 9.5764-3.4377 2.6403-1.5711 5.0262-3.6852 6.8754-6.1388 1.5864-2.1049 2.7484-4.5769 3.4377-7.1209 0.57546-2.1239 2.8101-10.134 0.52372-6.5807-1.3758 2.1384-2.5226 4.0637-4.4525 5.3529-2.0666 1.3806-4.6887 1.6991-7.121 2.21-3.5472 0.7451-7.1803 1.1576-10.804 1.2277-5.4982 0.1063-11.025-0.3414-16.452-1.2277-4.5846-0.7487-9.0905-1.9924-13.505-3.4377-4.7812-1.5653-9.3857-3.6345-13.996-5.6477-4.228-1.8461-8.5218-3.5966-12.523-5.8932-5.5133-3.1645-10.85-6.7127-15.715-10.804-4.1197-3.4645-8.1982-7.1382-11.295-11.541-1.7271-2.4551-3.2029-5.1904-3.9288-8.1031-0.53477-2.1458-0.2723-4.4186-0.24555-6.6299 0.0345-2.8535 3.2782-13.447 0.52373-8.545z"
          fill="#430038"
          stroke="#000"
          stroke-width="5"/>
    <path d="m490 984.36c-0.8516-0.1664-1.1445 1.5081-1.997 1.6697-1.2715 0.241-2.429-1.5468-3.6832-1.2278-1.6276 0.414-2.6283 2.2118-3.4377 3.6833-1.2311 2.2381-1.9318 7.4156-1.9318 7.4156s3.129 4.1911 5.1239 5.844c2.8537 2.3644 6.1515 4.2322 9.5764 5.6477 3.0455 1.2587 6.3121 2.0041 9.5764 2.4555 3.4063 0.4709 6.8895 0.567 10.313 0.2455 2.3336-0.2192 4.6608-0.7059 6.8754-1.4733 2.4234-0.8397 6.4876-0.8584 6.908-3.3885 0.0569-0.3426-0.51931-0.4658-0.73665-0.7366-0.68023-0.8477-1.3222-1.7518-1.7515-2.7503-0.66644-1.5502-1.3597-3.2287-1.2278-4.9109 0.1168-1.4893 1.7515-4.1252 1.7515-4.1252-2.6302 1.9027-5.026 4.4216-8.1358 5.3529-2.9796 0.8923-6.5272 0.2262-9.3309-1e-4 -5.011-0.4044-6.8959-1.4322-9.822-3.9287-2.2295-1.9021-4.4176-3.8124-6.1388-6.1387-0.81596-1.1028-0.58534-3.3711-1.9318-3.6341z"
          fill="#440039"
          stroke="#020000"
          stroke-width="5"/>
    <path d="m509 957.1c3.951 0.722 7.935 1.4074 11.754 2.6518 3.1371 1.0223 6.2918 2.173 9.0853 3.9288 1.3756 0.8646 2.9231 1.7563 3.6832 3.1922 0.65553 1.2382 0.88179 2.8288 0.4911 4.1743-0.47054 1.6204-2.0064 2.7282-3.1922 3.9288-0.89843 0.9097-2.9466 2.4556-2.9466 2.4556-2.386 1.9884-2.2828 5.8055-2.9466 8.8397-0.46104 2.1075 0.35985 4.5568-0.70402 6.4335-1.3234 2.3346-3.9275 3.8596-6.4169 4.8618-2.5993 1.0465-5.55 1.1208-8.3487 0.9822-3.4315-0.17-6.9766-0.7097-10.068-2.2099-2.6682-1.2951-4.958-3.3849-6.8754-5.6477-1.5756-1.8595-2.8043-4.0495-3.6506-6.3351-0.78676-2.1246-0.40476-4.5811-1.2604-6.679-0.4458-1.093-1.7549-1.7849-1.9644-2.9466-0.25375-1.4068 0.96124-2.7451 0.9822-4.1744 0.0539-3.6756-3.032-7.2213-2.21-10.804 0.39174-1.7073 1.6646-3.317 3.1922-4.1743 1.3637-0.7653 3.1018-0.4741 4.6654-0.4911 1.9711-0.021 3.9342 0.272 5.8932 0.4911 3.6252 0.4054 7.2485 0.8668 10.837 1.5225z"
          fill="#51d200"
          stroke="#000"
          stroke-width="5"/>
</g>

 <g>
  <path d="m562.06 957.1c8.2283 2.003 17.878 2.8036 23.818 8.8398 1.035 1.0517 1.5217 2.6995 1.4733 4.1743-0.0409 1.246-0.77437 2.4053-1.4733 3.4377-1.233 1.8212-3.5092 2.7946-4.6654 4.6655-1.2247 1.9816-1.6298 4.3737-2.2099 6.6298-1.0156 3.9492-1.759 7.9792-2.21 12.032-0.22647 2.0353-1.195 4.3243-0.24555 6.1388 0.49474 0.9456 2.2152 0.7686 2.701 1.7188 0.63457 1.241-1.3683 3.3483-0.24555 4.1744 5.5952 4.1169 10.631 6.9403 14.733 11.295 4.1269 4.3817 9.1357 7.9693 12.769 12.769 2.831 3.7398 5.0592 7.9529 6.8754 12.278 1.3539 3.2238 2.5258 6.5963 2.9466 10.068 0.45355 3.7413 0.10112 7.5735-0.4911 11.295-0.57421 3.6086-1.3825 7.2563-2.9466 10.559-1.5844 3.3452-3.6165 6.6278-6.3843 9.0854-1.8074 1.6048-4.0844 2.6943-6.3843 3.4377-4.1636 1.3458-8.6402 1.5933-13.014 1.7188-4.4302 0.1271-8.8828-0.2851-13.26-0.9821-6.4107-1.021-12.8-2.465-18.907-4.6655-9.9188-3.574-19.525-8.1916-28.484-13.751-5.5507-3.4445-10.826-7.4371-15.47-12.032-2.8986-2.8681-5.5854-6.0381-7.612-9.5765-1.9189-3.3502-3.4666-7.0088-4.1744-10.804-0.67516-3.6208-0.70493-7.4346 0-11.05 0.62544-3.2075 2.2472-6.15 3.6832-9.0854 1.5793-3.2283 3.0776-6.5898 5.4021-9.3309 2.3317-2.7496 5.29-4.9672 8.3487-6.8754 3.3564-2.0939 7.3634-2.9588 10.804-4.911 1.1256-0.6386 2.5242-1.1015 3.1922-2.2099 1.0637-1.7652-0.10597-4.2579 0.73665-6.1387 0.75871-1.6935 1.9918-3.4111 3.6832-4.1744 1.7905-0.808 4.5444 1.4281 5.8932 0 1.9702-2.0861 0.5808-5.9325-0.4911-8.5942-0.2819-0.7-1.3122-0.9817-1.4733-1.7189-0.25444-1.1643 0.934-2.2469 0.9822-3.4377 0.10127-2.5021-0.92392-4.9234-1.4733-7.3665-0.37019-1.6463-1.5762-3.26-1.2278-4.911 0.38549-1.8262 1.761-3.5999 3.4377-4.4199 2.2058-1.0788 4.9156-0.1499 7.3665 0 4.6917 0.287 9.4292 0.6071 13.996 1.7189z"
        fill="#ff0"
        stroke="#000300"
        stroke-width="5"
        transform="matrix(-1 0 0 1 791.97 111.02)"/>
  <ellipse cx="534.98" cy="1029.4" rx="11.46" ry="11.807" fill="#f00" stroke="#000" stroke-linecap="round" stroke-width="8" transform="matrix(-1 0 0 1 791.97 111.02)"/>
  <path d="m505.16 1014.8c-2.0574 3.6613-4.4611 7.2272-5.6803 11.246-0.98139 3.2351-1.3886 6.6906-1.2278 10.068 0.19938 4.1856 0.95411 8.4686 2.701 12.278 1.8768 4.0919 5.0377 7.5074 8.1032 10.804 3.99 4.2912 8.4386 8.2104 13.26 11.541 4.1278 2.8515 8.7864 4.8496 13.26 7.121 3.8845 1.9724 7.7305 4.0574 11.786 5.6476 5.6641 2.2208 11.507 4.0285 17.434 5.4021 5.1651 1.197 10.426 2.0922 15.715 2.4555 4.5736 0.3141 9.2416 0.5809 13.751-0.2455 3.336-0.6114 6.6618-1.7035 9.5764-3.4377 2.6403-1.5711 5.0262-3.6852 6.8754-6.1388 1.5864-2.1049 2.7484-4.5769 3.4377-7.1209 0.57546-2.1239 2.8101-10.134 0.52372-6.5807-1.3758 2.1384-2.5226 4.0637-4.4525 5.3529-2.0666 1.3806-4.6887 1.6991-7.121 2.21-3.5472 0.7451-7.1803 1.1576-10.804 1.2277-5.4982 0.1063-11.025-0.3414-16.452-1.2277-4.5846-0.7487-9.0905-1.9924-13.505-3.4377-4.7812-1.5653-9.3857-3.6345-13.996-5.6477-4.228-1.8461-8.5218-3.5966-12.523-5.8932-5.5133-3.1645-10.85-6.7127-15.715-10.804-4.1197-3.4645-8.1982-7.1382-11.295-11.541-1.7271-2.4551-3.2029-5.1904-3.9288-8.1031-0.53477-2.1458-0.2723-4.4186-0.24555-6.6299 0.0345-2.8535 3.2782-13.447 0.52373-8.545z"
        fill="#430038"
        stroke="#000"
        stroke-width="5"
        transform="matrix(-1 0 0 1 791.97 111.02)"/>
  <path d="m541.93 984.36c-0.8516-0.1664-1.1445 1.5081-1.997 1.6697-1.2715 0.241-2.429-1.5468-3.6832-1.2278-1.6276 0.414-2.6283 2.2118-3.4377 3.6833-1.2311 2.2381-1.9318 7.4156-1.9318 7.4156s3.129 4.1911 5.1239 5.844c2.8537 2.3644 6.1515 4.2322 9.5764 5.6477 3.0455 1.2587 6.3121 2.0041 9.5764 2.4555 3.4063 0.4709 6.8895 0.567 10.313 0.2455 2.3336-0.2192 4.6608-0.7059 6.8754-1.4733 2.4234-0.8397 6.4876-0.8584 6.908-3.3885 0.0569-0.3426-0.51931-0.4658-0.73665-0.7366-0.68023-0.8477-1.3222-1.7518-1.7515-2.7503-0.66644-1.5502-1.3597-3.2287-1.2278-4.9109 0.1168-1.4893 1.7515-4.1252 1.7515-4.1252-2.6302 1.9027-5.026 4.4216-8.1358 5.3529-2.9796 0.8923-6.5272 0.2262-9.3309-1e-4 -5.011-0.4044-6.8959-1.4322-9.822-3.9287-2.2295-1.9021-4.4176-3.8124-6.1388-6.1387-0.81596-1.1028-0.58534-3.3711-1.9318-3.6341z"
        fill="#440039"
        stroke="#020000"
        stroke-width="5"
        transform="matrix(-1 0 0 1 791.97 111.02)"/>
  <path d="m562.06 957.1c3.951 0.722 7.935 1.4074 11.754 2.6518 3.1371 1.0223 6.2918 2.173 9.0853 3.9288 1.3756 0.8646 2.9231 1.7563 3.6832 3.1922 0.65553 1.2382 0.88179 2.8288 0.4911 4.1743-0.47054 1.6204-2.0064 2.7282-3.1922 3.9288-0.89843 0.9097-2.9466 2.4556-2.9466 2.4556-2.386 1.9884-2.2828 5.8055-2.9466 8.8397-0.46104 2.1075 0.35985 4.5568-0.70402 6.4335-1.3234 2.3346-3.9275 3.8596-6.4169 4.8618-2.5993 1.0465-5.55 1.1208-8.3487 0.9822-3.4315-0.17-6.9766-0.7097-10.068-2.2099-2.6682-1.2951-4.958-3.3849-6.8754-5.6477-1.5756-1.8595-2.8043-4.0495-3.6506-6.3351-0.78676-2.1246-0.40476-4.5811-1.2604-6.679-0.4458-1.093-1.7549-1.7849-1.9644-2.9466-0.25375-1.4068 0.96124-2.7451 0.9822-4.1744 0.0539-3.6756-3.032-7.2213-2.21-10.804 0.39174-1.7073 1.6646-3.317 3.1922-4.1743 1.3637-0.7653 3.1018-0.4741 4.6654-0.4911 1.9711-0.021 3.9342 0.272 5.8932 0.4911 3.6252 0.4054 7.2485 0.8668 10.837 1.5225z"
        fill="#51d200"
        stroke="#000"
        stroke-width="5"
        transform="matrix(-1 0 0 1 791.97 111.02)"/>
 </g>

 <g>
  <path d="m376 467 c1.0167-4.893 4.2824-9.2767 7.8576-12.769 5.6943-5.5616 13.537-8.4133 20.626-12.032 12.273-6.2642 25.054-11.498 37.815-16.697 11.897-4.8475 23.911-9.4351 36.096-13.505 12.626-4.2177 25.438-7.8849 38.306-11.295 14.144-3.7486 28.3-7.6215 42.726-10.068 11.603-1.9674 23.373-2.8695 35.114-3.6832 9.6407-0.6682 19.35-1.8462 28.975-0.9822 6.172 0.55404 12.29 1.9759 18.171 3.9288 3.928 1.3043 7.8449 2.8707 11.295 5.1566 3.3323 2.2076 6.6865 4.7354 8.8398 8.1031 2.1753 3.4021 3.8277 7.5053 3.6832 11.541-0.18925 5.2859-3.2256 10.166-5.8932 14.733-3.2299 5.53-7.5186 10.435-12.032 14.979-5.2072 5.242-11.131 9.7652-17.188 13.996-13.268 9.2684-26.782 18.628-41.743 24.801-12.718 5.2462-26.45 7.835-40.025 10.068-13.206 2.172-26.646 3.5531-40.025 3.1922-11.062-0.29844-21.98-2.6473-32.904-4.4199-12.09-1.962-24.13-4.2583-36.096-6.8754-7.6603-1.6755-15.093-4.4124-22.836-5.6476-6.565-1.0473-13.242-1.4646-19.89-1.4733-4.5953-6e-3 -9.6245 3.0047-13.751 0.9822-3.7099-1.8184-5.4008-6.4536-6.8754-10.313-0.2065-0.54065-0.3633-1.1522-0.2455-1.7188z"
        fill="#94c2c3"
        stroke="#000a00"
        stroke-width="6"/>
  <path d="m380 497 c0.537-6.1719-0.2685-14.526 4.911-17.925 4.355-2.8578 10.418 0.93806 15.47 2.21 7.6086 1.9158 14.729 5.4119 22.099 8.1031 4.4996 1.643 8.9047 3.5768 13.505 4.911 5.8748 1.7038 11.894 2.907 17.925 3.9288 6.7465 1.1431 13.559 1.9245 20.381 2.4555 11.513 0.8961 23.084 0.75749 34.623 1.2278 12.444 0.50717 24.893 0.94851 37.324 1.7188 12.619 0.78201 25.266 1.4041 37.815 2.9466 7.8264 0.96204 15.697 1.9402 23.327 3.9288 5.8873 1.5343 11.779 3.3541 17.188 6.1387 4.0779 2.0993 8.3915 4.3074 11.295 7.8576 2.089 2.554 3.5023 5.8136 3.9288 9.0853 0.42795 3.2828-0.17236 6.7777-1.4733 9.822-1.261 2.9508-3.5966 5.3709-5.8932 7.612-3.8547 3.7616-8.2125 7.1366-13.014 9.5764-5.8157 2.9551-12.4 4.0654-18.662 5.8932-10.006 2.9207-19.948 6.2344-30.203 8.1031-18.853 3.4357-38.081 4.544-57.213 5.6476-14.547 0.83918-29.142 1.1333-43.708 0.73665-8.0388-0.21893-16.308 0.40658-24.064-1.7188-8.1196-2.2251-15.617-6.5781-22.591-11.295-7.2515-4.9054-13.736-10.973-19.644-17.434-6.3189-6.9104-11.921-14.536-16.697-22.591-1.8865-3.1814-3.7007-6.4969-4.6655-10.068-1.8227-6.7461-2.57-13.91-1.9644-20.872z"
        fill="#94c2c3"
        stroke="#000"
        stroke-width="6"/>
  <path d="m167 389 c9.5996 1.8023 19.003 4.5261 28.484 6.8754 9.673 2.397 19.412 4.5612 28.975 7.3665 11.425 3.3516 22.668 7.3068 33.886 11.295 13.521 4.8073 27.06 9.6184 40.27 15.224 11.999 5.0916 24.175 10.003 35.359 16.697 4.7196 2.825 9.4911 5.8155 13.26 9.822 2.6754 2.8443 4.8863 6.2159 6.3843 9.822 0.8992 2.1645 1.7321 4.5459 1.4733 6.8754s-1.0222 5.0462-2.9466 6.3843c-1.7524 1.2185-4.2648 0.74251-6.3843 0.4911-5.8091-0.68906-10.872-4.863-16.697-5.4021-5.095-0.47155-10.183 1.0876-15.224 1.9644-6.7698 1.1775-13.43 2.9166-20.135 4.4199-13.601 3.0494-27.024 6.9733-40.761 9.3309-12.668 2.174-25.458 4.0451-38.306 4.4199-8.6863 0.25342-17.412-0.34662-26.028-1.4733-10.442-1.3653-20.808-3.5133-30.939-6.3843-9.2173-2.6119-18.335-5.7585-27.01-9.822-13.552-6.3474-27.037-13.336-38.797-22.591-8.7343-6.8738-16.733-14.941-23.082-24.064-3.4295-4.9276-6.852-10.288-7.8576-16.206-0.7176-4.2239-0.4317-8.931 1.4733-12.769 2.4196-4.8741 7.0071-8.6934 11.786-11.295 8.7182-4.7464 19.097-5.8978 28.975-6.8754 9.1284-0.90336 18.362 0.20333 27.502 0.98219 12.18 1.0379 24.327 2.6554 36.341 4.911z"
        fill="#8bbdbf"
        stroke="#000200"
        stroke-width="6"/>
  <path d="m203 502 c12.734-0.56033 25.486-0.81935 38.199-1.7363 10.558-0.76148 21.223-1.0424 31.601-3.1253 8.903-1.7869 17.489-4.944 26.044-7.987 7.5339-2.6796 14.521-6.8864 22.225-9.0288 4.2903-1.1931 8.7428-2.1026 13.196-2.0836 2.8164 0.012 6.1534-0.39303 8.3343 1.389 4.5112 3.6862 6.3527 10.496 6.2506 16.321-0.1299 7.4161-5.2914 13.891-8.6815 20.488-4.4641 8.6874-9.5786 17.072-15.279 25.003-2.7335 3.8029-5.8966 7.2832-9.0287 10.765-3.0112 3.3474-5.8136 6.9699-9.3761 9.7233-6.7252 5.1978-14.501 8.9536-22.225 12.501-3.6936 1.6966-7.5062 3.2229-11.46 4.1671-6.5774 1.5709-13.388 2.0808-20.141 2.4308-13.989 0.72516-28.033 0.10324-42.018-0.69452-15.443-0.88094-30.856-2.4492-46.186-4.5144-10.825-1.4583-21.733-2.7695-32.295-5.5562-2.9739-0.78464-6.6188-0.84396-8.6815-3.1253-1.6005-1.7701-0.7609-4.7673-1.7363-6.9452-1.4304-3.1938-3.4988-6.1391-5.9034-8.6815-1.7023-1.7997-3.7618-3.2694-5.9035-4.5144-2.8252-1.6422-5.7859-3.4164-9.0287-3.8199-1.5109-0.188-3.4068-0.35013-4.5144 0.69452-1.2057 1.1372-0.7763 3.2257-1.0418 4.8616-0.3358 2.0693 1.1333 5.2241-0.6945 6.2507-1.6706 0.93831-3.7677-1.1682-5.2089-2.4308-3.7195-3.2586-6.9606-7.6641-7.987-12.501-0.8019-3.7793 0.1363-7.943 1.7363-11.46 2.0747-4.5598 5.6068-8.6047 9.7233-11.46 5.0546-3.5055 11.411-4.697 17.363-6.2507 8.1752-2.1342 16.622-3.0969 25.003-4.1671 11.643-1.4868 23.361-2.3547 35.073-3.1253 10.867-0.71501 21.762-0.91027 32.642-1.389z"
        fill="#85babc"
        stroke="#000100"
        stroke-width="6"/>
 </g>

 <g>
   <path d="m485 865 c-0.34621 6.1546-1.4684 14.438 3.4377 18.171 1.5688 1.1935 4.0013 0.0625 5.8932-0.4911 6.2198-1.8202 11.347-6.2785 17.188-9.0853 6.1126-2.9372 12.374-5.5612 18.662-8.1032 4.5384-1.8349 9.0536-3.778 13.751-5.1565 5.222-1.5325 10.576-2.6477 15.961-3.4377 5.118-0.75086 10.307-0.90384 15.47-1.2278 5.3155-0.3335 10.636-0.84592 15.961-0.73665 8.4609 0.17363 16.906 1.0698 25.292 2.21 13.362 1.8168 26.434 5.4312 39.779 7.3665 10.689 1.5501 21.433 2.9581 32.225 3.393 7.9205 0.31915 15.911 0.43113 23.774-0.5792 6.0197-0.77355 12.053-2.0074 17.723-4.1731 6.7081-2.5623 13.137-6.0435 18.921-10.299 5.2682-3.8766 10.367-8.2364 14.083-13.664 1.0977-1.6035 3.3121-3.6865 1.6469-4.6927-3.195-1.9306-6.1657-3.0114-10.18-4.9395-2.6266-1.2615-5.7535-3.2519-8.2604-4.9454-2.5605-1.7297-5.0539-3.4237-6.387-4.7761-2.3392-2.3731-3.9434-4.4381-6.4698-6.4822-2.2404-1.8127-3.4898 1.7065-5.0561 3.9994-2.1342 3.1244-4.6544 6.0938-7.6852 8.3623-4.7475 3.5534-10.331 5.9956-15.961 7.8576-4.7403 1.5677-9.7606 2.249-14.733 2.701-5.869 0.53354-11.822 0.64901-17.68 0-13.006-1.4411-25.534-5.7425-38.306-8.5942-9.5743-2.1378-19.019-4.9863-28.729-6.3843-7.2267-1.0404-14.554-1.3534-21.854-1.4733-9.499-0.15601-19.073-0.32076-28.484 0.98219-9.1831 1.2715-18.249 3.598-27.01 6.6298-6.3695 2.2042-12.589 4.9608-18.416 8.3487-6.0501 3.5177-12.955 7.6582-18.416 9.3309-6.6343 2.0318-5.7491 12.962-6.1388 19.89z"
         fill="#0f0"
         stroke-width="5"
         stroke="#000"
         transform="translate(-106.39 -99.159)"/>
   <path d="m539 825 c4.9874-2.6799 10.61-2.7205 18.662-4.4199 6.2718-1.3238 12.875-1.3061 19.337-1.4733 6.7319-0.17416 13.534-0.49156 20.196 0.4911 4.5772 0.67514 10.604-0.0163 13.382 3.6832 0.88485 1.1782 0.0424 2.9501-0.0614 4.4199-0.26152 3.704-1.234 7.3408-1.4119 11.05-0.12554 2.6175-0.0719 5.2564 0.24555 7.8576 0.31604 2.5895 3.2034 7.3438 0.92081 7.5506-4.3252 0.39202-7.073-2e-3 -10.19-0.0614-3.56-0.0684-7.5316-0.30216-11.05-0.42971-4.6972-0.17029-10.492-0.32203-15.838 0.12278-6.5455 0.54456-12.684 1.3855-19.276 3.4377-2.538 0.79013-4.9316 1.1134-7.2437 0.67526-2.6511-0.50238-3.6394-4.3159-5.0338-6.7526-1.3345-2.3321-2.431-4.8337-3.1308-7.4279-0.70929-2.6294-0.88154-5.3846-1.0436-8.1032-0.13516-2.2674-0.0588-4.2762 0.0614-6.814 0.0644-1.3589 0.24758-3.1474 1.4733-3.806z"
         fill="#2e0239"
         stroke-width="5"
         stroke="#000"
         transform="translate(-106.39 -99.159)"/>
   <path d="m686 839 c4.3428-0.0581 8.6902-0.64573 12.935-1.5627 4.3299-0.93521 8.6382-2.1694 12.675-3.9935 4.2829-1.9353 8.5794-4.1422 12.067-7.2925 2.4998-2.2578 3.8318-5.5628 6.077-8.0738 0.95516-1.0682 1.7091-2.7332 3.1253-2.9517 0.98493-0.15197 1.879 0.72477 2.6913 1.3022 2.168 1.5414 3.6738 3.8545 5.643 5.643 2.5261 2.2943 5.0963 4.566 7.9002 6.5111 1.9494 1.3524 4.0037 2.5782 6.1639 3.5594 2.283 1.037 4.8979 1.2668 7.1188 2.4308 0.73306 0.38423 1.7538 0.68467 1.9968 1.4758 0.48635 1.5836-0.81205 3.2587-1.6495 4.688-1.4615 2.4945-3.6872 4.4651-5.7298 6.5111-2.5638 2.5681-5.252 5.0357-8.1606 7.2056-3.0634 2.2855-6.2812 4.4158-9.7233 6.077-3.0416 1.468-6.3094 2.4333-9.5496 3.3858-3.879 1.1402-7.8401 1.9961-11.807 2.7781-4.6864 0.92382-9.3944 1.8196-14.151 2.2572-4.5545 0.41902-9.1533 0.65281-13.717 0.34726-3.0997-0.20754-6.4738 9e-3 -9.2024-1.4758-1.3678-0.74457-2.2815-2.1637-3.1253-3.4726-1.0953-1.6991-1.8239-3.6279-2.4308-5.5562-0.57585-1.8298-0.87508-3.7416-1.1286-5.643-0.22616-1.6963-0.38889-3.4113-0.34726-5.1221 0.0546-2.2428 0.32146-4.489 0.78133-6.6848 0.2233-1.0662 0.0629-2.5002 0.95497-3.1253 1.3763-0.96457 3.359 0.13857 5.0353 0.26044 1.8553 0.13489 3.6962 0.54577 5.5562 0.52089z"
         fill="#2e0239"
         stroke-width="5"
         stroke="#000"
         transform="translate(-106.39 -99.159)"/>
   <path d="m768 788 c13.981 5.9853 26.724 11.319 42.192 17.363 1.8241 0.71277-1.1388 3.756-1.9099 5.5562-0.69313 1.618-1.5015 3.1931-2.4308 4.688-1.2895 2.0744-2.7619 4.0398-4.3408 5.9034-1.9313 2.2797-3.971 4.493-6.2507 6.4243-2.6337 2.2312-5.4159 4.3689-8.5079 5.9034-2.3444 1.1635-4.884 2.0029-7.4661 2.4308-4.1685 0.69081-8.4881 0.74253-12.675 0.17363-2.8675-0.38962-5.6402-1.3743-8.3342-2.4308-3.6145-1.4174-7.1124-3.1722-10.418-5.2089-3.6266-2.2346-7.1262-4.7373-10.244-7.6397-2.4629-2.2926-4.6157-4.9208-6.5979-7.6397-1.6373-2.2458-3.0968-4.6334-4.3408-7.1188-1.6739-3.3446-3.2716-6.7865-4.1671-10.418-0.80807-3.2766-0.96326-6.6967-1.0418-10.071-0.0715-3.0715 0.0894-6.1605 0.52089-9.2024 0.40028-2.8218-0.72924-9.4103 1.9099-8.3342 13.872 5.6557 29.311 13.288 44.102 19.62z"
         fill="#0f0"
         stroke-width="5"
         stroke="#000"
         transform="translate(-106.39 -99.159)"/>

   <path d="m725 769 c5.8148 2.6239 8.281 3.5902 16.495 6.4243 3.8879-10.008 7.8023-23.235 9.5496-30.559 0.38463-1.6121-2.8781-1.8201-4.5144-2.0836-2.1726-0.34978-4.4652 0.0696-6.5594 0.74538-1.656 0.53437-3.1473 1.5279-4.5529 2.5536-1.8524 1.3518-3.5435 2.9463-5.0353 4.688-1.4097 1.6459-2.5998 3.4848-3.6462 5.3825-0.97611 1.7703-2.1113 3.56-2.4308 5.5562-0.38596 2.4111-1.5312 6.2881 0.69452 7.2924z"
         stroke="#000"
         fill="#8e8e8e"
         stroke-width="5"
         transform="translate(-106.39 -99.159)"/>
   <path d="m760 784 c0.77057-3.5476 2.6498-7.7447 4.1744-11.541 1.0174-2.5334 1.9472-5.1265 3.3149-7.4893 0.76273-1.3177 1.5264-2.7146 2.701-3.6832 1.257-1.0366 2.8081-1.8491 4.4199-2.0872 1.9238-0.2842 3.8882 0.37037 5.7704 0.85942 2.5822 0.67094 5.2862 1.319 7.4893 2.8238 0.45465 0.31056 0.98782 0.68977 1.105 1.2278 0.46542 2.1374-1.1137 4.2462-1.9644 6.2615-1.1394 2.6991-2.7941 5.1506-4.1744 7.7348-1.5266 2.8582-2.8211 5.8491-4.5427 8.5942-0.91761 1.4632-1.888 4.781-3.0694 4.1744-6.3346-3.2532-8.2687-3.9562-15.224-6.8754z"
         stroke="#000"
         fill="#8e8e8e"
         stroke-width="5"
         transform="translate(-106.39 -99.159)"/>
   <path d="m793 799 c3.7683-6.853 7.4742-14.872 12.155-23.45 0.47126-0.8637 1.8405-0.89243 2.8238-0.85943 2.5372 0.0852 4.9548 1.3772 7.121 2.7011 1.4587 0.89148 3.2271 1.8291 3.806 3.4377 0.57422 1.5956-0.30314 3.3943-0.73665 5.0338-1.325 5.0109-3.6533 9.7034-5.6476 14.487-0.62036 1.4881-1.2572 2.971-1.9644 4.4199-0.30517 0.62522-0.58456 1.998-0.98219 1.8416-7.9958-3.1442-8.4543-3.3896-16.575-7.612z"
         stroke="#000"
         fill="#8e8e8e"
         stroke-width="5"
         transform="translate(-106.39 -99.159)"/>
 </g>

 <g>
  <path d="m332.88 806.4c0.3399 6.1546 1.4416 14.438-3.3752 18.171-1.5403 1.1935-3.9285 0.0625-5.786-0.4911-6.1066-1.8202-11.141-6.2785-16.876-9.0853-6.0014-2.9372-12.149-5.5612-18.322-8.1032-4.4558-1.8349-8.8888-3.778-13.501-5.1565-5.127-1.5325-10.384-2.6477-15.67-3.4377-5.0248-0.75086-10.119-0.90384-15.188-1.2278-5.2187-0.3335-10.442-0.84592-15.67-0.73665-8.3069 0.17363-16.598 1.0698-24.831 2.21-13.119 1.8168-25.952 5.4312-39.055 7.3665-10.495 1.5501-21.043 2.9581-31.639 3.393-7.7763 0.31915-15.622 0.43113-23.341-0.5792-5.9102-0.77355-11.834-2.0074-17.4-4.1731-6.5861-2.5623-12.898-6.0435-18.577-10.299-5.1723-3.8766-10.179-8.2364-13.827-13.664-1.0778-1.6035-3.2518-3.6865-1.617-4.6927 3.1369-1.9306 6.0535-3.0114 9.9951-4.9395 2.5788-1.2615 5.6488-3.2519 8.1101-4.9454 2.5139-1.7297 4.962-3.4237 6.2708-4.7761 2.2966-2.3731 3.8716-4.4381 6.3521-6.4822 2.1996-1.8127 3.4263 1.7065 4.9641 3.9994 2.0954 3.1244 4.5697 6.0938 7.5454 8.3623 4.6611 3.5534 10.143 5.9956 15.67 7.8576 4.6541 1.5677 9.583 2.249 14.465 2.701 5.7622 0.53354 11.607 0.64901 17.358 0 12.77-1.4411 25.07-5.7425 37.609-8.5942 9.4-2.1378 18.673-4.9863 28.207-6.3843 7.0952-1.0404 14.289-1.3534 21.456-1.4733 9.3261-0.15601 18.726-0.32076 27.965 0.98219 9.016 1.2715 17.917 3.598 26.519 6.6298 6.2536 2.2042 12.36 4.9608 18.081 8.3487 5.94 3.5177 12.719 7.6582 18.081 9.3309 6.5136 2.0318 5.6444 12.962 6.027 19.89z"
        fill="#00ffe7"
        stroke-width="5"
        stroke="#000"
        transform="translate(23.823 -138.93)"/>
  <path d="m280.34 767.6c-4.8966-2.6799-10.417-2.7205-18.322-4.4199-6.1576-1.3238-12.641-1.3061-18.985-1.4733-6.6094-0.17416-13.288-0.49156-19.829 0.4911-4.4939 0.67514-10.411-0.0163-13.139 3.6832-0.86874 1.1782-0.0416 2.9501 0.0603 4.4199 0.25676 3.704 1.2116 7.3408 1.3862 11.05 0.12326 2.6175 0.0706 5.2564-0.24108 7.8576-0.31029 2.5895-3.1451 7.3438-0.90405 7.5506 4.2464 0.39202 6.9443-2e-3 10.005-0.0614 3.4953-0.0684 7.3945-0.30216 10.849-0.42971 4.6117-0.17029 10.301-0.32203 15.55 0.12278 6.4264 0.54456 12.453 1.3855 18.925 3.4377 2.4918 0.79013 4.8418 1.1134 7.1119 0.67526 2.6028-0.50238 3.5732-4.3159 4.9422-6.7526 1.3102-2.3321 2.3867-4.8337 3.0738-7.4279 0.69638-2.6294 0.8655-5.3846 1.0246-8.1032 0.1327-2.2674 0.0577-4.2762-0.0603-6.814-0.0632-1.3589-0.24308-3.1474-1.4465-3.806z"
        fill="#003a35"
        stroke-width="5"
        stroke="#000"
        transform="translate(23.823 -138.93)"/>
  <path d="m136.09 779.44c-4.2637-0.0581-8.532-0.64573-12.7-1.5627-4.2511-0.93521-8.481-2.1694-12.444-3.9935-4.205-1.9353-8.4233-4.1422-11.848-7.2925-2.4543-2.2578-3.762-5.5628-5.9665-8.0738-0.93778-1.0682-1.678-2.7332-3.0685-2.9517-0.96701-0.15197-1.8448 0.72477-2.6423 1.3022-2.1286 1.5414-3.607 3.8545-5.5403 5.643-2.4801 2.2943-5.0035 4.566-7.7564 6.5111-1.914 1.3524-3.9308 2.5782-6.0517 3.5594-2.2414 1.037-4.8088 1.2668-6.9893 2.4308-0.71972 0.38423-1.7218 0.68467-1.9604 1.4758-0.4775 1.5836 0.79727 3.2587 1.6195 4.688 1.4349 2.4945 3.6201 4.4651 5.6255 6.5111 2.5172 2.5681 5.1564 5.0357 8.0121 7.2056 3.0077 2.2855 6.1668 4.4158 9.5463 6.077 2.9863 1.468 6.1946 2.4333 9.3759 3.3858 3.8084 1.1402 7.6974 1.9961 11.592 2.7781 4.6011 0.92382 9.2234 1.8196 13.893 2.2572 4.4716 0.41902 8.9867 0.65281 13.467 0.34726 3.0433-0.20754 6.356 9e-3 9.0349-1.4758 1.3429-0.74457 2.24-2.1637 3.0685-3.4726 1.0754-1.6991 1.7908-3.6279 2.3866-5.5562 0.56537-1.8298 0.85916-3.7416 1.108-5.643 0.22205-1.6963 0.38182-3.4113 0.34094-5.1221-0.0536-2.2428-0.31561-4.489-0.76711-6.6848-0.21923-1.0662-0.0618-2.5002-0.93759-3.1253-1.3513-0.96457-3.2979 0.13857-4.9436 0.26044-1.8215 0.13489-3.6289 0.54577-5.455 0.52089z"
        fill="#003a35"
        stroke-width="5"
        stroke="#000"
        transform="translate(23.823 -138.93)"/>
  <path d="m53.154 727.52c-13.727 5.9853-26.238 11.319-41.424 17.363-1.7909 0.71277 1.118 3.756 1.8752 5.5562 0.68052 1.618 1.4742 3.1931 2.3866 4.688 1.2661 2.0744 2.7116 4.0398 4.2618 5.9034 1.8962 2.2797 3.8987 4.493 6.1369 6.4243 2.5858 2.2312 5.3174 4.3689 8.353 5.9034 2.3018 1.1635 4.7951 2.0029 7.3302 2.4308 4.0927 0.69081 8.3336 0.74253 12.444 0.17363 2.8153-0.38962 5.5375-1.3743 8.1826-2.4308 3.5487-1.4174 6.983-3.1722 10.228-5.2089 3.5606-2.2346 6.9965-4.7373 10.058-7.6397 2.4181-2.2926 4.5317-4.9208 6.4779-7.6397 1.6075-2.2458 3.0405-4.6334 4.2618-7.1188 1.6435-3.3446 3.212-6.7865 4.0913-10.418 0.79336-3.2766 0.94573-6.6967 1.0228-10.071 0.0702-3.0715-0.08777-6.1605-0.51141-9.2024-0.393-2.8218 0.71597-9.4103-1.8752-8.3342-13.619 5.6557-28.777 13.288-43.299 19.62z"
        fill="#00ffe7"
        stroke-width="5"
        stroke="#000"
        transform="translate(23.823 -138.93)"/>
   <path d="m96.76 708.34c-5.709 2.6239-8.1304 3.5902-16.195 6.4243-3.8172-10.008-7.6603-23.235-9.3759-30.559-0.37763-1.6121 2.8257-1.8201 4.4322-2.0836 2.133-0.34978 4.384 0.0696 6.44 0.74538 1.6258 0.53437 3.0901 1.5279 4.47 2.5536 1.8187 1.3518 3.479 2.9463 4.9436 4.688 1.3841 1.6459 2.5525 3.4848 3.5799 5.3825 0.95835 1.7703 2.0729 3.56 2.3866 5.5562 0.37894 2.4111 1.5033 6.2881-0.68188 7.2924z"
         fill="#1dffea"
         stroke-width="5"
         stroke="#000"
         transform="translate(23.823 -138.93)"/>
   <path d="m61.828 723.03c-0.75655-3.5476-2.6016-7.7447-4.0984-11.541-0.99888-2.5334-1.9118-5.1265-3.2546-7.4893-0.74885-1.3177-1.4987-2.7146-2.6519-3.6832-1.2341-1.0366-2.757-1.8491-4.3395-2.0872-1.8888-0.2842-3.8175 0.37037-5.6654 0.85942-2.5352 0.67094-5.19 1.319-7.353 2.8238-0.44638 0.31056-0.96984 0.68977-1.0849 1.2278-0.45695 2.1374 1.0934 4.2462 1.9286 6.2615 1.1187 2.6991 2.7432 5.1506 4.0984 7.7348 1.4988 2.8582 2.7698 5.8491 4.46 8.5942 0.90091 1.4632 1.8537 4.781 3.0135 4.1744 6.2194-3.2532 8.1182-3.9562 14.947-6.8754z"
         fill="#1dffea"
         stroke-width="5"
         stroke="#000"
         transform="translate(23.823 -138.93)"/>
   <path d="m27 737 c-3.6997-6.853-7.3382-14.872-11.934-23.45-0.46268-0.8637-1.807-0.89243-2.7724-0.85943-2.4911 0.0852-4.8646 1.3772-6.9914 2.7011-1.4322 0.89148-3.1684 1.8291-3.7368 3.4377-0.56377 1.5956 0.29762 3.3943 0.72324 5.0338 1.3009 5.0109 3.5868 9.7034 5.5449 14.487 0.60907 1.4881 1.2343 2.971 1.9287 4.4199 0.29962 0.62522 0.57392 1.998 0.96432 1.8416 7.8503-3.1442 8.3004-3.3896 16.273-7.612z"
         fill="#00ffe7"
         stroke-width="5"
         stroke="#000"
         transform="translate(23.823 -138.93)"/>
 </g>

 <path d="m391.21 1102.6c2.6988-253.72-0.1622-501.53 0-761.2 0-3.9964 4.1414-6.9071 6.8754-9.822 3.5854-3.8226 7.7258-7.224 12.277-9.822 4.4096-2.5168 9.2944-4.2614 14.242-5.4021 7.0476-1.6249 14.404-1.3237 21.608-1.9644 3.7644-0.33478 9.1839 2.1523 11.295-0.9822 2.4878-3.6934-3.0616-8.4007-3.9288-12.769-1.0246-5.1606-1.4733-10.454-1.4733-15.715s4.8176-11.653 1.4733-15.715c-2.0914-2.5401-6.5556-0.58575-9.822-0.9822-6.8946-0.83682-13.997-0.87577-20.626-2.9466-7.3373-2.292-14.962-5.1169-20.626-10.313-4.3862-4.0234-9.3448-8.8063-9.3309-15.224 0.036-16.803-1.2569-50.037-0.4911-77.103 0.1612-5.6991-7.0333-11.911-12.769-15.224-2.4471-1.4134-5.5237-1.4022-8.3487-1.4733-3.9581-0.0996-8.1712-0.14135-11.786 1.4733-4.5557 2.0347-8.526 5.6716-11.295 9.822-2.5859 3.8755-4.3953 8.6296-4.4199 13.26-0.1197 22.542-0.018 48.04 0.9822 73.665-1.1947 3.4014-4.0646 6.6803-6.8754 9.3309-2.8409 2.679-7.0448 3.6393-9.822 6.3843-0.4197 0.41492-0.701 0.95432-0.9822 1.4733-2.969 5.481-4.7745 11.519-7.3665 17.188-2.8007 6.1257-5.2218 12.489-8.8398 18.171-4.1884 6.5773-8.8129 12.223-14.733 18.171-4.8847 4.9072 12.526 2.2662 18.662 3.9288 4.9965 1.3539 9.9713 2.8803 14.733 4.911 3.2331 1.3788 6.7203 2.5576 9.3309 4.911 2.6304 2.3712 4.7073 5.5029 5.8932 8.8398 2.3129 6.5077 2.0176 13.72 1.9644 20.626-1.9269 250.35-1.8569 504.74-0.9822 757.77 0.015 4.2593-0.432 7.6414 0.4911 11.295 1.4705 5.8207 3.3462 12.245 7.8576 16.206 2.723 2.3909 6.7152 3.0063 10.313 3.4376 3.9144 0.4692 8.0425 0.2533 11.786-0.9821 3.8395-1.2669 7.8747-3.1593 10.313-6.3843 2.875-3.8024 3.2174-9.0372 3.9288-13.751 1.1484-7.6095 0.4092-15.386 0.4911-23.082z"
       fill="#2e0239"
       stroke="#000"
       stroke-width="8"/>


  <g>
   <path d="m346.77 390.6c0.03-3.7044 7.0974 2.1319 10.681 3.0694 2.929 0.76616 5.8385 1.6885 8.8398 2.0872 1.2583 0.16713 2.5395 0.20706 3.806 0.12277 1.9871-0.13224 3.9497-0.54754 5.8932-0.9822 1.6184-0.36195 3.2265-0.79282 4.7882-1.3505 1.6397-0.58554 3.1569-1.4788 4.7882-2.0872 1.2856-0.47945 2.7801-1.9781 3.9288-1.2278 2.1719 1.4187 0.9938 4.9449 0.8595 7.7348-0.3416 7.0925-0.1223 13.71-0.2456 21.363-0.035 2.2024-3.5493 2.6132-5.5248 3.5605-2.1006 1.0072-4.387 1.5807-6.6299 2.21-1.9404 0.54437-3.8868 1.1611-5.8932 1.3505-2.2017 0.20785-4.4475 0.11193-6.6299-0.24555-4.1275-0.67613-8.3614-1.5551-12.032-3.5605-2.088-1.1408-5.1817-2.3865-5.4021-4.6654-1.0433-10.791-1.3218-15.836-1.2277-27.379z"
         stroke="#000"
         fill="#e8641b"
         stroke-width="6"/>
   <path d="m346.13 531.8c0.03-3.7044 7.0974 2.1319 10.681 3.0694 2.9291 0.76616 5.8386 1.6885 8.8398 2.0872 1.2583 0.16713 2.5395 0.20706 3.806 0.12277 1.9871-0.13224 3.9497-0.54754 5.8932-0.9822 1.6184-0.36195 3.2265-0.79282 4.7883-1.3505 1.6397-0.58554 3.1568-1.4788 4.7882-2.0872 1.2855-0.47945 2.7801-1.9781 3.9288-1.2278 2.1718 1.4187 0.9938 4.9449 0.8594 7.7348-0.3416 7.0925-0.1223 13.71-0.2455 21.363-0.035 2.2024-3.5494 2.6132-5.5249 3.5605-2.1005 1.0072-4.387 1.5807-6.6299 2.21-1.9404 0.54437-3.8868 1.1611-5.8932 1.3505-2.2016 0.20785-4.4474 0.11193-6.6298-0.24555-4.1276-0.67613-8.3615-1.5551-12.032-3.5605-2.0879-1.1408-5.1817-2.3865-5.4021-4.6654-1.0433-10.791-1.3218-15.836-1.2277-27.379z"
         stroke="#000"
         fill="#e8641b"
         stroke-width="6"/>
   <path d="m345.47 622.2c0.03-3.7044 7.0974 2.1319 10.681 3.0694 2.9291 0.76616 5.8386 1.6885 8.8398 2.0872 1.2583 0.16713 2.5395 0.20706 3.806 0.12277 1.9871-0.13224 3.9497-0.54754 5.8932-0.9822 1.6184-0.36195 3.2265-0.79282 4.7883-1.3505 1.6397-0.58554 3.1568-1.4788 4.7882-2.0872 1.2855-0.47945 2.7801-1.9781 3.9288-1.2278 2.1718 1.4187 0.9938 4.9449 0.8594 7.7348-0.3416 7.0925-0.1223 13.71-0.2455 21.363-0.036 2.2024-3.5494 2.6132-5.5249 3.5605-2.1005 1.0072-4.387 1.5807-6.6299 2.21-1.9404 0.54437-3.8868 1.1611-5.8932 1.3505-2.2016 0.20785-4.4474 0.11193-6.6298-0.24555-4.1276-0.67613-8.3615-1.5551-12.032-3.5605-2.0879-1.1408-5.1817-2.3865-5.4021-4.6654-1.0433-10.791-1.3218-15.836-1.2277-27.379z"
         stroke="#000"
         fill="#e8641b"
         stroke-width="6"/>
   <path d="m346.13 725.89c0.03-3.7044 7.0974 2.1319 10.681 3.0694 2.9291 0.76616 5.8386 1.6885 8.8398 2.0872 1.2583 0.16713 2.5395 0.20706 3.806 0.12277 1.9871-0.13224 3.9497-0.54754 5.8932-0.9822 1.6184-0.36195 3.2265-0.79282 4.7883-1.3505 1.6397-0.58554 3.1568-1.4788 4.7882-2.0872 1.2855-0.47945 2.7801-1.9781 3.9288-1.2278 2.1718 1.4187 0.9938 4.9449 0.8594 7.7348-0.3416 7.0925-0.1223 13.71-0.2455 21.363-0.035 2.2024-3.5494 2.6132-5.5249 3.5605-2.1005 1.0072-4.387 1.5807-6.6299 2.21-1.9404 0.54437-3.8868 1.1611-5.8932 1.3505-2.2016 0.20785-4.4474 0.11193-6.6298-0.24555-4.1276-0.67613-8.3615-1.5551-12.032-3.5605-2.0879-1.1408-5.1817-2.3865-5.4021-4.6654-1.0433-10.791-1.3218-15.836-1.2277-27.379z"
         stroke="#000"
         fill="#e8641b"
         stroke-width="6"/>
   <path d="m346.62 846.87c0.03-3.7044 7.0974 2.1319 10.681 3.0694 2.9291 0.76616 5.8386 1.6885 8.8398 2.0872 1.2583 0.16713 2.5395 0.20706 3.806 0.12277 1.9871-0.13224 3.9498-0.54754 5.8932-0.9822 1.6184-0.36195 3.2265-0.79282 4.7883-1.3505 1.6397-0.58554 3.1568-1.4788 4.7882-2.0872 1.2855-0.47945 2.7801-1.9781 3.9288-1.2278 2.1718 1.4187 0.9938 4.9449 0.8594 7.7348-0.3416 7.0925-0.1223 13.71-0.2455 21.363-0.035 2.2024-3.5494 2.6132-5.5249 3.5605-2.1005 1.0072-4.387 1.5807-6.6299 2.21-1.9404 0.54437-3.8868 1.1611-5.8932 1.3505-2.2016 0.20785-4.4474 0.11193-6.6298-0.24555-4.1276-0.67613-8.3615-1.5551-12.032-3.5605-2.0879-1.1408-5.1817-2.3865-5.4021-4.6654-1.0433-10.791-1.3218-15.836-1.2277-27.379z"
         stroke="#000"
         fill="#e8641b"
         stroke-width="6"/>
   <path d="m346.62 959.3c0.03-3.7045 7.0974 2.1319 10.681 3.0693 2.9291 0.7662 5.8386 1.6886 8.8398 2.0872 1.2583 0.1672 2.5395 0.2071 3.806 0.1228 1.9871-0.1322 3.9498-0.5475 5.8932-0.9822 1.6184-0.362 3.2265-0.7928 4.7883-1.3505 1.6397-0.5856 3.1568-1.4788 4.7882-2.0872 1.2855-0.4794 2.7801-1.9781 3.9288-1.2277 2.1718 1.4186 0.9938 4.9449 0.8594 7.7348-0.3416 7.0925-0.1223 13.71-0.2455 21.363-0.035 2.2025-3.5494 2.6132-5.5249 3.5605-2.1005 1.0072-4.387 1.5807-6.6299 2.2099-1.9404 0.5444-3.8868 1.1611-5.8932 1.3506-2.2016 0.2078-4.4474 0.1119-6.6298-0.2456-4.1276-0.6761-8.3615-1.5551-12.032-3.5605-2.0879-1.1407-5.1817-2.3865-5.4021-4.6654-1.0433-10.791-1.3218-15.836-1.2277-27.379z"
         stroke="#000"
         fill="#e8641b"
         stroke-width="6"/>
  </g>

  <g>
   <path d="m356.72 431.64c1.5241-0.20743 1.9283-0.042 4.6012-0.69453 1.7041-0.41601 3.5869-1.1974 5.2957-1.9967 1.3851-0.64784 2.6824-1.4703 3.9935-2.2572 0.64702-0.38836 1.2708-0.81423 1.9099-1.2154 1.2107-0.75993 2.4388-1.492 3.6462-2.2572 1.078-0.68318 2.1821-1.3301 3.2122-2.0836 0.84633-0.61908 1.61-1.3442 2.4308-1.9968 0.37152-0.29536 0.68111-1.0263 1.1286-0.86815 0.70146 0.24796 0.45343 1.4294 0.52087 2.1704 0.0972 1.0679 0.0167 2.1569-0.17361 3.2122-0.25831 1.4322-0.78882 2.8054-1.3022 4.1671-0.50275 1.3334-1.0731 2.6453-1.7363 3.9067-0.48964 0.9313-1.0763 1.8089-1.6495 2.6913-0.61215 0.94239-1.2388 1.8767-1.9099 2.7781-0.90955 1.2216-1.8388 2.4339-2.8649 3.5594-0.89621 0.983-1.8598 1.9067-2.8649 2.7781-1.4652 1.2702-2.9163 2.5996-4.6012 3.5594-1.4334 0.81662-3.0335 1.3093-4.6012 1.8231-1.1939 0.39128-2.4066 0.75017-3.6462 0.95497-1.2022 0.19861-2.4277 0.26563-3.6462 0.26044-1.4515-6e-3 -2.9761 0.14736-4.3408-0.34726-1.3663-0.49522-2.4964-1.5267-3.5594-2.5176-1.2034-1.1218-2.272-2.4133-3.1253-3.8199-0.80018-1.319-1.3394-2.789-1.8231-4.2539-0.55022-1.6663-0.91324-3.3935-1.2154-5.1221-0.22068-1.2623-0.39979-2.5388-0.43408-3.8199-0.052-1.9416-0.0964-3.6592 0.34727-5.8166 0.12017-0.58435 0.68299-1.7815 1.1286-1.389 0.78358 0.69007 1.3873 1.5064 2.0836 2.2572 1.1835 1.2761 2.1278 2.8302 3.5594 3.8199 1.5693 1.0848 3.4402 1.7273 5.2957 2.1704 1.4118 0.33712 2.9045 0.54274 4.3408 0.34726z"
         fill="#fff"
         stroke="#000"
         stroke-width="2"
         transform="translate(10.377 -114.21)"/>
   <g fill="none">
    <path d="m341.87 439.88c1.5149 0.0868 3.0272 0.24855 4.5447 0.26032 2.0811 0.0161 4.1644-0.0846 6.2378-0.26032 2.2684-0.19228 4.5475-0.39666 6.7724-0.86775 1.8822-0.39851 3.7503-0.91949 5.5249-1.6487 2.278-0.9361 4.4603-2.1173 6.5051-3.471 1.6921-1.1202 3.1517-2.5418 4.7229-3.8181 2.0239-1.644 4.0397-3.2974 6.0596-4.9462"
          stroke-width="1.0075"
          stroke="#000"
          transform="translate(10.377 -114.21)"/>
    <g stroke-width="1px">
     <path d="m373.56 424.61 0.43408 15.974"
           stroke="#000"
           transform="translate(10.377 -114.21)"/>
     <path d="m361.58 430.52c0 17.971 0.17363 18.058 0.17363 18.058"
           stroke="#000"
           transform="translate(10.377 -114.21)"/>
     <path d="m348.91 429.47-0.60771 18.839"
           stroke="#000"
           transform="translate(10.377 -114.21)"/>
    </g>
   </g>
  </g>
  <g transform="translate(1395.4 111.55)" stroke-linecap="round">
   <ellipse cx="-1167.5" cy="136.01" rx="97.286" ry="97.833" fill="#fff" stroke-width="8" stroke="#000"/>
   <ellipse cx="-1169.1" cy="135.03" rx="31.332" ry="30.68" stroke-width="1.0714" stroke="#000"/>
  </g>


 <g transform="translate(-122 -32.582)">
  <ellipse cx="610.44" cy="318.43" rx="47.547" ry="48.038" fill="#0f0" stroke="#000" stroke-linecap="round" stroke-width="8"/>
  <path d="m563.36 328.23s18.196 4.6112 27.489 5.8875c5.2184 0.71671 10.51 1.0348 15.78 0.98124 5.9603-0.0605 11.92-0.63324 17.817-1.4719 6.5187-0.92707 13.01-2.1731 19.344-3.925 5.2115-1.4415 15.271-5.3968 15.271-5.3968"
        fill="none"
        stroke="#000"
        stroke-width="8.0253"/>
 </g>

 <g>
  <path d="m227.76 1069.8-0.9822-135.54 121.55-56.231"
        stroke="#000"
        stroke-width="6"
        fill="none"/>
  <path d="m504.42 952.23 0.4911-40.27-112.46-39.779h-0.4911"
        stroke="#000"
        stroke-width="6"
        fill="none"/>
 </g>

 <g>
  <ellipse cx="241.91" cy="49.474" rx="12.44" ry="12.669"
           fill="#3fbcef"
           stroke-linecap="round"
           stroke-width="6.2161"
           stroke="#000"/>
  <circle cx="513.98" cy="126.59" r="12.874"
          fill="#e8641b"
          stroke-linecap="round"
          stroke-width="4.7882"
          stroke="#000"/>
  <path d="m381.18 143.75s14.029-30.206 23.812-43.548c9.4882-12.94 19.078-27.367 33.337-34.726 11.23-5.7959 25.556-9.675 37.504-5.5562 12.075 4.1628 19.767 16.86 26.392 27.781 5.0386 8.3063 9.4651 27.565 9.4651 27.565"
        fill="none"
        stroke-width="5"
        stroke="#000"/>
  <path d="m364.64 149.92c0.24555-2.6601 0.44469-5.3249 0.73665-7.9804 0.42385-3.8549 1.0259-7.6886 1.4733-11.541 0.40825-3.5151 0.84383-7.0295 1.105-10.559 0.41716-5.6376 0.63525-11.291 0.73665-16.943 0.0969-5.4014 0.2485-10.817-0.12277-16.206-0.43398-6.2999-1.2998-12.576-2.4555-18.785-0.79384-4.2644-1.763-8.5096-3.0694-12.646-1.3504-4.2757-2.9296-8.5008-4.911-12.523-2.3851-4.8417-5.0244-9.6216-8.3487-13.874-3.2083-4.1036-6.8192-8.0108-11.05-11.05-4.6378-3.3315-9.8605-6.0286-15.347-7.612-4.2686-1.2319-8.8176-1.4271-13.26-1.3505-3.9235 0.06768-7.8475 0.682-11.664 1.5961-3.0334 0.72657-5.9422 1.9147-8.8398 3.0694-3.8795 1.5459-7.7604 3.1411-11.418 5.1565-4.0362 2.2241-7.8276 4.8827-11.541 7.612-4.1716 3.0662-7.9053 6.6954-12.032 9.822-1.8733 1.4193-3.971 2.5397-5.7704 4.0516-0.22156 0.18615-0.40925 0.40925-0.61387 0.61387"
        fill="none"
        stroke="#000"
        stroke-width="5"/>
 </g>

</svg>
